<?xml version="1.0" encoding="UTF-8" standalone="no"?>
<!DOCTYPE svg PUBLIC "-//W3C//DTD SVG 1.1//EN"
 "http://www.w3.org/Graphics/SVG/1.1/DTD/svg11.dtd">
<!-- Generated by graphviz version 2.38.0 (20140413.2041)
 -->
<!-- Title: blitzdg::reshapeMatTo1D Pages: 1 -->
<!--zoomable 275 -->
<svg id="main" version="1.1" xmlns="http://www.w3.org/2000/svg" xmlns:xlink="http://www.w3.org/1999/xlink" xml:space="preserve" onload="init(evt)">
<style type="text/css"><![CDATA[
.edge:hover path { stroke: red; }
.edge:hover polygon { stroke: red; fill: red; }
]]></style>
<script type="text/javascript"><![CDATA[
var edges = document.getElementsByTagName('g');
if (edges && edges.length) {
  for (var i=0;i<edges.length;i++) {
    if (edges[i].id.substr(0,4)=='edge') {
      edges[i].setAttribute('class','edge');
    }
  }
}
]]></script>
        <defs>
                <circle id="rim" cx="0" cy="0" r="7"/>
                <circle id="rim2" cx="0" cy="0" r="3.5"/>
                <g id="zoomPlus">
                        <use xlink:href="#rim" fill="#404040">
                                <set attributeName="fill" to="#808080" begin="zoomplus.mouseover" end="zoomplus.mouseout"/>
                        </use>
                        <path d="M-4,0h8M0,-4v8" fill="none" stroke="white" stroke-width="1.5" pointer-events="none"/>
                </g>
                <g id="zoomMin">
                        <use xlink:href="#rim" fill="#404040">
                                <set attributeName="fill" to="#808080" begin="zoomminus.mouseover" end="zoomminus.mouseout"/>
                        </use>
                        <path d="M-4,0h8" fill="none" stroke="white" stroke-width="1.5" pointer-events="none"/>
                </g>
                <g id="dirArrow">
                        <path fill="none" stroke="white" stroke-width="1.5" d="M0,-3.0v7 M-2.5,-0.5L0,-3.0L2.5,-0.5"/>
                </g>
               <g id="resetDef">
                       <use xlink:href="#rim2" fill="#404040">
                               <set attributeName="fill" to="#808080" begin="reset.mouseover" end="reset.mouseout"/>
                       </use>
               </g>
        </defs>

<script type="text/javascript">
var viewWidth = 1328;
var viewHeight = 275;
var sectionId = 'dynsection-15';
</script>
<script xlink:href="svgpan.js"/>
<svg id="graph" class="graph">
<g id="viewport">
<title>blitzdg::reshapeMatTo1D</title>
<polygon fill="white" stroke="none" points="-4,4 -4,-271 1324,-271 1324,4 -4,4"/>
<!-- Node1 -->
<g id="node1" class="node"><title>Node1</title>
<g id="a_node1"><a xlink:title="Vectorizes a dense matrix by writing it to an array.">
<polygon fill="#bfbfbf" stroke="black" points="1194,-131 1194,-150 1320,-150 1320,-131 1194,-131"/>
<text text-anchor="middle" x="1257" y="-138" font-family="Helvetica,sans-Serif" font-size="10.00">blitzdg::reshapeMatTo1D</text>
</a>
</g>
</g>
<!-- Node1&#45;&gt;Node1 -->
<g id="edge13" class="edge"><title>Node1&#45;&gt;Node1</title>
<path fill="none" stroke="midnightblue" d="M1290.73,-158.391C1290.24,-164.041 1278.99,-168.5 1257,-168.5 1225.01,-168.5 1215.76,-159.065 1229.26,-150.257"/>
<polygon fill="midnightblue" stroke="midnightblue" points="1293.49,-156.234 1284.74,-150.257 1287.85,-160.385 1293.49,-156.234"/>
</g>
<!-- Node2 -->
<g id="node2" class="node"><title>Node2</title>
<g id="a_node2"><a xlink:href="classblitzdg_1_1TriangleNodesProvisioner.html#ae3c85b338a622a5064dbc084f1d71c07" target="_top" xlink:title="Build volume&#45;to&#45;surface maps for &#39;&#45;&#39; and &#39;+&#39; traces, as well as for BC faces.">
<polygon fill="white" stroke="black" points="995,-236.5 995,-266.5 1158,-266.5 1158,-236.5 995,-236.5"/>
<text text-anchor="start" x="1003" y="-254.5" font-family="Helvetica,sans-Serif" font-size="10.00">blitzdg::TriangleNodesProvisioner</text>
<text text-anchor="middle" x="1076.5" y="-243.5" font-family="Helvetica,sans-Serif" font-size="10.00">::buildMaps</text>
</a>
</g>
</g>
<!-- Node1&#45;&gt;Node2 -->
<g id="edge1" class="edge"><title>Node1&#45;&gt;Node2</title>
<path fill="none" stroke="midnightblue" d="M1241.06,-157.684C1223.17,-177.253 1191.4,-208.912 1158,-227.5 1151.88,-230.904 1145.23,-233.876 1138.46,-236.457"/>
<polygon fill="midnightblue" stroke="midnightblue" points="1243.78,-159.894 1247.84,-150.111 1238.56,-155.224 1243.78,-159.894"/>
</g>
<!-- Node3 -->
<g id="node3" class="node"><title>Node3</title>
<g id="a_node3"><a xlink:href="classblitzdg_1_1DenseMatrixInverter.html#abc5fdde2a78d073764d11cb3b1bdae47" target="_top" xlink:title="Inverts the dense matrix .">
<polygon fill="white" stroke="black" points="807.5,-88.5 807.5,-118.5 947.5,-118.5 947.5,-88.5 807.5,-88.5"/>
<text text-anchor="start" x="815.5" y="-106.5" font-family="Helvetica,sans-Serif" font-size="10.00">blitzdg::DenseMatrixInverter</text>
<text text-anchor="middle" x="877.5" y="-95.5" font-family="Helvetica,sans-Serif" font-size="10.00">::computeInverse</text>
</a>
</g>
</g>
<!-- Node1&#45;&gt;Node3 -->
<g id="edge2" class="edge"><title>Node1&#45;&gt;Node3</title>
<path fill="none" stroke="midnightblue" d="M1203.37,-129.02C1188.74,-126.177 1172.8,-123.404 1158,-121.5 1086.62,-112.32 1004.36,-107.739 947.652,-105.506"/>
<polygon fill="midnightblue" stroke="midnightblue" points="1202.77,-132.468 1213.26,-130.988 1204.13,-125.603 1202.77,-132.468"/>
</g>
<!-- Node11 -->
<g id="node11" class="node"><title>Node11</title>
<g id="a_node11"><a xlink:href="BlitzHelpers_8hpp.html#a11524766470643376a34bedb9b22678b" target="_top" xlink:title="Convert a blitz matrix to a vector.">
<polygon fill="white" stroke="black" points="1024.5,-131 1024.5,-150 1128.5,-150 1128.5,-131 1024.5,-131"/>
<text text-anchor="middle" x="1076.5" y="-138" font-family="Helvetica,sans-Serif" font-size="10.00">blitzdg::fullToVector</text>
</a>
</g>
</g>
<!-- Node1&#45;&gt;Node11 -->
<g id="edge10" class="edge"><title>Node1&#45;&gt;Node11</title>
<path fill="none" stroke="midnightblue" d="M1183.68,-140.5C1165.19,-140.5 1145.7,-140.5 1128.54,-140.5"/>
<polygon fill="midnightblue" stroke="midnightblue" points="1183.82,-144 1193.82,-140.5 1183.82,-137 1183.82,-144"/>
</g>
<!-- Node13 -->
<g id="node13" class="node"><title>Node13</title>
<g id="a_node13"><a xlink:href="classblitzdg_1_1DirectSolver.html#a728856cfee7ed7c7c5761d39acbc7606" target="_top" xlink:title="Solves the linear system .">
<polygon fill="white" stroke="black" points="825,-39.5 825,-69.5 930,-69.5 930,-39.5 825,-39.5"/>
<text text-anchor="start" x="833" y="-57.5" font-family="Helvetica,sans-Serif" font-size="10.00">blitzdg::DirectSolver</text>
<text text-anchor="middle" x="877.5" y="-46.5" font-family="Helvetica,sans-Serif" font-size="10.00">::solve</text>
</a>
</g>
</g>
<!-- Node1&#45;&gt;Node13 -->
<g id="edge14" class="edge"><title>Node1&#45;&gt;Node13</title>
<path fill="none" stroke="midnightblue" d="M1224.05,-127.152C1205.12,-119.648 1180.5,-110.594 1158,-104.5 1079.73,-83.2985 986.643,-68.6989 930.098,-60.971"/>
<polygon fill="midnightblue" stroke="midnightblue" points="1222.81,-130.426 1233.4,-130.911 1225.43,-123.931 1222.81,-130.426"/>
</g>
<!-- Node15 -->
<g id="node15" class="node"><title>Node15</title>
<g id="a_node15"><a xlink:href="classblitzdg_1_1EigenSolver.html#a67242ffc3a849bd20a497ae100b78495" target="_top" xlink:title="Computes the eigenvalues and eigenvectors of the symmetric matrix .">
<polygon fill="white" stroke="black" points="1024.5,-187.5 1024.5,-217.5 1128.5,-217.5 1128.5,-187.5 1024.5,-187.5"/>
<text text-anchor="start" x="1032.5" y="-205.5" font-family="Helvetica,sans-Serif" font-size="10.00">blitzdg::EigenSolver</text>
<text text-anchor="middle" x="1076.5" y="-194.5" font-family="Helvetica,sans-Serif" font-size="10.00">::solve</text>
</a>
</g>
</g>
<!-- Node1&#45;&gt;Node15 -->
<g id="edge18" class="edge"><title>Node1&#45;&gt;Node15</title>
<path fill="none" stroke="midnightblue" d="M1222.63,-153.666C1203.76,-160.968 1179.68,-170.05 1158,-177.5 1148.17,-180.877 1137.61,-184.304 1127.46,-187.494"/>
<polygon fill="midnightblue" stroke="midnightblue" points="1223.93,-156.916 1231.98,-150.028 1221.39,-150.392 1223.93,-156.916"/>
</g>
<!-- Node4 -->
<g id="node4" class="node"><title>Node4</title>
<g id="a_node4"><a xlink:href="classblitzdg_1_1VandermondeBuilders.html#af1b51b21a630ecefbe8f001cbbcf00d1" target="_top" xlink:title="Computes the Vandermonde matrix which maps modal coefficients to nodal values.">
<polygon fill="white" stroke="black" points="605,-137.5 605,-167.5 752,-167.5 752,-137.5 605,-137.5"/>
<text text-anchor="start" x="613" y="-155.5" font-family="Helvetica,sans-Serif" font-size="10.00">blitzdg::VandermondeBuilders</text>
<text text-anchor="middle" x="678.5" y="-144.5" font-family="Helvetica,sans-Serif" font-size="10.00">::computeVandermondeMatrix</text>
</a>
</g>
</g>
<!-- Node3&#45;&gt;Node4 -->
<g id="edge3" class="edge"><title>Node3&#45;&gt;Node4</title>
<path fill="none" stroke="midnightblue" d="M806.236,-120.977C784.523,-126.377 760.811,-132.276 739.831,-137.494"/>
<polygon fill="midnightblue" stroke="midnightblue" points="807.195,-124.345 816.055,-118.535 805.506,-117.552 807.195,-124.345"/>
</g>
<!-- Node9 -->
<g id="node9" class="node"><title>Node9</title>
<g id="a_node9"><a xlink:href="classblitzdg_1_1TriangleNodesProvisioner.html#a6dd0ba9ce10a2b151d34a9f793e355b3" target="_top" xlink:title="Computes the 2D Vandermonde matrix which maps modal coefficients to nodal values.">
<polygon fill="white" stroke="black" points="597,-88.5 597,-118.5 760,-118.5 760,-88.5 597,-88.5"/>
<text text-anchor="start" x="605" y="-106.5" font-family="Helvetica,sans-Serif" font-size="10.00">blitzdg::TriangleNodesProvisioner</text>
<text text-anchor="middle" x="678.5" y="-95.5" font-family="Helvetica,sans-Serif" font-size="10.00">::computeVandermondeMatrix</text>
</a>
</g>
</g>
<!-- Node3&#45;&gt;Node9 -->
<g id="edge8" class="edge"><title>Node3&#45;&gt;Node9</title>
<path fill="none" stroke="midnightblue" d="M797.225,-103.5C785.07,-103.5 772.509,-103.5 760.321,-103.5"/>
<polygon fill="midnightblue" stroke="midnightblue" points="797.322,-107 807.322,-103.5 797.322,-100 797.322,-107"/>
</g>
<!-- Node5 -->
<g id="node5" class="node"><title>Node5</title>
<g id="a_node5"><a xlink:href="classblitzdg_1_1Nodes1DProvisioner.html#abe2340db4af5d25b8b0c5ada270fce5c" target="_top" xlink:title="Builds the nodes and all geometric factors for each element.">
<polygon fill="white" stroke="black" points="409,-186.5 409,-216.5 550,-216.5 550,-186.5 409,-186.5"/>
<text text-anchor="start" x="417" y="-204.5" font-family="Helvetica,sans-Serif" font-size="10.00">blitzdg::Nodes1DProvisioner</text>
<text text-anchor="middle" x="479.5" y="-193.5" font-family="Helvetica,sans-Serif" font-size="10.00">::buildNodes</text>
</a>
</g>
</g>
<!-- Node4&#45;&gt;Node5 -->
<g id="edge4" class="edge"><title>Node4&#45;&gt;Node5</title>
<path fill="none" stroke="midnightblue" d="M607.236,-169.977C585.523,-175.377 561.811,-181.276 540.831,-186.494"/>
<polygon fill="midnightblue" stroke="midnightblue" points="608.195,-173.345 617.055,-167.535 606.506,-166.552 608.195,-173.345"/>
</g>
<!-- Node6 -->
<g id="node6" class="node"><title>Node6</title>
<g id="a_node6"><a xlink:href="classblitzdg_1_1TriangleNodesProvisioner.html#a765fd7c797f8d1947d791f64d7b04270" target="_top" xlink:title="Computes geometric warp function for interior nodes.">
<polygon fill="white" stroke="black" points="398,-137.5 398,-167.5 561,-167.5 561,-137.5 398,-137.5"/>
<text text-anchor="start" x="406" y="-155.5" font-family="Helvetica,sans-Serif" font-size="10.00">blitzdg::TriangleNodesProvisioner</text>
<text text-anchor="middle" x="479.5" y="-144.5" font-family="Helvetica,sans-Serif" font-size="10.00">::computeWarpFactor</text>
</a>
</g>
</g>
<!-- Node4&#45;&gt;Node6 -->
<g id="edge5" class="edge"><title>Node4&#45;&gt;Node6</title>
<path fill="none" stroke="midnightblue" d="M594.844,-152.5C583.699,-152.5 572.276,-152.5 561.166,-152.5"/>
<polygon fill="midnightblue" stroke="midnightblue" points="594.984,-156 604.984,-152.5 594.984,-149 594.984,-156"/>
</g>
<!-- Node7 -->
<g id="node7" class="node"><title>Node7</title>
<g id="a_node7"><a xlink:href="classblitzdg_1_1TriangleNodesProvisioner.html#acc359d3edf261edc8c5396d747f5b06c" target="_top" xlink:title="Compute (x,y) nodes in equilateral triangle for polynomial of order N.">
<polygon fill="white" stroke="black" points="199,-137.5 199,-167.5 362,-167.5 362,-137.5 199,-137.5"/>
<text text-anchor="start" x="207" y="-155.5" font-family="Helvetica,sans-Serif" font-size="10.00">blitzdg::TriangleNodesProvisioner</text>
<text text-anchor="middle" x="280.5" y="-144.5" font-family="Helvetica,sans-Serif" font-size="10.00">::computeEquilateralNodes</text>
</a>
</g>
</g>
<!-- Node6&#45;&gt;Node7 -->
<g id="edge6" class="edge"><title>Node6&#45;&gt;Node7</title>
<path fill="none" stroke="midnightblue" d="M387.785,-152.5C379.205,-152.5 370.546,-152.5 362.07,-152.5"/>
<polygon fill="midnightblue" stroke="midnightblue" points="387.804,-156 397.804,-152.5 387.804,-149 387.804,-156"/>
</g>
<!-- Node8 -->
<g id="node8" class="node"><title>Node8</title>
<g id="a_node8"><a xlink:href="classblitzdg_1_1TriangleNodesProvisioner.html#a07a0a9e0808ee63eb8259212aff90518" target="_top" xlink:title="Builds nodes and local operators.">
<polygon fill="white" stroke="black" points="0,-137.5 0,-167.5 163,-167.5 163,-137.5 0,-137.5"/>
<text text-anchor="start" x="8" y="-155.5" font-family="Helvetica,sans-Serif" font-size="10.00">blitzdg::TriangleNodesProvisioner</text>
<text text-anchor="middle" x="81.5" y="-144.5" font-family="Helvetica,sans-Serif" font-size="10.00">::buildNodes</text>
</a>
</g>
</g>
<!-- Node7&#45;&gt;Node8 -->
<g id="edge7" class="edge"><title>Node7&#45;&gt;Node8</title>
<path fill="none" stroke="midnightblue" d="M188.785,-152.5C180.205,-152.5 171.546,-152.5 163.07,-152.5"/>
<polygon fill="midnightblue" stroke="midnightblue" points="188.804,-156 198.804,-152.5 188.804,-149 188.804,-156"/>
</g>
<!-- Node10 -->
<g id="node10" class="node"><title>Node10</title>
<g id="a_node10"><a xlink:href="classblitzdg_1_1TriangleNodesProvisioner.html#aef7f798f38c69f237c124b92ce3af33b" target="_top" xlink:title="Build x and y coordinates and geometric factors.">
<polygon fill="white" stroke="black" points="398,-44.5 398,-74.5 561,-74.5 561,-44.5 398,-44.5"/>
<text text-anchor="start" x="406" y="-62.5" font-family="Helvetica,sans-Serif" font-size="10.00">blitzdg::TriangleNodesProvisioner</text>
<text text-anchor="middle" x="479.5" y="-51.5" font-family="Helvetica,sans-Serif" font-size="10.00">::buildPhysicalGrid</text>
</a>
</g>
</g>
<!-- Node9&#45;&gt;Node10 -->
<g id="edge9" class="edge"><title>Node9&#45;&gt;Node10</title>
<path fill="none" stroke="midnightblue" d="M600.185,-86.2316C582.872,-82.3648 564.643,-78.2934 547.776,-74.5262"/>
<polygon fill="midnightblue" stroke="midnightblue" points="599.732,-89.7167 610.255,-88.4808 601.258,-82.8851 599.732,-89.7167"/>
</g>
<!-- Node11&#45;&gt;Node11 -->
<g id="edge12" class="edge"><title>Node11&#45;&gt;Node11</title>
<path fill="none" stroke="midnightblue" d="M1110.23,-158.391C1109.74,-164.041 1098.49,-168.5 1076.5,-168.5 1044.51,-168.5 1035.26,-159.065 1048.76,-150.257"/>
<polygon fill="midnightblue" stroke="midnightblue" points="1112.99,-156.234 1104.24,-150.257 1107.35,-160.385 1112.99,-156.234"/>
</g>
<!-- Node12 -->
<g id="node12" class="node"><title>Node12</title>
<g id="a_node12"><a xlink:href="classblitzdg_1_1TriangleNodesProvisioner.html#af2ff1c76954a431ba06744f1802b4adc" target="_top" xlink:title="Build hashmap mapping BCTypes to node indices that are on that boundary using the input BCType table.">
<polygon fill="white" stroke="black" points="796,-137.5 796,-167.5 959,-167.5 959,-137.5 796,-137.5"/>
<text text-anchor="start" x="804" y="-155.5" font-family="Helvetica,sans-Serif" font-size="10.00">blitzdg::TriangleNodesProvisioner</text>
<text text-anchor="middle" x="877.5" y="-144.5" font-family="Helvetica,sans-Serif" font-size="10.00">::buildBCHash</text>
</a>
</g>
</g>
<!-- Node11&#45;&gt;Node12 -->
<g id="edge11" class="edge"><title>Node11&#45;&gt;Node12</title>
<path fill="none" stroke="midnightblue" d="M1014.24,-144.232C996.842,-145.291 977.626,-146.462 959.26,-147.581"/>
<polygon fill="midnightblue" stroke="midnightblue" points="1014.49,-147.723 1024.25,-143.622 1014.06,-140.736 1014.49,-147.723"/>
</g>
<!-- Node13&#45;&gt;Node6 -->
<g id="edge17" class="edge"><title>Node13&#45;&gt;Node6</title>
<path fill="none" stroke="midnightblue" d="M814.702,-51.4925C756.9,-50.5962 668.93,-54.2013 597,-78.5 558.409,-91.5366 519.697,-119.891 498.043,-137.471"/>
<polygon fill="midnightblue" stroke="midnightblue" points="814.707,-54.9932 824.777,-51.6991 814.851,-47.9947 814.707,-54.9932"/>
</g>
<!-- Node14 -->
<g id="node14" class="node"><title>Node14</title>
<g id="a_node14"><a xlink:href="classblitzdg_1_1TriangleNodesProvisioner.html#a3690f4dbca6665f66effb69f94aab6bc" target="_top" xlink:title="Compute the two 2D differentiation matrices given the Gradient of the Vandermonde matrix and the Vand...">
<polygon fill="white" stroke="black" points="597,-0.5 597,-30.5 760,-30.5 760,-0.5 597,-0.5"/>
<text text-anchor="start" x="605" y="-18.5" font-family="Helvetica,sans-Serif" font-size="10.00">blitzdg::TriangleNodesProvisioner</text>
<text text-anchor="middle" x="678.5" y="-7.5" font-family="Helvetica,sans-Serif" font-size="10.00">::computeDifferentiationMatrices</text>
</a>
</g>
</g>
<!-- Node13&#45;&gt;Node14 -->
<g id="edge15" class="edge"><title>Node13&#45;&gt;Node14</title>
<path fill="none" stroke="midnightblue" d="M815.062,-42.3372C796.217,-38.6064 775.253,-34.4562 755.554,-30.5564"/>
<polygon fill="midnightblue" stroke="midnightblue" points="814.509,-45.7954 824.998,-44.3042 815.868,-38.9287 814.509,-45.7954"/>
</g>
<!-- Node14&#45;&gt;Node10 -->
<g id="edge16" class="edge"><title>Node14&#45;&gt;Node10</title>
<path fill="none" stroke="midnightblue" d="M600.185,-32.7684C582.872,-36.6352 564.643,-40.7066 547.776,-44.4738"/>
<polygon fill="midnightblue" stroke="midnightblue" points="601.258,-36.1149 610.255,-30.5192 599.732,-29.2833 601.258,-36.1149"/>
</g>
<!-- Node16 -->
<g id="node16" class="node"><title>Node16</title>
<g id="a_node16"><a xlink:href="classblitzdg_1_1JacobiBuilders.html#a6c06c7134e69c90790fe33e18dbd98a2" target="_top" xlink:title="Computes the nodes and weights of the Nth order Gauss&#45;Jacobi&#45;Lobotto quadrature rule with parameters ...">
<polygon fill="white" stroke="black" points="803.5,-186.5 803.5,-216.5 951.5,-216.5 951.5,-186.5 803.5,-186.5"/>
<text text-anchor="start" x="811.5" y="-204.5" font-family="Helvetica,sans-Serif" font-size="10.00">blitzdg::JacobiBuilders</text>
<text text-anchor="middle" x="877.5" y="-193.5" font-family="Helvetica,sans-Serif" font-size="10.00">::computeJacobiQuadWeights</text>
</a>
</g>
</g>
<!-- Node15&#45;&gt;Node16 -->
<g id="edge19" class="edge"><title>Node15&#45;&gt;Node16</title>
<path fill="none" stroke="midnightblue" d="M1014.15,-202.189C994.383,-202.088 972.276,-201.976 951.74,-201.872"/>
<polygon fill="midnightblue" stroke="midnightblue" points="1014.24,-205.689 1024.25,-202.24 1014.27,-198.689 1014.24,-205.689"/>
</g>
<!-- Node17 -->
<g id="node17" class="node"><title>Node17</title>
<g id="a_node17"><a xlink:href="classblitzdg_1_1JacobiBuilders.html#a8b85322f52325c7efe38e2c27cb25292" target="_top" xlink:title="Computes the nodes of the Nth order Gauss&#45;Jacobi&#45;Lobotto quadrature rule with parameters &#160;and .">
<polygon fill="white" stroke="black" points="604,-186.5 604,-216.5 753,-216.5 753,-186.5 604,-186.5"/>
<text text-anchor="start" x="612" y="-204.5" font-family="Helvetica,sans-Serif" font-size="10.00">blitzdg::JacobiBuilders</text>
<text text-anchor="middle" x="678.5" y="-193.5" font-family="Helvetica,sans-Serif" font-size="10.00">::computeGaussLobottoPoints</text>
</a>
</g>
</g>
<!-- Node16&#45;&gt;Node17 -->
<g id="edge20" class="edge"><title>Node16&#45;&gt;Node17</title>
<path fill="none" stroke="midnightblue" d="M793.307,-201.5C779.956,-201.5 766.221,-201.5 753.115,-201.5"/>
<polygon fill="midnightblue" stroke="midnightblue" points="793.424,-205 803.424,-201.5 793.424,-198 793.424,-205"/>
</g>
<!-- Node17&#45;&gt;Node5 -->
<g id="edge21" class="edge"><title>Node17&#45;&gt;Node5</title>
<path fill="none" stroke="midnightblue" d="M593.864,-201.5C579.293,-201.5 564.277,-201.5 550.133,-201.5"/>
<polygon fill="midnightblue" stroke="midnightblue" points="593.864,-205 603.864,-201.5 593.864,-198 593.864,-205"/>
</g>
<!-- Node17&#45;&gt;Node6 -->
<g id="edge22" class="edge"><title>Node17&#45;&gt;Node6</title>
<path fill="none" stroke="midnightblue" d="M607.236,-184.023C585.523,-178.623 561.811,-172.724 540.831,-167.506"/>
<polygon fill="midnightblue" stroke="midnightblue" points="606.506,-187.448 617.055,-186.465 608.195,-180.655 606.506,-187.448"/>
</g>
</g>
</svg>
        <g id="navigator" transform="translate(0 0)" fill="#404254">
                <rect fill="#f2f5e9" fill-opacity="0.5" stroke="#606060" stroke-width=".5" x="0" y="0" width="60" height="60"/>
                <use id="zoomplus" xlink:href="#zoomPlus" x="17" y="9" onmousedown="handleZoom(evt,'in')"/>
                <use id="zoomminus" xlink:href="#zoomMin" x="42" y="9" onmousedown="handleZoom(evt,'out')"/>
                <use id="reset" xlink:href="#resetDef" x="30" y="36" onmousedown="handleReset()"/>
                <g id="arrowUp" xlink:href="#dirArrow" transform="translate(30 24)" onmousedown="handlePan(0,-1)">
                  <use xlink:href="#rim" fill="#404040">
                        <set attributeName="fill" to="#808080" begin="arrowUp.mouseover" end="arrowUp.mouseout"/>
                  </use>
                  <path fill="none" stroke="white" stroke-width="1.5" d="M0,-3.0v7 M-2.5,-0.5L0,-3.0L2.5,-0.5"/>
                </g>
                <g id="arrowRight" xlink:href="#dirArrow" transform="rotate(90) translate(36 -43)" onmousedown="handlePan(1,0)">
                  <use xlink:href="#rim" fill="#404040">
                        <set attributeName="fill" to="#808080" begin="arrowRight.mouseover" end="arrowRight.mouseout"/>
                  </use>
                  <path fill="none" stroke="white" stroke-width="1.5" d="M0,-3.0v7 M-2.5,-0.5L0,-3.0L2.5,-0.5"/>
                </g>
                <g id="arrowDown" xlink:href="#dirArrow" transform="rotate(180) translate(-30 -48)" onmousedown="handlePan(0,1)">
                  <use xlink:href="#rim" fill="#404040">
                        <set attributeName="fill" to="#808080" begin="arrowDown.mouseover" end="arrowDown.mouseout"/>
                  </use>
                  <path fill="none" stroke="white" stroke-width="1.5" d="M0,-3.0v7 M-2.5,-0.5L0,-3.0L2.5,-0.5"/>
                </g>
                <g id="arrowLeft" xlink:href="#dirArrow" transform="rotate(270) translate(-36 17)" onmousedown="handlePan(-1,0)">
                  <use xlink:href="#rim" fill="#404040">
                        <set attributeName="fill" to="#808080" begin="arrowLeft.mouseover" end="arrowLeft.mouseout"/>
                  </use>
                  <path fill="none" stroke="white" stroke-width="1.5" d="M0,-3.0v7 M-2.5,-0.5L0,-3.0L2.5,-0.5"/>
                </g>
        </g>
        <svg viewBox="0 0 15 15" width="100%" height="30px" preserveAspectRatio="xMaxYMin meet">
         <g id="arrow_out" transform="scale(0.3 0.3)">
          <a xlink:href="BlitzHelpers_8hpp_aaa66bfe8cd7c9adad27aa42f765c980b_icgraph_org.svg" target="_base">
           <rect id="button" ry="5" rx="5" y="6" x="6" height="38" width="38"
                fill="#f2f5e9" fill-opacity="0.5" stroke="#606060" stroke-width="1.0"/>
           <path id="arrow"
             d="M 11.500037,31.436501 C 11.940474,20.09759 22.043105,11.32322 32.158766,21.979434 L 37.068811,17.246167 C 37.068811,17.246167 37.088388,32 37.088388,32 L 22.160133,31.978069 C 22.160133,31.978069 26.997745,27.140456 26.997745,27.140456 C 18.528582,18.264221 13.291696,25.230495 11.500037,31.436501 z"
             style="fill:#404040;"/>
          </a>
         </g>
        </svg>
</svg>
