<?xml version="1.0" encoding="UTF-8" standalone="no"?>
<!DOCTYPE svg PUBLIC "-//W3C//DTD SVG 1.1//EN"
 "http://www.w3.org/Graphics/SVG/1.1/DTD/svg11.dtd">
<!-- Generated by graphviz version 2.38.0 (20140413.2041)
 -->
<!-- Title: blitzdg::reshape1DToMat Pages: 1 -->
<svg width="1255pt" height="277pt"
 viewBox="0.00 0.00 1255.00 276.50" xmlns="http://www.w3.org/2000/svg" xmlns:xlink="http://www.w3.org/1999/xlink">
<g id="graph0" class="graph" transform="scale(1 1) rotate(0) translate(4 272.5)">
<title>blitzdg::reshape1DToMat</title>
<polygon fill="white" stroke="none" points="-4,4 -4,-272.5 1251,-272.5 1251,4 -4,4"/>
<!-- Node1 -->
<g id="node1" class="node"><title>Node1</title>
<g id="a_node1"><a xlink:title="Reshapes an array to a dense matrix.">
<polygon fill="#bfbfbf" stroke="black" points="1121,-84.5 1121,-103.5 1247,-103.5 1247,-84.5 1121,-84.5"/>
<text text-anchor="middle" x="1184" y="-91.5" font-family="Helvetica,sans-Serif" font-size="10.00">blitzdg::reshape1DToMat</text>
</a>
</g>
</g>
<!-- Node1&#45;&gt;Node1 -->
<g id="edge9" class="edge"><title>Node1&#45;&gt;Node1</title>
<path fill="none" stroke="midnightblue" d="M1212,-112.654C1210.83,-117.937 1201.5,-122 1184,-122 1157.34,-122 1149.63,-112.565 1160.88,-103.757"/>
<polygon fill="midnightblue" stroke="midnightblue" points="1215,-110.842 1207.12,-103.757 1208.86,-114.208 1215,-110.842"/>
</g>
<!-- Node2 -->
<g id="node2" class="node"><title>Node2</title>
<g id="a_node2"><a xlink:href="classblitzdg_1_1DenseMatrixInverter.html#abc5fdde2a78d073764d11cb3b1bdae47" target="_top" xlink:title="Inverts the dense matrix .">
<polygon fill="white" stroke="black" points="800,-150 800,-180 940,-180 940,-150 800,-150"/>
<text text-anchor="start" x="808" y="-168" font-family="Helvetica,sans-Serif" font-size="10.00">blitzdg::DenseMatrixInverter</text>
<text text-anchor="middle" x="870" y="-157" font-family="Helvetica,sans-Serif" font-size="10.00">::computeInverse</text>
</a>
</g>
</g>
<!-- Node1&#45;&gt;Node2 -->
<g id="edge1" class="edge"><title>Node1&#45;&gt;Node2</title>
<path fill="none" stroke="midnightblue" d="M1134.78,-106.052C1118.94,-109.946 1101.24,-114.23 1085,-118 1036.65,-129.229 981.981,-141.223 940.003,-150.284"/>
<polygon fill="midnightblue" stroke="midnightblue" points="1136.02,-109.352 1144.89,-103.559 1134.34,-102.556 1136.02,-109.352"/>
</g>
<!-- Node10 -->
<g id="node10" class="node"><title>Node10</title>
<g id="a_node10"><a xlink:href="classblitzdg_1_1DirectSolver.html#a728856cfee7ed7c7c5761d39acbc7606" target="_top" xlink:title="Solves the linear system .">
<polygon fill="white" stroke="black" points="817.5,-101 817.5,-131 922.5,-131 922.5,-101 817.5,-101"/>
<text text-anchor="start" x="825.5" y="-119" font-family="Helvetica,sans-Serif" font-size="10.00">blitzdg::DirectSolver</text>
<text text-anchor="middle" x="870" y="-108" font-family="Helvetica,sans-Serif" font-size="10.00">::solve</text>
</a>
</g>
</g>
<!-- Node1&#45;&gt;Node10 -->
<g id="edge10" class="edge"><title>Node1&#45;&gt;Node10</title>
<path fill="none" stroke="midnightblue" d="M1110.86,-99.0871C1053.25,-103.149 973.937,-108.742 922.566,-112.364"/>
<polygon fill="midnightblue" stroke="midnightblue" points="1111.26,-102.568 1120.99,-98.3728 1110.76,-95.5849 1111.26,-102.568"/>
</g>
<!-- Node12 -->
<g id="node12" class="node"><title>Node12</title>
<g id="a_node12"><a xlink:href="classblitzdg_1_1EigenSolver.html#a67242ffc3a849bd20a497ae100b78495" target="_top" xlink:title="Computes the eigenvalues and eigenvectors of the symmetric matrix .">
<polygon fill="white" stroke="black" points="980.5,-57 980.5,-87 1084.5,-87 1084.5,-57 980.5,-57"/>
<text text-anchor="start" x="988.5" y="-75" font-family="Helvetica,sans-Serif" font-size="10.00">blitzdg::EigenSolver</text>
<text text-anchor="middle" x="1032.5" y="-64" font-family="Helvetica,sans-Serif" font-size="10.00">::solve</text>
</a>
</g>
</g>
<!-- Node1&#45;&gt;Node12 -->
<g id="edge14" class="edge"><title>Node1&#45;&gt;Node12</title>
<path fill="none" stroke="midnightblue" d="M1110.95,-83.3975C1102.1,-82.0949 1093.2,-80.7849 1084.74,-79.5406"/>
<polygon fill="midnightblue" stroke="midnightblue" points="1110.49,-86.8679 1120.9,-84.8611 1111.51,-79.9425 1110.49,-86.8679"/>
</g>
<!-- Node15 -->
<g id="node15" class="node"><title>Node15</title>
<g id="a_node15"><a xlink:href="BlitzHelpers_8hpp.html#a775d6728bf5f93d49d1f91774d3409eb" target="_top" xlink:title="Convert a vector to a blitz matrix.">
<polygon fill="white" stroke="black" points="980,-0.5 980,-19.5 1085,-19.5 1085,-0.5 980,-0.5"/>
<text text-anchor="middle" x="1032.5" y="-7.5" font-family="Helvetica,sans-Serif" font-size="10.00">blitzdg::vectorToFull</text>
</a>
</g>
</g>
<!-- Node1&#45;&gt;Node15 -->
<g id="edge19" class="edge"><title>Node1&#45;&gt;Node15</title>
<path fill="none" stroke="midnightblue" d="M1157.02,-79.4039C1126.42,-62.2092 1076.46,-34.1391 1050.45,-19.5235"/>
<polygon fill="midnightblue" stroke="midnightblue" points="1155.42,-82.517 1165.85,-84.3641 1158.85,-76.4143 1155.42,-82.517"/>
</g>
<!-- Node3 -->
<g id="node3" class="node"><title>Node3</title>
<g id="a_node3"><a xlink:href="classblitzdg_1_1VandermondeBuilders.html#af1b51b21a630ecefbe8f001cbbcf00d1" target="_top" xlink:title="Computes the Vandermonde matrix which maps modal coefficients to nodal values.">
<polygon fill="white" stroke="black" points="605,-140 605,-170 752,-170 752,-140 605,-140"/>
<text text-anchor="start" x="613" y="-158" font-family="Helvetica,sans-Serif" font-size="10.00">blitzdg::VandermondeBuilders</text>
<text text-anchor="middle" x="678.5" y="-147" font-family="Helvetica,sans-Serif" font-size="10.00">::computeVandermondeMatrix</text>
</a>
</g>
</g>
<!-- Node2&#45;&gt;Node3 -->
<g id="edge2" class="edge"><title>Node2&#45;&gt;Node3</title>
<path fill="none" stroke="midnightblue" d="M789.459,-160.803C777.048,-160.148 764.278,-159.474 752.034,-158.828"/>
<polygon fill="midnightblue" stroke="midnightblue" points="789.611,-164.315 799.782,-161.347 789.98,-157.325 789.611,-164.315"/>
</g>
<!-- Node8 -->
<g id="node8" class="node"><title>Node8</title>
<g id="a_node8"><a xlink:href="classblitzdg_1_1TriangleNodesProvisioner.html#a6dd0ba9ce10a2b151d34a9f793e355b3" target="_top" xlink:title="Computes the 2D Vandermonde matrix which maps modal coefficients to nodal values.">
<polygon fill="white" stroke="black" points="597,-238 597,-268 760,-268 760,-238 597,-238"/>
<text text-anchor="start" x="605" y="-256" font-family="Helvetica,sans-Serif" font-size="10.00">blitzdg::TriangleNodesProvisioner</text>
<text text-anchor="middle" x="678.5" y="-245" font-family="Helvetica,sans-Serif" font-size="10.00">::computeVandermondeMatrix</text>
</a>
</g>
</g>
<!-- Node2&#45;&gt;Node8 -->
<g id="edge7" class="edge"><title>Node2&#45;&gt;Node8</title>
<path fill="none" stroke="midnightblue" d="M838.284,-185.744C817.007,-199.425 787.644,-216.974 760,-229 752.511,-232.258 744.447,-235.239 736.417,-237.908"/>
<polygon fill="midnightblue" stroke="midnightblue" points="840.41,-188.536 846.879,-180.145 836.589,-182.671 840.41,-188.536"/>
</g>
<!-- Node4 -->
<g id="node4" class="node"><title>Node4</title>
<g id="a_node4"><a xlink:href="classblitzdg_1_1Nodes1DProvisioner.html#abe2340db4af5d25b8b0c5ada270fce5c" target="_top" xlink:title="Builds the nodes and all geometric factors for each element.">
<polygon fill="white" stroke="black" points="409,-140 409,-170 550,-170 550,-140 409,-140"/>
<text text-anchor="start" x="417" y="-158" font-family="Helvetica,sans-Serif" font-size="10.00">blitzdg::Nodes1DProvisioner</text>
<text text-anchor="middle" x="479.5" y="-147" font-family="Helvetica,sans-Serif" font-size="10.00">::buildNodes</text>
</a>
</g>
</g>
<!-- Node3&#45;&gt;Node4 -->
<g id="edge3" class="edge"><title>Node3&#45;&gt;Node4</title>
<path fill="none" stroke="midnightblue" d="M594.812,-155C579.982,-155 564.66,-155 550.24,-155"/>
<polygon fill="midnightblue" stroke="midnightblue" points="594.984,-158.5 604.984,-155 594.984,-151.5 594.984,-158.5"/>
</g>
<!-- Node5 -->
<g id="node5" class="node"><title>Node5</title>
<g id="a_node5"><a xlink:href="classblitzdg_1_1TriangleNodesProvisioner.html#a765fd7c797f8d1947d791f64d7b04270" target="_top" xlink:title="Computes geometric warp function for interior nodes.">
<polygon fill="white" stroke="black" points="398,-91 398,-121 561,-121 561,-91 398,-91"/>
<text text-anchor="start" x="406" y="-109" font-family="Helvetica,sans-Serif" font-size="10.00">blitzdg::TriangleNodesProvisioner</text>
<text text-anchor="middle" x="479.5" y="-98" font-family="Helvetica,sans-Serif" font-size="10.00">::computeWarpFactor</text>
</a>
</g>
</g>
<!-- Node3&#45;&gt;Node5 -->
<g id="edge4" class="edge"><title>Node3&#45;&gt;Node5</title>
<path fill="none" stroke="midnightblue" d="M607.236,-137.523C585.523,-132.123 561.811,-126.224 540.831,-121.006"/>
<polygon fill="midnightblue" stroke="midnightblue" points="606.506,-140.948 617.055,-139.965 608.195,-134.155 606.506,-140.948"/>
</g>
<!-- Node6 -->
<g id="node6" class="node"><title>Node6</title>
<g id="a_node6"><a xlink:href="classblitzdg_1_1TriangleNodesProvisioner.html#acc359d3edf261edc8c5396d747f5b06c" target="_top" xlink:title="Compute (x,y) nodes in equilateral triangle for polynomial of order N.">
<polygon fill="white" stroke="black" points="199,-91 199,-121 362,-121 362,-91 199,-91"/>
<text text-anchor="start" x="207" y="-109" font-family="Helvetica,sans-Serif" font-size="10.00">blitzdg::TriangleNodesProvisioner</text>
<text text-anchor="middle" x="280.5" y="-98" font-family="Helvetica,sans-Serif" font-size="10.00">::computeEquilateralNodes</text>
</a>
</g>
</g>
<!-- Node5&#45;&gt;Node6 -->
<g id="edge5" class="edge"><title>Node5&#45;&gt;Node6</title>
<path fill="none" stroke="midnightblue" d="M387.785,-106C379.205,-106 370.546,-106 362.07,-106"/>
<polygon fill="midnightblue" stroke="midnightblue" points="387.804,-109.5 397.804,-106 387.804,-102.5 387.804,-109.5"/>
</g>
<!-- Node7 -->
<g id="node7" class="node"><title>Node7</title>
<g id="a_node7"><a xlink:href="classblitzdg_1_1TriangleNodesProvisioner.html#a07a0a9e0808ee63eb8259212aff90518" target="_top" xlink:title="Builds nodes and local operators.">
<polygon fill="white" stroke="black" points="0,-91 0,-121 163,-121 163,-91 0,-91"/>
<text text-anchor="start" x="8" y="-109" font-family="Helvetica,sans-Serif" font-size="10.00">blitzdg::TriangleNodesProvisioner</text>
<text text-anchor="middle" x="81.5" y="-98" font-family="Helvetica,sans-Serif" font-size="10.00">::buildNodes</text>
</a>
</g>
</g>
<!-- Node6&#45;&gt;Node7 -->
<g id="edge6" class="edge"><title>Node6&#45;&gt;Node7</title>
<path fill="none" stroke="midnightblue" d="M188.785,-106C180.205,-106 171.546,-106 163.07,-106"/>
<polygon fill="midnightblue" stroke="midnightblue" points="188.804,-109.5 198.804,-106 188.804,-102.5 188.804,-109.5"/>
</g>
<!-- Node9 -->
<g id="node9" class="node"><title>Node9</title>
<g id="a_node9"><a xlink:href="classblitzdg_1_1TriangleNodesProvisioner.html#aef7f798f38c69f237c124b92ce3af33b" target="_top" xlink:title="Build x and y coordinates and geometric factors.">
<polygon fill="white" stroke="black" points="398,-213 398,-243 561,-243 561,-213 398,-213"/>
<text text-anchor="start" x="406" y="-231" font-family="Helvetica,sans-Serif" font-size="10.00">blitzdg::TriangleNodesProvisioner</text>
<text text-anchor="middle" x="479.5" y="-220" font-family="Helvetica,sans-Serif" font-size="10.00">::buildPhysicalGrid</text>
</a>
</g>
</g>
<!-- Node8&#45;&gt;Node9 -->
<g id="edge8" class="edge"><title>Node8&#45;&gt;Node9</title>
<path fill="none" stroke="midnightblue" d="M586.785,-241.488C578.205,-240.399 569.546,-239.3 561.07,-238.225"/>
<polygon fill="midnightblue" stroke="midnightblue" points="586.443,-244.973 596.804,-242.759 587.324,-238.028 586.443,-244.973"/>
</g>
<!-- Node10&#45;&gt;Node5 -->
<g id="edge13" class="edge"><title>Node10&#45;&gt;Node5</title>
<path fill="none" stroke="midnightblue" d="M807.064,-114.406C740.412,-112.69 634.152,-109.955 561.048,-108.073"/>
<polygon fill="midnightblue" stroke="midnightblue" points="807.323,-117.914 817.41,-114.672 807.504,-110.916 807.323,-117.914"/>
</g>
<!-- Node11 -->
<g id="node11" class="node"><title>Node11</title>
<g id="a_node11"><a xlink:href="classblitzdg_1_1TriangleNodesProvisioner.html#a3690f4dbca6665f66effb69f94aab6bc" target="_top" xlink:title="Compute the two 2D differentiation matrices given the Gradient of the Vandermonde matrix and the Vand...">
<polygon fill="white" stroke="black" points="597,-189 597,-219 760,-219 760,-189 597,-189"/>
<text text-anchor="start" x="605" y="-207" font-family="Helvetica,sans-Serif" font-size="10.00">blitzdg::TriangleNodesProvisioner</text>
<text text-anchor="middle" x="678.5" y="-196" font-family="Helvetica,sans-Serif" font-size="10.00">::computeDifferentiationMatrices</text>
</a>
</g>
</g>
<!-- Node10&#45;&gt;Node11 -->
<g id="edge11" class="edge"><title>Node10&#45;&gt;Node11</title>
<path fill="none" stroke="midnightblue" d="M807.955,-134.268C803.793,-136.308 799.763,-138.547 796,-141 776.238,-153.881 780.016,-167.519 760,-180 754.555,-183.395 748.604,-186.332 742.481,-188.869"/>
<polygon fill="midnightblue" stroke="midnightblue" points="809.528,-137.399 817.225,-130.117 806.668,-131.01 809.528,-137.399"/>
</g>
<!-- Node11&#45;&gt;Node9 -->
<g id="edge12" class="edge"><title>Node11&#45;&gt;Node9</title>
<path fill="none" stroke="midnightblue" d="M586.785,-215.052C578.205,-216.097 569.546,-217.152 561.07,-218.184"/>
<polygon fill="midnightblue" stroke="midnightblue" points="587.301,-218.515 596.804,-213.831 586.454,-211.566 587.301,-218.515"/>
</g>
<!-- Node13 -->
<g id="node13" class="node"><title>Node13</title>
<g id="a_node13"><a xlink:href="classblitzdg_1_1JacobiBuilders.html#a6c06c7134e69c90790fe33e18dbd98a2" target="_top" xlink:title="Computes the nodes and weights of the Nth order Gauss&#45;Jacobi&#45;Lobotto quadrature rule with parameters ...">
<polygon fill="white" stroke="black" points="796,-52 796,-82 944,-82 944,-52 796,-52"/>
<text text-anchor="start" x="804" y="-70" font-family="Helvetica,sans-Serif" font-size="10.00">blitzdg::JacobiBuilders</text>
<text text-anchor="middle" x="870" y="-59" font-family="Helvetica,sans-Serif" font-size="10.00">::computeJacobiQuadWeights</text>
</a>
</g>
</g>
<!-- Node12&#45;&gt;Node13 -->
<g id="edge15" class="edge"><title>Node12&#45;&gt;Node13</title>
<path fill="none" stroke="midnightblue" d="M970.129,-70.0881C961.668,-69.8245 952.91,-69.5517 944.261,-69.2823"/>
<polygon fill="midnightblue" stroke="midnightblue" points="970.171,-73.5911 980.276,-70.4042 970.389,-66.5944 970.171,-73.5911"/>
</g>
<!-- Node14 -->
<g id="node14" class="node"><title>Node14</title>
<g id="a_node14"><a xlink:href="classblitzdg_1_1JacobiBuilders.html#a8b85322f52325c7efe38e2c27cb25292" target="_top" xlink:title="Computes the nodes of the Nth order Gauss&#45;Jacobi&#45;Lobotto quadrature rule with parameters &#160;and .">
<polygon fill="white" stroke="black" points="604,-52 604,-82 753,-82 753,-52 604,-52"/>
<text text-anchor="start" x="612" y="-70" font-family="Helvetica,sans-Serif" font-size="10.00">blitzdg::JacobiBuilders</text>
<text text-anchor="middle" x="678.5" y="-59" font-family="Helvetica,sans-Serif" font-size="10.00">::computeGaussLobottoPoints</text>
</a>
</g>
</g>
<!-- Node13&#45;&gt;Node14 -->
<g id="edge16" class="edge"><title>Node13&#45;&gt;Node14</title>
<path fill="none" stroke="midnightblue" d="M785.497,-67C774.738,-67 763.782,-67 753.196,-67"/>
<polygon fill="midnightblue" stroke="midnightblue" points="785.734,-70.5001 795.734,-67 785.734,-63.5001 785.734,-70.5001"/>
</g>
<!-- Node14&#45;&gt;Node4 -->
<g id="edge17" class="edge"><title>Node14&#45;&gt;Node4</title>
<path fill="none" stroke="midnightblue" d="M645.088,-87.2488C622.214,-100.923 590.509,-118.661 561,-131 553.196,-134.263 544.796,-137.279 536.471,-139.994"/>
<polygon fill="midnightblue" stroke="midnightblue" points="646.957,-90.2089 653.704,-82.0403 643.335,-84.2183 646.957,-90.2089"/>
</g>
<!-- Node14&#45;&gt;Node5 -->
<g id="edge18" class="edge"><title>Node14&#45;&gt;Node5</title>
<path fill="none" stroke="midnightblue" d="M593.942,-83.5419C581.463,-86.0125 568.655,-88.5479 556.347,-90.9846"/>
<polygon fill="midnightblue" stroke="midnightblue" points="594.734,-86.9531 603.864,-81.5776 593.375,-80.0863 594.734,-86.9531"/>
</g>
<!-- Node15&#45;&gt;Node15 -->
<g id="edge20" class="edge"><title>Node15&#45;&gt;Node15</title>
<path fill="none" stroke="midnightblue" d="M1060.5,-28.6539C1059.33,-33.9368 1050,-38 1032.5,-38 1005.84,-38 998.133,-28.5653 1009.38,-19.7571"/>
<polygon fill="midnightblue" stroke="midnightblue" points="1063.5,-26.8417 1055.62,-19.7571 1057.36,-30.208 1063.5,-26.8417"/>
</g>
</g>
</svg>
