<?xml version="1.0" encoding="UTF-8" standalone="no"?>
<!DOCTYPE svg PUBLIC "-//W3C//DTD SVG 1.1//EN"
 "http://www.w3.org/Graphics/SVG/1.1/DTD/svg11.dtd">
<!-- Generated by graphviz version 2.38.0 (20140413.2041)
 -->
<!-- Title: include/BlitzHelpers.hpp Pages: 1 -->
<svg width="316pt" height="140pt"
 viewBox="0.00 0.00 316.00 140.00" xmlns="http://www.w3.org/2000/svg" xmlns:xlink="http://www.w3.org/1999/xlink">
<g id="graph0" class="graph" transform="scale(1 1) rotate(0) translate(4 136)">
<title>include/BlitzHelpers.hpp</title>
<polygon fill="white" stroke="none" points="-4,4 -4,-136 312,-136 312,4 -4,4"/>
<!-- Node1 -->
<g id="node1" class="node"><title>Node1</title>
<g id="a_node1"><a xlink:title="Defines a set of utility functions for working with blitz arrays and their matrix and vector aliases.">
<polygon fill="#bfbfbf" stroke="black" points="92.5,-112.5 92.5,-131.5 214.5,-131.5 214.5,-112.5 92.5,-112.5"/>
<text text-anchor="middle" x="153.5" y="-119.5" font-family="Helvetica,sans-Serif" font-size="10.00">include/BlitzHelpers.hpp</text>
</a>
</g>
</g>
<!-- Node2 -->
<g id="node2" class="node"><title>Node2</title>
<g id="a_node2"><a xlink:href="Poisson1d_8hpp.html" target="_top" xlink:title="Short header file for 1D Poisson solver&#39;s main.cpp file.">
<polygon fill="white" stroke="black" points="0,-56.5 0,-75.5 145,-75.5 145,-56.5 0,-56.5"/>
<text text-anchor="middle" x="72.5" y="-63.5" font-family="Helvetica,sans-Serif" font-size="10.00">src/poisson1d/Poisson1d.hpp</text>
</a>
</g>
</g>
<!-- Node1&#45;&gt;Node2 -->
<g id="edge1" class="edge"><title>Node1&#45;&gt;Node2</title>
<path fill="none" stroke="midnightblue" d="M131.933,-106.622C117.136,-96.7574 97.9878,-83.9919 85.4818,-75.6545"/>
<polygon fill="midnightblue" stroke="midnightblue" points="130.224,-109.689 140.486,-112.324 134.107,-103.865 130.224,-109.689"/>
</g>
<!-- Node4 -->
<g id="node4" class="node"><title>Node4</title>
<g id="a_node4"><a xlink:href="Poisson2d_8hpp.html" target="_top" xlink:title="Header file for 2D Poisson solver&#39;s main.cpp file.">
<polygon fill="white" stroke="black" points="163,-56.5 163,-75.5 308,-75.5 308,-56.5 163,-56.5"/>
<text text-anchor="middle" x="235.5" y="-63.5" font-family="Helvetica,sans-Serif" font-size="10.00">src/poisson2d/Poisson2d.hpp</text>
</a>
</g>
</g>
<!-- Node1&#45;&gt;Node4 -->
<g id="edge3" class="edge"><title>Node1&#45;&gt;Node4</title>
<path fill="none" stroke="midnightblue" d="M175.333,-106.622C190.313,-96.7574 209.697,-83.9919 222.358,-75.6545"/>
<polygon fill="midnightblue" stroke="midnightblue" points="173.101,-103.901 166.675,-112.324 176.951,-109.747 173.101,-103.901"/>
</g>
<!-- Node3 -->
<g id="node3" class="node"><title>Node3</title>
<g id="a_node3"><a xlink:href="poisson1d_2main_8cpp.html" target="_top" xlink:title=" ">
<polygon fill="white" stroke="black" points="12.5,-0.5 12.5,-19.5 132.5,-19.5 132.5,-0.5 12.5,-0.5"/>
<text text-anchor="middle" x="72.5" y="-7.5" font-family="Helvetica,sans-Serif" font-size="10.00">src/poisson1d/main.cpp</text>
</a>
</g>
</g>
<!-- Node2&#45;&gt;Node3 -->
<g id="edge2" class="edge"><title>Node2&#45;&gt;Node3</title>
<path fill="none" stroke="midnightblue" d="M72.5,-45.8045C72.5,-36.9102 72.5,-26.7798 72.5,-19.7511"/>
<polygon fill="midnightblue" stroke="midnightblue" points="69.0001,-46.083 72.5,-56.083 76.0001,-46.083 69.0001,-46.083"/>
</g>
<!-- Node5 -->
<g id="node5" class="node"><title>Node5</title>
<g id="a_node5"><a xlink:href="poisson2d_2main_8cpp.html" target="_top" xlink:title=" ">
<polygon fill="white" stroke="black" points="175.5,-0.5 175.5,-19.5 295.5,-19.5 295.5,-0.5 175.5,-0.5"/>
<text text-anchor="middle" x="235.5" y="-7.5" font-family="Helvetica,sans-Serif" font-size="10.00">src/poisson2d/main.cpp</text>
</a>
</g>
</g>
<!-- Node4&#45;&gt;Node5 -->
<g id="edge4" class="edge"><title>Node4&#45;&gt;Node5</title>
<path fill="none" stroke="midnightblue" d="M235.5,-45.8045C235.5,-36.9102 235.5,-26.7798 235.5,-19.7511"/>
<polygon fill="midnightblue" stroke="midnightblue" points="232,-46.083 235.5,-56.083 239,-46.083 232,-46.083"/>
</g>
</g>
</svg>
