<?xml version="1.0" encoding="UTF-8" standalone="no"?>
<!DOCTYPE svg PUBLIC "-//W3C//DTD SVG 1.1//EN"
 "http://www.w3.org/Graphics/SVG/1.1/DTD/svg11.dtd">
<!-- Generated by graphviz version 2.38.0 (20140413.2041)
 -->
<!-- Title: blitzdg::fullToVector Pages: 1 -->
<svg width="274pt" height="46pt"
 viewBox="0.00 0.00 274.00 46.00" xmlns="http://www.w3.org/2000/svg" xmlns:xlink="http://www.w3.org/1999/xlink">
<g id="graph0" class="graph" transform="scale(1 1) rotate(0) translate(4 42)">
<title>blitzdg::fullToVector</title>
<polygon fill="white" stroke="none" points="-4,4 -4,-42 270,-42 270,4 -4,4"/>
<!-- Node1 -->
<g id="node1" class="node"><title>Node1</title>
<g id="a_node1"><a xlink:title="Convert a blitz matrix to a vector.">
<polygon fill="#bfbfbf" stroke="black" points="0,-0.5 0,-19.5 104,-19.5 104,-0.5 0,-0.5"/>
<text text-anchor="middle" x="52" y="-7.5" font-family="Helvetica,sans-Serif" font-size="10.00">blitzdg::fullToVector</text>
</a>
</g>
</g>
<!-- Node1&#45;&gt;Node1 -->
<g id="edge1" class="edge"><title>Node1&#45;&gt;Node1</title>
<path fill="none" stroke="midnightblue" d="M28.8806,-19.7571C17.6334,-28.5653 25.3398,-38 52,-38 69.4957,-38 78.8288,-33.9368 79.9991,-28.6539"/>
<polygon fill="midnightblue" stroke="midnightblue" points="82.9971,-26.8417 75.1194,-19.7571 76.8597,-30.208 82.9971,-26.8417"/>
</g>
<!-- Node2 -->
<g id="node2" class="node"><title>Node2</title>
<g id="a_node2"><a xlink:href="BlitzHelpers_8hpp.html#aaa66bfe8cd7c9adad27aa42f765c980b" target="_top" xlink:title="Vectorizes a dense matrix by writing it to an array.">
<polygon fill="white" stroke="black" points="140,-0.5 140,-19.5 266,-19.5 266,-0.5 140,-0.5"/>
<text text-anchor="middle" x="203" y="-7.5" font-family="Helvetica,sans-Serif" font-size="10.00">blitzdg::reshapeMatTo1D</text>
</a>
</g>
</g>
<!-- Node1&#45;&gt;Node2 -->
<g id="edge2" class="edge"><title>Node1&#45;&gt;Node2</title>
<path fill="none" stroke="midnightblue" d="M104.277,-10C112.506,-10 121.155,-10 129.763,-10"/>
<polygon fill="midnightblue" stroke="midnightblue" points="129.822,-13.5001 139.822,-10 129.822,-6.5001 129.822,-13.5001"/>
</g>
<!-- Node2&#45;&gt;Node2 -->
<g id="edge3" class="edge"><title>Node2&#45;&gt;Node2</title>
<path fill="none" stroke="midnightblue" d="M179.881,-19.7571C168.633,-28.5653 176.34,-38 203,-38 220.496,-38 229.829,-33.9368 230.999,-28.6539"/>
<polygon fill="midnightblue" stroke="midnightblue" points="233.997,-26.8417 226.119,-19.7571 227.86,-30.208 233.997,-26.8417"/>
</g>
</g>
</svg>
