<?xml version="1.0" encoding="UTF-8" standalone="no"?>
<!DOCTYPE svg PUBLIC "-//W3C//DTD SVG 1.1//EN"
 "http://www.w3.org/Graphics/SVG/1.1/DTD/svg11.dtd">
<!-- Generated by graphviz version 2.38.0 (20140413.2041)
 -->
<!-- Title: blitzdg::countNonzeros Pages: 1 -->
<svg width="270pt" height="52pt"
 viewBox="0.00 0.00 270.00 51.50" xmlns="http://www.w3.org/2000/svg" xmlns:xlink="http://www.w3.org/1999/xlink">
<g id="graph0" class="graph" transform="scale(1 1) rotate(0) translate(4 47.5)">
<title>blitzdg::countNonzeros</title>
<polygon fill="white" stroke="none" points="-4,4 -4,-47.5 266,-47.5 266,4 -4,4"/>
<!-- Node1 -->
<g id="node1" class="node"><title>Node1</title>
<g id="a_node1"><a xlink:title="Returns the number of nonzero elements in the dense matrix.">
<polygon fill="#bfbfbf" stroke="black" points="145,-6 145,-25 262,-25 262,-6 145,-6"/>
<text text-anchor="middle" x="203.5" y="-13" font-family="Helvetica,sans-Serif" font-size="10.00">blitzdg::countNonzeros</text>
</a>
</g>
</g>
<!-- Node1&#45;&gt;Node1 -->
<g id="edge1" class="edge"><title>Node1&#45;&gt;Node1</title>
<path fill="none" stroke="midnightblue" d="M231.126,-34.1539C229.971,-39.4368 220.762,-43.5 203.5,-43.5 177.195,-43.5 169.592,-34.0653 180.689,-25.2571"/>
<polygon fill="midnightblue" stroke="midnightblue" points="234.149,-32.386 226.311,-25.2571 227.992,-35.7176 234.149,-32.386"/>
</g>
<!-- Node2 -->
<g id="node2" class="node"><title>Node2</title>
<g id="a_node2"><a xlink:href="classblitzdg_1_1SparseTriplet.html#a1e6be259d761ed1d3b6fb9ee9e04fa11" target="_top" xlink:title="Constructor that creates a sparse triplet matrix from a dense matrix.">
<polygon fill="white" stroke="black" points="0,-0.5 0,-30.5 109,-30.5 109,-0.5 0,-0.5"/>
<text text-anchor="start" x="8" y="-18.5" font-family="Helvetica,sans-Serif" font-size="10.00">blitzdg::SparseTriplet</text>
<text text-anchor="middle" x="54.5" y="-7.5" font-family="Helvetica,sans-Serif" font-size="10.00">::SparseTriplet</text>
</a>
</g>
</g>
<!-- Node1&#45;&gt;Node2 -->
<g id="edge2" class="edge"><title>Node1&#45;&gt;Node2</title>
<path fill="none" stroke="midnightblue" d="M134.809,-15.5C126.212,-15.5 117.509,-15.5 109.173,-15.5"/>
<polygon fill="midnightblue" stroke="midnightblue" points="134.824,-19.0001 144.824,-15.5 134.824,-12.0001 134.824,-19.0001"/>
</g>
</g>
</svg>
