<?xml version="1.0" encoding="UTF-8" standalone="no"?>
<!DOCTYPE svg PUBLIC "-//W3C//DTD SVG 1.1//EN"
 "http://www.w3.org/Graphics/SVG/1.1/DTD/svg11.dtd">
<!-- Generated by graphviz version 2.38.0 (20140413.2041)
 -->
<!-- Title: blitzdg::vectorToFull Pages: 1 -->
<svg width="275pt" height="46pt"
 viewBox="0.00 0.00 275.00 46.00" xmlns="http://www.w3.org/2000/svg" xmlns:xlink="http://www.w3.org/1999/xlink">
<g id="graph0" class="graph" transform="scale(1 1) rotate(0) translate(4 42)">
<title>blitzdg::vectorToFull</title>
<polygon fill="white" stroke="none" points="-4,4 -4,-42 271,-42 271,4 -4,4"/>
<!-- Node1 -->
<g id="node1" class="node"><title>Node1</title>
<g id="a_node1"><a xlink:title="Convert a vector to a blitz matrix.">
<polygon fill="#bfbfbf" stroke="black" points="0,-0.5 0,-19.5 105,-19.5 105,-0.5 0,-0.5"/>
<text text-anchor="middle" x="52.5" y="-7.5" font-family="Helvetica,sans-Serif" font-size="10.00">blitzdg::vectorToFull</text>
</a>
</g>
</g>
<!-- Node1&#45;&gt;Node1 -->
<g id="edge3" class="edge"><title>Node1&#45;&gt;Node1</title>
<path fill="none" stroke="midnightblue" d="M29.3806,-19.7571C18.1334,-28.5653 25.8398,-38 52.5,-38 69.9957,-38 79.3288,-33.9368 80.4991,-28.6539"/>
<polygon fill="midnightblue" stroke="midnightblue" points="83.4971,-26.8417 75.6194,-19.7571 77.3597,-30.208 83.4971,-26.8417"/>
</g>
<!-- Node2 -->
<g id="node2" class="node"><title>Node2</title>
<g id="a_node2"><a xlink:href="BlitzHelpers_8hpp.html#a2b714b6a07df67f99846579b713a1581" target="_top" xlink:title="Reshapes an array to a dense matrix.">
<polygon fill="white" stroke="black" points="141,-0.5 141,-19.5 267,-19.5 267,-0.5 141,-0.5"/>
<text text-anchor="middle" x="204" y="-7.5" font-family="Helvetica,sans-Serif" font-size="10.00">blitzdg::reshape1DToMat</text>
</a>
</g>
</g>
<!-- Node1&#45;&gt;Node2 -->
<g id="edge1" class="edge"><title>Node1&#45;&gt;Node2</title>
<path fill="none" stroke="midnightblue" d="M105.368,-10C113.612,-10 122.267,-10 130.875,-10"/>
<polygon fill="midnightblue" stroke="midnightblue" points="130.931,-13.5001 140.931,-10 130.931,-6.5001 130.931,-13.5001"/>
</g>
<!-- Node2&#45;&gt;Node2 -->
<g id="edge2" class="edge"><title>Node2&#45;&gt;Node2</title>
<path fill="none" stroke="midnightblue" d="M180.881,-19.7571C169.633,-28.5653 177.34,-38 204,-38 221.496,-38 230.829,-33.9368 231.999,-28.6539"/>
<polygon fill="midnightblue" stroke="midnightblue" points="234.997,-26.8417 227.119,-19.7571 228.86,-30.208 234.997,-26.8417"/>
</g>
</g>
</svg>
