<?xml version="1.0" encoding="UTF-8" standalone="no"?>
<!DOCTYPE svg PUBLIC "-//W3C//DTD SVG 1.1//EN"
 "http://www.w3.org/Graphics/SVG/1.1/DTD/svg11.dtd">
<!-- Generated by graphviz version 2.38.0 (20140413.2041)
 -->
<!-- Title: include/BlitzHelpers.hpp Pages: 1 -->
<svg width="543pt" height="140pt"
 viewBox="0.00 0.00 543.00 140.00" xmlns="http://www.w3.org/2000/svg" xmlns:xlink="http://www.w3.org/1999/xlink">
<g id="graph0" class="graph" transform="scale(1 1) rotate(0) translate(4 136)">
<title>include/BlitzHelpers.hpp</title>
<polygon fill="white" stroke="none" points="-4,4 -4,-136 539,-136 539,4 -4,4"/>
<!-- Node1 -->
<g id="node1" class="node"><title>Node1</title>
<g id="a_node1"><a xlink:title="Defines a set of utility functions for working with blitz arrays and their matrix and vector aliases.">
<polygon fill="#bfbfbf" stroke="black" points="248.5,-112.5 248.5,-131.5 370.5,-131.5 370.5,-112.5 248.5,-112.5"/>
<text text-anchor="middle" x="309.5" y="-119.5" font-family="Helvetica,sans-Serif" font-size="10.00">include/BlitzHelpers.hpp</text>
</a>
</g>
</g>
<!-- Node2 -->
<g id="node2" class="node"><title>Node2</title>
<g id="a_node2"><a xlink:href="Traits_8hpp.html" target="_top" xlink:title="Defines a basic set of traits for making compile&#45;time assertions about numeric types and iterators.">
<polygon fill="white" stroke="black" points="66.5,-56.5 66.5,-75.5 126.5,-75.5 126.5,-56.5 66.5,-56.5"/>
<text text-anchor="middle" x="96.5" y="-63.5" font-family="Helvetica,sans-Serif" font-size="10.00">Traits.hpp</text>
</a>
</g>
</g>
<!-- Node1&#45;&gt;Node2 -->
<g id="edge1" class="edge"><title>Node1&#45;&gt;Node2</title>
<path fill="none" stroke="midnightblue" d="M275.75,-112.444C237.9,-102.848 176.569,-87.2991 136.383,-77.1111"/>
<polygon fill="midnightblue" stroke="midnightblue" points="137.202,-73.7082 126.649,-74.6433 135.482,-80.4935 137.202,-73.7082"/>
</g>
<!-- Node5 -->
<g id="node5" class="node"><title>Node5</title>
<g id="a_node5"><a xlink:href="Types_8hpp.html" target="_top" xlink:title="Defines the basic types used throughout this project.">
<polygon fill="white" stroke="black" points="207.5,-56.5 207.5,-75.5 269.5,-75.5 269.5,-56.5 207.5,-56.5"/>
<text text-anchor="middle" x="238.5" y="-63.5" font-family="Helvetica,sans-Serif" font-size="10.00">Types.hpp</text>
</a>
</g>
</g>
<!-- Node1&#45;&gt;Node5 -->
<g id="edge4" class="edge"><title>Node1&#45;&gt;Node5</title>
<path fill="none" stroke="midnightblue" d="M298.093,-112.324C287.391,-104.185 271.159,-91.8395 258.337,-82.0874"/>
<polygon fill="midnightblue" stroke="midnightblue" points="260.193,-79.1018 250.115,-75.8339 255.956,-84.6734 260.193,-79.1018"/>
</g>
<!-- Node6 -->
<g id="node6" class="node"><title>Node6</title>
<g id="a_node6"><a xlink:title=" ">
<polygon fill="white" stroke="#bfbfbf" points="145.5,-0.5 145.5,-19.5 213.5,-19.5 213.5,-0.5 145.5,-0.5"/>
<text text-anchor="middle" x="179.5" y="-7.5" font-family="Helvetica,sans-Serif" font-size="10.00">blitz/array.h</text>
</a>
</g>
</g>
<!-- Node1&#45;&gt;Node6 -->
<g id="edge8" class="edge"><title>Node1&#45;&gt;Node6</title>
<path fill="none" stroke="midnightblue" d="M264.361,-112.467C241.733,-106.012 215.582,-94.8964 198.5,-76 187.053,-63.3374 182.479,-44.1307 180.664,-29.8756"/>
<polygon fill="midnightblue" stroke="midnightblue" points="184.131,-29.3579 179.721,-19.7245 177.161,-30.0053 184.131,-29.3579"/>
</g>
<!-- Node9 -->
<g id="node9" class="node"><title>Node9</title>
<g id="a_node9"><a xlink:title=" ">
<polygon fill="white" stroke="#bfbfbf" points="287.5,-56.5 287.5,-75.5 331.5,-75.5 331.5,-56.5 287.5,-56.5"/>
<text text-anchor="middle" x="309.5" y="-63.5" font-family="Helvetica,sans-Serif" font-size="10.00">cmath</text>
</a>
</g>
</g>
<!-- Node1&#45;&gt;Node9 -->
<g id="edge9" class="edge"><title>Node1&#45;&gt;Node9</title>
<path fill="none" stroke="midnightblue" d="M309.5,-112.083C309.5,-105.006 309.5,-94.8611 309.5,-85.9865"/>
<polygon fill="midnightblue" stroke="midnightblue" points="313,-85.751 309.5,-75.7511 306,-85.7511 313,-85.751"/>
</g>
<!-- Node10 -->
<g id="node10" class="node"><title>Node10</title>
<g id="a_node10"><a xlink:title=" ">
<polygon fill="white" stroke="#bfbfbf" points="350,-56.5 350,-75.5 399,-75.5 399,-56.5 350,-56.5"/>
<text text-anchor="middle" x="374.5" y="-63.5" font-family="Helvetica,sans-Serif" font-size="10.00">cstddef</text>
</a>
</g>
</g>
<!-- Node1&#45;&gt;Node10 -->
<g id="edge10" class="edge"><title>Node1&#45;&gt;Node10</title>
<path fill="none" stroke="midnightblue" d="M319.943,-112.324C329.646,-104.263 344.315,-92.0765 356,-82.3695"/>
<polygon fill="midnightblue" stroke="midnightblue" points="358.411,-84.9163 363.867,-75.8339 353.938,-79.532 358.411,-84.9163"/>
</g>
<!-- Node11 -->
<g id="node11" class="node"><title>Node11</title>
<g id="a_node11"><a xlink:title=" ">
<polygon fill="white" stroke="#bfbfbf" points="417.5,-56.5 417.5,-75.5 457.5,-75.5 457.5,-56.5 417.5,-56.5"/>
<text text-anchor="middle" x="437.5" y="-63.5" font-family="Helvetica,sans-Serif" font-size="10.00">limits</text>
</a>
</g>
</g>
<!-- Node1&#45;&gt;Node11 -->
<g id="edge11" class="edge"><title>Node1&#45;&gt;Node11</title>
<path fill="none" stroke="midnightblue" d="M329.782,-112.444C350.847,-103.557 384.017,-89.5632 407.986,-79.4514"/>
<polygon fill="midnightblue" stroke="midnightblue" points="409.46,-82.6283 417.313,-75.5164 406.739,-76.1787 409.46,-82.6283"/>
</g>
<!-- Node12 -->
<g id="node12" class="node"><title>Node12</title>
<g id="a_node12"><a xlink:title=" ">
<polygon fill="white" stroke="#bfbfbf" points="476,-56.5 476,-75.5 535,-75.5 535,-56.5 476,-56.5"/>
<text text-anchor="middle" x="505.5" y="-63.5" font-family="Helvetica,sans-Serif" font-size="10.00">stdexcept</text>
</a>
</g>
</g>
<!-- Node1&#45;&gt;Node12 -->
<g id="edge12" class="edge"><title>Node1&#45;&gt;Node12</title>
<path fill="none" stroke="midnightblue" d="M340.557,-112.444C374.498,-103.092 428.961,-88.0874 465.937,-77.8999"/>
<polygon fill="midnightblue" stroke="midnightblue" points="467.16,-81.1934 475.872,-75.1629 465.301,-74.4449 467.16,-81.1934"/>
</g>
<!-- Node3 -->
<g id="node3" class="node"><title>Node3</title>
<g id="a_node3"><a xlink:title=" ">
<polygon fill="white" stroke="#bfbfbf" points="0,-0.5 0,-19.5 47,-19.5 47,-0.5 0,-0.5"/>
<text text-anchor="middle" x="23.5" y="-7.5" font-family="Helvetica,sans-Serif" font-size="10.00">iterator</text>
</a>
</g>
</g>
<!-- Node2&#45;&gt;Node3 -->
<g id="edge2" class="edge"><title>Node2&#45;&gt;Node3</title>
<path fill="none" stroke="midnightblue" d="M84.7713,-56.324C73.6626,-48.1066 56.7578,-35.6017 43.5167,-25.8069"/>
<polygon fill="midnightblue" stroke="midnightblue" points="45.5631,-22.9671 35.4421,-19.8339 41.4001,-28.5948 45.5631,-22.9671"/>
</g>
<!-- Node4 -->
<g id="node4" class="node"><title>Node4</title>
<g id="a_node4"><a xlink:title=" ">
<polygon fill="white" stroke="#bfbfbf" points="65.5,-0.5 65.5,-19.5 127.5,-19.5 127.5,-0.5 65.5,-0.5"/>
<text text-anchor="middle" x="96.5" y="-7.5" font-family="Helvetica,sans-Serif" font-size="10.00">type_traits</text>
</a>
</g>
</g>
<!-- Node2&#45;&gt;Node4 -->
<g id="edge3" class="edge"><title>Node2&#45;&gt;Node4</title>
<path fill="none" stroke="midnightblue" d="M96.5,-56.083C96.5,-49.0059 96.5,-38.8611 96.5,-29.9865"/>
<polygon fill="midnightblue" stroke="midnightblue" points="100,-29.751 96.5,-19.7511 93.0001,-29.7511 100,-29.751"/>
</g>
<!-- Node5&#45;&gt;Node6 -->
<g id="edge5" class="edge"><title>Node5&#45;&gt;Node6</title>
<path fill="none" stroke="midnightblue" d="M229.021,-56.324C220.299,-48.3414 207.157,-36.3128 196.602,-26.6529"/>
<polygon fill="midnightblue" stroke="midnightblue" points="198.892,-24.0036 189.152,-19.8339 194.166,-29.1674 198.892,-24.0036"/>
</g>
<!-- Node7 -->
<g id="node7" class="node"><title>Node7</title>
<g id="a_node7"><a xlink:title=" ">
<polygon fill="white" stroke="#bfbfbf" points="232,-0.5 232,-19.5 315,-19.5 315,-0.5 232,-0.5"/>
<text text-anchor="middle" x="273.5" y="-7.5" font-family="Helvetica,sans-Serif" font-size="10.00">unordered_map</text>
</a>
</g>
</g>
<!-- Node5&#45;&gt;Node7 -->
<g id="edge6" class="edge"><title>Node5&#45;&gt;Node7</title>
<path fill="none" stroke="midnightblue" d="M244.28,-56.083C249.172,-48.5341 256.327,-37.4948 262.333,-28.2298"/>
<polygon fill="midnightblue" stroke="midnightblue" points="265.326,-30.0463 267.828,-19.7511 259.452,-26.239 265.326,-30.0463"/>
</g>
<!-- Node8 -->
<g id="node8" class="node"><title>Node8</title>
<g id="a_node8"><a xlink:title=" ">
<polygon fill="white" stroke="#bfbfbf" points="333.5,-0.5 333.5,-19.5 377.5,-19.5 377.5,-0.5 333.5,-0.5"/>
<text text-anchor="middle" x="355.5" y="-7.5" font-family="Helvetica,sans-Serif" font-size="10.00">vector</text>
</a>
</g>
</g>
<!-- Node5&#45;&gt;Node8 -->
<g id="edge7" class="edge"><title>Node5&#45;&gt;Node8</title>
<path fill="none" stroke="midnightblue" d="M257.039,-56.4435C276.123,-47.6356 306.075,-33.8116 327.936,-23.722"/>
<polygon fill="midnightblue" stroke="midnightblue" points="329.435,-26.8849 337.048,-19.5164 326.501,-20.5292 329.435,-26.8849"/>
</g>
</g>
</svg>
