<?xml version="1.0" encoding="UTF-8" standalone="no"?>
<!DOCTYPE svg PUBLIC "-//W3C//DTD SVG 1.1//EN"
 "http://www.w3.org/Graphics/SVG/1.1/DTD/svg11.dtd">
<!-- Generated by graphviz version 2.38.0 (20140413.2041)
 -->
<!-- Title: blitzdg::fullToVector Pages: 1 -->
<svg width="311pt" height="52pt"
 viewBox="0.00 0.00 311.00 51.50" xmlns="http://www.w3.org/2000/svg" xmlns:xlink="http://www.w3.org/1999/xlink">
<g id="graph0" class="graph" transform="scale(1 1) rotate(0) translate(4 47.5)">
<title>blitzdg::fullToVector</title>
<polygon fill="white" stroke="none" points="-4,4 -4,-47.5 307,-47.5 307,4 -4,4"/>
<!-- Node1 -->
<g id="node1" class="node"><title>Node1</title>
<g id="a_node1"><a xlink:title="Convert a blitz matrix to a vector.">
<polygon fill="#bfbfbf" stroke="black" points="199,-6 199,-25 303,-25 303,-6 199,-6"/>
<text text-anchor="middle" x="251" y="-13" font-family="Helvetica,sans-Serif" font-size="10.00">blitzdg::fullToVector</text>
</a>
</g>
</g>
<!-- Node1&#45;&gt;Node1 -->
<g id="edge2" class="edge"><title>Node1&#45;&gt;Node1</title>
<path fill="none" stroke="midnightblue" d="M282.437,-33.7746C281.541,-39.241 271.062,-43.5 251,-43.5 221.141,-43.5 212.509,-34.0653 225.106,-25.2571"/>
<polygon fill="midnightblue" stroke="midnightblue" points="285.282,-31.7291 276.894,-25.2571 279.415,-35.5475 285.282,-31.7291"/>
</g>
<!-- Node2 -->
<g id="node2" class="node"><title>Node2</title>
<g id="a_node2"><a xlink:href="classblitzdg_1_1TriangleNodesProvisioner.html#af2ff1c76954a431ba06744f1802b4adc" target="_top" xlink:title="Build hashmap mapping BCTypes to node indices that are on that boundary using the input BCType table.">
<polygon fill="white" stroke="black" points="0,-0.5 0,-30.5 163,-30.5 163,-0.5 0,-0.5"/>
<text text-anchor="start" x="8" y="-18.5" font-family="Helvetica,sans-Serif" font-size="10.00">blitzdg::TriangleNodesProvisioner</text>
<text text-anchor="middle" x="81.5" y="-7.5" font-family="Helvetica,sans-Serif" font-size="10.00">::buildBCHash</text>
</a>
</g>
</g>
<!-- Node1&#45;&gt;Node2 -->
<g id="edge1" class="edge"><title>Node1&#45;&gt;Node2</title>
<path fill="none" stroke="midnightblue" d="M188.59,-15.5C180.349,-15.5 171.798,-15.5 163.287,-15.5"/>
<polygon fill="midnightblue" stroke="midnightblue" points="188.834,-19.0001 198.834,-15.5 188.834,-12.0001 188.834,-19.0001"/>
</g>
</g>
</svg>
