<?xml version="1.0" encoding="UTF-8" standalone="no"?>
<!DOCTYPE svg PUBLIC "-//W3C//DTD SVG 1.1//EN"
 "http://www.w3.org/Graphics/SVG/1.1/DTD/svg11.dtd">
<!-- Generated by graphviz version 2.38.0 (20140413.2041)
 -->
<!-- Title: src/burgers1d/Burgers1d.hpp Pages: 1 -->
<svg width="461pt" height="364pt"
 viewBox="0.00 0.00 461.39 364.00" xmlns="http://www.w3.org/2000/svg" xmlns:xlink="http://www.w3.org/1999/xlink">
<g id="graph0" class="graph" transform="scale(1 1) rotate(0) translate(4 360)">
<title>src/burgers1d/Burgers1d.hpp</title>
<polygon fill="white" stroke="none" points="-4,4 -4,-360 457.387,-360 457.387,4 -4,4"/>
<!-- Node1 -->
<g id="node1" class="node"><title>Node1</title>
<g id="a_node1"><a xlink:title="Short header file for 1D Burger&#39;s solver&#39;s main.cpp file.">
<polygon fill="#bfbfbf" stroke="black" points="215,-336.5 215,-355.5 357,-355.5 357,-336.5 215,-336.5"/>
<text text-anchor="middle" x="286" y="-343.5" font-family="Helvetica,sans-Serif" font-size="10.00">src/burgers1d/Burgers1d.hpp</text>
</a>
</g>
</g>
<!-- Node2 -->
<g id="node2" class="node"><title>Node2</title>
<g id="a_node2"><a xlink:href="Nodes1DProvisioner_8hpp.html" target="_top" xlink:title="Defines a class for computations related to the construction of one&#45;dimensional nodes,...">
<polygon fill="white" stroke="black" points="223.5,-280.5 223.5,-299.5 348.5,-299.5 348.5,-280.5 223.5,-280.5"/>
<text text-anchor="middle" x="286" y="-287.5" font-family="Helvetica,sans-Serif" font-size="10.00">Nodes1DProvisioner.hpp</text>
</a>
</g>
</g>
<!-- Node1&#45;&gt;Node2 -->
<g id="edge1" class="edge"><title>Node1&#45;&gt;Node2</title>
<path fill="none" stroke="midnightblue" d="M286,-336.083C286,-329.006 286,-318.861 286,-309.986"/>
<polygon fill="midnightblue" stroke="midnightblue" points="289.5,-309.751 286,-299.751 282.5,-309.751 289.5,-309.751"/>
</g>
<!-- Node4 -->
<g id="node4" class="node"><title>Node4</title>
<g id="a_node4"><a xlink:href="Types_8hpp.html" target="_top" xlink:title="Defines the basic types used throughout this project.">
<polygon fill="white" stroke="black" points="257,-56.5 257,-75.5 319,-75.5 319,-56.5 257,-56.5"/>
<text text-anchor="middle" x="288" y="-63.5" font-family="Helvetica,sans-Serif" font-size="10.00">Types.hpp</text>
</a>
</g>
</g>
<!-- Node1&#45;&gt;Node4 -->
<g id="edge21" class="edge"><title>Node1&#45;&gt;Node4</title>
<path fill="none" stroke="midnightblue" d="M236.509,-336.486C154.652,-320.985 0,-285.073 0,-235 0,-235 0,-235 0,-177 0,-124.816 167.094,-88.3088 246.731,-73.8726"/>
<polygon fill="midnightblue" stroke="midnightblue" points="247.673,-77.2599 256.905,-72.0621 246.447,-70.3682 247.673,-77.2599"/>
</g>
<!-- Node14 -->
<g id="node14" class="node"><title>Node14</title>
<g id="a_node14"><a xlink:title=" ">
<polygon fill="white" stroke="#bfbfbf" points="366.5,-280.5 366.5,-299.5 407.5,-299.5 407.5,-280.5 366.5,-280.5"/>
<text text-anchor="middle" x="387" y="-287.5" font-family="Helvetica,sans-Serif" font-size="10.00">string</text>
</a>
</g>
</g>
<!-- Node1&#45;&gt;Node14 -->
<g id="edge22" class="edge"><title>Node1&#45;&gt;Node14</title>
<path fill="none" stroke="midnightblue" d="M302.227,-336.324C318.351,-327.703 343.3,-314.364 361.964,-304.386"/>
<polygon fill="midnightblue" stroke="midnightblue" points="363.644,-307.456 370.813,-299.655 360.344,-301.283 363.644,-307.456"/>
</g>
<!-- Node3 -->
<g id="node3" class="node"><title>Node3</title>
<g id="a_node3"><a xlink:href="DirectSolver_8hpp.html" target="_top" xlink:title="Defines the DirectSolver class that implements LAPACK direct solution routine DSGESV....">
<polygon fill="white" stroke="black" points="235.5,-168.5 235.5,-187.5 324.5,-187.5 324.5,-168.5 235.5,-168.5"/>
<text text-anchor="middle" x="280" y="-175.5" font-family="Helvetica,sans-Serif" font-size="10.00">DirectSolver.hpp</text>
</a>
</g>
</g>
<!-- Node2&#45;&gt;Node3 -->
<g id="edge2" class="edge"><title>Node2&#45;&gt;Node3</title>
<path fill="none" stroke="midnightblue" d="M308.988,-280.459C334.766,-269.461 371.223,-248.786 357,-224 348.385,-208.986 332.609,-198.504 317.57,-191.458"/>
<polygon fill="midnightblue" stroke="midnightblue" points="318.942,-188.238 308.372,-187.505 316.178,-194.669 318.942,-188.238"/>
</g>
<!-- Node2&#45;&gt;Node4 -->
<g id="edge18" class="edge"><title>Node2&#45;&gt;Node4</title>
<path fill="none" stroke="midnightblue" d="M321.069,-280.475C362.476,-268.171 428.557,-240.866 451,-188 461.704,-162.786 430.888,-112.843 430,-112 402.703,-86.0838 360.545,-75.0907 329.248,-70.429"/>
<polygon fill="midnightblue" stroke="midnightblue" points="329.461,-66.9267 319.087,-69.0784 328.539,-73.8657 329.461,-66.9267"/>
</g>
<!-- Node8 -->
<g id="node8" class="node"><title>Node8</title>
<g id="a_node8"><a xlink:href="JacobiBuilders_8hpp.html" target="_top" xlink:title="Defines the JacobiBuilders class that constructs Jacobi polynomials, their derivatives,...">
<polygon fill="white" stroke="black" points="342.5,-168.5 342.5,-187.5 441.5,-187.5 441.5,-168.5 342.5,-168.5"/>
<text text-anchor="middle" x="392" y="-175.5" font-family="Helvetica,sans-Serif" font-size="10.00">JacobiBuilders.hpp</text>
</a>
</g>
</g>
<!-- Node2&#45;&gt;Node8 -->
<g id="edge7" class="edge"><title>Node2&#45;&gt;Node8</title>
<path fill="none" stroke="midnightblue" d="M315.736,-280.375C334.663,-273.437 358.298,-261.852 373,-244 383.851,-230.823 388.505,-211.686 390.501,-197.587"/>
<polygon fill="midnightblue" stroke="midnightblue" points="393.989,-197.892 391.6,-187.57 387.031,-197.129 393.989,-197.892"/>
</g>
<!-- Node10 -->
<g id="node10" class="node"><title>Node10</title>
<g id="a_node10"><a xlink:href="VandermondeBuilders_8hpp.html" target="_top" xlink:title="Defines a class for computating the generalized Vandermonde, its gradient, and its inverse for 1D ort...">
<polygon fill="white" stroke="black" points="74.5,-224.5 74.5,-243.5 205.5,-243.5 205.5,-224.5 74.5,-224.5"/>
<text text-anchor="middle" x="140" y="-231.5" font-family="Helvetica,sans-Serif" font-size="10.00">VandermondeBuilders.hpp</text>
</a>
</g>
</g>
<!-- Node2&#45;&gt;Node10 -->
<g id="edge11" class="edge"><title>Node2&#45;&gt;Node10</title>
<path fill="none" stroke="midnightblue" d="M262.866,-280.444C238.518,-271.438 199.993,-257.189 172.577,-247.049"/>
<polygon fill="midnightblue" stroke="midnightblue" points="173.619,-243.703 163.026,-243.516 171.191,-250.268 173.619,-243.703"/>
</g>
<!-- Node12 -->
<g id="node12" class="node"><title>Node12</title>
<g id="a_node12"><a xlink:title=" ">
<polygon fill="white" stroke="#bfbfbf" points="28,-168.5 28,-187.5 80,-187.5 80,-168.5 28,-168.5"/>
<text text-anchor="middle" x="54" y="-175.5" font-family="Helvetica,sans-Serif" font-size="10.00">memory</text>
</a>
</g>
</g>
<!-- Node2&#45;&gt;Node12 -->
<g id="edge19" class="edge"><title>Node2&#45;&gt;Node12</title>
<path fill="none" stroke="midnightblue" d="M223.364,-284.068C165.9,-278.201 86.5403,-266.268 65,-244 53.4469,-232.056 51.4601,-212.753 51.9048,-198.28"/>
<polygon fill="midnightblue" stroke="midnightblue" points="55.4219,-198.166 52.6464,-187.941 48.4398,-197.665 55.4219,-198.166"/>
</g>
<!-- Node13 -->
<g id="node13" class="node"><title>Node13</title>
<g id="a_node13"><a xlink:title=" ">
<polygon fill="white" stroke="#bfbfbf" points="224,-224.5 224,-243.5 348,-243.5 348,-224.5 224,-224.5"/>
<text text-anchor="middle" x="286" y="-231.5" font-family="Helvetica,sans-Serif" font-size="10.00">boost/python/numpy.hpp</text>
</a>
</g>
</g>
<!-- Node2&#45;&gt;Node13 -->
<g id="edge20" class="edge"><title>Node2&#45;&gt;Node13</title>
<path fill="none" stroke="midnightblue" d="M286,-280.083C286,-273.006 286,-262.861 286,-253.986"/>
<polygon fill="midnightblue" stroke="midnightblue" points="289.5,-253.751 286,-243.751 282.5,-253.751 289.5,-253.751"/>
</g>
<!-- Node3&#45;&gt;Node4 -->
<g id="edge3" class="edge"><title>Node3&#45;&gt;Node4</title>
<path fill="none" stroke="midnightblue" d="M280.628,-168.368C281.919,-150.617 284.897,-109.666 286.647,-85.5974"/>
<polygon fill="midnightblue" stroke="midnightblue" points="290.141,-85.819 287.375,-75.5914 283.159,-85.3112 290.141,-85.819"/>
</g>
<!-- Node5 -->
<g id="node5" class="node"><title>Node5</title>
<g id="a_node5"><a xlink:title=" ">
<polygon fill="white" stroke="#bfbfbf" points="160,-0.5 160,-19.5 228,-19.5 228,-0.5 160,-0.5"/>
<text text-anchor="middle" x="194" y="-7.5" font-family="Helvetica,sans-Serif" font-size="10.00">blitz/array.h</text>
</a>
</g>
</g>
<!-- Node4&#45;&gt;Node5 -->
<g id="edge4" class="edge"><title>Node4&#45;&gt;Node5</title>
<path fill="none" stroke="midnightblue" d="M272.897,-56.324C258.097,-47.8215 235.306,-34.7288 218.018,-24.7975"/>
<polygon fill="midnightblue" stroke="midnightblue" points="219.48,-21.6009 209.065,-19.6545 215.993,-27.6707 219.48,-21.6009"/>
</g>
<!-- Node6 -->
<g id="node6" class="node"><title>Node6</title>
<g id="a_node6"><a xlink:title=" ">
<polygon fill="white" stroke="#bfbfbf" points="246.5,-0.5 246.5,-19.5 329.5,-19.5 329.5,-0.5 246.5,-0.5"/>
<text text-anchor="middle" x="288" y="-7.5" font-family="Helvetica,sans-Serif" font-size="10.00">unordered_map</text>
</a>
</g>
</g>
<!-- Node4&#45;&gt;Node6 -->
<g id="edge5" class="edge"><title>Node4&#45;&gt;Node6</title>
<path fill="none" stroke="midnightblue" d="M288,-56.083C288,-49.0059 288,-38.8611 288,-29.9865"/>
<polygon fill="midnightblue" stroke="midnightblue" points="291.5,-29.751 288,-19.7511 284.5,-29.7511 291.5,-29.751"/>
</g>
<!-- Node7 -->
<g id="node7" class="node"><title>Node7</title>
<g id="a_node7"><a xlink:title=" ">
<polygon fill="white" stroke="#bfbfbf" points="348,-0.5 348,-19.5 392,-19.5 392,-0.5 348,-0.5"/>
<text text-anchor="middle" x="370" y="-7.5" font-family="Helvetica,sans-Serif" font-size="10.00">vector</text>
</a>
</g>
</g>
<!-- Node4&#45;&gt;Node7 -->
<g id="edge6" class="edge"><title>Node4&#45;&gt;Node7</title>
<path fill="none" stroke="midnightblue" d="M301.175,-56.324C313.847,-47.979 333.233,-35.2122 348.206,-25.3524"/>
<polygon fill="midnightblue" stroke="midnightblue" points="350.431,-28.0776 356.858,-19.6545 346.581,-22.2313 350.431,-28.0776"/>
</g>
<!-- Node8&#45;&gt;Node4 -->
<g id="edge10" class="edge"><title>Node8&#45;&gt;Node4</title>
<path fill="none" stroke="midnightblue" d="M399.361,-168.273C409.561,-155.062 425.411,-129.658 413,-112 394.219,-85.2778 357.967,-74.3496 329.32,-69.9187"/>
<polygon fill="midnightblue" stroke="midnightblue" points="329.531,-66.416 319.156,-68.563 328.606,-73.3545 329.531,-66.416"/>
</g>
<!-- Node9 -->
<g id="node9" class="node"><title>Node9</title>
<g id="a_node9"><a xlink:href="EigenSolver_8hpp.html" target="_top" xlink:title="Defines the EigenSolver class that implements LAPACK solution routine DSYEVD. For symmetric matrices ...">
<polygon fill="white" stroke="black" points="316,-112.5 316,-131.5 404,-131.5 404,-112.5 316,-112.5"/>
<text text-anchor="middle" x="360" y="-119.5" font-family="Helvetica,sans-Serif" font-size="10.00">EigenSolver.hpp</text>
</a>
</g>
</g>
<!-- Node8&#45;&gt;Node9 -->
<g id="edge8" class="edge"><title>Node8&#45;&gt;Node9</title>
<path fill="none" stroke="midnightblue" d="M386.716,-168.083C382.289,-160.613 375.837,-149.724 370.382,-140.52"/>
<polygon fill="midnightblue" stroke="midnightblue" points="373.295,-138.57 365.186,-131.751 367.273,-142.138 373.295,-138.57"/>
</g>
<!-- Node9&#45;&gt;Node4 -->
<g id="edge9" class="edge"><title>Node9&#45;&gt;Node4</title>
<path fill="none" stroke="midnightblue" d="M348.432,-112.324C337.58,-104.185 321.119,-91.8395 308.117,-82.0874"/>
<polygon fill="midnightblue" stroke="midnightblue" points="309.879,-79.0339 299.779,-75.8339 305.679,-84.6339 309.879,-79.0339"/>
</g>
<!-- Node10&#45;&gt;Node3 -->
<g id="edge12" class="edge"><title>Node10&#45;&gt;Node3</title>
<path fill="none" stroke="midnightblue" d="M162.183,-224.444C185.428,-215.478 222.149,-201.314 248.415,-191.183"/>
<polygon fill="midnightblue" stroke="midnightblue" points="249.85,-194.381 257.92,-187.516 247.331,-187.85 249.85,-194.381"/>
</g>
<!-- Node10&#45;&gt;Node4 -->
<g id="edge16" class="edge"><title>Node10&#45;&gt;Node4</title>
<path fill="none" stroke="midnightblue" d="M135.384,-224.301C124.671,-202.785 100.946,-146.335 127,-112 141.465,-92.9373 204.099,-79.7612 246.844,-72.7977"/>
<polygon fill="midnightblue" stroke="midnightblue" points="247.639,-76.2156 256.973,-71.2021 246.55,-69.3008 247.639,-76.2156"/>
</g>
<!-- Node10&#45;&gt;Node8 -->
<g id="edge13" class="edge"><title>Node10&#45;&gt;Node8</title>
<path fill="none" stroke="midnightblue" d="M179.93,-224.444C223.891,-215.023 294.627,-199.866 342.183,-189.675"/>
<polygon fill="midnightblue" stroke="midnightblue" points="343.212,-193.034 352.257,-187.516 341.745,-186.189 343.212,-193.034"/>
</g>
<!-- Node11 -->
<g id="node11" class="node"><title>Node11</title>
<g id="a_node11"><a xlink:href="DenseMatrixInverter_8hpp.html" target="_top" xlink:title="Defines the DenseMatrixInverter class that computes the explicit inverse of a dense matrix via the LA...">
<polygon fill="white" stroke="black" points="136,-112.5 136,-131.5 260,-131.5 260,-112.5 136,-112.5"/>
<text text-anchor="middle" x="198" y="-119.5" font-family="Helvetica,sans-Serif" font-size="10.00">DenseMatrixInverter.hpp</text>
</a>
</g>
</g>
<!-- Node10&#45;&gt;Node11 -->
<g id="edge14" class="edge"><title>Node10&#45;&gt;Node11</title>
<path fill="none" stroke="midnightblue" d="M144.551,-224.368C154.038,-206.376 176.092,-164.55 188.706,-140.627"/>
<polygon fill="midnightblue" stroke="midnightblue" points="191.902,-142.07 193.47,-131.591 185.71,-138.805 191.902,-142.07"/>
</g>
<!-- Node10&#45;&gt;Node12 -->
<g id="edge17" class="edge"><title>Node10&#45;&gt;Node12</title>
<path fill="none" stroke="midnightblue" d="M126.183,-224.324C112.767,-215.9 92.1759,-202.971 76.4144,-193.074"/>
<polygon fill="midnightblue" stroke="midnightblue" points="78.1132,-190.008 67.7831,-187.655 74.3908,-195.936 78.1132,-190.008"/>
</g>
<!-- Node11&#45;&gt;Node4 -->
<g id="edge15" class="edge"><title>Node11&#45;&gt;Node4</title>
<path fill="none" stroke="midnightblue" d="M212.46,-112.324C226.5,-103.9 248.048,-90.9709 264.543,-81.0741"/>
<polygon fill="midnightblue" stroke="midnightblue" points="266.802,-83.8007 273.576,-75.6545 263.2,-77.7983 266.802,-83.8007"/>
</g>
</g>
</svg>
