<?xml version="1.0" encoding="UTF-8" standalone="no"?>
<!DOCTYPE svg PUBLIC "-//W3C//DTD SVG 1.1//EN"
 "http://www.w3.org/Graphics/SVG/1.1/DTD/svg11.dtd">
<!-- Generated by graphviz version 2.38.0 (20140413.2041)
 -->
<!-- Title: blitzdg::CSCMat::nnz Pages: 1 -->
<svg width="423pt" height="66pt"
 viewBox="0.00 0.00 423.00 66.00" xmlns="http://www.w3.org/2000/svg" xmlns:xlink="http://www.w3.org/1999/xlink">
<g id="graph0" class="graph" transform="scale(1 1) rotate(0) translate(4 62)">
<title>blitzdg::CSCMat::nnz</title>
<polygon fill="white" stroke="none" points="-4,4 -4,-62 419,-62 419,4 -4,4"/>
<!-- Node1 -->
<g id="node1" class="node"><title>Node1</title>
<g id="a_node1"><a xlink:title="Returns the number of nonzero elements.">
<polygon fill="#bfbfbf" stroke="black" points="304,-19.5 304,-38.5 415,-38.5 415,-19.5 304,-19.5"/>
<text text-anchor="middle" x="359.5" y="-26.5" font-family="Helvetica,sans-Serif" font-size="10.00">blitzdg::CSCMat::nnz</text>
</a>
</g>
</g>
<!-- Node2 -->
<g id="node2" class="node"><title>Node2</title>
<g id="a_node2"><a xlink:href="classblitzdg_1_1CSCMat.html#a7378aa6add8f8a6e0540b31148c0af33" target="_top" xlink:title="Constructor that creates a rows x cols CSC matrix with nnz nonzero elements.">
<polygon fill="white" stroke="black" points="134,-38.5 134,-57.5 268,-57.5 268,-38.5 134,-38.5"/>
<text text-anchor="middle" x="201" y="-45.5" font-family="Helvetica,sans-Serif" font-size="10.00">blitzdg::CSCMat::CSCMat</text>
</a>
</g>
</g>
<!-- Node1&#45;&gt;Node2 -->
<g id="edge1" class="edge"><title>Node1&#45;&gt;Node2</title>
<path fill="none" stroke="midnightblue" d="M293.589,-36.8805C285.138,-37.9065 276.474,-38.9585 268.005,-39.9866"/>
<polygon fill="midnightblue" stroke="midnightblue" points="294.259,-40.3251 303.764,-35.6453 293.415,-33.3761 294.259,-40.3251"/>
</g>
<!-- Node3 -->
<g id="node3" class="node"><title>Node3</title>
<g id="a_node3"><a xlink:href="CSCMatrix_8hpp.html#af412eb6a8ef06ec7d2e74abecc595962" target="_top" xlink:title="Writes the CSC matrix to the output stream in coordinate format (i, j, elem).">
<polygon fill="white" stroke="black" points="152,-0.5 152,-19.5 250,-19.5 250,-0.5 152,-0.5"/>
<text text-anchor="middle" x="201" y="-7.5" font-family="Helvetica,sans-Serif" font-size="10.00">blitzdg::operator&lt;&lt;</text>
</a>
</g>
</g>
<!-- Node1&#45;&gt;Node3 -->
<g id="edge2" class="edge"><title>Node1&#45;&gt;Node3</title>
<path fill="none" stroke="midnightblue" d="M293.791,-21.144C279.199,-19.3725 263.96,-17.5222 250.185,-15.85"/>
<polygon fill="midnightblue" stroke="midnightblue" points="293.415,-24.6239 303.764,-22.3547 294.259,-17.6749 293.415,-24.6239"/>
</g>
<!-- Node4 -->
<g id="node4" class="node"><title>Node4</title>
<g id="a_node4"><a xlink:href="GMRESSolver_8hpp.html#afcef465b1811e1a58461f319ff1c353c" target="_top" xlink:title="Write a ConvFlag to an output stream.">
<polygon fill="white" stroke="black" points="-7.10543e-15,-0.5 -7.10543e-15,-19.5 98,-19.5 98,-0.5 -7.10543e-15,-0.5"/>
<text text-anchor="middle" x="49" y="-7.5" font-family="Helvetica,sans-Serif" font-size="10.00">blitzdg::operator&lt;&lt;</text>
</a>
</g>
</g>
<!-- Node3&#45;&gt;Node4 -->
<g id="edge3" class="edge"><title>Node3&#45;&gt;Node4</title>
<path fill="none" stroke="midnightblue" d="M141.464,-10C127.14,-10 111.973,-10 98.1961,-10"/>
<polygon fill="midnightblue" stroke="midnightblue" points="141.713,-13.5001 151.713,-10 141.713,-6.5001 141.713,-13.5001"/>
</g>
</g>
</svg>
