<?xml version="1.0" encoding="UTF-8" standalone="no"?>
<!DOCTYPE svg PUBLIC "-//W3C//DTD SVG 1.1//EN"
 "http://www.w3.org/Graphics/SVG/1.1/DTD/svg11.dtd">
<!-- Generated by graphviz version 2.38.0 (20140413.2041)
 -->
<!-- Title: blitzdg::CSVFileReader::parseRowIterator Pages: 1 -->
<svg width="249pt" height="52pt"
 viewBox="0.00 0.00 249.00 51.50" xmlns="http://www.w3.org/2000/svg" xmlns:xlink="http://www.w3.org/1999/xlink">
<g id="graph0" class="graph" transform="scale(1 1) rotate(0) translate(4 47.5)">
<title>blitzdg::CSVFileReader::parseRowIterator</title>
<polygon fill="white" stroke="none" points="-4,4 -4,-47.5 245,-47.5 245,4 -4,4"/>
<!-- Node1 -->
<g id="node1" class="node"><title>Node1</title>
<g id="a_node1"><a xlink:title="Parses the next line of the file and writes the tokens to the output iterator if possible.">
<polygon fill="#bfbfbf" stroke="black" points="122,-0.5 122,-30.5 241,-30.5 241,-0.5 122,-0.5"/>
<text text-anchor="start" x="130" y="-18.5" font-family="Helvetica,sans-Serif" font-size="10.00">blitzdg::CSVFileReader</text>
<text text-anchor="middle" x="181.5" y="-7.5" font-family="Helvetica,sans-Serif" font-size="10.00">::parseRowIterator</text>
</a>
</g>
</g>
<!-- Node2 -->
<g id="node2" class="node"><title>Node2</title>
<g id="a_node2"><a xlink:href="CSVFileReader_8hpp.html#a13932ddfc3ba21255d00c5a0f695bfd2" target="_top" xlink:title="Reads a numeric csv file and returns its contents as a unique_ptr&lt;matrix_type&lt;T&gt;&gt;,...">
<polygon fill="white" stroke="black" points="0,-6 0,-25 86,-25 86,-6 0,-6"/>
<text text-anchor="middle" x="43" y="-13" font-family="Helvetica,sans-Serif" font-size="10.00">blitzdg::csvread</text>
</a>
</g>
</g>
<!-- Node1&#45;&gt;Node2 -->
<g id="edge1" class="edge"><title>Node1&#45;&gt;Node2</title>
<path fill="none" stroke="midnightblue" d="M111.637,-15.5C102.94,-15.5 94.2557,-15.5 86.1498,-15.5"/>
<polygon fill="midnightblue" stroke="midnightblue" points="111.82,-19.0001 121.82,-15.5 111.82,-12.0001 111.82,-19.0001"/>
</g>
<!-- Node2&#45;&gt;Node2 -->
<g id="edge2" class="edge"><title>Node2&#45;&gt;Node2</title>
<path fill="none" stroke="midnightblue" d="M68.6695,-34.5292C67.2693,-39.628 58.7128,-43.5 43,-43.5 18.4727,-43.5 11.3827,-34.0653 21.7302,-25.2571"/>
<polygon fill="midnightblue" stroke="midnightblue" points="71.7189,-32.7911 64.2698,-25.2571 65.3948,-35.792 71.7189,-32.7911"/>
</g>
</g>
</svg>
