<?xml version="1.0" encoding="UTF-8" standalone="no"?>
<!DOCTYPE svg PUBLIC "-//W3C//DTD SVG 1.1//EN"
 "http://www.w3.org/Graphics/SVG/1.1/DTD/svg11.dtd">
<!-- Generated by graphviz version 2.38.0 (20140413.2041)
 -->
<!-- Title: blitzdg::LUSolver::factorize Pages: 1 -->
<svg width="258pt" height="66pt"
 viewBox="0.00 0.00 258.00 66.00" xmlns="http://www.w3.org/2000/svg" xmlns:xlink="http://www.w3.org/1999/xlink">
<g id="graph0" class="graph" transform="scale(1 1) rotate(0) translate(4 62)">
<title>blitzdg::LUSolver::factorize</title>
<polygon fill="white" stroke="none" points="-4,4 -4,-62 254,-62 254,4 -4,4"/>
<!-- Node1 -->
<g id="node1" class="node"><title>Node1</title>
<g id="a_node1"><a xlink:title="Computes an LU factorization of the input CSC matrix.">
<polygon fill="#bfbfbf" stroke="black" points="0,-14 0,-44 98,-44 98,-14 0,-14"/>
<text text-anchor="start" x="8" y="-32" font-family="Helvetica,sans-Serif" font-size="10.00">blitzdg::LUSolver::</text>
<text text-anchor="middle" x="49" y="-21" font-family="Helvetica,sans-Serif" font-size="10.00">factorize</text>
</a>
</g>
</g>
<!-- Node2 -->
<g id="node2" class="node"><title>Node2</title>
<g id="a_node2"><a xlink:href="classblitzdg_1_1CSCMat.html#a36200cdfcaf057020cb649dbadc76a71" target="_top" xlink:title="Returns the number of columns.">
<polygon fill="white" stroke="black" points="135.5,-38.5 135.5,-57.5 248.5,-57.5 248.5,-38.5 135.5,-38.5"/>
<text text-anchor="middle" x="192" y="-45.5" font-family="Helvetica,sans-Serif" font-size="10.00">blitzdg::CSCMat::cols</text>
</a>
</g>
</g>
<!-- Node1&#45;&gt;Node2 -->
<g id="edge1" class="edge"><title>Node1&#45;&gt;Node2</title>
<path fill="none" stroke="midnightblue" d="M98.1298,-35.4856C106.824,-36.6572 116.025,-37.8971 125.123,-39.123"/>
<polygon fill="midnightblue" stroke="midnightblue" points="124.941,-42.63 135.319,-40.4969 125.876,-35.6927 124.941,-42.63"/>
</g>
<!-- Node3 -->
<g id="node3" class="node"><title>Node3</title>
<g id="a_node3"><a xlink:href="classblitzdg_1_1CSCMat.html#a0d1d954ba5a1483f2188b65446a40d22" target="_top" xlink:title="Returns the number of rows.">
<polygon fill="white" stroke="black" points="134,-0.5 134,-19.5 250,-19.5 250,-0.5 134,-0.5"/>
<text text-anchor="middle" x="192" y="-7.5" font-family="Helvetica,sans-Serif" font-size="10.00">blitzdg::CSCMat::rows</text>
</a>
</g>
</g>
<!-- Node1&#45;&gt;Node3 -->
<g id="edge2" class="edge"><title>Node1&#45;&gt;Node3</title>
<path fill="none" stroke="midnightblue" d="M98.1298,-22.5144C106.387,-21.4018 115.101,-20.2276 123.749,-19.0622"/>
<polygon fill="midnightblue" stroke="midnightblue" points="124.397,-22.5065 133.84,-17.7023 123.463,-15.5692 124.397,-22.5065"/>
</g>
</g>
</svg>
