<?xml version="1.0" encoding="UTF-8" standalone="no"?>
<!DOCTYPE svg PUBLIC "-//W3C//DTD SVG 1.1//EN"
 "http://www.w3.org/Graphics/SVG/1.1/DTD/svg11.dtd">
<!-- Generated by graphviz version 2.38.0 (20140413.2041)
 -->
<!-- Title: blitzdg::TriangleNodesProvisioner::evaluateGradSimplex Pages: 1 -->
<svg width="495pt" height="61pt"
 viewBox="0.00 0.00 495.00 61.00" xmlns="http://www.w3.org/2000/svg" xmlns:xlink="http://www.w3.org/1999/xlink">
<g id="graph0" class="graph" transform="scale(1 1) rotate(0) translate(4 57)">
<title>blitzdg::TriangleNodesProvisioner::evaluateGradSimplex</title>
<polygon fill="white" stroke="none" points="-4,4 -4,-57 491,-57 491,4 -4,4"/>
<!-- Node1 -->
<g id="node1" class="node"><title>Node1</title>
<g id="a_node1"><a xlink:title="Evaluates the gradient of the 2D orthonormal polynomial of index (id,jd) on the simplex at (a,...">
<polygon fill="#bfbfbf" stroke="black" points="0,-0.5 0,-30.5 163,-30.5 163,-0.5 0,-0.5"/>
<text text-anchor="start" x="8" y="-18.5" font-family="Helvetica,sans-Serif" font-size="10.00">blitzdg::TriangleNodesProvisioner</text>
<text text-anchor="middle" x="81.5" y="-7.5" font-family="Helvetica,sans-Serif" font-size="10.00">::evaluateGradSimplex</text>
</a>
</g>
</g>
<!-- Node2 -->
<g id="node2" class="node"><title>Node2</title>
<g id="a_node2"><a xlink:href="classblitzdg_1_1JacobiBuilders.html#a7e4e8d22f83e71108552a213439bb186" target="_top" xlink:title="Computes the first derivative of the Nth order Jacobi polynomial with parameters &#160;and &#160;at each point ...">
<polygon fill="white" stroke="black" points="199,-22.5 199,-52.5 314,-52.5 314,-22.5 199,-22.5"/>
<text text-anchor="start" x="207" y="-40.5" font-family="Helvetica,sans-Serif" font-size="10.00">blitzdg::JacobiBuilders</text>
<text text-anchor="middle" x="256.5" y="-29.5" font-family="Helvetica,sans-Serif" font-size="10.00">::computeGradJacobi</text>
</a>
</g>
</g>
<!-- Node1&#45;&gt;Node2 -->
<g id="edge1" class="edge"><title>Node1&#45;&gt;Node2</title>
<path fill="none" stroke="midnightblue" d="M163.175,-25.7593C171.692,-26.8424 180.285,-27.9351 188.621,-28.9952"/>
<polygon fill="midnightblue" stroke="midnightblue" points="188.278,-32.4797 198.64,-30.2692 189.161,-25.5356 188.278,-32.4797"/>
</g>
<!-- Node3 -->
<g id="node3" class="node"><title>Node3</title>
<g id="a_node3"><a xlink:href="classblitzdg_1_1JacobiBuilders.html#a629c1bda92b2b4414c5ef22ccd6d25ce" target="_top" xlink:title="Computes the value of the Nth order Jacobi polynomial with parameters &#160;and &#160;at each point in the inpu...">
<polygon fill="white" stroke="black" points="350,-0.5 350,-30.5 487,-30.5 487,-0.5 350,-0.5"/>
<text text-anchor="start" x="358" y="-18.5" font-family="Helvetica,sans-Serif" font-size="10.00">blitzdg::JacobiBuilders</text>
<text text-anchor="middle" x="418.5" y="-7.5" font-family="Helvetica,sans-Serif" font-size="10.00">::computeJacobiPolynomial</text>
</a>
</g>
</g>
<!-- Node1&#45;&gt;Node3 -->
<g id="edge3" class="edge"><title>Node1&#45;&gt;Node3</title>
<path fill="none" stroke="midnightblue" d="M163.029,-13.9374C175.085,-13.7557 187.369,-13.5998 199,-13.5 250.109,-13.0613 262.891,-13.0062 314,-13.5 322.331,-13.5805 331.039,-13.6974 339.715,-13.8349"/>
<polygon fill="midnightblue" stroke="midnightblue" points="339.801,-17.3368 349.859,-14.0049 339.919,-10.3378 339.801,-17.3368"/>
</g>
<!-- Node2&#45;&gt;Node3 -->
<g id="edge2" class="edge"><title>Node2&#45;&gt;Node3</title>
<path fill="none" stroke="midnightblue" d="M314.361,-29.6817C322.624,-28.5454 331.248,-27.3596 339.836,-26.1788"/>
<polygon fill="midnightblue" stroke="midnightblue" points="340.448,-29.6277 349.878,-24.7981 339.494,-22.693 340.448,-29.6277"/>
</g>
</g>
</svg>
