<?xml version="1.0" encoding="UTF-8" standalone="no"?>
<!DOCTYPE svg PUBLIC "-//W3C//DTD SVG 1.1//EN"
 "http://www.w3.org/Graphics/SVG/1.1/DTD/svg11.dtd">
<!-- Generated by graphviz version 2.38.0 (20140413.2041)
 -->
<!-- Title: blitzdg::CSCMat::matPtr Pages: 1 -->
<svg width="412pt" height="102pt"
 viewBox="0.00 0.00 412.00 102.00" xmlns="http://www.w3.org/2000/svg" xmlns:xlink="http://www.w3.org/1999/xlink">
<g id="graph0" class="graph" transform="scale(1 1) rotate(0) translate(4 98)">
<title>blitzdg::CSCMat::matPtr</title>
<polygon fill="white" stroke="none" points="-4,4 -4,-98 408,-98 408,4 -4,4"/>
<!-- Node1 -->
<g id="node1" class="node"><title>Node1</title>
<g id="a_node1"><a xlink:title="Provides access to the underlying raw pointer that points to the managed cs_di object.">
<polygon fill="#bfbfbf" stroke="black" points="279,-28.5 279,-47.5 404,-47.5 404,-28.5 279,-28.5"/>
<text text-anchor="middle" x="341.5" y="-35.5" font-family="Helvetica,sans-Serif" font-size="10.00">blitzdg::CSCMat::matPtr</text>
</a>
</g>
</g>
<!-- Node2 -->
<g id="node2" class="node"><title>Node2</title>
<g id="a_node2"><a xlink:href="CSCMatrix_8hpp.html#a1866fcdc4e272d252d1460ebdd67284e" target="_top" xlink:title="Returns the matrix&#45;matrix product of two CSC matrices: lhs * rhs.">
<polygon fill="white" stroke="black" points="153.5,-56.5 153.5,-75.5 238.5,-75.5 238.5,-56.5 153.5,-56.5"/>
<text text-anchor="middle" x="196" y="-63.5" font-family="Helvetica,sans-Serif" font-size="10.00">blitzdg::multiply</text>
</a>
</g>
</g>
<!-- Node1&#45;&gt;Node2 -->
<g id="edge1" class="edge"><title>Node1&#45;&gt;Node2</title>
<path fill="none" stroke="midnightblue" d="M281.659,-49.4812C267.21,-52.3006 252.038,-55.2609 238.593,-57.8842"/>
<polygon fill="midnightblue" stroke="midnightblue" points="282.372,-52.9081 291.517,-47.5577 281.032,-46.0377 282.372,-52.9081"/>
</g>
<!-- Node4 -->
<g id="node4" class="node"><title>Node4</title>
<g id="a_node4"><a xlink:href="CSCMatrix_8hpp.html#a5867556d69e744f932c8774703236fe2" target="_top" xlink:title="Returns the transpose of a CSC matrix.">
<polygon fill="white" stroke="black" points="149,-0.5 149,-19.5 243,-19.5 243,-0.5 149,-0.5"/>
<text text-anchor="middle" x="196" y="-7.5" font-family="Helvetica,sans-Serif" font-size="10.00">blitzdg::transpose</text>
</a>
</g>
</g>
<!-- Node1&#45;&gt;Node4 -->
<g id="edge4" class="edge"><title>Node1&#45;&gt;Node4</title>
<path fill="none" stroke="midnightblue" d="M281.47,-26.482C268.756,-24.0012 255.491,-21.4129 243.343,-19.0425"/>
<polygon fill="midnightblue" stroke="midnightblue" points="281.032,-29.9623 291.517,-28.4423 282.372,-23.0919 281.032,-29.9623"/>
</g>
<!-- Node2&#45;&gt;Node2 -->
<g id="edge3" class="edge"><title>Node2&#45;&gt;Node2</title>
<path fill="none" stroke="midnightblue" d="M221.67,-85.0292C220.269,-90.128 211.713,-94 196,-94 171.473,-94 164.383,-84.5653 174.73,-75.7571"/>
<polygon fill="midnightblue" stroke="midnightblue" points="224.719,-83.2911 217.27,-75.7571 218.395,-86.292 224.719,-83.2911"/>
</g>
<!-- Node3 -->
<g id="node3" class="node"><title>Node3</title>
<g id="a_node3"><a xlink:href="classblitzdg_1_1MeshManager.html#a45ae7ee8dac8fea878d0546cd5e78e10" target="_top" xlink:title="Build EToE and EToF connectivity tables.">
<polygon fill="white" stroke="black" points="0,-23 0,-53 113,-53 113,-23 0,-23"/>
<text text-anchor="start" x="8" y="-41" font-family="Helvetica,sans-Serif" font-size="10.00">blitzdg::MeshManager</text>
<text text-anchor="middle" x="56.5" y="-30" font-family="Helvetica,sans-Serif" font-size="10.00">::buildConnectivity</text>
</a>
</g>
</g>
<!-- Node2&#45;&gt;Node3 -->
<g id="edge2" class="edge"><title>Node2&#45;&gt;Node3</title>
<path fill="none" stroke="midnightblue" d="M143.337,-55.4795C133.498,-53.476 123.161,-51.371 113.204,-49.3433"/>
<polygon fill="midnightblue" stroke="midnightblue" points="142.875,-58.9572 153.372,-57.5231 144.272,-52.098 142.875,-58.9572"/>
</g>
<!-- Node4&#45;&gt;Node3 -->
<g id="edge5" class="edge"><title>Node4&#45;&gt;Node3</title>
<path fill="none" stroke="midnightblue" d="M139.033,-21.397C130.552,-23.1239 121.803,-24.9055 113.326,-26.6318"/>
<polygon fill="midnightblue" stroke="midnightblue" points="139.732,-24.8266 148.832,-19.4015 138.335,-17.9674 139.732,-24.8266"/>
</g>
<!-- Node4&#45;&gt;Node4 -->
<g id="edge6" class="edge"><title>Node4&#45;&gt;Node4</title>
<path fill="none" stroke="midnightblue" d="M221.67,-29.0292C220.269,-34.128 211.713,-38 196,-38 171.473,-38 164.383,-28.5653 174.73,-19.7571"/>
<polygon fill="midnightblue" stroke="midnightblue" points="224.719,-27.2911 217.27,-19.7571 218.395,-30.292 224.719,-27.2911"/>
</g>
</g>
</svg>
