<?xml version="1.0" encoding="UTF-8" standalone="no"?>
<!DOCTYPE svg PUBLIC "-//W3C//DTD SVG 1.1//EN"
 "http://www.w3.org/Graphics/SVG/1.1/DTD/svg11.dtd">
<!-- Generated by graphviz version 2.38.0 (20140413.2041)
 -->
<!-- Title: blitzdg::CSVFileReader::openFile Pages: 1 -->
<svg width="437pt" height="39pt"
 viewBox="0.00 0.00 437.00 39.00" xmlns="http://www.w3.org/2000/svg" xmlns:xlink="http://www.w3.org/1999/xlink">
<g id="graph0" class="graph" transform="scale(1 1) rotate(0) translate(4 35)">
<title>blitzdg::CSVFileReader::openFile</title>
<polygon fill="white" stroke="none" points="-4,4 -4,-35 433,-35 433,4 -4,4"/>
<!-- Node1 -->
<g id="node1" class="node"><title>Node1</title>
<g id="a_node1"><a xlink:title="Closes any currently open file and opens the csv file with path filename.">
<polygon fill="#bfbfbf" stroke="black" points="0,-0.5 0,-30.5 119,-30.5 119,-0.5 0,-0.5"/>
<text text-anchor="start" x="8" y="-18.5" font-family="Helvetica,sans-Serif" font-size="10.00">blitzdg::CSVFileReader</text>
<text text-anchor="middle" x="59.5" y="-7.5" font-family="Helvetica,sans-Serif" font-size="10.00">::openFile</text>
</a>
</g>
</g>
<!-- Node2 -->
<g id="node2" class="node"><title>Node2</title>
<g id="a_node2"><a xlink:href="classblitzdg_1_1CSVFileReader.html#ae66738da8dc330360f4f50075f3c23b0" target="_top" xlink:title="Skips the file stream ahead by n lines or until the end&#45;of&#45;file is reached.">
<polygon fill="white" stroke="black" points="155,-0.5 155,-30.5 274,-30.5 274,-0.5 155,-0.5"/>
<text text-anchor="start" x="163" y="-18.5" font-family="Helvetica,sans-Serif" font-size="10.00">blitzdg::CSVFileReader</text>
<text text-anchor="middle" x="214.5" y="-7.5" font-family="Helvetica,sans-Serif" font-size="10.00">::skipLines</text>
</a>
</g>
</g>
<!-- Node1&#45;&gt;Node2 -->
<g id="edge1" class="edge"><title>Node1&#45;&gt;Node2</title>
<path fill="none" stroke="midnightblue" d="M119.216,-15.5C127.544,-15.5 136.169,-15.5 144.667,-15.5"/>
<polygon fill="midnightblue" stroke="midnightblue" points="144.941,-19.0001 154.941,-15.5 144.941,-12.0001 144.941,-19.0001"/>
</g>
<!-- Node3 -->
<g id="node3" class="node"><title>Node3</title>
<g id="a_node3"><a xlink:href="classblitzdg_1_1CSVFileReader.html#afa28c6d7a4a6356cf95d1372c009ba5b" target="_top" xlink:title="Reads the next line of the file if possible.">
<polygon fill="white" stroke="black" points="310,-0.5 310,-30.5 429,-30.5 429,-0.5 310,-0.5"/>
<text text-anchor="start" x="318" y="-18.5" font-family="Helvetica,sans-Serif" font-size="10.00">blitzdg::CSVFileReader</text>
<text text-anchor="middle" x="369.5" y="-7.5" font-family="Helvetica,sans-Serif" font-size="10.00">::readLine</text>
</a>
</g>
</g>
<!-- Node2&#45;&gt;Node3 -->
<g id="edge2" class="edge"><title>Node2&#45;&gt;Node3</title>
<path fill="none" stroke="midnightblue" d="M274.216,-15.5C282.544,-15.5 291.169,-15.5 299.667,-15.5"/>
<polygon fill="midnightblue" stroke="midnightblue" points="299.941,-19.0001 309.941,-15.5 299.941,-12.0001 299.941,-19.0001"/>
</g>
</g>
</svg>
