<?xml version="1.0" encoding="UTF-8" standalone="no"?>
<!DOCTYPE svg PUBLIC "-//W3C//DTD SVG 1.1//EN"
 "http://www.w3.org/Graphics/SVG/1.1/DTD/svg11.dtd">
<!-- Generated by graphviz version 2.38.0 (20140413.2041)
 -->
<!-- Title: blitzdg::TriangleNodesProvisioner::computeGradVandermondeMatrix Pages: 1 -->
<svg width="699pt" height="110pt"
 viewBox="0.00 0.00 699.00 110.00" xmlns="http://www.w3.org/2000/svg" xmlns:xlink="http://www.w3.org/1999/xlink">
<g id="graph0" class="graph" transform="scale(1 1) rotate(0) translate(4 106)">
<title>blitzdg::TriangleNodesProvisioner::computeGradVandermondeMatrix</title>
<polygon fill="white" stroke="none" points="-4,4 -4,-106 695,-106 695,4 -4,4"/>
<!-- Node1 -->
<g id="node1" class="node"><title>Node1</title>
<g id="a_node1"><a xlink:title="Computes the Gradient of the 2D Vandermonde matrix.">
<polygon fill="#bfbfbf" stroke="black" points="0,-24.5 0,-54.5 168,-54.5 168,-24.5 0,-24.5"/>
<text text-anchor="start" x="8" y="-42.5" font-family="Helvetica,sans-Serif" font-size="10.00">blitzdg::TriangleNodesProvisioner</text>
<text text-anchor="middle" x="84" y="-31.5" font-family="Helvetica,sans-Serif" font-size="10.00">::computeGradVandermondeMatrix</text>
</a>
</g>
</g>
<!-- Node2 -->
<g id="node2" class="node"><title>Node2</title>
<g id="a_node2"><a xlink:href="classblitzdg_1_1TriangleNodesProvisioner.html#a198dfd20f8c2c8b047c2b5ec8d243887" target="_top" xlink:title="Evaluates the gradient of the 2D orthonormal polynomial of index (id,jd) on the simplex at (a,...">
<polygon fill="white" stroke="black" points="204,-49.5 204,-79.5 367,-79.5 367,-49.5 204,-49.5"/>
<text text-anchor="start" x="212" y="-67.5" font-family="Helvetica,sans-Serif" font-size="10.00">blitzdg::TriangleNodesProvisioner</text>
<text text-anchor="middle" x="285.5" y="-56.5" font-family="Helvetica,sans-Serif" font-size="10.00">::evaluateGradSimplex</text>
</a>
</g>
</g>
<!-- Node1&#45;&gt;Node2 -->
<g id="edge1" class="edge"><title>Node1&#45;&gt;Node2</title>
<path fill="none" stroke="midnightblue" d="M168.161,-49.9212C176.614,-50.9805 185.231,-52.0603 193.759,-53.1289"/>
<polygon fill="midnightblue" stroke="midnightblue" points="193.356,-56.6058 203.714,-54.3764 194.227,-49.6601 193.356,-56.6058"/>
</g>
<!-- Node5 -->
<g id="node5" class="node"><title>Node5</title>
<g id="a_node5"><a xlink:href="classblitzdg_1_1TriangleNodesProvisioner.html#ac387403eeb135dd15dd11a4be3518b52" target="_top" xlink:title="Maps from (r,s) to (a,b) coordinates in the triangle.">
<polygon fill="white" stroke="black" points="204,-0.5 204,-30.5 367,-30.5 367,-0.5 204,-0.5"/>
<text text-anchor="start" x="212" y="-18.5" font-family="Helvetica,sans-Serif" font-size="10.00">blitzdg::TriangleNodesProvisioner</text>
<text text-anchor="middle" x="285.5" y="-7.5" font-family="Helvetica,sans-Serif" font-size="10.00">::rsToab</text>
</a>
</g>
</g>
<!-- Node1&#45;&gt;Node5 -->
<g id="edge5" class="edge"><title>Node1&#45;&gt;Node5</title>
<path fill="none" stroke="midnightblue" d="M168.161,-29.4956C176.614,-28.4787 185.231,-27.4422 193.759,-26.4162"/>
<polygon fill="midnightblue" stroke="midnightblue" points="194.204,-29.888 203.714,-25.2186 193.368,-22.9381 194.204,-29.888"/>
</g>
<!-- Node3 -->
<g id="node3" class="node"><title>Node3</title>
<g id="a_node3"><a xlink:href="classblitzdg_1_1JacobiBuilders.html#a7e4e8d22f83e71108552a213439bb186" target="_top" xlink:title="Computes the first derivative of the Nth order Jacobi polynomial with parameters &#160;and &#160;at each point ...">
<polygon fill="white" stroke="black" points="403,-71.5 403,-101.5 518,-101.5 518,-71.5 403,-71.5"/>
<text text-anchor="start" x="411" y="-89.5" font-family="Helvetica,sans-Serif" font-size="10.00">blitzdg::JacobiBuilders</text>
<text text-anchor="middle" x="460.5" y="-78.5" font-family="Helvetica,sans-Serif" font-size="10.00">::computeGradJacobi</text>
</a>
</g>
</g>
<!-- Node2&#45;&gt;Node3 -->
<g id="edge2" class="edge"><title>Node2&#45;&gt;Node3</title>
<path fill="none" stroke="midnightblue" d="M367.175,-74.7593C375.692,-75.8424 384.285,-76.9351 392.621,-77.9952"/>
<polygon fill="midnightblue" stroke="midnightblue" points="392.278,-81.4797 402.64,-79.2692 393.161,-74.5356 392.278,-81.4797"/>
</g>
<!-- Node4 -->
<g id="node4" class="node"><title>Node4</title>
<g id="a_node4"><a xlink:href="classblitzdg_1_1JacobiBuilders.html#a629c1bda92b2b4414c5ef22ccd6d25ce" target="_top" xlink:title="Computes the value of the Nth order Jacobi polynomial with parameters &#160;and &#160;at each point in the inpu...">
<polygon fill="white" stroke="black" points="554,-49.5 554,-79.5 691,-79.5 691,-49.5 554,-49.5"/>
<text text-anchor="start" x="562" y="-67.5" font-family="Helvetica,sans-Serif" font-size="10.00">blitzdg::JacobiBuilders</text>
<text text-anchor="middle" x="622.5" y="-56.5" font-family="Helvetica,sans-Serif" font-size="10.00">::computeJacobiPolynomial</text>
</a>
</g>
</g>
<!-- Node2&#45;&gt;Node4 -->
<g id="edge4" class="edge"><title>Node2&#45;&gt;Node4</title>
<path fill="none" stroke="midnightblue" d="M367.029,-62.9374C379.085,-62.7557 391.369,-62.5998 403,-62.5 454.109,-62.0613 466.891,-62.0062 518,-62.5 526.331,-62.5805 535.039,-62.6974 543.715,-62.8349"/>
<polygon fill="midnightblue" stroke="midnightblue" points="543.801,-66.3368 553.859,-63.0049 543.919,-59.3378 543.801,-66.3368"/>
</g>
<!-- Node3&#45;&gt;Node4 -->
<g id="edge3" class="edge"><title>Node3&#45;&gt;Node4</title>
<path fill="none" stroke="midnightblue" d="M518.361,-78.6817C526.624,-77.5454 535.248,-76.3596 543.836,-75.1788"/>
<polygon fill="midnightblue" stroke="midnightblue" points="544.448,-78.6277 553.878,-73.7981 543.494,-71.693 544.448,-78.6277"/>
</g>
</g>
</svg>
