<?xml version="1.0" encoding="UTF-8" standalone="no"?>
<!DOCTYPE svg PUBLIC "-//W3C//DTD SVG 1.1//EN"
 "http://www.w3.org/Graphics/SVG/1.1/DTD/svg11.dtd">
<!-- Generated by graphviz version 2.38.0 (20140413.2041)
 -->
<!-- Title: blitzdg::CSVFileReader::tokenizeLine Pages: 1 -->
<svg width="431pt" height="101pt"
 viewBox="0.00 0.00 431.00 100.50" xmlns="http://www.w3.org/2000/svg" xmlns:xlink="http://www.w3.org/1999/xlink">
<g id="graph0" class="graph" transform="scale(1 1) rotate(0) translate(4 96.5)">
<title>blitzdg::CSVFileReader::tokenizeLine</title>
<polygon fill="white" stroke="none" points="-4,4 -4,-96.5 427,-96.5 427,4 -4,4"/>
<!-- Node1 -->
<g id="node1" class="node"><title>Node1</title>
<g id="a_node1"><a xlink:title="Parses a line into string tokens based on the delimiter sequence.">
<polygon fill="#bfbfbf" stroke="black" points="304,-24.5 304,-54.5 423,-54.5 423,-24.5 304,-24.5"/>
<text text-anchor="start" x="312" y="-42.5" font-family="Helvetica,sans-Serif" font-size="10.00">blitzdg::CSVFileReader</text>
<text text-anchor="middle" x="363.5" y="-31.5" font-family="Helvetica,sans-Serif" font-size="10.00">::tokenizeLine</text>
</a>
</g>
</g>
<!-- Node2 -->
<g id="node2" class="node"><title>Node2</title>
<g id="a_node2"><a xlink:href="classblitzdg_1_1CSVFileReader.html#a063595d6e41f3531f93beb71ca6f1f0f" target="_top" xlink:title="Parses the next line of the file and writes the tokens to the output iterator if possible.">
<polygon fill="white" stroke="black" points="149,-49.5 149,-79.5 268,-79.5 268,-49.5 149,-49.5"/>
<text text-anchor="start" x="157" y="-67.5" font-family="Helvetica,sans-Serif" font-size="10.00">blitzdg::CSVFileReader</text>
<text text-anchor="middle" x="208.5" y="-56.5" font-family="Helvetica,sans-Serif" font-size="10.00">::parseRowIterator</text>
</a>
</g>
</g>
<!-- Node1&#45;&gt;Node2 -->
<g id="edge1" class="edge"><title>Node1&#45;&gt;Node2</title>
<path fill="none" stroke="midnightblue" d="M293.787,-50.7276C285.197,-52.1312 276.475,-53.5565 268.059,-54.9315"/>
<polygon fill="midnightblue" stroke="midnightblue" points="294.479,-54.161 303.784,-49.0942 293.35,-47.2526 294.479,-54.161"/>
</g>
<!-- Node4 -->
<g id="node4" class="node"><title>Node4</title>
<g id="a_node4"><a xlink:href="classblitzdg_1_1CSVFileReader.html#ab425a81b4cdef8990be0b7685ba212e7" target="_top" xlink:title="Parses the next line of the file and writes the tokens to the output arguments if possible.">
<polygon fill="white" stroke="black" points="149,-0.5 149,-30.5 268,-30.5 268,-0.5 149,-0.5"/>
<text text-anchor="start" x="157" y="-18.5" font-family="Helvetica,sans-Serif" font-size="10.00">blitzdg::CSVFileReader</text>
<text text-anchor="middle" x="208.5" y="-7.5" font-family="Helvetica,sans-Serif" font-size="10.00">::parseRowValues</text>
</a>
</g>
</g>
<!-- Node1&#45;&gt;Node4 -->
<g id="edge4" class="edge"><title>Node1&#45;&gt;Node4</title>
<path fill="none" stroke="midnightblue" d="M293.787,-28.7215C285.197,-27.374 276.475,-26.0058 268.059,-24.6857"/>
<polygon fill="midnightblue" stroke="midnightblue" points="293.362,-32.1976 303.784,-30.2896 294.447,-25.2821 293.362,-32.1976"/>
</g>
<!-- Node3 -->
<g id="node3" class="node"><title>Node3</title>
<g id="a_node3"><a xlink:href="CSVFileReader_8hpp.html#a13932ddfc3ba21255d00c5a0f695bfd2" target="_top" xlink:title="Reads a numeric csv file and returns its contents as a unique_ptr&lt;matrix_type&lt;T&gt;&gt;,...">
<polygon fill="white" stroke="black" points="13.5,-55 13.5,-74 99.5,-74 99.5,-55 13.5,-55"/>
<text text-anchor="middle" x="56.5" y="-62" font-family="Helvetica,sans-Serif" font-size="10.00">blitzdg::csvread</text>
</a>
</g>
</g>
<!-- Node2&#45;&gt;Node3 -->
<g id="edge2" class="edge"><title>Node2&#45;&gt;Node3</title>
<path fill="none" stroke="midnightblue" d="M138.537,-64.5C125.216,-64.5 111.639,-64.5 99.5015,-64.5"/>
<polygon fill="midnightblue" stroke="midnightblue" points="138.647,-68.0001 148.647,-64.5 138.647,-61.0001 138.647,-68.0001"/>
</g>
<!-- Node3&#45;&gt;Node3 -->
<g id="edge3" class="edge"><title>Node3&#45;&gt;Node3</title>
<path fill="none" stroke="midnightblue" d="M84.8725,-83.1539C83.6865,-88.4368 74.229,-92.5 56.5,-92.5 29.4844,-92.5 21.6752,-83.0653 33.0724,-74.2571"/>
<polygon fill="midnightblue" stroke="midnightblue" points="87.8449,-81.2974 79.9276,-74.2571 81.7265,-84.6981 87.8449,-81.2974"/>
</g>
<!-- Node5 -->
<g id="node5" class="node"><title>Node5</title>
<g id="a_node5"><a xlink:href="classblitzdg_1_1MeshManager.html#ab6025c59ed3f2aec2e61728e1b18838f" target="_top" xlink:title="Reads a .msh file that was generated by Gmsh.">
<polygon fill="white" stroke="black" points="0,-0.5 0,-30.5 113,-30.5 113,-0.5 0,-0.5"/>
<text text-anchor="start" x="8" y="-18.5" font-family="Helvetica,sans-Serif" font-size="10.00">blitzdg::MeshManager</text>
<text text-anchor="middle" x="56.5" y="-7.5" font-family="Helvetica,sans-Serif" font-size="10.00">::readMesh</text>
</a>
</g>
</g>
<!-- Node4&#45;&gt;Node5 -->
<g id="edge5" class="edge"><title>Node4&#45;&gt;Node5</title>
<path fill="none" stroke="midnightblue" d="M138.432,-15.5C129.992,-15.5 121.453,-15.5 113.243,-15.5"/>
<polygon fill="midnightblue" stroke="midnightblue" points="138.647,-19.0001 148.647,-15.5 138.647,-12.0001 138.647,-19.0001"/>
</g>
</g>
</svg>
