<?xml version="1.0" encoding="UTF-8" standalone="no"?>
<!DOCTYPE svg PUBLIC "-//W3C//DTD SVG 1.1//EN"
 "http://www.w3.org/Graphics/SVG/1.1/DTD/svg11.dtd">
<!-- Generated by graphviz version 2.38.0 (20140413.2041)
 -->
<!-- Title: blitzdg::MeshManager::readMesh Pages: 1 -->
<svg width="431pt" height="176pt"
 viewBox="0.00 0.00 431.00 176.00" xmlns="http://www.w3.org/2000/svg" xmlns:xlink="http://www.w3.org/1999/xlink">
<g id="graph0" class="graph" transform="scale(1 1) rotate(0) translate(4 172)">
<title>blitzdg::MeshManager::readMesh</title>
<polygon fill="white" stroke="none" points="-4,4 -4,-172 427,-172 427,4 -4,4"/>
<!-- Node1 -->
<g id="node1" class="node"><title>Node1</title>
<g id="a_node1"><a xlink:title="Reads a .msh file that was generated by Gmsh.">
<polygon fill="#bfbfbf" stroke="black" points="0,-71.5 0,-101.5 113,-101.5 113,-71.5 0,-71.5"/>
<text text-anchor="start" x="8" y="-89.5" font-family="Helvetica,sans-Serif" font-size="10.00">blitzdg::MeshManager</text>
<text text-anchor="middle" x="56.5" y="-78.5" font-family="Helvetica,sans-Serif" font-size="10.00">::readMesh</text>
</a>
</g>
</g>
<!-- Node2 -->
<g id="node2" class="node"><title>Node2</title>
<g id="a_node2"><a xlink:href="classblitzdg_1_1CSVFileReader.html#ab425a81b4cdef8990be0b7685ba212e7" target="_top" xlink:title="Parses the next line of the file and writes the tokens to the output arguments if possible.">
<polygon fill="white" stroke="black" points="149,-137.5 149,-167.5 268,-167.5 268,-137.5 149,-137.5"/>
<text text-anchor="start" x="157" y="-155.5" font-family="Helvetica,sans-Serif" font-size="10.00">blitzdg::CSVFileReader</text>
<text text-anchor="middle" x="208.5" y="-144.5" font-family="Helvetica,sans-Serif" font-size="10.00">::parseRowValues</text>
</a>
</g>
</g>
<!-- Node1&#45;&gt;Node2 -->
<g id="edge1" class="edge"><title>Node1&#45;&gt;Node2</title>
<path fill="none" stroke="midnightblue" d="M91.913,-101.642C113.351,-111.074 141.12,-123.293 164.066,-133.389"/>
<polygon fill="midnightblue" stroke="midnightblue" points="162.684,-136.605 173.247,-137.429 165.504,-130.198 162.684,-136.605"/>
</g>
<!-- Node4 -->
<g id="node4" class="node"><title>Node4</title>
<g id="a_node4"><a xlink:href="classblitzdg_1_1CSVFileReader.html#afa28c6d7a4a6356cf95d1372c009ba5b" target="_top" xlink:title="Reads the next line of the file if possible.">
<polygon fill="white" stroke="black" points="304,-44.5 304,-74.5 423,-74.5 423,-44.5 304,-44.5"/>
<text text-anchor="start" x="312" y="-62.5" font-family="Helvetica,sans-Serif" font-size="10.00">blitzdg::CSVFileReader</text>
<text text-anchor="middle" x="363.5" y="-51.5" font-family="Helvetica,sans-Serif" font-size="10.00">::readLine</text>
</a>
</g>
</g>
<!-- Node1&#45;&gt;Node4 -->
<g id="edge3" class="edge"><title>Node1&#45;&gt;Node4</title>
<path fill="none" stroke="midnightblue" d="M113.253,-92.3469C155.888,-95.601 215.99,-97.5574 268,-89.5 283.341,-87.1234 299.602,-82.6979 314.23,-77.9622"/>
<polygon fill="midnightblue" stroke="midnightblue" points="315.701,-81.16 324.065,-74.6554 313.471,-74.525 315.701,-81.16"/>
</g>
<!-- Node5 -->
<g id="node5" class="node"><title>Node5</title>
<g id="a_node5"><a xlink:href="classblitzdg_1_1CSVFileReader.html#a4858a10efd4dd5889d4ac26a0c86699a" target="_top" xlink:title="Set the number of columns expected on a line, overriding what was counted during initial file scan.">
<polygon fill="white" stroke="black" points="149,-49.5 149,-79.5 268,-79.5 268,-49.5 149,-49.5"/>
<text text-anchor="start" x="157" y="-67.5" font-family="Helvetica,sans-Serif" font-size="10.00">blitzdg::CSVFileReader</text>
<text text-anchor="middle" x="208.5" y="-56.5" font-family="Helvetica,sans-Serif" font-size="10.00">::setNumCols</text>
</a>
</g>
</g>
<!-- Node1&#45;&gt;Node5 -->
<g id="edge4" class="edge"><title>Node1&#45;&gt;Node5</title>
<path fill="none" stroke="midnightblue" d="M113.354,-78.308C121.676,-77.0875 130.335,-75.8175 138.882,-74.5639"/>
<polygon fill="midnightblue" stroke="midnightblue" points="139.452,-78.0179 148.838,-73.1037 138.436,-71.092 139.452,-78.0179"/>
</g>
<!-- Node6 -->
<g id="node6" class="node"><title>Node6</title>
<g id="a_node6"><a xlink:href="classblitzdg_1_1CSVFileReader.html#ae66738da8dc330360f4f50075f3c23b0" target="_top" xlink:title="Skips the file stream ahead by n lines or until the end&#45;of&#45;file is reached.">
<polygon fill="white" stroke="black" points="149,-0.5 149,-30.5 268,-30.5 268,-0.5 149,-0.5"/>
<text text-anchor="start" x="157" y="-18.5" font-family="Helvetica,sans-Serif" font-size="10.00">blitzdg::CSVFileReader</text>
<text text-anchor="middle" x="208.5" y="-7.5" font-family="Helvetica,sans-Serif" font-size="10.00">::skipLines</text>
</a>
</g>
</g>
<!-- Node1&#45;&gt;Node6 -->
<g id="edge5" class="edge"><title>Node1&#45;&gt;Node6</title>
<path fill="none" stroke="midnightblue" d="M85.2282,-71.4765C103.216,-61.9254 127.267,-49.5176 149,-39.5 152.598,-37.8413 156.345,-36.1733 160.126,-34.5315"/>
<polygon fill="midnightblue" stroke="midnightblue" points="161.705,-37.6636 169.534,-30.5248 158.962,-31.2234 161.705,-37.6636"/>
</g>
<!-- Node3 -->
<g id="node3" class="node"><title>Node3</title>
<g id="a_node3"><a xlink:href="classblitzdg_1_1CSVFileReader.html#a8ea6c4ae955e400b5bb55851cd775f5f" target="_top" xlink:title="Parses a line into string tokens based on the delimiter sequence.">
<polygon fill="white" stroke="black" points="304,-137.5 304,-167.5 423,-167.5 423,-137.5 304,-137.5"/>
<text text-anchor="start" x="312" y="-155.5" font-family="Helvetica,sans-Serif" font-size="10.00">blitzdg::CSVFileReader</text>
<text text-anchor="middle" x="363.5" y="-144.5" font-family="Helvetica,sans-Serif" font-size="10.00">::tokenizeLine</text>
</a>
</g>
</g>
<!-- Node2&#45;&gt;Node3 -->
<g id="edge2" class="edge"><title>Node2&#45;&gt;Node3</title>
<path fill="none" stroke="midnightblue" d="M268.216,-152.5C276.544,-152.5 285.169,-152.5 293.667,-152.5"/>
<polygon fill="midnightblue" stroke="midnightblue" points="293.941,-156 303.941,-152.5 293.941,-149 293.941,-156"/>
</g>
<!-- Node6&#45;&gt;Node4 -->
<g id="edge6" class="edge"><title>Node6&#45;&gt;Node4</title>
<path fill="none" stroke="midnightblue" d="M261.726,-30.5192C274.212,-34.11 287.661,-37.9776 300.539,-41.681"/>
<polygon fill="midnightblue" stroke="midnightblue" points="299.672,-45.0736 310.25,-44.4738 301.607,-38.3463 299.672,-45.0736"/>
</g>
</g>
</svg>
