<?xml version="1.0" encoding="UTF-8" standalone="no"?>
<!DOCTYPE svg PUBLIC "-//W3C//DTD SVG 1.1//EN"
 "http://www.w3.org/Graphics/SVG/1.1/DTD/svg11.dtd">
<!-- Generated by graphviz version 2.38.0 (20140413.2041)
 -->
<!-- Title: blitzdg::Nodes1DProvisioner::buildNodes Pages: 1 -->
<svg width="856pt" height="139pt"
 viewBox="0.00 0.00 856.00 138.50" xmlns="http://www.w3.org/2000/svg" xmlns:xlink="http://www.w3.org/1999/xlink">
<g id="graph0" class="graph" transform="scale(1 1) rotate(0) translate(4 134.5)">
<title>blitzdg::Nodes1DProvisioner::buildNodes</title>
<polygon fill="white" stroke="none" points="-4,4 -4,-134.5 852,-134.5 852,4 -4,4"/>
<!-- Node1 -->
<g id="node1" class="node"><title>Node1</title>
<g id="a_node1"><a xlink:title="Builds the nodes and all geometric factors for each element.">
<polygon fill="#bfbfbf" stroke="black" points="0,-73.5 0,-103.5 141,-103.5 141,-73.5 0,-73.5"/>
<text text-anchor="start" x="8" y="-91.5" font-family="Helvetica,sans-Serif" font-size="10.00">blitzdg::Nodes1DProvisioner</text>
<text text-anchor="middle" x="70.5" y="-80.5" font-family="Helvetica,sans-Serif" font-size="10.00">::buildNodes</text>
</a>
</g>
</g>
<!-- Node2 -->
<g id="node2" class="node"><title>Node2</title>
<g id="a_node2"><a xlink:href="classblitzdg_1_1JacobiBuilders.html#a8b85322f52325c7efe38e2c27cb25292" target="_top" xlink:title="Computes the nodes of the Nth order Gauss&#45;Jacobi&#45;Lobotto quadrature rule with parameters &#160;and .">
<polygon fill="white" stroke="black" points="177,-96.5 177,-126.5 326,-126.5 326,-96.5 177,-96.5"/>
<text text-anchor="start" x="185" y="-114.5" font-family="Helvetica,sans-Serif" font-size="10.00">blitzdg::JacobiBuilders</text>
<text text-anchor="middle" x="251.5" y="-103.5" font-family="Helvetica,sans-Serif" font-size="10.00">::computeGaussLobottoPoints</text>
</a>
</g>
</g>
<!-- Node1&#45;&gt;Node2 -->
<g id="edge1" class="edge"><title>Node1&#45;&gt;Node2</title>
<path fill="none" stroke="midnightblue" d="M141.219,-97.4583C149.615,-98.5371 158.255,-99.6473 166.824,-100.748"/>
<polygon fill="midnightblue" stroke="midnightblue" points="166.468,-104.231 176.832,-102.034 167.36,-97.2883 166.468,-104.231"/>
</g>
<!-- Node7 -->
<g id="node7" class="node"><title>Node7</title>
<g id="a_node7"><a xlink:href="classblitzdg_1_1VandermondeBuilders.html#af1b51b21a630ecefbe8f001cbbcf00d1" target="_top" xlink:title="Computes the Vandermonde matrix which maps modal coefficients to nodal values.">
<polygon fill="white" stroke="black" points="362.5,-49.5 362.5,-79.5 509.5,-79.5 509.5,-49.5 362.5,-49.5"/>
<text text-anchor="start" x="370.5" y="-67.5" font-family="Helvetica,sans-Serif" font-size="10.00">blitzdg::VandermondeBuilders</text>
<text text-anchor="middle" x="436" y="-56.5" font-family="Helvetica,sans-Serif" font-size="10.00">::computeVandermondeMatrix</text>
</a>
</g>
</g>
<!-- Node1&#45;&gt;Node7 -->
<g id="edge8" class="edge"><title>Node1&#45;&gt;Node7</title>
<path fill="none" stroke="midnightblue" d="M141.156,-83.901C201.426,-79.9217 288.676,-74.161 352.442,-69.9508"/>
<polygon fill="midnightblue" stroke="midnightblue" points="352.72,-73.4403 362.467,-69.289 352.258,-66.4555 352.72,-73.4403"/>
</g>
<!-- Node3 -->
<g id="node3" class="node"><title>Node3</title>
<g id="a_node3"><a xlink:href="classblitzdg_1_1JacobiBuilders.html#a6c06c7134e69c90790fe33e18dbd98a2" target="_top" xlink:title="Computes the nodes and weights of the Nth order Gauss&#45;Jacobi&#45;Lobotto quadrature rule with parameters ...">
<polygon fill="white" stroke="black" points="362,-98.5 362,-128.5 510,-128.5 510,-98.5 362,-98.5"/>
<text text-anchor="start" x="370" y="-116.5" font-family="Helvetica,sans-Serif" font-size="10.00">blitzdg::JacobiBuilders</text>
<text text-anchor="middle" x="436" y="-105.5" font-family="Helvetica,sans-Serif" font-size="10.00">::computeJacobiQuadWeights</text>
</a>
</g>
</g>
<!-- Node2&#45;&gt;Node3 -->
<g id="edge2" class="edge"><title>Node2&#45;&gt;Node3</title>
<path fill="none" stroke="midnightblue" d="M326.204,-112.308C334.665,-112.4 343.336,-112.495 351.909,-112.589"/>
<polygon fill="midnightblue" stroke="midnightblue" points="351.873,-116.089 361.911,-112.699 351.95,-109.09 351.873,-116.089"/>
</g>
<!-- Node4 -->
<g id="node4" class="node"><title>Node4</title>
<g id="a_node4"><a xlink:href="classblitzdg_1_1EigenSolver.html#a67242ffc3a849bd20a497ae100b78495" target="_top" xlink:title="Computes the eigenvalues and eigenvectors of the symmetric matrix .">
<polygon fill="white" stroke="black" points="564,-98.5 564,-128.5 668,-128.5 668,-98.5 564,-98.5"/>
<text text-anchor="start" x="572" y="-116.5" font-family="Helvetica,sans-Serif" font-size="10.00">blitzdg::EigenSolver</text>
<text text-anchor="middle" x="616" y="-105.5" font-family="Helvetica,sans-Serif" font-size="10.00">::solve</text>
</a>
</g>
</g>
<!-- Node3&#45;&gt;Node4 -->
<g id="edge3" class="edge"><title>Node3&#45;&gt;Node4</title>
<path fill="none" stroke="midnightblue" d="M510.17,-113.5C524.676,-113.5 539.762,-113.5 553.818,-113.5"/>
<polygon fill="midnightblue" stroke="midnightblue" points="553.849,-117 563.849,-113.5 553.849,-110 553.849,-117"/>
</g>
<!-- Node5 -->
<g id="node5" class="node"><title>Node5</title>
<g id="a_node5"><a xlink:href="BlitzHelpers_8hpp.html#a2b714b6a07df67f99846579b713a1581" target="_top" xlink:title="Reshapes an array to a dense matrix.">
<polygon fill="white" stroke="black" points="722,-93 722,-112 848,-112 848,-93 722,-93"/>
<text text-anchor="middle" x="785" y="-100" font-family="Helvetica,sans-Serif" font-size="10.00">blitzdg::reshape1DToMat</text>
</a>
</g>
</g>
<!-- Node4&#45;&gt;Node5 -->
<g id="edge4" class="edge"><title>Node4&#45;&gt;Node5</title>
<path fill="none" stroke="midnightblue" d="M668.013,-110.14C681.808,-109.231 697.004,-108.23 711.726,-107.261"/>
<polygon fill="midnightblue" stroke="midnightblue" points="712.071,-110.746 721.819,-106.596 711.611,-103.761 712.071,-110.746"/>
</g>
<!-- Node6 -->
<g id="node6" class="node"><title>Node6</title>
<g id="a_node6"><a xlink:href="BlitzHelpers_8hpp.html#aaa66bfe8cd7c9adad27aa42f765c980b" target="_top" xlink:title="Vectorizes a dense matrix by writing it to an array.">
<polygon fill="white" stroke="black" points="722,-27 722,-46 848,-46 848,-27 722,-27"/>
<text text-anchor="middle" x="785" y="-34" font-family="Helvetica,sans-Serif" font-size="10.00">blitzdg::reshapeMatTo1D</text>
</a>
</g>
</g>
<!-- Node4&#45;&gt;Node6 -->
<g id="edge6" class="edge"><title>Node4&#45;&gt;Node6</title>
<path fill="none" stroke="midnightblue" d="M661.536,-98.4037C669.753,-95.3259 678.197,-91.9631 686,-88.5 711.417,-77.219 739.335,-62.1233 758.849,-51.1035"/>
<polygon fill="midnightblue" stroke="midnightblue" points="760.75,-54.0482 767.705,-46.0558 757.284,-47.9666 760.75,-54.0482"/>
</g>
<!-- Node5&#45;&gt;Node5 -->
<g id="edge5" class="edge"><title>Node5&#45;&gt;Node5</title>
<path fill="none" stroke="midnightblue" d="M759.106,-112.257C746.509,-121.065 755.141,-130.5 785,-130.5 805.062,-130.5 815.541,-126.241 816.437,-120.775"/>
<polygon fill="midnightblue" stroke="midnightblue" points="819.282,-118.729 810.894,-112.257 813.415,-122.548 819.282,-118.729"/>
</g>
<!-- Node6&#45;&gt;Node6 -->
<g id="edge7" class="edge"><title>Node6&#45;&gt;Node6</title>
<path fill="none" stroke="midnightblue" d="M759.106,-46.2571C746.509,-55.0653 755.141,-64.5 785,-64.5 805.062,-64.5 815.541,-60.241 816.437,-54.7746"/>
<polygon fill="midnightblue" stroke="midnightblue" points="819.282,-52.7291 810.894,-46.2571 813.415,-56.5475 819.282,-52.7291"/>
</g>
<!-- Node8 -->
<g id="node8" class="node"><title>Node8</title>
<g id="a_node8"><a xlink:href="classblitzdg_1_1DenseMatrixInverter.html#abc5fdde2a78d073764d11cb3b1bdae47" target="_top" xlink:title="Inverts the dense matrix .">
<polygon fill="white" stroke="black" points="546,-0.5 546,-30.5 686,-30.5 686,-0.5 546,-0.5"/>
<text text-anchor="start" x="554" y="-18.5" font-family="Helvetica,sans-Serif" font-size="10.00">blitzdg::DenseMatrixInverter</text>
<text text-anchor="middle" x="616" y="-7.5" font-family="Helvetica,sans-Serif" font-size="10.00">::computeInverse</text>
</a>
</g>
</g>
<!-- Node7&#45;&gt;Node8 -->
<g id="edge9" class="edge"><title>Node7&#45;&gt;Node8</title>
<path fill="none" stroke="midnightblue" d="M491.858,-49.3986C510.386,-44.2981 531.242,-38.5571 550.45,-33.2695"/>
<polygon fill="midnightblue" stroke="midnightblue" points="551.61,-36.5802 560.323,-30.5516 549.753,-29.8313 551.61,-36.5802"/>
</g>
<!-- Node9 -->
<g id="node9" class="node"><title>Node9</title>
<g id="a_node9"><a xlink:href="classblitzdg_1_1JacobiBuilders.html#a629c1bda92b2b4414c5ef22ccd6d25ce" target="_top" xlink:title="Computes the value of the Nth order Jacobi polynomial with parameters &#160;and &#160;at each point in the inpu...">
<polygon fill="white" stroke="black" points="547.5,-49.5 547.5,-79.5 684.5,-79.5 684.5,-49.5 547.5,-49.5"/>
<text text-anchor="start" x="555.5" y="-67.5" font-family="Helvetica,sans-Serif" font-size="10.00">blitzdg::JacobiBuilders</text>
<text text-anchor="middle" x="616" y="-56.5" font-family="Helvetica,sans-Serif" font-size="10.00">::computeJacobiPolynomial</text>
</a>
</g>
</g>
<!-- Node7&#45;&gt;Node9 -->
<g id="edge12" class="edge"><title>Node7&#45;&gt;Node9</title>
<path fill="none" stroke="midnightblue" d="M509.656,-64.5C518.736,-64.5 528.051,-64.5 537.205,-64.5"/>
<polygon fill="midnightblue" stroke="midnightblue" points="537.451,-68.0001 547.451,-64.5 537.451,-61.0001 537.451,-68.0001"/>
</g>
<!-- Node8&#45;&gt;Node5 -->
<g id="edge10" class="edge"><title>Node8&#45;&gt;Node5</title>
<path fill="none" stroke="midnightblue" d="M668.24,-30.5626C674.407,-33.17 680.471,-36.1423 686,-39.5 704.811,-50.9241 703.801,-61.1248 722,-73.5 730.46,-79.2528 740.242,-84.4161 749.5,-88.7358"/>
<polygon fill="midnightblue" stroke="midnightblue" points="748.322,-92.0429 758.881,-92.9213 751.175,-85.6503 748.322,-92.0429"/>
</g>
<!-- Node8&#45;&gt;Node6 -->
<g id="edge11" class="edge"><title>Node8&#45;&gt;Node6</title>
<path fill="none" stroke="midnightblue" d="M686.372,-24.2235C694.718,-25.273 703.258,-26.3469 711.646,-27.4016"/>
<polygon fill="midnightblue" stroke="midnightblue" points="711.419,-30.9005 721.777,-28.6756 712.292,-23.9552 711.419,-30.9005"/>
</g>
</g>
</svg>
