<?xml version="1.0" encoding="UTF-8" standalone="no"?>
<!DOCTYPE svg PUBLIC "-//W3C//DTD SVG 1.1//EN"
 "http://www.w3.org/Graphics/SVG/1.1/DTD/svg11.dtd">
<!-- Generated by graphviz version 2.38.0 (20140413.2041)
 -->
<!-- Title: blitzdg::EigenSolver::solve Pages: 1 -->
<svg width="274pt" height="102pt"
 viewBox="0.00 0.00 274.00 102.00" xmlns="http://www.w3.org/2000/svg" xmlns:xlink="http://www.w3.org/1999/xlink">
<g id="graph0" class="graph" transform="scale(1 1) rotate(0) translate(4 98)">
<title>blitzdg::EigenSolver::solve</title>
<polygon fill="white" stroke="none" points="-4,4 -4,-98 270,-98 270,4 -4,4"/>
<!-- Node1 -->
<g id="node1" class="node"><title>Node1</title>
<g id="a_node1"><a xlink:title="Computes the eigenvalues and eigenvectors of the symmetric matrix .">
<polygon fill="#bfbfbf" stroke="black" points="0,-23 0,-53 104,-53 104,-23 0,-23"/>
<text text-anchor="start" x="8" y="-41" font-family="Helvetica,sans-Serif" font-size="10.00">blitzdg::EigenSolver</text>
<text text-anchor="middle" x="52" y="-30" font-family="Helvetica,sans-Serif" font-size="10.00">::solve</text>
</a>
</g>
</g>
<!-- Node2 -->
<g id="node2" class="node"><title>Node2</title>
<g id="a_node2"><a xlink:href="BlitzHelpers_8hpp.html#a2b714b6a07df67f99846579b713a1581" target="_top" xlink:title="Reshapes an array to a dense matrix.">
<polygon fill="white" stroke="black" points="140,-56.5 140,-75.5 266,-75.5 266,-56.5 140,-56.5"/>
<text text-anchor="middle" x="203" y="-63.5" font-family="Helvetica,sans-Serif" font-size="10.00">blitzdg::reshape1DToMat</text>
</a>
</g>
</g>
<!-- Node1&#45;&gt;Node2 -->
<g id="edge1" class="edge"><title>Node1&#45;&gt;Node2</title>
<path fill="none" stroke="midnightblue" d="M104.277,-47.636C116.181,-49.8729 128.963,-52.275 141.231,-54.5804"/>
<polygon fill="midnightblue" stroke="midnightblue" points="140.91,-58.0813 151.385,-56.4884 142.203,-51.2017 140.91,-58.0813"/>
</g>
<!-- Node3 -->
<g id="node3" class="node"><title>Node3</title>
<g id="a_node3"><a xlink:href="BlitzHelpers_8hpp.html#aaa66bfe8cd7c9adad27aa42f765c980b" target="_top" xlink:title="Vectorizes a dense matrix by writing it to an array.">
<polygon fill="white" stroke="black" points="140,-0.5 140,-19.5 266,-19.5 266,-0.5 140,-0.5"/>
<text text-anchor="middle" x="203" y="-7.5" font-family="Helvetica,sans-Serif" font-size="10.00">blitzdg::reshapeMatTo1D</text>
</a>
</g>
</g>
<!-- Node1&#45;&gt;Node3 -->
<g id="edge3" class="edge"><title>Node1&#45;&gt;Node3</title>
<path fill="none" stroke="midnightblue" d="M104.277,-28.364C116.181,-26.1271 128.963,-23.725 141.231,-21.4196"/>
<polygon fill="midnightblue" stroke="midnightblue" points="142.203,-24.7983 151.385,-19.5116 140.91,-17.9187 142.203,-24.7983"/>
</g>
<!-- Node2&#45;&gt;Node2 -->
<g id="edge2" class="edge"><title>Node2&#45;&gt;Node2</title>
<path fill="none" stroke="midnightblue" d="M179.881,-75.7571C168.633,-84.5653 176.34,-94 203,-94 220.496,-94 229.829,-89.9368 230.999,-84.6539"/>
<polygon fill="midnightblue" stroke="midnightblue" points="233.997,-82.8417 226.119,-75.7571 227.86,-86.208 233.997,-82.8417"/>
</g>
<!-- Node3&#45;&gt;Node3 -->
<g id="edge4" class="edge"><title>Node3&#45;&gt;Node3</title>
<path fill="none" stroke="midnightblue" d="M179.881,-19.7571C168.633,-28.5653 176.34,-38 203,-38 220.496,-38 229.829,-33.9368 230.999,-28.6539"/>
<polygon fill="midnightblue" stroke="midnightblue" points="233.997,-26.8417 226.119,-19.7571 227.86,-30.208 233.997,-26.8417"/>
</g>
</g>
</svg>
