<?xml version="1.0" encoding="UTF-8" standalone="no"?>
<!DOCTYPE svg PUBLIC "-//W3C//DTD SVG 1.1//EN"
 "http://www.w3.org/Graphics/SVG/1.1/DTD/svg11.dtd">
<!-- Generated by graphviz version 2.38.0 (20140413.2041)
 -->
<!-- Title: blitzdg::JacobiBuilders::computeJacobiQuadWeights Pages: 1 -->
<svg width="938pt" height="88pt"
 viewBox="0.00 0.00 938.00 88.00" xmlns="http://www.w3.org/2000/svg" xmlns:xlink="http://www.w3.org/1999/xlink">
<g id="graph0" class="graph" transform="scale(1 1) rotate(0) translate(4 84)">
<title>blitzdg::JacobiBuilders::computeJacobiQuadWeights</title>
<polygon fill="white" stroke="none" points="-4,4 -4,-84 934,-84 934,4 -4,4"/>
<!-- Node1 -->
<g id="node1" class="node"><title>Node1</title>
<g id="a_node1"><a xlink:title="Computes the nodes and weights of the Nth order Gauss&#45;Jacobi&#45;Lobotto quadrature rule with parameters ...">
<polygon fill="#bfbfbf" stroke="black" points="782,-24.5 782,-54.5 930,-54.5 930,-24.5 782,-24.5"/>
<text text-anchor="start" x="790" y="-42.5" font-family="Helvetica,sans-Serif" font-size="10.00">blitzdg::JacobiBuilders</text>
<text text-anchor="middle" x="856" y="-31.5" font-family="Helvetica,sans-Serif" font-size="10.00">::computeJacobiQuadWeights</text>
</a>
</g>
</g>
<!-- Node2 -->
<g id="node2" class="node"><title>Node2</title>
<g id="a_node2"><a xlink:href="classblitzdg_1_1JacobiBuilders.html#a8b85322f52325c7efe38e2c27cb25292" target="_top" xlink:title="Computes the nodes of the Nth order Gauss&#45;Jacobi&#45;Lobotto quadrature rule with parameters &#160;and .">
<polygon fill="white" stroke="black" points="597,-24.5 597,-54.5 746,-54.5 746,-24.5 597,-24.5"/>
<text text-anchor="start" x="605" y="-42.5" font-family="Helvetica,sans-Serif" font-size="10.00">blitzdg::JacobiBuilders</text>
<text text-anchor="middle" x="671.5" y="-31.5" font-family="Helvetica,sans-Serif" font-size="10.00">::computeGaussLobottoPoints</text>
</a>
</g>
</g>
<!-- Node1&#45;&gt;Node2 -->
<g id="edge1" class="edge"><title>Node1&#45;&gt;Node2</title>
<path fill="none" stroke="midnightblue" d="M771.59,-39.5C763.15,-39.5 754.619,-39.5 746.29,-39.5"/>
<polygon fill="midnightblue" stroke="midnightblue" points="771.822,-43.0001 781.822,-39.5 771.822,-36.0001 771.822,-43.0001"/>
</g>
<!-- Node3 -->
<g id="node3" class="node"><title>Node3</title>
<g id="a_node3"><a xlink:href="classblitzdg_1_1Nodes1DProvisioner.html#abe2340db4af5d25b8b0c5ada270fce5c" target="_top" xlink:title="Builds the nodes and all geometric factors for each element.">
<polygon fill="white" stroke="black" points="409,-49.5 409,-79.5 550,-79.5 550,-49.5 409,-49.5"/>
<text text-anchor="start" x="417" y="-67.5" font-family="Helvetica,sans-Serif" font-size="10.00">blitzdg::Nodes1DProvisioner</text>
<text text-anchor="middle" x="479.5" y="-56.5" font-family="Helvetica,sans-Serif" font-size="10.00">::buildNodes</text>
</a>
</g>
</g>
<!-- Node2&#45;&gt;Node3 -->
<g id="edge2" class="edge"><title>Node2&#45;&gt;Node3</title>
<path fill="none" stroke="midnightblue" d="M586.612,-50.5379C574.43,-52.1407 562.001,-53.7761 550.141,-55.3367"/>
<polygon fill="midnightblue" stroke="midnightblue" points="587.311,-53.9762 596.769,-49.2014 586.398,-47.036 587.311,-53.9762"/>
</g>
<!-- Node4 -->
<g id="node4" class="node"><title>Node4</title>
<g id="a_node4"><a xlink:href="classblitzdg_1_1TriangleNodesProvisioner.html#a765fd7c797f8d1947d791f64d7b04270" target="_top" xlink:title="Computes geometric warp function for interior nodes.">
<polygon fill="white" stroke="black" points="398,-0.5 398,-30.5 561,-30.5 561,-0.5 398,-0.5"/>
<text text-anchor="start" x="406" y="-18.5" font-family="Helvetica,sans-Serif" font-size="10.00">blitzdg::TriangleNodesProvisioner</text>
<text text-anchor="middle" x="479.5" y="-7.5" font-family="Helvetica,sans-Serif" font-size="10.00">::computeWarpFactor</text>
</a>
</g>
</g>
<!-- Node2&#45;&gt;Node4 -->
<g id="edge3" class="edge"><title>Node2&#45;&gt;Node4</title>
<path fill="none" stroke="midnightblue" d="M586.821,-28.93C578.284,-27.8517 569.623,-26.7577 561.12,-25.6836"/>
<polygon fill="midnightblue" stroke="midnightblue" points="586.409,-32.4057 596.769,-30.1866 587.287,-25.4609 586.409,-32.4057"/>
</g>
<!-- Node5 -->
<g id="node5" class="node"><title>Node5</title>
<g id="a_node5"><a xlink:href="classblitzdg_1_1TriangleNodesProvisioner.html#acc359d3edf261edc8c5396d747f5b06c" target="_top" xlink:title="Compute (x,y) nodes in equilateral triangle for polynomial of order N.">
<polygon fill="white" stroke="black" points="199,-0.5 199,-30.5 362,-30.5 362,-0.5 199,-0.5"/>
<text text-anchor="start" x="207" y="-18.5" font-family="Helvetica,sans-Serif" font-size="10.00">blitzdg::TriangleNodesProvisioner</text>
<text text-anchor="middle" x="280.5" y="-7.5" font-family="Helvetica,sans-Serif" font-size="10.00">::computeEquilateralNodes</text>
</a>
</g>
</g>
<!-- Node4&#45;&gt;Node5 -->
<g id="edge4" class="edge"><title>Node4&#45;&gt;Node5</title>
<path fill="none" stroke="midnightblue" d="M387.785,-15.5C379.205,-15.5 370.546,-15.5 362.07,-15.5"/>
<polygon fill="midnightblue" stroke="midnightblue" points="387.804,-19.0001 397.804,-15.5 387.804,-12.0001 387.804,-19.0001"/>
</g>
<!-- Node6 -->
<g id="node6" class="node"><title>Node6</title>
<g id="a_node6"><a xlink:href="classblitzdg_1_1TriangleNodesProvisioner.html#a07a0a9e0808ee63eb8259212aff90518" target="_top" xlink:title="Builds nodes and local operators.">
<polygon fill="white" stroke="black" points="0,-0.5 0,-30.5 163,-30.5 163,-0.5 0,-0.5"/>
<text text-anchor="start" x="8" y="-18.5" font-family="Helvetica,sans-Serif" font-size="10.00">blitzdg::TriangleNodesProvisioner</text>
<text text-anchor="middle" x="81.5" y="-7.5" font-family="Helvetica,sans-Serif" font-size="10.00">::buildNodes</text>
</a>
</g>
</g>
<!-- Node5&#45;&gt;Node6 -->
<g id="edge5" class="edge"><title>Node5&#45;&gt;Node6</title>
<path fill="none" stroke="midnightblue" d="M188.785,-15.5C180.205,-15.5 171.546,-15.5 163.07,-15.5"/>
<polygon fill="midnightblue" stroke="midnightblue" points="188.804,-19.0001 198.804,-15.5 188.804,-12.0001 188.804,-19.0001"/>
</g>
</g>
</svg>
