<?xml version="1.0" encoding="UTF-8" standalone="no"?>
<!DOCTYPE svg PUBLIC "-//W3C//DTD SVG 1.1//EN"
 "http://www.w3.org/Graphics/SVG/1.1/DTD/svg11.dtd">
<!-- Generated by graphviz version 2.38.0 (20140413.2041)
 -->
<!-- Title: blitzdg::CSCMat::colPtrs Pages: 1 -->
<svg width="417pt" height="127pt"
 viewBox="0.00 0.00 417.00 127.00" xmlns="http://www.w3.org/2000/svg" xmlns:xlink="http://www.w3.org/1999/xlink">
<g id="graph0" class="graph" transform="scale(1 1) rotate(0) translate(4 123)">
<title>blitzdg::CSCMat::colPtrs</title>
<polygon fill="white" stroke="none" points="-4,4 -4,-123 413,-123 413,4 -4,4"/>
<!-- Node1 -->
<g id="node1" class="node"><title>Node1</title>
<g id="a_node1"><a xlink:title="Provides read&#45;write access to the kth column pointer index.">
<polygon fill="#bfbfbf" stroke="black" points="283,-50 283,-69 409,-69 409,-50 283,-50"/>
<text text-anchor="middle" x="346" y="-57" font-family="Helvetica,sans-Serif" font-size="10.00">blitzdg::CSCMat::colPtrs</text>
</a>
</g>
</g>
<!-- Node2 -->
<g id="node2" class="node"><title>Node2</title>
<g id="a_node2"><a xlink:href="classblitzdg_1_1MeshManager.html#a45ae7ee8dac8fea878d0546cd5e78e10" target="_top" xlink:title="Build EToE and EToF connectivity tables.">
<polygon fill="white" stroke="black" points="134,-88.5 134,-118.5 247,-118.5 247,-88.5 134,-88.5"/>
<text text-anchor="start" x="142" y="-106.5" font-family="Helvetica,sans-Serif" font-size="10.00">blitzdg::MeshManager</text>
<text text-anchor="middle" x="190.5" y="-95.5" font-family="Helvetica,sans-Serif" font-size="10.00">::buildConnectivity</text>
</a>
</g>
</g>
<!-- Node1&#45;&gt;Node2 -->
<g id="edge1" class="edge"><title>Node1&#45;&gt;Node2</title>
<path fill="none" stroke="midnightblue" d="M302.049,-71.8118C284.056,-76.9694 262.966,-83.0148 244.058,-88.4346"/>
<polygon fill="midnightblue" stroke="midnightblue" points="303.044,-75.1674 311.693,-69.0473 301.115,-68.4384 303.044,-75.1674"/>
</g>
<!-- Node3 -->
<g id="node3" class="node"><title>Node3</title>
<g id="a_node3"><a xlink:href="CSCMatrix_8hpp.html#af412eb6a8ef06ec7d2e74abecc595962" target="_top" xlink:title="Writes the CSC matrix to the output stream in coordinate format (i, j, elem).">
<polygon fill="white" stroke="black" points="141.5,-50 141.5,-69 239.5,-69 239.5,-50 141.5,-50"/>
<text text-anchor="middle" x="190.5" y="-57" font-family="Helvetica,sans-Serif" font-size="10.00">blitzdg::operator&lt;&lt;</text>
</a>
</g>
</g>
<!-- Node1&#45;&gt;Node3 -->
<g id="edge2" class="edge"><title>Node1&#45;&gt;Node3</title>
<path fill="none" stroke="midnightblue" d="M272.441,-59.5C261.352,-59.5 250.146,-59.5 239.752,-59.5"/>
<polygon fill="midnightblue" stroke="midnightblue" points="272.566,-63.0001 282.566,-59.5 272.566,-56.0001 272.566,-63.0001"/>
</g>
<!-- Node5 -->
<g id="node5" class="node"><title>Node5</title>
<g id="a_node5"><a xlink:href="classblitzdg_1_1LUSolver.html#aeea8b9d3caa010c198cbc6e1bd0837fc" target="_top" xlink:title="Solves the linear system A*soln = rhs.">
<polygon fill="white" stroke="black" points="141.5,-0.5 141.5,-30.5 239.5,-30.5 239.5,-0.5 141.5,-0.5"/>
<text text-anchor="start" x="149.5" y="-18.5" font-family="Helvetica,sans-Serif" font-size="10.00">blitzdg::LUSolver::</text>
<text text-anchor="middle" x="190.5" y="-7.5" font-family="Helvetica,sans-Serif" font-size="10.00">solve</text>
</a>
</g>
</g>
<!-- Node1&#45;&gt;Node5 -->
<g id="edge4" class="edge"><title>Node1&#45;&gt;Node5</title>
<path fill="none" stroke="midnightblue" d="M301.913,-47.1492C282.52,-41.5904 259.552,-35.0067 239.6,-29.2875"/>
<polygon fill="midnightblue" stroke="midnightblue" points="301.115,-50.5616 311.693,-49.9527 303.044,-43.8326 301.115,-50.5616"/>
</g>
<!-- Node4 -->
<g id="node4" class="node"><title>Node4</title>
<g id="a_node4"><a xlink:href="GMRESSolver_8hpp.html#afcef465b1811e1a58461f319ff1c353c" target="_top" xlink:title="Write a ConvFlag to an output stream.">
<polygon fill="white" stroke="black" points="-7.10543e-15,-50 -7.10543e-15,-69 98,-69 98,-50 -7.10543e-15,-50"/>
<text text-anchor="middle" x="49" y="-57" font-family="Helvetica,sans-Serif" font-size="10.00">blitzdg::operator&lt;&lt;</text>
</a>
</g>
</g>
<!-- Node3&#45;&gt;Node4 -->
<g id="edge3" class="edge"><title>Node3&#45;&gt;Node4</title>
<path fill="none" stroke="midnightblue" d="M131.447,-59.5C120.347,-59.5 108.841,-59.5 98.0965,-59.5"/>
<polygon fill="midnightblue" stroke="midnightblue" points="131.492,-63.0001 141.492,-59.5 131.492,-56.0001 131.492,-63.0001"/>
</g>
</g>
</svg>
