<?xml version="1.0" encoding="UTF-8" standalone="no"?>
<!DOCTYPE svg PUBLIC "-//W3C//DTD SVG 1.1//EN"
 "http://www.w3.org/Graphics/SVG/1.1/DTD/svg11.dtd">
<!-- Generated by graphviz version 2.38.0 (20140413.2041)
 -->
<!-- Title: blitzdg::JacobiBuilders::computeJacobiPolynomial Pages: 1 -->
<svg width="946pt" height="228pt"
 viewBox="0.00 0.00 946.00 228.00" xmlns="http://www.w3.org/2000/svg" xmlns:xlink="http://www.w3.org/1999/xlink">
<g id="graph0" class="graph" transform="scale(1 1) rotate(0) translate(4 224)">
<title>blitzdg::JacobiBuilders::computeJacobiPolynomial</title>
<polygon fill="white" stroke="none" points="-4,4 -4,-224 942,-224 942,4 -4,4"/>
<!-- Node1 -->
<g id="node1" class="node"><title>Node1</title>
<g id="a_node1"><a xlink:title="Computes the value of the Nth order Jacobi polynomial with parameters &#160;and &#160;at each point in the inpu...">
<polygon fill="#bfbfbf" stroke="black" points="801,-95.5 801,-125.5 938,-125.5 938,-95.5 801,-95.5"/>
<text text-anchor="start" x="809" y="-113.5" font-family="Helvetica,sans-Serif" font-size="10.00">blitzdg::JacobiBuilders</text>
<text text-anchor="middle" x="869.5" y="-102.5" font-family="Helvetica,sans-Serif" font-size="10.00">::computeJacobiPolynomial</text>
</a>
</g>
</g>
<!-- Node2 -->
<g id="node2" class="node"><title>Node2</title>
<g id="a_node2"><a xlink:href="classblitzdg_1_1JacobiBuilders.html#a7e4e8d22f83e71108552a213439bb186" target="_top" xlink:title="Computes the first derivative of the Nth order Jacobi polynomial with parameters &#160;and &#160;at each point ...">
<polygon fill="white" stroke="black" points="626,-139.5 626,-169.5 741,-169.5 741,-139.5 626,-139.5"/>
<text text-anchor="start" x="634" y="-157.5" font-family="Helvetica,sans-Serif" font-size="10.00">blitzdg::JacobiBuilders</text>
<text text-anchor="middle" x="683.5" y="-146.5" font-family="Helvetica,sans-Serif" font-size="10.00">::computeGradJacobi</text>
</a>
</g>
</g>
<!-- Node1&#45;&gt;Node2 -->
<g id="edge1" class="edge"><title>Node1&#45;&gt;Node2</title>
<path fill="none" stroke="midnightblue" d="M795.738,-127.9C777.592,-132.239 758.4,-136.828 741.161,-140.951"/>
<polygon fill="midnightblue" stroke="midnightblue" points="796.781,-131.249 805.692,-125.519 795.152,-124.441 796.781,-131.249"/>
</g>
<!-- Node4 -->
<g id="node4" class="node"><title>Node4</title>
<g id="a_node4"><a xlink:href="classblitzdg_1_1TriangleNodesProvisioner.html#a198dfd20f8c2c8b047c2b5ec8d243887" target="_top" xlink:title="Evaluates the gradient of the 2D orthonormal polynomial of index (id,jd) on the simplex at (a,...">
<polygon fill="white" stroke="black" points="403,-98.5 403,-128.5 566,-128.5 566,-98.5 403,-98.5"/>
<text text-anchor="start" x="411" y="-116.5" font-family="Helvetica,sans-Serif" font-size="10.00">blitzdg::TriangleNodesProvisioner</text>
<text text-anchor="middle" x="484.5" y="-105.5" font-family="Helvetica,sans-Serif" font-size="10.00">::evaluateGradSimplex</text>
</a>
</g>
</g>
<!-- Node1&#45;&gt;Node4 -->
<g id="edge12" class="edge"><title>Node1&#45;&gt;Node4</title>
<path fill="none" stroke="midnightblue" d="M790.66,-111.11C725.264,-111.622 632.156,-112.351 566.018,-112.869"/>
<polygon fill="midnightblue" stroke="midnightblue" points="790.937,-114.608 800.909,-111.029 790.882,-107.608 790.937,-114.608"/>
</g>
<!-- Node7 -->
<g id="node7" class="node"><title>Node7</title>
<g id="a_node7"><a xlink:href="classblitzdg_1_1VandermondeBuilders.html#af1b51b21a630ecefbe8f001cbbcf00d1" target="_top" xlink:title="Computes the Vandermonde matrix which maps modal coefficients to nodal values.">
<polygon fill="white" stroke="black" points="610,-49.5 610,-79.5 757,-79.5 757,-49.5 610,-49.5"/>
<text text-anchor="start" x="618" y="-67.5" font-family="Helvetica,sans-Serif" font-size="10.00">blitzdg::VandermondeBuilders</text>
<text text-anchor="middle" x="683.5" y="-56.5" font-family="Helvetica,sans-Serif" font-size="10.00">::computeVandermondeMatrix</text>
</a>
</g>
</g>
<!-- Node1&#45;&gt;Node7 -->
<g id="edge6" class="edge"><title>Node1&#45;&gt;Node7</title>
<path fill="none" stroke="midnightblue" d="M798.515,-93.0038C780.741,-88.5602 761.802,-83.8255 744.569,-79.5174"/>
<polygon fill="midnightblue" stroke="midnightblue" points="797.701,-96.4079 808.252,-95.4379 799.399,-89.6169 797.701,-96.4079"/>
</g>
<!-- Node9 -->
<g id="node9" class="node"><title>Node9</title>
<g id="a_node9"><a xlink:href="classblitzdg_1_1TriangleNodesProvisioner.html#a765fd7c797f8d1947d791f64d7b04270" target="_top" xlink:title="Computes geometric warp function for interior nodes.">
<polygon fill="white" stroke="black" points="403,-0.5 403,-30.5 566,-30.5 566,-0.5 403,-0.5"/>
<text text-anchor="start" x="411" y="-18.5" font-family="Helvetica,sans-Serif" font-size="10.00">blitzdg::TriangleNodesProvisioner</text>
<text text-anchor="middle" x="484.5" y="-7.5" font-family="Helvetica,sans-Serif" font-size="10.00">::computeWarpFactor</text>
</a>
</g>
</g>
<!-- Node1&#45;&gt;Node9 -->
<g id="edge11" class="edge"><title>Node1&#45;&gt;Node9</title>
<path fill="none" stroke="midnightblue" d="M844.856,-88.935C825.075,-72.291 795.296,-50.3347 765,-39.5 700.798,-16.5393 623.226,-11.5141 566.109,-11.6744"/>
<polygon fill="midnightblue" stroke="midnightblue" points="842.577,-91.5919 852.437,-95.4689 847.147,-86.2893 842.577,-91.5919"/>
</g>
<!-- Node12 -->
<g id="node12" class="node"><title>Node12</title>
<g id="a_node12"><a xlink:href="classblitzdg_1_1TriangleNodesProvisioner.html#ab1a4793c4f4bc3f4d184c8dc0bbf1af4" target="_top" xlink:title="Evaluates the 2D orthonormal polynomial on the simplex at (a,b) of order (i,j).">
<polygon fill="white" stroke="black" points="602,-189.5 602,-219.5 765,-219.5 765,-189.5 602,-189.5"/>
<text text-anchor="start" x="610" y="-207.5" font-family="Helvetica,sans-Serif" font-size="10.00">blitzdg::TriangleNodesProvisioner</text>
<text text-anchor="middle" x="683.5" y="-196.5" font-family="Helvetica,sans-Serif" font-size="10.00">::evaluateSimplexPolynomial</text>
</a>
</g>
</g>
<!-- Node1&#45;&gt;Node12 -->
<g id="edge13" class="edge"><title>Node1&#45;&gt;Node12</title>
<path fill="none" stroke="midnightblue" d="M840.726,-131.721C820.554,-146.376 792.145,-165.493 765,-178.5 756.523,-182.562 747.254,-186.218 738.118,-189.417"/>
<polygon fill="midnightblue" stroke="midnightblue" points="842.864,-134.493 848.84,-125.744 838.712,-128.857 842.864,-134.493"/>
</g>
<!-- Node3 -->
<g id="node3" class="node"><title>Node3</title>
<g id="a_node3"><a xlink:href="classblitzdg_1_1VandermondeBuilders.html#ae53b99bd2ead99fe7e318fedb22529ba" target="_top" xlink:title="Computes the elementwise derivative of the Vandermonde matrix.">
<polygon fill="white" stroke="black" points="411.5,-147.5 411.5,-177.5 557.5,-177.5 557.5,-147.5 411.5,-147.5"/>
<text text-anchor="start" x="419.5" y="-165.5" font-family="Helvetica,sans-Serif" font-size="10.00">blitzdg::VandermondeBuilders</text>
<text text-anchor="middle" x="484.5" y="-154.5" font-family="Helvetica,sans-Serif" font-size="10.00">::computeGradVandermonde</text>
</a>
</g>
</g>
<!-- Node2&#45;&gt;Node3 -->
<g id="edge2" class="edge"><title>Node2&#45;&gt;Node3</title>
<path fill="none" stroke="midnightblue" d="M615.606,-157.216C596.938,-157.975 576.575,-158.802 557.62,-159.571"/>
<polygon fill="midnightblue" stroke="midnightblue" points="615.934,-160.706 625.784,-156.803 615.65,-153.712 615.934,-160.706"/>
</g>
<!-- Node2&#45;&gt;Node4 -->
<g id="edge3" class="edge"><title>Node2&#45;&gt;Node4</title>
<path fill="none" stroke="midnightblue" d="M615.866,-140.632C597.127,-136.732 576.663,-132.473 557.62,-128.51"/>
<polygon fill="midnightblue" stroke="midnightblue" points="615.28,-144.085 625.784,-142.696 616.707,-137.232 615.28,-144.085"/>
</g>
<!-- Node5 -->
<g id="node5" class="node"><title>Node5</title>
<g id="a_node5"><a xlink:href="classblitzdg_1_1TriangleNodesProvisioner.html#ab72907f460709c6dd73846c302fb6d7b" target="_top" xlink:title="Computes the Gradient of the 2D Vandermonde matrix.">
<polygon fill="white" stroke="black" points="199,-109.5 199,-139.5 367,-139.5 367,-109.5 199,-109.5"/>
<text text-anchor="start" x="207" y="-127.5" font-family="Helvetica,sans-Serif" font-size="10.00">blitzdg::TriangleNodesProvisioner</text>
<text text-anchor="middle" x="283" y="-116.5" font-family="Helvetica,sans-Serif" font-size="10.00">::computeGradVandermondeMatrix</text>
</a>
</g>
</g>
<!-- Node4&#45;&gt;Node5 -->
<g id="edge4" class="edge"><title>Node4&#45;&gt;Node5</title>
<path fill="none" stroke="midnightblue" d="M392.912,-118.495C384.329,-118.968 375.655,-119.446 367.147,-119.915"/>
<polygon fill="midnightblue" stroke="midnightblue" points="393.139,-121.988 402.931,-117.942 392.753,-114.998 393.139,-121.988"/>
</g>
<!-- Node6 -->
<g id="node6" class="node"><title>Node6</title>
<g id="a_node6"><a xlink:href="classblitzdg_1_1TriangleNodesProvisioner.html#aef7f798f38c69f237c124b92ce3af33b" target="_top" xlink:title="Build x and y coordinates and geometric factors.">
<polygon fill="white" stroke="black" points="0,-144.5 0,-174.5 163,-174.5 163,-144.5 0,-144.5"/>
<text text-anchor="start" x="8" y="-162.5" font-family="Helvetica,sans-Serif" font-size="10.00">blitzdg::TriangleNodesProvisioner</text>
<text text-anchor="middle" x="81.5" y="-151.5" font-family="Helvetica,sans-Serif" font-size="10.00">::buildPhysicalGrid</text>
</a>
</g>
</g>
<!-- Node5&#45;&gt;Node6 -->
<g id="edge5" class="edge"><title>Node5&#45;&gt;Node6</title>
<path fill="none" stroke="midnightblue" d="M188.856,-140.841C180.313,-142.34 171.706,-143.85 163.286,-145.327"/>
<polygon fill="midnightblue" stroke="midnightblue" points="189.594,-144.265 198.839,-139.09 188.384,-137.37 189.594,-144.265"/>
</g>
<!-- Node8 -->
<g id="node8" class="node"><title>Node8</title>
<g id="a_node8"><a xlink:href="classblitzdg_1_1Nodes1DProvisioner.html#abe2340db4af5d25b8b0c5ada270fce5c" target="_top" xlink:title="Builds the nodes and all geometric factors for each element.">
<polygon fill="white" stroke="black" points="414,-49.5 414,-79.5 555,-79.5 555,-49.5 414,-49.5"/>
<text text-anchor="start" x="422" y="-67.5" font-family="Helvetica,sans-Serif" font-size="10.00">blitzdg::Nodes1DProvisioner</text>
<text text-anchor="middle" x="484.5" y="-56.5" font-family="Helvetica,sans-Serif" font-size="10.00">::buildNodes</text>
</a>
</g>
</g>
<!-- Node7&#45;&gt;Node8 -->
<g id="edge7" class="edge"><title>Node7&#45;&gt;Node8</title>
<path fill="none" stroke="midnightblue" d="M599.812,-64.5C584.982,-64.5 569.66,-64.5 555.24,-64.5"/>
<polygon fill="midnightblue" stroke="midnightblue" points="599.984,-68.0001 609.984,-64.5 599.984,-61.0001 599.984,-68.0001"/>
</g>
<!-- Node7&#45;&gt;Node9 -->
<g id="edge8" class="edge"><title>Node7&#45;&gt;Node9</title>
<path fill="none" stroke="midnightblue" d="M612.236,-47.0232C590.523,-41.6225 566.811,-35.7245 545.831,-30.5062"/>
<polygon fill="midnightblue" stroke="midnightblue" points="611.506,-50.4481 622.055,-49.4654 613.195,-43.655 611.506,-50.4481"/>
</g>
<!-- Node10 -->
<g id="node10" class="node"><title>Node10</title>
<g id="a_node10"><a xlink:href="classblitzdg_1_1TriangleNodesProvisioner.html#acc359d3edf261edc8c5396d747f5b06c" target="_top" xlink:title="Compute (x,y) nodes in equilateral triangle for polynomial of order N.">
<polygon fill="white" stroke="black" points="201.5,-0.5 201.5,-30.5 364.5,-30.5 364.5,-0.5 201.5,-0.5"/>
<text text-anchor="start" x="209.5" y="-18.5" font-family="Helvetica,sans-Serif" font-size="10.00">blitzdg::TriangleNodesProvisioner</text>
<text text-anchor="middle" x="283" y="-7.5" font-family="Helvetica,sans-Serif" font-size="10.00">::computeEquilateralNodes</text>
</a>
</g>
</g>
<!-- Node9&#45;&gt;Node10 -->
<g id="edge9" class="edge"><title>Node9&#45;&gt;Node10</title>
<path fill="none" stroke="midnightblue" d="M392.774,-15.5C383.359,-15.5 373.837,-15.5 364.546,-15.5"/>
<polygon fill="midnightblue" stroke="midnightblue" points="392.931,-19.0001 402.931,-15.5 392.931,-12.0001 392.931,-19.0001"/>
</g>
<!-- Node11 -->
<g id="node11" class="node"><title>Node11</title>
<g id="a_node11"><a xlink:href="classblitzdg_1_1TriangleNodesProvisioner.html#a07a0a9e0808ee63eb8259212aff90518" target="_top" xlink:title="Builds nodes and local operators.">
<polygon fill="white" stroke="black" points="0,-0.5 0,-30.5 163,-30.5 163,-0.5 0,-0.5"/>
<text text-anchor="start" x="8" y="-18.5" font-family="Helvetica,sans-Serif" font-size="10.00">blitzdg::TriangleNodesProvisioner</text>
<text text-anchor="middle" x="81.5" y="-7.5" font-family="Helvetica,sans-Serif" font-size="10.00">::buildNodes</text>
</a>
</g>
</g>
<!-- Node10&#45;&gt;Node11 -->
<g id="edge10" class="edge"><title>Node10&#45;&gt;Node11</title>
<path fill="none" stroke="midnightblue" d="M191.274,-15.5C181.859,-15.5 172.337,-15.5 163.046,-15.5"/>
<polygon fill="midnightblue" stroke="midnightblue" points="191.431,-19.0001 201.431,-15.5 191.431,-12.0001 191.431,-19.0001"/>
</g>
<!-- Node13 -->
<g id="node13" class="node"><title>Node13</title>
<g id="a_node13"><a xlink:href="classblitzdg_1_1TriangleNodesProvisioner.html#a6dd0ba9ce10a2b151d34a9f793e355b3" target="_top" xlink:title="Computes the 2D Vandermonde matrix which maps modal coefficients to nodal values.">
<polygon fill="white" stroke="black" points="201.5,-180.5 201.5,-210.5 364.5,-210.5 364.5,-180.5 201.5,-180.5"/>
<text text-anchor="start" x="209.5" y="-198.5" font-family="Helvetica,sans-Serif" font-size="10.00">blitzdg::TriangleNodesProvisioner</text>
<text text-anchor="middle" x="283" y="-187.5" font-family="Helvetica,sans-Serif" font-size="10.00">::computeVandermondeMatrix</text>
</a>
</g>
</g>
<!-- Node12&#45;&gt;Node13 -->
<g id="edge14" class="edge"><title>Node12&#45;&gt;Node13</title>
<path fill="none" stroke="midnightblue" d="M591.523,-202.445C523.114,-200.9 430.252,-198.803 364.522,-197.319"/>
<polygon fill="midnightblue" stroke="midnightblue" points="591.781,-205.952 601.858,-202.679 591.939,-198.954 591.781,-205.952"/>
</g>
<!-- Node13&#45;&gt;Node6 -->
<g id="edge15" class="edge"><title>Node13&#45;&gt;Node6</title>
<path fill="none" stroke="midnightblue" d="M191.574,-179.183C182.062,-177.466 172.436,-175.729 163.046,-174.035"/>
<polygon fill="midnightblue" stroke="midnightblue" points="190.968,-182.63 201.431,-180.961 192.211,-175.741 190.968,-182.63"/>
</g>
</g>
</svg>
