<?xml version="1.0" encoding="UTF-8" standalone="no"?>
<!DOCTYPE svg PUBLIC "-//W3C//DTD SVG 1.1//EN"
 "http://www.w3.org/Graphics/SVG/1.1/DTD/svg11.dtd">
<!-- Generated by graphviz version 2.38.0 (20140413.2041)
 -->
<!-- Title: blitzdg::TriangleNodesProvisioner::buildNodes Pages: 1 -->
<svg width="1276pt" height="176pt"
 viewBox="0.00 0.00 1276.00 176.00" xmlns="http://www.w3.org/2000/svg" xmlns:xlink="http://www.w3.org/1999/xlink">
<g id="graph0" class="graph" transform="scale(1 1) rotate(0) translate(4 172)">
<title>blitzdg::TriangleNodesProvisioner::buildNodes</title>
<polygon fill="white" stroke="none" points="-4,4 -4,-172 1272,-172 1272,4 -4,4"/>
<!-- Node1 -->
<g id="node1" class="node"><title>Node1</title>
<g id="a_node1"><a xlink:title="Builds nodes and local operators.">
<polygon fill="#bfbfbf" stroke="black" points="0,-41.5 0,-71.5 163,-71.5 163,-41.5 0,-41.5"/>
<text text-anchor="start" x="8" y="-59.5" font-family="Helvetica,sans-Serif" font-size="10.00">blitzdg::TriangleNodesProvisioner</text>
<text text-anchor="middle" x="81.5" y="-48.5" font-family="Helvetica,sans-Serif" font-size="10.00">::buildNodes</text>
</a>
</g>
</g>
<!-- Node2 -->
<g id="node2" class="node"><title>Node2</title>
<g id="a_node2"><a xlink:href="classblitzdg_1_1TriangleNodesProvisioner.html#acc359d3edf261edc8c5396d747f5b06c" target="_top" xlink:title="Compute (x,y) nodes in equilateral triangle for polynomial of order N.">
<polygon fill="white" stroke="black" points="199,-66.5 199,-96.5 362,-96.5 362,-66.5 199,-66.5"/>
<text text-anchor="start" x="207" y="-84.5" font-family="Helvetica,sans-Serif" font-size="10.00">blitzdg::TriangleNodesProvisioner</text>
<text text-anchor="middle" x="280.5" y="-73.5" font-family="Helvetica,sans-Serif" font-size="10.00">::computeEquilateralNodes</text>
</a>
</g>
</g>
<!-- Node1&#45;&gt;Node2 -->
<g id="edge1" class="edge"><title>Node1&#45;&gt;Node2</title>
<path fill="none" stroke="midnightblue" d="M163.196,-66.7406C171.673,-67.8164 180.333,-68.9153 188.912,-70.004"/>
<polygon fill="midnightblue" stroke="midnightblue" points="188.569,-73.4885 198.93,-71.2753 189.45,-66.5442 188.569,-73.4885"/>
</g>
<!-- Node13 -->
<g id="node13" class="node"><title>Node13</title>
<g id="a_node13"><a xlink:href="classblitzdg_1_1TriangleNodesProvisioner.html#a52e57a302a510ba4915e0369ca19be30" target="_top" xlink:title="Maps from (x,y) in the equilateral triangle to (r,s) coordinates in standard triangle.">
<polygon fill="white" stroke="black" points="199,-17.5 199,-47.5 362,-47.5 362,-17.5 199,-17.5"/>
<text text-anchor="start" x="207" y="-35.5" font-family="Helvetica,sans-Serif" font-size="10.00">blitzdg::TriangleNodesProvisioner</text>
<text text-anchor="middle" x="280.5" y="-24.5" font-family="Helvetica,sans-Serif" font-size="10.00">::xyTors</text>
</a>
</g>
</g>
<!-- Node1&#45;&gt;Node13 -->
<g id="edge19" class="edge"><title>Node1&#45;&gt;Node13</title>
<path fill="none" stroke="midnightblue" d="M163.196,-46.669C171.673,-45.6363 180.333,-44.5813 188.912,-43.5362"/>
<polygon fill="midnightblue" stroke="midnightblue" points="189.426,-46.9994 198.93,-42.3157 188.58,-40.0508 189.426,-46.9994"/>
</g>
<!-- Node3 -->
<g id="node3" class="node"><title>Node3</title>
<g id="a_node3"><a xlink:href="classblitzdg_1_1TriangleNodesProvisioner.html#a765fd7c797f8d1947d791f64d7b04270" target="_top" xlink:title="Computes geometric warp function for interior nodes.">
<polygon fill="white" stroke="black" points="398,-66.5 398,-96.5 561,-96.5 561,-66.5 398,-66.5"/>
<text text-anchor="start" x="406" y="-84.5" font-family="Helvetica,sans-Serif" font-size="10.00">blitzdg::TriangleNodesProvisioner</text>
<text text-anchor="middle" x="479.5" y="-73.5" font-family="Helvetica,sans-Serif" font-size="10.00">::computeWarpFactor</text>
</a>
</g>
</g>
<!-- Node2&#45;&gt;Node3 -->
<g id="edge2" class="edge"><title>Node2&#45;&gt;Node3</title>
<path fill="none" stroke="midnightblue" d="M362.196,-81.5C370.673,-81.5 379.333,-81.5 387.912,-81.5"/>
<polygon fill="midnightblue" stroke="midnightblue" points="387.93,-85.0001 397.93,-81.5 387.93,-78.0001 387.93,-85.0001"/>
</g>
<!-- Node4 -->
<g id="node4" class="node"><title>Node4</title>
<g id="a_node4"><a xlink:href="classblitzdg_1_1JacobiBuilders.html#a8b85322f52325c7efe38e2c27cb25292" target="_top" xlink:title="Computes the nodes of the Nth order Gauss&#45;Jacobi&#45;Lobotto quadrature rule with parameters &#160;and .">
<polygon fill="white" stroke="black" points="597,-133.5 597,-163.5 746,-163.5 746,-133.5 597,-133.5"/>
<text text-anchor="start" x="605" y="-151.5" font-family="Helvetica,sans-Serif" font-size="10.00">blitzdg::JacobiBuilders</text>
<text text-anchor="middle" x="671.5" y="-140.5" font-family="Helvetica,sans-Serif" font-size="10.00">::computeGaussLobottoPoints</text>
</a>
</g>
</g>
<!-- Node3&#45;&gt;Node4 -->
<g id="edge3" class="edge"><title>Node3&#45;&gt;Node4</title>
<path fill="none" stroke="midnightblue" d="M523.14,-96.5361C551.277,-106.458 588.325,-119.523 618.235,-130.07"/>
<polygon fill="midnightblue" stroke="midnightblue" points="617.08,-133.373 627.674,-133.398 619.407,-126.772 617.08,-133.373"/>
</g>
<!-- Node9 -->
<g id="node9" class="node"><title>Node9</title>
<g id="a_node9"><a xlink:href="classblitzdg_1_1JacobiBuilders.html#a629c1bda92b2b4414c5ef22ccd6d25ce" target="_top" xlink:title="Computes the value of the Nth order Jacobi polynomial with parameters &#160;and &#160;at each point in the inpu...">
<polygon fill="white" stroke="black" points="787.5,-0.5 787.5,-30.5 924.5,-30.5 924.5,-0.5 787.5,-0.5"/>
<text text-anchor="start" x="795.5" y="-18.5" font-family="Helvetica,sans-Serif" font-size="10.00">blitzdg::JacobiBuilders</text>
<text text-anchor="middle" x="856" y="-7.5" font-family="Helvetica,sans-Serif" font-size="10.00">::computeJacobiPolynomial</text>
</a>
</g>
</g>
<!-- Node3&#45;&gt;Node9 -->
<g id="edge10" class="edge"><title>Node3&#45;&gt;Node9</title>
<path fill="none" stroke="midnightblue" d="M511.332,-66.3875C534.358,-55.8347 566.912,-42.4407 597,-35.5 656.509,-21.7727 725.566,-16.9846 777.252,-15.5128"/>
<polygon fill="midnightblue" stroke="midnightblue" points="777.44,-19.0093 787.349,-15.261 777.265,-12.0115 777.44,-19.0093"/>
</g>
<!-- Node10 -->
<g id="node10" class="node"><title>Node10</title>
<g id="a_node10"><a xlink:href="classblitzdg_1_1VandermondeBuilders.html#af1b51b21a630ecefbe8f001cbbcf00d1" target="_top" xlink:title="Computes the Vandermonde matrix which maps modal coefficients to nodal values.">
<polygon fill="white" stroke="black" points="598,-44.5 598,-74.5 745,-74.5 745,-44.5 598,-44.5"/>
<text text-anchor="start" x="606" y="-62.5" font-family="Helvetica,sans-Serif" font-size="10.00">blitzdg::VandermondeBuilders</text>
<text text-anchor="middle" x="671.5" y="-51.5" font-family="Helvetica,sans-Serif" font-size="10.00">::computeVandermondeMatrix</text>
</a>
</g>
</g>
<!-- Node3&#45;&gt;Node10 -->
<g id="edge11" class="edge"><title>Node3&#45;&gt;Node10</title>
<path fill="none" stroke="midnightblue" d="M561.077,-72.17C569.969,-71.1404 579.033,-70.0909 587.949,-69.0586"/>
<polygon fill="midnightblue" stroke="midnightblue" points="588.403,-72.5294 597.934,-67.9023 587.598,-65.5759 588.403,-72.5294"/>
</g>
<!-- Node12 -->
<g id="node12" class="node"><title>Node12</title>
<g id="a_node12"><a xlink:href="classblitzdg_1_1DirectSolver.html#a728856cfee7ed7c7c5761d39acbc7606" target="_top" xlink:title="Solves the linear system .">
<polygon fill="white" stroke="black" points="983.5,-88.5 983.5,-118.5 1088.5,-118.5 1088.5,-88.5 983.5,-88.5"/>
<text text-anchor="start" x="991.5" y="-106.5" font-family="Helvetica,sans-Serif" font-size="10.00">blitzdg::DirectSolver</text>
<text text-anchor="middle" x="1036" y="-95.5" font-family="Helvetica,sans-Serif" font-size="10.00">::solve</text>
</a>
</g>
</g>
<!-- Node3&#45;&gt;Node12 -->
<g id="edge16" class="edge"><title>Node3&#45;&gt;Node12</title>
<path fill="none" stroke="midnightblue" d="M561.129,-84.699C672.932,-89.1348 872.621,-97.0576 973.324,-101.053"/>
<polygon fill="midnightblue" stroke="midnightblue" points="973.211,-104.551 983.342,-101.45 973.488,-97.5566 973.211,-104.551"/>
</g>
<!-- Node5 -->
<g id="node5" class="node"><title>Node5</title>
<g id="a_node5"><a xlink:href="classblitzdg_1_1JacobiBuilders.html#a6c06c7134e69c90790fe33e18dbd98a2" target="_top" xlink:title="Computes the nodes and weights of the Nth order Gauss&#45;Jacobi&#45;Lobotto quadrature rule with parameters ...">
<polygon fill="white" stroke="black" points="782,-134.5 782,-164.5 930,-164.5 930,-134.5 782,-134.5"/>
<text text-anchor="start" x="790" y="-152.5" font-family="Helvetica,sans-Serif" font-size="10.00">blitzdg::JacobiBuilders</text>
<text text-anchor="middle" x="856" y="-141.5" font-family="Helvetica,sans-Serif" font-size="10.00">::computeJacobiQuadWeights</text>
</a>
</g>
</g>
<!-- Node4&#45;&gt;Node5 -->
<g id="edge4" class="edge"><title>Node4&#45;&gt;Node5</title>
<path fill="none" stroke="midnightblue" d="M746.204,-148.904C754.665,-148.95 763.336,-148.998 771.909,-149.045"/>
<polygon fill="midnightblue" stroke="midnightblue" points="771.892,-152.545 781.911,-149.1 771.93,-145.545 771.892,-152.545"/>
</g>
<!-- Node6 -->
<g id="node6" class="node"><title>Node6</title>
<g id="a_node6"><a xlink:href="classblitzdg_1_1EigenSolver.html#a67242ffc3a849bd20a497ae100b78495" target="_top" xlink:title="Computes the eigenvalues and eigenvectors of the symmetric matrix .">
<polygon fill="white" stroke="black" points="984,-137.5 984,-167.5 1088,-167.5 1088,-137.5 984,-137.5"/>
<text text-anchor="start" x="992" y="-155.5" font-family="Helvetica,sans-Serif" font-size="10.00">blitzdg::EigenSolver</text>
<text text-anchor="middle" x="1036" y="-144.5" font-family="Helvetica,sans-Serif" font-size="10.00">::solve</text>
</a>
</g>
</g>
<!-- Node5&#45;&gt;Node6 -->
<g id="edge5" class="edge"><title>Node5&#45;&gt;Node6</title>
<path fill="none" stroke="midnightblue" d="M930.17,-150.733C944.676,-150.978 959.762,-151.232 973.818,-151.469"/>
<polygon fill="midnightblue" stroke="midnightblue" points="973.791,-154.969 983.849,-151.638 973.909,-147.97 973.791,-154.969"/>
</g>
<!-- Node7 -->
<g id="node7" class="node"><title>Node7</title>
<g id="a_node7"><a xlink:href="BlitzHelpers_8hpp.html#a2b714b6a07df67f99846579b713a1581" target="_top" xlink:title="Reshapes an array to a dense matrix.">
<polygon fill="white" stroke="black" points="1142,-66 1142,-85 1268,-85 1268,-66 1142,-66"/>
<text text-anchor="middle" x="1205" y="-73" font-family="Helvetica,sans-Serif" font-size="10.00">blitzdg::reshape1DToMat</text>
</a>
</g>
</g>
<!-- Node6&#45;&gt;Node7 -->
<g id="edge6" class="edge"><title>Node6&#45;&gt;Node7</title>
<path fill="none" stroke="midnightblue" d="M1083.79,-137.371C1091.3,-134.618 1098.92,-131.621 1106,-128.5 1131.7,-117.167 1159.79,-101.635 1179.27,-90.3153"/>
<polygon fill="midnightblue" stroke="midnightblue" points="1181.25,-93.2142 1188.1,-85.1338 1177.71,-87.1771 1181.25,-93.2142"/>
</g>
<!-- Node8 -->
<g id="node8" class="node"><title>Node8</title>
<g id="a_node8"><a xlink:href="BlitzHelpers_8hpp.html#aaa66bfe8cd7c9adad27aa42f765c980b" target="_top" xlink:title="Vectorizes a dense matrix by writing it to an array.">
<polygon fill="white" stroke="black" points="1142,-122 1142,-141 1268,-141 1268,-122 1142,-122"/>
<text text-anchor="middle" x="1205" y="-129" font-family="Helvetica,sans-Serif" font-size="10.00">blitzdg::reshapeMatTo1D</text>
</a>
</g>
</g>
<!-- Node6&#45;&gt;Node8 -->
<g id="edge8" class="edge"><title>Node6&#45;&gt;Node8</title>
<path fill="none" stroke="midnightblue" d="M1088.01,-146.085C1101.81,-144.351 1117,-142.44 1131.73,-140.588"/>
<polygon fill="midnightblue" stroke="midnightblue" points="1132.33,-144.04 1141.82,-139.319 1131.46,-137.094 1132.33,-144.04"/>
</g>
<!-- Node7&#45;&gt;Node7 -->
<g id="edge7" class="edge"><title>Node7&#45;&gt;Node7</title>
<path fill="none" stroke="midnightblue" d="M1179.11,-85.2571C1166.51,-94.0653 1175.14,-103.5 1205,-103.5 1225.06,-103.5 1235.54,-99.241 1236.44,-93.7746"/>
<polygon fill="midnightblue" stroke="midnightblue" points="1239.28,-91.7291 1230.89,-85.2571 1233.42,-95.5475 1239.28,-91.7291"/>
</g>
<!-- Node8&#45;&gt;Node8 -->
<g id="edge9" class="edge"><title>Node8&#45;&gt;Node8</title>
<path fill="none" stroke="midnightblue" d="M1179.11,-141.257C1166.51,-150.065 1175.14,-159.5 1205,-159.5 1225.06,-159.5 1235.54,-155.241 1236.44,-149.775"/>
<polygon fill="midnightblue" stroke="midnightblue" points="1239.28,-147.729 1230.89,-141.257 1233.42,-151.548 1239.28,-147.729"/>
</g>
<!-- Node10&#45;&gt;Node9 -->
<g id="edge15" class="edge"><title>Node10&#45;&gt;Node9</title>
<path fill="none" stroke="midnightblue" d="M734.796,-44.4808C750.273,-40.7492 766.991,-36.7186 782.896,-32.884"/>
<polygon fill="midnightblue" stroke="midnightblue" points="783.774,-36.2726 792.675,-30.5262 782.134,-29.4676 783.774,-36.2726"/>
</g>
<!-- Node11 -->
<g id="node11" class="node"><title>Node11</title>
<g id="a_node11"><a xlink:href="classblitzdg_1_1DenseMatrixInverter.html#abc5fdde2a78d073764d11cb3b1bdae47" target="_top" xlink:title="Inverts the dense matrix .">
<polygon fill="white" stroke="black" points="966,-39.5 966,-69.5 1106,-69.5 1106,-39.5 966,-39.5"/>
<text text-anchor="start" x="974" y="-57.5" font-family="Helvetica,sans-Serif" font-size="10.00">blitzdg::DenseMatrixInverter</text>
<text text-anchor="middle" x="1036" y="-46.5" font-family="Helvetica,sans-Serif" font-size="10.00">::computeInverse</text>
</a>
</g>
</g>
<!-- Node10&#45;&gt;Node11 -->
<g id="edge12" class="edge"><title>Node10&#45;&gt;Node11</title>
<path fill="none" stroke="midnightblue" d="M745.421,-58.4942C806.33,-57.6541 893.018,-56.4584 955.654,-55.5944"/>
<polygon fill="midnightblue" stroke="midnightblue" points="955.932,-59.091 965.882,-55.4533 955.835,-52.0917 955.932,-59.091"/>
</g>
<!-- Node11&#45;&gt;Node7 -->
<g id="edge13" class="edge"><title>Node11&#45;&gt;Node7</title>
<path fill="none" stroke="midnightblue" d="M1106.37,-63.2235C1114.72,-64.273 1123.26,-65.3469 1131.65,-66.4016"/>
<polygon fill="midnightblue" stroke="midnightblue" points="1131.42,-69.9005 1141.78,-67.6756 1132.29,-62.9552 1131.42,-69.9005"/>
</g>
<!-- Node11&#45;&gt;Node8 -->
<g id="edge14" class="edge"><title>Node11&#45;&gt;Node8</title>
<path fill="none" stroke="midnightblue" d="M1086,-69.5111C1092.92,-72.4093 1099.79,-75.7364 1106,-79.5 1124.56,-90.7482 1123.16,-101.722 1142,-112.5 1145.74,-114.638 1149.74,-116.562 1153.85,-118.287"/>
<polygon fill="midnightblue" stroke="midnightblue" points="1152.96,-121.692 1163.55,-121.96 1155.44,-115.145 1152.96,-121.692"/>
</g>
<!-- Node12&#45;&gt;Node7 -->
<g id="edge17" class="edge"><title>Node12&#45;&gt;Node7</title>
<path fill="none" stroke="midnightblue" d="M1088.92,-94.7941C1104.23,-92.2283 1121.19,-89.3842 1137.29,-86.6857"/>
<polygon fill="midnightblue" stroke="midnightblue" points="1137.89,-90.1335 1147.17,-85.0281 1136.73,-83.2299 1137.89,-90.1335"/>
</g>
<!-- Node12&#45;&gt;Node8 -->
<g id="edge18" class="edge"><title>Node12&#45;&gt;Node8</title>
<path fill="none" stroke="midnightblue" d="M1088.92,-112.206C1104.23,-114.772 1121.19,-117.616 1137.29,-120.314"/>
<polygon fill="midnightblue" stroke="midnightblue" points="1136.73,-123.77 1147.17,-121.972 1137.89,-116.866 1136.73,-123.77"/>
</g>
</g>
</svg>
