<?xml version="1.0" encoding="UTF-8" standalone="no"?>
<!DOCTYPE svg PUBLIC "-//W3C//DTD SVG 1.1//EN"
 "http://www.w3.org/Graphics/SVG/1.1/DTD/svg11.dtd">
<!-- Generated by graphviz version 2.38.0 (20140413.2041)
 -->
<!-- Title: blitzdg::TriangleNodesProvisioner::computeWarpFactor Pages: 1 -->
<!--zoomable 176 -->
<svg id="main" version="1.1" xmlns="http://www.w3.org/2000/svg" xmlns:xlink="http://www.w3.org/1999/xlink" xml:space="preserve" onload="init(evt)">
<style type="text/css"><![CDATA[
.edge:hover path { stroke: red; }
.edge:hover polygon { stroke: red; fill: red; }
]]></style>
<script type="text/javascript"><![CDATA[
var edges = document.getElementsByTagName('g');
if (edges && edges.length) {
  for (var i=0;i<edges.length;i++) {
    if (edges[i].id.substr(0,4)=='edge') {
      edges[i].setAttribute('class','edge');
    }
  }
}
]]></script>
        <defs>
                <circle id="rim" cx="0" cy="0" r="7"/>
                <circle id="rim2" cx="0" cy="0" r="3.5"/>
                <g id="zoomPlus">
                        <use xlink:href="#rim" fill="#404040">
                                <set attributeName="fill" to="#808080" begin="zoomplus.mouseover" end="zoomplus.mouseout"/>
                        </use>
                        <path d="M-4,0h8M0,-4v8" fill="none" stroke="white" stroke-width="1.5" pointer-events="none"/>
                </g>
                <g id="zoomMin">
                        <use xlink:href="#rim" fill="#404040">
                                <set attributeName="fill" to="#808080" begin="zoomminus.mouseover" end="zoomminus.mouseout"/>
                        </use>
                        <path d="M-4,0h8" fill="none" stroke="white" stroke-width="1.5" pointer-events="none"/>
                </g>
                <g id="dirArrow">
                        <path fill="none" stroke="white" stroke-width="1.5" d="M0,-3.0v7 M-2.5,-0.5L0,-3.0L2.5,-0.5"/>
                </g>
               <g id="resetDef">
                       <use xlink:href="#rim2" fill="#404040">
                               <set attributeName="fill" to="#808080" begin="reset.mouseover" end="reset.mouseout"/>
                       </use>
               </g>
        </defs>

<script type="text/javascript">
var viewWidth = 878;
var viewHeight = 176;
var sectionId = 'dynsection-14';
</script>
<script xlink:href="svgpan.js"/>
<svg id="graph" class="graph">
<g id="viewport">
<title>blitzdg::TriangleNodesProvisioner::computeWarpFactor</title>
<polygon fill="white" stroke="none" points="-4,4 -4,-172 874,-172 874,4 -4,4"/>
<!-- Node1 -->
<g id="node1" class="node"><title>Node1</title>
<g id="a_node1"><a xlink:title="Computes geometric warp function for interior nodes.">
<polygon fill="#bfbfbf" stroke="black" points="0,-66.5 0,-96.5 163,-96.5 163,-66.5 0,-66.5"/>
<text text-anchor="start" x="8" y="-84.5" font-family="Helvetica,sans-Serif" font-size="10.00">blitzdg::TriangleNodesProvisioner</text>
<text text-anchor="middle" x="81.5" y="-73.5" font-family="Helvetica,sans-Serif" font-size="10.00">::computeWarpFactor</text>
</a>
</g>
</g>
<!-- Node2 -->
<g id="node2" class="node"><title>Node2</title>
<g id="a_node2"><a xlink:href="classblitzdg_1_1JacobiBuilders.html#a8b85322f52325c7efe38e2c27cb25292" target="_top" xlink:title="Computes the nodes of the Nth order Gauss&#45;Jacobi&#45;Lobotto quadrature rule with parameters &#160;and .">
<polygon fill="white" stroke="black" points="199,-133.5 199,-163.5 348,-163.5 348,-133.5 199,-133.5"/>
<text text-anchor="start" x="207" y="-151.5" font-family="Helvetica,sans-Serif" font-size="10.00">blitzdg::JacobiBuilders</text>
<text text-anchor="middle" x="273.5" y="-140.5" font-family="Helvetica,sans-Serif" font-size="10.00">::computeGaussLobottoPoints</text>
</a>
</g>
</g>
<!-- Node1&#45;&gt;Node2 -->
<g id="edge1" class="edge"><title>Node1&#45;&gt;Node2</title>
<path fill="none" stroke="midnightblue" d="M125.14,-96.5361C153.277,-106.458 190.325,-119.523 220.235,-130.07"/>
<polygon fill="midnightblue" stroke="midnightblue" points="219.08,-133.373 229.674,-133.398 221.407,-126.772 219.08,-133.373"/>
</g>
<!-- Node7 -->
<g id="node7" class="node"><title>Node7</title>
<g id="a_node7"><a xlink:href="classblitzdg_1_1JacobiBuilders.html#a629c1bda92b2b4414c5ef22ccd6d25ce" target="_top" xlink:title="Computes the value of the Nth order Jacobi polynomial with parameters &#160;and &#160;at each point in the inpu...">
<polygon fill="white" stroke="black" points="389.5,-0.5 389.5,-30.5 526.5,-30.5 526.5,-0.5 389.5,-0.5"/>
<text text-anchor="start" x="397.5" y="-18.5" font-family="Helvetica,sans-Serif" font-size="10.00">blitzdg::JacobiBuilders</text>
<text text-anchor="middle" x="458" y="-7.5" font-family="Helvetica,sans-Serif" font-size="10.00">::computeJacobiPolynomial</text>
</a>
</g>
</g>
<!-- Node1&#45;&gt;Node7 -->
<g id="edge8" class="edge"><title>Node1&#45;&gt;Node7</title>
<path fill="none" stroke="midnightblue" d="M112.32,-66.468C135.373,-55.5954 168.41,-41.6135 199,-34.5 258.467,-20.6711 327.527,-16.1713 379.224,-14.9923"/>
<polygon fill="midnightblue" stroke="midnightblue" points="379.393,-18.4898 389.324,-14.7989 379.259,-11.491 379.393,-18.4898"/>
</g>
<!-- Node8 -->
<g id="node8" class="node"><title>Node8</title>
<g id="a_node8"><a xlink:href="classblitzdg_1_1VandermondeBuilders.html#af1b51b21a630ecefbe8f001cbbcf00d1" target="_top" xlink:title="Computes the Vandermonde matrix which maps modal coefficients to nodal values.">
<polygon fill="white" stroke="black" points="200,-44.5 200,-74.5 347,-74.5 347,-44.5 200,-44.5"/>
<text text-anchor="start" x="208" y="-62.5" font-family="Helvetica,sans-Serif" font-size="10.00">blitzdg::VandermondeBuilders</text>
<text text-anchor="middle" x="273.5" y="-51.5" font-family="Helvetica,sans-Serif" font-size="10.00">::computeVandermondeMatrix</text>
</a>
</g>
</g>
<!-- Node1&#45;&gt;Node8 -->
<g id="edge9" class="edge"><title>Node1&#45;&gt;Node8</title>
<path fill="none" stroke="midnightblue" d="M163.077,-72.17C171.969,-71.1404 181.033,-70.0909 189.949,-69.0586"/>
<polygon fill="midnightblue" stroke="midnightblue" points="190.403,-72.5294 199.934,-67.9023 189.598,-65.5759 190.403,-72.5294"/>
</g>
<!-- Node10 -->
<g id="node10" class="node"><title>Node10</title>
<g id="a_node10"><a xlink:href="classblitzdg_1_1DirectSolver.html#a728856cfee7ed7c7c5761d39acbc7606" target="_top" xlink:title="Solves the linear system .">
<polygon fill="white" stroke="black" points="585.5,-88.5 585.5,-118.5 690.5,-118.5 690.5,-88.5 585.5,-88.5"/>
<text text-anchor="start" x="593.5" y="-106.5" font-family="Helvetica,sans-Serif" font-size="10.00">blitzdg::DirectSolver</text>
<text text-anchor="middle" x="638" y="-95.5" font-family="Helvetica,sans-Serif" font-size="10.00">::solve</text>
</a>
</g>
</g>
<!-- Node1&#45;&gt;Node10 -->
<g id="edge14" class="edge"><title>Node1&#45;&gt;Node10</title>
<path fill="none" stroke="midnightblue" d="M163.129,-84.699C274.932,-89.1348 474.621,-97.0576 575.324,-101.053"/>
<polygon fill="midnightblue" stroke="midnightblue" points="575.211,-104.551 585.342,-101.45 575.488,-97.5566 575.211,-104.551"/>
</g>
<!-- Node3 -->
<g id="node3" class="node"><title>Node3</title>
<g id="a_node3"><a xlink:href="classblitzdg_1_1JacobiBuilders.html#a6c06c7134e69c90790fe33e18dbd98a2" target="_top" xlink:title="Computes the nodes and weights of the Nth order Gauss&#45;Jacobi&#45;Lobotto quadrature rule with parameters ...">
<polygon fill="white" stroke="black" points="384,-134.5 384,-164.5 532,-164.5 532,-134.5 384,-134.5"/>
<text text-anchor="start" x="392" y="-152.5" font-family="Helvetica,sans-Serif" font-size="10.00">blitzdg::JacobiBuilders</text>
<text text-anchor="middle" x="458" y="-141.5" font-family="Helvetica,sans-Serif" font-size="10.00">::computeJacobiQuadWeights</text>
</a>
</g>
</g>
<!-- Node2&#45;&gt;Node3 -->
<g id="edge2" class="edge"><title>Node2&#45;&gt;Node3</title>
<path fill="none" stroke="midnightblue" d="M348.204,-148.904C356.665,-148.95 365.336,-148.998 373.909,-149.045"/>
<polygon fill="midnightblue" stroke="midnightblue" points="373.892,-152.545 383.911,-149.1 373.93,-145.545 373.892,-152.545"/>
</g>
<!-- Node4 -->
<g id="node4" class="node"><title>Node4</title>
<g id="a_node4"><a xlink:href="classblitzdg_1_1EigenSolver.html#a67242ffc3a849bd20a497ae100b78495" target="_top" xlink:title="Computes the eigenvalues and eigenvectors of the symmetric matrix .">
<polygon fill="white" stroke="black" points="586,-137.5 586,-167.5 690,-167.5 690,-137.5 586,-137.5"/>
<text text-anchor="start" x="594" y="-155.5" font-family="Helvetica,sans-Serif" font-size="10.00">blitzdg::EigenSolver</text>
<text text-anchor="middle" x="638" y="-144.5" font-family="Helvetica,sans-Serif" font-size="10.00">::solve</text>
</a>
</g>
</g>
<!-- Node3&#45;&gt;Node4 -->
<g id="edge3" class="edge"><title>Node3&#45;&gt;Node4</title>
<path fill="none" stroke="midnightblue" d="M532.17,-150.733C546.676,-150.978 561.762,-151.232 575.818,-151.469"/>
<polygon fill="midnightblue" stroke="midnightblue" points="575.791,-154.969 585.849,-151.638 575.909,-147.97 575.791,-154.969"/>
</g>
<!-- Node5 -->
<g id="node5" class="node"><title>Node5</title>
<g id="a_node5"><a xlink:href="BlitzHelpers_8hpp.html#a2b714b6a07df67f99846579b713a1581" target="_top" xlink:title="Reshapes an array to a dense matrix.">
<polygon fill="white" stroke="black" points="744,-66 744,-85 870,-85 870,-66 744,-66"/>
<text text-anchor="middle" x="807" y="-73" font-family="Helvetica,sans-Serif" font-size="10.00">blitzdg::reshape1DToMat</text>
</a>
</g>
</g>
<!-- Node4&#45;&gt;Node5 -->
<g id="edge4" class="edge"><title>Node4&#45;&gt;Node5</title>
<path fill="none" stroke="midnightblue" d="M683.536,-137.404C691.753,-134.326 700.197,-130.963 708,-127.5 733.417,-116.219 761.335,-101.123 780.849,-90.1035"/>
<polygon fill="midnightblue" stroke="midnightblue" points="782.75,-93.0482 789.705,-85.0558 779.284,-86.9666 782.75,-93.0482"/>
</g>
<!-- Node6 -->
<g id="node6" class="node"><title>Node6</title>
<g id="a_node6"><a xlink:href="BlitzHelpers_8hpp.html#aaa66bfe8cd7c9adad27aa42f765c980b" target="_top" xlink:title="Vectorizes a dense matrix by writing it to an array.">
<polygon fill="white" stroke="black" points="744,-122 744,-141 870,-141 870,-122 744,-122"/>
<text text-anchor="middle" x="807" y="-129" font-family="Helvetica,sans-Serif" font-size="10.00">blitzdg::reshapeMatTo1D</text>
</a>
</g>
</g>
<!-- Node4&#45;&gt;Node6 -->
<g id="edge6" class="edge"><title>Node4&#45;&gt;Node6</title>
<path fill="none" stroke="midnightblue" d="M690.013,-146.085C703.808,-144.351 719.004,-142.44 733.726,-140.588"/>
<polygon fill="midnightblue" stroke="midnightblue" points="734.334,-144.04 743.819,-139.319 733.46,-137.094 734.334,-144.04"/>
</g>
<!-- Node5&#45;&gt;Node5 -->
<g id="edge5" class="edge"><title>Node5&#45;&gt;Node5</title>
<path fill="none" stroke="midnightblue" d="M781.106,-85.2571C768.509,-94.0653 777.141,-103.5 807,-103.5 827.062,-103.5 837.541,-99.241 838.437,-93.7746"/>
<polygon fill="midnightblue" stroke="midnightblue" points="841.282,-91.7291 832.894,-85.2571 835.415,-95.5475 841.282,-91.7291"/>
</g>
<!-- Node6&#45;&gt;Node6 -->
<g id="edge7" class="edge"><title>Node6&#45;&gt;Node6</title>
<path fill="none" stroke="midnightblue" d="M781.106,-141.257C768.509,-150.065 777.141,-159.5 807,-159.5 827.062,-159.5 837.541,-155.241 838.437,-149.775"/>
<polygon fill="midnightblue" stroke="midnightblue" points="841.282,-147.729 832.894,-141.257 835.415,-151.548 841.282,-147.729"/>
</g>
<!-- Node8&#45;&gt;Node7 -->
<g id="edge13" class="edge"><title>Node8&#45;&gt;Node7</title>
<path fill="none" stroke="midnightblue" d="M336.796,-44.4808C352.273,-40.7492 368.991,-36.7186 384.896,-32.884"/>
<polygon fill="midnightblue" stroke="midnightblue" points="385.774,-36.2726 394.675,-30.5262 384.134,-29.4676 385.774,-36.2726"/>
</g>
<!-- Node9 -->
<g id="node9" class="node"><title>Node9</title>
<g id="a_node9"><a xlink:href="classblitzdg_1_1DenseMatrixInverter.html#abc5fdde2a78d073764d11cb3b1bdae47" target="_top" xlink:title="Inverts the dense matrix .">
<polygon fill="white" stroke="black" points="568,-39.5 568,-69.5 708,-69.5 708,-39.5 568,-39.5"/>
<text text-anchor="start" x="576" y="-57.5" font-family="Helvetica,sans-Serif" font-size="10.00">blitzdg::DenseMatrixInverter</text>
<text text-anchor="middle" x="638" y="-46.5" font-family="Helvetica,sans-Serif" font-size="10.00">::computeInverse</text>
</a>
</g>
</g>
<!-- Node8&#45;&gt;Node9 -->
<g id="edge10" class="edge"><title>Node8&#45;&gt;Node9</title>
<path fill="none" stroke="midnightblue" d="M347.421,-58.4942C408.33,-57.6541 495.018,-56.4584 557.654,-55.5944"/>
<polygon fill="midnightblue" stroke="midnightblue" points="557.932,-59.091 567.882,-55.4533 557.835,-52.0917 557.932,-59.091"/>
</g>
<!-- Node9&#45;&gt;Node5 -->
<g id="edge11" class="edge"><title>Node9&#45;&gt;Node5</title>
<path fill="none" stroke="midnightblue" d="M708.372,-63.2235C716.718,-64.273 725.258,-65.3469 733.646,-66.4016"/>
<polygon fill="midnightblue" stroke="midnightblue" points="733.419,-69.9005 743.777,-67.6756 734.292,-62.9552 733.419,-69.9005"/>
</g>
<!-- Node9&#45;&gt;Node6 -->
<g id="edge12" class="edge"><title>Node9&#45;&gt;Node6</title>
<path fill="none" stroke="midnightblue" d="M690.24,-69.5626C696.407,-72.17 702.471,-75.1423 708,-78.5 726.811,-89.9241 724.979,-101.429 744,-112.5 747.667,-114.634 751.598,-116.552 755.636,-118.27"/>
<polygon fill="midnightblue" stroke="midnightblue" points="754.587,-121.617 765.177,-121.927 757.092,-115.08 754.587,-121.617"/>
</g>
<!-- Node10&#45;&gt;Node5 -->
<g id="edge15" class="edge"><title>Node10&#45;&gt;Node5</title>
<path fill="none" stroke="midnightblue" d="M690.924,-94.7941C706.228,-92.2283 723.19,-89.3842 739.285,-86.6857"/>
<polygon fill="midnightblue" stroke="midnightblue" points="739.888,-90.1335 749.172,-85.0281 738.731,-83.2299 739.888,-90.1335"/>
</g>
<!-- Node10&#45;&gt;Node6 -->
<g id="edge16" class="edge"><title>Node10&#45;&gt;Node6</title>
<path fill="none" stroke="midnightblue" d="M690.924,-112.206C706.228,-114.772 723.19,-117.616 739.285,-120.314"/>
<polygon fill="midnightblue" stroke="midnightblue" points="738.731,-123.77 749.172,-121.972 739.888,-116.866 738.731,-123.77"/>
</g>
</g>
</svg>
        <g id="navigator" transform="translate(0 0)" fill="#404254">
                <rect fill="#f2f5e9" fill-opacity="0.5" stroke="#606060" stroke-width=".5" x="0" y="0" width="60" height="60"/>
                <use id="zoomplus" xlink:href="#zoomPlus" x="17" y="9" onmousedown="handleZoom(evt,'in')"/>
                <use id="zoomminus" xlink:href="#zoomMin" x="42" y="9" onmousedown="handleZoom(evt,'out')"/>
                <use id="reset" xlink:href="#resetDef" x="30" y="36" onmousedown="handleReset()"/>
                <g id="arrowUp" xlink:href="#dirArrow" transform="translate(30 24)" onmousedown="handlePan(0,-1)">
                  <use xlink:href="#rim" fill="#404040">
                        <set attributeName="fill" to="#808080" begin="arrowUp.mouseover" end="arrowUp.mouseout"/>
                  </use>
                  <path fill="none" stroke="white" stroke-width="1.5" d="M0,-3.0v7 M-2.5,-0.5L0,-3.0L2.5,-0.5"/>
                </g>
                <g id="arrowRight" xlink:href="#dirArrow" transform="rotate(90) translate(36 -43)" onmousedown="handlePan(1,0)">
                  <use xlink:href="#rim" fill="#404040">
                        <set attributeName="fill" to="#808080" begin="arrowRight.mouseover" end="arrowRight.mouseout"/>
                  </use>
                  <path fill="none" stroke="white" stroke-width="1.5" d="M0,-3.0v7 M-2.5,-0.5L0,-3.0L2.5,-0.5"/>
                </g>
                <g id="arrowDown" xlink:href="#dirArrow" transform="rotate(180) translate(-30 -48)" onmousedown="handlePan(0,1)">
                  <use xlink:href="#rim" fill="#404040">
                        <set attributeName="fill" to="#808080" begin="arrowDown.mouseover" end="arrowDown.mouseout"/>
                  </use>
                  <path fill="none" stroke="white" stroke-width="1.5" d="M0,-3.0v7 M-2.5,-0.5L0,-3.0L2.5,-0.5"/>
                </g>
                <g id="arrowLeft" xlink:href="#dirArrow" transform="rotate(270) translate(-36 17)" onmousedown="handlePan(-1,0)">
                  <use xlink:href="#rim" fill="#404040">
                        <set attributeName="fill" to="#808080" begin="arrowLeft.mouseover" end="arrowLeft.mouseout"/>
                  </use>
                  <path fill="none" stroke="white" stroke-width="1.5" d="M0,-3.0v7 M-2.5,-0.5L0,-3.0L2.5,-0.5"/>
                </g>
        </g>
        <svg viewBox="0 0 15 15" width="100%" height="30px" preserveAspectRatio="xMaxYMin meet">
         <g id="arrow_out" transform="scale(0.3 0.3)">
          <a xlink:href="classblitzdg_1_1TriangleNodesProvisioner_a765fd7c797f8d1947d791f64d7b04270_cgraph_org.svg" target="_base">
           <rect id="button" ry="5" rx="5" y="6" x="6" height="38" width="38"
                fill="#f2f5e9" fill-opacity="0.5" stroke="#606060" stroke-width="1.0"/>
           <path id="arrow"
             d="M 11.500037,31.436501 C 11.940474,20.09759 22.043105,11.32322 32.158766,21.979434 L 37.068811,17.246167 C 37.068811,17.246167 37.088388,32 37.088388,32 L 22.160133,31.978069 C 22.160133,31.978069 26.997745,27.140456 26.997745,27.140456 C 18.528582,18.264221 13.291696,25.230495 11.500037,31.436501 z"
             style="fill:#404040;"/>
          </a>
         </g>
        </svg>
</svg>
