<?xml version="1.0" encoding="UTF-8" standalone="no"?>
<!DOCTYPE svg PUBLIC "-//W3C//DTD SVG 1.1//EN"
 "http://www.w3.org/Graphics/SVG/1.1/DTD/svg11.dtd">
<!-- Generated by graphviz version 2.38.0 (20140413.2041)
 -->
<!-- Title: blitzdg::MeshManager::buildConnectivity Pages: 1 -->
<svg width="448pt" height="216pt"
 viewBox="0.00 0.00 448.00 216.00" xmlns="http://www.w3.org/2000/svg" xmlns:xlink="http://www.w3.org/1999/xlink">
<g id="graph0" class="graph" transform="scale(1 1) rotate(0) translate(4 212)">
<title>blitzdg::MeshManager::buildConnectivity</title>
<polygon fill="white" stroke="none" points="-4,4 -4,-212 444,-212 444,4 -4,4"/>
<!-- Node1 -->
<g id="node1" class="node"><title>Node1</title>
<g id="a_node1"><a xlink:title="Build EToE and EToF connectivity tables.">
<polygon fill="#bfbfbf" stroke="black" points="0,-89 0,-119 113,-119 113,-89 0,-89"/>
<text text-anchor="start" x="8" y="-107" font-family="Helvetica,sans-Serif" font-size="10.00">blitzdg::MeshManager</text>
<text text-anchor="middle" x="56.5" y="-96" font-family="Helvetica,sans-Serif" font-size="10.00">::buildConnectivity</text>
</a>
</g>
</g>
<!-- Node2 -->
<g id="node2" class="node"><title>Node2</title>
<g id="a_node2"><a xlink:href="classblitzdg_1_1CSCMat.html#ac3cfc9336711481db047c7183d3d9ad2" target="_top" xlink:title="Provides read&#45;write access to the kth column pointer index.">
<polygon fill="white" stroke="black" points="151,-188.5 151,-207.5 277,-207.5 277,-188.5 151,-188.5"/>
<text text-anchor="middle" x="214" y="-195.5" font-family="Helvetica,sans-Serif" font-size="10.00">blitzdg::CSCMat::colPtrs</text>
</a>
</g>
</g>
<!-- Node1&#45;&gt;Node2 -->
<g id="edge1" class="edge"><title>Node1&#45;&gt;Node2</title>
<path fill="none" stroke="midnightblue" d="M71.9998,-119.065C88.9912,-135.909 118.696,-162.929 149,-179 153.195,-181.225 157.687,-183.224 162.272,-185.013"/>
<polygon fill="midnightblue" stroke="midnightblue" points="161.157,-188.331 171.752,-188.395 163.509,-181.738 161.157,-188.331"/>
</g>
<!-- Node3 -->
<g id="node3" class="node"><title>Node3</title>
<g id="a_node3"><a xlink:href="classblitzdg_1_1CSCMat.html#a172a6117183b30613657fd15add8c652" target="_top" xlink:title="Provides read&#45;write access to the kth nonzero element.">
<polygon fill="white" stroke="black" points="153,-150.5 153,-169.5 275,-169.5 275,-150.5 153,-150.5"/>
<text text-anchor="middle" x="214" y="-157.5" font-family="Helvetica,sans-Serif" font-size="10.00">blitzdg::CSCMat::elems</text>
</a>
</g>
</g>
<!-- Node1&#45;&gt;Node3 -->
<g id="edge2" class="edge"><title>Node1&#45;&gt;Node3</title>
<path fill="none" stroke="midnightblue" d="M92.3956,-119.025C109.337,-126.085 130.076,-134.382 149,-141 155.395,-143.237 162.207,-145.442 168.911,-147.515"/>
<polygon fill="midnightblue" stroke="midnightblue" points="168.01,-150.899 178.595,-150.444 170.037,-144.199 168.01,-150.899"/>
</g>
<!-- Node4 -->
<g id="node4" class="node"><title>Node4</title>
<g id="a_node4"><a xlink:href="CSCMatrix_8hpp.html#a1866fcdc4e272d252d1460ebdd67284e" target="_top" xlink:title="Returns the matrix&#45;matrix product of two CSC matrices: lhs * rhs.">
<polygon fill="white" stroke="black" points="171.5,-94.5 171.5,-113.5 256.5,-113.5 256.5,-94.5 171.5,-94.5"/>
<text text-anchor="middle" x="214" y="-101.5" font-family="Helvetica,sans-Serif" font-size="10.00">blitzdg::multiply</text>
</a>
</g>
</g>
<!-- Node1&#45;&gt;Node4 -->
<g id="edge3" class="edge"><title>Node1&#45;&gt;Node4</title>
<path fill="none" stroke="midnightblue" d="M113.2,-104C128.777,-104 145.642,-104 160.997,-104"/>
<polygon fill="midnightblue" stroke="midnightblue" points="161.351,-107.5 171.351,-104 161.351,-100.5 161.351,-107.5"/>
</g>
<!-- Node6 -->
<g id="node6" class="node"><title>Node6</title>
<g id="a_node6"><a xlink:href="classblitzdg_1_1CSCMat.html#a10225fa24f960187226b9a3a3628303e" target="_top" xlink:title="Provides read&#45;write access to the kth row index.">
<polygon fill="white" stroke="black" points="149,-56.5 149,-75.5 279,-75.5 279,-56.5 149,-56.5"/>
<text text-anchor="middle" x="214" y="-63.5" font-family="Helvetica,sans-Serif" font-size="10.00">blitzdg::CSCMat::rowInds</text>
</a>
</g>
</g>
<!-- Node1&#45;&gt;Node6 -->
<g id="edge6" class="edge"><title>Node1&#45;&gt;Node6</title>
<path fill="none" stroke="midnightblue" d="M113.2,-90.3885C129.799,-86.3322 147.859,-81.9187 163.996,-77.9752"/>
<polygon fill="midnightblue" stroke="midnightblue" points="164.882,-81.3618 173.765,-75.5879 163.22,-74.5619 164.882,-81.3618"/>
</g>
<!-- Node7 -->
<g id="node7" class="node"><title>Node7</title>
<g id="a_node7"><a xlink:href="CSCMatrix_8hpp.html#a5867556d69e744f932c8774703236fe2" target="_top" xlink:title="Returns the transpose of a CSC matrix.">
<polygon fill="white" stroke="black" points="167,-0.5 167,-19.5 261,-19.5 261,-0.5 167,-0.5"/>
<text text-anchor="middle" x="214" y="-7.5" font-family="Helvetica,sans-Serif" font-size="10.00">blitzdg::transpose</text>
</a>
</g>
</g>
<!-- Node1&#45;&gt;Node7 -->
<g id="edge7" class="edge"><title>Node1&#45;&gt;Node7</title>
<path fill="none" stroke="midnightblue" d="M81.4483,-88.7811C99.8305,-77.1725 125.893,-60.8713 149,-47 161.503,-39.4942 175.515,-31.3622 187.234,-24.6386"/>
<polygon fill="midnightblue" stroke="midnightblue" points="189.124,-27.5896 196.068,-19.5872 185.649,-21.513 189.124,-27.5896"/>
</g>
<!-- Node4&#45;&gt;Node4 -->
<g id="edge5" class="edge"><title>Node4&#45;&gt;Node4</title>
<path fill="none" stroke="midnightblue" d="M189.956,-113.757C178.259,-122.565 186.273,-132 214,-132 232.196,-132 241.902,-127.937 243.119,-122.654"/>
<polygon fill="midnightblue" stroke="midnightblue" points="246.039,-120.709 238.044,-113.757 239.959,-124.177 246.039,-120.709"/>
</g>
<!-- Node5 -->
<g id="node5" class="node"><title>Node5</title>
<g id="a_node5"><a xlink:href="classblitzdg_1_1CSCMat.html#a2197e4253539671e4971f82a974de37d" target="_top" xlink:title="Provides access to the underlying raw pointer that points to the managed cs_di object.">
<polygon fill="white" stroke="black" points="315,-47.5 315,-66.5 440,-66.5 440,-47.5 315,-47.5"/>
<text text-anchor="middle" x="377.5" y="-54.5" font-family="Helvetica,sans-Serif" font-size="10.00">blitzdg::CSCMat::matPtr</text>
</a>
</g>
</g>
<!-- Node4&#45;&gt;Node5 -->
<g id="edge4" class="edge"><title>Node4&#45;&gt;Node5</title>
<path fill="none" stroke="midnightblue" d="M247.682,-94.4888C272.446,-87.2821 306.692,-77.3156 333.65,-69.4703"/>
<polygon fill="midnightblue" stroke="midnightblue" points="334.966,-72.7325 343.59,-66.5776 333.01,-66.0113 334.966,-72.7325"/>
</g>
<!-- Node7&#45;&gt;Node5 -->
<g id="edge8" class="edge"><title>Node7&#45;&gt;Node5</title>
<path fill="none" stroke="midnightblue" d="M247.682,-19.5112C272.446,-26.7179 306.692,-36.6844 333.65,-44.5297"/>
<polygon fill="midnightblue" stroke="midnightblue" points="333.01,-47.9887 343.59,-47.4224 334.966,-41.2675 333.01,-47.9887"/>
</g>
<!-- Node7&#45;&gt;Node7 -->
<g id="edge9" class="edge"><title>Node7&#45;&gt;Node7</title>
<path fill="none" stroke="midnightblue" d="M189.956,-19.7571C178.259,-28.5653 186.273,-38 214,-38 232.196,-38 241.902,-33.9368 243.119,-28.6539"/>
<polygon fill="midnightblue" stroke="midnightblue" points="246.039,-26.7091 238.044,-19.7571 239.959,-30.1775 246.039,-26.7091"/>
</g>
</g>
</svg>
