<?xml version="1.0" encoding="UTF-8" standalone="no"?>
<!DOCTYPE svg PUBLIC "-//W3C//DTD SVG 1.1//EN"
 "http://www.w3.org/Graphics/SVG/1.1/DTD/svg11.dtd">
<!-- Generated by graphviz version 2.38.0 (20140413.2041)
 -->
<!-- Title: blitzdg::LUSolver::solve Pages: 1 -->
<svg width="272pt" height="104pt"
 viewBox="0.00 0.00 272.00 104.00" xmlns="http://www.w3.org/2000/svg" xmlns:xlink="http://www.w3.org/1999/xlink">
<g id="graph0" class="graph" transform="scale(1 1) rotate(0) translate(4 100)">
<title>blitzdg::LUSolver::solve</title>
<polygon fill="white" stroke="none" points="-4,4 -4,-100 268,-100 268,4 -4,4"/>
<!-- Node1 -->
<g id="node1" class="node"><title>Node1</title>
<g id="a_node1"><a xlink:title="Solves the linear system A*soln = rhs.">
<polygon fill="#bfbfbf" stroke="black" points="0,-33 0,-63 98,-63 98,-33 0,-33"/>
<text text-anchor="start" x="8" y="-51" font-family="Helvetica,sans-Serif" font-size="10.00">blitzdg::LUSolver::</text>
<text text-anchor="middle" x="49" y="-40" font-family="Helvetica,sans-Serif" font-size="10.00">solve</text>
</a>
</g>
</g>
<!-- Node2 -->
<g id="node2" class="node"><title>Node2</title>
<g id="a_node2"><a xlink:href="classblitzdg_1_1CSCMat.html#ac3cfc9336711481db047c7183d3d9ad2" target="_top" xlink:title="Provides read&#45;write access to the kth column pointer index.">
<polygon fill="white" stroke="black" points="136,-76.5 136,-95.5 262,-95.5 262,-76.5 136,-76.5"/>
<text text-anchor="middle" x="199" y="-83.5" font-family="Helvetica,sans-Serif" font-size="10.00">blitzdg::CSCMat::colPtrs</text>
</a>
</g>
</g>
<!-- Node1&#45;&gt;Node2 -->
<g id="edge1" class="edge"><title>Node1&#45;&gt;Node2</title>
<path fill="none" stroke="midnightblue" d="M98.0514,-60.3375C115.126,-64.7216 134.311,-69.6475 151.274,-74.0027"/>
<polygon fill="midnightblue" stroke="midnightblue" points="150.415,-77.3956 160.971,-76.4926 152.156,-70.6156 150.415,-77.3956"/>
</g>
<!-- Node3 -->
<g id="node3" class="node"><title>Node3</title>
<g id="a_node3"><a xlink:href="classblitzdg_1_1CSCMat.html#a172a6117183b30613657fd15add8c652" target="_top" xlink:title="Provides read&#45;write access to the kth nonzero element.">
<polygon fill="white" stroke="black" points="138,-38.5 138,-57.5 260,-57.5 260,-38.5 138,-38.5"/>
<text text-anchor="middle" x="199" y="-45.5" font-family="Helvetica,sans-Serif" font-size="10.00">blitzdg::CSCMat::elems</text>
</a>
</g>
</g>
<!-- Node1&#45;&gt;Node3 -->
<g id="edge2" class="edge"><title>Node1&#45;&gt;Node3</title>
<path fill="none" stroke="midnightblue" d="M98.0514,-48C107.448,-48 117.484,-48 127.436,-48"/>
<polygon fill="midnightblue" stroke="midnightblue" points="127.748,-51.5001 137.748,-48 127.748,-44.5001 127.748,-51.5001"/>
</g>
<!-- Node4 -->
<g id="node4" class="node"><title>Node4</title>
<g id="a_node4"><a xlink:href="classblitzdg_1_1CSCMat.html#a10225fa24f960187226b9a3a3628303e" target="_top" xlink:title="Provides read&#45;write access to the kth row index.">
<polygon fill="white" stroke="black" points="134,-0.5 134,-19.5 264,-19.5 264,-0.5 134,-0.5"/>
<text text-anchor="middle" x="199" y="-7.5" font-family="Helvetica,sans-Serif" font-size="10.00">blitzdg::CSCMat::rowInds</text>
</a>
</g>
</g>
<!-- Node1&#45;&gt;Node4 -->
<g id="edge3" class="edge"><title>Node1&#45;&gt;Node4</title>
<path fill="none" stroke="midnightblue" d="M98.0514,-35.6625C115.126,-31.2784 134.311,-26.3525 151.274,-21.9973"/>
<polygon fill="midnightblue" stroke="midnightblue" points="152.156,-25.3844 160.971,-19.5074 150.415,-18.6044 152.156,-25.3844"/>
</g>
</g>
</svg>
