<?xml version="1.0" encoding="UTF-8" standalone="no"?>
<!DOCTYPE svg PUBLIC "-//W3C//DTD SVG 1.1//EN"
 "http://www.w3.org/Graphics/SVG/1.1/DTD/svg11.dtd">
<!-- Generated by graphviz version 2.38.0 (20140413.2041)
 -->
<!-- Title: blitzdg::CSVFileReader::readLine Pages: 1 -->
<svg width="437pt" height="137pt"
 viewBox="0.00 0.00 437.00 137.00" xmlns="http://www.w3.org/2000/svg" xmlns:xlink="http://www.w3.org/1999/xlink">
<g id="graph0" class="graph" transform="scale(1 1) rotate(0) translate(4 133)">
<title>blitzdg::CSVFileReader::readLine</title>
<polygon fill="white" stroke="none" points="-4,4 -4,-133 433,-133 433,4 -4,4"/>
<!-- Node1 -->
<g id="node1" class="node"><title>Node1</title>
<g id="a_node1"><a xlink:title="Reads the next line of the file if possible.">
<polygon fill="#bfbfbf" stroke="black" points="310,-73.5 310,-103.5 429,-103.5 429,-73.5 310,-73.5"/>
<text text-anchor="start" x="318" y="-91.5" font-family="Helvetica,sans-Serif" font-size="10.00">blitzdg::CSVFileReader</text>
<text text-anchor="middle" x="369.5" y="-80.5" font-family="Helvetica,sans-Serif" font-size="10.00">::readLine</text>
</a>
</g>
</g>
<!-- Node2 -->
<g id="node2" class="node"><title>Node2</title>
<g id="a_node2"><a xlink:href="classblitzdg_1_1MeshManager.html#ab6025c59ed3f2aec2e61728e1b18838f" target="_top" xlink:title="Reads a .msh file that was generated by Gmsh.">
<polygon fill="white" stroke="black" points="3,-98.5 3,-128.5 116,-128.5 116,-98.5 3,-98.5"/>
<text text-anchor="start" x="11" y="-116.5" font-family="Helvetica,sans-Serif" font-size="10.00">blitzdg::MeshManager</text>
<text text-anchor="middle" x="59.5" y="-105.5" font-family="Helvetica,sans-Serif" font-size="10.00">::readMesh</text>
</a>
</g>
</g>
<!-- Node1&#45;&gt;Node2 -->
<g id="edge1" class="edge"><title>Node1&#45;&gt;Node2</title>
<path fill="none" stroke="midnightblue" d="M299.768,-94.0789C244.418,-98.5716 167.608,-104.806 116.088,-108.988"/>
<polygon fill="midnightblue" stroke="midnightblue" points="300.159,-97.5588 309.843,-93.2612 299.592,-90.5817 300.159,-97.5588"/>
</g>
<!-- Node3 -->
<g id="node3" class="node"><title>Node3</title>
<g id="a_node3"><a xlink:href="classblitzdg_1_1CSVFileReader.html#ae66738da8dc330360f4f50075f3c23b0" target="_top" xlink:title="Skips the file stream ahead by n lines or until the end&#45;of&#45;file is reached.">
<polygon fill="white" stroke="black" points="155,-50.5 155,-80.5 274,-80.5 274,-50.5 155,-50.5"/>
<text text-anchor="start" x="163" y="-68.5" font-family="Helvetica,sans-Serif" font-size="10.00">blitzdg::CSVFileReader</text>
<text text-anchor="middle" x="214.5" y="-57.5" font-family="Helvetica,sans-Serif" font-size="10.00">::skipLines</text>
</a>
</g>
</g>
<!-- Node1&#45;&gt;Node3 -->
<g id="edge2" class="edge"><title>Node1&#45;&gt;Node3</title>
<path fill="none" stroke="midnightblue" d="M299.787,-78.1706C291.197,-76.8793 282.475,-75.5681 274.059,-74.303"/>
<polygon fill="midnightblue" stroke="midnightblue" points="299.375,-81.6478 309.784,-79.6734 300.415,-74.7256 299.375,-81.6478"/>
</g>
<!-- Node3&#45;&gt;Node2 -->
<g id="edge4" class="edge"><title>Node3&#45;&gt;Node2</title>
<path fill="none" stroke="midnightblue" d="M155.913,-83.5665C140.224,-88.4886 123.402,-93.7659 108.32,-98.4976"/>
<polygon fill="midnightblue" stroke="midnightblue" points="157.016,-86.8888 165.51,-80.5558 154.92,-80.2098 157.016,-86.8888"/>
</g>
<!-- Node4 -->
<g id="node4" class="node"><title>Node4</title>
<g id="a_node4"><a xlink:href="classblitzdg_1_1CSVFileReader.html#a69a326b8ae8ee75cf3aaf20d91a21ec8" target="_top" xlink:title="Closes any currently open file and opens the csv file with path filename.">
<polygon fill="white" stroke="black" points="0,-49.5 0,-79.5 119,-79.5 119,-49.5 0,-49.5"/>
<text text-anchor="start" x="8" y="-67.5" font-family="Helvetica,sans-Serif" font-size="10.00">blitzdg::CSVFileReader</text>
<text text-anchor="middle" x="59.5" y="-56.5" font-family="Helvetica,sans-Serif" font-size="10.00">::openFile</text>
</a>
</g>
</g>
<!-- Node3&#45;&gt;Node4 -->
<g id="edge3" class="edge"><title>Node3&#45;&gt;Node4</title>
<path fill="none" stroke="midnightblue" d="M144.507,-65.0491C136.007,-64.9935 127.383,-64.9371 119.059,-64.8827"/>
<polygon fill="midnightblue" stroke="midnightblue" points="144.761,-68.5507 154.784,-65.1162 144.807,-61.5509 144.761,-68.5507"/>
</g>
<!-- Node5 -->
<g id="node5" class="node"><title>Node5</title>
<g id="a_node5"><a xlink:href="classblitzdg_1_1CSVFileReader.html#a50072d25b9bbbb22140361588b0373b5" target="_top" xlink:title="Returns the file stream to the start of line nskip.">
<polygon fill="white" stroke="black" points="0,-0.5 0,-30.5 119,-30.5 119,-0.5 0,-0.5"/>
<text text-anchor="start" x="8" y="-18.5" font-family="Helvetica,sans-Serif" font-size="10.00">blitzdg::CSVFileReader</text>
<text text-anchor="middle" x="59.5" y="-7.5" font-family="Helvetica,sans-Serif" font-size="10.00">::setToStart</text>
</a>
</g>
</g>
<!-- Node3&#45;&gt;Node5 -->
<g id="edge5" class="edge"><title>Node3&#45;&gt;Node5</title>
<path fill="none" stroke="midnightblue" d="M157.884,-47.3248C141.058,-41.826 122.772,-35.8502 106.637,-30.5774"/>
<polygon fill="midnightblue" stroke="midnightblue" points="157.002,-50.7188 167.595,-50.4984 159.177,-44.0651 157.002,-50.7188"/>
</g>
</g>
</svg>
