<?xml version="1.0" encoding="UTF-8" standalone="no"?>
<!DOCTYPE svg PUBLIC "-//W3C//DTD SVG 1.1//EN"
 "http://www.w3.org/Graphics/SVG/1.1/DTD/svg11.dtd">
<!-- Generated by graphviz version 2.38.0 (20140413.2041)
 -->
<!-- Title: blitzdg::GMRESSolver::solve Pages: 1 -->
<svg width="308pt" height="102pt"
 viewBox="0.00 0.00 308.00 102.00" xmlns="http://www.w3.org/2000/svg" xmlns:xlink="http://www.w3.org/1999/xlink">
<g id="graph0" class="graph" transform="scale(1 1) rotate(0) translate(4 98)">
<title>blitzdg::GMRESSolver::solve</title>
<polygon fill="white" stroke="none" points="-4,4 -4,-98 304,-98 304,4 -4,4"/>
<!-- Node1 -->
<g id="node1" class="node"><title>Node1</title>
<g id="a_node1"><a xlink:title="Calls GMRES to solves the linear system .">
<polygon fill="#bfbfbf" stroke="black" points="0,-23 0,-53 116,-53 116,-23 0,-23"/>
<text text-anchor="start" x="8" y="-41" font-family="Helvetica,sans-Serif" font-size="10.00">blitzdg::GMRESSolver</text>
<text text-anchor="middle" x="58" y="-30" font-family="Helvetica,sans-Serif" font-size="10.00">::solve</text>
</a>
</g>
</g>
<!-- Node2 -->
<g id="node2" class="node"><title>Node2</title>
<g id="a_node2"><a xlink:href="GMRESSolver_8hpp.html#ab70e5e5b582121c2bf78c1583d175773" target="_top" xlink:title="Checks the parameters in GMRESParams and throws an std::invalid_argument exception if any are out of ...">
<polygon fill="white" stroke="black" points="152,-56.5 152,-75.5 300,-75.5 300,-56.5 152,-56.5"/>
<text text-anchor="middle" x="226" y="-63.5" font-family="Helvetica,sans-Serif" font-size="10.00">blitzdg::checkGMRESParams</text>
</a>
</g>
</g>
<!-- Node1&#45;&gt;Node2 -->
<g id="edge1" class="edge"><title>Node1&#45;&gt;Node2</title>
<path fill="none" stroke="midnightblue" d="M116.128,-47.636C129.787,-49.94 144.486,-52.4193 158.527,-54.7876"/>
<polygon fill="midnightblue" stroke="midnightblue" points="158.167,-58.2763 168.61,-56.4884 159.331,-51.3738 158.167,-58.2763"/>
</g>
<!-- Node3 -->
<g id="node3" class="node"><title>Node3</title>
<g id="a_node3"><a xlink:href="LinAlgHelpers_8hpp.html#abce608c7df03c93d3ee7e1ed596c15a1" target="_top" xlink:title="Returns the two&#45;norm of a vector x.">
<polygon fill="white" stroke="black" points="187,-0.5 187,-19.5 265,-19.5 265,-0.5 187,-0.5"/>
<text text-anchor="middle" x="226" y="-7.5" font-family="Helvetica,sans-Serif" font-size="10.00">blitzdg::norm2</text>
</a>
</g>
</g>
<!-- Node1&#45;&gt;Node3 -->
<g id="edge3" class="edge"><title>Node1&#45;&gt;Node3</title>
<path fill="none" stroke="midnightblue" d="M116.128,-28.364C135.923,-25.0251 157.899,-21.3183 176.894,-18.1142"/>
<polygon fill="midnightblue" stroke="midnightblue" points="177.538,-21.5551 186.817,-16.4405 176.374,-14.6526 177.538,-21.5551"/>
</g>
<!-- Node2&#45;&gt;Node2 -->
<g id="edge2" class="edge"><title>Node2&#45;&gt;Node2</title>
<path fill="none" stroke="midnightblue" d="M200.106,-75.7571C187.509,-84.5653 196.141,-94 226,-94 246.062,-94 256.541,-89.741 257.437,-84.2746"/>
<polygon fill="midnightblue" stroke="midnightblue" points="260.282,-82.2291 251.894,-75.7571 254.415,-86.0475 260.282,-82.2291"/>
</g>
<!-- Node3&#45;&gt;Node3 -->
<g id="edge4" class="edge"><title>Node3&#45;&gt;Node3</title>
<path fill="none" stroke="midnightblue" d="M200.106,-19.7571C187.509,-28.5653 196.141,-38 226,-38 246.062,-38 256.541,-33.741 257.437,-28.2746"/>
<polygon fill="midnightblue" stroke="midnightblue" points="260.282,-26.2291 251.894,-19.7571 254.415,-30.0475 260.282,-26.2291"/>
</g>
</g>
</svg>
