<?xml version="1.0" encoding="UTF-8" standalone="no"?>
<!DOCTYPE svg PUBLIC "-//W3C//DTD SVG 1.1//EN"
 "http://www.w3.org/Graphics/SVG/1.1/DTD/svg11.dtd">
<!-- Generated by graphviz version 2.38.0 (20140413.2041)
 -->
<!-- Title: blitzdg::TriangleNodesProvisioner::buildBCHash Pages: 1 -->
<svg width="473pt" height="52pt"
 viewBox="0.00 0.00 473.00 51.50" xmlns="http://www.w3.org/2000/svg" xmlns:xlink="http://www.w3.org/1999/xlink">
<g id="graph0" class="graph" transform="scale(1 1) rotate(0) translate(4 47.5)">
<title>blitzdg::TriangleNodesProvisioner::buildBCHash</title>
<polygon fill="white" stroke="none" points="-4,4 -4,-47.5 469,-47.5 469,4 -4,4"/>
<!-- Node1 -->
<g id="node1" class="node"><title>Node1</title>
<g id="a_node1"><a xlink:title="Build hashmap mapping BCTypes to node indices that are on that boundary using the input BCType table.">
<polygon fill="#bfbfbf" stroke="black" points="0,-0.5 0,-30.5 163,-30.5 163,-0.5 0,-0.5"/>
<text text-anchor="start" x="8" y="-18.5" font-family="Helvetica,sans-Serif" font-size="10.00">blitzdg::TriangleNodesProvisioner</text>
<text text-anchor="middle" x="81.5" y="-7.5" font-family="Helvetica,sans-Serif" font-size="10.00">::buildBCHash</text>
</a>
</g>
</g>
<!-- Node2 -->
<g id="node2" class="node"><title>Node2</title>
<g id="a_node2"><a xlink:href="BlitzHelpers_8hpp.html#a11524766470643376a34bedb9b22678b" target="_top" xlink:title="Convert a blitz matrix to a vector.">
<polygon fill="white" stroke="black" points="199,-6 199,-25 303,-25 303,-6 199,-6"/>
<text text-anchor="middle" x="251" y="-13" font-family="Helvetica,sans-Serif" font-size="10.00">blitzdg::fullToVector</text>
</a>
</g>
</g>
<!-- Node1&#45;&gt;Node2 -->
<g id="edge1" class="edge"><title>Node1&#45;&gt;Node2</title>
<path fill="none" stroke="midnightblue" d="M163.306,-15.5C171.777,-15.5 180.287,-15.5 188.491,-15.5"/>
<polygon fill="midnightblue" stroke="midnightblue" points="188.692,-19.0001 198.692,-15.5 188.692,-12.0001 188.692,-19.0001"/>
</g>
<!-- Node2&#45;&gt;Node2 -->
<g id="edge2" class="edge"><title>Node2&#45;&gt;Node2</title>
<path fill="none" stroke="midnightblue" d="M227.881,-25.2571C216.633,-34.0653 224.34,-43.5 251,-43.5 268.496,-43.5 277.829,-39.4368 278.999,-34.1539"/>
<polygon fill="midnightblue" stroke="midnightblue" points="281.997,-32.3417 274.119,-25.2571 275.86,-35.708 281.997,-32.3417"/>
</g>
<!-- Node3 -->
<g id="node3" class="node"><title>Node3</title>
<g id="a_node3"><a xlink:href="BlitzHelpers_8hpp.html#aaa66bfe8cd7c9adad27aa42f765c980b" target="_top" xlink:title="Vectorizes a dense matrix by writing it to an array.">
<polygon fill="white" stroke="black" points="339,-6 339,-25 465,-25 465,-6 339,-6"/>
<text text-anchor="middle" x="402" y="-13" font-family="Helvetica,sans-Serif" font-size="10.00">blitzdg::reshapeMatTo1D</text>
</a>
</g>
</g>
<!-- Node2&#45;&gt;Node3 -->
<g id="edge3" class="edge"><title>Node2&#45;&gt;Node3</title>
<path fill="none" stroke="midnightblue" d="M303.277,-15.5C311.506,-15.5 320.155,-15.5 328.763,-15.5"/>
<polygon fill="midnightblue" stroke="midnightblue" points="328.822,-19.0001 338.822,-15.5 328.822,-12.0001 328.822,-19.0001"/>
</g>
<!-- Node3&#45;&gt;Node3 -->
<g id="edge4" class="edge"><title>Node3&#45;&gt;Node3</title>
<path fill="none" stroke="midnightblue" d="M378.881,-25.2571C367.633,-34.0653 375.34,-43.5 402,-43.5 419.496,-43.5 428.829,-39.4368 429.999,-34.1539"/>
<polygon fill="midnightblue" stroke="midnightblue" points="432.997,-32.3417 425.119,-25.2571 426.86,-35.708 432.997,-32.3417"/>
</g>
</g>
</svg>
