<?xml version="1.0" encoding="UTF-8" standalone="no"?>
<!DOCTYPE svg PUBLIC "-//W3C//DTD SVG 1.1//EN"
 "http://www.w3.org/Graphics/SVG/1.1/DTD/svg11.dtd">
<!-- Generated by graphviz version 2.38.0 (20140413.2041)
 -->
<!-- Title: blitzdg::TriangleNodesProvisioner::buildMaps Pages: 1 -->
<svg width="333pt" height="243pt"
 viewBox="0.00 0.00 333.00 242.50" xmlns="http://www.w3.org/2000/svg" xmlns:xlink="http://www.w3.org/1999/xlink">
<g id="graph0" class="graph" transform="scale(1 1) rotate(0) translate(4 238.5)">
<title>blitzdg::TriangleNodesProvisioner::buildMaps</title>
<polygon fill="white" stroke="none" points="-4,4 -4,-238.5 329,-238.5 329,4 -4,4"/>
<!-- Node1 -->
<g id="node1" class="node"><title>Node1</title>
<g id="a_node1"><a xlink:title="Build volume&#45;to&#45;surface maps for &#39;&#45;&#39; and &#39;+&#39; traces, as well as for BC faces.">
<polygon fill="#bfbfbf" stroke="black" points="0,-106 0,-136 163,-136 163,-106 0,-106"/>
<text text-anchor="start" x="8" y="-124" font-family="Helvetica,sans-Serif" font-size="10.00">blitzdg::TriangleNodesProvisioner</text>
<text text-anchor="middle" x="81.5" y="-113" font-family="Helvetica,sans-Serif" font-size="10.00">::buildMaps</text>
</a>
</g>
</g>
<!-- Node2 -->
<g id="node2" class="node"><title>Node2</title>
<g id="a_node2"><a xlink:href="classblitzdg_1_1MeshManager.html#a913a20fecd751355bb976fe46e110e31" target="_top" xlink:title="Returns a reference to the array of element indices.">
<polygon fill="white" stroke="black" points="205.5,-204 205.5,-234 318.5,-234 318.5,-204 205.5,-204"/>
<text text-anchor="start" x="213.5" y="-222" font-family="Helvetica,sans-Serif" font-size="10.00">blitzdg::MeshManager</text>
<text text-anchor="middle" x="262" y="-211" font-family="Helvetica,sans-Serif" font-size="10.00">::get_Elements</text>
</a>
</g>
</g>
<!-- Node1&#45;&gt;Node2 -->
<g id="edge1" class="edge"><title>Node1&#45;&gt;Node2</title>
<path fill="none" stroke="midnightblue" d="M103.651,-136.232C126.439,-152.208 164.136,-177.395 199,-195 202.339,-196.686 205.826,-198.33 209.37,-199.915"/>
<polygon fill="midnightblue" stroke="midnightblue" points="208.252,-203.244 218.823,-203.963 211.008,-196.809 208.252,-203.244"/>
</g>
<!-- Node3 -->
<g id="node3" class="node"><title>Node3</title>
<g id="a_node3"><a xlink:href="classblitzdg_1_1MeshManager.html#acece09c4eee14812e9183456d57335e3" target="_top" xlink:title="Returns element&#45;to&#45;element connectivity table.">
<polygon fill="white" stroke="black" points="205.5,-155 205.5,-185 318.5,-185 318.5,-155 205.5,-155"/>
<text text-anchor="start" x="213.5" y="-173" font-family="Helvetica,sans-Serif" font-size="10.00">blitzdg::MeshManager</text>
<text text-anchor="middle" x="262" y="-162" font-family="Helvetica,sans-Serif" font-size="10.00">::get_EToE</text>
</a>
</g>
</g>
<!-- Node1&#45;&gt;Node3 -->
<g id="edge2" class="edge"><title>Node1&#45;&gt;Node3</title>
<path fill="none" stroke="midnightblue" d="M137.512,-136.101C156.093,-141.202 177.006,-146.943 196.268,-152.23"/>
<polygon fill="midnightblue" stroke="midnightblue" points="195.599,-155.676 206.169,-154.948 197.453,-148.926 195.599,-155.676"/>
</g>
<!-- Node4 -->
<g id="node4" class="node"><title>Node4</title>
<g id="a_node4"><a xlink:href="classblitzdg_1_1MeshManager.html#a3441dc858cb938b971107b63bf4e23d9" target="_top" xlink:title="Return element&#45;to&#45;face connectivity table.">
<polygon fill="white" stroke="black" points="205.5,-106 205.5,-136 318.5,-136 318.5,-106 205.5,-106"/>
<text text-anchor="start" x="213.5" y="-124" font-family="Helvetica,sans-Serif" font-size="10.00">blitzdg::MeshManager</text>
<text text-anchor="middle" x="262" y="-113" font-family="Helvetica,sans-Serif" font-size="10.00">::get_EToF</text>
</a>
</g>
</g>
<!-- Node1&#45;&gt;Node4 -->
<g id="edge3" class="edge"><title>Node1&#45;&gt;Node4</title>
<path fill="none" stroke="midnightblue" d="M163.133,-121C173.874,-121 184.782,-121 195.228,-121"/>
<polygon fill="midnightblue" stroke="midnightblue" points="195.498,-124.5 205.498,-121 195.498,-117.5 195.498,-124.5"/>
</g>
<!-- Node5 -->
<g id="node5" class="node"><title>Node5</title>
<g id="a_node5"><a xlink:href="classblitzdg_1_1MeshManager.html#a8e05524006b4a0fe4abb1c0ec957b9b6" target="_top" xlink:title="Returns a reference to the array of vertex coordinates.">
<polygon fill="white" stroke="black" points="205.5,-57 205.5,-87 318.5,-87 318.5,-57 205.5,-57"/>
<text text-anchor="start" x="213.5" y="-75" font-family="Helvetica,sans-Serif" font-size="10.00">blitzdg::MeshManager</text>
<text text-anchor="middle" x="262" y="-64" font-family="Helvetica,sans-Serif" font-size="10.00">::get_Vertices</text>
</a>
</g>
</g>
<!-- Node1&#45;&gt;Node5 -->
<g id="edge4" class="edge"><title>Node1&#45;&gt;Node5</title>
<path fill="none" stroke="midnightblue" d="M137.512,-105.899C156.093,-100.798 177.006,-95.0571 196.268,-89.7695"/>
<polygon fill="midnightblue" stroke="midnightblue" points="197.453,-93.074 206.169,-87.0516 195.599,-86.3237 197.453,-93.074"/>
</g>
<!-- Node6 -->
<g id="node6" class="node"><title>Node6</title>
<g id="a_node6"><a xlink:href="BlitzHelpers_8hpp.html#aaa66bfe8cd7c9adad27aa42f765c980b" target="_top" xlink:title="Vectorizes a dense matrix by writing it to an array.">
<polygon fill="white" stroke="black" points="199,-0.5 199,-19.5 325,-19.5 325,-0.5 199,-0.5"/>
<text text-anchor="middle" x="262" y="-7.5" font-family="Helvetica,sans-Serif" font-size="10.00">blitzdg::reshapeMatTo1D</text>
</a>
</g>
</g>
<!-- Node1&#45;&gt;Node6 -->
<g id="edge5" class="edge"><title>Node1&#45;&gt;Node6</title>
<path fill="none" stroke="midnightblue" d="M106.554,-105.831C130.08,-91.017 166.945,-67.8658 199,-48 211.363,-40.3385 225.154,-31.8771 236.585,-24.8873"/>
<polygon fill="midnightblue" stroke="midnightblue" points="238.465,-27.8404 245.174,-19.6405 234.816,-21.8668 238.465,-27.8404"/>
</g>
<!-- Node6&#45;&gt;Node6 -->
<g id="edge6" class="edge"><title>Node6&#45;&gt;Node6</title>
<path fill="none" stroke="midnightblue" d="M234.257,-19.7571C220.76,-28.5653 230.008,-38 262,-38 283.995,-38 295.239,-33.5406 295.733,-27.8913"/>
<polygon fill="midnightblue" stroke="midnightblue" points="298.491,-25.7341 289.743,-19.7571 292.854,-29.8848 298.491,-25.7341"/>
</g>
</g>
</svg>
