<?xml version="1.0" encoding="UTF-8" standalone="no"?>
<!DOCTYPE svg PUBLIC "-//W3C//DTD SVG 1.1//EN"
 "http://www.w3.org/Graphics/SVG/1.1/DTD/svg11.dtd">
<!-- Generated by graphviz version 2.38.0 (20140413.2041)
 -->
<!-- Title: blitzdg::TriangleNodesProvisioner::rsToab Pages: 1 -->
<svg width="574pt" height="88pt"
 viewBox="0.00 0.00 574.00 88.00" xmlns="http://www.w3.org/2000/svg" xmlns:xlink="http://www.w3.org/1999/xlink">
<g id="graph0" class="graph" transform="scale(1 1) rotate(0) translate(4 84)">
<title>blitzdg::TriangleNodesProvisioner::rsToab</title>
<polygon fill="white" stroke="none" points="-4,4 -4,-84 570,-84 570,4 -4,4"/>
<!-- Node1 -->
<g id="node1" class="node"><title>Node1</title>
<g id="a_node1"><a xlink:title="Maps from (r,s) to (a,b) coordinates in the triangle.">
<polygon fill="#bfbfbf" stroke="black" points="403,-24.5 403,-54.5 566,-54.5 566,-24.5 403,-24.5"/>
<text text-anchor="start" x="411" y="-42.5" font-family="Helvetica,sans-Serif" font-size="10.00">blitzdg::TriangleNodesProvisioner</text>
<text text-anchor="middle" x="484.5" y="-31.5" font-family="Helvetica,sans-Serif" font-size="10.00">::rsToab</text>
</a>
</g>
</g>
<!-- Node2 -->
<g id="node2" class="node"><title>Node2</title>
<g id="a_node2"><a xlink:href="classblitzdg_1_1TriangleNodesProvisioner.html#ab72907f460709c6dd73846c302fb6d7b" target="_top" xlink:title="Computes the Gradient of the 2D Vandermonde matrix.">
<polygon fill="white" stroke="black" points="199,-49.5 199,-79.5 367,-79.5 367,-49.5 199,-49.5"/>
<text text-anchor="start" x="207" y="-67.5" font-family="Helvetica,sans-Serif" font-size="10.00">blitzdg::TriangleNodesProvisioner</text>
<text text-anchor="middle" x="283" y="-56.5" font-family="Helvetica,sans-Serif" font-size="10.00">::computeGradVandermondeMatrix</text>
</a>
</g>
</g>
<!-- Node1&#45;&gt;Node2 -->
<g id="edge1" class="edge"><title>Node1&#45;&gt;Node2</title>
<path fill="none" stroke="midnightblue" d="M392.912,-50.8518C384.329,-51.9274 375.655,-53.0144 367.147,-54.0806"/>
<polygon fill="midnightblue" stroke="midnightblue" points="393.444,-54.3127 402.931,-49.5964 392.573,-47.3671 393.444,-54.3127"/>
</g>
<!-- Node4 -->
<g id="node4" class="node"><title>Node4</title>
<g id="a_node4"><a xlink:href="classblitzdg_1_1TriangleNodesProvisioner.html#a6dd0ba9ce10a2b151d34a9f793e355b3" target="_top" xlink:title="Computes the 2D Vandermonde matrix which maps modal coefficients to nodal values.">
<polygon fill="white" stroke="black" points="201.5,-0.5 201.5,-30.5 364.5,-30.5 364.5,-0.5 201.5,-0.5"/>
<text text-anchor="start" x="209.5" y="-18.5" font-family="Helvetica,sans-Serif" font-size="10.00">blitzdg::TriangleNodesProvisioner</text>
<text text-anchor="middle" x="283" y="-7.5" font-family="Helvetica,sans-Serif" font-size="10.00">::computeVandermondeMatrix</text>
</a>
</g>
</g>
<!-- Node1&#45;&gt;Node4 -->
<g id="edge3" class="edge"><title>Node1&#45;&gt;Node4</title>
<path fill="none" stroke="midnightblue" d="M392.774,-28.5856C383.359,-27.453 373.837,-26.3075 364.546,-25.1897"/>
<polygon fill="midnightblue" stroke="midnightblue" points="392.584,-32.0879 402.931,-29.8075 393.42,-25.138 392.584,-32.0879"/>
</g>
<!-- Node3 -->
<g id="node3" class="node"><title>Node3</title>
<g id="a_node3"><a xlink:href="classblitzdg_1_1TriangleNodesProvisioner.html#aef7f798f38c69f237c124b92ce3af33b" target="_top" xlink:title="Build x and y coordinates and geometric factors.">
<polygon fill="white" stroke="black" points="0,-24.5 0,-54.5 163,-54.5 163,-24.5 0,-24.5"/>
<text text-anchor="start" x="8" y="-42.5" font-family="Helvetica,sans-Serif" font-size="10.00">blitzdg::TriangleNodesProvisioner</text>
<text text-anchor="middle" x="81.5" y="-31.5" font-family="Helvetica,sans-Serif" font-size="10.00">::buildPhysicalGrid</text>
</a>
</g>
</g>
<!-- Node2&#45;&gt;Node3 -->
<g id="edge2" class="edge"><title>Node2&#45;&gt;Node3</title>
<path fill="none" stroke="midnightblue" d="M188.856,-52.8278C180.313,-51.7573 171.706,-50.6787 163.286,-49.6236"/>
<polygon fill="midnightblue" stroke="midnightblue" points="188.481,-56.3081 198.839,-54.0788 189.351,-49.3624 188.481,-56.3081"/>
</g>
<!-- Node4&#45;&gt;Node3 -->
<g id="edge4" class="edge"><title>Node4&#45;&gt;Node3</title>
<path fill="none" stroke="midnightblue" d="M191.274,-26.4144C181.859,-27.547 172.337,-28.6925 163.046,-29.8103"/>
<polygon fill="midnightblue" stroke="midnightblue" points="191.92,-29.862 201.431,-25.1925 191.084,-22.9121 191.92,-29.862"/>
</g>
</g>
</svg>
