<?xml version="1.0" encoding="UTF-8" standalone="no"?>
<!DOCTYPE svg PUBLIC "-//W3C//DTD SVG 1.1//EN"
 "http://www.w3.org/Graphics/SVG/1.1/DTD/svg11.dtd">
<!-- Generated by graphviz version 2.38.0 (20140413.2041)
 -->
<!-- Title: blitzdg::JacobiBuilders::computeGaussLobottoPoints Pages: 1 -->
<svg width="643pt" height="102pt"
 viewBox="0.00 0.00 643.00 102.00" xmlns="http://www.w3.org/2000/svg" xmlns:xlink="http://www.w3.org/1999/xlink">
<g id="graph0" class="graph" transform="scale(1 1) rotate(0) translate(4 98)">
<title>blitzdg::JacobiBuilders::computeGaussLobottoPoints</title>
<polygon fill="white" stroke="none" points="-4,4 -4,-98 639,-98 639,4 -4,4"/>
<!-- Node1 -->
<g id="node1" class="node"><title>Node1</title>
<g id="a_node1"><a xlink:title="Computes the nodes of the Nth order Gauss&#45;Jacobi&#45;Lobotto quadrature rule with parameters &#160;and .">
<polygon fill="#bfbfbf" stroke="black" points="0,-23 0,-53 149,-53 149,-23 0,-23"/>
<text text-anchor="start" x="8" y="-41" font-family="Helvetica,sans-Serif" font-size="10.00">blitzdg::JacobiBuilders</text>
<text text-anchor="middle" x="74.5" y="-30" font-family="Helvetica,sans-Serif" font-size="10.00">::computeGaussLobottoPoints</text>
</a>
</g>
</g>
<!-- Node2 -->
<g id="node2" class="node"><title>Node2</title>
<g id="a_node2"><a xlink:href="classblitzdg_1_1JacobiBuilders.html#a6c06c7134e69c90790fe33e18dbd98a2" target="_top" xlink:title="Computes the nodes and weights of the Nth order Gauss&#45;Jacobi&#45;Lobotto quadrature rule with parameters ...">
<polygon fill="white" stroke="black" points="185,-23 185,-53 333,-53 333,-23 185,-23"/>
<text text-anchor="start" x="193" y="-41" font-family="Helvetica,sans-Serif" font-size="10.00">blitzdg::JacobiBuilders</text>
<text text-anchor="middle" x="259" y="-30" font-family="Helvetica,sans-Serif" font-size="10.00">::computeJacobiQuadWeights</text>
</a>
</g>
</g>
<!-- Node1&#45;&gt;Node2 -->
<g id="edge1" class="edge"><title>Node1&#45;&gt;Node2</title>
<path fill="none" stroke="midnightblue" d="M149.204,-38C157.665,-38 166.336,-38 174.909,-38"/>
<polygon fill="midnightblue" stroke="midnightblue" points="174.911,-41.5001 184.911,-38 174.911,-34.5001 174.911,-41.5001"/>
</g>
<!-- Node3 -->
<g id="node3" class="node"><title>Node3</title>
<g id="a_node3"><a xlink:href="classblitzdg_1_1EigenSolver.html#a67242ffc3a849bd20a497ae100b78495" target="_top" xlink:title="Computes the eigenvalues and eigenvectors of the symmetric matrix .">
<polygon fill="white" stroke="black" points="369,-23 369,-53 473,-53 473,-23 369,-23"/>
<text text-anchor="start" x="377" y="-41" font-family="Helvetica,sans-Serif" font-size="10.00">blitzdg::EigenSolver</text>
<text text-anchor="middle" x="421" y="-30" font-family="Helvetica,sans-Serif" font-size="10.00">::solve</text>
</a>
</g>
</g>
<!-- Node2&#45;&gt;Node3 -->
<g id="edge2" class="edge"><title>Node2&#45;&gt;Node3</title>
<path fill="none" stroke="midnightblue" d="M333.444,-38C341.877,-38 350.408,-38 358.659,-38"/>
<polygon fill="midnightblue" stroke="midnightblue" points="358.932,-41.5001 368.932,-38 358.932,-34.5001 358.932,-41.5001"/>
</g>
<!-- Node4 -->
<g id="node4" class="node"><title>Node4</title>
<g id="a_node4"><a xlink:href="BlitzHelpers_8hpp.html#a2b714b6a07df67f99846579b713a1581" target="_top" xlink:title="Reshapes an array to a dense matrix.">
<polygon fill="white" stroke="black" points="509,-56.5 509,-75.5 635,-75.5 635,-56.5 509,-56.5"/>
<text text-anchor="middle" x="572" y="-63.5" font-family="Helvetica,sans-Serif" font-size="10.00">blitzdg::reshape1DToMat</text>
</a>
</g>
</g>
<!-- Node3&#45;&gt;Node4 -->
<g id="edge3" class="edge"><title>Node3&#45;&gt;Node4</title>
<path fill="none" stroke="midnightblue" d="M473.277,-47.636C485.181,-49.8729 497.963,-52.275 510.231,-54.5804"/>
<polygon fill="midnightblue" stroke="midnightblue" points="509.91,-58.0813 520.385,-56.4884 511.203,-51.2017 509.91,-58.0813"/>
</g>
<!-- Node5 -->
<g id="node5" class="node"><title>Node5</title>
<g id="a_node5"><a xlink:href="BlitzHelpers_8hpp.html#aaa66bfe8cd7c9adad27aa42f765c980b" target="_top" xlink:title="Vectorizes a dense matrix by writing it to an array.">
<polygon fill="white" stroke="black" points="509,-0.5 509,-19.5 635,-19.5 635,-0.5 509,-0.5"/>
<text text-anchor="middle" x="572" y="-7.5" font-family="Helvetica,sans-Serif" font-size="10.00">blitzdg::reshapeMatTo1D</text>
</a>
</g>
</g>
<!-- Node3&#45;&gt;Node5 -->
<g id="edge5" class="edge"><title>Node3&#45;&gt;Node5</title>
<path fill="none" stroke="midnightblue" d="M473.277,-28.364C485.181,-26.1271 497.963,-23.725 510.231,-21.4196"/>
<polygon fill="midnightblue" stroke="midnightblue" points="511.203,-24.7983 520.385,-19.5116 509.91,-17.9187 511.203,-24.7983"/>
</g>
<!-- Node4&#45;&gt;Node4 -->
<g id="edge4" class="edge"><title>Node4&#45;&gt;Node4</title>
<path fill="none" stroke="midnightblue" d="M548.881,-75.7571C537.633,-84.5653 545.34,-94 572,-94 589.496,-94 598.829,-89.9368 599.999,-84.6539"/>
<polygon fill="midnightblue" stroke="midnightblue" points="602.997,-82.8417 595.119,-75.7571 596.86,-86.208 602.997,-82.8417"/>
</g>
<!-- Node5&#45;&gt;Node5 -->
<g id="edge6" class="edge"><title>Node5&#45;&gt;Node5</title>
<path fill="none" stroke="midnightblue" d="M548.881,-19.7571C537.633,-28.5653 545.34,-38 572,-38 589.496,-38 598.829,-33.9368 599.999,-28.6539"/>
<polygon fill="midnightblue" stroke="midnightblue" points="602.997,-26.8417 595.119,-19.7571 596.86,-30.208 602.997,-26.8417"/>
</g>
</g>
</svg>
