<?xml version="1.0" encoding="UTF-8" standalone="no"?>
<!DOCTYPE svg PUBLIC "-//W3C//DTD SVG 1.1//EN"
 "http://www.w3.org/Graphics/SVG/1.1/DTD/svg11.dtd">
<!-- Generated by graphviz version 2.38.0 (20140413.2041)
 -->
<!-- Title: blitzdg::VtkOutputter::writeFieldToFile Pages: 1 -->
<svg width="314pt" height="88pt"
 viewBox="0.00 0.00 314.00 88.00" xmlns="http://www.w3.org/2000/svg" xmlns:xlink="http://www.w3.org/1999/xlink">
<g id="graph0" class="graph" transform="scale(1 1) rotate(0) translate(4 84)">
<title>blitzdg::VtkOutputter::writeFieldToFile</title>
<polygon fill="white" stroke="none" points="-4,4 -4,-84 310,-84 310,4 -4,4"/>
<!-- Node1 -->
<g id="node1" class="node"><title>Node1</title>
<g id="a_node1"><a xlink:title="Writes a blitz array to plain&#45;text file.">
<polygon fill="#bfbfbf" stroke="black" points="0,-24.5 0,-54.5 107,-54.5 107,-24.5 0,-24.5"/>
<text text-anchor="start" x="8" y="-42.5" font-family="Helvetica,sans-Serif" font-size="10.00">blitzdg::VtkOutputter</text>
<text text-anchor="middle" x="53.5" y="-31.5" font-family="Helvetica,sans-Serif" font-size="10.00">::writeFieldToFile</text>
</a>
</g>
</g>
<!-- Node2 -->
<g id="node2" class="node"><title>Node2</title>
<g id="a_node2"><a xlink:href="classblitzdg_1_1TriangleNodesProvisioner.html#abf73ef82ccaf96b86276ad0d41f13173" target="_top" xlink:title="Returns a reference to a matrix whose jth column contains the x&#45;component of the local grid points fo...">
<polygon fill="white" stroke="black" points="143,-49.5 143,-79.5 306,-79.5 306,-49.5 143,-49.5"/>
<text text-anchor="start" x="151" y="-67.5" font-family="Helvetica,sans-Serif" font-size="10.00">blitzdg::TriangleNodesProvisioner</text>
<text text-anchor="middle" x="224.5" y="-56.5" font-family="Helvetica,sans-Serif" font-size="10.00">::get_xGrid</text>
</a>
</g>
</g>
<!-- Node1&#45;&gt;Node2 -->
<g id="edge1" class="edge"><title>Node1&#45;&gt;Node2</title>
<path fill="none" stroke="midnightblue" d="M107.046,-47.2731C115.283,-48.4916 123.995,-49.7803 132.797,-51.0824"/>
<polygon fill="midnightblue" stroke="midnightblue" points="132.348,-54.554 142.753,-52.5552 133.373,-47.6294 132.348,-54.554"/>
</g>
<!-- Node3 -->
<g id="node3" class="node"><title>Node3</title>
<g id="a_node3"><a xlink:href="classblitzdg_1_1TriangleNodesProvisioner.html#a839bf08bea396c14eb82078325df398f" target="_top" xlink:title="Returns a reference to a matrix whose jth column contains the y&#45;component of the local grid points fo...">
<polygon fill="white" stroke="black" points="143,-0.5 143,-30.5 306,-30.5 306,-0.5 143,-0.5"/>
<text text-anchor="start" x="151" y="-18.5" font-family="Helvetica,sans-Serif" font-size="10.00">blitzdg::TriangleNodesProvisioner</text>
<text text-anchor="middle" x="224.5" y="-7.5" font-family="Helvetica,sans-Serif" font-size="10.00">::get_yGrid</text>
</a>
</g>
</g>
<!-- Node1&#45;&gt;Node3 -->
<g id="edge2" class="edge"><title>Node1&#45;&gt;Node3</title>
<path fill="none" stroke="midnightblue" d="M107.046,-32.0378C115.283,-30.8681 123.995,-29.6309 132.797,-28.3809"/>
<polygon fill="midnightblue" stroke="midnightblue" points="133.344,-31.8384 142.753,-26.967 132.36,-24.9079 133.344,-31.8384"/>
</g>
</g>
</svg>
