<?xml version="1.0" encoding="UTF-8" standalone="no"?>
<!DOCTYPE svg PUBLIC "-//W3C//DTD SVG 1.1//EN"
 "http://www.w3.org/Graphics/SVG/1.1/DTD/svg11.dtd">
<!-- Generated by graphviz version 2.38.0 (20140413.2041)
 -->
<!-- Title: blitzdg::DenseMatrixInverter::computeInverse Pages: 1 -->
<svg width="944pt" height="137pt"
 viewBox="0.00 0.00 944.00 137.00" xmlns="http://www.w3.org/2000/svg" xmlns:xlink="http://www.w3.org/1999/xlink">
<g id="graph0" class="graph" transform="scale(1 1) rotate(0) translate(4 133)">
<title>blitzdg::DenseMatrixInverter::computeInverse</title>
<polygon fill="white" stroke="none" points="-4,4 -4,-133 940,-133 940,4 -4,4"/>
<!-- Node1 -->
<g id="node1" class="node"><title>Node1</title>
<g id="a_node1"><a xlink:title="Inverts the dense matrix .">
<polygon fill="#bfbfbf" stroke="black" points="796,-24.5 796,-54.5 936,-54.5 936,-24.5 796,-24.5"/>
<text text-anchor="start" x="804" y="-42.5" font-family="Helvetica,sans-Serif" font-size="10.00">blitzdg::DenseMatrixInverter</text>
<text text-anchor="middle" x="866" y="-31.5" font-family="Helvetica,sans-Serif" font-size="10.00">::computeInverse</text>
</a>
</g>
</g>
<!-- Node2 -->
<g id="node2" class="node"><title>Node2</title>
<g id="a_node2"><a xlink:href="classblitzdg_1_1VandermondeBuilders.html#af1b51b21a630ecefbe8f001cbbcf00d1" target="_top" xlink:title="Computes the Vandermonde matrix which maps modal coefficients to nodal values.">
<polygon fill="white" stroke="black" points="605,-49.5 605,-79.5 752,-79.5 752,-49.5 605,-49.5"/>
<text text-anchor="start" x="613" y="-67.5" font-family="Helvetica,sans-Serif" font-size="10.00">blitzdg::VandermondeBuilders</text>
<text text-anchor="middle" x="678.5" y="-56.5" font-family="Helvetica,sans-Serif" font-size="10.00">::computeVandermondeMatrix</text>
</a>
</g>
</g>
<!-- Node1&#45;&gt;Node2 -->
<g id="edge1" class="edge"><title>Node1&#45;&gt;Node2</title>
<path fill="none" stroke="midnightblue" d="M785.745,-50.1812C774.556,-51.6892 763.1,-53.2332 752.045,-54.723"/>
<polygon fill="midnightblue" stroke="midnightblue" points="786.484,-53.6134 795.927,-48.8091 785.549,-46.6762 786.484,-53.6134"/>
</g>
<!-- Node7 -->
<g id="node7" class="node"><title>Node7</title>
<g id="a_node7"><a xlink:href="classblitzdg_1_1TriangleNodesProvisioner.html#a6dd0ba9ce10a2b151d34a9f793e355b3" target="_top" xlink:title="Computes the 2D Vandermonde matrix which maps modal coefficients to nodal values.">
<polygon fill="white" stroke="black" points="597,-0.5 597,-30.5 760,-30.5 760,-0.5 597,-0.5"/>
<text text-anchor="start" x="605" y="-18.5" font-family="Helvetica,sans-Serif" font-size="10.00">blitzdg::TriangleNodesProvisioner</text>
<text text-anchor="middle" x="678.5" y="-7.5" font-family="Helvetica,sans-Serif" font-size="10.00">::computeVandermondeMatrix</text>
</a>
</g>
</g>
<!-- Node1&#45;&gt;Node7 -->
<g id="edge6" class="edge"><title>Node1&#45;&gt;Node7</title>
<path fill="none" stroke="midnightblue" d="M785.997,-29.2786C777.461,-28.1741 768.766,-27.0492 760.21,-25.9422"/>
<polygon fill="midnightblue" stroke="midnightblue" points="785.56,-32.7512 795.927,-30.5633 786.458,-25.809 785.56,-32.7512"/>
</g>
<!-- Node3 -->
<g id="node3" class="node"><title>Node3</title>
<g id="a_node3"><a xlink:href="classblitzdg_1_1Nodes1DProvisioner.html#abe2340db4af5d25b8b0c5ada270fce5c" target="_top" xlink:title="Builds the nodes and all geometric factors for each element.">
<polygon fill="white" stroke="black" points="409,-98.5 409,-128.5 550,-128.5 550,-98.5 409,-98.5"/>
<text text-anchor="start" x="417" y="-116.5" font-family="Helvetica,sans-Serif" font-size="10.00">blitzdg::Nodes1DProvisioner</text>
<text text-anchor="middle" x="479.5" y="-105.5" font-family="Helvetica,sans-Serif" font-size="10.00">::buildNodes</text>
</a>
</g>
</g>
<!-- Node2&#45;&gt;Node3 -->
<g id="edge2" class="edge"><title>Node2&#45;&gt;Node3</title>
<path fill="none" stroke="midnightblue" d="M607.236,-81.9768C585.523,-87.3775 561.811,-93.2755 540.831,-98.4938"/>
<polygon fill="midnightblue" stroke="midnightblue" points="608.195,-85.345 617.055,-79.5346 606.506,-78.5519 608.195,-85.345"/>
</g>
<!-- Node4 -->
<g id="node4" class="node"><title>Node4</title>
<g id="a_node4"><a xlink:href="classblitzdg_1_1TriangleNodesProvisioner.html#a765fd7c797f8d1947d791f64d7b04270" target="_top" xlink:title="Computes geometric warp function for interior nodes.">
<polygon fill="white" stroke="black" points="398,-49.5 398,-79.5 561,-79.5 561,-49.5 398,-49.5"/>
<text text-anchor="start" x="406" y="-67.5" font-family="Helvetica,sans-Serif" font-size="10.00">blitzdg::TriangleNodesProvisioner</text>
<text text-anchor="middle" x="479.5" y="-56.5" font-family="Helvetica,sans-Serif" font-size="10.00">::computeWarpFactor</text>
</a>
</g>
</g>
<!-- Node2&#45;&gt;Node4 -->
<g id="edge3" class="edge"><title>Node2&#45;&gt;Node4</title>
<path fill="none" stroke="midnightblue" d="M594.844,-64.5C583.699,-64.5 572.276,-64.5 561.166,-64.5"/>
<polygon fill="midnightblue" stroke="midnightblue" points="594.984,-68.0001 604.984,-64.5 594.984,-61.0001 594.984,-68.0001"/>
</g>
<!-- Node5 -->
<g id="node5" class="node"><title>Node5</title>
<g id="a_node5"><a xlink:href="classblitzdg_1_1TriangleNodesProvisioner.html#acc359d3edf261edc8c5396d747f5b06c" target="_top" xlink:title="Compute (x,y) nodes in equilateral triangle for polynomial of order N.">
<polygon fill="white" stroke="black" points="199,-49.5 199,-79.5 362,-79.5 362,-49.5 199,-49.5"/>
<text text-anchor="start" x="207" y="-67.5" font-family="Helvetica,sans-Serif" font-size="10.00">blitzdg::TriangleNodesProvisioner</text>
<text text-anchor="middle" x="280.5" y="-56.5" font-family="Helvetica,sans-Serif" font-size="10.00">::computeEquilateralNodes</text>
</a>
</g>
</g>
<!-- Node4&#45;&gt;Node5 -->
<g id="edge4" class="edge"><title>Node4&#45;&gt;Node5</title>
<path fill="none" stroke="midnightblue" d="M387.785,-64.5C379.205,-64.5 370.546,-64.5 362.07,-64.5"/>
<polygon fill="midnightblue" stroke="midnightblue" points="387.804,-68.0001 397.804,-64.5 387.804,-61.0001 387.804,-68.0001"/>
</g>
<!-- Node6 -->
<g id="node6" class="node"><title>Node6</title>
<g id="a_node6"><a xlink:href="classblitzdg_1_1TriangleNodesProvisioner.html#a07a0a9e0808ee63eb8259212aff90518" target="_top" xlink:title="Builds nodes and local operators.">
<polygon fill="white" stroke="black" points="0,-49.5 0,-79.5 163,-79.5 163,-49.5 0,-49.5"/>
<text text-anchor="start" x="8" y="-67.5" font-family="Helvetica,sans-Serif" font-size="10.00">blitzdg::TriangleNodesProvisioner</text>
<text text-anchor="middle" x="81.5" y="-56.5" font-family="Helvetica,sans-Serif" font-size="10.00">::buildNodes</text>
</a>
</g>
</g>
<!-- Node5&#45;&gt;Node6 -->
<g id="edge5" class="edge"><title>Node5&#45;&gt;Node6</title>
<path fill="none" stroke="midnightblue" d="M188.785,-64.5C180.205,-64.5 171.546,-64.5 163.07,-64.5"/>
<polygon fill="midnightblue" stroke="midnightblue" points="188.804,-68.0001 198.804,-64.5 188.804,-61.0001 188.804,-68.0001"/>
</g>
<!-- Node8 -->
<g id="node8" class="node"><title>Node8</title>
<g id="a_node8"><a xlink:href="classblitzdg_1_1TriangleNodesProvisioner.html#aef7f798f38c69f237c124b92ce3af33b" target="_top" xlink:title="Build x and y coordinates and geometric factors.">
<polygon fill="white" stroke="black" points="398,-0.5 398,-30.5 561,-30.5 561,-0.5 398,-0.5"/>
<text text-anchor="start" x="406" y="-18.5" font-family="Helvetica,sans-Serif" font-size="10.00">blitzdg::TriangleNodesProvisioner</text>
<text text-anchor="middle" x="479.5" y="-7.5" font-family="Helvetica,sans-Serif" font-size="10.00">::buildPhysicalGrid</text>
</a>
</g>
</g>
<!-- Node7&#45;&gt;Node8 -->
<g id="edge7" class="edge"><title>Node7&#45;&gt;Node8</title>
<path fill="none" stroke="midnightblue" d="M586.785,-15.5C578.205,-15.5 569.546,-15.5 561.07,-15.5"/>
<polygon fill="midnightblue" stroke="midnightblue" points="586.804,-19.0001 596.804,-15.5 586.804,-12.0001 586.804,-19.0001"/>
</g>
</g>
</svg>
