<?xml version="1.0" encoding="UTF-8" standalone="no"?>
<!DOCTYPE svg PUBLIC "-//W3C//DTD SVG 1.1//EN"
 "http://www.w3.org/Graphics/SVG/1.1/DTD/svg11.dtd">
<!-- Generated by graphviz version 2.38.0 (20140413.2041)
 -->
<!-- Title: blitzdg::CSCMat::elems Pages: 1 -->
<svg width="413pt" height="127pt"
 viewBox="0.00 0.00 413.00 127.00" xmlns="http://www.w3.org/2000/svg" xmlns:xlink="http://www.w3.org/1999/xlink">
<g id="graph0" class="graph" transform="scale(1 1) rotate(0) translate(4 123)">
<title>blitzdg::CSCMat::elems</title>
<polygon fill="white" stroke="none" points="-4,4 -4,-123 409,-123 409,4 -4,4"/>
<!-- Node1 -->
<g id="node1" class="node"><title>Node1</title>
<g id="a_node1"><a xlink:title="Provides read&#45;write access to the kth nonzero element.">
<polygon fill="#bfbfbf" stroke="black" points="283,-50 283,-69 405,-69 405,-50 283,-50"/>
<text text-anchor="middle" x="344" y="-57" font-family="Helvetica,sans-Serif" font-size="10.00">blitzdg::CSCMat::elems</text>
</a>
</g>
</g>
<!-- Node2 -->
<g id="node2" class="node"><title>Node2</title>
<g id="a_node2"><a xlink:href="classblitzdg_1_1MeshManager.html#a45ae7ee8dac8fea878d0546cd5e78e10" target="_top" xlink:title="Build EToE and EToF connectivity tables.">
<polygon fill="white" stroke="black" points="134,-88.5 134,-118.5 247,-118.5 247,-88.5 134,-88.5"/>
<text text-anchor="start" x="142" y="-106.5" font-family="Helvetica,sans-Serif" font-size="10.00">blitzdg::MeshManager</text>
<text text-anchor="middle" x="190.5" y="-95.5" font-family="Helvetica,sans-Serif" font-size="10.00">::buildConnectivity</text>
</a>
</g>
</g>
<!-- Node1&#45;&gt;Node2 -->
<g id="edge1" class="edge"><title>Node1&#45;&gt;Node2</title>
<path fill="none" stroke="midnightblue" d="M300.114,-71.9553C282.464,-77.0813 261.862,-83.0649 243.373,-88.4346"/>
<polygon fill="midnightblue" stroke="midnightblue" points="301.5,-75.1976 310.127,-69.0473 299.547,-68.4753 301.5,-75.1976"/>
</g>
<!-- Node3 -->
<g id="node3" class="node"><title>Node3</title>
<g id="a_node3"><a xlink:href="CSCMatrix_8hpp.html#af412eb6a8ef06ec7d2e74abecc595962" target="_top" xlink:title="Writes the CSC matrix to the output stream in coordinate format (i, j, elem).">
<polygon fill="white" stroke="black" points="141.5,-50 141.5,-69 239.5,-69 239.5,-50 141.5,-50"/>
<text text-anchor="middle" x="190.5" y="-57" font-family="Helvetica,sans-Serif" font-size="10.00">blitzdg::operator&lt;&lt;</text>
</a>
</g>
</g>
<!-- Node1&#45;&gt;Node3 -->
<g id="edge2" class="edge"><title>Node1&#45;&gt;Node3</title>
<path fill="none" stroke="midnightblue" d="M272.611,-59.5C261.563,-59.5 250.361,-59.5 239.953,-59.5"/>
<polygon fill="midnightblue" stroke="midnightblue" points="272.688,-63.0001 282.688,-59.5 272.688,-56.0001 272.688,-63.0001"/>
</g>
<!-- Node5 -->
<g id="node5" class="node"><title>Node5</title>
<g id="a_node5"><a xlink:href="classblitzdg_1_1LUSolver.html#aeea8b9d3caa010c198cbc6e1bd0837fc" target="_top" xlink:title="Solves the linear system A*soln = rhs.">
<polygon fill="white" stroke="black" points="141.5,-0.5 141.5,-30.5 239.5,-30.5 239.5,-0.5 141.5,-0.5"/>
<text text-anchor="start" x="149.5" y="-18.5" font-family="Helvetica,sans-Serif" font-size="10.00">blitzdg::LUSolver::</text>
<text text-anchor="middle" x="190.5" y="-7.5" font-family="Helvetica,sans-Serif" font-size="10.00">solve</text>
</a>
</g>
</g>
<!-- Node1&#45;&gt;Node5 -->
<g id="edge4" class="edge"><title>Node1&#45;&gt;Node5</title>
<path fill="none" stroke="midnightblue" d="M300.296,-47.0976C281.382,-41.6044 259.049,-35.1183 239.554,-29.4563"/>
<polygon fill="midnightblue" stroke="midnightblue" points="299.547,-50.5247 310.127,-49.9527 301.5,-43.8024 299.547,-50.5247"/>
</g>
<!-- Node4 -->
<g id="node4" class="node"><title>Node4</title>
<g id="a_node4"><a xlink:href="GMRESSolver_8hpp.html#afcef465b1811e1a58461f319ff1c353c" target="_top" xlink:title="Write a ConvFlag to an output stream.">
<polygon fill="white" stroke="black" points="-7.10543e-15,-50 -7.10543e-15,-69 98,-69 98,-50 -7.10543e-15,-50"/>
<text text-anchor="middle" x="49" y="-57" font-family="Helvetica,sans-Serif" font-size="10.00">blitzdg::operator&lt;&lt;</text>
</a>
</g>
</g>
<!-- Node3&#45;&gt;Node4 -->
<g id="edge3" class="edge"><title>Node3&#45;&gt;Node4</title>
<path fill="none" stroke="midnightblue" d="M131.447,-59.5C120.347,-59.5 108.841,-59.5 98.0965,-59.5"/>
<polygon fill="midnightblue" stroke="midnightblue" points="131.492,-63.0001 141.492,-59.5 131.492,-56.0001 131.492,-63.0001"/>
</g>
</g>
</svg>
