<?xml version="1.0" encoding="UTF-8" standalone="no"?>
<!DOCTYPE svg PUBLIC "-//W3C//DTD SVG 1.1//EN"
 "http://www.w3.org/Graphics/SVG/1.1/DTD/svg11.dtd">
<!-- Generated by graphviz version 2.38.0 (20140413.2041)
 -->
<!-- Title: blitzdg::DirectSolver::solve Pages: 1 -->
<svg width="275pt" height="102pt"
 viewBox="0.00 0.00 275.00 102.00" xmlns="http://www.w3.org/2000/svg" xmlns:xlink="http://www.w3.org/1999/xlink">
<g id="graph0" class="graph" transform="scale(1 1) rotate(0) translate(4 98)">
<title>blitzdg::DirectSolver::solve</title>
<polygon fill="white" stroke="none" points="-4,4 -4,-98 271,-98 271,4 -4,4"/>
<!-- Node1 -->
<g id="node1" class="node"><title>Node1</title>
<g id="a_node1"><a xlink:title="Solves the linear system .">
<polygon fill="#bfbfbf" stroke="black" points="0,-23 0,-53 105,-53 105,-23 0,-23"/>
<text text-anchor="start" x="8" y="-41" font-family="Helvetica,sans-Serif" font-size="10.00">blitzdg::DirectSolver</text>
<text text-anchor="middle" x="52.5" y="-30" font-family="Helvetica,sans-Serif" font-size="10.00">::solve</text>
</a>
</g>
</g>
<!-- Node2 -->
<g id="node2" class="node"><title>Node2</title>
<g id="a_node2"><a xlink:href="BlitzHelpers_8hpp.html#a2b714b6a07df67f99846579b713a1581" target="_top" xlink:title="Reshapes an array to a dense matrix.">
<polygon fill="white" stroke="black" points="141,-56.5 141,-75.5 267,-75.5 267,-56.5 141,-56.5"/>
<text text-anchor="middle" x="204" y="-63.5" font-family="Helvetica,sans-Serif" font-size="10.00">blitzdg::reshape1DToMat</text>
</a>
</g>
</g>
<!-- Node1&#45;&gt;Node2 -->
<g id="edge1" class="edge"><title>Node1&#45;&gt;Node2</title>
<path fill="none" stroke="midnightblue" d="M105.368,-47.7145C117.228,-49.9356 129.938,-52.3161 142.136,-54.6008"/>
<polygon fill="midnightblue" stroke="midnightblue" points="141.76,-58.091 152.233,-56.4918 143.048,-51.2106 141.76,-58.091"/>
</g>
<!-- Node3 -->
<g id="node3" class="node"><title>Node3</title>
<g id="a_node3"><a xlink:href="BlitzHelpers_8hpp.html#aaa66bfe8cd7c9adad27aa42f765c980b" target="_top" xlink:title="Vectorizes a dense matrix by writing it to an array.">
<polygon fill="white" stroke="black" points="141,-0.5 141,-19.5 267,-19.5 267,-0.5 141,-0.5"/>
<text text-anchor="middle" x="204" y="-7.5" font-family="Helvetica,sans-Serif" font-size="10.00">blitzdg::reshapeMatTo1D</text>
</a>
</g>
</g>
<!-- Node1&#45;&gt;Node3 -->
<g id="edge3" class="edge"><title>Node1&#45;&gt;Node3</title>
<path fill="none" stroke="midnightblue" d="M105.368,-28.2855C117.228,-26.0644 129.938,-23.6839 142.136,-21.3992"/>
<polygon fill="midnightblue" stroke="midnightblue" points="143.048,-24.7894 152.233,-19.5082 141.76,-17.909 143.048,-24.7894"/>
</g>
<!-- Node2&#45;&gt;Node2 -->
<g id="edge2" class="edge"><title>Node2&#45;&gt;Node2</title>
<path fill="none" stroke="midnightblue" d="M180.881,-75.7571C169.633,-84.5653 177.34,-94 204,-94 221.496,-94 230.829,-89.9368 231.999,-84.6539"/>
<polygon fill="midnightblue" stroke="midnightblue" points="234.997,-82.8417 227.119,-75.7571 228.86,-86.208 234.997,-82.8417"/>
</g>
<!-- Node3&#45;&gt;Node3 -->
<g id="edge4" class="edge"><title>Node3&#45;&gt;Node3</title>
<path fill="none" stroke="midnightblue" d="M180.881,-19.7571C169.633,-28.5653 177.34,-38 204,-38 221.496,-38 230.829,-33.9368 231.999,-28.6539"/>
<polygon fill="midnightblue" stroke="midnightblue" points="234.997,-26.8417 227.119,-19.7571 228.86,-30.208 234.997,-26.8417"/>
</g>
</g>
</svg>
