<?xml version="1.0" encoding="UTF-8" standalone="no"?>
<!DOCTYPE svg PUBLIC "-//W3C//DTD SVG 1.1//EN"
 "http://www.w3.org/Graphics/SVG/1.1/DTD/svg11.dtd">
<!-- Generated by graphviz version 2.38.0 (20140413.2041)
 -->
<!-- Title: blitzdg::JacobiBuilders::computeGradJacobi Pages: 1 -->
<svg width="725pt" height="88pt"
 viewBox="0.00 0.00 725.00 88.00" xmlns="http://www.w3.org/2000/svg" xmlns:xlink="http://www.w3.org/1999/xlink">
<g id="graph0" class="graph" transform="scale(1 1) rotate(0) translate(4 84)">
<title>blitzdg::JacobiBuilders::computeGradJacobi</title>
<polygon fill="white" stroke="none" points="-4,4 -4,-84 721,-84 721,4 -4,4"/>
<!-- Node1 -->
<g id="node1" class="node"><title>Node1</title>
<g id="a_node1"><a xlink:title="Computes the first derivative of the Nth order Jacobi polynomial with parameters &#160;and &#160;at each point ...">
<polygon fill="#bfbfbf" stroke="black" points="602,-24.5 602,-54.5 717,-54.5 717,-24.5 602,-24.5"/>
<text text-anchor="start" x="610" y="-42.5" font-family="Helvetica,sans-Serif" font-size="10.00">blitzdg::JacobiBuilders</text>
<text text-anchor="middle" x="659.5" y="-31.5" font-family="Helvetica,sans-Serif" font-size="10.00">::computeGradJacobi</text>
</a>
</g>
</g>
<!-- Node2 -->
<g id="node2" class="node"><title>Node2</title>
<g id="a_node2"><a xlink:href="classblitzdg_1_1VandermondeBuilders.html#ae53b99bd2ead99fe7e318fedb22529ba" target="_top" xlink:title="Computes the elementwise derivative of the Vandermonde matrix.">
<polygon fill="white" stroke="black" points="411.5,-49.5 411.5,-79.5 557.5,-79.5 557.5,-49.5 411.5,-49.5"/>
<text text-anchor="start" x="419.5" y="-67.5" font-family="Helvetica,sans-Serif" font-size="10.00">blitzdg::VandermondeBuilders</text>
<text text-anchor="middle" x="484.5" y="-56.5" font-family="Helvetica,sans-Serif" font-size="10.00">::computeGradVandermonde</text>
</a>
</g>
</g>
<!-- Node1&#45;&gt;Node2 -->
<g id="edge1" class="edge"><title>Node1&#45;&gt;Node2</title>
<path fill="none" stroke="midnightblue" d="M591.769,-49.1432C580.623,-50.754 569.013,-52.4316 557.736,-54.0613"/>
<polygon fill="midnightblue" stroke="midnightblue" points="592.457,-52.5803 601.853,-47.6859 591.456,-45.6522 592.457,-52.5803"/>
</g>
<!-- Node3 -->
<g id="node3" class="node"><title>Node3</title>
<g id="a_node3"><a xlink:href="classblitzdg_1_1TriangleNodesProvisioner.html#a198dfd20f8c2c8b047c2b5ec8d243887" target="_top" xlink:title="Evaluates the gradient of the 2D orthonormal polynomial of index (id,jd) on the simplex at (a,...">
<polygon fill="white" stroke="black" points="403,-0.5 403,-30.5 566,-30.5 566,-0.5 403,-0.5"/>
<text text-anchor="start" x="411" y="-18.5" font-family="Helvetica,sans-Serif" font-size="10.00">blitzdg::TriangleNodesProvisioner</text>
<text text-anchor="middle" x="484.5" y="-7.5" font-family="Helvetica,sans-Serif" font-size="10.00">::evaluateGradSimplex</text>
</a>
</g>
</g>
<!-- Node1&#45;&gt;Node3 -->
<g id="edge2" class="edge"><title>Node1&#45;&gt;Node3</title>
<path fill="none" stroke="midnightblue" d="M591.765,-30.2419C583.368,-29.0771 574.709,-27.8759 566.128,-26.6854"/>
<polygon fill="midnightblue" stroke="midnightblue" points="591.467,-33.7341 601.853,-31.6415 592.429,-26.8005 591.467,-33.7341"/>
</g>
<!-- Node4 -->
<g id="node4" class="node"><title>Node4</title>
<g id="a_node4"><a xlink:href="classblitzdg_1_1TriangleNodesProvisioner.html#ab72907f460709c6dd73846c302fb6d7b" target="_top" xlink:title="Computes the Gradient of the 2D Vandermonde matrix.">
<polygon fill="white" stroke="black" points="199,-0.5 199,-30.5 367,-30.5 367,-0.5 199,-0.5"/>
<text text-anchor="start" x="207" y="-18.5" font-family="Helvetica,sans-Serif" font-size="10.00">blitzdg::TriangleNodesProvisioner</text>
<text text-anchor="middle" x="283" y="-7.5" font-family="Helvetica,sans-Serif" font-size="10.00">::computeGradVandermondeMatrix</text>
</a>
</g>
</g>
<!-- Node3&#45;&gt;Node4 -->
<g id="edge3" class="edge"><title>Node3&#45;&gt;Node4</title>
<path fill="none" stroke="midnightblue" d="M392.912,-15.5C384.329,-15.5 375.655,-15.5 367.147,-15.5"/>
<polygon fill="midnightblue" stroke="midnightblue" points="392.931,-19.0001 402.931,-15.5 392.931,-12.0001 392.931,-19.0001"/>
</g>
<!-- Node5 -->
<g id="node5" class="node"><title>Node5</title>
<g id="a_node5"><a xlink:href="classblitzdg_1_1TriangleNodesProvisioner.html#aef7f798f38c69f237c124b92ce3af33b" target="_top" xlink:title="Build x and y coordinates and geometric factors.">
<polygon fill="white" stroke="black" points="0,-0.5 0,-30.5 163,-30.5 163,-0.5 0,-0.5"/>
<text text-anchor="start" x="8" y="-18.5" font-family="Helvetica,sans-Serif" font-size="10.00">blitzdg::TriangleNodesProvisioner</text>
<text text-anchor="middle" x="81.5" y="-7.5" font-family="Helvetica,sans-Serif" font-size="10.00">::buildPhysicalGrid</text>
</a>
</g>
</g>
<!-- Node4&#45;&gt;Node5 -->
<g id="edge4" class="edge"><title>Node4&#45;&gt;Node5</title>
<path fill="none" stroke="midnightblue" d="M188.577,-15.5C180.126,-15.5 171.614,-15.5 163.286,-15.5"/>
<polygon fill="midnightblue" stroke="midnightblue" points="188.839,-19.0001 198.839,-15.5 188.839,-12.0001 188.839,-19.0001"/>
</g>
</g>
</svg>
