<?xml version="1.0" encoding="UTF-8" standalone="no"?>
<!DOCTYPE svg PUBLIC "-//W3C//DTD SVG 1.1//EN"
 "http://www.w3.org/Graphics/SVG/1.1/DTD/svg11.dtd">
<!-- Generated by graphviz version 2.38.0 (20140413.2041)
 -->
<!-- Title: blitzdg::CSCMat::CSCMat Pages: 1 -->
<svg width="291pt" height="66pt"
 viewBox="0.00 0.00 291.00 66.00" xmlns="http://www.w3.org/2000/svg" xmlns:xlink="http://www.w3.org/1999/xlink">
<g id="graph0" class="graph" transform="scale(1 1) rotate(0) translate(4 62)">
<title>blitzdg::CSCMat::CSCMat</title>
<polygon fill="white" stroke="none" points="-4,4 -4,-62 287,-62 287,4 -4,4"/>
<!-- Node1 -->
<g id="node1" class="node"><title>Node1</title>
<g id="a_node1"><a xlink:title="Copy constructor.">
<polygon fill="#bfbfbf" stroke="black" points="0,-19.5 0,-38.5 134,-38.5 134,-19.5 0,-19.5"/>
<text text-anchor="middle" x="67" y="-26.5" font-family="Helvetica,sans-Serif" font-size="10.00">blitzdg::CSCMat::CSCMat</text>
</a>
</g>
</g>
<!-- Node2 -->
<g id="node2" class="node"><title>Node2</title>
<g id="a_node2"><a xlink:href="classblitzdg_1_1CSCMat.html#a36200cdfcaf057020cb649dbadc76a71" target="_top" xlink:title="Returns the number of columns.">
<polygon fill="white" stroke="black" points="170,-38.5 170,-57.5 283,-57.5 283,-38.5 170,-38.5"/>
<text text-anchor="middle" x="226.5" y="-45.5" font-family="Helvetica,sans-Serif" font-size="10.00">blitzdg::CSCMat::cols</text>
</a>
</g>
</g>
<!-- Node1&#45;&gt;Node2 -->
<g id="edge1" class="edge"><title>Node1&#45;&gt;Node2</title>
<path fill="none" stroke="midnightblue" d="M134.338,-37.0026C142.705,-38.0121 151.265,-39.0446 159.625,-40.0532"/>
<polygon fill="midnightblue" stroke="midnightblue" points="159.351,-43.5454 169.698,-41.2683 160.189,-36.5957 159.351,-43.5454"/>
</g>
<!-- Node3 -->
<g id="node3" class="node"><title>Node3</title>
<g id="a_node3"><a xlink:href="classblitzdg_1_1CSCMat.html#ad8f0ade61a85751e4da13065584c81cb" target="_top" xlink:title="Returns the number of nonzero elements.">
<polygon fill="white" stroke="black" points="171,-0.5 171,-19.5 282,-19.5 282,-0.5 171,-0.5"/>
<text text-anchor="middle" x="226.5" y="-7.5" font-family="Helvetica,sans-Serif" font-size="10.00">blitzdg::CSCMat::nnz</text>
</a>
</g>
</g>
<!-- Node1&#45;&gt;Node3 -->
<g id="edge2" class="edge"><title>Node1&#45;&gt;Node3</title>
<path fill="none" stroke="midnightblue" d="M134.338,-20.9974C143.039,-19.9477 151.947,-18.873 160.624,-17.8263"/>
<polygon fill="midnightblue" stroke="midnightblue" points="161.168,-21.2862 170.677,-16.6136 160.329,-14.3366 161.168,-21.2862"/>
</g>
</g>
</svg>
