<?xml version="1.0" encoding="UTF-8" standalone="no"?>
<!DOCTYPE svg PUBLIC "-//W3C//DTD SVG 1.1//EN"
 "http://www.w3.org/Graphics/SVG/1.1/DTD/svg11.dtd">
<!-- Generated by graphviz version 2.38.0 (20140413.2041)
 -->
<!-- Title: blitzdg::TriangleNodesProvisioner::computeDifferentiationMatrices Pages: 1 -->
<svg width="474pt" height="102pt"
 viewBox="0.00 0.00 474.00 102.00" xmlns="http://www.w3.org/2000/svg" xmlns:xlink="http://www.w3.org/1999/xlink">
<g id="graph0" class="graph" transform="scale(1 1) rotate(0) translate(4 98)">
<title>blitzdg::TriangleNodesProvisioner::computeDifferentiationMatrices</title>
<polygon fill="white" stroke="none" points="-4,4 -4,-98 470,-98 470,4 -4,4"/>
<!-- Node1 -->
<g id="node1" class="node"><title>Node1</title>
<g id="a_node1"><a xlink:title="Compute the two 2D differentiation matrices given the Gradient of the Vandermonde matrix and the Vand...">
<polygon fill="#bfbfbf" stroke="black" points="0,-23 0,-53 163,-53 163,-23 0,-23"/>
<text text-anchor="start" x="8" y="-41" font-family="Helvetica,sans-Serif" font-size="10.00">blitzdg::TriangleNodesProvisioner</text>
<text text-anchor="middle" x="81.5" y="-30" font-family="Helvetica,sans-Serif" font-size="10.00">::computeDifferentiationMatrices</text>
</a>
</g>
</g>
<!-- Node2 -->
<g id="node2" class="node"><title>Node2</title>
<g id="a_node2"><a xlink:href="classblitzdg_1_1DirectSolver.html#a728856cfee7ed7c7c5761d39acbc7606" target="_top" xlink:title="Solves the linear system .">
<polygon fill="white" stroke="black" points="199,-23 199,-53 304,-53 304,-23 199,-23"/>
<text text-anchor="start" x="207" y="-41" font-family="Helvetica,sans-Serif" font-size="10.00">blitzdg::DirectSolver</text>
<text text-anchor="middle" x="251.5" y="-30" font-family="Helvetica,sans-Serif" font-size="10.00">::solve</text>
</a>
</g>
</g>
<!-- Node1&#45;&gt;Node2 -->
<g id="edge1" class="edge"><title>Node1&#45;&gt;Node2</title>
<path fill="none" stroke="midnightblue" d="M163.056,-38C171.677,-38 180.346,-38 188.7,-38"/>
<polygon fill="midnightblue" stroke="midnightblue" points="188.709,-41.5001 198.709,-38 188.709,-34.5001 188.709,-41.5001"/>
</g>
<!-- Node3 -->
<g id="node3" class="node"><title>Node3</title>
<g id="a_node3"><a xlink:href="BlitzHelpers_8hpp.html#a2b714b6a07df67f99846579b713a1581" target="_top" xlink:title="Reshapes an array to a dense matrix.">
<polygon fill="white" stroke="black" points="340,-56.5 340,-75.5 466,-75.5 466,-56.5 340,-56.5"/>
<text text-anchor="middle" x="403" y="-63.5" font-family="Helvetica,sans-Serif" font-size="10.00">blitzdg::reshape1DToMat</text>
</a>
</g>
</g>
<!-- Node2&#45;&gt;Node3 -->
<g id="edge2" class="edge"><title>Node2&#45;&gt;Node3</title>
<path fill="none" stroke="midnightblue" d="M304.368,-47.7145C316.228,-49.9356 328.938,-52.3161 341.136,-54.6008"/>
<polygon fill="midnightblue" stroke="midnightblue" points="340.76,-58.091 351.233,-56.4918 342.048,-51.2106 340.76,-58.091"/>
</g>
<!-- Node4 -->
<g id="node4" class="node"><title>Node4</title>
<g id="a_node4"><a xlink:href="BlitzHelpers_8hpp.html#aaa66bfe8cd7c9adad27aa42f765c980b" target="_top" xlink:title="Vectorizes a dense matrix by writing it to an array.">
<polygon fill="white" stroke="black" points="340,-0.5 340,-19.5 466,-19.5 466,-0.5 340,-0.5"/>
<text text-anchor="middle" x="403" y="-7.5" font-family="Helvetica,sans-Serif" font-size="10.00">blitzdg::reshapeMatTo1D</text>
</a>
</g>
</g>
<!-- Node2&#45;&gt;Node4 -->
<g id="edge4" class="edge"><title>Node2&#45;&gt;Node4</title>
<path fill="none" stroke="midnightblue" d="M304.368,-28.2855C316.228,-26.0644 328.938,-23.6839 341.136,-21.3992"/>
<polygon fill="midnightblue" stroke="midnightblue" points="342.048,-24.7894 351.233,-19.5082 340.76,-17.909 342.048,-24.7894"/>
</g>
<!-- Node3&#45;&gt;Node3 -->
<g id="edge3" class="edge"><title>Node3&#45;&gt;Node3</title>
<path fill="none" stroke="midnightblue" d="M379.881,-75.7571C368.633,-84.5653 376.34,-94 403,-94 420.496,-94 429.829,-89.9368 430.999,-84.6539"/>
<polygon fill="midnightblue" stroke="midnightblue" points="433.997,-82.8417 426.119,-75.7571 427.86,-86.208 433.997,-82.8417"/>
</g>
<!-- Node4&#45;&gt;Node4 -->
<g id="edge5" class="edge"><title>Node4&#45;&gt;Node4</title>
<path fill="none" stroke="midnightblue" d="M379.881,-19.7571C368.633,-28.5653 376.34,-38 403,-38 420.496,-38 429.829,-33.9368 430.999,-28.6539"/>
<polygon fill="midnightblue" stroke="midnightblue" points="433.997,-26.8417 426.119,-19.7571 427.86,-30.208 433.997,-26.8417"/>
</g>
</g>
</svg>
