<?xml version="1.0" encoding="UTF-8" standalone="no"?>
<!DOCTYPE svg PUBLIC "-//W3C//DTD SVG 1.1//EN"
 "http://www.w3.org/Graphics/SVG/1.1/DTD/svg11.dtd">
<!-- Generated by graphviz version 2.38.0 (20140413.2041)
 -->
<!-- Title: blitzdg::CSCMat::cols Pages: 1 -->
<svg width="425pt" height="116pt"
 viewBox="0.00 0.00 425.00 116.00" xmlns="http://www.w3.org/2000/svg" xmlns:xlink="http://www.w3.org/1999/xlink">
<g id="graph0" class="graph" transform="scale(1 1) rotate(0) translate(4 112)">
<title>blitzdg::CSCMat::cols</title>
<polygon fill="white" stroke="none" points="-4,4 -4,-112 421,-112 421,4 -4,4"/>
<!-- Node1 -->
<g id="node1" class="node"><title>Node1</title>
<g id="a_node1"><a xlink:title="Returns the number of columns.">
<polygon fill="#bfbfbf" stroke="black" points="304,-44.5 304,-63.5 417,-63.5 417,-44.5 304,-44.5"/>
<text text-anchor="middle" x="360.5" y="-51.5" font-family="Helvetica,sans-Serif" font-size="10.00">blitzdg::CSCMat::cols</text>
</a>
</g>
</g>
<!-- Node2 -->
<g id="node2" class="node"><title>Node2</title>
<g id="a_node2"><a xlink:href="classblitzdg_1_1CSCMat.html#a7378aa6add8f8a6e0540b31148c0af33" target="_top" xlink:title="Constructor that creates a rows x cols CSC matrix with nnz nonzero elements.">
<polygon fill="white" stroke="black" points="134,-88.5 134,-107.5 268,-107.5 268,-88.5 134,-88.5"/>
<text text-anchor="middle" x="201" y="-95.5" font-family="Helvetica,sans-Serif" font-size="10.00">blitzdg::CSCMat::CSCMat</text>
</a>
</g>
</g>
<!-- Node1&#45;&gt;Node2 -->
<g id="edge1" class="edge"><title>Node1&#45;&gt;Node2</title>
<path fill="none" stroke="midnightblue" d="M315.658,-66.2478C290.514,-73.2724 259.416,-81.96 236.108,-88.4713"/>
<polygon fill="midnightblue" stroke="midnightblue" points="316.635,-69.609 325.325,-63.5473 314.752,-62.8671 316.635,-69.609"/>
</g>
<!-- Node3 -->
<g id="node3" class="node"><title>Node3</title>
<g id="a_node3"><a xlink:href="classblitzdg_1_1LUSolver.html#a684a455d5753d416c71091992bceeb29" target="_top" xlink:title="Computes an LU factorization of the input CSC matrix.">
<polygon fill="white" stroke="black" points="152,-39 152,-69 250,-69 250,-39 152,-39"/>
<text text-anchor="start" x="160" y="-57" font-family="Helvetica,sans-Serif" font-size="10.00">blitzdg::LUSolver::</text>
<text text-anchor="middle" x="201" y="-46" font-family="Helvetica,sans-Serif" font-size="10.00">factorize</text>
</a>
</g>
</g>
<!-- Node1&#45;&gt;Node3 -->
<g id="edge2" class="edge"><title>Node1&#45;&gt;Node3</title>
<path fill="none" stroke="midnightblue" d="M293.955,-54C279.306,-54 264.028,-54 250.23,-54"/>
<polygon fill="midnightblue" stroke="midnightblue" points="293.971,-57.5001 303.971,-54 293.971,-50.5001 293.971,-57.5001"/>
</g>
<!-- Node4 -->
<g id="node4" class="node"><title>Node4</title>
<g id="a_node4"><a xlink:href="CSCMatrix_8hpp.html#af412eb6a8ef06ec7d2e74abecc595962" target="_top" xlink:title="Writes the CSC matrix to the output stream in coordinate format (i, j, elem).">
<polygon fill="white" stroke="black" points="152,-0.5 152,-19.5 250,-19.5 250,-0.5 152,-0.5"/>
<text text-anchor="middle" x="201" y="-7.5" font-family="Helvetica,sans-Serif" font-size="10.00">blitzdg::operator&lt;&lt;</text>
</a>
</g>
</g>
<!-- Node1&#45;&gt;Node4 -->
<g id="edge3" class="edge"><title>Node1&#45;&gt;Node4</title>
<path fill="none" stroke="midnightblue" d="M315.658,-41.7522C290.514,-34.7276 259.416,-26.04 236.108,-19.5287"/>
<polygon fill="midnightblue" stroke="midnightblue" points="314.752,-45.1329 325.325,-44.4527 316.635,-38.391 314.752,-45.1329"/>
</g>
<!-- Node5 -->
<g id="node5" class="node"><title>Node5</title>
<g id="a_node5"><a xlink:href="GMRESSolver_8hpp.html#afcef465b1811e1a58461f319ff1c353c" target="_top" xlink:title="Write a ConvFlag to an output stream.">
<polygon fill="white" stroke="black" points="-7.10543e-15,-0.5 -7.10543e-15,-19.5 98,-19.5 98,-0.5 -7.10543e-15,-0.5"/>
<text text-anchor="middle" x="49" y="-7.5" font-family="Helvetica,sans-Serif" font-size="10.00">blitzdg::operator&lt;&lt;</text>
</a>
</g>
</g>
<!-- Node4&#45;&gt;Node5 -->
<g id="edge4" class="edge"><title>Node4&#45;&gt;Node5</title>
<path fill="none" stroke="midnightblue" d="M141.464,-10C127.14,-10 111.973,-10 98.1961,-10"/>
<polygon fill="midnightblue" stroke="midnightblue" points="141.713,-13.5001 151.713,-10 141.713,-6.5001 141.713,-13.5001"/>
</g>
</g>
</svg>
