<?xml version="1.0" encoding="UTF-8" standalone="no"?>
<!DOCTYPE svg PUBLIC "-//W3C//DTD SVG 1.1//EN"
 "http://www.w3.org/Graphics/SVG/1.1/DTD/svg11.dtd">
<!-- Generated by graphviz version 2.38.0 (20140413.2041)
 -->
<!-- Title: blitzdg::OutputterBase Pages: 1 -->
<svg width="244pt" height="84pt"
 viewBox="0.00 0.00 243.50 84.00" xmlns="http://www.w3.org/2000/svg" xmlns:xlink="http://www.w3.org/1999/xlink">
<g id="graph0" class="graph" transform="scale(1 1) rotate(0) translate(4 80)">
<title>blitzdg::OutputterBase</title>
<polygon fill="white" stroke="none" points="-4,4 -4,-80 239.5,-80 239.5,4 -4,4"/>
<!-- Node1 -->
<g id="node1" class="node"><title>Node1</title>
<g id="a_node1"><a xlink:title=" ">
<polygon fill="#bfbfbf" stroke="black" points="61,-56.5 61,-75.5 175,-75.5 175,-56.5 61,-56.5"/>
<text text-anchor="middle" x="118" y="-63.5" font-family="Helvetica,sans-Serif" font-size="10.00">blitzdg::OutputterBase</text>
</a>
</g>
</g>
<!-- Node2 -->
<g id="node2" class="node"><title>Node2</title>
<g id="a_node2"><a xlink:href="classblitzdg_1_1CsvOutputter.html" target="_top" xlink:title=" ">
<polygon fill="white" stroke="black" points="0,-0.5 0,-19.5 110,-19.5 110,-0.5 0,-0.5"/>
<text text-anchor="middle" x="55" y="-7.5" font-family="Helvetica,sans-Serif" font-size="10.00">blitzdg::CsvOutputter</text>
</a>
</g>
</g>
<!-- Node1&#45;&gt;Node2 -->
<g id="edge1" class="edge"><title>Node1&#45;&gt;Node2</title>
<path fill="none" stroke="#8b1a1a" d="M99.9601,-49.5372C88.7269,-39.9087 74.6809,-27.8694 65.3062,-19.8339"/>
<polygon fill="#8b1a1a" stroke="#8b1a1a" points="98.0076,-52.4734 107.878,-56.324 102.563,-47.1586 98.0076,-52.4734"/>
</g>
<!-- Node3 -->
<g id="node3" class="node"><title>Node3</title>
<g id="a_node3"><a xlink:href="classblitzdg_1_1VtkOutputter.html" target="_top" xlink:title="Outputter class for vtk files.">
<polygon fill="white" stroke="black" points="128.5,-0.5 128.5,-19.5 235.5,-19.5 235.5,-0.5 128.5,-0.5"/>
<text text-anchor="middle" x="182" y="-7.5" font-family="Helvetica,sans-Serif" font-size="10.00">blitzdg::VtkOutputter</text>
</a>
</g>
</g>
<!-- Node1&#45;&gt;Node3 -->
<g id="edge2" class="edge"><title>Node1&#45;&gt;Node3</title>
<path fill="none" stroke="#8b1a1a" d="M135.991,-49.8197C147.458,-40.1452 161.913,-27.9481 171.53,-19.8339"/>
<polygon fill="#8b1a1a" stroke="#8b1a1a" points="133.669,-47.2002 128.283,-56.324 138.183,-52.5502 133.669,-47.2002"/>
</g>
</g>
</svg>
