<?xml version="1.0" encoding="UTF-8" standalone="no"?>
<!DOCTYPE svg PUBLIC "-//W3C//DTD SVG 1.1//EN"
 "http://www.w3.org/Graphics/SVG/1.1/DTD/svg11.dtd">
<!-- Generated by graphviz version 2.38.0 (20140413.2041)
 -->
<!-- Title: blitzdg::VandermondeBuilders::computeGradVandermonde Pages: 1 -->
<svg width="478pt" height="39pt"
 viewBox="0.00 0.00 478.00 39.00" xmlns="http://www.w3.org/2000/svg" xmlns:xlink="http://www.w3.org/1999/xlink">
<g id="graph0" class="graph" transform="scale(1 1) rotate(0) translate(4 35)">
<title>blitzdg::VandermondeBuilders::computeGradVandermonde</title>
<polygon fill="white" stroke="none" points="-4,4 -4,-35 474,-35 474,4 -4,4"/>
<!-- Node1 -->
<g id="node1" class="node"><title>Node1</title>
<g id="a_node1"><a xlink:title="Computes the elementwise derivative of the Vandermonde matrix.">
<polygon fill="#bfbfbf" stroke="black" points="0,-0.5 0,-30.5 146,-30.5 146,-0.5 0,-0.5"/>
<text text-anchor="start" x="8" y="-18.5" font-family="Helvetica,sans-Serif" font-size="10.00">blitzdg::VandermondeBuilders</text>
<text text-anchor="middle" x="73" y="-7.5" font-family="Helvetica,sans-Serif" font-size="10.00">::computeGradVandermonde</text>
</a>
</g>
</g>
<!-- Node2 -->
<g id="node2" class="node"><title>Node2</title>
<g id="a_node2"><a xlink:href="classblitzdg_1_1JacobiBuilders.html#a7e4e8d22f83e71108552a213439bb186" target="_top" xlink:title="Computes the first derivative of the Nth order Jacobi polynomial with parameters &#160;and &#160;at each point ...">
<polygon fill="white" stroke="black" points="182,-0.5 182,-30.5 297,-30.5 297,-0.5 182,-0.5"/>
<text text-anchor="start" x="190" y="-18.5" font-family="Helvetica,sans-Serif" font-size="10.00">blitzdg::JacobiBuilders</text>
<text text-anchor="middle" x="239.5" y="-7.5" font-family="Helvetica,sans-Serif" font-size="10.00">::computeGradJacobi</text>
</a>
</g>
</g>
<!-- Node1&#45;&gt;Node2 -->
<g id="edge1" class="edge"><title>Node1&#45;&gt;Node2</title>
<path fill="none" stroke="midnightblue" d="M146.152,-15.5C154.622,-15.5 163.236,-15.5 171.629,-15.5"/>
<polygon fill="midnightblue" stroke="midnightblue" points="171.732,-19.0001 181.732,-15.5 171.732,-12.0001 171.732,-19.0001"/>
</g>
<!-- Node3 -->
<g id="node3" class="node"><title>Node3</title>
<g id="a_node3"><a xlink:href="classblitzdg_1_1JacobiBuilders.html#a629c1bda92b2b4414c5ef22ccd6d25ce" target="_top" xlink:title="Computes the value of the Nth order Jacobi polynomial with parameters &#160;and &#160;at each point in the inpu...">
<polygon fill="white" stroke="black" points="333,-0.5 333,-30.5 470,-30.5 470,-0.5 333,-0.5"/>
<text text-anchor="start" x="341" y="-18.5" font-family="Helvetica,sans-Serif" font-size="10.00">blitzdg::JacobiBuilders</text>
<text text-anchor="middle" x="401.5" y="-7.5" font-family="Helvetica,sans-Serif" font-size="10.00">::computeJacobiPolynomial</text>
</a>
</g>
</g>
<!-- Node2&#45;&gt;Node3 -->
<g id="edge2" class="edge"><title>Node2&#45;&gt;Node3</title>
<path fill="none" stroke="midnightblue" d="M297.361,-15.5C305.624,-15.5 314.248,-15.5 322.836,-15.5"/>
<polygon fill="midnightblue" stroke="midnightblue" points="322.878,-19.0001 332.878,-15.5 322.877,-12.0001 322.878,-19.0001"/>
</g>
</g>
</svg>
