<?xml version="1.0" encoding="UTF-8" standalone="no"?>
<!DOCTYPE svg PUBLIC "-//W3C//DTD SVG 1.1//EN"
 "http://www.w3.org/Graphics/SVG/1.1/DTD/svg11.dtd">
<!-- Generated by graphviz version 2.38.0 (20140413.2041)
 -->
<!-- Title: blitzdg::CSVFileReader::skipLines Pages: 1 -->
<svg width="282pt" height="137pt"
 viewBox="0.00 0.00 282.00 137.00" xmlns="http://www.w3.org/2000/svg" xmlns:xlink="http://www.w3.org/1999/xlink">
<g id="graph0" class="graph" transform="scale(1 1) rotate(0) translate(4 133)">
<title>blitzdg::CSVFileReader::skipLines</title>
<polygon fill="white" stroke="none" points="-4,4 -4,-133 278,-133 278,4 -4,4"/>
<!-- Node1 -->
<g id="node1" class="node"><title>Node1</title>
<g id="a_node1"><a xlink:title="Skips the file stream ahead by n lines or until the end&#45;of&#45;file is reached.">
<polygon fill="#bfbfbf" stroke="black" points="155,-49.5 155,-79.5 274,-79.5 274,-49.5 155,-49.5"/>
<text text-anchor="start" x="163" y="-67.5" font-family="Helvetica,sans-Serif" font-size="10.00">blitzdg::CSVFileReader</text>
<text text-anchor="middle" x="214.5" y="-56.5" font-family="Helvetica,sans-Serif" font-size="10.00">::skipLines</text>
</a>
</g>
</g>
<!-- Node2 -->
<g id="node2" class="node"><title>Node2</title>
<g id="a_node2"><a xlink:href="classblitzdg_1_1CSVFileReader.html#a69a326b8ae8ee75cf3aaf20d91a21ec8" target="_top" xlink:title="Closes any currently open file and opens the csv file with path filename.">
<polygon fill="white" stroke="black" points="0,-98.5 0,-128.5 119,-128.5 119,-98.5 0,-98.5"/>
<text text-anchor="start" x="8" y="-116.5" font-family="Helvetica,sans-Serif" font-size="10.00">blitzdg::CSVFileReader</text>
<text text-anchor="middle" x="59.5" y="-105.5" font-family="Helvetica,sans-Serif" font-size="10.00">::openFile</text>
</a>
</g>
</g>
<!-- Node1&#45;&gt;Node2 -->
<g id="edge1" class="edge"><title>Node1&#45;&gt;Node2</title>
<path fill="none" stroke="midnightblue" d="M156.487,-82.7591C140.35,-87.9273 122.973,-93.4924 107.498,-98.4484"/>
<polygon fill="midnightblue" stroke="midnightblue" points="157.891,-85.9848 166.347,-79.6014 155.755,-79.3183 157.891,-85.9848"/>
</g>
<!-- Node3 -->
<g id="node3" class="node"><title>Node3</title>
<g id="a_node3"><a xlink:href="classblitzdg_1_1MeshManager.html#ab6025c59ed3f2aec2e61728e1b18838f" target="_top" xlink:title="Reads a .msh file that was generated by Gmsh.">
<polygon fill="white" stroke="black" points="3,-49.5 3,-79.5 116,-79.5 116,-49.5 3,-49.5"/>
<text text-anchor="start" x="11" y="-67.5" font-family="Helvetica,sans-Serif" font-size="10.00">blitzdg::MeshManager</text>
<text text-anchor="middle" x="59.5" y="-56.5" font-family="Helvetica,sans-Serif" font-size="10.00">::readMesh</text>
</a>
</g>
</g>
<!-- Node1&#45;&gt;Node3 -->
<g id="edge2" class="edge"><title>Node1&#45;&gt;Node3</title>
<path fill="none" stroke="midnightblue" d="M144.525,-64.5C134.987,-64.5 125.293,-64.5 116.041,-64.5"/>
<polygon fill="midnightblue" stroke="midnightblue" points="144.784,-68.0001 154.784,-64.5 144.784,-61.0001 144.784,-68.0001"/>
</g>
<!-- Node4 -->
<g id="node4" class="node"><title>Node4</title>
<g id="a_node4"><a xlink:href="classblitzdg_1_1CSVFileReader.html#a50072d25b9bbbb22140361588b0373b5" target="_top" xlink:title="Returns the file stream to the start of line nskip.">
<polygon fill="white" stroke="black" points="0,-0.5 0,-30.5 119,-30.5 119,-0.5 0,-0.5"/>
<text text-anchor="start" x="8" y="-18.5" font-family="Helvetica,sans-Serif" font-size="10.00">blitzdg::CSVFileReader</text>
<text text-anchor="middle" x="59.5" y="-7.5" font-family="Helvetica,sans-Serif" font-size="10.00">::setToStart</text>
</a>
</g>
</g>
<!-- Node1&#45;&gt;Node4 -->
<g id="edge3" class="edge"><title>Node1&#45;&gt;Node4</title>
<path fill="none" stroke="midnightblue" d="M156.487,-46.2409C140.35,-41.0727 122.973,-35.5076 107.498,-30.5516"/>
<polygon fill="midnightblue" stroke="midnightblue" points="155.755,-49.6817 166.347,-49.3986 157.891,-43.0152 155.755,-49.6817"/>
</g>
</g>
</svg>
