<?xml version="1.0" encoding="UTF-8" standalone="no"?>
<!DOCTYPE svg PUBLIC "-//W3C//DTD SVG 1.1//EN"
 "http://www.w3.org/Graphics/SVG/1.1/DTD/svg11.dtd">
<!-- Generated by graphviz version 2.38.0 (20140413.2041)
 -->
<!-- Title: blitzdg::DenseMatrixInverter::computeInverse Pages: 1 -->
<svg width="310pt" height="102pt"
 viewBox="0.00 0.00 310.00 102.00" xmlns="http://www.w3.org/2000/svg" xmlns:xlink="http://www.w3.org/1999/xlink">
<g id="graph0" class="graph" transform="scale(1 1) rotate(0) translate(4 98)">
<title>blitzdg::DenseMatrixInverter::computeInverse</title>
<polygon fill="white" stroke="none" points="-4,4 -4,-98 306,-98 306,4 -4,4"/>
<!-- Node1 -->
<g id="node1" class="node"><title>Node1</title>
<g id="a_node1"><a xlink:title="Inverts the dense matrix .">
<polygon fill="#bfbfbf" stroke="black" points="0,-23 0,-53 140,-53 140,-23 0,-23"/>
<text text-anchor="start" x="8" y="-41" font-family="Helvetica,sans-Serif" font-size="10.00">blitzdg::DenseMatrixInverter</text>
<text text-anchor="middle" x="70" y="-30" font-family="Helvetica,sans-Serif" font-size="10.00">::computeInverse</text>
</a>
</g>
</g>
<!-- Node2 -->
<g id="node2" class="node"><title>Node2</title>
<g id="a_node2"><a xlink:href="BlitzHelpers_8hpp.html#a2b714b6a07df67f99846579b713a1581" target="_top" xlink:title="Reshapes an array to a dense matrix.">
<polygon fill="white" stroke="black" points="176,-56.5 176,-75.5 302,-75.5 302,-56.5 176,-56.5"/>
<text text-anchor="middle" x="239" y="-63.5" font-family="Helvetica,sans-Serif" font-size="10.00">blitzdg::reshape1DToMat</text>
</a>
</g>
</g>
<!-- Node1&#45;&gt;Node2 -->
<g id="edge1" class="edge"><title>Node1&#45;&gt;Node2</title>
<path fill="none" stroke="midnightblue" d="M140.372,-49.6313C150.588,-51.3442 161.095,-53.1058 171.257,-54.8095"/>
<polygon fill="midnightblue" stroke="midnightblue" points="170.838,-58.2881 181.279,-56.49 171.996,-51.3845 170.838,-58.2881"/>
</g>
<!-- Node3 -->
<g id="node3" class="node"><title>Node3</title>
<g id="a_node3"><a xlink:href="BlitzHelpers_8hpp.html#aaa66bfe8cd7c9adad27aa42f765c980b" target="_top" xlink:title="Vectorizes a dense matrix by writing it to an array.">
<polygon fill="white" stroke="black" points="176,-0.5 176,-19.5 302,-19.5 302,-0.5 176,-0.5"/>
<text text-anchor="middle" x="239" y="-7.5" font-family="Helvetica,sans-Serif" font-size="10.00">blitzdg::reshapeMatTo1D</text>
</a>
</g>
</g>
<!-- Node1&#45;&gt;Node3 -->
<g id="edge3" class="edge"><title>Node1&#45;&gt;Node3</title>
<path fill="none" stroke="midnightblue" d="M140.372,-26.3687C150.588,-24.6558 161.095,-22.8942 171.257,-21.1905"/>
<polygon fill="midnightblue" stroke="midnightblue" points="171.996,-24.6155 181.279,-19.51 170.838,-17.7119 171.996,-24.6155"/>
</g>
<!-- Node2&#45;&gt;Node2 -->
<g id="edge2" class="edge"><title>Node2&#45;&gt;Node2</title>
<path fill="none" stroke="midnightblue" d="M213.106,-75.7571C200.509,-84.5653 209.141,-94 239,-94 259.062,-94 269.541,-89.741 270.437,-84.2746"/>
<polygon fill="midnightblue" stroke="midnightblue" points="273.282,-82.2291 264.894,-75.7571 267.415,-86.0475 273.282,-82.2291"/>
</g>
<!-- Node3&#45;&gt;Node3 -->
<g id="edge4" class="edge"><title>Node3&#45;&gt;Node3</title>
<path fill="none" stroke="midnightblue" d="M213.106,-19.7571C200.509,-28.5653 209.141,-38 239,-38 259.062,-38 269.541,-33.741 270.437,-28.2746"/>
<polygon fill="midnightblue" stroke="midnightblue" points="273.282,-26.2291 264.894,-19.7571 267.415,-30.0475 273.282,-26.2291"/>
</g>
</g>
</svg>
