<?xml version="1.0" encoding="UTF-8" standalone="no"?>
<!DOCTYPE svg PUBLIC "-//W3C//DTD SVG 1.1//EN"
 "http://www.w3.org/Graphics/SVG/1.1/DTD/svg11.dtd">
<!-- Generated by graphviz version 2.38.0 (20140413.2041)
 -->
<!-- Title: blitzdg::SparseTriplet::insert Pages: 1 -->
<svg width="284pt" height="116pt"
 viewBox="0.00 0.00 284.00 116.00" xmlns="http://www.w3.org/2000/svg" xmlns:xlink="http://www.w3.org/1999/xlink">
<g id="graph0" class="graph" transform="scale(1 1) rotate(0) translate(4 112)">
<title>blitzdg::SparseTriplet::insert</title>
<polygon fill="white" stroke="none" points="-4,4 -4,-112 280,-112 280,4 -4,4"/>
<!-- Node1 -->
<g id="node1" class="node"><title>Node1</title>
<g id="a_node1"><a xlink:title="Inserts an element into the sparse triplet matrix.">
<polygon fill="#bfbfbf" stroke="black" points="0,-39 0,-69 109,-69 109,-39 0,-39"/>
<text text-anchor="start" x="8" y="-57" font-family="Helvetica,sans-Serif" font-size="10.00">blitzdg::SparseTriplet</text>
<text text-anchor="middle" x="54.5" y="-46" font-family="Helvetica,sans-Serif" font-size="10.00">::insert</text>
</a>
</g>
</g>
<!-- Node2 -->
<g id="node2" class="node"><title>Node2</title>
<g id="a_node2"><a xlink:href="classblitzdg_1_1SparseTriplet.html#a546f9879705be8f19dab1c9526232bc6" target="_top" xlink:title="Provides read&#45;write access to the kth column index.">
<polygon fill="white" stroke="black" points="146.5,-88.5 146.5,-107.5 274.5,-107.5 274.5,-88.5 146.5,-88.5"/>
<text text-anchor="middle" x="210.5" y="-95.5" font-family="Helvetica,sans-Serif" font-size="10.00">blitzdg::SparseTriplet::col</text>
</a>
</g>
</g>
<!-- Node1&#45;&gt;Node2 -->
<g id="edge1" class="edge"><title>Node1&#45;&gt;Node2</title>
<path fill="none" stroke="midnightblue" d="M108.067,-69.0192C127.035,-74.4387 148.21,-80.4886 166.286,-85.6532"/>
<polygon fill="midnightblue" stroke="midnightblue" points="165.399,-89.0398 175.976,-88.4217 167.322,-82.3091 165.399,-89.0398"/>
</g>
<!-- Node3 -->
<g id="node3" class="node"><title>Node3</title>
<g id="a_node3"><a xlink:href="classblitzdg_1_1SparseTriplet.html#ae390f80381b35477a401ebc1201d08cf" target="_top" xlink:title="Provides read&#45;write access to the kth element.">
<polygon fill="white" stroke="black" points="156,-39 156,-69 265,-69 265,-39 156,-39"/>
<text text-anchor="start" x="164" y="-57" font-family="Helvetica,sans-Serif" font-size="10.00">blitzdg::SparseTriplet</text>
<text text-anchor="middle" x="210.5" y="-46" font-family="Helvetica,sans-Serif" font-size="10.00">::elem</text>
</a>
</g>
</g>
<!-- Node1&#45;&gt;Node3 -->
<g id="edge2" class="edge"><title>Node1&#45;&gt;Node3</title>
<path fill="none" stroke="midnightblue" d="M109.362,-54C121.152,-54 133.741,-54 145.873,-54"/>
<polygon fill="midnightblue" stroke="midnightblue" points="145.929,-57.5001 155.929,-54 145.929,-50.5001 145.929,-57.5001"/>
</g>
<!-- Node4 -->
<g id="node4" class="node"><title>Node4</title>
<g id="a_node4"><a xlink:href="classblitzdg_1_1SparseTriplet.html#a64458b573e4f769b770d2262a818adc7" target="_top" xlink:title="Provides read&#45;write access to the kth row index.">
<polygon fill="white" stroke="black" points="145,-0.5 145,-19.5 276,-19.5 276,-0.5 145,-0.5"/>
<text text-anchor="middle" x="210.5" y="-7.5" font-family="Helvetica,sans-Serif" font-size="10.00">blitzdg::SparseTriplet::row</text>
</a>
</g>
</g>
<!-- Node1&#45;&gt;Node4 -->
<g id="edge3" class="edge"><title>Node1&#45;&gt;Node4</title>
<path fill="none" stroke="midnightblue" d="M108.067,-38.9808C127.035,-33.5613 148.21,-27.5114 166.286,-22.3468"/>
<polygon fill="midnightblue" stroke="midnightblue" points="167.322,-25.6909 175.976,-19.5783 165.399,-18.9602 167.322,-25.6909"/>
</g>
</g>
</svg>
