<?xml version="1.0" encoding="UTF-8" standalone="no"?>
<!DOCTYPE svg PUBLIC "-//W3C//DTD SVG 1.1//EN"
 "http://www.w3.org/Graphics/SVG/1.1/DTD/svg11.dtd">
<!-- Generated by graphviz version 2.38.0 (20140413.2041)
 -->
<!-- Title: blitzdg::CSCMat::CSCMat Pages: 1 -->
<svg width="294pt" height="104pt"
 viewBox="0.00 0.00 294.00 104.00" xmlns="http://www.w3.org/2000/svg" xmlns:xlink="http://www.w3.org/1999/xlink">
<g id="graph0" class="graph" transform="scale(1 1) rotate(0) translate(4 100)">
<title>blitzdg::CSCMat::CSCMat</title>
<polygon fill="white" stroke="none" points="-4,4 -4,-100 290,-100 290,4 -4,4"/>
<!-- Node1 -->
<g id="node1" class="node"><title>Node1</title>
<g id="a_node1"><a xlink:title="Constructor that creates a rows x cols CSC matrix with nnz nonzero elements.">
<polygon fill="#bfbfbf" stroke="black" points="0,-38.5 0,-57.5 134,-57.5 134,-38.5 0,-38.5"/>
<text text-anchor="middle" x="67" y="-45.5" font-family="Helvetica,sans-Serif" font-size="10.00">blitzdg::CSCMat::CSCMat</text>
</a>
</g>
</g>
<!-- Node2 -->
<g id="node2" class="node"><title>Node2</title>
<g id="a_node2"><a xlink:href="classblitzdg_1_1CSCMat.html#a36200cdfcaf057020cb649dbadc76a71" target="_top" xlink:title="Returns the number of columns.">
<polygon fill="white" stroke="black" points="171.5,-76.5 171.5,-95.5 284.5,-95.5 284.5,-76.5 171.5,-76.5"/>
<text text-anchor="middle" x="228" y="-83.5" font-family="Helvetica,sans-Serif" font-size="10.00">blitzdg::CSCMat::cols</text>
</a>
</g>
</g>
<!-- Node1&#45;&gt;Node2 -->
<g id="edge1" class="edge"><title>Node1&#45;&gt;Node2</title>
<path fill="none" stroke="midnightblue" d="M108.122,-57.589C129.104,-62.6035 154.982,-68.7881 177.23,-74.1053"/>
<polygon fill="midnightblue" stroke="midnightblue" points="176.626,-77.5595 187.166,-76.4799 178.254,-70.7513 176.626,-77.5595"/>
</g>
<!-- Node3 -->
<g id="node3" class="node"><title>Node3</title>
<g id="a_node3"><a xlink:href="classblitzdg_1_1CSCMat.html#ad8f0ade61a85751e4da13065584c81cb" target="_top" xlink:title="Returns the number of nonzero elements.">
<polygon fill="white" stroke="black" points="172.5,-38.5 172.5,-57.5 283.5,-57.5 283.5,-38.5 172.5,-38.5"/>
<text text-anchor="middle" x="228" y="-45.5" font-family="Helvetica,sans-Serif" font-size="10.00">blitzdg::CSCMat::nnz</text>
</a>
</g>
</g>
<!-- Node1&#45;&gt;Node3 -->
<g id="edge2" class="edge"><title>Node1&#45;&gt;Node3</title>
<path fill="none" stroke="midnightblue" d="M134.049,-48C143.224,-48 152.645,-48 161.804,-48"/>
<polygon fill="midnightblue" stroke="midnightblue" points="162.006,-51.5001 172.006,-48 162.006,-44.5001 162.006,-51.5001"/>
</g>
<!-- Node4 -->
<g id="node4" class="node"><title>Node4</title>
<g id="a_node4"><a xlink:href="classblitzdg_1_1CSCMat.html#a0d1d954ba5a1483f2188b65446a40d22" target="_top" xlink:title="Returns the number of rows.">
<polygon fill="white" stroke="black" points="170,-0.5 170,-19.5 286,-19.5 286,-0.5 170,-0.5"/>
<text text-anchor="middle" x="228" y="-7.5" font-family="Helvetica,sans-Serif" font-size="10.00">blitzdg::CSCMat::rows</text>
</a>
</g>
</g>
<!-- Node1&#45;&gt;Node4 -->
<g id="edge3" class="edge"><title>Node1&#45;&gt;Node4</title>
<path fill="none" stroke="midnightblue" d="M108.122,-38.411C129.104,-33.3965 154.982,-27.2119 177.23,-21.8947"/>
<polygon fill="midnightblue" stroke="midnightblue" points="178.254,-25.2487 187.166,-19.5201 176.626,-18.4405 178.254,-25.2487"/>
</g>
</g>
</svg>
