<?xml version="1.0" encoding="UTF-8" standalone="no"?>
<!DOCTYPE svg PUBLIC "-//W3C//DTD SVG 1.1//EN"
 "http://www.w3.org/Graphics/SVG/1.1/DTD/svg11.dtd">
<!-- Generated by graphviz version 2.38.0 (20140413.2041)
 -->
<!-- Title: blitzdg::JacobiBuilders::computeJacobiQuadWeights Pages: 1 -->
<svg width="458pt" height="102pt"
 viewBox="0.00 0.00 458.00 102.00" xmlns="http://www.w3.org/2000/svg" xmlns:xlink="http://www.w3.org/1999/xlink">
<g id="graph0" class="graph" transform="scale(1 1) rotate(0) translate(4 98)">
<title>blitzdg::JacobiBuilders::computeJacobiQuadWeights</title>
<polygon fill="white" stroke="none" points="-4,4 -4,-98 454,-98 454,4 -4,4"/>
<!-- Node1 -->
<g id="node1" class="node"><title>Node1</title>
<g id="a_node1"><a xlink:title="Computes the nodes and weights of the Nth order Gauss&#45;Jacobi&#45;Lobotto quadrature rule with parameters ...">
<polygon fill="#bfbfbf" stroke="black" points="0,-23 0,-53 148,-53 148,-23 0,-23"/>
<text text-anchor="start" x="8" y="-41" font-family="Helvetica,sans-Serif" font-size="10.00">blitzdg::JacobiBuilders</text>
<text text-anchor="middle" x="74" y="-30" font-family="Helvetica,sans-Serif" font-size="10.00">::computeJacobiQuadWeights</text>
</a>
</g>
</g>
<!-- Node2 -->
<g id="node2" class="node"><title>Node2</title>
<g id="a_node2"><a xlink:href="classblitzdg_1_1EigenSolver.html#a67242ffc3a849bd20a497ae100b78495" target="_top" xlink:title="Computes the eigenvalues and eigenvectors of the symmetric matrix .">
<polygon fill="white" stroke="black" points="184,-23 184,-53 288,-53 288,-23 184,-23"/>
<text text-anchor="start" x="192" y="-41" font-family="Helvetica,sans-Serif" font-size="10.00">blitzdg::EigenSolver</text>
<text text-anchor="middle" x="236" y="-30" font-family="Helvetica,sans-Serif" font-size="10.00">::solve</text>
</a>
</g>
</g>
<!-- Node1&#45;&gt;Node2 -->
<g id="edge1" class="edge"><title>Node1&#45;&gt;Node2</title>
<path fill="none" stroke="midnightblue" d="M148.444,-38C156.877,-38 165.408,-38 173.659,-38"/>
<polygon fill="midnightblue" stroke="midnightblue" points="173.932,-41.5001 183.932,-38 173.932,-34.5001 173.932,-41.5001"/>
</g>
<!-- Node3 -->
<g id="node3" class="node"><title>Node3</title>
<g id="a_node3"><a xlink:href="BlitzHelpers_8hpp.html#a2b714b6a07df67f99846579b713a1581" target="_top" xlink:title="Reshapes an array to a dense matrix.">
<polygon fill="white" stroke="black" points="324,-56.5 324,-75.5 450,-75.5 450,-56.5 324,-56.5"/>
<text text-anchor="middle" x="387" y="-63.5" font-family="Helvetica,sans-Serif" font-size="10.00">blitzdg::reshape1DToMat</text>
</a>
</g>
</g>
<!-- Node2&#45;&gt;Node3 -->
<g id="edge2" class="edge"><title>Node2&#45;&gt;Node3</title>
<path fill="none" stroke="midnightblue" d="M288.277,-47.636C300.181,-49.8729 312.963,-52.275 325.231,-54.5804"/>
<polygon fill="midnightblue" stroke="midnightblue" points="324.91,-58.0813 335.385,-56.4884 326.203,-51.2017 324.91,-58.0813"/>
</g>
<!-- Node4 -->
<g id="node4" class="node"><title>Node4</title>
<g id="a_node4"><a xlink:href="BlitzHelpers_8hpp.html#aaa66bfe8cd7c9adad27aa42f765c980b" target="_top" xlink:title="Vectorizes a dense matrix by writing it to an array.">
<polygon fill="white" stroke="black" points="324,-0.5 324,-19.5 450,-19.5 450,-0.5 324,-0.5"/>
<text text-anchor="middle" x="387" y="-7.5" font-family="Helvetica,sans-Serif" font-size="10.00">blitzdg::reshapeMatTo1D</text>
</a>
</g>
</g>
<!-- Node2&#45;&gt;Node4 -->
<g id="edge4" class="edge"><title>Node2&#45;&gt;Node4</title>
<path fill="none" stroke="midnightblue" d="M288.277,-28.364C300.181,-26.1271 312.963,-23.725 325.231,-21.4196"/>
<polygon fill="midnightblue" stroke="midnightblue" points="326.203,-24.7983 335.385,-19.5116 324.91,-17.9187 326.203,-24.7983"/>
</g>
<!-- Node3&#45;&gt;Node3 -->
<g id="edge3" class="edge"><title>Node3&#45;&gt;Node3</title>
<path fill="none" stroke="midnightblue" d="M363.881,-75.7571C352.633,-84.5653 360.34,-94 387,-94 404.496,-94 413.829,-89.9368 414.999,-84.6539"/>
<polygon fill="midnightblue" stroke="midnightblue" points="417.997,-82.8417 410.119,-75.7571 411.86,-86.208 417.997,-82.8417"/>
</g>
<!-- Node4&#45;&gt;Node4 -->
<g id="edge5" class="edge"><title>Node4&#45;&gt;Node4</title>
<path fill="none" stroke="midnightblue" d="M363.881,-19.7571C352.633,-28.5653 360.34,-38 387,-38 404.496,-38 413.829,-33.9368 414.999,-28.6539"/>
<polygon fill="midnightblue" stroke="midnightblue" points="417.997,-26.8417 410.119,-19.7571 411.86,-30.208 417.997,-26.8417"/>
</g>
</g>
</svg>
