<?xml version="1.0" encoding="UTF-8" standalone="no"?>
<!DOCTYPE svg PUBLIC "-//W3C//DTD SVG 1.1//EN"
 "http://www.w3.org/Graphics/SVG/1.1/DTD/svg11.dtd">
<!-- Generated by graphviz version 2.38.0 (20140413.2041)
 -->
<!-- Title: blitzdg::TriangleNodesProvisioner::computeVandermondeMatrix Pages: 1 -->
<svg width="543pt" height="203pt"
 viewBox="0.00 0.00 543.00 202.50" xmlns="http://www.w3.org/2000/svg" xmlns:xlink="http://www.w3.org/1999/xlink">
<g id="graph0" class="graph" transform="scale(1 1) rotate(0) translate(4 198.5)">
<title>blitzdg::TriangleNodesProvisioner::computeVandermondeMatrix</title>
<polygon fill="white" stroke="none" points="-4,4 -4,-198.5 539,-198.5 539,4 -4,4"/>
<!-- Node1 -->
<g id="node1" class="node"><title>Node1</title>
<g id="a_node1"><a xlink:title="Computes the 2D Vandermonde matrix which maps modal coefficients to nodal values.">
<polygon fill="#bfbfbf" stroke="black" points="0,-49.5 0,-79.5 163,-79.5 163,-49.5 0,-49.5"/>
<text text-anchor="start" x="8" y="-67.5" font-family="Helvetica,sans-Serif" font-size="10.00">blitzdg::TriangleNodesProvisioner</text>
<text text-anchor="middle" x="81.5" y="-56.5" font-family="Helvetica,sans-Serif" font-size="10.00">::computeVandermondeMatrix</text>
</a>
</g>
</g>
<!-- Node2 -->
<g id="node2" class="node"><title>Node2</title>
<g id="a_node2"><a xlink:href="classblitzdg_1_1DenseMatrixInverter.html#abc5fdde2a78d073764d11cb3b1bdae47" target="_top" xlink:title="Inverts the dense matrix .">
<polygon fill="white" stroke="black" points="210.5,-98.5 210.5,-128.5 350.5,-128.5 350.5,-98.5 210.5,-98.5"/>
<text text-anchor="start" x="218.5" y="-116.5" font-family="Helvetica,sans-Serif" font-size="10.00">blitzdg::DenseMatrixInverter</text>
<text text-anchor="middle" x="280.5" y="-105.5" font-family="Helvetica,sans-Serif" font-size="10.00">::computeInverse</text>
</a>
</g>
</g>
<!-- Node1&#45;&gt;Node2 -->
<g id="edge1" class="edge"><title>Node1&#45;&gt;Node2</title>
<path fill="none" stroke="midnightblue" d="M142.945,-79.5346C163.935,-84.7554 187.649,-90.6537 209.354,-96.0526"/>
<polygon fill="midnightblue" stroke="midnightblue" points="208.62,-99.4765 219.169,-98.4938 210.31,-92.6835 208.62,-99.4765"/>
</g>
<!-- Node5 -->
<g id="node5" class="node"><title>Node5</title>
<g id="a_node5"><a xlink:href="classblitzdg_1_1TriangleNodesProvisioner.html#ab1a4793c4f4bc3f4d184c8dc0bbf1af4" target="_top" xlink:title="Evaluates the 2D orthonormal polynomial on the simplex at (a,b) of order (i,j).">
<polygon fill="white" stroke="black" points="199,-49.5 199,-79.5 362,-79.5 362,-49.5 199,-49.5"/>
<text text-anchor="start" x="207" y="-67.5" font-family="Helvetica,sans-Serif" font-size="10.00">blitzdg::TriangleNodesProvisioner</text>
<text text-anchor="middle" x="280.5" y="-56.5" font-family="Helvetica,sans-Serif" font-size="10.00">::evaluateSimplexPolynomial</text>
</a>
</g>
</g>
<!-- Node1&#45;&gt;Node5 -->
<g id="edge6" class="edge"><title>Node1&#45;&gt;Node5</title>
<path fill="none" stroke="midnightblue" d="M163.196,-64.5C171.673,-64.5 180.333,-64.5 188.912,-64.5"/>
<polygon fill="midnightblue" stroke="midnightblue" points="188.93,-68.0001 198.93,-64.5 188.93,-61.0001 188.93,-68.0001"/>
</g>
<!-- Node7 -->
<g id="node7" class="node"><title>Node7</title>
<g id="a_node7"><a xlink:href="classblitzdg_1_1TriangleNodesProvisioner.html#ac387403eeb135dd15dd11a4be3518b52" target="_top" xlink:title="Maps from (r,s) to (a,b) coordinates in the triangle.">
<polygon fill="white" stroke="black" points="199,-0.5 199,-30.5 362,-30.5 362,-0.5 199,-0.5"/>
<text text-anchor="start" x="207" y="-18.5" font-family="Helvetica,sans-Serif" font-size="10.00">blitzdg::TriangleNodesProvisioner</text>
<text text-anchor="middle" x="280.5" y="-7.5" font-family="Helvetica,sans-Serif" font-size="10.00">::rsToab</text>
</a>
</g>
</g>
<!-- Node1&#45;&gt;Node7 -->
<g id="edge8" class="edge"><title>Node1&#45;&gt;Node7</title>
<path fill="none" stroke="midnightblue" d="M142.945,-49.4654C163.935,-44.2446 187.649,-38.3463 209.354,-32.9474"/>
<polygon fill="midnightblue" stroke="midnightblue" points="210.31,-36.3165 219.169,-30.5062 208.62,-29.5235 210.31,-36.3165"/>
</g>
<!-- Node3 -->
<g id="node3" class="node"><title>Node3</title>
<g id="a_node3"><a xlink:href="BlitzHelpers_8hpp.html#a2b714b6a07df67f99846579b713a1581" target="_top" xlink:title="Reshapes an array to a dense matrix.">
<polygon fill="white" stroke="black" points="403.5,-157 403.5,-176 529.5,-176 529.5,-157 403.5,-157"/>
<text text-anchor="middle" x="466.5" y="-164" font-family="Helvetica,sans-Serif" font-size="10.00">blitzdg::reshape1DToMat</text>
</a>
</g>
</g>
<!-- Node2&#45;&gt;Node3 -->
<g id="edge2" class="edge"><title>Node2&#45;&gt;Node3</title>
<path fill="none" stroke="midnightblue" d="M332.507,-128.501C352.867,-134.459 376.531,-141.346 398,-147.5 405.653,-149.694 413.8,-152.006 421.69,-154.234"/>
<polygon fill="midnightblue" stroke="midnightblue" points="420.915,-157.652 431.489,-156.995 422.813,-150.914 420.915,-157.652"/>
</g>
<!-- Node4 -->
<g id="node4" class="node"><title>Node4</title>
<g id="a_node4"><a xlink:href="BlitzHelpers_8hpp.html#aaa66bfe8cd7c9adad27aa42f765c980b" target="_top" xlink:title="Vectorizes a dense matrix by writing it to an array.">
<polygon fill="white" stroke="black" points="403.5,-101 403.5,-120 529.5,-120 529.5,-101 403.5,-101"/>
<text text-anchor="middle" x="466.5" y="-108" font-family="Helvetica,sans-Serif" font-size="10.00">blitzdg::reshapeMatTo1D</text>
</a>
</g>
</g>
<!-- Node2&#45;&gt;Node4 -->
<g id="edge4" class="edge"><title>Node2&#45;&gt;Node4</title>
<path fill="none" stroke="midnightblue" d="M350.538,-112.374C364.488,-112.147 379.19,-111.907 393.247,-111.678"/>
<polygon fill="midnightblue" stroke="midnightblue" points="393.407,-115.176 403.348,-111.513 393.293,-108.177 393.407,-115.176"/>
</g>
<!-- Node3&#45;&gt;Node3 -->
<g id="edge3" class="edge"><title>Node3&#45;&gt;Node3</title>
<path fill="none" stroke="midnightblue" d="M437.832,-176.257C423.885,-185.065 433.441,-194.5 466.5,-194.5 489.228,-194.5 500.847,-190.041 501.357,-184.391"/>
<polygon fill="midnightblue" stroke="midnightblue" points="504.009,-182.096 495.168,-176.257 498.438,-186.335 504.009,-182.096"/>
</g>
<!-- Node4&#45;&gt;Node4 -->
<g id="edge5" class="edge"><title>Node4&#45;&gt;Node4</title>
<path fill="none" stroke="midnightblue" d="M437.832,-120.257C423.885,-129.065 433.441,-138.5 466.5,-138.5 489.228,-138.5 500.847,-134.041 501.357,-128.391"/>
<polygon fill="midnightblue" stroke="midnightblue" points="504.009,-126.096 495.168,-120.257 498.438,-130.335 504.009,-126.096"/>
</g>
<!-- Node6 -->
<g id="node6" class="node"><title>Node6</title>
<g id="a_node6"><a xlink:href="classblitzdg_1_1JacobiBuilders.html#a629c1bda92b2b4414c5ef22ccd6d25ce" target="_top" xlink:title="Computes the value of the Nth order Jacobi polynomial with parameters &#160;and &#160;at each point in the inpu...">
<polygon fill="white" stroke="black" points="398,-49.5 398,-79.5 535,-79.5 535,-49.5 398,-49.5"/>
<text text-anchor="start" x="406" y="-67.5" font-family="Helvetica,sans-Serif" font-size="10.00">blitzdg::JacobiBuilders</text>
<text text-anchor="middle" x="466.5" y="-56.5" font-family="Helvetica,sans-Serif" font-size="10.00">::computeJacobiPolynomial</text>
</a>
</g>
</g>
<!-- Node5&#45;&gt;Node6 -->
<g id="edge7" class="edge"><title>Node5&#45;&gt;Node6</title>
<path fill="none" stroke="midnightblue" d="M362.205,-64.5C370.649,-64.5 379.221,-64.5 387.632,-64.5"/>
<polygon fill="midnightblue" stroke="midnightblue" points="387.793,-68.0001 397.793,-64.5 387.792,-61.0001 387.793,-68.0001"/>
</g>
</g>
</svg>
