<?xml version="1.0" encoding="UTF-8" standalone="no"?>
<!DOCTYPE svg PUBLIC "-//W3C//DTD SVG 1.1//EN"
 "http://www.w3.org/Graphics/SVG/1.1/DTD/svg11.dtd">
<!-- Generated by graphviz version 2.38.0 (20140413.2041)
 -->
<!-- Title: blitzdg::TriangleNodesProvisioner::buildPhysicalGrid Pages: 1 -->
<!--zoomable 392 -->
<svg id="main" version="1.1" xmlns="http://www.w3.org/2000/svg" xmlns:xlink="http://www.w3.org/1999/xlink" xml:space="preserve" onload="init(evt)">
<style type="text/css"><![CDATA[
.edge:hover path { stroke: red; }
.edge:hover polygon { stroke: red; fill: red; }
]]></style>
<script type="text/javascript"><![CDATA[
var edges = document.getElementsByTagName('g');
if (edges && edges.length) {
  for (var i=0;i<edges.length;i++) {
    if (edges[i].id.substr(0,4)=='edge') {
      edges[i].setAttribute('class','edge');
    }
  }
}
]]></script>
        <defs>
                <circle id="rim" cx="0" cy="0" r="7"/>
                <circle id="rim2" cx="0" cy="0" r="3.5"/>
                <g id="zoomPlus">
                        <use xlink:href="#rim" fill="#404040">
                                <set attributeName="fill" to="#808080" begin="zoomplus.mouseover" end="zoomplus.mouseout"/>
                        </use>
                        <path d="M-4,0h8M0,-4v8" fill="none" stroke="white" stroke-width="1.5" pointer-events="none"/>
                </g>
                <g id="zoomMin">
                        <use xlink:href="#rim" fill="#404040">
                                <set attributeName="fill" to="#808080" begin="zoomminus.mouseover" end="zoomminus.mouseout"/>
                        </use>
                        <path d="M-4,0h8" fill="none" stroke="white" stroke-width="1.5" pointer-events="none"/>
                </g>
                <g id="dirArrow">
                        <path fill="none" stroke="white" stroke-width="1.5" d="M0,-3.0v7 M-2.5,-0.5L0,-3.0L2.5,-0.5"/>
                </g>
               <g id="resetDef">
                       <use xlink:href="#rim2" fill="#404040">
                               <set attributeName="fill" to="#808080" begin="reset.mouseover" end="reset.mouseout"/>
                       </use>
               </g>
        </defs>

<script type="text/javascript">
var viewWidth = 946;
var viewHeight = 392;
var sectionId = 'dynsection-5';
</script>
<script xlink:href="svgpan.js"/>
<svg id="graph" class="graph">
<g id="viewport">
<title>blitzdg::TriangleNodesProvisioner::buildPhysicalGrid</title>
<polygon fill="white" stroke="none" points="-4,4 -4,-387.5 942,-387.5 942,4 -4,4"/>
<!-- Node1 -->
<g id="node1" class="node"><title>Node1</title>
<g id="a_node1"><a xlink:title="Build x and y coordinates and geometric factors.">
<polygon fill="#bfbfbf" stroke="black" points="0,-147.5 0,-177.5 163,-177.5 163,-147.5 0,-147.5"/>
<text text-anchor="start" x="8" y="-165.5" font-family="Helvetica,sans-Serif" font-size="10.00">blitzdg::TriangleNodesProvisioner</text>
<text text-anchor="middle" x="81.5" y="-154.5" font-family="Helvetica,sans-Serif" font-size="10.00">::buildPhysicalGrid</text>
</a>
</g>
</g>
<!-- Node2 -->
<g id="node2" class="node"><title>Node2</title>
<g id="a_node2"><a xlink:href="classblitzdg_1_1TriangleNodesProvisioner.html#a3690f4dbca6665f66effb69f94aab6bc" target="_top" xlink:title="Compute the two 2D differentiation matrices given the Gradient of the Vandermonde matrix and the Vand...">
<polygon fill="white" stroke="black" points="201.5,-313.5 201.5,-343.5 364.5,-343.5 364.5,-313.5 201.5,-313.5"/>
<text text-anchor="start" x="209.5" y="-331.5" font-family="Helvetica,sans-Serif" font-size="10.00">blitzdg::TriangleNodesProvisioner</text>
<text text-anchor="middle" x="283" y="-320.5" font-family="Helvetica,sans-Serif" font-size="10.00">::computeDifferentiationMatrices</text>
</a>
</g>
</g>
<!-- Node1&#45;&gt;Node2 -->
<g id="edge1" class="edge"><title>Node1&#45;&gt;Node2</title>
<path fill="none" stroke="midnightblue" d="M94.0641,-177.68C113.598,-202.576 155.293,-252.599 199,-285.5 210.685,-294.296 224.43,-302.229 237.336,-308.815"/>
<polygon fill="midnightblue" stroke="midnightblue" points="236.028,-312.073 246.543,-313.366 239.13,-305.797 236.028,-312.073"/>
</g>
<!-- Node6 -->
<g id="node6" class="node"><title>Node6</title>
<g id="a_node6"><a xlink:href="classblitzdg_1_1TriangleNodesProvisioner.html#ab72907f460709c6dd73846c302fb6d7b" target="_top" xlink:title="Computes the Gradient of the 2D Vandermonde matrix.">
<polygon fill="white" stroke="black" points="199,-196.5 199,-226.5 367,-226.5 367,-196.5 199,-196.5"/>
<text text-anchor="start" x="207" y="-214.5" font-family="Helvetica,sans-Serif" font-size="10.00">blitzdg::TriangleNodesProvisioner</text>
<text text-anchor="middle" x="283" y="-203.5" font-family="Helvetica,sans-Serif" font-size="10.00">::computeGradVandermondeMatrix</text>
</a>
</g>
</g>
<!-- Node1&#45;&gt;Node6 -->
<g id="edge7" class="edge"><title>Node1&#45;&gt;Node6</title>
<path fill="none" stroke="midnightblue" d="M143.712,-177.535C164.968,-182.755 188.983,-188.654 210.964,-194.053"/>
<polygon fill="midnightblue" stroke="midnightblue" points="210.357,-197.507 220.903,-196.494 212.027,-190.71 210.357,-197.507"/>
</g>
<!-- Node11 -->
<g id="node11" class="node"><title>Node11</title>
<g id="a_node11"><a xlink:href="classblitzdg_1_1TriangleNodesProvisioner.html#a6dd0ba9ce10a2b151d34a9f793e355b3" target="_top" xlink:title="Computes the 2D Vandermonde matrix which maps modal coefficients to nodal values.">
<polygon fill="white" stroke="black" points="201.5,-245.5 201.5,-275.5 364.5,-275.5 364.5,-245.5 201.5,-245.5"/>
<text text-anchor="start" x="209.5" y="-263.5" font-family="Helvetica,sans-Serif" font-size="10.00">blitzdg::TriangleNodesProvisioner</text>
<text text-anchor="middle" x="283" y="-252.5" font-family="Helvetica,sans-Serif" font-size="10.00">::computeVandermondeMatrix</text>
</a>
</g>
</g>
<!-- Node1&#45;&gt;Node11 -->
<g id="edge13" class="edge"><title>Node1&#45;&gt;Node11</title>
<path fill="none" stroke="midnightblue" d="M102.535,-177.742C124.981,-194.203 162.96,-220.246 199,-236.5 203.384,-238.477 207.972,-240.336 212.644,-242.074"/>
<polygon fill="midnightblue" stroke="midnightblue" points="211.718,-245.459 222.313,-245.473 214.04,-238.855 211.718,-245.459"/>
</g>
<!-- Node14 -->
<g id="node14" class="node"><title>Node14</title>
<g id="a_node14"><a xlink:href="classblitzdg_1_1MeshManager.html#a913a20fecd751355bb976fe46e110e31" target="_top" xlink:title="Returns a reference to the array of element indices.">
<polygon fill="white" stroke="black" points="226.5,-147.5 226.5,-177.5 339.5,-177.5 339.5,-147.5 226.5,-147.5"/>
<text text-anchor="start" x="234.5" y="-165.5" font-family="Helvetica,sans-Serif" font-size="10.00">blitzdg::MeshManager</text>
<text text-anchor="middle" x="283" y="-154.5" font-family="Helvetica,sans-Serif" font-size="10.00">::get_Elements</text>
</a>
</g>
</g>
<!-- Node1&#45;&gt;Node14 -->
<g id="edge20" class="edge"><title>Node1&#45;&gt;Node14</title>
<path fill="none" stroke="midnightblue" d="M163.069,-162.5C180.622,-162.5 198.998,-162.5 215.912,-162.5"/>
<polygon fill="midnightblue" stroke="midnightblue" points="216.233,-166 226.233,-162.5 216.233,-159 216.233,-166"/>
</g>
<!-- Node15 -->
<g id="node15" class="node"><title>Node15</title>
<g id="a_node15"><a xlink:href="classblitzdg_1_1MeshManager.html#aa8e1e4abed28bbf536852c85567478da" target="_top" xlink:title="Returns the number of elements.">
<polygon fill="white" stroke="black" points="226.5,-98.5 226.5,-128.5 339.5,-128.5 339.5,-98.5 226.5,-98.5"/>
<text text-anchor="start" x="234.5" y="-116.5" font-family="Helvetica,sans-Serif" font-size="10.00">blitzdg::MeshManager</text>
<text text-anchor="middle" x="283" y="-105.5" font-family="Helvetica,sans-Serif" font-size="10.00">::get_NumElements</text>
</a>
</g>
</g>
<!-- Node1&#45;&gt;Node15 -->
<g id="edge21" class="edge"><title>Node1&#45;&gt;Node15</title>
<path fill="none" stroke="midnightblue" d="M143.712,-147.465C166.763,-141.804 193.059,-135.345 216.487,-129.591"/>
<polygon fill="midnightblue" stroke="midnightblue" points="217.457,-132.957 226.334,-127.172 215.788,-126.159 217.457,-132.957"/>
</g>
<!-- Node16 -->
<g id="node16" class="node"><title>Node16</title>
<g id="a_node16"><a xlink:href="classblitzdg_1_1MeshManager.html#ae946e0b137cb80449226de8a98e729d3" target="_top" xlink:title="Returns the number of vertices.">
<polygon fill="white" stroke="black" points="226.5,-49.5 226.5,-79.5 339.5,-79.5 339.5,-49.5 226.5,-49.5"/>
<text text-anchor="start" x="234.5" y="-67.5" font-family="Helvetica,sans-Serif" font-size="10.00">blitzdg::MeshManager</text>
<text text-anchor="middle" x="283" y="-56.5" font-family="Helvetica,sans-Serif" font-size="10.00">::get_NumVerts</text>
</a>
</g>
</g>
<!-- Node1&#45;&gt;Node16 -->
<g id="edge22" class="edge"><title>Node1&#45;&gt;Node16</title>
<path fill="none" stroke="midnightblue" d="M103.014,-147.262C125.57,-131.09 163.357,-105.681 199,-89.5 204.665,-86.928 210.666,-84.5347 216.745,-82.3295"/>
<polygon fill="midnightblue" stroke="midnightblue" points="218.017,-85.5932 226.326,-79.0203 215.732,-78.9767 218.017,-85.5932"/>
</g>
<!-- Node17 -->
<g id="node17" class="node"><title>Node17</title>
<g id="a_node17"><a xlink:href="classblitzdg_1_1MeshManager.html#a8e05524006b4a0fe4abb1c0ec957b9b6" target="_top" xlink:title="Returns a reference to the array of vertex coordinates.">
<polygon fill="white" stroke="black" points="226.5,-0.5 226.5,-30.5 339.5,-30.5 339.5,-0.5 226.5,-0.5"/>
<text text-anchor="start" x="234.5" y="-18.5" font-family="Helvetica,sans-Serif" font-size="10.00">blitzdg::MeshManager</text>
<text text-anchor="middle" x="283" y="-7.5" font-family="Helvetica,sans-Serif" font-size="10.00">::get_Vertices</text>
</a>
</g>
</g>
<!-- Node1&#45;&gt;Node17 -->
<g id="edge23" class="edge"><title>Node1&#45;&gt;Node17</title>
<path fill="none" stroke="midnightblue" d="M92.7963,-147.163C111.082,-121.114 151.773,-68.2607 199,-39.5 204.465,-36.172 210.413,-33.2867 216.532,-30.7889"/>
<polygon fill="midnightblue" stroke="midnightblue" points="218.091,-33.9433 226.242,-27.1751 215.649,-27.3829 218.091,-33.9433"/>
</g>
<!-- Node3 -->
<g id="node3" class="node"><title>Node3</title>
<g id="a_node3"><a xlink:href="classblitzdg_1_1DirectSolver.html#a728856cfee7ed7c7c5761d39acbc7606" target="_top" xlink:title="Solves the linear system .">
<polygon fill="white" stroke="black" points="432,-335.5 432,-365.5 537,-365.5 537,-335.5 432,-335.5"/>
<text text-anchor="start" x="440" y="-353.5" font-family="Helvetica,sans-Serif" font-size="10.00">blitzdg::DirectSolver</text>
<text text-anchor="middle" x="484.5" y="-342.5" font-family="Helvetica,sans-Serif" font-size="10.00">::solve</text>
</a>
</g>
</g>
<!-- Node2&#45;&gt;Node3 -->
<g id="edge2" class="edge"><title>Node2&#45;&gt;Node3</title>
<path fill="none" stroke="midnightblue" d="M364.569,-337.385C383.642,-339.488 403.687,-341.699 421.771,-343.693"/>
<polygon fill="midnightblue" stroke="midnightblue" points="421.559,-347.191 431.883,-344.808 422.327,-340.233 421.559,-347.191"/>
</g>
<!-- Node4 -->
<g id="node4" class="node"><title>Node4</title>
<g id="a_node4"><a xlink:href="BlitzHelpers_8hpp.html#a2b714b6a07df67f99846579b713a1581" target="_top" xlink:title="Reshapes an array to a dense matrix.">
<polygon fill="white" stroke="black" points="620.5,-346 620.5,-365 746.5,-365 746.5,-346 620.5,-346"/>
<text text-anchor="middle" x="683.5" y="-353" font-family="Helvetica,sans-Serif" font-size="10.00">blitzdg::reshape1DToMat</text>
</a>
</g>
</g>
<!-- Node3&#45;&gt;Node4 -->
<g id="edge3" class="edge"><title>Node3&#45;&gt;Node4</title>
<path fill="none" stroke="midnightblue" d="M537.002,-351.807C559.347,-352.374 585.906,-353.048 610.178,-353.664"/>
<polygon fill="midnightblue" stroke="midnightblue" points="610.336,-357.169 620.421,-353.924 610.514,-350.172 610.336,-357.169"/>
</g>
<!-- Node5 -->
<g id="node5" class="node"><title>Node5</title>
<g id="a_node5"><a xlink:href="BlitzHelpers_8hpp.html#aaa66bfe8cd7c9adad27aa42f765c980b" target="_top" xlink:title="Vectorizes a dense matrix by writing it to an array.">
<polygon fill="white" stroke="black" points="620.5,-290 620.5,-309 746.5,-309 746.5,-290 620.5,-290"/>
<text text-anchor="middle" x="683.5" y="-297" font-family="Helvetica,sans-Serif" font-size="10.00">blitzdg::reshapeMatTo1D</text>
</a>
</g>
</g>
<!-- Node3&#45;&gt;Node5 -->
<g id="edge5" class="edge"><title>Node3&#45;&gt;Node5</title>
<path fill="none" stroke="midnightblue" d="M537.002,-337.167C567.627,-329.239 606.169,-319.261 635.889,-311.567"/>
<polygon fill="midnightblue" stroke="midnightblue" points="636.802,-314.946 645.606,-309.051 635.048,-308.169 636.802,-314.946"/>
</g>
<!-- Node4&#45;&gt;Node4 -->
<g id="edge4" class="edge"><title>Node4&#45;&gt;Node4</title>
<path fill="none" stroke="midnightblue" d="M654.832,-365.257C640.885,-374.065 650.441,-383.5 683.5,-383.5 706.228,-383.5 717.847,-379.041 718.357,-373.391"/>
<polygon fill="midnightblue" stroke="midnightblue" points="721.009,-371.096 712.168,-365.257 715.438,-375.335 721.009,-371.096"/>
</g>
<!-- Node5&#45;&gt;Node5 -->
<g id="edge6" class="edge"><title>Node5&#45;&gt;Node5</title>
<path fill="none" stroke="midnightblue" d="M654.832,-309.257C640.885,-318.065 650.441,-327.5 683.5,-327.5 706.228,-327.5 717.847,-323.041 718.357,-317.391"/>
<polygon fill="midnightblue" stroke="midnightblue" points="721.009,-315.096 712.168,-309.257 715.438,-319.335 721.009,-315.096"/>
</g>
<!-- Node7 -->
<g id="node7" class="node"><title>Node7</title>
<g id="a_node7"><a xlink:href="classblitzdg_1_1TriangleNodesProvisioner.html#a198dfd20f8c2c8b047c2b5ec8d243887" target="_top" xlink:title="Evaluates the gradient of the 2D orthonormal polynomial of index (id,jd) on the simplex at (a,...">
<polygon fill="white" stroke="black" points="403,-149.5 403,-179.5 566,-179.5 566,-149.5 403,-149.5"/>
<text text-anchor="start" x="411" y="-167.5" font-family="Helvetica,sans-Serif" font-size="10.00">blitzdg::TriangleNodesProvisioner</text>
<text text-anchor="middle" x="484.5" y="-156.5" font-family="Helvetica,sans-Serif" font-size="10.00">::evaluateGradSimplex</text>
</a>
</g>
</g>
<!-- Node6&#45;&gt;Node7 -->
<g id="edge8" class="edge"><title>Node6&#45;&gt;Node7</title>
<path fill="none" stroke="midnightblue" d="M347.672,-196.5C367.467,-191.836 389.453,-186.656 409.869,-181.847"/>
<polygon fill="midnightblue" stroke="midnightblue" points="410.818,-185.219 419.749,-179.519 409.213,-178.405 410.818,-185.219"/>
</g>
<!-- Node10 -->
<g id="node10" class="node"><title>Node10</title>
<g id="a_node10"><a xlink:href="classblitzdg_1_1TriangleNodesProvisioner.html#ac387403eeb135dd15dd11a4be3518b52" target="_top" xlink:title="Maps from (r,s) to (a,b) coordinates in the triangle.">
<polygon fill="white" stroke="black" points="403,-198.5 403,-228.5 566,-228.5 566,-198.5 403,-198.5"/>
<text text-anchor="start" x="411" y="-216.5" font-family="Helvetica,sans-Serif" font-size="10.00">blitzdg::TriangleNodesProvisioner</text>
<text text-anchor="middle" x="484.5" y="-205.5" font-family="Helvetica,sans-Serif" font-size="10.00">::rsToab</text>
</a>
</g>
</g>
<!-- Node6&#45;&gt;Node10 -->
<g id="edge12" class="edge"><title>Node6&#45;&gt;Node10</title>
<path fill="none" stroke="midnightblue" d="M367.161,-212.334C375.522,-212.418 384.044,-212.503 392.481,-212.588"/>
<polygon fill="midnightblue" stroke="midnightblue" points="392.679,-216.09 402.714,-212.69 392.75,-209.09 392.679,-216.09"/>
</g>
<!-- Node8 -->
<g id="node8" class="node"><title>Node8</title>
<g id="a_node8"><a xlink:href="classblitzdg_1_1JacobiBuilders.html#a7e4e8d22f83e71108552a213439bb186" target="_top" xlink:title="Computes the first derivative of the Nth order Jacobi polynomial with parameters &#160;and &#160;at each point ...">
<polygon fill="white" stroke="black" points="626,-149.5 626,-179.5 741,-179.5 741,-149.5 626,-149.5"/>
<text text-anchor="start" x="634" y="-167.5" font-family="Helvetica,sans-Serif" font-size="10.00">blitzdg::JacobiBuilders</text>
<text text-anchor="middle" x="683.5" y="-156.5" font-family="Helvetica,sans-Serif" font-size="10.00">::computeGradJacobi</text>
</a>
</g>
</g>
<!-- Node7&#45;&gt;Node8 -->
<g id="edge9" class="edge"><title>Node7&#45;&gt;Node8</title>
<path fill="none" stroke="midnightblue" d="M566.196,-164.5C582.583,-164.5 599.65,-164.5 615.501,-164.5"/>
<polygon fill="midnightblue" stroke="midnightblue" points="615.722,-168 625.722,-164.5 615.722,-161 615.722,-168"/>
</g>
<!-- Node9 -->
<g id="node9" class="node"><title>Node9</title>
<g id="a_node9"><a xlink:href="classblitzdg_1_1JacobiBuilders.html#a629c1bda92b2b4414c5ef22ccd6d25ce" target="_top" xlink:title="Computes the value of the Nth order Jacobi polynomial with parameters &#160;and &#160;at each point in the inpu...">
<polygon fill="white" stroke="black" points="801,-193.5 801,-223.5 938,-223.5 938,-193.5 801,-193.5"/>
<text text-anchor="start" x="809" y="-211.5" font-family="Helvetica,sans-Serif" font-size="10.00">blitzdg::JacobiBuilders</text>
<text text-anchor="middle" x="869.5" y="-200.5" font-family="Helvetica,sans-Serif" font-size="10.00">::computeJacobiPolynomial</text>
</a>
</g>
</g>
<!-- Node7&#45;&gt;Node9 -->
<g id="edge11" class="edge"><title>Node7&#45;&gt;Node9</title>
<path fill="none" stroke="midnightblue" d="M547.788,-179.552C565.24,-183.309 584.285,-186.98 602,-189.5 665.203,-198.489 737.475,-203.305 790.797,-205.836"/>
<polygon fill="midnightblue" stroke="midnightblue" points="790.713,-209.335 800.863,-206.297 791.034,-202.343 790.713,-209.335"/>
</g>
<!-- Node8&#45;&gt;Node9 -->
<g id="edge10" class="edge"><title>Node8&#45;&gt;Node9</title>
<path fill="none" stroke="midnightblue" d="M741.207,-178.06C758.403,-182.172 777.536,-186.748 795.636,-191.076"/>
<polygon fill="midnightblue" stroke="midnightblue" points="795.027,-194.529 805.567,-193.451 796.655,-187.721 795.027,-194.529"/>
</g>
<!-- Node11&#45;&gt;Node10 -->
<g id="edge19" class="edge"><title>Node11&#45;&gt;Node10</title>
<path fill="none" stroke="midnightblue" d="M347.672,-245.5C367.467,-240.836 389.453,-235.656 409.869,-230.847"/>
<polygon fill="midnightblue" stroke="midnightblue" points="410.818,-234.219 419.749,-228.519 409.213,-227.405 410.818,-234.219"/>
</g>
<!-- Node12 -->
<g id="node12" class="node"><title>Node12</title>
<g id="a_node12"><a xlink:href="classblitzdg_1_1DenseMatrixInverter.html#abc5fdde2a78d073764d11cb3b1bdae47" target="_top" xlink:title="Inverts the dense matrix .">
<polygon fill="white" stroke="black" points="414.5,-286.5 414.5,-316.5 554.5,-316.5 554.5,-286.5 414.5,-286.5"/>
<text text-anchor="start" x="422.5" y="-304.5" font-family="Helvetica,sans-Serif" font-size="10.00">blitzdg::DenseMatrixInverter</text>
<text text-anchor="middle" x="484.5" y="-293.5" font-family="Helvetica,sans-Serif" font-size="10.00">::computeInverse</text>
</a>
</g>
</g>
<!-- Node11&#45;&gt;Node12 -->
<g id="edge14" class="edge"><title>Node11&#45;&gt;Node12</title>
<path fill="none" stroke="midnightblue" d="M357.154,-275.534C372.479,-278.684 388.708,-282.019 404.244,-285.212"/>
<polygon fill="midnightblue" stroke="midnightblue" points="403.837,-288.701 414.337,-287.286 405.246,-281.845 403.837,-288.701"/>
</g>
<!-- Node13 -->
<g id="node13" class="node"><title>Node13</title>
<g id="a_node13"><a xlink:href="classblitzdg_1_1TriangleNodesProvisioner.html#ab1a4793c4f4bc3f4d184c8dc0bbf1af4" target="_top" xlink:title="Evaluates the 2D orthonormal polynomial on the simplex at (a,b) of order (i,j).">
<polygon fill="white" stroke="black" points="602,-238.5 602,-268.5 765,-268.5 765,-238.5 602,-238.5"/>
<text text-anchor="start" x="610" y="-256.5" font-family="Helvetica,sans-Serif" font-size="10.00">blitzdg::TriangleNodesProvisioner</text>
<text text-anchor="middle" x="683.5" y="-245.5" font-family="Helvetica,sans-Serif" font-size="10.00">::evaluateSimplexPolynomial</text>
</a>
</g>
</g>
<!-- Node11&#45;&gt;Node13 -->
<g id="edge17" class="edge"><title>Node11&#45;&gt;Node13</title>
<path fill="none" stroke="midnightblue" d="M364.642,-259.083C430.405,-257.928 523.269,-256.297 591.647,-255.096"/>
<polygon fill="midnightblue" stroke="midnightblue" points="592.041,-258.59 601.978,-254.914 591.918,-251.591 592.041,-258.59"/>
</g>
<!-- Node12&#45;&gt;Node4 -->
<g id="edge15" class="edge"><title>Node12&#45;&gt;Node4</title>
<path fill="none" stroke="midnightblue" d="M533.211,-316.539C554.223,-322.98 579.255,-330.405 602,-336.5 610.964,-338.902 620.532,-341.302 629.828,-343.548"/>
<polygon fill="midnightblue" stroke="midnightblue" points="629.228,-347.003 639.767,-345.918 630.851,-340.194 629.228,-347.003"/>
</g>
<!-- Node12&#45;&gt;Node5 -->
<g id="edge16" class="edge"><title>Node12&#45;&gt;Node5</title>
<path fill="none" stroke="midnightblue" d="M554.678,-300.798C572.648,-300.615 592.051,-300.418 610.179,-300.234"/>
<polygon fill="midnightblue" stroke="midnightblue" points="610.427,-303.732 620.391,-300.131 610.356,-296.732 610.427,-303.732"/>
</g>
<!-- Node13&#45;&gt;Node9 -->
<g id="edge18" class="edge"><title>Node13&#45;&gt;Node9</title>
<path fill="none" stroke="midnightblue" d="M746.025,-238.453C762.444,-234.438 780.322,-230.065 797.217,-225.933"/>
<polygon fill="midnightblue" stroke="midnightblue" points="798.151,-229.308 807.033,-223.533 796.488,-222.509 798.151,-229.308"/>
</g>
</g>
</svg>
        <g id="navigator" transform="translate(0 0)" fill="#404254">
                <rect fill="#f2f5e9" fill-opacity="0.5" stroke="#606060" stroke-width=".5" x="0" y="0" width="60" height="60"/>
                <use id="zoomplus" xlink:href="#zoomPlus" x="17" y="9" onmousedown="handleZoom(evt,'in')"/>
                <use id="zoomminus" xlink:href="#zoomMin" x="42" y="9" onmousedown="handleZoom(evt,'out')"/>
                <use id="reset" xlink:href="#resetDef" x="30" y="36" onmousedown="handleReset()"/>
                <g id="arrowUp" xlink:href="#dirArrow" transform="translate(30 24)" onmousedown="handlePan(0,-1)">
                  <use xlink:href="#rim" fill="#404040">
                        <set attributeName="fill" to="#808080" begin="arrowUp.mouseover" end="arrowUp.mouseout"/>
                  </use>
                  <path fill="none" stroke="white" stroke-width="1.5" d="M0,-3.0v7 M-2.5,-0.5L0,-3.0L2.5,-0.5"/>
                </g>
                <g id="arrowRight" xlink:href="#dirArrow" transform="rotate(90) translate(36 -43)" onmousedown="handlePan(1,0)">
                  <use xlink:href="#rim" fill="#404040">
                        <set attributeName="fill" to="#808080" begin="arrowRight.mouseover" end="arrowRight.mouseout"/>
                  </use>
                  <path fill="none" stroke="white" stroke-width="1.5" d="M0,-3.0v7 M-2.5,-0.5L0,-3.0L2.5,-0.5"/>
                </g>
                <g id="arrowDown" xlink:href="#dirArrow" transform="rotate(180) translate(-30 -48)" onmousedown="handlePan(0,1)">
                  <use xlink:href="#rim" fill="#404040">
                        <set attributeName="fill" to="#808080" begin="arrowDown.mouseover" end="arrowDown.mouseout"/>
                  </use>
                  <path fill="none" stroke="white" stroke-width="1.5" d="M0,-3.0v7 M-2.5,-0.5L0,-3.0L2.5,-0.5"/>
                </g>
                <g id="arrowLeft" xlink:href="#dirArrow" transform="rotate(270) translate(-36 17)" onmousedown="handlePan(-1,0)">
                  <use xlink:href="#rim" fill="#404040">
                        <set attributeName="fill" to="#808080" begin="arrowLeft.mouseover" end="arrowLeft.mouseout"/>
                  </use>
                  <path fill="none" stroke="white" stroke-width="1.5" d="M0,-3.0v7 M-2.5,-0.5L0,-3.0L2.5,-0.5"/>
                </g>
        </g>
        <svg viewBox="0 0 15 15" width="100%" height="30px" preserveAspectRatio="xMaxYMin meet">
         <g id="arrow_out" transform="scale(0.3 0.3)">
          <a xlink:href="classblitzdg_1_1TriangleNodesProvisioner_aef7f798f38c69f237c124b92ce3af33b_cgraph_org.svg" target="_base">
           <rect id="button" ry="5" rx="5" y="6" x="6" height="38" width="38"
                fill="#f2f5e9" fill-opacity="0.5" stroke="#606060" stroke-width="1.0"/>
           <path id="arrow"
             d="M 11.500037,31.436501 C 11.940474,20.09759 22.043105,11.32322 32.158766,21.979434 L 37.068811,17.246167 C 37.068811,17.246167 37.088388,32 37.088388,32 L 22.160133,31.978069 C 22.160133,31.978069 26.997745,27.140456 26.997745,27.140456 C 18.528582,18.264221 13.291696,25.230495 11.500037,31.436501 z"
             style="fill:#404040;"/>
          </a>
         </g>
        </svg>
</svg>
