<?xml version="1.0" encoding="UTF-8" standalone="no"?>
<!DOCTYPE svg PUBLIC "-//W3C//DTD SVG 1.1//EN"
 "http://www.w3.org/Graphics/SVG/1.1/DTD/svg11.dtd">
<!-- Generated by graphviz version 2.38.0 (20140413.2041)
 -->
<!-- Title: blitzdg::VandermondeBuilders::computeVandermondeMatrix Pages: 1 -->
<svg width="493pt" height="129pt"
 viewBox="0.00 0.00 493.00 128.50" xmlns="http://www.w3.org/2000/svg" xmlns:xlink="http://www.w3.org/1999/xlink">
<g id="graph0" class="graph" transform="scale(1 1) rotate(0) translate(4 124.5)">
<title>blitzdg::VandermondeBuilders::computeVandermondeMatrix</title>
<polygon fill="white" stroke="none" points="-4,4 -4,-124.5 489,-124.5 489,4 -4,4"/>
<!-- Node1 -->
<g id="node1" class="node"><title>Node1</title>
<g id="a_node1"><a xlink:title="Computes the Vandermonde matrix which maps modal coefficients to nodal values.">
<polygon fill="#bfbfbf" stroke="black" points="0,-24.5 0,-54.5 147,-54.5 147,-24.5 0,-24.5"/>
<text text-anchor="start" x="8" y="-42.5" font-family="Helvetica,sans-Serif" font-size="10.00">blitzdg::VandermondeBuilders</text>
<text text-anchor="middle" x="73.5" y="-31.5" font-family="Helvetica,sans-Serif" font-size="10.00">::computeVandermondeMatrix</text>
</a>
</g>
</g>
<!-- Node2 -->
<g id="node2" class="node"><title>Node2</title>
<g id="a_node2"><a xlink:href="classblitzdg_1_1DenseMatrixInverter.html#abc5fdde2a78d073764d11cb3b1bdae47" target="_top" xlink:title="Inverts the dense matrix .">
<polygon fill="white" stroke="black" points="183,-49.5 183,-79.5 323,-79.5 323,-49.5 183,-49.5"/>
<text text-anchor="start" x="191" y="-67.5" font-family="Helvetica,sans-Serif" font-size="10.00">blitzdg::DenseMatrixInverter</text>
<text text-anchor="middle" x="253" y="-56.5" font-family="Helvetica,sans-Serif" font-size="10.00">::computeInverse</text>
</a>
</g>
</g>
<!-- Node1&#45;&gt;Node2 -->
<g id="edge1" class="edge"><title>Node1&#45;&gt;Node2</title>
<path fill="none" stroke="midnightblue" d="M147.208,-49.7406C155.672,-50.9327 164.338,-52.1532 172.883,-53.3567"/>
<polygon fill="midnightblue" stroke="midnightblue" points="172.448,-56.83 182.839,-54.759 173.425,-49.8984 172.448,-56.83"/>
</g>
<!-- Node5 -->
<g id="node5" class="node"><title>Node5</title>
<g id="a_node5"><a xlink:href="classblitzdg_1_1JacobiBuilders.html#a629c1bda92b2b4414c5ef22ccd6d25ce" target="_top" xlink:title="Computes the value of the Nth order Jacobi polynomial with parameters &#160;and &#160;at each point in the inpu...">
<polygon fill="white" stroke="black" points="184.5,-0.5 184.5,-30.5 321.5,-30.5 321.5,-0.5 184.5,-0.5"/>
<text text-anchor="start" x="192.5" y="-18.5" font-family="Helvetica,sans-Serif" font-size="10.00">blitzdg::JacobiBuilders</text>
<text text-anchor="middle" x="253" y="-7.5" font-family="Helvetica,sans-Serif" font-size="10.00">::computeJacobiPolynomial</text>
</a>
</g>
</g>
<!-- Node1&#45;&gt;Node5 -->
<g id="edge6" class="edge"><title>Node1&#45;&gt;Node5</title>
<path fill="none" stroke="midnightblue" d="M147.208,-29.669C156.112,-28.4651 165.239,-27.2311 174.214,-26.0176"/>
<polygon fill="midnightblue" stroke="midnightblue" points="174.821,-29.4674 184.262,-24.659 173.883,-22.5305 174.821,-29.4674"/>
</g>
<!-- Node3 -->
<g id="node3" class="node"><title>Node3</title>
<g id="a_node3"><a xlink:href="BlitzHelpers_8hpp.html#a2b714b6a07df67f99846579b713a1581" target="_top" xlink:title="Reshapes an array to a dense matrix.">
<polygon fill="white" stroke="black" points="359,-83 359,-102 485,-102 485,-83 359,-83"/>
<text text-anchor="middle" x="422" y="-90" font-family="Helvetica,sans-Serif" font-size="10.00">blitzdg::reshape1DToMat</text>
</a>
</g>
</g>
<!-- Node2&#45;&gt;Node3 -->
<g id="edge2" class="edge"><title>Node2&#45;&gt;Node3</title>
<path fill="none" stroke="midnightblue" d="M323.372,-76.1313C333.588,-77.8442 344.095,-79.6058 354.257,-81.3095"/>
<polygon fill="midnightblue" stroke="midnightblue" points="353.838,-84.7881 364.279,-82.99 354.996,-77.8845 353.838,-84.7881"/>
</g>
<!-- Node4 -->
<g id="node4" class="node"><title>Node4</title>
<g id="a_node4"><a xlink:href="BlitzHelpers_8hpp.html#aaa66bfe8cd7c9adad27aa42f765c980b" target="_top" xlink:title="Vectorizes a dense matrix by writing it to an array.">
<polygon fill="white" stroke="black" points="359,-27 359,-46 485,-46 485,-27 359,-27"/>
<text text-anchor="middle" x="422" y="-34" font-family="Helvetica,sans-Serif" font-size="10.00">blitzdg::reshapeMatTo1D</text>
</a>
</g>
</g>
<!-- Node2&#45;&gt;Node4 -->
<g id="edge4" class="edge"><title>Node2&#45;&gt;Node4</title>
<path fill="none" stroke="midnightblue" d="M323.372,-52.8687C333.588,-51.1558 344.095,-49.3942 354.257,-47.6905"/>
<polygon fill="midnightblue" stroke="midnightblue" points="354.996,-51.1155 364.279,-46.01 353.838,-44.2119 354.996,-51.1155"/>
</g>
<!-- Node3&#45;&gt;Node3 -->
<g id="edge3" class="edge"><title>Node3&#45;&gt;Node3</title>
<path fill="none" stroke="midnightblue" d="M396.106,-102.257C383.509,-111.065 392.141,-120.5 422,-120.5 442.062,-120.5 452.541,-116.241 453.437,-110.775"/>
<polygon fill="midnightblue" stroke="midnightblue" points="456.282,-108.729 447.894,-102.257 450.415,-112.548 456.282,-108.729"/>
</g>
<!-- Node4&#45;&gt;Node4 -->
<g id="edge5" class="edge"><title>Node4&#45;&gt;Node4</title>
<path fill="none" stroke="midnightblue" d="M396.106,-46.2571C383.509,-55.0653 392.141,-64.5 422,-64.5 442.062,-64.5 452.541,-60.241 453.437,-54.7746"/>
<polygon fill="midnightblue" stroke="midnightblue" points="456.282,-52.7291 447.894,-46.2571 450.415,-56.5475 456.282,-52.7291"/>
</g>
</g>
</svg>
