<?xml version="1.0" encoding="UTF-8" standalone="no"?>
<!DOCTYPE svg PUBLIC "-//W3C//DTD SVG 1.1//EN"
 "http://www.w3.org/Graphics/SVG/1.1/DTD/svg11.dtd">
<!-- Generated by graphviz version 2.38.0 (20140413.2041)
 -->
<!-- Title: blitzdg::operator&lt;&lt; Pages: 1 -->
<svg width="272pt" height="218pt"
 viewBox="0.00 0.00 272.00 218.00" xmlns="http://www.w3.org/2000/svg" xmlns:xlink="http://www.w3.org/1999/xlink">
<g id="graph0" class="graph" transform="scale(1 1) rotate(0) translate(4 214)">
<title>blitzdg::operator&lt;&lt;</title>
<polygon fill="white" stroke="none" points="-4,4 -4,-214 268,-214 268,4 -4,4"/>
<!-- Node1 -->
<g id="node1" class="node"><title>Node1</title>
<g id="a_node1"><a xlink:title="Writes the CSC matrix to the output stream in coordinate format (i, j, elem).">
<polygon fill="#bfbfbf" stroke="black" points="0,-95.5 0,-114.5 98,-114.5 98,-95.5 0,-95.5"/>
<text text-anchor="middle" x="49" y="-102.5" font-family="Helvetica,sans-Serif" font-size="10.00">blitzdg::operator&lt;&lt;</text>
</a>
</g>
</g>
<!-- Node1&#45;&gt;Node1 -->
<g id="edge5" class="edge"><title>Node1&#45;&gt;Node1</title>
<path fill="none" stroke="midnightblue" d="M25.8806,-114.757C14.6334,-123.565 22.3398,-133 49,-133 66.4957,-133 75.8288,-128.937 76.9991,-123.654"/>
<polygon fill="midnightblue" stroke="midnightblue" points="79.9971,-121.842 72.1194,-114.757 73.8597,-125.208 79.9971,-121.842"/>
</g>
<!-- Node2 -->
<g id="node2" class="node"><title>Node2</title>
<g id="a_node2"><a xlink:href="classblitzdg_1_1CSCMat.html#ac3cfc9336711481db047c7183d3d9ad2" target="_top" xlink:title="Provides read&#45;write access to the kth column pointer index.">
<polygon fill="white" stroke="black" points="136,-190.5 136,-209.5 262,-209.5 262,-190.5 136,-190.5"/>
<text text-anchor="middle" x="199" y="-197.5" font-family="Helvetica,sans-Serif" font-size="10.00">blitzdg::CSCMat::colPtrs</text>
</a>
</g>
</g>
<!-- Node1&#45;&gt;Node2 -->
<g id="edge1" class="edge"><title>Node1&#45;&gt;Node2</title>
<path fill="none" stroke="midnightblue" d="M58.0303,-114.66C71.8966,-130.735 101.94,-162.982 134,-181 137.914,-183.2 142.108,-185.168 146.409,-186.926"/>
<polygon fill="midnightblue" stroke="midnightblue" points="145.333,-190.26 155.926,-190.444 147.76,-183.694 145.333,-190.26"/>
</g>
<!-- Node3 -->
<g id="node3" class="node"><title>Node3</title>
<g id="a_node3"><a xlink:href="classblitzdg_1_1CSCMat.html#a36200cdfcaf057020cb649dbadc76a71" target="_top" xlink:title="Returns the number of columns.">
<polygon fill="white" stroke="black" points="142.5,-152.5 142.5,-171.5 255.5,-171.5 255.5,-152.5 142.5,-152.5"/>
<text text-anchor="middle" x="199" y="-159.5" font-family="Helvetica,sans-Serif" font-size="10.00">blitzdg::CSCMat::cols</text>
</a>
</g>
</g>
<!-- Node1&#45;&gt;Node3 -->
<g id="edge2" class="edge"><title>Node1&#45;&gt;Node3</title>
<path fill="none" stroke="midnightblue" d="M69.0383,-114.513C85.8635,-122.701 111.202,-134.504 134,-143 140.058,-145.258 146.515,-147.433 152.909,-149.456"/>
<polygon fill="midnightblue" stroke="midnightblue" points="152.252,-152.915 162.839,-152.498 154.302,-146.222 152.252,-152.915"/>
</g>
<!-- Node4 -->
<g id="node4" class="node"><title>Node4</title>
<g id="a_node4"><a xlink:href="classblitzdg_1_1CSCMat.html#a172a6117183b30613657fd15add8c652" target="_top" xlink:title="Provides read&#45;write access to the kth nonzero element.">
<polygon fill="white" stroke="black" points="138,-114.5 138,-133.5 260,-133.5 260,-114.5 138,-114.5"/>
<text text-anchor="middle" x="199" y="-121.5" font-family="Helvetica,sans-Serif" font-size="10.00">blitzdg::CSCMat::elems</text>
</a>
</g>
</g>
<!-- Node1&#45;&gt;Node4 -->
<g id="edge3" class="edge"><title>Node1&#45;&gt;Node4</title>
<path fill="none" stroke="midnightblue" d="M98.0514,-111.169C107.547,-112.388 117.695,-113.691 127.751,-114.981"/>
<polygon fill="midnightblue" stroke="midnightblue" points="127.383,-118.463 137.748,-116.265 128.275,-111.52 127.383,-118.463"/>
</g>
<!-- Node5 -->
<g id="node5" class="node"><title>Node5</title>
<g id="a_node5"><a xlink:href="classblitzdg_1_1CSCMat.html#ad8f0ade61a85751e4da13065584c81cb" target="_top" xlink:title="Returns the number of nonzero elements.">
<polygon fill="white" stroke="black" points="143.5,-76.5 143.5,-95.5 254.5,-95.5 254.5,-76.5 143.5,-76.5"/>
<text text-anchor="middle" x="199" y="-83.5" font-family="Helvetica,sans-Serif" font-size="10.00">blitzdg::CSCMat::nnz</text>
</a>
</g>
</g>
<!-- Node1&#45;&gt;Node5 -->
<g id="edge4" class="edge"><title>Node1&#45;&gt;Node5</title>
<path fill="none" stroke="midnightblue" d="M98.0514,-98.8312C109.214,-97.3981 121.28,-95.8492 133.036,-94.34"/>
<polygon fill="midnightblue" stroke="midnightblue" points="133.785,-97.7727 143.257,-93.0278 132.893,-90.8297 133.785,-97.7727"/>
</g>
<!-- Node6 -->
<g id="node6" class="node"><title>Node6</title>
<g id="a_node6"><a xlink:href="classblitzdg_1_1CSCMat.html#a10225fa24f960187226b9a3a3628303e" target="_top" xlink:title="Provides read&#45;write access to the kth row index.">
<polygon fill="white" stroke="black" points="134,-38.5 134,-57.5 264,-57.5 264,-38.5 134,-38.5"/>
<text text-anchor="middle" x="199" y="-45.5" font-family="Helvetica,sans-Serif" font-size="10.00">blitzdg::CSCMat::rowInds</text>
</a>
</g>
</g>
<!-- Node1&#45;&gt;Node6 -->
<g id="edge6" class="edge"><title>Node1&#45;&gt;Node6</title>
<path fill="none" stroke="midnightblue" d="M69.0383,-95.4875C85.8635,-87.2992 111.202,-75.4956 134,-67 140.058,-64.7424 146.515,-62.5665 152.909,-60.544"/>
<polygon fill="midnightblue" stroke="midnightblue" points="154.302,-63.7777 162.839,-57.5022 152.252,-57.0847 154.302,-63.7777"/>
</g>
<!-- Node7 -->
<g id="node7" class="node"><title>Node7</title>
<g id="a_node7"><a xlink:href="classblitzdg_1_1CSCMat.html#a0d1d954ba5a1483f2188b65446a40d22" target="_top" xlink:title="Returns the number of rows.">
<polygon fill="white" stroke="black" points="141,-0.5 141,-19.5 257,-19.5 257,-0.5 141,-0.5"/>
<text text-anchor="middle" x="199" y="-7.5" font-family="Helvetica,sans-Serif" font-size="10.00">blitzdg::CSCMat::rows</text>
</a>
</g>
</g>
<!-- Node1&#45;&gt;Node7 -->
<g id="edge7" class="edge"><title>Node1&#45;&gt;Node7</title>
<path fill="none" stroke="midnightblue" d="M58.0303,-95.3396C71.8966,-79.2652 101.94,-47.0179 134,-29 137.914,-26.8005 142.108,-24.8315 146.409,-23.0738"/>
<polygon fill="midnightblue" stroke="midnightblue" points="147.76,-26.3059 155.926,-19.5557 145.333,-19.7401 147.76,-26.3059"/>
</g>
</g>
</svg>
