<?xml version="1.0" encoding="UTF-8" standalone="no"?>
<!DOCTYPE svg PUBLIC "-//W3C//DTD SVG 1.1//EN"
 "http://www.w3.org/Graphics/SVG/1.1/DTD/svg11.dtd">
<!-- Generated by graphviz version 2.38.0 (20140413.2041)
 -->
<!-- Title: include/CSCMatrix.hpp Pages: 1 -->
<svg width="508pt" height="196pt"
 viewBox="0.00 0.00 508.00 196.00" xmlns="http://www.w3.org/2000/svg" xmlns:xlink="http://www.w3.org/1999/xlink">
<g id="graph0" class="graph" transform="scale(1 1) rotate(0) translate(4 192)">
<title>include/CSCMatrix.hpp</title>
<polygon fill="white" stroke="none" points="-4,4 -4,-192 504,-192 504,4 -4,4"/>
<!-- Node1 -->
<g id="node1" class="node"><title>Node1</title>
<g id="a_node1"><a xlink:title=" ">
<polygon fill="#bfbfbf" stroke="black" points="256,-168.5 256,-187.5 374,-187.5 374,-168.5 256,-168.5"/>
<text text-anchor="middle" x="315" y="-175.5" font-family="Helvetica,sans-Serif" font-size="10.00">include/CSCMatrix.hpp</text>
</a>
</g>
</g>
<!-- Node2 -->
<g id="node2" class="node"><title>Node2</title>
<g id="a_node2"><a xlink:href="SparseTriplet_8hpp.html" target="_top" xlink:title="Defines a sparse triplet matrix class.">
<polygon fill="white" stroke="black" points="159.5,-112.5 159.5,-131.5 252.5,-131.5 252.5,-112.5 159.5,-112.5"/>
<text text-anchor="middle" x="206" y="-119.5" font-family="Helvetica,sans-Serif" font-size="10.00">SparseTriplet.hpp</text>
</a>
</g>
</g>
<!-- Node1&#45;&gt;Node2 -->
<g id="edge1" class="edge"><title>Node1&#45;&gt;Node2</title>
<path fill="none" stroke="midnightblue" d="M297.487,-168.324C279.928,-159.625 252.669,-146.12 232.469,-136.113"/>
<polygon fill="midnightblue" stroke="midnightblue" points="233.984,-132.958 223.469,-131.655 230.876,-139.23 233.984,-132.958"/>
</g>
<!-- Node3 -->
<g id="node3" class="node"><title>Node3</title>
<g id="a_node3"><a xlink:href="Types_8hpp.html" target="_top" xlink:title="Defines the basic types used throughout this project.">
<polygon fill="white" stroke="black" points="100,-56.5 100,-75.5 162,-75.5 162,-56.5 100,-56.5"/>
<text text-anchor="middle" x="131" y="-63.5" font-family="Helvetica,sans-Serif" font-size="10.00">Types.hpp</text>
</a>
</g>
</g>
<!-- Node1&#45;&gt;Node3 -->
<g id="edge8" class="edge"><title>Node1&#45;&gt;Node3</title>
<path fill="none" stroke="midnightblue" d="M255.742,-174.55C221.059,-170.078 178.766,-158.926 151,-132 138.694,-120.066 133.914,-100.762 132.081,-86.2853"/>
<polygon fill="midnightblue" stroke="midnightblue" points="135.533,-85.5919 131.155,-75.9437 128.561,-86.2158 135.533,-85.5919"/>
</g>
<!-- Node8 -->
<g id="node8" class="node"><title>Node8</title>
<g id="a_node8"><a xlink:title=" ">
<polygon fill="white" stroke="#bfbfbf" points="270.5,-112.5 270.5,-131.5 359.5,-131.5 359.5,-112.5 270.5,-112.5"/>
<text text-anchor="middle" x="315" y="-119.5" font-family="Helvetica,sans-Serif" font-size="10.00">suitesparse/cs.h</text>
</a>
</g>
</g>
<!-- Node1&#45;&gt;Node8 -->
<g id="edge9" class="edge"><title>Node1&#45;&gt;Node8</title>
<path fill="none" stroke="midnightblue" d="M315,-168.083C315,-161.006 315,-150.861 315,-141.986"/>
<polygon fill="midnightblue" stroke="midnightblue" points="318.5,-141.751 315,-131.751 311.5,-141.751 318.5,-141.751"/>
</g>
<!-- Node9 -->
<g id="node9" class="node"><title>Node9</title>
<g id="a_node9"><a xlink:title=" ">
<polygon fill="white" stroke="#bfbfbf" points="378,-112.5 378,-131.5 430,-131.5 430,-112.5 378,-112.5"/>
<text text-anchor="middle" x="404" y="-119.5" font-family="Helvetica,sans-Serif" font-size="10.00">ostream</text>
</a>
</g>
</g>
<!-- Node1&#45;&gt;Node9 -->
<g id="edge10" class="edge"><title>Node1&#45;&gt;Node9</title>
<path fill="none" stroke="midnightblue" d="M329.299,-168.324C343.183,-159.9 364.492,-146.971 380.804,-137.074"/>
<polygon fill="midnightblue" stroke="midnightblue" points="383.002,-139.834 389.736,-131.655 379.371,-133.85 383.002,-139.834"/>
</g>
<!-- Node10 -->
<g id="node10" class="node"><title>Node10</title>
<g id="a_node10"><a xlink:title=" ">
<polygon fill="white" stroke="#bfbfbf" points="448,-112.5 448,-131.5 500,-131.5 500,-112.5 448,-112.5"/>
<text text-anchor="middle" x="474" y="-119.5" font-family="Helvetica,sans-Serif" font-size="10.00">memory</text>
</a>
</g>
</g>
<!-- Node1&#45;&gt;Node10 -->
<g id="edge11" class="edge"><title>Node1&#45;&gt;Node10</title>
<path fill="none" stroke="midnightblue" d="M340.194,-168.444C366.943,-159.359 409.403,-144.939 439.305,-134.783"/>
<polygon fill="midnightblue" stroke="midnightblue" points="440.581,-138.046 448.924,-131.516 438.329,-131.418 440.581,-138.046"/>
</g>
<!-- Node2&#45;&gt;Node3 -->
<g id="edge2" class="edge"><title>Node2&#45;&gt;Node3</title>
<path fill="none" stroke="midnightblue" d="M193.95,-112.324C182.537,-104.107 165.169,-91.6017 151.565,-81.8069"/>
<polygon fill="midnightblue" stroke="midnightblue" points="153.43,-78.8366 143.269,-75.8339 149.34,-84.5174 153.43,-78.8366"/>
</g>
<!-- Node6 -->
<g id="node6" class="node"><title>Node6</title>
<g id="a_node6"><a xlink:title=" ">
<polygon fill="white" stroke="#bfbfbf" points="188,-0.5 188,-19.5 232,-19.5 232,-0.5 188,-0.5"/>
<text text-anchor="middle" x="210" y="-7.5" font-family="Helvetica,sans-Serif" font-size="10.00">vector</text>
</a>
</g>
</g>
<!-- Node2&#45;&gt;Node6 -->
<g id="edge7" class="edge"><title>Node2&#45;&gt;Node6</title>
<path fill="none" stroke="midnightblue" d="M206.314,-112.368C206.959,-94.617 208.448,-53.6664 209.324,-29.5974"/>
<polygon fill="midnightblue" stroke="midnightblue" points="212.822,-29.712 209.688,-19.5914 205.826,-29.4576 212.822,-29.712"/>
</g>
<!-- Node7 -->
<g id="node7" class="node"><title>Node7</title>
<g id="a_node7"><a xlink:title=" ">
<polygon fill="white" stroke="#bfbfbf" points="234,-56.5 234,-75.5 290,-75.5 290,-56.5 234,-56.5"/>
<text text-anchor="middle" x="262" y="-63.5" font-family="Helvetica,sans-Serif" font-size="10.00">algorithm</text>
</a>
</g>
</g>
<!-- Node2&#45;&gt;Node7 -->
<g id="edge6" class="edge"><title>Node2&#45;&gt;Node7</title>
<path fill="none" stroke="midnightblue" d="M214.997,-112.324C223.194,-104.42 235.506,-92.5482 245.472,-82.9377"/>
<polygon fill="midnightblue" stroke="midnightblue" points="248.07,-85.2947 252.839,-75.8339 243.211,-80.2558 248.07,-85.2947"/>
</g>
<!-- Node4 -->
<g id="node4" class="node"><title>Node4</title>
<g id="a_node4"><a xlink:title=" ">
<polygon fill="white" stroke="#bfbfbf" points="0,-0.5 0,-19.5 68,-19.5 68,-0.5 0,-0.5"/>
<text text-anchor="middle" x="34" y="-7.5" font-family="Helvetica,sans-Serif" font-size="10.00">blitz/array.h</text>
</a>
</g>
</g>
<!-- Node3&#45;&gt;Node4 -->
<g id="edge3" class="edge"><title>Node3&#45;&gt;Node4</title>
<path fill="none" stroke="midnightblue" d="M115.415,-56.324C100.001,-47.7428 76.1878,-34.486 58.2903,-24.5224"/>
<polygon fill="midnightblue" stroke="midnightblue" points="59.9858,-21.4606 49.5461,-19.6545 56.5809,-27.5767 59.9858,-21.4606"/>
</g>
<!-- Node5 -->
<g id="node5" class="node"><title>Node5</title>
<g id="a_node5"><a xlink:title=" ">
<polygon fill="white" stroke="#bfbfbf" points="86.5,-0.5 86.5,-19.5 169.5,-19.5 169.5,-0.5 86.5,-0.5"/>
<text text-anchor="middle" x="128" y="-7.5" font-family="Helvetica,sans-Serif" font-size="10.00">unordered_map</text>
</a>
</g>
</g>
<!-- Node3&#45;&gt;Node5 -->
<g id="edge4" class="edge"><title>Node3&#45;&gt;Node5</title>
<path fill="none" stroke="midnightblue" d="M130.505,-56.083C130.111,-49.0059 129.548,-38.8611 129.055,-29.9865"/>
<polygon fill="midnightblue" stroke="midnightblue" points="132.536,-29.5415 128.486,-19.7511 125.546,-29.9299 132.536,-29.5415"/>
</g>
<!-- Node3&#45;&gt;Node6 -->
<g id="edge5" class="edge"><title>Node3&#45;&gt;Node6</title>
<path fill="none" stroke="midnightblue" d="M143.693,-56.324C155.901,-47.979 174.578,-35.2122 189.003,-25.3524"/>
<polygon fill="midnightblue" stroke="midnightblue" points="191.058,-28.1871 197.339,-19.6545 187.108,-22.4082 191.058,-28.1871"/>
</g>
</g>
</svg>
