<?xml version="1.0" encoding="UTF-8" standalone="no"?>
<!DOCTYPE svg PUBLIC "-//W3C//DTD SVG 1.1//EN"
 "http://www.w3.org/Graphics/SVG/1.1/DTD/svg11.dtd">
<!-- Generated by graphviz version 2.38.0 (20140413.2041)
 -->
<!-- Title: blitzdg::operator&lt;&lt; Pages: 1 -->
<svg width="240pt" height="28pt"
 viewBox="0.00 0.00 240.00 28.00" xmlns="http://www.w3.org/2000/svg" xmlns:xlink="http://www.w3.org/1999/xlink">
<g id="graph0" class="graph" transform="scale(1 1) rotate(0) translate(4 24)">
<title>blitzdg::operator&lt;&lt;</title>
<polygon fill="white" stroke="none" points="-4,4 -4,-24 236,-24 236,4 -4,4"/>
<!-- Node1 -->
<g id="node1" class="node"><title>Node1</title>
<g id="a_node1"><a xlink:title="Writes the CSC matrix to the output stream in coordinate format (i, j, elem).">
<polygon fill="#bfbfbf" stroke="black" points="134,-0.5 134,-19.5 232,-19.5 232,-0.5 134,-0.5"/>
<text text-anchor="middle" x="183" y="-7.5" font-family="Helvetica,sans-Serif" font-size="10.00">blitzdg::operator&lt;&lt;</text>
</a>
</g>
</g>
<!-- Node2 -->
<g id="node2" class="node"><title>Node2</title>
<g id="a_node2"><a xlink:href="GMRESSolver_8hpp.html#afcef465b1811e1a58461f319ff1c353c" target="_top" xlink:title="Write a ConvFlag to an output stream.">
<polygon fill="white" stroke="black" points="-7.10543e-15,-0.5 -7.10543e-15,-19.5 98,-19.5 98,-0.5 -7.10543e-15,-0.5"/>
<text text-anchor="middle" x="49" y="-7.5" font-family="Helvetica,sans-Serif" font-size="10.00">blitzdg::operator&lt;&lt;</text>
</a>
</g>
</g>
<!-- Node1&#45;&gt;Node2 -->
<g id="edge1" class="edge"><title>Node1&#45;&gt;Node2</title>
<path fill="none" stroke="midnightblue" d="M123.708,-10C115.191,-10 106.5,-10 98.2139,-10"/>
<polygon fill="midnightblue" stroke="midnightblue" points="123.972,-13.5001 133.972,-10 123.972,-6.5001 123.972,-13.5001"/>
</g>
</g>
</svg>
