<?xml version="1.0" encoding="UTF-8" standalone="no"?>
<!DOCTYPE svg PUBLIC "-//W3C//DTD SVG 1.1//EN"
 "http://www.w3.org/Graphics/SVG/1.1/DTD/svg11.dtd">
<!-- Generated by graphviz version 2.38.0 (20140413.2041)
 -->
<!-- Title: blitzdg::transpose Pages: 1 -->
<svg width="263pt" height="46pt"
 viewBox="0.00 0.00 263.00 46.00" xmlns="http://www.w3.org/2000/svg" xmlns:xlink="http://www.w3.org/1999/xlink">
<g id="graph0" class="graph" transform="scale(1 1) rotate(0) translate(4 42)">
<title>blitzdg::transpose</title>
<polygon fill="white" stroke="none" points="-4,4 -4,-42 259,-42 259,4 -4,4"/>
<!-- Node1 -->
<g id="node1" class="node"><title>Node1</title>
<g id="a_node1"><a xlink:title="Returns the transpose of a CSC matrix.">
<polygon fill="#bfbfbf" stroke="black" points="0,-0.5 0,-19.5 94,-19.5 94,-0.5 0,-0.5"/>
<text text-anchor="middle" x="47" y="-7.5" font-family="Helvetica,sans-Serif" font-size="10.00">blitzdg::transpose</text>
</a>
</g>
</g>
<!-- Node1&#45;&gt;Node1 -->
<g id="edge2" class="edge"><title>Node1&#45;&gt;Node1</title>
<path fill="none" stroke="midnightblue" d="M24.8054,-19.7571C14.0081,-28.5653 21.4062,-38 47,-38 63.7959,-38 72.7556,-33.9368 73.8792,-28.6539"/>
<polygon fill="midnightblue" stroke="midnightblue" points="76.9506,-26.9747 69.1946,-19.7571 70.7567,-30.2361 76.9506,-26.9747"/>
</g>
<!-- Node2 -->
<g id="node2" class="node"><title>Node2</title>
<g id="a_node2"><a xlink:href="classblitzdg_1_1CSCMat.html#a2197e4253539671e4971f82a974de37d" target="_top" xlink:title="Provides access to the underlying raw pointer that points to the managed cs_di object.">
<polygon fill="white" stroke="black" points="130,-0.5 130,-19.5 255,-19.5 255,-0.5 130,-0.5"/>
<text text-anchor="middle" x="192.5" y="-7.5" font-family="Helvetica,sans-Serif" font-size="10.00">blitzdg::CSCMat::matPtr</text>
</a>
</g>
</g>
<!-- Node1&#45;&gt;Node2 -->
<g id="edge1" class="edge"><title>Node1&#45;&gt;Node2</title>
<path fill="none" stroke="midnightblue" d="M94.1942,-10C102.38,-10 111.076,-10 119.772,-10"/>
<polygon fill="midnightblue" stroke="midnightblue" points="119.949,-13.5001 129.949,-10 119.949,-6.5001 119.949,-13.5001"/>
</g>
</g>
</svg>
