<?xml version="1.0" encoding="UTF-8" standalone="no"?>
<!DOCTYPE svg PUBLIC "-//W3C//DTD SVG 1.1//EN"
 "http://www.w3.org/Graphics/SVG/1.1/DTD/svg11.dtd">
<!-- Generated by graphviz version 2.38.0 (20140413.2041)
 -->
<!-- Title: blitzdg::multiply Pages: 1 -->
<svg width="254pt" height="46pt"
 viewBox="0.00 0.00 254.00 46.00" xmlns="http://www.w3.org/2000/svg" xmlns:xlink="http://www.w3.org/1999/xlink">
<g id="graph0" class="graph" transform="scale(1 1) rotate(0) translate(4 42)">
<title>blitzdg::multiply</title>
<polygon fill="white" stroke="none" points="-4,4 -4,-42 250,-42 250,4 -4,4"/>
<!-- Node1 -->
<g id="node1" class="node"><title>Node1</title>
<g id="a_node1"><a xlink:title="Returns the matrix&#45;matrix product of two CSC matrices: lhs * rhs.">
<polygon fill="#bfbfbf" stroke="black" points="0,-0.5 0,-19.5 85,-19.5 85,-0.5 0,-0.5"/>
<text text-anchor="middle" x="42.5" y="-7.5" font-family="Helvetica,sans-Serif" font-size="10.00">blitzdg::multiply</text>
</a>
</g>
</g>
<!-- Node1&#45;&gt;Node1 -->
<g id="edge2" class="edge"><title>Node1&#45;&gt;Node1</title>
<path fill="none" stroke="midnightblue" d="M20.9219,-19.7571C10.4245,-28.5653 17.6172,-38 42.5,-38 58.4406,-38 67.1211,-34.128 68.5416,-29.0292"/>
<polygon fill="midnightblue" stroke="midnightblue" points="71.5692,-27.2493 64.0781,-19.7571 65.262,-30.2855 71.5692,-27.2493"/>
</g>
<!-- Node2 -->
<g id="node2" class="node"><title>Node2</title>
<g id="a_node2"><a xlink:href="classblitzdg_1_1CSCMat.html#a2197e4253539671e4971f82a974de37d" target="_top" xlink:title="Provides access to the underlying raw pointer that points to the managed cs_di object.">
<polygon fill="white" stroke="black" points="121,-0.5 121,-19.5 246,-19.5 246,-0.5 121,-0.5"/>
<text text-anchor="middle" x="183.5" y="-7.5" font-family="Helvetica,sans-Serif" font-size="10.00">blitzdg::CSCMat::matPtr</text>
</a>
</g>
</g>
<!-- Node1&#45;&gt;Node2 -->
<g id="edge1" class="edge"><title>Node1&#45;&gt;Node2</title>
<path fill="none" stroke="midnightblue" d="M85.2046,-10C93.2513,-10 101.893,-10 110.586,-10"/>
<polygon fill="midnightblue" stroke="midnightblue" points="110.78,-13.5001 120.78,-10 110.78,-6.5001 110.78,-13.5001"/>
</g>
</g>
</svg>
