<?xml version="1.0" encoding="UTF-8" standalone="no"?>
<!DOCTYPE svg PUBLIC "-//W3C//DTD SVG 1.1//EN"
 "http://www.w3.org/Graphics/SVG/1.1/DTD/svg11.dtd">
<!-- Generated by graphviz version 2.38.0 (20140413.2041)
 -->
<!-- Title: blitzdg::transpose Pages: 1 -->
<svg width="251pt" height="52pt"
 viewBox="0.00 0.00 251.00 51.50" xmlns="http://www.w3.org/2000/svg" xmlns:xlink="http://www.w3.org/1999/xlink">
<g id="graph0" class="graph" transform="scale(1 1) rotate(0) translate(4 47.5)">
<title>blitzdg::transpose</title>
<polygon fill="white" stroke="none" points="-4,4 -4,-47.5 247,-47.5 247,4 -4,4"/>
<!-- Node1 -->
<g id="node1" class="node"><title>Node1</title>
<g id="a_node1"><a xlink:title="Returns the transpose of a CSC matrix.">
<polygon fill="#bfbfbf" stroke="black" points="149,-6 149,-25 243,-25 243,-6 149,-6"/>
<text text-anchor="middle" x="196" y="-13" font-family="Helvetica,sans-Serif" font-size="10.00">blitzdg::transpose</text>
</a>
</g>
</g>
<!-- Node1&#45;&gt;Node1 -->
<g id="edge2" class="edge"><title>Node1&#45;&gt;Node1</title>
<path fill="none" stroke="midnightblue" d="M221.67,-34.5292C220.269,-39.628 211.713,-43.5 196,-43.5 171.473,-43.5 164.383,-34.0653 174.73,-25.2571"/>
<polygon fill="midnightblue" stroke="midnightblue" points="224.719,-32.7911 217.27,-25.2571 218.395,-35.792 224.719,-32.7911"/>
</g>
<!-- Node2 -->
<g id="node2" class="node"><title>Node2</title>
<g id="a_node2"><a xlink:href="classblitzdg_1_1MeshManager.html#a45ae7ee8dac8fea878d0546cd5e78e10" target="_top" xlink:title="Build EToE and EToF connectivity tables.">
<polygon fill="white" stroke="black" points="0,-0.5 0,-30.5 113,-30.5 113,-0.5 0,-0.5"/>
<text text-anchor="start" x="8" y="-18.5" font-family="Helvetica,sans-Serif" font-size="10.00">blitzdg::MeshManager</text>
<text text-anchor="middle" x="56.5" y="-7.5" font-family="Helvetica,sans-Serif" font-size="10.00">::buildConnectivity</text>
</a>
</g>
</g>
<!-- Node1&#45;&gt;Node2 -->
<g id="edge1" class="edge"><title>Node1&#45;&gt;Node2</title>
<path fill="none" stroke="midnightblue" d="M138.756,-15.5C130.362,-15.5 121.711,-15.5 113.326,-15.5"/>
<polygon fill="midnightblue" stroke="midnightblue" points="138.832,-19.0001 148.832,-15.5 138.832,-12.0001 138.832,-19.0001"/>
</g>
</g>
</svg>
