<?xml version="1.0" encoding="UTF-8" standalone="no"?>
<!DOCTYPE svg PUBLIC "-//W3C//DTD SVG 1.1//EN"
 "http://www.w3.org/Graphics/SVG/1.1/DTD/svg11.dtd">
<!-- Generated by graphviz version 2.38.0 (20140413.2041)
 -->
<!-- Title: include/CSCMatrix.hpp Pages: 1 -->
<svg width="296pt" height="95pt"
 viewBox="0.00 0.00 295.50 95.00" xmlns="http://www.w3.org/2000/svg" xmlns:xlink="http://www.w3.org/1999/xlink">
<g id="graph0" class="graph" transform="scale(1 1) rotate(0) translate(4 91)">
<title>include/CSCMatrix.hpp</title>
<polygon fill="white" stroke="none" points="-4,4 -4,-91 291.5,-91 291.5,4 -4,4"/>
<!-- Node1 -->
<g id="node1" class="node"><title>Node1</title>
<g id="a_node1"><a xlink:title=" ">
<polygon fill="#bfbfbf" stroke="black" points="72,-67.5 72,-86.5 190,-86.5 190,-67.5 72,-67.5"/>
<text text-anchor="middle" x="131" y="-74.5" font-family="Helvetica,sans-Serif" font-size="10.00">include/CSCMatrix.hpp</text>
</a>
</g>
</g>
<!-- Node2 -->
<g id="node2" class="node"><title>Node2</title>
<g id="a_node2"><a xlink:href="LUSolver_8hpp.html" target="_top" xlink:title="Defines the LUSolver class that implements UMFPACK LU factorization (umfpack_di_numeric,...">
<polygon fill="white" stroke="black" points="0,-6 0,-25 110,-25 110,-6 0,-6"/>
<text text-anchor="middle" x="55" y="-13" font-family="Helvetica,sans-Serif" font-size="10.00">include/LUSolver.hpp</text>
</a>
</g>
</g>
<!-- Node1&#45;&gt;Node2 -->
<g id="edge1" class="edge"><title>Node1&#45;&gt;Node2</title>
<path fill="none" stroke="midnightblue" d="M112.216,-61.2938C97.637,-49.8803 77.9375,-34.4577 65.8687,-25.0091"/>
<polygon fill="midnightblue" stroke="midnightblue" points="110.079,-64.0665 120.111,-67.4751 114.395,-58.5547 110.079,-64.0665"/>
</g>
<!-- Node3 -->
<g id="node3" class="node"><title>Node3</title>
<g id="a_node3"><a xlink:href="Poisson2DSparseMatrix_8hpp_source.html" target="_top" xlink:title=" ">
<polygon fill="white" stroke="black" points="128.5,-0.5 128.5,-30.5 287.5,-30.5 287.5,-0.5 128.5,-0.5"/>
<text text-anchor="start" x="136.5" y="-18.5" font-family="Helvetica,sans-Serif" font-size="10.00">src/poisson2d/Poisson2DSparse</text>
<text text-anchor="middle" x="208" y="-7.5" font-family="Helvetica,sans-Serif" font-size="10.00">Matrix.hpp</text>
</a>
</g>
</g>
<!-- Node1&#45;&gt;Node3 -->
<g id="edge2" class="edge"><title>Node1&#45;&gt;Node3</title>
<path fill="none" stroke="midnightblue" d="M150.159,-61.1955C162.301,-51.8129 177.91,-39.7512 189.853,-30.523"/>
<polygon fill="midnightblue" stroke="midnightblue" points="147.805,-58.5911 142.032,-67.4751 152.085,-64.1301 147.805,-58.5911"/>
</g>
</g>
</svg>
