<?xml version="1.0" encoding="UTF-8" standalone="no"?>
<!DOCTYPE svg PUBLIC "-//W3C//DTD SVG 1.1//EN"
 "http://www.w3.org/Graphics/SVG/1.1/DTD/svg11.dtd">
<!-- Generated by graphviz version 2.38.0 (20140413.2041)
 -->
<!-- Title: blitzdg::multiply Pages: 1 -->
<svg width="242pt" height="52pt"
 viewBox="0.00 0.00 242.00 51.50" xmlns="http://www.w3.org/2000/svg" xmlns:xlink="http://www.w3.org/1999/xlink">
<g id="graph0" class="graph" transform="scale(1 1) rotate(0) translate(4 47.5)">
<title>blitzdg::multiply</title>
<polygon fill="white" stroke="none" points="-4,4 -4,-47.5 238,-47.5 238,4 -4,4"/>
<!-- Node1 -->
<g id="node1" class="node"><title>Node1</title>
<g id="a_node1"><a xlink:title="Returns the matrix&#45;matrix product of two CSC matrices: lhs * rhs.">
<polygon fill="#bfbfbf" stroke="black" points="149,-6 149,-25 234,-25 234,-6 149,-6"/>
<text text-anchor="middle" x="191.5" y="-13" font-family="Helvetica,sans-Serif" font-size="10.00">blitzdg::multiply</text>
</a>
</g>
</g>
<!-- Node1&#45;&gt;Node1 -->
<g id="edge2" class="edge"><title>Node1&#45;&gt;Node1</title>
<path fill="none" stroke="midnightblue" d="M216.425,-34.5292C215.066,-39.628 206.757,-43.5 191.5,-43.5 167.684,-43.5 160.799,-34.0653 170.847,-25.2571"/>
<polygon fill="midnightblue" stroke="midnightblue" points="219.517,-32.8747 212.153,-25.2571 213.159,-35.804 219.517,-32.8747"/>
</g>
<!-- Node2 -->
<g id="node2" class="node"><title>Node2</title>
<g id="a_node2"><a xlink:href="classblitzdg_1_1MeshManager.html#a45ae7ee8dac8fea878d0546cd5e78e10" target="_top" xlink:title="Build EToE and EToF connectivity tables.">
<polygon fill="white" stroke="black" points="0,-0.5 0,-30.5 113,-30.5 113,-0.5 0,-0.5"/>
<text text-anchor="start" x="8" y="-18.5" font-family="Helvetica,sans-Serif" font-size="10.00">blitzdg::MeshManager</text>
<text text-anchor="middle" x="56.5" y="-7.5" font-family="Helvetica,sans-Serif" font-size="10.00">::buildConnectivity</text>
</a>
</g>
</g>
<!-- Node1&#45;&gt;Node2 -->
<g id="edge1" class="edge"><title>Node1&#45;&gt;Node2</title>
<path fill="none" stroke="midnightblue" d="M138.766,-15.5C130.388,-15.5 121.682,-15.5 113.215,-15.5"/>
<polygon fill="midnightblue" stroke="midnightblue" points="138.783,-19.0001 148.783,-15.5 138.783,-12.0001 138.783,-19.0001"/>
</g>
</g>
</svg>
