<?xml version="1.0" encoding="UTF-8" standalone="no"?>
<!DOCTYPE svg PUBLIC "-//W3C//DTD SVG 1.1//EN"
 "http://www.w3.org/Graphics/SVG/1.1/DTD/svg11.dtd">
<!-- Generated by graphviz version 2.38.0 (20140413.2041)
 -->
<!-- Title: include/CSVFileReader.hpp Pages: 1 -->
<svg width="569pt" height="252pt"
 viewBox="0.00 0.00 569.12 252.00" xmlns="http://www.w3.org/2000/svg" xmlns:xlink="http://www.w3.org/1999/xlink">
<g id="graph0" class="graph" transform="scale(1 1) rotate(0) translate(4 248)">
<title>include/CSVFileReader.hpp</title>
<polygon fill="white" stroke="none" points="-4,4 -4,-248 565.119,-248 565.119,4 -4,4"/>
<!-- Node1 -->
<g id="node1" class="node"><title>Node1</title>
<g id="a_node1"><a xlink:title="Defines the class CSVFileReader and functions csvread for reading csv files.">
<polygon fill="#bfbfbf" stroke="black" points="244.119,-224.5 244.119,-243.5 381.119,-243.5 381.119,-224.5 244.119,-224.5"/>
<text text-anchor="middle" x="312.619" y="-231.5" font-family="Helvetica,sans-Serif" font-size="10.00">include/CSVFileReader.hpp</text>
</a>
</g>
</g>
<!-- Node2 -->
<g id="node2" class="node"><title>Node2</title>
<g id="a_node2"><a xlink:href="MeshManager_8hpp.html" target="_top" xlink:title="Defines the MeshManager class that reads mesh input files and partitions meshes with METIS....">
<polygon fill="white" stroke="black" points="247.119,-168.5 247.119,-187.5 378.119,-187.5 378.119,-168.5 247.119,-168.5"/>
<text text-anchor="middle" x="312.619" y="-175.5" font-family="Helvetica,sans-Serif" font-size="10.00">include/MeshManager.hpp</text>
</a>
</g>
</g>
<!-- Node1&#45;&gt;Node2 -->
<g id="edge1" class="edge"><title>Node1&#45;&gt;Node2</title>
<path fill="none" stroke="midnightblue" d="M312.619,-213.805C312.619,-204.91 312.619,-194.78 312.619,-187.751"/>
<polygon fill="midnightblue" stroke="midnightblue" points="309.119,-214.083 312.619,-224.083 316.119,-214.083 309.119,-214.083"/>
</g>
<!-- Node3 -->
<g id="node3" class="node"><title>Node3</title>
<g id="a_node3"><a xlink:href="TriangleNodesProvisioner_8hpp.html" target="_top" xlink:title="Defines the TriangleNodesProvisioner class that provides a construction of 2D nodal points on the tri...">
<polygon fill="white" stroke="black" points="222.119,-112.5 222.119,-131.5 403.119,-131.5 403.119,-112.5 222.119,-112.5"/>
<text text-anchor="middle" x="312.619" y="-119.5" font-family="Helvetica,sans-Serif" font-size="10.00">include/TriangleNodesProvisioner.hpp</text>
</a>
</g>
</g>
<!-- Node2&#45;&gt;Node3 -->
<g id="edge2" class="edge"><title>Node2&#45;&gt;Node3</title>
<path fill="none" stroke="midnightblue" d="M312.619,-157.805C312.619,-148.91 312.619,-138.78 312.619,-131.751"/>
<polygon fill="midnightblue" stroke="midnightblue" points="309.119,-158.083 312.619,-168.083 316.119,-158.083 309.119,-158.083"/>
</g>
<!-- Node5 -->
<g id="node5" class="node"><title>Node5</title>
<g id="a_node5"><a xlink:href="poisson2d_2main_8cpp.html" target="_top" xlink:title=" ">
<polygon fill="white" stroke="black" points="252.619,-0.5 252.619,-19.5 372.619,-19.5 372.619,-0.5 252.619,-0.5"/>
<text text-anchor="middle" x="312.619" y="-7.5" font-family="Helvetica,sans-Serif" font-size="10.00">src/poisson2d/main.cpp</text>
</a>
</g>
</g>
<!-- Node2&#45;&gt;Node5 -->
<g id="edge10" class="edge"><title>Node2&#45;&gt;Node5</title>
<path fill="none" stroke="midnightblue" d="M236.79,-171.926C128.119,-161.887 -51.8817,-133.296 14.6188,-56 44.6479,-21.0959 174.239,-12.9154 252.3,-11.2112"/>
<polygon fill="midnightblue" stroke="midnightblue" points="236.803,-175.441 247.073,-172.841 237.423,-168.469 236.803,-175.441"/>
</g>
<!-- Node6 -->
<g id="node6" class="node"><title>Node6</title>
<g id="a_node6"><a xlink:href="pyblitzdg_8cpp.html" target="_top" xlink:title="Python bindings for blitzdg&#39;s public API.">
<polygon fill="white" stroke="black" points="428.119,-0.5 428.119,-19.5 561.119,-19.5 561.119,-0.5 428.119,-0.5"/>
<text text-anchor="middle" x="494.619" y="-7.5" font-family="Helvetica,sans-Serif" font-size="10.00">src/pyblitzdg/pyblitzdg.cpp</text>
</a>
</g>
</g>
<!-- Node2&#45;&gt;Node6 -->
<g id="edge11" class="edge"><title>Node2&#45;&gt;Node6</title>
<path fill="none" stroke="midnightblue" d="M362.186,-165.701C406.646,-152.562 468.875,-125.972 495.619,-76 505.311,-57.8899 500.717,-32.677 497.251,-19.614"/>
<polygon fill="midnightblue" stroke="midnightblue" points="361.1,-162.371 352.427,-168.456 363.002,-169.108 361.1,-162.371"/>
</g>
<!-- Node4 -->
<g id="node4" class="node"><title>Node4</title>
<g id="a_node4"><a xlink:href="VtkOutputter_8hpp.html" target="_top" xlink:title="Defines the VtkOutputter class that writes output to *.vtu files.">
<polygon fill="white" stroke="black" points="341.119,-56.5 341.119,-75.5 466.119,-75.5 466.119,-56.5 341.119,-56.5"/>
<text text-anchor="middle" x="403.619" y="-63.5" font-family="Helvetica,sans-Serif" font-size="10.00">include/VtkOutputter.hpp</text>
</a>
</g>
</g>
<!-- Node3&#45;&gt;Node4 -->
<g id="edge3" class="edge"><title>Node3&#45;&gt;Node4</title>
<path fill="none" stroke="midnightblue" d="M335.913,-107.177C352.658,-97.2407 374.719,-84.1492 389.034,-75.6545"/>
<polygon fill="midnightblue" stroke="midnightblue" points="334.053,-104.211 327.24,-112.324 337.626,-110.231 334.053,-104.211"/>
</g>
<!-- Node3&#45;&gt;Node5 -->
<g id="edge6" class="edge"><title>Node3&#45;&gt;Node5</title>
<path fill="none" stroke="midnightblue" d="M312.619,-102.348C312.619,-78.2538 312.619,-37.3079 312.619,-19.5914"/>
<polygon fill="midnightblue" stroke="midnightblue" points="309.119,-102.368 312.619,-112.368 316.119,-102.369 309.119,-102.368"/>
</g>
<!-- Node3&#45;&gt;Node6 -->
<g id="edge7" class="edge"><title>Node3&#45;&gt;Node6</title>
<path fill="none" stroke="midnightblue" d="M412.521,-109.762C435.265,-103.029 457.684,-92.4741 474.619,-76 490.191,-60.8515 493.71,-33.8999 494.458,-19.9378"/>
<polygon fill="midnightblue" stroke="midnightblue" points="411.497,-106.413 402.769,-112.419 413.337,-113.167 411.497,-106.413"/>
</g>
<!-- Node7 -->
<g id="node7" class="node"><title>Node7</title>
<g id="a_node7"><a xlink:href="SW2d_8hpp.html" target="_top" xlink:title="Short header file for 2D shallow water solver&#39;s main.cpp file.">
<polygon fill="white" stroke="black" points="24.1188,-56.5 24.1188,-75.5 129.119,-75.5 129.119,-56.5 24.1188,-56.5"/>
<text text-anchor="middle" x="76.6188" y="-63.5" font-family="Helvetica,sans-Serif" font-size="10.00">src/sw2d/SW2d.hpp</text>
</a>
</g>
</g>
<!-- Node3&#45;&gt;Node7 -->
<g id="edge8" class="edge"><title>Node3&#45;&gt;Node7</title>
<path fill="none" stroke="midnightblue" d="M265.213,-110.153C220.622,-99.95 154.765,-84.8809 113.839,-75.5164"/>
<polygon fill="midnightblue" stroke="midnightblue" points="264.695,-113.625 275.224,-112.444 266.257,-106.801 264.695,-113.625"/>
</g>
<!-- Node8 -->
<g id="node8" class="node"><title>Node8</title>
<g id="a_node8"><a xlink:href="simple_2SW2d_8hpp.html" target="_top" xlink:title="Short header file for 2D shallow water solver&#39;s main.cpp file.">
<polygon fill="white" stroke="black" points="147.119,-56.5 147.119,-75.5 284.119,-75.5 284.119,-56.5 147.119,-56.5"/>
<text text-anchor="middle" x="215.619" y="-63.5" font-family="Helvetica,sans-Serif" font-size="10.00">src/sw2d&#45;simple/SW2d.hpp</text>
</a>
</g>
</g>
<!-- Node3&#45;&gt;Node8 -->
<g id="edge9" class="edge"><title>Node3&#45;&gt;Node8</title>
<path fill="none" stroke="midnightblue" d="M288.284,-107.453C270.376,-97.4835 246.565,-84.2279 231.165,-75.6545"/>
<polygon fill="midnightblue" stroke="midnightblue" points="286.594,-110.518 297.034,-112.324 289.999,-104.402 286.594,-110.518"/>
</g>
<!-- Node4&#45;&gt;Node5 -->
<g id="edge4" class="edge"><title>Node4&#45;&gt;Node5</title>
<path fill="none" stroke="midnightblue" d="M380.325,-51.1774C363.58,-41.2407 341.518,-28.1492 327.203,-19.6545"/>
<polygon fill="midnightblue" stroke="midnightblue" points="378.612,-54.2307 388.998,-56.324 382.184,-48.2108 378.612,-54.2307"/>
</g>
<!-- Node4&#45;&gt;Node6 -->
<g id="edge5" class="edge"><title>Node4&#45;&gt;Node6</title>
<path fill="none" stroke="midnightblue" d="M426.913,-51.1774C443.658,-41.2407 465.719,-28.1492 480.034,-19.6545"/>
<polygon fill="midnightblue" stroke="midnightblue" points="425.053,-48.2108 418.24,-56.324 428.626,-54.2307 425.053,-48.2108"/>
</g>
</g>
</svg>
