<?xml version="1.0" encoding="UTF-8" standalone="no"?>
<!DOCTYPE svg PUBLIC "-//W3C//DTD SVG 1.1//EN"
 "http://www.w3.org/Graphics/SVG/1.1/DTD/svg11.dtd">
<!-- Generated by graphviz version 2.38.0 (20140413.2041)
 -->
<!-- Title: blitzdg::csvread Pages: 1 -->
<svg width="526pt" height="101pt"
 viewBox="0.00 0.00 526.00 101.00" xmlns="http://www.w3.org/2000/svg" xmlns:xlink="http://www.w3.org/1999/xlink">
<g id="graph0" class="graph" transform="scale(1 1) rotate(0) translate(4 97)">
<title>blitzdg::csvread</title>
<polygon fill="white" stroke="none" points="-4,4 -4,-97 522,-97 522,4 -4,4"/>
<!-- Node1 -->
<g id="node1" class="node"><title>Node1</title>
<g id="a_node1"><a xlink:title="Reads a numeric csv file and returns its contents as a unique_ptr&lt;vector_type&lt;T&gt;&gt;,...">
<polygon fill="#bfbfbf" stroke="black" points="0,-25 0,-44 86,-44 86,-25 0,-25"/>
<text text-anchor="middle" x="43" y="-32" font-family="Helvetica,sans-Serif" font-size="10.00">blitzdg::csvread</text>
</a>
</g>
</g>
<!-- Node2 -->
<g id="node2" class="node"><title>Node2</title>
<g id="a_node2"><a xlink:href="CSVFileReader_8hpp.html#a13932ddfc3ba21255d00c5a0f695bfd2" target="_top" xlink:title="Reads a numeric csv file and returns its contents as a unique_ptr&lt;matrix_type&lt;T&gt;&gt;,...">
<polygon fill="white" stroke="black" points="122,-25 122,-44 208,-44 208,-25 122,-25"/>
<text text-anchor="middle" x="165" y="-32" font-family="Helvetica,sans-Serif" font-size="10.00">blitzdg::csvread</text>
</a>
</g>
</g>
<!-- Node1&#45;&gt;Node2 -->
<g id="edge1" class="edge"><title>Node1&#45;&gt;Node2</title>
<path fill="none" stroke="midnightblue" d="M86.3075,-34.5C94.4629,-34.5 103.097,-34.5 111.53,-34.5"/>
<polygon fill="midnightblue" stroke="midnightblue" points="111.67,-38.0001 121.67,-34.5 111.67,-31.0001 111.67,-38.0001"/>
</g>
<!-- Node3 -->
<g id="node3" class="node"><title>Node3</title>
<g id="a_node3"><a xlink:href="classblitzdg_1_1CSVFileReader.html#a16925aa45ef9c8b6b4507ab04fc98fae" target="_top" xlink:title="Returns the number of fields per line in a nonblank and nonempty line.">
<polygon fill="white" stroke="black" points="244,-62.5 244,-92.5 363,-92.5 363,-62.5 244,-62.5"/>
<text text-anchor="start" x="252" y="-80.5" font-family="Helvetica,sans-Serif" font-size="10.00">blitzdg::CSVFileReader</text>
<text text-anchor="middle" x="303.5" y="-69.5" font-family="Helvetica,sans-Serif" font-size="10.00">::getNumCols</text>
</a>
</g>
</g>
<!-- Node1&#45;&gt;Node3 -->
<g id="edge6" class="edge"><title>Node1&#45;&gt;Node3</title>
<path fill="none" stroke="midnightblue" d="M59.4227,-44.1599C74.6688,-53.1301 98.987,-65.9152 122,-71.5 158.173,-80.2785 199.614,-82.2054 233.658,-81.7476"/>
<polygon fill="midnightblue" stroke="midnightblue" points="234.047,-85.2404 243.972,-81.5339 233.902,-78.2419 234.047,-85.2404"/>
</g>
<!-- Node4 -->
<g id="node4" class="node"><title>Node4</title>
<g id="a_node4"><a xlink:href="classblitzdg_1_1CSVFileReader.html#a063595d6e41f3531f93beb71ca6f1f0f" target="_top" xlink:title="Parses the next line of the file and writes the tokens to the output iterator if possible.">
<polygon fill="white" stroke="black" points="244,-0.5 244,-30.5 363,-30.5 363,-0.5 244,-0.5"/>
<text text-anchor="start" x="252" y="-18.5" font-family="Helvetica,sans-Serif" font-size="10.00">blitzdg::CSVFileReader</text>
<text text-anchor="middle" x="303.5" y="-7.5" font-family="Helvetica,sans-Serif" font-size="10.00">::parseRowIterator</text>
</a>
</g>
</g>
<!-- Node1&#45;&gt;Node4 -->
<g id="edge7" class="edge"><title>Node1&#45;&gt;Node4</title>
<path fill="none" stroke="midnightblue" d="M75.5626,-24.994C89.6341,-21.2298 106.501,-17.3605 122,-15.5 158.656,-11.0999 199.801,-10.7497 233.54,-11.6537"/>
<polygon fill="midnightblue" stroke="midnightblue" points="233.656,-15.1589 243.76,-11.9714 233.874,-8.16228 233.656,-15.1589"/>
</g>
<!-- Node2&#45;&gt;Node2 -->
<g id="edge2" class="edge"><title>Node2&#45;&gt;Node2</title>
<path fill="none" stroke="midnightblue" d="M146.196,-44.2571C137.048,-53.0653 143.316,-62.5 165,-62.5 178.891,-62.5 186.456,-58.628 187.693,-53.5292"/>
<polygon fill="midnightblue" stroke="midnightblue" points="190.9,-52.1246 183.804,-44.2571 184.445,-54.8325 190.9,-52.1246"/>
</g>
<!-- Node2&#45;&gt;Node3 -->
<g id="edge3" class="edge"><title>Node2&#45;&gt;Node3</title>
<path fill="none" stroke="midnightblue" d="M196.294,-44.0431C210.673,-48.5727 228.347,-54.1405 245.122,-59.425"/>
<polygon fill="midnightblue" stroke="midnightblue" points="244.274,-62.8273 254.864,-62.4937 246.377,-56.1507 244.274,-62.8273"/>
</g>
<!-- Node2&#45;&gt;Node4 -->
<g id="edge4" class="edge"><title>Node2&#45;&gt;Node4</title>
<path fill="none" stroke="midnightblue" d="M208.068,-28.6443C216.264,-27.5035 225.053,-26.2801 233.852,-25.0555"/>
<polygon fill="midnightblue" stroke="midnightblue" points="234.336,-28.5219 243.758,-23.6766 233.371,-21.5888 234.336,-28.5219"/>
</g>
<!-- Node5 -->
<g id="node5" class="node"><title>Node5</title>
<g id="a_node5"><a xlink:href="classblitzdg_1_1CSVFileReader.html#a8ea6c4ae955e400b5bb55851cd775f5f" target="_top" xlink:title="Parses a line into string tokens based on the delimiter sequence.">
<polygon fill="white" stroke="black" points="399,-0.5 399,-30.5 518,-30.5 518,-0.5 399,-0.5"/>
<text text-anchor="start" x="407" y="-18.5" font-family="Helvetica,sans-Serif" font-size="10.00">blitzdg::CSVFileReader</text>
<text text-anchor="middle" x="458.5" y="-7.5" font-family="Helvetica,sans-Serif" font-size="10.00">::tokenizeLine</text>
</a>
</g>
</g>
<!-- Node4&#45;&gt;Node5 -->
<g id="edge5" class="edge"><title>Node4&#45;&gt;Node5</title>
<path fill="none" stroke="midnightblue" d="M363.216,-15.5C371.544,-15.5 380.169,-15.5 388.667,-15.5"/>
<polygon fill="midnightblue" stroke="midnightblue" points="388.941,-19.0001 398.941,-15.5 388.941,-12.0001 388.941,-19.0001"/>
</g>
</g>
</svg>
