<?xml version="1.0" encoding="UTF-8" standalone="no"?>
<!DOCTYPE svg PUBLIC "-//W3C//DTD SVG 1.1//EN"
 "http://www.w3.org/Graphics/SVG/1.1/DTD/svg11.dtd">
<!-- Generated by graphviz version 2.38.0 (20140413.2041)
 -->
<!-- Title: include/CSVFileReader.hpp Pages: 1 -->
<svg width="917pt" height="140pt"
 viewBox="0.00 0.00 917.00 140.00" xmlns="http://www.w3.org/2000/svg" xmlns:xlink="http://www.w3.org/1999/xlink">
<g id="graph0" class="graph" transform="scale(1 1) rotate(0) translate(4 136)">
<title>include/CSVFileReader.hpp</title>
<polygon fill="white" stroke="none" points="-4,4 -4,-136 913,-136 913,4 -4,4"/>
<!-- Node1 -->
<g id="node1" class="node"><title>Node1</title>
<g id="a_node1"><a xlink:title="Defines the class CSVFileReader and functions csvread for reading csv files.">
<polygon fill="#bfbfbf" stroke="black" points="503,-112.5 503,-131.5 640,-131.5 640,-112.5 503,-112.5"/>
<text text-anchor="middle" x="571.5" y="-119.5" font-family="Helvetica,sans-Serif" font-size="10.00">include/CSVFileReader.hpp</text>
</a>
</g>
</g>
<!-- Node2 -->
<g id="node2" class="node"><title>Node2</title>
<g id="a_node2"><a xlink:href="Traits_8hpp.html" target="_top" xlink:title="Defines a basic set of traits for making compile&#45;time assertions about numeric types and iterators.">
<polygon fill="white" stroke="black" points="66.5,-56.5 66.5,-75.5 126.5,-75.5 126.5,-56.5 66.5,-56.5"/>
<text text-anchor="middle" x="96.5" y="-63.5" font-family="Helvetica,sans-Serif" font-size="10.00">Traits.hpp</text>
</a>
</g>
</g>
<!-- Node1&#45;&gt;Node2 -->
<g id="edge1" class="edge"><title>Node1&#45;&gt;Node2</title>
<path fill="none" stroke="midnightblue" d="M502.938,-113.206C402.497,-101.787 218.475,-80.8666 137.072,-71.6124"/>
<polygon fill="midnightblue" stroke="midnightblue" points="137.076,-68.0904 126.745,-70.4384 136.286,-75.0456 137.076,-68.0904"/>
</g>
<!-- Node5 -->
<g id="node5" class="node"><title>Node5</title>
<g id="a_node5"><a xlink:href="Types_8hpp.html" target="_top" xlink:title="Defines the basic types used throughout this project.">
<polygon fill="white" stroke="black" points="242.5,-56.5 242.5,-75.5 304.5,-75.5 304.5,-56.5 242.5,-56.5"/>
<text text-anchor="middle" x="273.5" y="-63.5" font-family="Helvetica,sans-Serif" font-size="10.00">Types.hpp</text>
</a>
</g>
</g>
<!-- Node1&#45;&gt;Node5 -->
<g id="edge4" class="edge"><title>Node1&#45;&gt;Node5</title>
<path fill="none" stroke="midnightblue" d="M521.518,-112.434C470.441,-103.605 388.859,-89.2916 318.5,-76 317.404,-75.7929 316.293,-75.5816 315.173,-75.3671"/>
<polygon fill="midnightblue" stroke="midnightblue" points="315.439,-71.8534 304.955,-73.3799 314.103,-78.7247 315.439,-71.8534"/>
</g>
<!-- Node8 -->
<g id="node8" class="node"><title>Node8</title>
<g id="a_node8"><a xlink:title=" ">
<polygon fill="white" stroke="#bfbfbf" points="333.5,-0.5 333.5,-19.5 377.5,-19.5 377.5,-0.5 333.5,-0.5"/>
<text text-anchor="middle" x="355.5" y="-7.5" font-family="Helvetica,sans-Serif" font-size="10.00">vector</text>
</a>
</g>
</g>
<!-- Node1&#45;&gt;Node8 -->
<g id="edge15" class="edge"><title>Node1&#45;&gt;Node8</title>
<path fill="none" stroke="midnightblue" d="M502.785,-116.184C445.825,-110.592 371.265,-99.0128 352.5,-76 342.032,-63.1629 344.54,-43.7077 348.593,-29.4267"/>
<polygon fill="midnightblue" stroke="midnightblue" points="351.989,-30.3031 351.804,-19.7098 345.343,-28.1063 351.989,-30.3031"/>
</g>
<!-- Node9 -->
<g id="node9" class="node"><title>Node9</title>
<g id="a_node9"><a xlink:title=" ">
<polygon fill="white" stroke="#bfbfbf" points="361,-56.5 361,-75.5 490,-75.5 490,-56.5 361,-56.5"/>
<text text-anchor="middle" x="425.5" y="-63.5" font-family="Helvetica,sans-Serif" font-size="10.00">boost/algorithm/string.hpp</text>
</a>
</g>
</g>
<!-- Node1&#45;&gt;Node9 -->
<g id="edge8" class="edge"><title>Node1&#45;&gt;Node9</title>
<path fill="none" stroke="midnightblue" d="M548.366,-112.444C524.018,-103.438 485.493,-89.1891 458.077,-79.049"/>
<polygon fill="midnightblue" stroke="midnightblue" points="459.119,-75.7028 448.526,-75.5164 456.691,-82.2681 459.119,-75.7028"/>
</g>
<!-- Node10 -->
<g id="node10" class="node"><title>Node10</title>
<g id="a_node10"><a xlink:title=" ">
<polygon fill="white" stroke="#bfbfbf" points="508.5,-56.5 508.5,-75.5 564.5,-75.5 564.5,-56.5 508.5,-56.5"/>
<text text-anchor="middle" x="536.5" y="-63.5" font-family="Helvetica,sans-Serif" font-size="10.00">algorithm</text>
</a>
</g>
</g>
<!-- Node1&#45;&gt;Node10 -->
<g id="edge9" class="edge"><title>Node1&#45;&gt;Node10</title>
<path fill="none" stroke="midnightblue" d="M565.72,-112.083C560.828,-104.534 553.673,-93.4948 547.667,-84.2298"/>
<polygon fill="midnightblue" stroke="midnightblue" points="550.548,-82.239 542.172,-75.7511 544.674,-86.0463 550.548,-82.239"/>
</g>
<!-- Node11 -->
<g id="node11" class="node"><title>Node11</title>
<g id="a_node11"><a xlink:title=" ">
<polygon fill="white" stroke="#bfbfbf" points="582.5,-56.5 582.5,-75.5 632.5,-75.5 632.5,-56.5 582.5,-56.5"/>
<text text-anchor="middle" x="607.5" y="-63.5" font-family="Helvetica,sans-Serif" font-size="10.00">fstream</text>
</a>
</g>
</g>
<!-- Node1&#45;&gt;Node11 -->
<g id="edge10" class="edge"><title>Node1&#45;&gt;Node11</title>
<path fill="none" stroke="midnightblue" d="M577.445,-112.083C582.477,-104.534 589.837,-93.4948 596.013,-84.2298"/>
<polygon fill="midnightblue" stroke="midnightblue" points="599.031,-86.0131 601.666,-75.7511 593.207,-82.1301 599.031,-86.0131"/>
</g>
<!-- Node12 -->
<g id="node12" class="node"><title>Node12</title>
<g id="a_node12"><a xlink:title=" ">
<polygon fill="white" stroke="#bfbfbf" points="650.5,-56.5 650.5,-75.5 702.5,-75.5 702.5,-56.5 650.5,-56.5"/>
<text text-anchor="middle" x="676.5" y="-63.5" font-family="Helvetica,sans-Serif" font-size="10.00">memory</text>
</a>
</g>
</g>
<!-- Node1&#45;&gt;Node12 -->
<g id="edge11" class="edge"><title>Node1&#45;&gt;Node12</title>
<path fill="none" stroke="midnightblue" d="M588.37,-112.324C605.209,-103.664 631.307,-90.2424 650.738,-80.249"/>
<polygon fill="midnightblue" stroke="midnightblue" points="652.38,-83.3405 659.672,-75.6545 649.178,-77.1155 652.38,-83.3405"/>
</g>
<!-- Node13 -->
<g id="node13" class="node"><title>Node13</title>
<g id="a_node13"><a xlink:title=" ">
<polygon fill="white" stroke="#bfbfbf" points="720.5,-56.5 720.5,-75.5 772.5,-75.5 772.5,-56.5 720.5,-56.5"/>
<text text-anchor="middle" x="746.5" y="-63.5" font-family="Helvetica,sans-Serif" font-size="10.00">sstream</text>
</a>
</g>
</g>
<!-- Node1&#45;&gt;Node13 -->
<g id="edge12" class="edge"><title>Node1&#45;&gt;Node13</title>
<path fill="none" stroke="midnightblue" d="M599.229,-112.444C629.362,-103.145 677.611,-88.2572 710.614,-78.0735"/>
<polygon fill="midnightblue" stroke="midnightblue" points="711.806,-81.3685 720.33,-75.0755 709.742,-74.6797 711.806,-81.3685"/>
</g>
<!-- Node14 -->
<g id="node14" class="node"><title>Node14</title>
<g id="a_node14"><a xlink:title=" ">
<polygon fill="white" stroke="#bfbfbf" points="791,-56.5 791,-75.5 850,-75.5 850,-56.5 791,-56.5"/>
<text text-anchor="middle" x="820.5" y="-63.5" font-family="Helvetica,sans-Serif" font-size="10.00">stdexcept</text>
</a>
</g>
</g>
<!-- Node1&#45;&gt;Node14 -->
<g id="edge13" class="edge"><title>Node1&#45;&gt;Node14</title>
<path fill="none" stroke="midnightblue" d="M612.192,-112.478C652.461,-104.001 716.123,-90.4805 780.744,-76.1417"/>
<polygon fill="midnightblue" stroke="midnightblue" points="781.699,-79.5149 790.7,-73.9275 780.179,-72.6819 781.699,-79.5149"/>
</g>
<!-- Node15 -->
<g id="node15" class="node"><title>Node15</title>
<g id="a_node15"><a xlink:title=" ">
<polygon fill="white" stroke="#bfbfbf" points="868,-56.5 868,-75.5 909,-75.5 909,-56.5 868,-56.5"/>
<text text-anchor="middle" x="888.5" y="-63.5" font-family="Helvetica,sans-Serif" font-size="10.00">string</text>
</a>
</g>
</g>
<!-- Node1&#45;&gt;Node15 -->
<g id="edge14" class="edge"><title>Node1&#45;&gt;Node15</title>
<path fill="none" stroke="midnightblue" d="M640.121,-113.141C696.405,-106.043 778.259,-94.231 857.535,-76.204"/>
<polygon fill="midnightblue" stroke="midnightblue" points="858.736,-79.5188 867.691,-73.8567 857.159,-72.6986 858.736,-79.5188"/>
</g>
<!-- Node3 -->
<g id="node3" class="node"><title>Node3</title>
<g id="a_node3"><a xlink:title=" ">
<polygon fill="white" stroke="#bfbfbf" points="0,-0.5 0,-19.5 47,-19.5 47,-0.5 0,-0.5"/>
<text text-anchor="middle" x="23.5" y="-7.5" font-family="Helvetica,sans-Serif" font-size="10.00">iterator</text>
</a>
</g>
</g>
<!-- Node2&#45;&gt;Node3 -->
<g id="edge2" class="edge"><title>Node2&#45;&gt;Node3</title>
<path fill="none" stroke="midnightblue" d="M84.7713,-56.324C73.6626,-48.1066 56.7578,-35.6017 43.5167,-25.8069"/>
<polygon fill="midnightblue" stroke="midnightblue" points="45.5631,-22.9671 35.4421,-19.8339 41.4001,-28.5948 45.5631,-22.9671"/>
</g>
<!-- Node4 -->
<g id="node4" class="node"><title>Node4</title>
<g id="a_node4"><a xlink:title=" ">
<polygon fill="white" stroke="#bfbfbf" points="65.5,-0.5 65.5,-19.5 127.5,-19.5 127.5,-0.5 65.5,-0.5"/>
<text text-anchor="middle" x="96.5" y="-7.5" font-family="Helvetica,sans-Serif" font-size="10.00">type_traits</text>
</a>
</g>
</g>
<!-- Node2&#45;&gt;Node4 -->
<g id="edge3" class="edge"><title>Node2&#45;&gt;Node4</title>
<path fill="none" stroke="midnightblue" d="M96.5,-56.083C96.5,-49.0059 96.5,-38.8611 96.5,-29.9865"/>
<polygon fill="midnightblue" stroke="midnightblue" points="100,-29.751 96.5,-19.7511 93.0001,-29.7511 100,-29.751"/>
</g>
<!-- Node6 -->
<g id="node6" class="node"><title>Node6</title>
<g id="a_node6"><a xlink:title=" ">
<polygon fill="white" stroke="#bfbfbf" points="145.5,-0.5 145.5,-19.5 213.5,-19.5 213.5,-0.5 145.5,-0.5"/>
<text text-anchor="middle" x="179.5" y="-7.5" font-family="Helvetica,sans-Serif" font-size="10.00">blitz/array.h</text>
</a>
</g>
</g>
<!-- Node5&#45;&gt;Node6 -->
<g id="edge5" class="edge"><title>Node5&#45;&gt;Node6</title>
<path fill="none" stroke="midnightblue" d="M258.397,-56.324C243.597,-47.8215 220.806,-34.7288 203.518,-24.7975"/>
<polygon fill="midnightblue" stroke="midnightblue" points="204.98,-21.6009 194.565,-19.6545 201.493,-27.6707 204.98,-21.6009"/>
</g>
<!-- Node7 -->
<g id="node7" class="node"><title>Node7</title>
<g id="a_node7"><a xlink:title=" ">
<polygon fill="white" stroke="#bfbfbf" points="232,-0.5 232,-19.5 315,-19.5 315,-0.5 232,-0.5"/>
<text text-anchor="middle" x="273.5" y="-7.5" font-family="Helvetica,sans-Serif" font-size="10.00">unordered_map</text>
</a>
</g>
</g>
<!-- Node5&#45;&gt;Node7 -->
<g id="edge6" class="edge"><title>Node5&#45;&gt;Node7</title>
<path fill="none" stroke="midnightblue" d="M273.5,-56.083C273.5,-49.0059 273.5,-38.8611 273.5,-29.9865"/>
<polygon fill="midnightblue" stroke="midnightblue" points="277,-29.751 273.5,-19.7511 270,-29.7511 277,-29.751"/>
</g>
<!-- Node5&#45;&gt;Node8 -->
<g id="edge7" class="edge"><title>Node5&#45;&gt;Node8</title>
<path fill="none" stroke="midnightblue" d="M286.675,-56.324C299.347,-47.979 318.733,-35.2122 333.706,-25.3524"/>
<polygon fill="midnightblue" stroke="midnightblue" points="335.931,-28.0776 342.358,-19.6545 332.081,-22.2313 335.931,-28.0776"/>
</g>
</g>
</svg>
