<?xml version="1.0" encoding="UTF-8" standalone="no"?>
<!DOCTYPE svg PUBLIC "-//W3C//DTD SVG 1.1//EN"
 "http://www.w3.org/Graphics/SVG/1.1/DTD/svg11.dtd">
<!-- Generated by graphviz version 2.38.0 (20140413.2041)
 -->
<!-- Title: blitzdg::csvread Pages: 1 -->
<svg width="404pt" height="88pt"
 viewBox="0.00 0.00 404.00 88.00" xmlns="http://www.w3.org/2000/svg" xmlns:xlink="http://www.w3.org/1999/xlink">
<g id="graph0" class="graph" transform="scale(1 1) rotate(0) translate(4 84)">
<title>blitzdg::csvread</title>
<polygon fill="white" stroke="none" points="-4,4 -4,-84 400,-84 400,4 -4,4"/>
<!-- Node1 -->
<g id="node1" class="node"><title>Node1</title>
<g id="a_node1"><a xlink:title="Reads a numeric csv file and returns its contents as a unique_ptr&lt;matrix_type&lt;T&gt;&gt;,...">
<polygon fill="#bfbfbf" stroke="black" points="0,-30 0,-49 86,-49 86,-30 0,-30"/>
<text text-anchor="middle" x="43" y="-37" font-family="Helvetica,sans-Serif" font-size="10.00">blitzdg::csvread</text>
</a>
</g>
</g>
<!-- Node1&#45;&gt;Node1 -->
<g id="edge1" class="edge"><title>Node1&#45;&gt;Node1</title>
<path fill="none" stroke="midnightblue" d="M21.7302,-49.2571C11.3827,-58.0653 18.4727,-67.5 43,-67.5 58.7128,-67.5 67.2693,-63.628 68.6695,-58.5292"/>
<polygon fill="midnightblue" stroke="midnightblue" points="71.7189,-56.7911 64.2698,-49.2571 65.3948,-59.792 71.7189,-56.7911"/>
</g>
<!-- Node2 -->
<g id="node2" class="node"><title>Node2</title>
<g id="a_node2"><a xlink:href="classblitzdg_1_1CSVFileReader.html#a16925aa45ef9c8b6b4507ab04fc98fae" target="_top" xlink:title="Returns the number of fields per line in a nonblank and nonempty line.">
<polygon fill="white" stroke="black" points="122,-49.5 122,-79.5 241,-79.5 241,-49.5 122,-49.5"/>
<text text-anchor="start" x="130" y="-67.5" font-family="Helvetica,sans-Serif" font-size="10.00">blitzdg::CSVFileReader</text>
<text text-anchor="middle" x="181.5" y="-56.5" font-family="Helvetica,sans-Serif" font-size="10.00">::getNumCols</text>
</a>
</g>
</g>
<!-- Node1&#45;&gt;Node2 -->
<g id="edge2" class="edge"><title>Node1&#45;&gt;Node2</title>
<path fill="none" stroke="midnightblue" d="M86.0683,-47.2048C94.264,-48.7059 103.053,-50.3156 111.852,-51.927"/>
<polygon fill="midnightblue" stroke="midnightblue" points="111.291,-55.3824 121.758,-53.7413 112.552,-48.497 111.291,-55.3824"/>
</g>
<!-- Node3 -->
<g id="node3" class="node"><title>Node3</title>
<g id="a_node3"><a xlink:href="classblitzdg_1_1CSVFileReader.html#a063595d6e41f3531f93beb71ca6f1f0f" target="_top" xlink:title="Parses the next line of the file and writes the tokens to the output iterator if possible.">
<polygon fill="white" stroke="black" points="122,-0.5 122,-30.5 241,-30.5 241,-0.5 122,-0.5"/>
<text text-anchor="start" x="130" y="-18.5" font-family="Helvetica,sans-Serif" font-size="10.00">blitzdg::CSVFileReader</text>
<text text-anchor="middle" x="181.5" y="-7.5" font-family="Helvetica,sans-Serif" font-size="10.00">::parseRowIterator</text>
</a>
</g>
</g>
<!-- Node1&#45;&gt;Node3 -->
<g id="edge3" class="edge"><title>Node1&#45;&gt;Node3</title>
<path fill="none" stroke="midnightblue" d="M86.0683,-32.1034C94.264,-30.6624 103.053,-29.117 111.852,-27.5701"/>
<polygon fill="midnightblue" stroke="midnightblue" points="112.515,-31.0072 121.758,-25.8283 111.303,-24.113 112.515,-31.0072"/>
</g>
<!-- Node4 -->
<g id="node4" class="node"><title>Node4</title>
<g id="a_node4"><a xlink:href="classblitzdg_1_1CSVFileReader.html#a8ea6c4ae955e400b5bb55851cd775f5f" target="_top" xlink:title="Parses a line into string tokens based on the delimiter sequence.">
<polygon fill="white" stroke="black" points="277,-0.5 277,-30.5 396,-30.5 396,-0.5 277,-0.5"/>
<text text-anchor="start" x="285" y="-18.5" font-family="Helvetica,sans-Serif" font-size="10.00">blitzdg::CSVFileReader</text>
<text text-anchor="middle" x="336.5" y="-7.5" font-family="Helvetica,sans-Serif" font-size="10.00">::tokenizeLine</text>
</a>
</g>
</g>
<!-- Node3&#45;&gt;Node4 -->
<g id="edge4" class="edge"><title>Node3&#45;&gt;Node4</title>
<path fill="none" stroke="midnightblue" d="M241.216,-15.5C249.544,-15.5 258.169,-15.5 266.667,-15.5"/>
<polygon fill="midnightblue" stroke="midnightblue" points="266.941,-19.0001 276.941,-15.5 266.941,-12.0001 266.941,-19.0001"/>
</g>
</g>
</svg>
