<?xml version="1.0" encoding="UTF-8" standalone="no"?>
<!DOCTYPE svg PUBLIC "-//W3C//DTD SVG 1.1//EN"
 "http://www.w3.org/Graphics/SVG/1.1/DTD/svg11.dtd">
<!-- Generated by graphviz version 2.38.0 (20140413.2041)
 -->
<!-- Title: include/CsvOutputter.hpp Pages: 1 -->
<svg width="295pt" height="196pt"
 viewBox="0.00 0.00 294.50 196.00" xmlns="http://www.w3.org/2000/svg" xmlns:xlink="http://www.w3.org/1999/xlink">
<g id="graph0" class="graph" transform="scale(1 1) rotate(0) translate(4 192)">
<title>include/CsvOutputter.hpp</title>
<polygon fill="white" stroke="none" points="-4,4 -4,-192 290.5,-192 290.5,4 -4,4"/>
<!-- Node1 -->
<g id="node1" class="node"><title>Node1</title>
<g id="a_node1"><a xlink:title="Defines the CsvOutputter class for writing data to output files.">
<polygon fill="#bfbfbf" stroke="black" points="136,-168.5 136,-187.5 264,-187.5 264,-168.5 136,-168.5"/>
<text text-anchor="middle" x="200" y="-175.5" font-family="Helvetica,sans-Serif" font-size="10.00">include/CsvOutputter.hpp</text>
</a>
</g>
</g>
<!-- Node2 -->
<g id="node2" class="node"><title>Node2</title>
<g id="a_node2"><a xlink:href="Types_8hpp.html" target="_top" xlink:title="Defines the basic types used throughout this project.">
<polygon fill="white" stroke="black" points="97,-56.5 97,-75.5 159,-75.5 159,-56.5 97,-56.5"/>
<text text-anchor="middle" x="128" y="-63.5" font-family="Helvetica,sans-Serif" font-size="10.00">Types.hpp</text>
</a>
</g>
</g>
<!-- Node1&#45;&gt;Node2 -->
<g id="edge1" class="edge"><title>Node1&#45;&gt;Node2</title>
<path fill="none" stroke="midnightblue" d="M183.372,-168.411C170.101,-160.681 152.112,-148.073 142,-132 133.26,-118.107 129.91,-99.5951 128.658,-85.8809"/>
<polygon fill="midnightblue" stroke="midnightblue" points="132.139,-85.461 128.029,-75.6961 125.153,-85.893 132.139,-85.461"/>
</g>
<!-- Node6 -->
<g id="node6" class="node"><title>Node6</title>
<g id="a_node6"><a xlink:href="OutputterBase_8hpp_source.html" target="_top" xlink:title=" ">
<polygon fill="white" stroke="black" points="151,-112.5 151,-131.5 249,-131.5 249,-112.5 151,-112.5"/>
<text text-anchor="middle" x="200" y="-119.5" font-family="Helvetica,sans-Serif" font-size="10.00">OutputterBase.hpp</text>
</a>
</g>
</g>
<!-- Node1&#45;&gt;Node6 -->
<g id="edge5" class="edge"><title>Node1&#45;&gt;Node6</title>
<path fill="none" stroke="midnightblue" d="M200,-168.083C200,-161.006 200,-150.861 200,-141.986"/>
<polygon fill="midnightblue" stroke="midnightblue" points="203.5,-141.751 200,-131.751 196.5,-141.751 203.5,-141.751"/>
</g>
<!-- Node7 -->
<g id="node7" class="node"><title>Node7</title>
<g id="a_node7"><a xlink:title=" ">
<polygon fill="white" stroke="#bfbfbf" points="245.5,-56.5 245.5,-75.5 286.5,-75.5 286.5,-56.5 245.5,-56.5"/>
<text text-anchor="middle" x="266" y="-63.5" font-family="Helvetica,sans-Serif" font-size="10.00">string</text>
</a>
</g>
</g>
<!-- Node1&#45;&gt;Node7 -->
<g id="edge9" class="edge"><title>Node1&#45;&gt;Node7</title>
<path fill="none" stroke="midnightblue" d="M217.283,-168.487C230.752,-160.878 248.682,-148.4 258,-132 265.987,-117.944 267.569,-99.45 267.398,-85.7841"/>
<polygon fill="midnightblue" stroke="midnightblue" points="270.888,-85.477 266.944,-75.6437 263.895,-85.7904 270.888,-85.477"/>
</g>
<!-- Node3 -->
<g id="node3" class="node"><title>Node3</title>
<g id="a_node3"><a xlink:title=" ">
<polygon fill="white" stroke="#bfbfbf" points="0,-0.5 0,-19.5 68,-19.5 68,-0.5 0,-0.5"/>
<text text-anchor="middle" x="34" y="-7.5" font-family="Helvetica,sans-Serif" font-size="10.00">blitz/array.h</text>
</a>
</g>
</g>
<!-- Node2&#45;&gt;Node3 -->
<g id="edge2" class="edge"><title>Node2&#45;&gt;Node3</title>
<path fill="none" stroke="midnightblue" d="M112.897,-56.324C98.0967,-47.8215 75.3058,-34.7288 58.0178,-24.7975"/>
<polygon fill="midnightblue" stroke="midnightblue" points="59.4798,-21.6009 49.0652,-19.6545 55.9929,-27.6707 59.4798,-21.6009"/>
</g>
<!-- Node4 -->
<g id="node4" class="node"><title>Node4</title>
<g id="a_node4"><a xlink:title=" ">
<polygon fill="white" stroke="#bfbfbf" points="86.5,-0.5 86.5,-19.5 169.5,-19.5 169.5,-0.5 86.5,-0.5"/>
<text text-anchor="middle" x="128" y="-7.5" font-family="Helvetica,sans-Serif" font-size="10.00">unordered_map</text>
</a>
</g>
</g>
<!-- Node2&#45;&gt;Node4 -->
<g id="edge3" class="edge"><title>Node2&#45;&gt;Node4</title>
<path fill="none" stroke="midnightblue" d="M128,-56.083C128,-49.0059 128,-38.8611 128,-29.9865"/>
<polygon fill="midnightblue" stroke="midnightblue" points="131.5,-29.751 128,-19.7511 124.5,-29.7511 131.5,-29.751"/>
</g>
<!-- Node5 -->
<g id="node5" class="node"><title>Node5</title>
<g id="a_node5"><a xlink:title=" ">
<polygon fill="white" stroke="#bfbfbf" points="188,-0.5 188,-19.5 232,-19.5 232,-0.5 188,-0.5"/>
<text text-anchor="middle" x="210" y="-7.5" font-family="Helvetica,sans-Serif" font-size="10.00">vector</text>
</a>
</g>
</g>
<!-- Node2&#45;&gt;Node5 -->
<g id="edge4" class="edge"><title>Node2&#45;&gt;Node5</title>
<path fill="none" stroke="midnightblue" d="M141.175,-56.324C153.847,-47.979 173.233,-35.2122 188.206,-25.3524"/>
<polygon fill="midnightblue" stroke="midnightblue" points="190.431,-28.0776 196.858,-19.6545 186.581,-22.2313 190.431,-28.0776"/>
</g>
<!-- Node6&#45;&gt;Node2 -->
<g id="edge6" class="edge"><title>Node6&#45;&gt;Node2</title>
<path fill="none" stroke="midnightblue" d="M188.432,-112.324C177.58,-104.185 161.119,-91.8395 148.117,-82.0874"/>
<polygon fill="midnightblue" stroke="midnightblue" points="149.879,-79.0339 139.779,-75.8339 145.679,-84.6339 149.879,-79.0339"/>
</g>
<!-- Node6&#45;&gt;Node7 -->
<g id="edge7" class="edge"><title>Node6&#45;&gt;Node7</title>
<path fill="none" stroke="midnightblue" d="M210.604,-112.324C220.456,-104.263 235.351,-92.0765 247.215,-82.3695"/>
<polygon fill="midnightblue" stroke="midnightblue" points="249.68,-84.8752 255.203,-75.8339 245.247,-79.4575 249.68,-84.8752"/>
</g>
<!-- Node8 -->
<g id="node8" class="node"><title>Node8</title>
<g id="a_node8"><a xlink:title=" ">
<polygon fill="white" stroke="#bfbfbf" points="182.5,-56.5 182.5,-75.5 217.5,-75.5 217.5,-56.5 182.5,-56.5"/>
<text text-anchor="middle" x="200" y="-63.5" font-family="Helvetica,sans-Serif" font-size="10.00">map</text>
</a>
</g>
</g>
<!-- Node6&#45;&gt;Node8 -->
<g id="edge8" class="edge"><title>Node6&#45;&gt;Node8</title>
<path fill="none" stroke="midnightblue" d="M200,-112.083C200,-105.006 200,-94.8611 200,-85.9865"/>
<polygon fill="midnightblue" stroke="midnightblue" points="203.5,-85.751 200,-75.7511 196.5,-85.7511 203.5,-85.751"/>
</g>
</g>
</svg>
