<?xml version="1.0" encoding="UTF-8" standalone="no"?>
<!DOCTYPE svg PUBLIC "-//W3C//DTD SVG 1.1//EN"
 "http://www.w3.org/Graphics/SVG/1.1/DTD/svg11.dtd">
<!-- Generated by graphviz version 2.38.0 (20140413.2041)
 -->
<!-- Title: src Pages: 1 -->
<svg width="710pt" height="132pt"
 viewBox="0.00 0.00 710.00 132.00" xmlns="http://www.w3.org/2000/svg" xmlns:xlink="http://www.w3.org/1999/xlink">
<g id="graph0" class="graph" transform="scale(1 1) rotate(0) translate(4 128)">
<title>src</title>
<polygon fill="white" stroke="none" points="-4,4 -4,-128 706,-128 706,4 -4,4"/>
<g id="clust1" class="cluster"><title>clusterdir_68267d1309a1af8e8297ef4c3efbcdba</title>
<g id="a_clust1"><a xlink:href="dir_68267d1309a1af8e8297ef4c3efbcdba.html" target="_top">
<polygon fill="#eeeeff" stroke="black" points="8,-64 8,-116 694,-116 694,-64 8,-64"/>
</a>
</g>
</g>
<!-- dir_68267d1309a1af8e8297ef4c3efbcdba -->
<g id="node1" class="node"><title>dir_68267d1309a1af8e8297ef4c3efbcdba</title>
<text text-anchor="middle" x="659" y="-87.5" font-family="Helvetica,sans-Serif" font-size="10.00">src</text>
</g>
<!-- dir_a2a29c9d87e8bd0e32698ef2275f2f71 -->
<g id="node2" class="node"><title>dir_a2a29c9d87e8bd0e32698ef2275f2f71</title>
<g id="a_node2"><a xlink:href="dir_a2a29c9d87e8bd0e32698ef2275f2f71.html" target="_top" xlink:title="advec1d">
<polygon fill="white" stroke="black" points="614,-108 560,-108 560,-72 614,-72 614,-108"/>
<text text-anchor="middle" x="587" y="-87.5" font-family="Helvetica,sans-Serif" font-size="10.00">advec1d</text>
</a>
</g>
</g>
<!-- dir_d44c64559bbebec7f509842c48db8b23 -->
<g id="node10" class="node"><title>dir_d44c64559bbebec7f509842c48db8b23</title>
<g id="a_node10"><a xlink:href="dir_d44c64559bbebec7f509842c48db8b23.html" target="_top" xlink:title="include">
<polygon fill="none" stroke="black" points="343,-36 289,-36 289,-0 343,-0 343,-36"/>
<text text-anchor="middle" x="316" y="-15.5" font-family="Helvetica,sans-Serif" font-size="10.00">include</text>
</a>
</g>
</g>
<!-- dir_a2a29c9d87e8bd0e32698ef2275f2f71&#45;&gt;dir_d44c64559bbebec7f509842c48db8b23 -->
<g id="edge1" class="edge"><title>dir_a2a29c9d87e8bd0e32698ef2275f2f71&#45;&gt;dir_d44c64559bbebec7f509842c48db8b23</title>
<path fill="none" stroke="black" d="M565.379,-71.8555C560.826,-68.8697 555.91,-66.0649 551,-64 484.786,-36.1537 400.801,-25.3943 353.264,-21.3437"/>
<polygon fill="black" stroke="black" points="353.374,-17.8414 343.127,-20.5353 352.817,-24.8193 353.374,-17.8414"/>
<g id="a_edge1&#45;headlabel"><a xlink:href="dir_000012_000009.html" target="_top" xlink:title="9">
<text text-anchor="middle" x="357.183" y="-12.7968" font-family="Helvetica,sans-Serif" font-size="10.00">9</text>
</a>
</g>
</g>
<!-- dir_764abdbb7062c4b9fe166d8c3616fa84 -->
<g id="node3" class="node"><title>dir_764abdbb7062c4b9fe166d8c3616fa84</title>
<g id="a_node3"><a xlink:href="dir_764abdbb7062c4b9fe166d8c3616fa84.html" target="_top" xlink:title="burgers1d">
<polygon fill="white" stroke="black" points="541.5,-108 482.5,-108 482.5,-72 541.5,-72 541.5,-108"/>
<text text-anchor="middle" x="512" y="-87.5" font-family="Helvetica,sans-Serif" font-size="10.00">burgers1d</text>
</a>
</g>
</g>
<!-- dir_764abdbb7062c4b9fe166d8c3616fa84&#45;&gt;dir_d44c64559bbebec7f509842c48db8b23 -->
<g id="edge6" class="edge"><title>dir_764abdbb7062c4b9fe166d8c3616fa84&#45;&gt;dir_d44c64559bbebec7f509842c48db8b23</title>
<path fill="none" stroke="black" d="M488.517,-71.974C483.851,-69.0495 478.882,-66.237 474,-64 434.46,-45.8811 385.961,-33.3806 353.208,-26.2343"/>
<polygon fill="black" stroke="black" points="353.667,-22.7539 343.158,-24.1019 352.214,-29.6014 353.667,-22.7539"/>
<g id="a_edge6&#45;headlabel"><a xlink:href="dir_000013_000009.html" target="_top" xlink:title="9">
<text text-anchor="middle" x="357.773" y="-18.2225" font-family="Helvetica,sans-Serif" font-size="10.00">9</text>
</a>
</g>
</g>
<!-- dir_56e43e703913ca5f19cc7357224b3d5d -->
<g id="node4" class="node"><title>dir_56e43e703913ca5f19cc7357224b3d5d</title>
<g id="a_node4"><a xlink:href="dir_56e43e703913ca5f19cc7357224b3d5d.html" target="_top" xlink:title="poisson1d">
<polygon fill="white" stroke="black" points="464.5,-108 403.5,-108 403.5,-72 464.5,-72 464.5,-108"/>
<text text-anchor="middle" x="434" y="-87.5" font-family="Helvetica,sans-Serif" font-size="10.00">poisson1d</text>
</a>
</g>
</g>
<!-- dir_56e43e703913ca5f19cc7357224b3d5d&#45;&gt;dir_d44c64559bbebec7f509842c48db8b23 -->
<g id="edge5" class="edge"><title>dir_56e43e703913ca5f19cc7357224b3d5d&#45;&gt;dir_d44c64559bbebec7f509842c48db8b23</title>
<path fill="none" stroke="black" d="M407.684,-71.8675C403.465,-69.197 399.129,-66.4971 395,-64 381.173,-55.6378 365.771,-46.7673 352.265,-39.1323"/>
<polygon fill="black" stroke="black" points="353.692,-35.919 343.26,-34.0653 350.259,-42.0195 353.692,-35.919"/>
<g id="a_edge5&#45;headlabel"><a xlink:href="dir_000014_000009.html" target="_top" xlink:title="11">
<text text-anchor="middle" x="358.217" y="-32.7073" font-family="Helvetica,sans-Serif" font-size="10.00">11</text>
</a>
</g>
</g>
<!-- dir_0c138a4d59cf1db1367e7c232330395c -->
<g id="node5" class="node"><title>dir_0c138a4d59cf1db1367e7c232330395c</title>
<g id="a_node5"><a xlink:href="dir_0c138a4d59cf1db1367e7c232330395c.html" target="_top" xlink:title="poisson2d">
<polygon fill="white" stroke="black" points="385.5,-108 324.5,-108 324.5,-72 385.5,-72 385.5,-108"/>
<text text-anchor="middle" x="355" y="-87.5" font-family="Helvetica,sans-Serif" font-size="10.00">poisson2d</text>
</a>
</g>
</g>
<!-- dir_0c138a4d59cf1db1367e7c232330395c&#45;&gt;dir_d44c64559bbebec7f509842c48db8b23 -->
<g id="edge4" class="edge"><title>dir_0c138a4d59cf1db1367e7c232330395c&#45;&gt;dir_d44c64559bbebec7f509842c48db8b23</title>
<path fill="none" stroke="black" d="M345.36,-71.6966C340.873,-63.6436 335.441,-53.8945 330.476,-44.9824"/>
<polygon fill="black" stroke="black" points="333.454,-43.1366 325.53,-36.1043 327.339,-46.5435 333.454,-43.1366"/>
<g id="a_edge4&#45;headlabel"><a xlink:href="dir_000015_000009.html" target="_top" xlink:title="16">
<text text-anchor="middle" x="337.684" y="-42.3948" font-family="Helvetica,sans-Serif" font-size="10.00">16</text>
</a>
</g>
</g>
<!-- dir_551add26dd0375749804524c990517dd -->
<g id="node6" class="node"><title>dir_551add26dd0375749804524c990517dd</title>
<g id="a_node6"><a xlink:href="dir_551add26dd0375749804524c990517dd.html" target="_top" xlink:title="pyblitzdg">
<polygon fill="white" stroke="black" points="306,-108 250,-108 250,-72 306,-72 306,-108"/>
<text text-anchor="middle" x="278" y="-87.5" font-family="Helvetica,sans-Serif" font-size="10.00">pyblitzdg</text>
</a>
</g>
</g>
<!-- dir_551add26dd0375749804524c990517dd&#45;&gt;dir_d44c64559bbebec7f509842c48db8b23 -->
<g id="edge3" class="edge"><title>dir_551add26dd0375749804524c990517dd&#45;&gt;dir_d44c64559bbebec7f509842c48db8b23</title>
<path fill="none" stroke="black" d="M287.393,-71.6966C291.765,-63.6436 297.057,-53.8945 301.895,-44.9824"/>
<polygon fill="black" stroke="black" points="305.02,-46.5627 306.715,-36.1043 298.868,-43.223 305.02,-46.5627"/>
<g id="a_edge3&#45;headlabel"><a xlink:href="dir_000019_000009.html" target="_top" xlink:title="6">
<text text-anchor="middle" x="305.8" y="-48.5764" font-family="Helvetica,sans-Serif" font-size="10.00">6</text>
</a>
</g>
</g>
<!-- dir_3f6e9e2dd7421c9dc170c561d73dd592 -->
<g id="node7" class="node"><title>dir_3f6e9e2dd7421c9dc170c561d73dd592</title>
<g id="a_node7"><a xlink:href="dir_3f6e9e2dd7421c9dc170c561d73dd592.html" target="_top" xlink:title="sw2d">
<polygon fill="white" stroke="black" points="232,-108 178,-108 178,-72 232,-72 232,-108"/>
<text text-anchor="middle" x="205" y="-87.5" font-family="Helvetica,sans-Serif" font-size="10.00">sw2d</text>
</a>
</g>
</g>
<!-- dir_3f6e9e2dd7421c9dc170c561d73dd592&#45;&gt;dir_d44c64559bbebec7f509842c48db8b23 -->
<g id="edge8" class="edge"><title>dir_3f6e9e2dd7421c9dc170c561d73dd592&#45;&gt;dir_d44c64559bbebec7f509842c48db8b23</title>
<path fill="none" stroke="black" d="M229.251,-71.8337C233.151,-69.1676 237.165,-66.4779 241,-64 253.52,-55.9092 267.468,-47.4061 279.906,-39.9967"/>
<polygon fill="black" stroke="black" points="281.833,-42.9232 288.654,-34.8164 278.267,-36.9 281.833,-42.9232"/>
<g id="a_edge8&#45;headlabel"><a xlink:href="dir_000016_000009.html" target="_top" xlink:title="14">
<text text-anchor="middle" x="280.187" y="-44.6978" font-family="Helvetica,sans-Serif" font-size="10.00">14</text>
</a>
</g>
</g>
<!-- dir_0ed3abd36ee717ef32abf2e189e7a335 -->
<g id="node8" class="node"><title>dir_0ed3abd36ee717ef32abf2e189e7a335</title>
<g id="a_node8"><a xlink:href="dir_0ed3abd36ee717ef32abf2e189e7a335.html" target="_top" xlink:title="sw2d&#45;simple">
<polygon fill="white" stroke="black" points="159.5,-108 88.5,-108 88.5,-72 159.5,-72 159.5,-108"/>
<text text-anchor="middle" x="124" y="-87.5" font-family="Helvetica,sans-Serif" font-size="10.00">sw2d&#45;simple</text>
</a>
</g>
</g>
<!-- dir_0ed3abd36ee717ef32abf2e189e7a335&#45;&gt;dir_d44c64559bbebec7f509842c48db8b23 -->
<g id="edge7" class="edge"><title>dir_0ed3abd36ee717ef32abf2e189e7a335&#45;&gt;dir_d44c64559bbebec7f509842c48db8b23</title>
<path fill="none" stroke="black" d="M152.599,-71.9428C157.952,-69.0881 163.572,-66.3083 169,-64 205.41,-48.5166 248.945,-35.8756 279.143,-27.9771"/>
<polygon fill="black" stroke="black" points="280.03,-31.3629 288.844,-25.483 278.287,-24.5834 280.03,-31.3629"/>
<g id="a_edge7&#45;headlabel"><a xlink:href="dir_000017_000009.html" target="_top" xlink:title="11">
<text text-anchor="middle" x="277.256" y="-32.5078" font-family="Helvetica,sans-Serif" font-size="10.00">11</text>
</a>
</g>
</g>
<!-- dir_120ed4da3e3217b1e7fc0b4f48568e79 -->
<g id="node9" class="node"><title>dir_120ed4da3e3217b1e7fc0b4f48568e79</title>
<g id="a_node9"><a xlink:href="dir_120ed4da3e3217b1e7fc0b4f48568e79.html" target="_top" xlink:title="test">
<polygon fill="white" stroke="black" points="70,-108 16,-108 16,-72 70,-72 70,-108"/>
<text text-anchor="middle" x="43" y="-87.5" font-family="Helvetica,sans-Serif" font-size="10.00">test</text>
</a>
</g>
</g>
<!-- dir_120ed4da3e3217b1e7fc0b4f48568e79&#45;&gt;dir_d44c64559bbebec7f509842c48db8b23 -->
<g id="edge2" class="edge"><title>dir_120ed4da3e3217b1e7fc0b4f48568e79&#45;&gt;dir_d44c64559bbebec7f509842c48db8b23</title>
<path fill="none" stroke="black" d="M65.2691,-71.8632C69.944,-68.8768 74.9835,-66.0698 80,-64 146.674,-36.4907 230.954,-25.6131 278.634,-21.4502"/>
<polygon fill="black" stroke="black" points="279.12,-24.9221 288.8,-20.6166 278.548,-17.9456 279.12,-24.9221"/>
<g id="a_edge2&#45;headlabel"><a xlink:href="dir_000018_000009.html" target="_top" xlink:title="40">
<text text-anchor="middle" x="275.769" y="-25.5456" font-family="Helvetica,sans-Serif" font-size="10.00">40</text>
</a>
</g>
</g>
</g>
</svg>
