<?xml version="1.0" encoding="UTF-8" standalone="no"?>
<!DOCTYPE svg PUBLIC "-//W3C//DTD SVG 1.1//EN"
 "http://www.w3.org/Graphics/SVG/1.1/DTD/svg11.dtd">
<!-- Generated by graphviz version 2.38.0 (20140413.2041)
 -->
<!-- Title: src/sw2d&#45;simple Pages: 1 -->
<svg width="112pt" height="151pt"
 viewBox="0.00 0.00 112.00 151.00" xmlns="http://www.w3.org/2000/svg" xmlns:xlink="http://www.w3.org/1999/xlink">
<g id="graph0" class="graph" transform="scale(1 1) rotate(0) translate(4 147)">
<title>src/sw2d&#45;simple</title>
<polygon fill="white" stroke="none" points="-4,4 -4,-147 108,-147 108,4 -4,4"/>
<g id="clust1" class="cluster"><title>clusterdir_68267d1309a1af8e8297ef4c3efbcdba</title>
<g id="a_clust1"><a xlink:href="dir_68267d1309a1af8e8297ef4c3efbcdba.html" target="_top" xlink:title="src">
<polygon fill="#ddddee" stroke="black" points="8,-64 8,-135 96,-135 96,-64 8,-64"/>
<text text-anchor="middle" x="52" y="-123" font-family="Helvetica,sans-Serif" font-size="10.00">src</text>
</a>
</g>
</g>
<!-- dir_0ed3abd36ee717ef32abf2e189e7a335 -->
<g id="node1" class="node"><title>dir_0ed3abd36ee717ef32abf2e189e7a335</title>
<g id="a_node1"><a xlink:href="dir_0ed3abd36ee717ef32abf2e189e7a335.html" target="_top" xlink:title="sw2d&#45;simple">
<polygon fill="#eeeeff" stroke="black" points="87.5,-108 16.5,-108 16.5,-72 87.5,-72 87.5,-108"/>
<text text-anchor="middle" x="52" y="-87.5" font-family="Helvetica,sans-Serif" font-size="10.00">sw2d&#45;simple</text>
</a>
</g>
</g>
<!-- dir_d44c64559bbebec7f509842c48db8b23 -->
<g id="node2" class="node"><title>dir_d44c64559bbebec7f509842c48db8b23</title>
<g id="a_node2"><a xlink:href="dir_d44c64559bbebec7f509842c48db8b23.html" target="_top" xlink:title="include">
<polygon fill="none" stroke="black" points="79,-36 25,-36 25,-0 79,-0 79,-36"/>
<text text-anchor="middle" x="52" y="-15.5" font-family="Helvetica,sans-Serif" font-size="10.00">include</text>
</a>
</g>
</g>
<!-- dir_0ed3abd36ee717ef32abf2e189e7a335&#45;&gt;dir_d44c64559bbebec7f509842c48db8b23 -->
<g id="edge1" class="edge"><title>dir_0ed3abd36ee717ef32abf2e189e7a335&#45;&gt;dir_d44c64559bbebec7f509842c48db8b23</title>
<path fill="none" stroke="black" d="M52,-71.6966C52,-63.9827 52,-54.7125 52,-46.1124"/>
<polygon fill="black" stroke="black" points="55.5001,-46.1043 52,-36.1043 48.5001,-46.1044 55.5001,-46.1043"/>
<g id="a_edge1&#45;headlabel"><a xlink:href="dir_000017_000009.html" target="_top" xlink:title="11">
<text text-anchor="middle" x="58.3393" y="-47.199" font-family="Helvetica,sans-Serif" font-size="10.00">11</text>
</a>
</g>
</g>
</g>
</svg>
