<?xml version="1.0" encoding="UTF-8" standalone="no"?>
<!DOCTYPE svg PUBLIC "-//W3C//DTD SVG 1.1//EN"
 "http://www.w3.org/Graphics/SVG/1.1/DTD/svg11.dtd">
<!-- Generated by graphviz version 2.38.0 (20140413.2041)
 -->
<!-- Title: blitzdg::ConvFlagToStr Pages: 1 -->
<svg width="259pt" height="46pt"
 viewBox="0.00 0.00 259.00 46.00" xmlns="http://www.w3.org/2000/svg" xmlns:xlink="http://www.w3.org/1999/xlink">
<g id="graph0" class="graph" transform="scale(1 1) rotate(0) translate(4 42)">
<title>blitzdg::ConvFlagToStr</title>
<polygon fill="white" stroke="none" points="-4,4 -4,-42 255,-42 255,4 -4,4"/>
<!-- Node1 -->
<g id="node1" class="node"><title>Node1</title>
<g id="a_node1"><a xlink:title="Convert a ConvFlag to a string.">
<polygon fill="#bfbfbf" stroke="black" points="134,-0.5 134,-19.5 251,-19.5 251,-0.5 134,-0.5"/>
<text text-anchor="middle" x="192.5" y="-7.5" font-family="Helvetica,sans-Serif" font-size="10.00">blitzdg::ConvFlagToStr</text>
</a>
</g>
</g>
<!-- Node1&#45;&gt;Node1 -->
<g id="edge1" class="edge"><title>Node1&#45;&gt;Node1</title>
<path fill="none" stroke="midnightblue" d="M219.006,-28.6539C217.898,-33.9368 209.063,-38 192.5,-38 167.262,-38 159.966,-28.5653 170.614,-19.7571"/>
<polygon fill="midnightblue" stroke="midnightblue" points="222.101,-27.0192 214.386,-19.7571 215.888,-30.2449 222.101,-27.0192"/>
</g>
<!-- Node2 -->
<g id="node2" class="node"><title>Node2</title>
<g id="a_node2"><a xlink:href="GMRESSolver_8hpp.html#afcef465b1811e1a58461f319ff1c353c" target="_top" xlink:title="Write a ConvFlag to an output stream.">
<polygon fill="white" stroke="black" points="-7.10543e-15,-0.5 -7.10543e-15,-19.5 98,-19.5 98,-0.5 -7.10543e-15,-0.5"/>
<text text-anchor="middle" x="49" y="-7.5" font-family="Helvetica,sans-Serif" font-size="10.00">blitzdg::operator&lt;&lt;</text>
</a>
</g>
</g>
<!-- Node1&#45;&gt;Node2 -->
<g id="edge2" class="edge"><title>Node1&#45;&gt;Node2</title>
<path fill="none" stroke="midnightblue" d="M123.784,-10C115.076,-10 106.306,-10 98.0041,-10"/>
<polygon fill="midnightblue" stroke="midnightblue" points="123.947,-13.5001 133.947,-10 123.946,-6.5001 123.947,-13.5001"/>
</g>
</g>
</svg>
