<?xml version="1.0" encoding="UTF-8" standalone="no"?>
<!DOCTYPE svg PUBLIC "-//W3C//DTD SVG 1.1//EN"
 "http://www.w3.org/Graphics/SVG/1.1/DTD/svg11.dtd">
<!-- Generated by graphviz version 2.38.0 (20140413.2041)
 -->
<!-- Title: include/GMRESSolver.hpp Pages: 1 -->
<svg width="266pt" height="84pt"
 viewBox="0.00 0.00 266.00 84.00" xmlns="http://www.w3.org/2000/svg" xmlns:xlink="http://www.w3.org/1999/xlink">
<g id="graph0" class="graph" transform="scale(1 1) rotate(0) translate(4 80)">
<title>include/GMRESSolver.hpp</title>
<polygon fill="white" stroke="none" points="-4,4 -4,-80 262,-80 262,4 -4,4"/>
<!-- Node1 -->
<g id="node1" class="node"><title>Node1</title>
<g id="a_node1"><a xlink:title="Defines the GMRESSolver class that implements a right&#45;preconditioned GMRES iterative method with modi...">
<polygon fill="#bfbfbf" stroke="black" points="62,-56.5 62,-75.5 196,-75.5 196,-56.5 62,-56.5"/>
<text text-anchor="middle" x="129" y="-63.5" font-family="Helvetica,sans-Serif" font-size="10.00">include/GMRESSolver.hpp</text>
</a>
</g>
</g>
<!-- Node2 -->
<g id="node2" class="node"><title>Node2</title>
<g id="a_node2"><a xlink:href="poisson1d_2main_8cpp.html" target="_top" xlink:title=" ">
<polygon fill="white" stroke="black" points="0,-0.5 0,-19.5 120,-19.5 120,-0.5 0,-0.5"/>
<text text-anchor="middle" x="60" y="-7.5" font-family="Helvetica,sans-Serif" font-size="10.00">src/poisson1d/main.cpp</text>
</a>
</g>
</g>
<!-- Node1&#45;&gt;Node2 -->
<g id="edge1" class="edge"><title>Node1&#45;&gt;Node2</title>
<path fill="none" stroke="midnightblue" d="M109.962,-50.1008C97.5442,-40.3824 81.7566,-28.0269 71.2878,-19.8339"/>
<polygon fill="midnightblue" stroke="midnightblue" points="107.882,-52.9171 117.914,-56.324 112.196,-47.4046 107.882,-52.9171"/>
</g>
<!-- Node3 -->
<g id="node3" class="node"><title>Node3</title>
<g id="a_node3"><a xlink:href="poisson2d_2main_8cpp.html" target="_top" xlink:title=" ">
<polygon fill="white" stroke="black" points="138,-0.5 138,-19.5 258,-19.5 258,-0.5 138,-0.5"/>
<text text-anchor="middle" x="198" y="-7.5" font-family="Helvetica,sans-Serif" font-size="10.00">src/poisson2d/main.cpp</text>
</a>
</g>
</g>
<!-- Node1&#45;&gt;Node3 -->
<g id="edge2" class="edge"><title>Node1&#45;&gt;Node3</title>
<path fill="none" stroke="midnightblue" d="M148.038,-50.1008C160.456,-40.3824 176.243,-28.0269 186.712,-19.8339"/>
<polygon fill="midnightblue" stroke="midnightblue" points="145.804,-47.4046 140.086,-56.324 150.118,-52.9171 145.804,-47.4046"/>
</g>
</g>
</svg>
