<?xml version="1.0" encoding="UTF-8" standalone="no"?>
<!DOCTYPE svg PUBLIC "-//W3C//DTD SVG 1.1//EN"
 "http://www.w3.org/Graphics/SVG/1.1/DTD/svg11.dtd">
<!-- Generated by graphviz version 2.38.0 (20140413.2041)
 -->
<!-- Title: blitzdg::operator&lt;&lt; Pages: 1 -->
<svg width="425pt" height="218pt"
 viewBox="0.00 0.00 425.00 218.00" xmlns="http://www.w3.org/2000/svg" xmlns:xlink="http://www.w3.org/1999/xlink">
<g id="graph0" class="graph" transform="scale(1 1) rotate(0) translate(4 214)">
<title>blitzdg::operator&lt;&lt;</title>
<polygon fill="white" stroke="none" points="-4,4 -4,-214 421,-214 421,4 -4,4"/>
<!-- Node1 -->
<g id="node1" class="node"><title>Node1</title>
<g id="a_node1"><a xlink:title="Write a ConvFlag to an output stream.">
<polygon fill="#bfbfbf" stroke="black" points="0,-123.5 0,-142.5 98,-142.5 98,-123.5 0,-123.5"/>
<text text-anchor="middle" x="49" y="-130.5" font-family="Helvetica,sans-Serif" font-size="10.00">blitzdg::operator&lt;&lt;</text>
</a>
</g>
</g>
<!-- Node2 -->
<g id="node2" class="node"><title>Node2</title>
<g id="a_node2"><a xlink:href="GMRESSolver_8hpp.html#ac9147b6aee6fbf22e95b2fb3f68ed426" target="_top" xlink:title="Convert a ConvFlag to a string.">
<polygon fill="white" stroke="black" points="134,-151.5 134,-170.5 251,-170.5 251,-151.5 134,-151.5"/>
<text text-anchor="middle" x="192.5" y="-158.5" font-family="Helvetica,sans-Serif" font-size="10.00">blitzdg::ConvFlagToStr</text>
</a>
</g>
</g>
<!-- Node1&#45;&gt;Node2 -->
<g id="edge1" class="edge"><title>Node1&#45;&gt;Node2</title>
<path fill="none" stroke="midnightblue" d="M98.3005,-142.558C109.57,-144.788 121.688,-147.186 133.336,-149.49"/>
<polygon fill="midnightblue" stroke="midnightblue" points="132.928,-152.978 143.417,-151.485 134.287,-146.111 132.928,-152.978"/>
</g>
<!-- Node3 -->
<g id="node3" class="node"><title>Node3</title>
<g id="a_node3"><a xlink:href="CSCMatrix_8hpp.html#af412eb6a8ef06ec7d2e74abecc595962" target="_top" xlink:title="Writes the CSC matrix to the output stream in coordinate format (i, j, elem).">
<polygon fill="white" stroke="black" points="143.5,-95.5 143.5,-114.5 241.5,-114.5 241.5,-95.5 143.5,-95.5"/>
<text text-anchor="middle" x="192.5" y="-102.5" font-family="Helvetica,sans-Serif" font-size="10.00">blitzdg::operator&lt;&lt;</text>
</a>
</g>
</g>
<!-- Node1&#45;&gt;Node3 -->
<g id="edge3" class="edge"><title>Node1&#45;&gt;Node3</title>
<path fill="none" stroke="midnightblue" d="M98.3005,-123.442C109.57,-121.212 121.688,-118.814 133.336,-116.51"/>
<polygon fill="midnightblue" stroke="midnightblue" points="134.287,-119.889 143.417,-114.515 132.928,-113.022 134.287,-119.889"/>
</g>
<!-- Node2&#45;&gt;Node2 -->
<g id="edge2" class="edge"><title>Node2&#45;&gt;Node2</title>
<path fill="none" stroke="midnightblue" d="M170.614,-170.757C159.966,-179.565 167.262,-189 192.5,-189 209.063,-189 217.898,-184.937 219.006,-179.654"/>
<polygon fill="midnightblue" stroke="midnightblue" points="222.101,-178.019 214.386,-170.757 215.888,-181.245 222.101,-178.019"/>
</g>
<!-- Node3&#45;&gt;Node3 -->
<g id="edge8" class="edge"><title>Node3&#45;&gt;Node3</title>
<path fill="none" stroke="midnightblue" d="M170.614,-114.757C159.966,-123.565 167.262,-133 192.5,-133 209.063,-133 217.898,-128.937 219.006,-123.654"/>
<polygon fill="midnightblue" stroke="midnightblue" points="222.101,-122.019 214.386,-114.757 215.888,-125.245 222.101,-122.019"/>
</g>
<!-- Node4 -->
<g id="node4" class="node"><title>Node4</title>
<g id="a_node4"><a xlink:href="classblitzdg_1_1CSCMat.html#ac3cfc9336711481db047c7183d3d9ad2" target="_top" xlink:title="Provides read&#45;write access to the kth column pointer index.">
<polygon fill="white" stroke="black" points="289,-190.5 289,-209.5 415,-209.5 415,-190.5 289,-190.5"/>
<text text-anchor="middle" x="352" y="-197.5" font-family="Helvetica,sans-Serif" font-size="10.00">blitzdg::CSCMat::colPtrs</text>
</a>
</g>
</g>
<!-- Node3&#45;&gt;Node4 -->
<g id="edge4" class="edge"><title>Node3&#45;&gt;Node4</title>
<path fill="none" stroke="midnightblue" d="M210.892,-114.621C222.727,-121.536 238.456,-131.464 251,-142 269.064,-157.171 266.976,-168.53 287,-181 290.39,-183.111 294.026,-184.998 297.782,-186.683"/>
<polygon fill="midnightblue" stroke="midnightblue" points="296.704,-190.021 307.289,-190.467 299.293,-183.517 296.704,-190.021"/>
</g>
<!-- Node5 -->
<g id="node5" class="node"><title>Node5</title>
<g id="a_node5"><a xlink:href="classblitzdg_1_1CSCMat.html#a36200cdfcaf057020cb649dbadc76a71" target="_top" xlink:title="Returns the number of columns.">
<polygon fill="white" stroke="black" points="295.5,-152.5 295.5,-171.5 408.5,-171.5 408.5,-152.5 295.5,-152.5"/>
<text text-anchor="middle" x="352" y="-159.5" font-family="Helvetica,sans-Serif" font-size="10.00">blitzdg::CSCMat::cols</text>
</a>
</g>
</g>
<!-- Node3&#45;&gt;Node5 -->
<g id="edge5" class="edge"><title>Node3&#45;&gt;Node5</title>
<path fill="none" stroke="midnightblue" d="M215.184,-114.515C233.989,-122.596 262.033,-134.244 287,-143 293.393,-145.242 300.204,-147.451 306.907,-149.525"/>
<polygon fill="midnightblue" stroke="midnightblue" points="306.006,-152.909 316.591,-152.455 308.034,-146.209 306.006,-152.909"/>
</g>
<!-- Node6 -->
<g id="node6" class="node"><title>Node6</title>
<g id="a_node6"><a xlink:href="classblitzdg_1_1CSCMat.html#a172a6117183b30613657fd15add8c652" target="_top" xlink:title="Provides read&#45;write access to the kth nonzero element.">
<polygon fill="white" stroke="black" points="291,-114.5 291,-133.5 413,-133.5 413,-114.5 291,-114.5"/>
<text text-anchor="middle" x="352" y="-121.5" font-family="Helvetica,sans-Serif" font-size="10.00">blitzdg::CSCMat::elems</text>
</a>
</g>
</g>
<!-- Node3&#45;&gt;Node6 -->
<g id="edge6" class="edge"><title>Node3&#45;&gt;Node6</title>
<path fill="none" stroke="midnightblue" d="M241.611,-110.804C254.01,-112.3 267.61,-113.94 280.879,-115.541"/>
<polygon fill="midnightblue" stroke="midnightblue" points="280.589,-119.031 290.936,-116.754 281.428,-112.082 280.589,-119.031"/>
</g>
<!-- Node7 -->
<g id="node7" class="node"><title>Node7</title>
<g id="a_node7"><a xlink:href="classblitzdg_1_1CSCMat.html#ad8f0ade61a85751e4da13065584c81cb" target="_top" xlink:title="Returns the number of nonzero elements.">
<polygon fill="white" stroke="black" points="296.5,-76.5 296.5,-95.5 407.5,-95.5 407.5,-76.5 296.5,-76.5"/>
<text text-anchor="middle" x="352" y="-83.5" font-family="Helvetica,sans-Serif" font-size="10.00">blitzdg::CSCMat::nnz</text>
</a>
</g>
</g>
<!-- Node3&#45;&gt;Node7 -->
<g id="edge7" class="edge"><title>Node3&#45;&gt;Node7</title>
<path fill="none" stroke="midnightblue" d="M241.611,-99.1961C255.65,-97.5025 271.228,-95.6233 286.123,-93.8265"/>
<polygon fill="midnightblue" stroke="midnightblue" points="286.789,-97.2716 296.297,-92.599 285.95,-90.322 286.789,-97.2716"/>
</g>
<!-- Node8 -->
<g id="node8" class="node"><title>Node8</title>
<g id="a_node8"><a xlink:href="classblitzdg_1_1CSCMat.html#a10225fa24f960187226b9a3a3628303e" target="_top" xlink:title="Provides read&#45;write access to the kth row index.">
<polygon fill="white" stroke="black" points="287,-38.5 287,-57.5 417,-57.5 417,-38.5 287,-38.5"/>
<text text-anchor="middle" x="352" y="-45.5" font-family="Helvetica,sans-Serif" font-size="10.00">blitzdg::CSCMat::rowInds</text>
</a>
</g>
</g>
<!-- Node3&#45;&gt;Node8 -->
<g id="edge9" class="edge"><title>Node3&#45;&gt;Node8</title>
<path fill="none" stroke="midnightblue" d="M215.184,-95.4851C233.989,-87.4037 262.033,-75.7563 287,-67 293.393,-64.7578 300.204,-62.549 306.907,-60.4752"/>
<polygon fill="midnightblue" stroke="midnightblue" points="308.034,-63.7912 316.591,-57.5453 306.006,-57.0911 308.034,-63.7912"/>
</g>
<!-- Node9 -->
<g id="node9" class="node"><title>Node9</title>
<g id="a_node9"><a xlink:href="classblitzdg_1_1CSCMat.html#a0d1d954ba5a1483f2188b65446a40d22" target="_top" xlink:title="Returns the number of rows.">
<polygon fill="white" stroke="black" points="294,-0.5 294,-19.5 410,-19.5 410,-0.5 294,-0.5"/>
<text text-anchor="middle" x="352" y="-7.5" font-family="Helvetica,sans-Serif" font-size="10.00">blitzdg::CSCMat::rows</text>
</a>
</g>
</g>
<!-- Node3&#45;&gt;Node9 -->
<g id="edge10" class="edge"><title>Node3&#45;&gt;Node9</title>
<path fill="none" stroke="midnightblue" d="M202.676,-95.3915C218.46,-79.3937 252.403,-47.2562 287,-29 291.26,-26.7518 295.824,-24.7328 300.481,-22.9278"/>
<polygon fill="midnightblue" stroke="midnightblue" points="301.846,-26.1576 310.102,-19.5186 299.508,-19.5596 301.846,-26.1576"/>
</g>
</g>
</svg>
