<?xml version="1.0" encoding="UTF-8" standalone="no"?>
<!DOCTYPE svg PUBLIC "-//W3C//DTD SVG 1.1//EN"
 "http://www.w3.org/Graphics/SVG/1.1/DTD/svg11.dtd">
<!-- Generated by graphviz version 2.38.0 (20140413.2041)
 -->
<!-- Title: include/GMRESSolver.hpp Pages: 1 -->
<svg width="729pt" height="196pt"
 viewBox="0.00 0.00 729.00 196.00" xmlns="http://www.w3.org/2000/svg" xmlns:xlink="http://www.w3.org/1999/xlink">
<g id="graph0" class="graph" transform="scale(1 1) rotate(0) translate(4 192)">
<title>include/GMRESSolver.hpp</title>
<polygon fill="white" stroke="none" points="-4,4 -4,-192 725,-192 725,4 -4,4"/>
<!-- Node1 -->
<g id="node1" class="node"><title>Node1</title>
<g id="a_node1"><a xlink:title="Defines the GMRESSolver class that implements a right&#45;preconditioned GMRES iterative method with modi...">
<polygon fill="#bfbfbf" stroke="black" points="299,-168.5 299,-187.5 433,-187.5 433,-168.5 299,-168.5"/>
<text text-anchor="middle" x="366" y="-175.5" font-family="Helvetica,sans-Serif" font-size="10.00">include/GMRESSolver.hpp</text>
</a>
</g>
</g>
<!-- Node2 -->
<g id="node2" class="node"><title>Node2</title>
<g id="a_node2"><a xlink:href="LinAlgHelpers_8hpp.html" target="_top" xlink:title="Implements a set functions for basic linear algebra operations.">
<polygon fill="white" stroke="black" points="77,-112.5 77,-131.5 173,-131.5 173,-112.5 77,-112.5"/>
<text text-anchor="middle" x="125" y="-119.5" font-family="Helvetica,sans-Serif" font-size="10.00">LinAlgHelpers.hpp</text>
</a>
</g>
</g>
<!-- Node1&#45;&gt;Node2 -->
<g id="edge1" class="edge"><title>Node1&#45;&gt;Node2</title>
<path fill="none" stroke="midnightblue" d="M327.813,-168.444C285.859,-159.043 218.406,-143.929 172.929,-133.739"/>
<polygon fill="midnightblue" stroke="midnightblue" points="173.532,-130.288 163.009,-131.516 172.001,-137.118 173.532,-130.288"/>
</g>
<!-- Node3 -->
<g id="node3" class="node"><title>Node3</title>
<g id="a_node3"><a xlink:href="Types_8hpp.html" target="_top" xlink:title="Defines the basic types used throughout this project.">
<polygon fill="white" stroke="black" points="87,-56.5 87,-75.5 149,-75.5 149,-56.5 87,-56.5"/>
<text text-anchor="middle" x="118" y="-63.5" font-family="Helvetica,sans-Serif" font-size="10.00">Types.hpp</text>
</a>
</g>
</g>
<!-- Node1&#45;&gt;Node3 -->
<g id="edge7" class="edge"><title>Node1&#45;&gt;Node3</title>
<path fill="none" stroke="midnightblue" d="M298.907,-176.627C220.337,-174.598 97.176,-165.913 68,-132 53.5063,-115.153 75.2766,-94.6849 94.4762,-81.2747"/>
<polygon fill="midnightblue" stroke="midnightblue" points="96.5699,-84.0862 102.977,-75.6483 92.7065,-78.2489 96.5699,-84.0862"/>
</g>
<!-- Node6 -->
<g id="node6" class="node"><title>Node6</title>
<g id="a_node6"><a xlink:title=" ">
<polygon fill="white" stroke="#bfbfbf" points="198,-0.5 198,-19.5 242,-19.5 242,-0.5 198,-0.5"/>
<text text-anchor="middle" x="220" y="-7.5" font-family="Helvetica,sans-Serif" font-size="10.00">vector</text>
</a>
</g>
</g>
<!-- Node1&#45;&gt;Node6 -->
<g id="edge16" class="edge"><title>Node1&#45;&gt;Node6</title>
<path fill="none" stroke="midnightblue" d="M323.554,-168.437C301.274,-161.916 275.123,-150.748 258,-132 231.483,-102.968 223.47,-55.5621 221.049,-29.5426"/>
<polygon fill="midnightblue" stroke="midnightblue" points="224.536,-29.2361 220.299,-19.5252 217.555,-29.7585 224.536,-29.2361"/>
</g>
<!-- Node7 -->
<g id="node7" class="node"><title>Node7</title>
<g id="a_node7"><a xlink:title=" ">
<polygon fill="white" stroke="#bfbfbf" points="167,-56.5 167,-75.5 211,-75.5 211,-56.5 167,-56.5"/>
<text text-anchor="middle" x="189" y="-63.5" font-family="Helvetica,sans-Serif" font-size="10.00">cmath</text>
</a>
</g>
</g>
<!-- Node1&#45;&gt;Node7 -->
<g id="edge9" class="edge"><title>Node1&#45;&gt;Node7</title>
<path fill="none" stroke="midnightblue" d="M306.993,-168.47C279.694,-162.104 248.245,-151.066 225,-132 210.072,-119.755 200.294,-99.61 194.747,-84.9879"/>
<polygon fill="midnightblue" stroke="midnightblue" points="198.039,-83.7992 191.442,-75.5088 191.429,-86.1036 198.039,-83.7992"/>
</g>
<!-- Node8 -->
<g id="node8" class="node"><title>Node8</title>
<g id="a_node8"><a xlink:title=" ">
<polygon fill="white" stroke="#bfbfbf" points="267,-112.5 267,-131.5 323,-131.5 323,-112.5 267,-112.5"/>
<text text-anchor="middle" x="295" y="-119.5" font-family="Helvetica,sans-Serif" font-size="10.00">algorithm</text>
</a>
</g>
</g>
<!-- Node1&#45;&gt;Node8 -->
<g id="edge8" class="edge"><title>Node1&#45;&gt;Node8</title>
<path fill="none" stroke="midnightblue" d="M354.593,-168.324C343.891,-160.185 327.659,-147.839 314.837,-138.087"/>
<polygon fill="midnightblue" stroke="midnightblue" points="316.693,-135.102 306.615,-131.834 312.456,-140.673 316.693,-135.102"/>
</g>
<!-- Node9 -->
<g id="node9" class="node"><title>Node9</title>
<g id="a_node9"><a xlink:title=" ">
<polygon fill="white" stroke="#bfbfbf" points="341,-112.5 341,-131.5 391,-131.5 391,-112.5 341,-112.5"/>
<text text-anchor="middle" x="366" y="-119.5" font-family="Helvetica,sans-Serif" font-size="10.00">iomanip</text>
</a>
</g>
</g>
<!-- Node1&#45;&gt;Node9 -->
<g id="edge10" class="edge"><title>Node1&#45;&gt;Node9</title>
<path fill="none" stroke="midnightblue" d="M366,-168.083C366,-161.006 366,-150.861 366,-141.986"/>
<polygon fill="midnightblue" stroke="midnightblue" points="369.5,-141.751 366,-131.751 362.5,-141.751 369.5,-141.751"/>
</g>
<!-- Node10 -->
<g id="node10" class="node"><title>Node10</title>
<g id="a_node10"><a xlink:title=" ">
<polygon fill="white" stroke="#bfbfbf" points="409,-112.5 409,-131.5 463,-131.5 463,-112.5 409,-112.5"/>
<text text-anchor="middle" x="436" y="-119.5" font-family="Helvetica,sans-Serif" font-size="10.00">iostream</text>
</a>
</g>
</g>
<!-- Node1&#45;&gt;Node10 -->
<g id="edge11" class="edge"><title>Node1&#45;&gt;Node10</title>
<path fill="none" stroke="midnightblue" d="M377.247,-168.324C387.797,-160.185 403.801,-147.839 416.442,-138.087"/>
<polygon fill="midnightblue" stroke="midnightblue" points="418.769,-140.713 424.549,-131.834 414.493,-135.171 418.769,-140.713"/>
</g>
<!-- Node11 -->
<g id="node11" class="node"><title>Node11</title>
<g id="a_node11"><a xlink:title=" ">
<polygon fill="white" stroke="#bfbfbf" points="481,-112.5 481,-131.5 533,-131.5 533,-112.5 481,-112.5"/>
<text text-anchor="middle" x="507" y="-119.5" font-family="Helvetica,sans-Serif" font-size="10.00">ostream</text>
</a>
</g>
</g>
<!-- Node1&#45;&gt;Node11 -->
<g id="edge12" class="edge"><title>Node1&#45;&gt;Node11</title>
<path fill="none" stroke="midnightblue" d="M388.342,-168.444C411.753,-159.478 448.736,-145.314 475.19,-135.183"/>
<polygon fill="midnightblue" stroke="midnightblue" points="476.676,-138.361 484.763,-131.516 474.172,-131.824 476.676,-138.361"/>
</g>
<!-- Node12 -->
<g id="node12" class="node"><title>Node12</title>
<g id="a_node12"><a xlink:title=" ">
<polygon fill="white" stroke="#bfbfbf" points="551,-112.5 551,-131.5 603,-131.5 603,-112.5 551,-112.5"/>
<text text-anchor="middle" x="577" y="-119.5" font-family="Helvetica,sans-Serif" font-size="10.00">sstream</text>
</a>
</g>
</g>
<!-- Node1&#45;&gt;Node12 -->
<g id="edge13" class="edge"><title>Node1&#45;&gt;Node12</title>
<path fill="none" stroke="midnightblue" d="M399.416,-168.471C432.816,-159.942 485.909,-146.377 540.737,-132.322"/>
<polygon fill="midnightblue" stroke="midnightblue" points="541.81,-135.66 550.628,-129.786 540.072,-128.879 541.81,-135.66"/>
</g>
<!-- Node13 -->
<g id="node13" class="node"><title>Node13</title>
<g id="a_node13"><a xlink:title=" ">
<polygon fill="white" stroke="#bfbfbf" points="621.5,-112.5 621.5,-131.5 662.5,-131.5 662.5,-112.5 621.5,-112.5"/>
<text text-anchor="middle" x="642" y="-119.5" font-family="Helvetica,sans-Serif" font-size="10.00">string</text>
</a>
</g>
</g>
<!-- Node1&#45;&gt;Node13 -->
<g id="edge14" class="edge"><title>Node1&#45;&gt;Node13</title>
<path fill="none" stroke="midnightblue" d="M422.551,-168.479C470.402,-160.855 540.942,-148.652 611.475,-131.894"/>
<polygon fill="midnightblue" stroke="midnightblue" points="612.521,-135.242 621.425,-129.499 610.883,-128.436 612.521,-135.242"/>
</g>
<!-- Node14 -->
<g id="node14" class="node"><title>Node14</title>
<g id="a_node14"><a xlink:title=" ">
<polygon fill="white" stroke="#bfbfbf" points="681,-112.5 681,-131.5 721,-131.5 721,-112.5 681,-112.5"/>
<text text-anchor="middle" x="701" y="-119.5" font-family="Helvetica,sans-Serif" font-size="10.00">utility</text>
</a>
</g>
</g>
<!-- Node1&#45;&gt;Node14 -->
<g id="edge15" class="edge"><title>Node1&#45;&gt;Node14</title>
<path fill="none" stroke="midnightblue" d="M433.107,-170.161C493.222,-163.347 583.87,-151.379 671.04,-131.919"/>
<polygon fill="midnightblue" stroke="midnightblue" points="671.849,-135.324 680.827,-129.699 670.3,-128.498 671.849,-135.324"/>
</g>
<!-- Node2&#45;&gt;Node3 -->
<g id="edge2" class="edge"><title>Node2&#45;&gt;Node3</title>
<path fill="none" stroke="midnightblue" d="M123.844,-112.083C122.916,-104.927 121.582,-94.6353 120.423,-85.6911"/>
<polygon fill="midnightblue" stroke="midnightblue" points="123.891,-85.2181 119.134,-75.7511 116.949,-86.1181 123.891,-85.2181"/>
</g>
<!-- Node2&#45;&gt;Node7 -->
<g id="edge6" class="edge"><title>Node2&#45;&gt;Node7</title>
<path fill="none" stroke="midnightblue" d="M135.283,-112.324C144.836,-104.263 159.28,-92.0765 170.784,-82.3695"/>
<polygon fill="midnightblue" stroke="midnightblue" points="173.144,-84.9577 178.53,-75.8339 168.63,-79.6076 173.144,-84.9577"/>
</g>
<!-- Node4 -->
<g id="node4" class="node"><title>Node4</title>
<g id="a_node4"><a xlink:title=" ">
<polygon fill="white" stroke="#bfbfbf" points="0,-0.5 0,-19.5 68,-19.5 68,-0.5 0,-0.5"/>
<text text-anchor="middle" x="34" y="-7.5" font-family="Helvetica,sans-Serif" font-size="10.00">blitz/array.h</text>
</a>
</g>
</g>
<!-- Node3&#45;&gt;Node4 -->
<g id="edge3" class="edge"><title>Node3&#45;&gt;Node4</title>
<path fill="none" stroke="midnightblue" d="M104.504,-56.324C91.4004,-47.9002 71.2881,-34.9709 55.8931,-25.0741"/>
<polygon fill="midnightblue" stroke="midnightblue" points="57.767,-22.118 47.4626,-19.6545 53.9817,-28.0063 57.767,-22.118"/>
</g>
<!-- Node5 -->
<g id="node5" class="node"><title>Node5</title>
<g id="a_node5"><a xlink:title=" ">
<polygon fill="white" stroke="#bfbfbf" points="86.5,-0.5 86.5,-19.5 169.5,-19.5 169.5,-0.5 86.5,-0.5"/>
<text text-anchor="middle" x="128" y="-7.5" font-family="Helvetica,sans-Serif" font-size="10.00">unordered_map</text>
</a>
</g>
</g>
<!-- Node3&#45;&gt;Node5 -->
<g id="edge4" class="edge"><title>Node3&#45;&gt;Node5</title>
<path fill="none" stroke="midnightblue" d="M119.651,-56.083C120.976,-48.9272 122.882,-38.6353 124.539,-29.6911"/>
<polygon fill="midnightblue" stroke="midnightblue" points="128,-30.2212 126.379,-19.7511 121.117,-28.9466 128,-30.2212"/>
</g>
<!-- Node3&#45;&gt;Node6 -->
<g id="edge5" class="edge"><title>Node3&#45;&gt;Node6</title>
<path fill="none" stroke="midnightblue" d="M134.388,-56.324C150.671,-47.7034 175.867,-34.3643 194.716,-24.3855"/>
<polygon fill="midnightblue" stroke="midnightblue" points="196.452,-27.4267 203.653,-19.6545 193.177,-21.2402 196.452,-27.4267"/>
</g>
</g>
</svg>
