<?xml version="1.0" encoding="UTF-8" standalone="no"?>
<!DOCTYPE svg PUBLIC "-//W3C//DTD SVG 1.1//EN"
 "http://www.w3.org/Graphics/SVG/1.1/DTD/svg11.dtd">
<!-- Generated by graphviz version 2.38.0 (20140413.2041)
 -->
<!-- Title: blitzdg::checkGMRESParams Pages: 1 -->
<svg width="308pt" height="52pt"
 viewBox="0.00 0.00 308.00 51.50" xmlns="http://www.w3.org/2000/svg" xmlns:xlink="http://www.w3.org/1999/xlink">
<g id="graph0" class="graph" transform="scale(1 1) rotate(0) translate(4 47.5)">
<title>blitzdg::checkGMRESParams</title>
<polygon fill="white" stroke="none" points="-4,4 -4,-47.5 304,-47.5 304,4 -4,4"/>
<!-- Node1 -->
<g id="node1" class="node"><title>Node1</title>
<g id="a_node1"><a xlink:title="Checks the parameters in GMRESParams and throws an std::invalid_argument exception if any are out of ...">
<polygon fill="#bfbfbf" stroke="black" points="152,-6 152,-25 300,-25 300,-6 152,-6"/>
<text text-anchor="middle" x="226" y="-13" font-family="Helvetica,sans-Serif" font-size="10.00">blitzdg::checkGMRESParams</text>
</a>
</g>
</g>
<!-- Node1&#45;&gt;Node1 -->
<g id="edge1" class="edge"><title>Node1&#45;&gt;Node1</title>
<path fill="none" stroke="midnightblue" d="M257.437,-33.7746C256.541,-39.241 246.062,-43.5 226,-43.5 196.141,-43.5 187.509,-34.0653 200.106,-25.2571"/>
<polygon fill="midnightblue" stroke="midnightblue" points="260.282,-31.7291 251.894,-25.2571 254.415,-35.5475 260.282,-31.7291"/>
</g>
<!-- Node2 -->
<g id="node2" class="node"><title>Node2</title>
<g id="a_node2"><a xlink:href="classblitzdg_1_1GMRESSolver.html#a70f9e36b71cd6618b93f0bb0ab8ced2a" target="_top" xlink:title="Calls GMRES to solves the linear system .">
<polygon fill="white" stroke="black" points="-7.10543e-15,-0.5 -7.10543e-15,-30.5 116,-30.5 116,-0.5 -7.10543e-15,-0.5"/>
<text text-anchor="start" x="8" y="-18.5" font-family="Helvetica,sans-Serif" font-size="10.00">blitzdg::GMRESSolver</text>
<text text-anchor="middle" x="58" y="-7.5" font-family="Helvetica,sans-Serif" font-size="10.00">::solve</text>
</a>
</g>
</g>
<!-- Node1&#45;&gt;Node2 -->
<g id="edge2" class="edge"><title>Node1&#45;&gt;Node2</title>
<path fill="none" stroke="midnightblue" d="M141.625,-15.5C133.02,-15.5 124.421,-15.5 116.197,-15.5"/>
<polygon fill="midnightblue" stroke="midnightblue" points="141.707,-19.0001 151.707,-15.5 141.707,-12.0001 141.707,-19.0001"/>
</g>
</g>
</svg>
