<?xml version="1.0" encoding="UTF-8" standalone="no"?>
<!DOCTYPE svg PUBLIC "-//W3C//DTD SVG 1.1//EN"
 "http://www.w3.org/Graphics/SVG/1.1/DTD/svg11.dtd">
<!-- Generated by graphviz version 2.38.0 (20140413.2041)
 -->
<!-- Title: blitzdg::normFro Pages: 1 -->
<svg width="218pt" height="46pt"
 viewBox="0.00 0.00 218.00 46.00" xmlns="http://www.w3.org/2000/svg" xmlns:xlink="http://www.w3.org/1999/xlink">
<g id="graph0" class="graph" transform="scale(1 1) rotate(0) translate(4 42)">
<title>blitzdg::normFro</title>
<polygon fill="white" stroke="none" points="-4,4 -4,-42 214,-42 214,4 -4,4"/>
<!-- Node1 -->
<g id="node1" class="node"><title>Node1</title>
<g id="a_node1"><a xlink:title="Returns the Frobenius norm of a matrix mat.">
<polygon fill="#bfbfbf" stroke="black" points="0,-0.5 0,-19.5 87,-19.5 87,-0.5 0,-0.5"/>
<text text-anchor="middle" x="43.5" y="-7.5" font-family="Helvetica,sans-Serif" font-size="10.00">blitzdg::normFro</text>
</a>
</g>
</g>
<!-- Node2 -->
<g id="node2" class="node"><title>Node2</title>
<g id="a_node2"><a xlink:href="LinAlgHelpers_8hpp.html#a0e4b1696fd44e63eec1faa9d2947356f" target="_top" xlink:title="Returns the Frobenius norm (two&#45;norm) of a vector x.">
<polygon fill="white" stroke="black" points="123,-0.5 123,-19.5 210,-19.5 210,-0.5 123,-0.5"/>
<text text-anchor="middle" x="166.5" y="-7.5" font-family="Helvetica,sans-Serif" font-size="10.00">blitzdg::normFro</text>
</a>
</g>
</g>
<!-- Node1&#45;&gt;Node2 -->
<g id="edge1" class="edge"><title>Node1&#45;&gt;Node2</title>
<path fill="none" stroke="midnightblue" d="M87.1601,-10C95.3834,-10 104.09,-10 112.593,-10"/>
<polygon fill="midnightblue" stroke="midnightblue" points="112.817,-13.5001 122.817,-10 112.817,-6.5001 112.817,-13.5001"/>
</g>
<!-- Node2&#45;&gt;Node2 -->
<g id="edge2" class="edge"><title>Node2&#45;&gt;Node2</title>
<path fill="none" stroke="midnightblue" d="M147.696,-19.7571C138.548,-28.5653 144.816,-38 166.5,-38 180.391,-38 187.956,-34.128 189.193,-29.0292"/>
<polygon fill="midnightblue" stroke="midnightblue" points="192.4,-27.6246 185.304,-19.7571 185.945,-30.3325 192.4,-27.6246"/>
</g>
</g>
</svg>
