<?xml version="1.0" encoding="UTF-8" standalone="no"?>
<!DOCTYPE svg PUBLIC "-//W3C//DTD SVG 1.1//EN"
 "http://www.w3.org/Graphics/SVG/1.1/DTD/svg11.dtd">
<!-- Generated by graphviz version 2.38.0 (20140413.2041)
 -->
<!-- Title: include/LinAlgHelpers.hpp Pages: 1 -->
<svg width="469pt" height="140pt"
 viewBox="0.00 0.00 469.00 140.00" xmlns="http://www.w3.org/2000/svg" xmlns:xlink="http://www.w3.org/1999/xlink">
<g id="graph0" class="graph" transform="scale(1 1) rotate(0) translate(4 136)">
<title>include/LinAlgHelpers.hpp</title>
<polygon fill="white" stroke="none" points="-4,4 -4,-136 465,-136 465,4 -4,4"/>
<!-- Node1 -->
<g id="node1" class="node"><title>Node1</title>
<g id="a_node1"><a xlink:title="Implements a set functions for basic linear algebra operations.">
<polygon fill="#bfbfbf" stroke="black" points="165.5,-112.5 165.5,-131.5 295.5,-131.5 295.5,-112.5 165.5,-112.5"/>
<text text-anchor="middle" x="230.5" y="-119.5" font-family="Helvetica,sans-Serif" font-size="10.00">include/LinAlgHelpers.hpp</text>
</a>
</g>
</g>
<!-- Node2 -->
<g id="node2" class="node"><title>Node2</title>
<g id="a_node2"><a xlink:href="GMRESSolver_8hpp.html" target="_top" xlink:title="Defines the GMRESSolver class that implements a right&#45;preconditioned GMRES iterative method with modi...">
<polygon fill="white" stroke="black" points="163.5,-56.5 163.5,-75.5 297.5,-75.5 297.5,-56.5 163.5,-56.5"/>
<text text-anchor="middle" x="230.5" y="-63.5" font-family="Helvetica,sans-Serif" font-size="10.00">include/GMRESSolver.hpp</text>
</a>
</g>
</g>
<!-- Node1&#45;&gt;Node2 -->
<g id="edge1" class="edge"><title>Node1&#45;&gt;Node2</title>
<path fill="none" stroke="midnightblue" d="M230.5,-101.805C230.5,-92.9102 230.5,-82.7798 230.5,-75.7511"/>
<polygon fill="midnightblue" stroke="midnightblue" points="227,-102.083 230.5,-112.083 234,-102.083 227,-102.083"/>
</g>
<!-- Node5 -->
<g id="node5" class="node"><title>Node5</title>
<g id="a_node5"><a xlink:href="Poisson1d_8hpp.html" target="_top" xlink:title="Short header file for 1D Poisson solver&#39;s main.cpp file.">
<polygon fill="white" stroke="black" points="0,-56.5 0,-75.5 145,-75.5 145,-56.5 0,-56.5"/>
<text text-anchor="middle" x="72.5" y="-63.5" font-family="Helvetica,sans-Serif" font-size="10.00">src/poisson1d/Poisson1d.hpp</text>
</a>
</g>
</g>
<!-- Node1&#45;&gt;Node5 -->
<g id="edge4" class="edge"><title>Node1&#45;&gt;Node5</title>
<path fill="none" stroke="midnightblue" d="M195.892,-109.172C166.141,-99.0039 123.953,-84.5852 97.4184,-75.5164"/>
<polygon fill="midnightblue" stroke="midnightblue" points="194.87,-112.521 205.464,-112.444 197.134,-105.898 194.87,-112.521"/>
</g>
<!-- Node6 -->
<g id="node6" class="node"><title>Node6</title>
<g id="a_node6"><a xlink:href="Poisson2d_8hpp.html" target="_top" xlink:title="Header file for 2D Poisson solver&#39;s main.cpp file.">
<polygon fill="white" stroke="black" points="316,-56.5 316,-75.5 461,-75.5 461,-56.5 316,-56.5"/>
<text text-anchor="middle" x="388.5" y="-63.5" font-family="Helvetica,sans-Serif" font-size="10.00">src/poisson2d/Poisson2d.hpp</text>
</a>
</g>
</g>
<!-- Node1&#45;&gt;Node6 -->
<g id="edge6" class="edge"><title>Node1&#45;&gt;Node6</title>
<path fill="none" stroke="midnightblue" d="M265.108,-109.172C294.859,-99.0039 337.047,-84.5852 363.582,-75.5164"/>
<polygon fill="midnightblue" stroke="midnightblue" points="263.866,-105.898 255.536,-112.444 266.13,-112.521 263.866,-105.898"/>
</g>
<!-- Node3 -->
<g id="node3" class="node"><title>Node3</title>
<g id="a_node3"><a xlink:href="poisson1d_2main_8cpp.html" target="_top" xlink:title=" ">
<polygon fill="white" stroke="black" points="22.5,-0.5 22.5,-19.5 142.5,-19.5 142.5,-0.5 22.5,-0.5"/>
<text text-anchor="middle" x="82.5" y="-7.5" font-family="Helvetica,sans-Serif" font-size="10.00">src/poisson1d/main.cpp</text>
</a>
</g>
</g>
<!-- Node2&#45;&gt;Node3 -->
<g id="edge2" class="edge"><title>Node2&#45;&gt;Node3</title>
<path fill="none" stroke="midnightblue" d="M197.353,-52.9058C169.528,-42.7536 130.48,-28.5063 105.841,-19.5164"/>
<polygon fill="midnightblue" stroke="midnightblue" points="196.455,-56.3038 207.049,-56.4435 198.854,-49.7279 196.455,-56.3038"/>
</g>
<!-- Node4 -->
<g id="node4" class="node"><title>Node4</title>
<g id="a_node4"><a xlink:href="poisson2d_2main_8cpp.html" target="_top" xlink:title=" ">
<polygon fill="white" stroke="black" points="249.5,-0.5 249.5,-19.5 369.5,-19.5 369.5,-0.5 249.5,-0.5"/>
<text text-anchor="middle" x="309.5" y="-7.5" font-family="Helvetica,sans-Serif" font-size="10.00">src/poisson2d/main.cpp</text>
</a>
</g>
</g>
<!-- Node2&#45;&gt;Node4 -->
<g id="edge3" class="edge"><title>Node2&#45;&gt;Node4</title>
<path fill="none" stroke="midnightblue" d="M251.534,-50.6221C265.966,-40.7574 284.641,-27.9919 296.839,-19.6545"/>
<polygon fill="midnightblue" stroke="midnightblue" points="249.473,-47.7914 243.193,-56.324 253.423,-53.5703 249.473,-47.7914"/>
</g>
<!-- Node5&#45;&gt;Node3 -->
<g id="edge5" class="edge"><title>Node5&#45;&gt;Node3</title>
<path fill="none" stroke="midnightblue" d="M75.9999,-46.1005C77.66,-37.1357 79.5633,-26.8579 80.8794,-19.7511"/>
<polygon fill="midnightblue" stroke="midnightblue" points="72.5308,-45.6128 74.1513,-56.083 79.4138,-46.8875 72.5308,-45.6128"/>
</g>
<!-- Node6&#45;&gt;Node4 -->
<g id="edge7" class="edge"><title>Node6&#45;&gt;Node4</title>
<path fill="none" stroke="midnightblue" d="M367.466,-50.6221C353.034,-40.7574 334.359,-27.9919 322.161,-19.6545"/>
<polygon fill="midnightblue" stroke="midnightblue" points="365.577,-53.5703 375.807,-56.324 369.527,-47.7914 365.577,-53.5703"/>
</g>
</g>
</svg>
