<?xml version="1.0" encoding="UTF-8" standalone="no"?>
<!DOCTYPE svg PUBLIC "-//W3C//DTD SVG 1.1//EN"
 "http://www.w3.org/Graphics/SVG/1.1/DTD/svg11.dtd">
<!-- Generated by graphviz version 2.38.0 (20140413.2041)
 -->
<!-- Title: blitzdg::norm2 Pages: 1 -->
<svg width="238pt" height="52pt"
 viewBox="0.00 0.00 238.00 51.50" xmlns="http://www.w3.org/2000/svg" xmlns:xlink="http://www.w3.org/1999/xlink">
<g id="graph0" class="graph" transform="scale(1 1) rotate(0) translate(4 47.5)">
<title>blitzdg::norm2</title>
<polygon fill="white" stroke="none" points="-4,4 -4,-47.5 234,-47.5 234,4 -4,4"/>
<!-- Node1 -->
<g id="node1" class="node"><title>Node1</title>
<g id="a_node1"><a xlink:title="Returns the two&#45;norm of a vector x.">
<polygon fill="#bfbfbf" stroke="black" points="152,-6 152,-25 230,-25 230,-6 152,-6"/>
<text text-anchor="middle" x="191" y="-13" font-family="Helvetica,sans-Serif" font-size="10.00">blitzdg::norm2</text>
</a>
</g>
</g>
<!-- Node1&#45;&gt;Node1 -->
<g id="edge1" class="edge"><title>Node1&#45;&gt;Node1</title>
<path fill="none" stroke="midnightblue" d="M215.553,-34.5292C214.214,-39.628 206.03,-43.5 191,-43.5 167.539,-43.5 160.757,-34.0653 170.655,-25.2571"/>
<polygon fill="midnightblue" stroke="midnightblue" points="218.665,-32.9164 211.345,-25.2571 212.291,-35.8096 218.665,-32.9164"/>
</g>
<!-- Node2 -->
<g id="node2" class="node"><title>Node2</title>
<g id="a_node2"><a xlink:href="classblitzdg_1_1GMRESSolver.html#a70f9e36b71cd6618b93f0bb0ab8ced2a" target="_top" xlink:title="Calls GMRES to solves the linear system .">
<polygon fill="white" stroke="black" points="-7.10543e-15,-0.5 -7.10543e-15,-30.5 116,-30.5 116,-0.5 -7.10543e-15,-0.5"/>
<text text-anchor="start" x="8" y="-18.5" font-family="Helvetica,sans-Serif" font-size="10.00">blitzdg::GMRESSolver</text>
<text text-anchor="middle" x="58" y="-7.5" font-family="Helvetica,sans-Serif" font-size="10.00">::solve</text>
</a>
</g>
</g>
<!-- Node1&#45;&gt;Node2 -->
<g id="edge2" class="edge"><title>Node1&#45;&gt;Node2</title>
<path fill="none" stroke="midnightblue" d="M141.506,-15.5C133.213,-15.5 124.529,-15.5 116.039,-15.5"/>
<polygon fill="midnightblue" stroke="midnightblue" points="141.757,-19.0001 151.757,-15.5 141.757,-12.0001 141.757,-19.0001"/>
</g>
</g>
</svg>
