<?xml version="1.0" encoding="UTF-8" standalone="no"?>
<!DOCTYPE svg PUBLIC "-//W3C//DTD SVG 1.1//EN"
 "http://www.w3.org/Graphics/SVG/1.1/DTD/svg11.dtd">
<!-- Generated by graphviz version 2.38.0 (20140413.2041)
 -->
<!-- Title: include/LSERK4.hpp Pages: 1 -->
<svg width="418pt" height="84pt"
 viewBox="0.00 0.00 417.50 84.00" xmlns="http://www.w3.org/2000/svg" xmlns:xlink="http://www.w3.org/1999/xlink">
<g id="graph0" class="graph" transform="scale(1 1) rotate(0) translate(4 80)">
<title>include/LSERK4.hpp</title>
<polygon fill="white" stroke="none" points="-4,4 -4,-80 413.5,-80 413.5,4 -4,4"/>
<!-- Node1 -->
<g id="node1" class="node"><title>Node1</title>
<g id="a_node1"><a xlink:title="Header file containing coefficients for Low&#45;Storage Explicit Runge&#45;Kutta time&#45;stepper (4th order).">
<polygon fill="#bfbfbf" stroke="black" points="144.5,-56.5 144.5,-75.5 251.5,-75.5 251.5,-56.5 144.5,-56.5"/>
<text text-anchor="middle" x="198" y="-63.5" font-family="Helvetica,sans-Serif" font-size="10.00">include/LSERK4.hpp</text>
</a>
</g>
</g>
<!-- Node2 -->
<g id="node2" class="node"><title>Node2</title>
<g id="a_node2"><a xlink:href="poisson1d_2main_8cpp.html" target="_top" xlink:title=" ">
<polygon fill="white" stroke="black" points="0,-0.5 0,-19.5 120,-19.5 120,-0.5 0,-0.5"/>
<text text-anchor="middle" x="60" y="-7.5" font-family="Helvetica,sans-Serif" font-size="10.00">src/poisson1d/main.cpp</text>
</a>
</g>
</g>
<!-- Node1&#45;&gt;Node2 -->
<g id="edge1" class="edge"><title>Node1&#45;&gt;Node2</title>
<path fill="none" stroke="midnightblue" d="M166.751,-52.772C140.829,-42.6287 104.638,-28.4669 81.7642,-19.5164"/>
<polygon fill="midnightblue" stroke="midnightblue" points="165.546,-56.0588 176.133,-56.4435 168.096,-49.5401 165.546,-56.0588"/>
</g>
<!-- Node3 -->
<g id="node3" class="node"><title>Node3</title>
<g id="a_node3"><a xlink:href="poisson2d_2main_8cpp.html" target="_top" xlink:title=" ">
<polygon fill="white" stroke="black" points="138,-0.5 138,-19.5 258,-19.5 258,-0.5 138,-0.5"/>
<text text-anchor="middle" x="198" y="-7.5" font-family="Helvetica,sans-Serif" font-size="10.00">src/poisson2d/main.cpp</text>
</a>
</g>
</g>
<!-- Node1&#45;&gt;Node3 -->
<g id="edge2" class="edge"><title>Node1&#45;&gt;Node3</title>
<path fill="none" stroke="midnightblue" d="M198,-45.8045C198,-36.9102 198,-26.7798 198,-19.7511"/>
<polygon fill="midnightblue" stroke="midnightblue" points="194.5,-46.083 198,-56.083 201.5,-46.083 194.5,-46.083"/>
</g>
<!-- Node4 -->
<g id="node4" class="node"><title>Node4</title>
<g id="a_node4"><a xlink:href="pyblitzdg_8cpp.html" target="_top" xlink:title="Python bindings for blitzdg&#39;s public API.">
<polygon fill="white" stroke="black" points="276.5,-0.5 276.5,-19.5 409.5,-19.5 409.5,-0.5 276.5,-0.5"/>
<text text-anchor="middle" x="343" y="-7.5" font-family="Helvetica,sans-Serif" font-size="10.00">src/pyblitzdg/pyblitzdg.cpp</text>
</a>
</g>
</g>
<!-- Node1&#45;&gt;Node4 -->
<g id="edge3" class="edge"><title>Node1&#45;&gt;Node4</title>
<path fill="none" stroke="midnightblue" d="M230.475,-52.9058C257.736,-42.7536 295.992,-28.5063 320.132,-19.5164"/>
<polygon fill="midnightblue" stroke="midnightblue" points="229.125,-49.6736 220.976,-56.4435 231.568,-56.2334 229.125,-49.6736"/>
</g>
</g>
</svg>
