<?xml version="1.0" encoding="UTF-8" standalone="no"?>
<!DOCTYPE svg PUBLIC "-//W3C//DTD SVG 1.1//EN"
 "http://www.w3.org/Graphics/SVG/1.1/DTD/svg11.dtd">
<!-- Generated by graphviz version 2.38.0 (20140413.2041)
 -->
<!-- Title: include/LUSolver.hpp Pages: 1 -->
<svg width="424pt" height="252pt"
 viewBox="0.00 0.00 423.50 252.00" xmlns="http://www.w3.org/2000/svg" xmlns:xlink="http://www.w3.org/1999/xlink">
<g id="graph0" class="graph" transform="scale(1 1) rotate(0) translate(4 248)">
<title>include/LUSolver.hpp</title>
<polygon fill="white" stroke="none" points="-4,4 -4,-248 419.5,-248 419.5,4 -4,4"/>
<!-- Node1 -->
<g id="node1" class="node"><title>Node1</title>
<g id="a_node1"><a xlink:title="Defines the LUSolver class that implements UMFPACK LU factorization (umfpack_di_numeric,...">
<polygon fill="#bfbfbf" stroke="black" points="305.5,-224.5 305.5,-243.5 415.5,-243.5 415.5,-224.5 305.5,-224.5"/>
<text text-anchor="middle" x="360.5" y="-231.5" font-family="Helvetica,sans-Serif" font-size="10.00">include/LUSolver.hpp</text>
</a>
</g>
</g>
<!-- Node2 -->
<g id="node2" class="node"><title>Node2</title>
<g id="a_node2"><a xlink:href="CSCMatrix_8hpp.html" target="_top" xlink:title=" ">
<polygon fill="white" stroke="black" points="237.5,-168.5 237.5,-187.5 321.5,-187.5 321.5,-168.5 237.5,-168.5"/>
<text text-anchor="middle" x="279.5" y="-175.5" font-family="Helvetica,sans-Serif" font-size="10.00">CSCMatrix.hpp</text>
</a>
</g>
</g>
<!-- Node1&#45;&gt;Node2 -->
<g id="edge1" class="edge"><title>Node1&#45;&gt;Node2</title>
<path fill="none" stroke="midnightblue" d="M347.486,-224.324C334.968,-215.979 315.818,-203.212 301.029,-193.352"/>
<polygon fill="midnightblue" stroke="midnightblue" points="302.744,-190.289 292.482,-187.655 298.861,-196.114 302.744,-190.289"/>
</g>
<!-- Node4 -->
<g id="node4" class="node"><title>Node4</title>
<g id="a_node4"><a xlink:href="Types_8hpp.html" target="_top" xlink:title="Defines the basic types used throughout this project.">
<polygon fill="white" stroke="black" points="169.5,-56.5 169.5,-75.5 231.5,-75.5 231.5,-56.5 169.5,-56.5"/>
<text text-anchor="middle" x="200.5" y="-63.5" font-family="Helvetica,sans-Serif" font-size="10.00">Types.hpp</text>
</a>
</g>
</g>
<!-- Node1&#45;&gt;Node4 -->
<g id="edge13" class="edge"><title>Node1&#45;&gt;Node4</title>
<path fill="none" stroke="midnightblue" d="M364.258,-224.27C372.901,-202.683 391.534,-146.086 365.5,-112 350.525,-92.3939 285.465,-79.28 241.654,-72.4911"/>
<polygon fill="midnightblue" stroke="midnightblue" points="241.971,-68.9997 231.563,-70.9802 240.935,-75.9225 241.971,-68.9997"/>
</g>
<!-- Node3 -->
<g id="node3" class="node"><title>Node3</title>
<g id="a_node3"><a xlink:href="SparseTriplet_8hpp.html" target="_top" xlink:title="Defines a sparse triplet matrix class.">
<polygon fill="white" stroke="black" points="0,-112.5 0,-131.5 93,-131.5 93,-112.5 0,-112.5"/>
<text text-anchor="middle" x="46.5" y="-119.5" font-family="Helvetica,sans-Serif" font-size="10.00">SparseTriplet.hpp</text>
</a>
</g>
</g>
<!-- Node2&#45;&gt;Node3 -->
<g id="edge2" class="edge"><title>Node2&#45;&gt;Node3</title>
<path fill="none" stroke="midnightblue" d="M242.58,-168.444C202.105,-159.063 137.079,-143.993 93.1155,-133.804"/>
<polygon fill="midnightblue" stroke="midnightblue" points="93.7788,-130.365 83.2468,-131.516 92.1984,-137.184 93.7788,-130.365"/>
</g>
<!-- Node2&#45;&gt;Node4 -->
<g id="edge9" class="edge"><title>Node2&#45;&gt;Node4</title>
<path fill="none" stroke="midnightblue" d="M301.74,-168.396C328.183,-156.87 366.704,-135.167 349.5,-112 324.972,-78.9701 276.918,-69.3113 241.996,-66.9073"/>
<polygon fill="midnightblue" stroke="midnightblue" points="241.786,-63.3921 231.62,-66.3764 241.429,-70.383 241.786,-63.3921"/>
</g>
<!-- Node9 -->
<g id="node9" class="node"><title>Node9</title>
<g id="a_node9"><a xlink:title=" ">
<polygon fill="white" stroke="#bfbfbf" points="111,-112.5 111,-131.5 200,-131.5 200,-112.5 111,-112.5"/>
<text text-anchor="middle" x="155.5" y="-119.5" font-family="Helvetica,sans-Serif" font-size="10.00">suitesparse/cs.h</text>
</a>
</g>
</g>
<!-- Node2&#45;&gt;Node9 -->
<g id="edge10" class="edge"><title>Node2&#45;&gt;Node9</title>
<path fill="none" stroke="midnightblue" d="M259.852,-168.444C239.535,-159.596 207.597,-145.687 184.402,-135.586"/>
<polygon fill="midnightblue" stroke="midnightblue" points="185.622,-132.3 175.056,-131.516 182.827,-138.718 185.622,-132.3"/>
</g>
<!-- Node10 -->
<g id="node10" class="node"><title>Node10</title>
<g id="a_node10"><a xlink:title=" ">
<polygon fill="white" stroke="#bfbfbf" points="218.5,-112.5 218.5,-131.5 270.5,-131.5 270.5,-112.5 218.5,-112.5"/>
<text text-anchor="middle" x="244.5" y="-119.5" font-family="Helvetica,sans-Serif" font-size="10.00">ostream</text>
</a>
</g>
</g>
<!-- Node2&#45;&gt;Node10 -->
<g id="edge11" class="edge"><title>Node2&#45;&gt;Node10</title>
<path fill="none" stroke="midnightblue" d="M273.72,-168.083C268.828,-160.534 261.673,-149.495 255.667,-140.23"/>
<polygon fill="midnightblue" stroke="midnightblue" points="258.548,-138.239 250.172,-131.751 252.674,-142.046 258.548,-138.239"/>
</g>
<!-- Node11 -->
<g id="node11" class="node"><title>Node11</title>
<g id="a_node11"><a xlink:title=" ">
<polygon fill="white" stroke="#bfbfbf" points="288.5,-112.5 288.5,-131.5 340.5,-131.5 340.5,-112.5 288.5,-112.5"/>
<text text-anchor="middle" x="314.5" y="-119.5" font-family="Helvetica,sans-Serif" font-size="10.00">memory</text>
</a>
</g>
</g>
<!-- Node2&#45;&gt;Node11 -->
<g id="edge12" class="edge"><title>Node2&#45;&gt;Node11</title>
<path fill="none" stroke="midnightblue" d="M285.28,-168.083C290.172,-160.534 297.327,-149.495 303.333,-140.23"/>
<polygon fill="midnightblue" stroke="midnightblue" points="306.326,-142.046 308.828,-131.751 300.452,-138.239 306.326,-142.046"/>
</g>
<!-- Node3&#45;&gt;Node4 -->
<g id="edge3" class="edge"><title>Node3&#45;&gt;Node4</title>
<path fill="none" stroke="midnightblue" d="M70.9018,-112.444C96.6966,-103.399 137.577,-89.064 166.518,-78.9158"/>
<polygon fill="midnightblue" stroke="midnightblue" points="167.934,-82.1283 176.212,-75.5164 165.618,-75.5226 167.934,-82.1283"/>
</g>
<!-- Node7 -->
<g id="node7" class="node"><title>Node7</title>
<g id="a_node7"><a xlink:title=" ">
<polygon fill="white" stroke="#bfbfbf" points="60.5,-0.5 60.5,-19.5 104.5,-19.5 104.5,-0.5 60.5,-0.5"/>
<text text-anchor="middle" x="82.5" y="-7.5" font-family="Helvetica,sans-Serif" font-size="10.00">vector</text>
</a>
</g>
</g>
<!-- Node3&#45;&gt;Node7 -->
<g id="edge8" class="edge"><title>Node3&#45;&gt;Node7</title>
<path fill="none" stroke="midnightblue" d="M48.8679,-112.102C52.2689,-99.5188 58.8615,-75.8465 65.5,-56 68.4841,-47.0788 72.1334,-37.2962 75.2848,-29.1374"/>
<polygon fill="midnightblue" stroke="midnightblue" points="78.6496,-30.1438 79.043,-19.5563 72.133,-27.5877 78.6496,-30.1438"/>
</g>
<!-- Node8 -->
<g id="node8" class="node"><title>Node8</title>
<g id="a_node8"><a xlink:title=" ">
<polygon fill="white" stroke="#bfbfbf" points="74.5,-56.5 74.5,-75.5 130.5,-75.5 130.5,-56.5 74.5,-56.5"/>
<text text-anchor="middle" x="102.5" y="-63.5" font-family="Helvetica,sans-Serif" font-size="10.00">algorithm</text>
</a>
</g>
</g>
<!-- Node3&#45;&gt;Node8 -->
<g id="edge7" class="edge"><title>Node3&#45;&gt;Node8</title>
<path fill="none" stroke="midnightblue" d="M55.4974,-112.324C63.6944,-104.42 76.0055,-92.5482 85.972,-82.9377"/>
<polygon fill="midnightblue" stroke="midnightblue" points="88.5699,-85.2947 93.3389,-75.8339 83.711,-80.2558 88.5699,-85.2947"/>
</g>
<!-- Node5 -->
<g id="node5" class="node"><title>Node5</title>
<g id="a_node5"><a xlink:title=" ">
<polygon fill="white" stroke="#bfbfbf" points="242.5,-0.5 242.5,-19.5 310.5,-19.5 310.5,-0.5 242.5,-0.5"/>
<text text-anchor="middle" x="276.5" y="-7.5" font-family="Helvetica,sans-Serif" font-size="10.00">blitz/array.h</text>
</a>
</g>
</g>
<!-- Node4&#45;&gt;Node5 -->
<g id="edge4" class="edge"><title>Node4&#45;&gt;Node5</title>
<path fill="none" stroke="midnightblue" d="M212.711,-56.324C224.276,-48.1066 241.875,-35.6017 255.661,-25.8069"/>
<polygon fill="midnightblue" stroke="midnightblue" points="257.943,-28.4791 264.067,-19.8339 253.888,-22.7729 257.943,-28.4791"/>
</g>
<!-- Node6 -->
<g id="node6" class="node"><title>Node6</title>
<g id="a_node6"><a xlink:title=" ">
<polygon fill="white" stroke="#bfbfbf" points="141,-0.5 141,-19.5 224,-19.5 224,-0.5 141,-0.5"/>
<text text-anchor="middle" x="182.5" y="-7.5" font-family="Helvetica,sans-Serif" font-size="10.00">unordered_map</text>
</a>
</g>
</g>
<!-- Node4&#45;&gt;Node6 -->
<g id="edge5" class="edge"><title>Node4&#45;&gt;Node6</title>
<path fill="none" stroke="midnightblue" d="M197.528,-56.083C195.116,-48.8486 191.636,-38.4087 188.632,-29.3968"/>
<polygon fill="midnightblue" stroke="midnightblue" points="191.9,-28.1311 185.417,-19.7511 185.259,-30.3447 191.9,-28.1311"/>
</g>
<!-- Node4&#45;&gt;Node7 -->
<g id="edge6" class="edge"><title>Node4&#45;&gt;Node7</title>
<path fill="none" stroke="midnightblue" d="M181.803,-56.4435C162.556,-47.6356 132.348,-33.8116 110.3,-23.722"/>
<polygon fill="midnightblue" stroke="midnightblue" points="111.66,-20.4951 101.11,-19.5164 108.747,-26.8603 111.66,-20.4951"/>
</g>
</g>
</svg>
