<?xml version="1.0" encoding="UTF-8" standalone="no"?>
<!DOCTYPE svg PUBLIC "-//W3C//DTD SVG 1.1//EN"
 "http://www.w3.org/Graphics/SVG/1.1/DTD/svg11.dtd">
<!-- Generated by graphviz version 2.38.0 (20140413.2041)
 -->
<!-- Title: include/MeshManager.hpp Pages: 1 -->
<!--zoomable 196 -->
<svg id="main" version="1.1" xmlns="http://www.w3.org/2000/svg" xmlns:xlink="http://www.w3.org/1999/xlink" xml:space="preserve" onload="init(evt)">
<style type="text/css"><![CDATA[
.edge:hover path { stroke: red; }
.edge:hover polygon { stroke: red; fill: red; }
]]></style>
<script type="text/javascript"><![CDATA[
var edges = document.getElementsByTagName('g');
if (edges && edges.length) {
  for (var i=0;i<edges.length;i++) {
    if (edges[i].id.substr(0,4)=='edge') {
      edges[i].setAttribute('class','edge');
    }
  }
}
]]></script>
        <defs>
                <circle id="rim" cx="0" cy="0" r="7"/>
                <circle id="rim2" cx="0" cy="0" r="3.5"/>
                <g id="zoomPlus">
                        <use xlink:href="#rim" fill="#404040">
                                <set attributeName="fill" to="#808080" begin="zoomplus.mouseover" end="zoomplus.mouseout"/>
                        </use>
                        <path d="M-4,0h8M0,-4v8" fill="none" stroke="white" stroke-width="1.5" pointer-events="none"/>
                </g>
                <g id="zoomMin">
                        <use xlink:href="#rim" fill="#404040">
                                <set attributeName="fill" to="#808080" begin="zoomminus.mouseover" end="zoomminus.mouseout"/>
                        </use>
                        <path d="M-4,0h8" fill="none" stroke="white" stroke-width="1.5" pointer-events="none"/>
                </g>
                <g id="dirArrow">
                        <path fill="none" stroke="white" stroke-width="1.5" d="M0,-3.0v7 M-2.5,-0.5L0,-3.0L2.5,-0.5"/>
                </g>
               <g id="resetDef">
                       <use xlink:href="#rim2" fill="#404040">
                               <set attributeName="fill" to="#808080" begin="reset.mouseover" end="reset.mouseout"/>
                       </use>
               </g>
        </defs>

<script type="text/javascript">
var viewWidth = 569;
var viewHeight = 196;
var sectionId = 'dynsection-1';
</script>
<script xlink:href="svgpan.js"/>
<svg id="graph" class="graph">
<g id="viewport">
<title>include/MeshManager.hpp</title>
<polygon fill="white" stroke="none" points="-4,4 -4,-192 565.119,-192 565.119,4 -4,4"/>
<!-- Node1 -->
<g id="node1" class="node"><title>Node1</title>
<g id="a_node1"><a xlink:title="Defines the MeshManager class that reads mesh input files and partitions meshes with METIS....">
<polygon fill="#bfbfbf" stroke="black" points="247.119,-168.5 247.119,-187.5 378.119,-187.5 378.119,-168.5 247.119,-168.5"/>
<text text-anchor="middle" x="312.619" y="-175.5" font-family="Helvetica,sans-Serif" font-size="10.00">include/MeshManager.hpp</text>
</a>
</g>
</g>
<!-- Node2 -->
<g id="node2" class="node"><title>Node2</title>
<g id="a_node2"><a xlink:href="TriangleNodesProvisioner_8hpp.html" target="_top" xlink:title="Defines the TriangleNodesProvisioner class that provides a construction of 2D nodal points on the tri...">
<polygon fill="white" stroke="black" points="222.119,-112.5 222.119,-131.5 403.119,-131.5 403.119,-112.5 222.119,-112.5"/>
<text text-anchor="middle" x="312.619" y="-119.5" font-family="Helvetica,sans-Serif" font-size="10.00">include/TriangleNodesProvisioner.hpp</text>
</a>
</g>
</g>
<!-- Node1&#45;&gt;Node2 -->
<g id="edge1" class="edge"><title>Node1&#45;&gt;Node2</title>
<path fill="none" stroke="midnightblue" d="M312.619,-157.805C312.619,-148.91 312.619,-138.78 312.619,-131.751"/>
<polygon fill="midnightblue" stroke="midnightblue" points="309.119,-158.083 312.619,-168.083 316.119,-158.083 309.119,-158.083"/>
</g>
<!-- Node4 -->
<g id="node4" class="node"><title>Node4</title>
<g id="a_node4"><a xlink:href="poisson2d_2main_8cpp.html" target="_top" xlink:title=" ">
<polygon fill="white" stroke="black" points="252.619,-0.5 252.619,-19.5 372.619,-19.5 372.619,-0.5 252.619,-0.5"/>
<text text-anchor="middle" x="312.619" y="-7.5" font-family="Helvetica,sans-Serif" font-size="10.00">src/poisson2d/main.cpp</text>
</a>
</g>
</g>
<!-- Node1&#45;&gt;Node4 -->
<g id="edge9" class="edge"><title>Node1&#45;&gt;Node4</title>
<path fill="none" stroke="midnightblue" d="M236.79,-171.926C128.119,-161.887 -51.8817,-133.296 14.6188,-56 44.6479,-21.0959 174.239,-12.9154 252.3,-11.2112"/>
<polygon fill="midnightblue" stroke="midnightblue" points="236.803,-175.441 247.073,-172.841 237.423,-168.469 236.803,-175.441"/>
</g>
<!-- Node5 -->
<g id="node5" class="node"><title>Node5</title>
<g id="a_node5"><a xlink:href="pyblitzdg_8cpp.html" target="_top" xlink:title="Python bindings for blitzdg&#39;s public API.">
<polygon fill="white" stroke="black" points="428.119,-0.5 428.119,-19.5 561.119,-19.5 561.119,-0.5 428.119,-0.5"/>
<text text-anchor="middle" x="494.619" y="-7.5" font-family="Helvetica,sans-Serif" font-size="10.00">src/pyblitzdg/pyblitzdg.cpp</text>
</a>
</g>
</g>
<!-- Node1&#45;&gt;Node5 -->
<g id="edge10" class="edge"><title>Node1&#45;&gt;Node5</title>
<path fill="none" stroke="midnightblue" d="M362.186,-165.701C406.646,-152.562 468.875,-125.972 495.619,-76 505.311,-57.8899 500.717,-32.677 497.251,-19.614"/>
<polygon fill="midnightblue" stroke="midnightblue" points="361.1,-162.371 352.427,-168.456 363.002,-169.108 361.1,-162.371"/>
</g>
<!-- Node3 -->
<g id="node3" class="node"><title>Node3</title>
<g id="a_node3"><a xlink:href="VtkOutputter_8hpp.html" target="_top" xlink:title="Defines the VtkOutputter class that writes output to *.vtu files.">
<polygon fill="white" stroke="black" points="341.119,-56.5 341.119,-75.5 466.119,-75.5 466.119,-56.5 341.119,-56.5"/>
<text text-anchor="middle" x="403.619" y="-63.5" font-family="Helvetica,sans-Serif" font-size="10.00">include/VtkOutputter.hpp</text>
</a>
</g>
</g>
<!-- Node2&#45;&gt;Node3 -->
<g id="edge2" class="edge"><title>Node2&#45;&gt;Node3</title>
<path fill="none" stroke="midnightblue" d="M335.913,-107.177C352.658,-97.2407 374.719,-84.1492 389.034,-75.6545"/>
<polygon fill="midnightblue" stroke="midnightblue" points="334.053,-104.211 327.24,-112.324 337.626,-110.231 334.053,-104.211"/>
</g>
<!-- Node2&#45;&gt;Node4 -->
<g id="edge5" class="edge"><title>Node2&#45;&gt;Node4</title>
<path fill="none" stroke="midnightblue" d="M312.619,-102.348C312.619,-78.2538 312.619,-37.3079 312.619,-19.5914"/>
<polygon fill="midnightblue" stroke="midnightblue" points="309.119,-102.368 312.619,-112.368 316.119,-102.369 309.119,-102.368"/>
</g>
<!-- Node2&#45;&gt;Node5 -->
<g id="edge6" class="edge"><title>Node2&#45;&gt;Node5</title>
<path fill="none" stroke="midnightblue" d="M412.521,-109.762C435.265,-103.029 457.684,-92.4741 474.619,-76 490.191,-60.8515 493.71,-33.8999 494.458,-19.9378"/>
<polygon fill="midnightblue" stroke="midnightblue" points="411.497,-106.413 402.769,-112.419 413.337,-113.167 411.497,-106.413"/>
</g>
<!-- Node6 -->
<g id="node6" class="node"><title>Node6</title>
<g id="a_node6"><a xlink:href="SW2d_8hpp.html" target="_top" xlink:title="Short header file for 2D shallow water solver&#39;s main.cpp file.">
<polygon fill="white" stroke="black" points="24.1188,-56.5 24.1188,-75.5 129.119,-75.5 129.119,-56.5 24.1188,-56.5"/>
<text text-anchor="middle" x="76.6188" y="-63.5" font-family="Helvetica,sans-Serif" font-size="10.00">src/sw2d/SW2d.hpp</text>
</a>
</g>
</g>
<!-- Node2&#45;&gt;Node6 -->
<g id="edge7" class="edge"><title>Node2&#45;&gt;Node6</title>
<path fill="none" stroke="midnightblue" d="M265.213,-110.153C220.622,-99.95 154.765,-84.8809 113.839,-75.5164"/>
<polygon fill="midnightblue" stroke="midnightblue" points="264.695,-113.625 275.224,-112.444 266.257,-106.801 264.695,-113.625"/>
</g>
<!-- Node7 -->
<g id="node7" class="node"><title>Node7</title>
<g id="a_node7"><a xlink:href="simple_2SW2d_8hpp.html" target="_top" xlink:title="Short header file for 2D shallow water solver&#39;s main.cpp file.">
<polygon fill="white" stroke="black" points="147.119,-56.5 147.119,-75.5 284.119,-75.5 284.119,-56.5 147.119,-56.5"/>
<text text-anchor="middle" x="215.619" y="-63.5" font-family="Helvetica,sans-Serif" font-size="10.00">src/sw2d&#45;simple/SW2d.hpp</text>
</a>
</g>
</g>
<!-- Node2&#45;&gt;Node7 -->
<g id="edge8" class="edge"><title>Node2&#45;&gt;Node7</title>
<path fill="none" stroke="midnightblue" d="M288.284,-107.453C270.376,-97.4835 246.565,-84.2279 231.165,-75.6545"/>
<polygon fill="midnightblue" stroke="midnightblue" points="286.594,-110.518 297.034,-112.324 289.999,-104.402 286.594,-110.518"/>
</g>
<!-- Node3&#45;&gt;Node4 -->
<g id="edge3" class="edge"><title>Node3&#45;&gt;Node4</title>
<path fill="none" stroke="midnightblue" d="M380.325,-51.1774C363.58,-41.2407 341.518,-28.1492 327.203,-19.6545"/>
<polygon fill="midnightblue" stroke="midnightblue" points="378.612,-54.2307 388.998,-56.324 382.184,-48.2108 378.612,-54.2307"/>
</g>
<!-- Node3&#45;&gt;Node5 -->
<g id="edge4" class="edge"><title>Node3&#45;&gt;Node5</title>
<path fill="none" stroke="midnightblue" d="M426.913,-51.1774C443.658,-41.2407 465.719,-28.1492 480.034,-19.6545"/>
<polygon fill="midnightblue" stroke="midnightblue" points="425.053,-48.2108 418.24,-56.324 428.626,-54.2307 425.053,-48.2108"/>
</g>
</g>
</svg>
        <g id="navigator" transform="translate(0 0)" fill="#404254">
                <rect fill="#f2f5e9" fill-opacity="0.5" stroke="#606060" stroke-width=".5" x="0" y="0" width="60" height="60"/>
                <use id="zoomplus" xlink:href="#zoomPlus" x="17" y="9" onmousedown="handleZoom(evt,'in')"/>
                <use id="zoomminus" xlink:href="#zoomMin" x="42" y="9" onmousedown="handleZoom(evt,'out')"/>
                <use id="reset" xlink:href="#resetDef" x="30" y="36" onmousedown="handleReset()"/>
                <g id="arrowUp" xlink:href="#dirArrow" transform="translate(30 24)" onmousedown="handlePan(0,-1)">
                  <use xlink:href="#rim" fill="#404040">
                        <set attributeName="fill" to="#808080" begin="arrowUp.mouseover" end="arrowUp.mouseout"/>
                  </use>
                  <path fill="none" stroke="white" stroke-width="1.5" d="M0,-3.0v7 M-2.5,-0.5L0,-3.0L2.5,-0.5"/>
                </g>
                <g id="arrowRight" xlink:href="#dirArrow" transform="rotate(90) translate(36 -43)" onmousedown="handlePan(1,0)">
                  <use xlink:href="#rim" fill="#404040">
                        <set attributeName="fill" to="#808080" begin="arrowRight.mouseover" end="arrowRight.mouseout"/>
                  </use>
                  <path fill="none" stroke="white" stroke-width="1.5" d="M0,-3.0v7 M-2.5,-0.5L0,-3.0L2.5,-0.5"/>
                </g>
                <g id="arrowDown" xlink:href="#dirArrow" transform="rotate(180) translate(-30 -48)" onmousedown="handlePan(0,1)">
                  <use xlink:href="#rim" fill="#404040">
                        <set attributeName="fill" to="#808080" begin="arrowDown.mouseover" end="arrowDown.mouseout"/>
                  </use>
                  <path fill="none" stroke="white" stroke-width="1.5" d="M0,-3.0v7 M-2.5,-0.5L0,-3.0L2.5,-0.5"/>
                </g>
                <g id="arrowLeft" xlink:href="#dirArrow" transform="rotate(270) translate(-36 17)" onmousedown="handlePan(-1,0)">
                  <use xlink:href="#rim" fill="#404040">
                        <set attributeName="fill" to="#808080" begin="arrowLeft.mouseover" end="arrowLeft.mouseout"/>
                  </use>
                  <path fill="none" stroke="white" stroke-width="1.5" d="M0,-3.0v7 M-2.5,-0.5L0,-3.0L2.5,-0.5"/>
                </g>
        </g>
        <svg viewBox="0 0 15 15" width="100%" height="30px" preserveAspectRatio="xMaxYMin meet">
         <g id="arrow_out" transform="scale(0.3 0.3)">
          <a xlink:href="MeshManager_8hpp__dep__incl_org.svg" target="_base">
           <rect id="button" ry="5" rx="5" y="6" x="6" height="38" width="38"
                fill="#f2f5e9" fill-opacity="0.5" stroke="#606060" stroke-width="1.0"/>
           <path id="arrow"
             d="M 11.500037,31.436501 C 11.940474,20.09759 22.043105,11.32322 32.158766,21.979434 L 37.068811,17.246167 C 37.068811,17.246167 37.088388,32 37.088388,32 L 22.160133,31.978069 C 22.160133,31.978069 26.997745,27.140456 26.997745,27.140456 C 18.528582,18.264221 13.291696,25.230495 11.500037,31.436501 z"
             style="fill:#404040;"/>
          </a>
         </g>
        </svg>
</svg>
