<?xml version="1.0" encoding="UTF-8" standalone="no"?>
<!DOCTYPE svg PUBLIC "-//W3C//DTD SVG 1.1//EN"
 "http://www.w3.org/Graphics/SVG/1.1/DTD/svg11.dtd">
<!-- Generated by graphviz version 2.38.0 (20140413.2041)
 -->
<!-- Title: include/MeshManager.hpp Pages: 1 -->
<svg width="811pt" height="196pt"
 viewBox="0.00 0.00 811.00 196.00" xmlns="http://www.w3.org/2000/svg" xmlns:xlink="http://www.w3.org/1999/xlink">
<g id="graph0" class="graph" transform="scale(1 1) rotate(0) translate(4 192)">
<title>include/MeshManager.hpp</title>
<polygon fill="white" stroke="none" points="-4,4 -4,-192 807,-192 807,4 -4,4"/>
<!-- Node1 -->
<g id="node1" class="node"><title>Node1</title>
<g id="a_node1"><a xlink:title="Defines the MeshManager class that reads mesh input files and partitions meshes with METIS....">
<polygon fill="#bfbfbf" stroke="black" points="519,-168.5 519,-187.5 650,-187.5 650,-168.5 519,-168.5"/>
<text text-anchor="middle" x="584.5" y="-175.5" font-family="Helvetica,sans-Serif" font-size="10.00">include/MeshManager.hpp</text>
</a>
</g>
</g>
<!-- Node2 -->
<g id="node2" class="node"><title>Node2</title>
<g id="a_node2"><a xlink:href="Types_8hpp.html" target="_top" xlink:title="Defines the basic types used throughout this project.">
<polygon fill="white" stroke="black" points="57.5,-56.5 57.5,-75.5 119.5,-75.5 119.5,-56.5 57.5,-56.5"/>
<text text-anchor="middle" x="88.5" y="-63.5" font-family="Helvetica,sans-Serif" font-size="10.00">Types.hpp</text>
</a>
</g>
</g>
<!-- Node1&#45;&gt;Node2 -->
<g id="edge1" class="edge"><title>Node1&#45;&gt;Node2</title>
<path fill="none" stroke="midnightblue" d="M545.755,-168.464C468.705,-151.479 290.521,-112.151 129.591,-76.2383"/>
<polygon fill="midnightblue" stroke="midnightblue" points="130.029,-72.7499 119.507,-73.9872 128.504,-79.5818 130.029,-72.7499"/>
</g>
<!-- Node6 -->
<g id="node6" class="node"><title>Node6</title>
<g id="a_node6"><a xlink:href="CSVFileReader_8hpp.html" target="_top" xlink:title="Defines the class CSVFileReader and functions csvread for reading csv files.">
<polygon fill="white" stroke="black" points="475.5,-112.5 475.5,-131.5 579.5,-131.5 579.5,-112.5 475.5,-112.5"/>
<text text-anchor="middle" x="527.5" y="-119.5" font-family="Helvetica,sans-Serif" font-size="10.00">CSVFileReader.hpp</text>
</a>
</g>
</g>
<!-- Node1&#45;&gt;Node6 -->
<g id="edge5" class="edge"><title>Node1&#45;&gt;Node6</title>
<path fill="none" stroke="midnightblue" d="M575.342,-168.324C566.999,-160.42 554.468,-148.548 544.323,-138.938"/>
<polygon fill="midnightblue" stroke="midnightblue" points="546.491,-136.171 536.825,-131.834 541.677,-141.252 546.491,-136.171"/>
</g>
<!-- Node13 -->
<g id="node13" class="node"><title>Node13</title>
<g id="a_node13"><a xlink:title=" ">
<polygon fill="white" stroke="#bfbfbf" points="691.5,-56.5 691.5,-75.5 743.5,-75.5 743.5,-56.5 691.5,-56.5"/>
<text text-anchor="middle" x="717.5" y="-63.5" font-family="Helvetica,sans-Serif" font-size="10.00">memory</text>
</a>
</g>
</g>
<!-- Node1&#45;&gt;Node13 -->
<g id="edge18" class="edge"><title>Node1&#45;&gt;Node13</title>
<path fill="none" stroke="midnightblue" d="M594.936,-168.368C617.468,-149.733 670.911,-105.532 699.202,-82.1338"/>
<polygon fill="midnightblue" stroke="midnightblue" points="701.637,-84.6618 707.112,-75.5914 697.176,-79.2677 701.637,-84.6618"/>
</g>
<!-- Node16 -->
<g id="node16" class="node"><title>Node16</title>
<g id="a_node16"><a xlink:title=" ">
<polygon fill="white" stroke="#bfbfbf" points="762,-56.5 762,-75.5 803,-75.5 803,-56.5 762,-56.5"/>
<text text-anchor="middle" x="782.5" y="-63.5" font-family="Helvetica,sans-Serif" font-size="10.00">string</text>
</a>
</g>
</g>
<!-- Node1&#45;&gt;Node16 -->
<g id="edge19" class="edge"><title>Node1&#45;&gt;Node16</title>
<path fill="none" stroke="midnightblue" d="M600.037,-168.368C634.375,-149.292 716.94,-103.422 758.19,-80.5054"/>
<polygon fill="midnightblue" stroke="midnightblue" points="759.994,-83.5075 767.035,-75.5914 756.594,-77.3883 759.994,-83.5075"/>
</g>
<!-- Node3 -->
<g id="node3" class="node"><title>Node3</title>
<g id="a_node3"><a xlink:title=" ">
<polygon fill="white" stroke="#bfbfbf" points="101.5,-0.5 101.5,-19.5 169.5,-19.5 169.5,-0.5 101.5,-0.5"/>
<text text-anchor="middle" x="135.5" y="-7.5" font-family="Helvetica,sans-Serif" font-size="10.00">blitz/array.h</text>
</a>
</g>
</g>
<!-- Node2&#45;&gt;Node3 -->
<g id="edge2" class="edge"><title>Node2&#45;&gt;Node3</title>
<path fill="none" stroke="midnightblue" d="M96.2611,-56.083C103.037,-48.2982 113.043,-36.8015 121.255,-27.3665"/>
<polygon fill="midnightblue" stroke="midnightblue" points="123.958,-29.592 127.883,-19.7511 118.678,-24.9963 123.958,-29.592"/>
</g>
<!-- Node4 -->
<g id="node4" class="node"><title>Node4</title>
<g id="a_node4"><a xlink:title=" ">
<polygon fill="white" stroke="#bfbfbf" points="0,-0.5 0,-19.5 83,-19.5 83,-0.5 0,-0.5"/>
<text text-anchor="middle" x="41.5" y="-7.5" font-family="Helvetica,sans-Serif" font-size="10.00">unordered_map</text>
</a>
</g>
</g>
<!-- Node2&#45;&gt;Node4 -->
<g id="edge3" class="edge"><title>Node2&#45;&gt;Node4</title>
<path fill="none" stroke="midnightblue" d="M80.7389,-56.083C73.9632,-48.2982 63.9568,-36.8015 55.7449,-27.3665"/>
<polygon fill="midnightblue" stroke="midnightblue" points="58.322,-24.9963 49.1167,-19.7511 53.0419,-29.592 58.322,-24.9963"/>
</g>
<!-- Node5 -->
<g id="node5" class="node"><title>Node5</title>
<g id="a_node5"><a xlink:title=" ">
<polygon fill="white" stroke="#bfbfbf" points="368.5,-0.5 368.5,-19.5 412.5,-19.5 412.5,-0.5 368.5,-0.5"/>
<text text-anchor="middle" x="390.5" y="-7.5" font-family="Helvetica,sans-Serif" font-size="10.00">vector</text>
</a>
</g>
</g>
<!-- Node2&#45;&gt;Node5 -->
<g id="edge4" class="edge"><title>Node2&#45;&gt;Node5</title>
<path fill="none" stroke="midnightblue" d="M119.911,-57.773C122.81,-57.154 125.707,-56.5537 128.5,-56 210.955,-39.6539 308.703,-23.7889 358.245,-15.9945"/>
<polygon fill="midnightblue" stroke="midnightblue" points="359.009,-19.4176 368.347,-14.4122 357.926,-12.502 359.009,-19.4176"/>
</g>
<!-- Node6&#45;&gt;Node2 -->
<g id="edge9" class="edge"><title>Node6&#45;&gt;Node2</title>
<path fill="none" stroke="midnightblue" d="M475.28,-116.939C400.761,-110.741 259.472,-97.4999 129.975,-76.0898"/>
<polygon fill="midnightblue" stroke="midnightblue" points="130.32,-72.5989 119.879,-74.3998 129.164,-79.5029 130.32,-72.5989"/>
</g>
<!-- Node6&#45;&gt;Node5 -->
<g id="edge17" class="edge"><title>Node6&#45;&gt;Node5</title>
<path fill="none" stroke="midnightblue" d="M539.107,-112.346C554.999,-99.4486 579.998,-74.6975 565.5,-56 548.157,-33.6331 468.318,-20.44 422.701,-14.6007"/>
<polygon fill="midnightblue" stroke="midnightblue" points="423.063,-11.1189 412.71,-13.3692 422.207,-18.0664 423.063,-11.1189"/>
</g>
<!-- Node7 -->
<g id="node7" class="node"><title>Node7</title>
<g id="a_node7"><a xlink:href="Traits_8hpp.html" target="_top" xlink:title="Defines a basic set of traits for making compile&#45;time assertions about numeric types and iterators.">
<polygon fill="white" stroke="black" points="613.5,-56.5 613.5,-75.5 673.5,-75.5 673.5,-56.5 613.5,-56.5"/>
<text text-anchor="middle" x="643.5" y="-63.5" font-family="Helvetica,sans-Serif" font-size="10.00">Traits.hpp</text>
</a>
</g>
</g>
<!-- Node6&#45;&gt;Node7 -->
<g id="edge6" class="edge"><title>Node6&#45;&gt;Node7</title>
<path fill="none" stroke="midnightblue" d="M545.881,-112.444C564.716,-103.675 594.231,-89.9355 615.879,-79.8579"/>
<polygon fill="midnightblue" stroke="midnightblue" points="617.617,-82.9098 625.205,-75.5164 614.662,-76.5637 617.617,-82.9098"/>
</g>
<!-- Node10 -->
<g id="node10" class="node"><title>Node10</title>
<g id="a_node10"><a xlink:title=" ">
<polygon fill="white" stroke="#bfbfbf" points="138,-56.5 138,-75.5 267,-75.5 267,-56.5 138,-56.5"/>
<text text-anchor="middle" x="202.5" y="-63.5" font-family="Helvetica,sans-Serif" font-size="10.00">boost/algorithm/string.hpp</text>
</a>
</g>
</g>
<!-- Node6&#45;&gt;Node10 -->
<g id="edge10" class="edge"><title>Node6&#45;&gt;Node10</title>
<path fill="none" stroke="midnightblue" d="M476.003,-112.444C418.356,-102.865 325.01,-87.3556 263.688,-77.1667"/>
<polygon fill="midnightblue" stroke="midnightblue" points="264.195,-73.7029 253.756,-75.5164 263.047,-80.6082 264.195,-73.7029"/>
</g>
<!-- Node11 -->
<g id="node11" class="node"><title>Node11</title>
<g id="a_node11"><a xlink:title=" ">
<polygon fill="white" stroke="#bfbfbf" points="285.5,-56.5 285.5,-75.5 341.5,-75.5 341.5,-56.5 285.5,-56.5"/>
<text text-anchor="middle" x="313.5" y="-63.5" font-family="Helvetica,sans-Serif" font-size="10.00">algorithm</text>
</a>
</g>
</g>
<!-- Node6&#45;&gt;Node11 -->
<g id="edge11" class="edge"><title>Node6&#45;&gt;Node11</title>
<path fill="none" stroke="midnightblue" d="M493.591,-112.444C454.912,-102.683 391.825,-86.7643 351.513,-76.5919"/>
<polygon fill="midnightblue" stroke="midnightblue" points="352.335,-73.1899 341.783,-74.1368 350.623,-79.9772 352.335,-73.1899"/>
</g>
<!-- Node12 -->
<g id="node12" class="node"><title>Node12</title>
<g id="a_node12"><a xlink:title=" ">
<polygon fill="white" stroke="#bfbfbf" points="359.5,-56.5 359.5,-75.5 409.5,-75.5 409.5,-56.5 359.5,-56.5"/>
<text text-anchor="middle" x="384.5" y="-63.5" font-family="Helvetica,sans-Serif" font-size="10.00">fstream</text>
</a>
</g>
</g>
<!-- Node6&#45;&gt;Node12 -->
<g id="edge12" class="edge"><title>Node6&#45;&gt;Node12</title>
<path fill="none" stroke="midnightblue" d="M504.841,-112.444C481.098,-103.478 443.591,-89.314 416.762,-79.1827"/>
<polygon fill="midnightblue" stroke="midnightblue" points="417.644,-75.7749 407.053,-75.5164 415.171,-82.3235 417.644,-75.7749"/>
</g>
<!-- Node6&#45;&gt;Node13 -->
<g id="edge13" class="edge"><title>Node6&#45;&gt;Node13</title>
<path fill="none" stroke="midnightblue" d="M557.606,-112.444C591.13,-102.916 645.305,-87.5187 681.161,-77.328"/>
<polygon fill="midnightblue" stroke="midnightblue" points="682.544,-80.5736 691.206,-74.473 680.63,-73.8403 682.544,-80.5736"/>
</g>
<!-- Node14 -->
<g id="node14" class="node"><title>Node14</title>
<g id="a_node14"><a xlink:title=" ">
<polygon fill="white" stroke="#bfbfbf" points="427.5,-56.5 427.5,-75.5 479.5,-75.5 479.5,-56.5 427.5,-56.5"/>
<text text-anchor="middle" x="453.5" y="-63.5" font-family="Helvetica,sans-Serif" font-size="10.00">sstream</text>
</a>
</g>
</g>
<!-- Node6&#45;&gt;Node14 -->
<g id="edge14" class="edge"><title>Node6&#45;&gt;Node14</title>
<path fill="none" stroke="midnightblue" d="M515.611,-112.324C504.35,-104.107 487.213,-91.6017 473.791,-81.8069"/>
<polygon fill="midnightblue" stroke="midnightblue" points="475.747,-78.9014 465.606,-75.8339 471.62,-84.5559 475.747,-78.9014"/>
</g>
<!-- Node15 -->
<g id="node15" class="node"><title>Node15</title>
<g id="a_node15"><a xlink:title=" ">
<polygon fill="white" stroke="#bfbfbf" points="498,-56.5 498,-75.5 557,-75.5 557,-56.5 498,-56.5"/>
<text text-anchor="middle" x="527.5" y="-63.5" font-family="Helvetica,sans-Serif" font-size="10.00">stdexcept</text>
</a>
</g>
</g>
<!-- Node6&#45;&gt;Node15 -->
<g id="edge15" class="edge"><title>Node6&#45;&gt;Node15</title>
<path fill="none" stroke="midnightblue" d="M527.5,-112.083C527.5,-105.006 527.5,-94.8611 527.5,-85.9865"/>
<polygon fill="midnightblue" stroke="midnightblue" points="531,-85.751 527.5,-75.7511 524,-85.7511 531,-85.751"/>
</g>
<!-- Node6&#45;&gt;Node16 -->
<g id="edge16" class="edge"><title>Node6&#45;&gt;Node16</title>
<path fill="none" stroke="midnightblue" d="M576.956,-112.491C620.597,-104.672 686.094,-92.1823 752.164,-75.8856"/>
<polygon fill="midnightblue" stroke="midnightblue" points="753.058,-79.27 761.914,-73.4537 751.364,-72.4781 753.058,-79.27"/>
</g>
<!-- Node8 -->
<g id="node8" class="node"><title>Node8</title>
<g id="a_node8"><a xlink:title=" ">
<polygon fill="white" stroke="#bfbfbf" points="656,-0.5 656,-19.5 703,-19.5 703,-0.5 656,-0.5"/>
<text text-anchor="middle" x="679.5" y="-7.5" font-family="Helvetica,sans-Serif" font-size="10.00">iterator</text>
</a>
</g>
</g>
<!-- Node7&#45;&gt;Node8 -->
<g id="edge7" class="edge"><title>Node7&#45;&gt;Node8</title>
<path fill="none" stroke="midnightblue" d="M649.445,-56.083C654.477,-48.5341 661.837,-37.4948 668.013,-28.2298"/>
<polygon fill="midnightblue" stroke="midnightblue" points="671.031,-30.0131 673.666,-19.7511 665.207,-26.1301 671.031,-30.0131"/>
</g>
<!-- Node9 -->
<g id="node9" class="node"><title>Node9</title>
<g id="a_node9"><a xlink:title=" ">
<polygon fill="white" stroke="#bfbfbf" points="575.5,-0.5 575.5,-19.5 637.5,-19.5 637.5,-0.5 575.5,-0.5"/>
<text text-anchor="middle" x="606.5" y="-7.5" font-family="Helvetica,sans-Serif" font-size="10.00">type_traits</text>
</a>
</g>
</g>
<!-- Node7&#45;&gt;Node9 -->
<g id="edge8" class="edge"><title>Node7&#45;&gt;Node9</title>
<path fill="none" stroke="midnightblue" d="M637.39,-56.083C632.218,-48.5341 624.654,-37.4948 618.306,-28.2298"/>
<polygon fill="midnightblue" stroke="midnightblue" points="621.036,-26.0221 612.496,-19.7511 615.261,-29.9787 621.036,-26.0221"/>
</g>
</g>
</svg>
