<?xml version="1.0" encoding="UTF-8" standalone="no"?>
<!DOCTYPE svg PUBLIC "-//W3C//DTD SVG 1.1//EN"
 "http://www.w3.org/Graphics/SVG/1.1/DTD/svg11.dtd">
<!-- Generated by graphviz version 2.38.0 (20140413.2041)
 -->
<!-- Title: include/Nodes1DProvisioner.hpp Pages: 1 -->
<!--zoomable 308 -->
<svg id="main" version="1.1" xmlns="http://www.w3.org/2000/svg" xmlns:xlink="http://www.w3.org/1999/xlink" xml:space="preserve" onload="init(evt)">
<style type="text/css"><![CDATA[
.edge:hover path { stroke: red; }
.edge:hover polygon { stroke: red; fill: red; }
]]></style>
<script type="text/javascript"><![CDATA[
var edges = document.getElementsByTagName('g');
if (edges && edges.length) {
  for (var i=0;i<edges.length;i++) {
    if (edges[i].id.substr(0,4)=='edge') {
      edges[i].setAttribute('class','edge');
    }
  }
}
]]></script>
        <defs>
                <circle id="rim" cx="0" cy="0" r="7"/>
                <circle id="rim2" cx="0" cy="0" r="3.5"/>
                <g id="zoomPlus">
                        <use xlink:href="#rim" fill="#404040">
                                <set attributeName="fill" to="#808080" begin="zoomplus.mouseover" end="zoomplus.mouseout"/>
                        </use>
                        <path d="M-4,0h8M0,-4v8" fill="none" stroke="white" stroke-width="1.5" pointer-events="none"/>
                </g>
                <g id="zoomMin">
                        <use xlink:href="#rim" fill="#404040">
                                <set attributeName="fill" to="#808080" begin="zoomminus.mouseover" end="zoomminus.mouseout"/>
                        </use>
                        <path d="M-4,0h8" fill="none" stroke="white" stroke-width="1.5" pointer-events="none"/>
                </g>
                <g id="dirArrow">
                        <path fill="none" stroke="white" stroke-width="1.5" d="M0,-3.0v7 M-2.5,-0.5L0,-3.0L2.5,-0.5"/>
                </g>
               <g id="resetDef">
                       <use xlink:href="#rim2" fill="#404040">
                               <set attributeName="fill" to="#808080" begin="reset.mouseover" end="reset.mouseout"/>
                       </use>
               </g>
        </defs>

<script type="text/javascript">
var viewWidth = 503;
var viewHeight = 308;
var sectionId = 'dynsection-0';
</script>
<script xlink:href="svgpan.js"/>
<svg id="graph" class="graph">
<g id="viewport">
<title>include/Nodes1DProvisioner.hpp</title>
<polygon fill="white" stroke="none" points="-4,4 -4,-304 498.774,-304 498.774,4 -4,4"/>
<!-- Node1 -->
<g id="node1" class="node"><title>Node1</title>
<g id="a_node1"><a xlink:title="Defines a class for computations related to the construction of one&#45;dimensional nodes,...">
<polygon fill="#bfbfbf" stroke="black" points="122.274,-280.5 122.274,-299.5 281.274,-299.5 281.274,-280.5 122.274,-280.5"/>
<text text-anchor="middle" x="201.774" y="-287.5" font-family="Helvetica,sans-Serif" font-size="10.00">include/Nodes1DProvisioner.hpp</text>
</a>
</g>
</g>
<!-- Node2 -->
<g id="node2" class="node"><title>Node2</title>
<g id="a_node2"><a xlink:href="DirectSolver_8hpp.html" target="_top" xlink:title="Defines the DirectSolver class that implements LAPACK direct solution routine DSGESV....">
<polygon fill="white" stroke="black" points="16.2744,-168.5 16.2744,-187.5 105.274,-187.5 105.274,-168.5 16.2744,-168.5"/>
<text text-anchor="middle" x="60.7744" y="-175.5" font-family="Helvetica,sans-Serif" font-size="10.00">DirectSolver.hpp</text>
</a>
</g>
</g>
<!-- Node1&#45;&gt;Node2 -->
<g id="edge1" class="edge"><title>Node1&#45;&gt;Node2</title>
<path fill="none" stroke="midnightblue" d="M190.71,-280.368C166.721,-261.653 109.677,-217.151 79.7869,-193.832"/>
<polygon fill="midnightblue" stroke="midnightblue" points="81.8244,-190.983 71.7871,-187.591 77.5187,-196.502 81.8244,-190.983"/>
</g>
<!-- Node3 -->
<g id="node3" class="node"><title>Node3</title>
<g id="a_node3"><a xlink:href="Types_8hpp.html" target="_top" xlink:title="Defines the basic types used throughout this project.">
<polygon fill="white" stroke="black" points="108.774,-56.5 108.774,-75.5 170.774,-75.5 170.774,-56.5 108.774,-56.5"/>
<text text-anchor="middle" x="139.774" y="-63.5" font-family="Helvetica,sans-Serif" font-size="10.00">Types.hpp</text>
</a>
</g>
</g>
<!-- Node1&#45;&gt;Node3 -->
<g id="edge17" class="edge"><title>Node1&#45;&gt;Node3</title>
<path fill="none" stroke="midnightblue" d="M159.028,-280.487C112.318,-268.651 39.7496,-242.243 6.77443,-188 -22.7322,-139.463 56.9034,-98.7928 105.433,-79.3285"/>
<polygon fill="midnightblue" stroke="midnightblue" points="106.927,-82.5029 114.974,-75.6119 104.386,-75.9802 106.927,-82.5029"/>
</g>
<!-- Node7 -->
<g id="node7" class="node"><title>Node7</title>
<g id="a_node7"><a xlink:href="JacobiBuilders_8hpp.html" target="_top" xlink:title="Defines the JacobiBuilders class that constructs Jacobi polynomials, their derivatives,...">
<polygon fill="white" stroke="black" points="123.274,-168.5 123.274,-187.5 222.274,-187.5 222.274,-168.5 123.274,-168.5"/>
<text text-anchor="middle" x="172.774" y="-175.5" font-family="Helvetica,sans-Serif" font-size="10.00">JacobiBuilders.hpp</text>
</a>
</g>
</g>
<!-- Node1&#45;&gt;Node7 -->
<g id="edge6" class="edge"><title>Node1&#45;&gt;Node7</title>
<path fill="none" stroke="midnightblue" d="M194.409,-280.397C187.58,-271.82 177.876,-257.948 173.774,-244 169.342,-228.926 169.435,-211.024 170.442,-197.828"/>
<polygon fill="midnightblue" stroke="midnightblue" points="173.949,-197.933 171.471,-187.632 166.984,-197.229 173.949,-197.933"/>
</g>
<!-- Node9 -->
<g id="node9" class="node"><title>Node9</title>
<g id="a_node9"><a xlink:href="VandermondeBuilders_8hpp.html" target="_top" xlink:title="Defines a class for computating the generalized Vandermonde, its gradient, and its inverse for 1D ort...">
<polygon fill="white" stroke="black" points="183.274,-224.5 183.274,-243.5 314.274,-243.5 314.274,-224.5 183.274,-224.5"/>
<text text-anchor="middle" x="248.774" y="-231.5" font-family="Helvetica,sans-Serif" font-size="10.00">VandermondeBuilders.hpp</text>
</a>
</g>
</g>
<!-- Node1&#45;&gt;Node9 -->
<g id="edge10" class="edge"><title>Node1&#45;&gt;Node9</title>
<path fill="none" stroke="midnightblue" d="M209.536,-280.083C216.311,-272.298 226.318,-260.801 234.529,-251.367"/>
<polygon fill="midnightblue" stroke="midnightblue" points="237.233,-253.592 241.158,-243.751 231.952,-248.996 237.233,-253.592"/>
</g>
<!-- Node11 -->
<g id="node11" class="node"><title>Node11</title>
<g id="a_node11"><a xlink:title=" ">
<polygon fill="white" stroke="#bfbfbf" points="316.774,-168.5 316.774,-187.5 368.774,-187.5 368.774,-168.5 316.774,-168.5"/>
<text text-anchor="middle" x="342.774" y="-175.5" font-family="Helvetica,sans-Serif" font-size="10.00">memory</text>
</a>
</g>
</g>
<!-- Node1&#45;&gt;Node11 -->
<g id="edge18" class="edge"><title>Node1&#45;&gt;Node11</title>
<path fill="none" stroke="midnightblue" d="M254.133,-280.471C277.952,-274.106 304.773,-263.068 322.774,-244 334.542,-231.535 339.395,-212.302 341.391,-197.987"/>
<polygon fill="midnightblue" stroke="midnightblue" points="344.899,-198.094 342.457,-187.784 337.937,-197.366 344.899,-198.094"/>
</g>
<!-- Node12 -->
<g id="node12" class="node"><title>Node12</title>
<g id="a_node12"><a xlink:title=" ">
<polygon fill="white" stroke="#bfbfbf" points="370.774,-224.5 370.774,-243.5 494.774,-243.5 494.774,-224.5 370.774,-224.5"/>
<text text-anchor="middle" x="432.774" y="-231.5" font-family="Helvetica,sans-Serif" font-size="10.00">boost/python/numpy.hpp</text>
</a>
</g>
</g>
<!-- Node1&#45;&gt;Node12 -->
<g id="edge19" class="edge"><title>Node1&#45;&gt;Node12</title>
<path fill="none" stroke="midnightblue" d="M238.377,-280.444C278.505,-271.063 342.973,-255.993 386.559,-245.804"/>
<polygon fill="midnightblue" stroke="midnightblue" points="387.402,-249.201 396.343,-243.516 385.809,-242.385 387.402,-249.201"/>
</g>
<!-- Node2&#45;&gt;Node3 -->
<g id="edge2" class="edge"><title>Node2&#45;&gt;Node3</title>
<path fill="none" stroke="midnightblue" d="M66.9734,-168.368C80.0107,-150.215 110.472,-107.802 127.572,-83.9902"/>
<polygon fill="midnightblue" stroke="midnightblue" points="130.614,-85.7555 133.604,-75.5914 124.928,-81.6721 130.614,-85.7555"/>
</g>
<!-- Node4 -->
<g id="node4" class="node"><title>Node4</title>
<g id="a_node4"><a xlink:title=" ">
<polygon fill="white" stroke="#bfbfbf" points="11.7744,-0.5 11.7744,-19.5 79.7744,-19.5 79.7744,-0.5 11.7744,-0.5"/>
<text text-anchor="middle" x="45.7744" y="-7.5" font-family="Helvetica,sans-Serif" font-size="10.00">blitz/array.h</text>
</a>
</g>
</g>
<!-- Node3&#45;&gt;Node4 -->
<g id="edge3" class="edge"><title>Node3&#45;&gt;Node4</title>
<path fill="none" stroke="midnightblue" d="M124.672,-56.324C109.871,-47.8215 87.0802,-34.7288 69.7923,-24.7975"/>
<polygon fill="midnightblue" stroke="midnightblue" points="71.2542,-21.6009 60.8397,-19.6545 67.7673,-27.6707 71.2542,-21.6009"/>
</g>
<!-- Node5 -->
<g id="node5" class="node"><title>Node5</title>
<g id="a_node5"><a xlink:title=" ">
<polygon fill="white" stroke="#bfbfbf" points="98.2744,-0.5 98.2744,-19.5 181.274,-19.5 181.274,-0.5 98.2744,-0.5"/>
<text text-anchor="middle" x="139.774" y="-7.5" font-family="Helvetica,sans-Serif" font-size="10.00">unordered_map</text>
</a>
</g>
</g>
<!-- Node3&#45;&gt;Node5 -->
<g id="edge4" class="edge"><title>Node3&#45;&gt;Node5</title>
<path fill="none" stroke="midnightblue" d="M139.774,-56.083C139.774,-49.0059 139.774,-38.8611 139.774,-29.9865"/>
<polygon fill="midnightblue" stroke="midnightblue" points="143.275,-29.751 139.774,-19.7511 136.275,-29.7511 143.275,-29.751"/>
</g>
<!-- Node6 -->
<g id="node6" class="node"><title>Node6</title>
<g id="a_node6"><a xlink:title=" ">
<polygon fill="white" stroke="#bfbfbf" points="199.774,-0.5 199.774,-19.5 243.774,-19.5 243.774,-0.5 199.774,-0.5"/>
<text text-anchor="middle" x="221.774" y="-7.5" font-family="Helvetica,sans-Serif" font-size="10.00">vector</text>
</a>
</g>
</g>
<!-- Node3&#45;&gt;Node6 -->
<g id="edge5" class="edge"><title>Node3&#45;&gt;Node6</title>
<path fill="none" stroke="midnightblue" d="M152.949,-56.324C165.621,-47.979 185.008,-35.2122 199.98,-25.3524"/>
<polygon fill="midnightblue" stroke="midnightblue" points="202.206,-28.0776 208.632,-19.6545 198.356,-22.2313 202.206,-28.0776"/>
</g>
<!-- Node7&#45;&gt;Node3 -->
<g id="edge9" class="edge"><title>Node7&#45;&gt;Node3</title>
<path fill="none" stroke="midnightblue" d="M157.822,-168.474C145.843,-160.702 129.901,-148.002 122.774,-132 115.968,-116.716 122.126,-98.1535 128.857,-84.7844"/>
<polygon fill="midnightblue" stroke="midnightblue" points="132.101,-86.1528 133.911,-75.7137 125.986,-82.7457 132.101,-86.1528"/>
</g>
<!-- Node8 -->
<g id="node8" class="node"><title>Node8</title>
<g id="a_node8"><a xlink:href="EigenSolver_8hpp.html" target="_top" xlink:title="Defines the EigenSolver class that implements LAPACK solution routine DSYEVD. For symmetric matrices ...">
<polygon fill="white" stroke="black" points="131.774,-112.5 131.774,-131.5 219.774,-131.5 219.774,-112.5 131.774,-112.5"/>
<text text-anchor="middle" x="175.774" y="-119.5" font-family="Helvetica,sans-Serif" font-size="10.00">EigenSolver.hpp</text>
</a>
</g>
</g>
<!-- Node7&#45;&gt;Node8 -->
<g id="edge7" class="edge"><title>Node7&#45;&gt;Node8</title>
<path fill="none" stroke="midnightblue" d="M173.27,-168.083C173.663,-161.006 174.227,-150.861 174.72,-141.986"/>
<polygon fill="midnightblue" stroke="midnightblue" points="178.228,-141.93 175.288,-131.751 171.239,-141.542 178.228,-141.93"/>
</g>
<!-- Node8&#45;&gt;Node3 -->
<g id="edge8" class="edge"><title>Node8&#45;&gt;Node3</title>
<path fill="none" stroke="midnightblue" d="M169.83,-112.083C164.797,-104.534 157.438,-93.4948 151.261,-84.2298"/>
<polygon fill="midnightblue" stroke="midnightblue" points="154.068,-82.1301 145.608,-75.7511 148.243,-86.0131 154.068,-82.1301"/>
</g>
<!-- Node9&#45;&gt;Node2 -->
<g id="edge11" class="edge"><title>Node9&#45;&gt;Node2</title>
<path fill="none" stroke="midnightblue" d="M218.985,-224.444C186.945,-215.241 135.841,-200.562 100.421,-190.388"/>
<polygon fill="midnightblue" stroke="midnightblue" points="101.002,-186.913 90.4242,-187.516 99.0693,-193.641 101.002,-186.913"/>
</g>
<!-- Node9&#45;&gt;Node3 -->
<g id="edge15" class="edge"><title>Node9&#45;&gt;Node3</title>
<path fill="none" stroke="midnightblue" d="M249.816,-224.385C251.917,-203.061 254.478,-147.014 228.774,-112 217.017,-95.9841 197.918,-85.2847 180.422,-78.3537"/>
<polygon fill="midnightblue" stroke="midnightblue" points="181.517,-75.0275 170.923,-74.8809 179.113,-81.6019 181.517,-75.0275"/>
</g>
<!-- Node9&#45;&gt;Node7 -->
<g id="edge12" class="edge"><title>Node9&#45;&gt;Node7</title>
<path fill="none" stroke="midnightblue" d="M236.564,-224.324C224.999,-216.107 207.399,-203.602 193.614,-193.807"/>
<polygon fill="midnightblue" stroke="midnightblue" points="195.386,-190.773 185.207,-187.834 191.332,-196.479 195.386,-190.773"/>
</g>
<!-- Node10 -->
<g id="node10" class="node"><title>Node10</title>
<g id="a_node10"><a xlink:href="DenseMatrixInverter_8hpp.html" target="_top" xlink:title="Defines the DenseMatrixInverter class that computes the explicit inverse of a dense matrix via the LA...">
<polygon fill="white" stroke="black" points="278.774,-112.5 278.774,-131.5 402.774,-131.5 402.774,-112.5 278.774,-112.5"/>
<text text-anchor="middle" x="340.774" y="-119.5" font-family="Helvetica,sans-Serif" font-size="10.00">DenseMatrixInverter.hpp</text>
</a>
</g>
</g>
<!-- Node9&#45;&gt;Node10 -->
<g id="edge13" class="edge"><title>Node9&#45;&gt;Node10</title>
<path fill="none" stroke="midnightblue" d="M255.994,-224.368C271.311,-206.055 307.279,-163.049 327.089,-139.362"/>
<polygon fill="midnightblue" stroke="midnightblue" points="329.858,-141.508 333.589,-131.591 324.489,-137.017 329.858,-141.508"/>
</g>
<!-- Node9&#45;&gt;Node11 -->
<g id="edge16" class="edge"><title>Node9&#45;&gt;Node11</title>
<path fill="none" stroke="midnightblue" d="M263.877,-224.324C278.678,-215.822 301.469,-202.729 318.757,-192.797"/>
<polygon fill="midnightblue" stroke="midnightblue" points="320.782,-195.671 327.709,-187.655 317.295,-189.601 320.782,-195.671"/>
</g>
<!-- Node10&#45;&gt;Node3 -->
<g id="edge14" class="edge"><title>Node10&#45;&gt;Node3</title>
<path fill="none" stroke="midnightblue" d="M308.925,-112.444C274.173,-103.107 218.441,-88.1343 180.524,-77.9478"/>
<polygon fill="midnightblue" stroke="midnightblue" points="181.38,-74.5535 170.814,-75.339 179.563,-81.3138 181.38,-74.5535"/>
</g>
</g>
</svg>
        <g id="navigator" transform="translate(0 0)" fill="#404254">
                <rect fill="#f2f5e9" fill-opacity="0.5" stroke="#606060" stroke-width=".5" x="0" y="0" width="60" height="60"/>
                <use id="zoomplus" xlink:href="#zoomPlus" x="17" y="9" onmousedown="handleZoom(evt,'in')"/>
                <use id="zoomminus" xlink:href="#zoomMin" x="42" y="9" onmousedown="handleZoom(evt,'out')"/>
                <use id="reset" xlink:href="#resetDef" x="30" y="36" onmousedown="handleReset()"/>
                <g id="arrowUp" xlink:href="#dirArrow" transform="translate(30 24)" onmousedown="handlePan(0,-1)">
                  <use xlink:href="#rim" fill="#404040">
                        <set attributeName="fill" to="#808080" begin="arrowUp.mouseover" end="arrowUp.mouseout"/>
                  </use>
                  <path fill="none" stroke="white" stroke-width="1.5" d="M0,-3.0v7 M-2.5,-0.5L0,-3.0L2.5,-0.5"/>
                </g>
                <g id="arrowRight" xlink:href="#dirArrow" transform="rotate(90) translate(36 -43)" onmousedown="handlePan(1,0)">
                  <use xlink:href="#rim" fill="#404040">
                        <set attributeName="fill" to="#808080" begin="arrowRight.mouseover" end="arrowRight.mouseout"/>
                  </use>
                  <path fill="none" stroke="white" stroke-width="1.5" d="M0,-3.0v7 M-2.5,-0.5L0,-3.0L2.5,-0.5"/>
                </g>
                <g id="arrowDown" xlink:href="#dirArrow" transform="rotate(180) translate(-30 -48)" onmousedown="handlePan(0,1)">
                  <use xlink:href="#rim" fill="#404040">
                        <set attributeName="fill" to="#808080" begin="arrowDown.mouseover" end="arrowDown.mouseout"/>
                  </use>
                  <path fill="none" stroke="white" stroke-width="1.5" d="M0,-3.0v7 M-2.5,-0.5L0,-3.0L2.5,-0.5"/>
                </g>
                <g id="arrowLeft" xlink:href="#dirArrow" transform="rotate(270) translate(-36 17)" onmousedown="handlePan(-1,0)">
                  <use xlink:href="#rim" fill="#404040">
                        <set attributeName="fill" to="#808080" begin="arrowLeft.mouseover" end="arrowLeft.mouseout"/>
                  </use>
                  <path fill="none" stroke="white" stroke-width="1.5" d="M0,-3.0v7 M-2.5,-0.5L0,-3.0L2.5,-0.5"/>
                </g>
        </g>
        <svg viewBox="0 0 15 15" width="100%" height="30px" preserveAspectRatio="xMaxYMin meet">
         <g id="arrow_out" transform="scale(0.3 0.3)">
          <a xlink:href="Nodes1DProvisioner_8hpp__incl_org.svg" target="_base">
           <rect id="button" ry="5" rx="5" y="6" x="6" height="38" width="38"
                fill="#f2f5e9" fill-opacity="0.5" stroke="#606060" stroke-width="1.0"/>
           <path id="arrow"
             d="M 11.500037,31.436501 C 11.940474,20.09759 22.043105,11.32322 32.158766,21.979434 L 37.068811,17.246167 C 37.068811,17.246167 37.088388,32 37.088388,32 L 22.160133,31.978069 C 22.160133,31.978069 26.997745,27.140456 26.997745,27.140456 C 18.528582,18.264221 13.291696,25.230495 11.500037,31.436501 z"
             style="fill:#404040;"/>
          </a>
         </g>
        </svg>
</svg>
