<?xml version="1.0" encoding="UTF-8" standalone="no"?>
<!DOCTYPE svg PUBLIC "-//W3C//DTD SVG 1.1//EN"
 "http://www.w3.org/Graphics/SVG/1.1/DTD/svg11.dtd">
<!-- Generated by graphviz version 2.38.0 (20140413.2041)
 -->
<!-- Title: include/Nodes1DProvisioner.hpp Pages: 1 -->
<!--zoomable 196 -->
<svg id="main" version="1.1" xmlns="http://www.w3.org/2000/svg" xmlns:xlink="http://www.w3.org/1999/xlink" xml:space="preserve" onload="init(evt)">
<style type="text/css"><![CDATA[
.edge:hover path { stroke: red; }
.edge:hover polygon { stroke: red; fill: red; }
]]></style>
<script type="text/javascript"><![CDATA[
var edges = document.getElementsByTagName('g');
if (edges && edges.length) {
  for (var i=0;i<edges.length;i++) {
    if (edges[i].id.substr(0,4)=='edge') {
      edges[i].setAttribute('class','edge');
    }
  }
}
]]></script>
        <defs>
                <circle id="rim" cx="0" cy="0" r="7"/>
                <circle id="rim2" cx="0" cy="0" r="3.5"/>
                <g id="zoomPlus">
                        <use xlink:href="#rim" fill="#404040">
                                <set attributeName="fill" to="#808080" begin="zoomplus.mouseover" end="zoomplus.mouseout"/>
                        </use>
                        <path d="M-4,0h8M0,-4v8" fill="none" stroke="white" stroke-width="1.5" pointer-events="none"/>
                </g>
                <g id="zoomMin">
                        <use xlink:href="#rim" fill="#404040">
                                <set attributeName="fill" to="#808080" begin="zoomminus.mouseover" end="zoomminus.mouseout"/>
                        </use>
                        <path d="M-4,0h8" fill="none" stroke="white" stroke-width="1.5" pointer-events="none"/>
                </g>
                <g id="dirArrow">
                        <path fill="none" stroke="white" stroke-width="1.5" d="M0,-3.0v7 M-2.5,-0.5L0,-3.0L2.5,-0.5"/>
                </g>
               <g id="resetDef">
                       <use xlink:href="#rim2" fill="#404040">
                               <set attributeName="fill" to="#808080" begin="reset.mouseover" end="reset.mouseout"/>
                       </use>
               </g>
        </defs>

<script type="text/javascript">
var viewWidth = 1068;
var viewHeight = 196;
var sectionId = 'dynsection-1';
</script>
<script xlink:href="svgpan.js"/>
<svg id="graph" class="graph">
<g id="viewport">
<title>include/Nodes1DProvisioner.hpp</title>
<polygon fill="white" stroke="none" points="-4,4 -4,-192 1063.5,-192 1063.5,4 -4,4"/>
<!-- Node1 -->
<g id="node1" class="node"><title>Node1</title>
<g id="a_node1"><a xlink:title="Defines a class for computations related to the construction of one&#45;dimensional nodes,...">
<polygon fill="#bfbfbf" stroke="black" points="630.5,-168.5 630.5,-187.5 789.5,-187.5 789.5,-168.5 630.5,-168.5"/>
<text text-anchor="middle" x="710" y="-175.5" font-family="Helvetica,sans-Serif" font-size="10.00">include/Nodes1DProvisioner.hpp</text>
</a>
</g>
</g>
<!-- Node2 -->
<g id="node2" class="node"><title>Node2</title>
<g id="a_node2"><a xlink:href="TriangleNodesProvisioner_8hpp.html" target="_top" xlink:title="Defines the TriangleNodesProvisioner class that provides a construction of 2D nodal points on the tri...">
<polygon fill="white" stroke="black" points="172.5,-112.5 172.5,-131.5 353.5,-131.5 353.5,-112.5 172.5,-112.5"/>
<text text-anchor="middle" x="263" y="-119.5" font-family="Helvetica,sans-Serif" font-size="10.00">include/TriangleNodesProvisioner.hpp</text>
</a>
</g>
</g>
<!-- Node1&#45;&gt;Node2 -->
<g id="edge1" class="edge"><title>Node1&#45;&gt;Node2</title>
<path fill="none" stroke="midnightblue" d="M629.119,-167.229C544.742,-157.036 413.788,-141.216 333.497,-131.516"/>
<polygon fill="midnightblue" stroke="midnightblue" points="628.824,-170.719 639.172,-168.444 629.663,-163.769 628.824,-170.719"/>
</g>
<!-- Node5 -->
<g id="node5" class="node"><title>Node5</title>
<g id="a_node5"><a xlink:href="pyblitzdg_8cpp.html" target="_top" xlink:title="Python bindings for blitzdg&#39;s public API.">
<polygon fill="white" stroke="black" points="156.5,-0.5 156.5,-19.5 289.5,-19.5 289.5,-0.5 156.5,-0.5"/>
<text text-anchor="middle" x="223" y="-7.5" font-family="Helvetica,sans-Serif" font-size="10.00">src/pyblitzdg/pyblitzdg.cpp</text>
</a>
</g>
</g>
<!-- Node1&#45;&gt;Node5 -->
<g id="edge14" class="edge"><title>Node1&#45;&gt;Node5</title>
<path fill="none" stroke="midnightblue" d="M630.971,-166.039C605.851,-159.449 579.341,-148.896 559,-132 529.796,-107.741 550.821,-78.1681 520,-56 484.119,-30.1928 365.551,-18.8325 289.521,-14.1018"/>
<polygon fill="midnightblue" stroke="midnightblue" points="630.338,-169.487 640.883,-168.46 631.999,-162.687 630.338,-169.487"/>
</g>
<!-- Node8 -->
<g id="node8" class="node"><title>Node8</title>
<g id="a_node8"><a xlink:href="Advec1d_8hpp.html" target="_top" xlink:title="Short header file for 1D advection solver&#39;s main.cpp file.">
<polygon fill="white" stroke="black" points="568,-112.5 568,-131.5 698,-131.5 698,-112.5 568,-112.5"/>
<text text-anchor="middle" x="633" y="-119.5" font-family="Helvetica,sans-Serif" font-size="10.00">src/advec1d/Advec1d.hpp</text>
</a>
</g>
</g>
<!-- Node1&#45;&gt;Node8 -->
<g id="edge9" class="edge"><title>Node1&#45;&gt;Node8</title>
<path fill="none" stroke="midnightblue" d="M689.099,-162.342C675.089,-152.517 657.117,-139.913 645.341,-131.655"/>
<polygon fill="midnightblue" stroke="midnightblue" points="687.432,-165.448 697.629,-168.324 691.451,-159.717 687.432,-165.448"/>
</g>
<!-- Node9 -->
<g id="node9" class="node"><title>Node9</title>
<g id="a_node9"><a xlink:href="Burgers1d_8hpp.html" target="_top" xlink:title="Short header file for 1D Burger&#39;s solver&#39;s main.cpp file.">
<polygon fill="white" stroke="black" points="716,-112.5 716,-131.5 858,-131.5 858,-112.5 716,-112.5"/>
<text text-anchor="middle" x="787" y="-119.5" font-family="Helvetica,sans-Serif" font-size="10.00">src/burgers1d/Burgers1d.hpp</text>
</a>
</g>
</g>
<!-- Node1&#45;&gt;Node9 -->
<g id="edge10" class="edge"><title>Node1&#45;&gt;Node9</title>
<path fill="none" stroke="midnightblue" d="M730.901,-162.342C744.911,-152.517 762.883,-139.913 774.659,-131.655"/>
<polygon fill="midnightblue" stroke="midnightblue" points="728.549,-159.717 722.371,-168.324 732.568,-165.448 728.549,-159.717"/>
</g>
<!-- Node10 -->
<g id="node10" class="node"><title>Node10</title>
<g id="a_node10"><a xlink:href="poisson1d_2main_8cpp.html" target="_top" xlink:title=" ">
<polygon fill="white" stroke="black" points="876,-56.5 876,-75.5 996,-75.5 996,-56.5 876,-56.5"/>
<text text-anchor="middle" x="936" y="-63.5" font-family="Helvetica,sans-Serif" font-size="10.00">src/poisson1d/main.cpp</text>
</a>
</g>
</g>
<!-- Node1&#45;&gt;Node10 -->
<g id="edge11" class="edge"><title>Node1&#45;&gt;Node10</title>
<path fill="none" stroke="midnightblue" d="M772.562,-166.241C802.476,-159.345 837.995,-148.505 867,-132 893.605,-116.861 917.974,-89.4076 929.312,-75.5262"/>
<polygon fill="midnightblue" stroke="midnightblue" points="771.659,-162.856 762.65,-168.431 773.169,-169.691 771.659,-162.856"/>
</g>
<!-- Node11 -->
<g id="node11" class="node"><title>Node11</title>
<g id="a_node11"><a xlink:href="Poisson1d_8hpp.html" target="_top" xlink:title="Short header file for 1D Poisson solver&#39;s main.cpp file.">
<polygon fill="white" stroke="black" points="914.5,-112.5 914.5,-131.5 1059.5,-131.5 1059.5,-112.5 914.5,-112.5"/>
<text text-anchor="middle" x="987" y="-119.5" font-family="Helvetica,sans-Serif" font-size="10.00">src/poisson1d/Poisson1d.hpp</text>
</a>
</g>
</g>
<!-- Node1&#45;&gt;Node11 -->
<g id="edge12" class="edge"><title>Node1&#45;&gt;Node11</title>
<path fill="none" stroke="midnightblue" d="M763.997,-166.473C816.348,-156.268 894.772,-140.979 943.314,-131.516"/>
<polygon fill="midnightblue" stroke="midnightblue" points="763.037,-163.095 753.891,-168.444 764.376,-169.965 763.037,-163.095"/>
</g>
<!-- Node3 -->
<g id="node3" class="node"><title>Node3</title>
<g id="a_node3"><a xlink:href="VtkOutputter_8hpp.html" target="_top" xlink:title="Defines the VtkOutputter class that writes output to *.vtu files.">
<polygon fill="white" stroke="black" points="69.5,-56.5 69.5,-75.5 194.5,-75.5 194.5,-56.5 69.5,-56.5"/>
<text text-anchor="middle" x="132" y="-63.5" font-family="Helvetica,sans-Serif" font-size="10.00">include/VtkOutputter.hpp</text>
</a>
</g>
</g>
<!-- Node2&#45;&gt;Node3 -->
<g id="edge2" class="edge"><title>Node2&#45;&gt;Node3</title>
<path fill="none" stroke="midnightblue" d="M232.683,-108.503C208.124,-98.3795 174.182,-84.388 152.66,-75.5164"/>
<polygon fill="midnightblue" stroke="midnightblue" points="231.663,-111.868 242.243,-112.444 234.331,-105.397 231.663,-111.868"/>
</g>
<!-- Node4 -->
<g id="node4" class="node"><title>Node4</title>
<g id="a_node4"><a xlink:href="poisson2d_2main_8cpp.html" target="_top" xlink:title=" ">
<polygon fill="white" stroke="black" points="0,-0.5 0,-19.5 120,-19.5 120,-0.5 0,-0.5"/>
<text text-anchor="middle" x="60" y="-7.5" font-family="Helvetica,sans-Serif" font-size="10.00">src/poisson2d/main.cpp</text>
</a>
</g>
</g>
<!-- Node2&#45;&gt;Node4 -->
<g id="edge5" class="edge"><title>Node2&#45;&gt;Node4</title>
<path fill="none" stroke="midnightblue" d="M165.748,-111.042C120.567,-104.206 73.7882,-93.1794 60,-76 47.0032,-59.8067 52.6893,-33.3122 56.9158,-19.6899"/>
<polygon fill="midnightblue" stroke="midnightblue" points="165.254,-114.507 175.653,-112.48 166.26,-107.58 165.254,-114.507"/>
</g>
<!-- Node2&#45;&gt;Node5 -->
<g id="edge6" class="edge"><title>Node2&#45;&gt;Node5</title>
<path fill="none" stroke="midnightblue" d="M253.827,-102.988C249.891,-94.8649 245.421,-85.0755 242,-76 234.535,-56.1979 228.174,-32.1075 225.056,-19.5491"/>
<polygon fill="midnightblue" stroke="midnightblue" points="250.824,-104.809 258.408,-112.207 257.093,-101.694 250.824,-104.809"/>
</g>
<!-- Node6 -->
<g id="node6" class="node"><title>Node6</title>
<g id="a_node6"><a xlink:href="SW2d_8hpp.html" target="_top" xlink:title="Short header file for 2D shallow water solver&#39;s main.cpp file.">
<polygon fill="white" stroke="black" points="251.5,-56.5 251.5,-75.5 356.5,-75.5 356.5,-56.5 251.5,-56.5"/>
<text text-anchor="middle" x="304" y="-63.5" font-family="Helvetica,sans-Serif" font-size="10.00">src/sw2d/SW2d.hpp</text>
</a>
</g>
</g>
<!-- Node2&#45;&gt;Node6 -->
<g id="edge7" class="edge"><title>Node2&#45;&gt;Node6</title>
<path fill="none" stroke="midnightblue" d="M276.017,-103.855C283.117,-94.5048 291.604,-83.3265 297.356,-75.7511"/>
<polygon fill="midnightblue" stroke="midnightblue" points="273.03,-102.002 269.77,-112.083 278.605,-106.235 273.03,-102.002"/>
</g>
<!-- Node7 -->
<g id="node7" class="node"><title>Node7</title>
<g id="a_node7"><a xlink:href="simple_2SW2d_8hpp.html" target="_top" xlink:title="Short header file for 2D shallow water solver&#39;s main.cpp file.">
<polygon fill="white" stroke="black" points="374.5,-56.5 374.5,-75.5 511.5,-75.5 511.5,-56.5 374.5,-56.5"/>
<text text-anchor="middle" x="443" y="-63.5" font-family="Helvetica,sans-Serif" font-size="10.00">src/sw2d&#45;simple/SW2d.hpp</text>
</a>
</g>
</g>
<!-- Node2&#45;&gt;Node7 -->
<g id="edge8" class="edge"><title>Node2&#45;&gt;Node7</title>
<path fill="none" stroke="midnightblue" d="M301.108,-109.568C335.063,-99.381 383.989,-84.7034 414.612,-75.5164"/>
<polygon fill="midnightblue" stroke="midnightblue" points="300.094,-106.218 291.522,-112.444 302.106,-112.922 300.094,-106.218"/>
</g>
<!-- Node3&#45;&gt;Node4 -->
<g id="edge3" class="edge"><title>Node3&#45;&gt;Node4</title>
<path fill="none" stroke="midnightblue" d="M112.134,-50.1008C99.1765,-40.3824 82.7026,-28.0269 71.7785,-19.8339"/>
<polygon fill="midnightblue" stroke="midnightblue" points="110.332,-53.1239 120.432,-56.324 114.532,-47.5239 110.332,-53.1239"/>
</g>
<!-- Node3&#45;&gt;Node5 -->
<g id="edge4" class="edge"><title>Node3&#45;&gt;Node5</title>
<path fill="none" stroke="midnightblue" d="M155.294,-51.1774C172.039,-41.2407 194.1,-28.1492 208.416,-19.6545"/>
<polygon fill="midnightblue" stroke="midnightblue" points="153.434,-48.2108 146.621,-56.324 157.007,-54.2307 153.434,-48.2108"/>
</g>
<!-- Node11&#45;&gt;Node10 -->
<g id="edge13" class="edge"><title>Node11&#45;&gt;Node10</title>
<path fill="none" stroke="midnightblue" d="M971.622,-104.718C962.633,-95.1997 951.641,-83.5608 944.265,-75.7511"/>
<polygon fill="midnightblue" stroke="midnightblue" points="969.168,-107.216 978.578,-112.083 974.257,-102.41 969.168,-107.216"/>
</g>
</g>
</svg>
        <g id="navigator" transform="translate(0 0)" fill="#404254">
                <rect fill="#f2f5e9" fill-opacity="0.5" stroke="#606060" stroke-width=".5" x="0" y="0" width="60" height="60"/>
                <use id="zoomplus" xlink:href="#zoomPlus" x="17" y="9" onmousedown="handleZoom(evt,'in')"/>
                <use id="zoomminus" xlink:href="#zoomMin" x="42" y="9" onmousedown="handleZoom(evt,'out')"/>
                <use id="reset" xlink:href="#resetDef" x="30" y="36" onmousedown="handleReset()"/>
                <g id="arrowUp" xlink:href="#dirArrow" transform="translate(30 24)" onmousedown="handlePan(0,-1)">
                  <use xlink:href="#rim" fill="#404040">
                        <set attributeName="fill" to="#808080" begin="arrowUp.mouseover" end="arrowUp.mouseout"/>
                  </use>
                  <path fill="none" stroke="white" stroke-width="1.5" d="M0,-3.0v7 M-2.5,-0.5L0,-3.0L2.5,-0.5"/>
                </g>
                <g id="arrowRight" xlink:href="#dirArrow" transform="rotate(90) translate(36 -43)" onmousedown="handlePan(1,0)">
                  <use xlink:href="#rim" fill="#404040">
                        <set attributeName="fill" to="#808080" begin="arrowRight.mouseover" end="arrowRight.mouseout"/>
                  </use>
                  <path fill="none" stroke="white" stroke-width="1.5" d="M0,-3.0v7 M-2.5,-0.5L0,-3.0L2.5,-0.5"/>
                </g>
                <g id="arrowDown" xlink:href="#dirArrow" transform="rotate(180) translate(-30 -48)" onmousedown="handlePan(0,1)">
                  <use xlink:href="#rim" fill="#404040">
                        <set attributeName="fill" to="#808080" begin="arrowDown.mouseover" end="arrowDown.mouseout"/>
                  </use>
                  <path fill="none" stroke="white" stroke-width="1.5" d="M0,-3.0v7 M-2.5,-0.5L0,-3.0L2.5,-0.5"/>
                </g>
                <g id="arrowLeft" xlink:href="#dirArrow" transform="rotate(270) translate(-36 17)" onmousedown="handlePan(-1,0)">
                  <use xlink:href="#rim" fill="#404040">
                        <set attributeName="fill" to="#808080" begin="arrowLeft.mouseover" end="arrowLeft.mouseout"/>
                  </use>
                  <path fill="none" stroke="white" stroke-width="1.5" d="M0,-3.0v7 M-2.5,-0.5L0,-3.0L2.5,-0.5"/>
                </g>
        </g>
        <svg viewBox="0 0 15 15" width="100%" height="30px" preserveAspectRatio="xMaxYMin meet">
         <g id="arrow_out" transform="scale(0.3 0.3)">
          <a xlink:href="Nodes1DProvisioner_8hpp__dep__incl_org.svg" target="_base">
           <rect id="button" ry="5" rx="5" y="6" x="6" height="38" width="38"
                fill="#f2f5e9" fill-opacity="0.5" stroke="#606060" stroke-width="1.0"/>
           <path id="arrow"
             d="M 11.500037,31.436501 C 11.940474,20.09759 22.043105,11.32322 32.158766,21.979434 L 37.068811,17.246167 C 37.068811,17.246167 37.088388,32 37.088388,32 L 22.160133,31.978069 C 22.160133,31.978069 26.997745,27.140456 26.997745,27.140456 C 18.528582,18.264221 13.291696,25.230495 11.500037,31.436501 z"
             style="fill:#404040;"/>
          </a>
         </g>
        </svg>
</svg>
