<?xml version="1.0" encoding="UTF-8" standalone="no"?>
<!DOCTYPE svg PUBLIC "-//W3C//DTD SVG 1.1//EN"
 "http://www.w3.org/Graphics/SVG/1.1/DTD/svg11.dtd">
<!-- Generated by graphviz version 2.38.0 (20140413.2041)
 -->
<!-- Title: include/PathResolver.hpp Pages: 1 -->
<svg width="486pt" height="84pt"
 viewBox="0.00 0.00 486.00 84.00" xmlns="http://www.w3.org/2000/svg" xmlns:xlink="http://www.w3.org/1999/xlink">
<g id="graph0" class="graph" transform="scale(1 1) rotate(0) translate(4 80)">
<title>include/PathResolver.hpp</title>
<polygon fill="white" stroke="none" points="-4,4 -4,-80 482,-80 482,4 -4,4"/>
<!-- Node1 -->
<g id="node1" class="node"><title>Node1</title>
<g id="a_node1"><a xlink:title="Defines the PathResolver class that allows for the resolution of paths relative to the project root p...">
<polygon fill="#bfbfbf" stroke="black" points="118.5,-56.5 118.5,-75.5 246.5,-75.5 246.5,-56.5 118.5,-56.5"/>
<text text-anchor="middle" x="182.5" y="-63.5" font-family="Helvetica,sans-Serif" font-size="10.00">include/PathResolver.hpp</text>
</a>
</g>
</g>
<!-- Node2 -->
<g id="node2" class="node"><title>Node2</title>
<g id="a_node2"><a xlink:title=" ">
<polygon fill="white" stroke="#bfbfbf" points="0,-0.5 0,-19.5 41,-19.5 41,-0.5 0,-0.5"/>
<text text-anchor="middle" x="20.5" y="-7.5" font-family="Helvetica,sans-Serif" font-size="10.00">string</text>
</a>
</g>
</g>
<!-- Node1&#45;&gt;Node2 -->
<g id="edge1" class="edge"><title>Node1&#45;&gt;Node2</title>
<path fill="none" stroke="midnightblue" d="M156.831,-56.4435C128.134,-46.8782 81.6908,-31.3969 51.1224,-21.2075"/>
<polygon fill="midnightblue" stroke="midnightblue" points="52.0066,-17.8129 41.4129,-17.971 49.7929,-24.4537 52.0066,-17.8129"/>
</g>
<!-- Node3 -->
<g id="node3" class="node"><title>Node3</title>
<g id="a_node3"><a xlink:title=" ">
<polygon fill="white" stroke="#bfbfbf" points="59.5,-0.5 59.5,-19.5 103.5,-19.5 103.5,-0.5 59.5,-0.5"/>
<text text-anchor="middle" x="81.5" y="-7.5" font-family="Helvetica,sans-Serif" font-size="10.00">vector</text>
</a>
</g>
</g>
<!-- Node1&#45;&gt;Node3 -->
<g id="edge2" class="edge"><title>Node1&#45;&gt;Node3</title>
<path fill="none" stroke="midnightblue" d="M166.273,-56.324C150.149,-47.7034 125.2,-34.3643 106.536,-24.3855"/>
<polygon fill="midnightblue" stroke="midnightblue" points="108.156,-21.283 97.6871,-19.6545 104.856,-27.456 108.156,-21.283"/>
</g>
<!-- Node4 -->
<g id="node4" class="node"><title>Node4</title>
<g id="a_node4"><a xlink:title=" ">
<polygon fill="white" stroke="#bfbfbf" points="121.5,-0.5 121.5,-19.5 173.5,-19.5 173.5,-0.5 121.5,-0.5"/>
<text text-anchor="middle" x="147.5" y="-7.5" font-family="Helvetica,sans-Serif" font-size="10.00">memory</text>
</a>
</g>
</g>
<!-- Node1&#45;&gt;Node4 -->
<g id="edge3" class="edge"><title>Node1&#45;&gt;Node4</title>
<path fill="none" stroke="midnightblue" d="M176.72,-56.083C171.828,-48.5341 164.673,-37.4948 158.667,-28.2298"/>
<polygon fill="midnightblue" stroke="midnightblue" points="161.548,-26.239 153.172,-19.7511 155.674,-30.0463 161.548,-26.239"/>
</g>
<!-- Node5 -->
<g id="node5" class="node"><title>Node5</title>
<g id="a_node5"><a xlink:title=" ">
<polygon fill="white" stroke="#bfbfbf" points="191.5,-0.5 191.5,-19.5 245.5,-19.5 245.5,-0.5 191.5,-0.5"/>
<text text-anchor="middle" x="218.5" y="-7.5" font-family="Helvetica,sans-Serif" font-size="10.00">iostream</text>
</a>
</g>
</g>
<!-- Node1&#45;&gt;Node5 -->
<g id="edge4" class="edge"><title>Node1&#45;&gt;Node5</title>
<path fill="none" stroke="midnightblue" d="M188.445,-56.083C193.477,-48.5341 200.837,-37.4948 207.013,-28.2298"/>
<polygon fill="midnightblue" stroke="midnightblue" points="210.031,-30.0131 212.666,-19.7511 204.207,-26.1301 210.031,-30.0131"/>
</g>
<!-- Node6 -->
<g id="node6" class="node"><title>Node6</title>
<g id="a_node6"><a xlink:href="whereami_8h.html" target="_top" xlink:title="Off&#45;the&#45;shelf C library for determing the location of a C binary at runtime. See https://github....">
<polygon fill="white" stroke="black" points="264,-0.5 264,-19.5 331,-19.5 331,-0.5 264,-0.5"/>
<text text-anchor="middle" x="297.5" y="-7.5" font-family="Helvetica,sans-Serif" font-size="10.00">whereami.h</text>
</a>
</g>
</g>
<!-- Node1&#45;&gt;Node6 -->
<g id="edge5" class="edge"><title>Node1&#45;&gt;Node6</title>
<path fill="none" stroke="midnightblue" d="M200.722,-56.4435C219.396,-47.6751 248.656,-33.9355 270.117,-23.8579"/>
<polygon fill="midnightblue" stroke="midnightblue" points="271.799,-26.935 279.363,-19.5164 268.824,-20.5988 271.799,-26.935"/>
</g>
<!-- Node7 -->
<g id="node7" class="node"><title>Node7</title>
<g id="a_node7"><a xlink:title=" ">
<polygon fill="white" stroke="#bfbfbf" points="349,-0.5 349,-19.5 478,-19.5 478,-0.5 349,-0.5"/>
<text text-anchor="middle" x="413.5" y="-7.5" font-family="Helvetica,sans-Serif" font-size="10.00">boost/algorithm/string.hpp</text>
</a>
</g>
</g>
<!-- Node1&#45;&gt;Node7 -->
<g id="edge6" class="edge"><title>Node1&#45;&gt;Node7</title>
<path fill="none" stroke="midnightblue" d="M219.103,-56.4435C259.231,-47.0629 323.698,-31.9926 367.285,-21.8036"/>
<polygon fill="midnightblue" stroke="midnightblue" points="368.128,-25.2009 377.069,-19.5164 366.534,-18.3847 368.128,-25.2009"/>
</g>
</g>
</svg>
