<?xml version="1.0" encoding="UTF-8" standalone="no"?>
<!DOCTYPE svg PUBLIC "-//W3C//DTD SVG 1.1//EN"
 "http://www.w3.org/Graphics/SVG/1.1/DTD/svg11.dtd">
<!-- Generated by graphviz version 2.38.0 (20140413.2041)
 -->
<!-- Title: src/poisson1d/main.cpp Pages: 1 -->
<svg width="1736pt" height="420pt"
 viewBox="0.00 0.00 1736.00 420.00" xmlns="http://www.w3.org/2000/svg" xmlns:xlink="http://www.w3.org/1999/xlink">
<g id="graph0" class="graph" transform="scale(1 1) rotate(0) translate(4 416)">
<title>src/poisson1d/main.cpp</title>
<polygon fill="white" stroke="none" points="-4,4 -4,-416 1732,-416 1732,4 -4,4"/>
<!-- Node1 -->
<g id="node1" class="node"><title>Node1</title>
<g id="a_node1"><a xlink:title=" ">
<polygon fill="#bfbfbf" stroke="black" points="865,-392.5 865,-411.5 985,-411.5 985,-392.5 865,-392.5"/>
<text text-anchor="middle" x="925" y="-399.5" font-family="Helvetica,sans-Serif" font-size="10.00">src/poisson1d/main.cpp</text>
</a>
</g>
</g>
<!-- Node2 -->
<g id="node2" class="node"><title>Node2</title>
<g id="a_node2"><a xlink:href="Nodes1DProvisioner_8hpp.html" target="_top" xlink:title="Defines a class for computations related to the construction of one&#45;dimensional nodes,...">
<polygon fill="white" stroke="black" points="220.5,-280.5 220.5,-299.5 345.5,-299.5 345.5,-280.5 220.5,-280.5"/>
<text text-anchor="middle" x="283" y="-287.5" font-family="Helvetica,sans-Serif" font-size="10.00">Nodes1DProvisioner.hpp</text>
</a>
</g>
</g>
<!-- Node1&#45;&gt;Node2 -->
<g id="edge1" class="edge"><title>Node1&#45;&gt;Node2</title>
<path fill="none" stroke="midnightblue" d="M864.973,-398.381C781.347,-393.906 625.369,-382.548 495,-356 430.006,-342.765 356.47,-317.903 315.329,-303.059"/>
<polygon fill="midnightblue" stroke="midnightblue" points="316.43,-299.735 305.836,-299.603 314.036,-306.313 316.43,-299.735"/>
</g>
<!-- Node4 -->
<g id="node4" class="node"><title>Node4</title>
<g id="a_node4"><a xlink:href="Types_8hpp.html" target="_top" xlink:title="Defines the basic types used throughout this project.">
<polygon fill="white" stroke="black" points="497,-56.5 497,-75.5 559,-75.5 559,-56.5 497,-56.5"/>
<text text-anchor="middle" x="528" y="-63.5" font-family="Helvetica,sans-Serif" font-size="10.00">Types.hpp</text>
</a>
</g>
</g>
<!-- Node1&#45;&gt;Node4 -->
<g id="edge28" class="edge"><title>Node1&#45;&gt;Node4</title>
<path fill="none" stroke="midnightblue" d="M864.665,-400.185C659.283,-396.622 0,-378.38 0,-291 0,-291 0,-291 0,-177 0,-143.079 11.1805,-129.89 40,-112 77.5522,-88.6889 375.669,-73.5723 486.605,-68.7061"/>
<polygon fill="midnightblue" stroke="midnightblue" points="486.902,-72.1966 496.741,-68.2672 486.599,-65.2031 486.902,-72.1966"/>
</g>
<!-- Node5 -->
<g id="node5" class="node"><title>Node5</title>
<g id="a_node5"><a xlink:title=" ">
<polygon fill="white" stroke="#bfbfbf" points="1387,-0.5 1387,-19.5 1455,-19.5 1455,-0.5 1387,-0.5"/>
<text text-anchor="middle" x="1421" y="-7.5" font-family="Helvetica,sans-Serif" font-size="10.00">blitz/array.h</text>
</a>
</g>
</g>
<!-- Node1&#45;&gt;Node5 -->
<g id="edge64" class="edge"><title>Node1&#45;&gt;Node5</title>
<path fill="none" stroke="midnightblue" d="M985.08,-399.618C1125.45,-395.951 1471.53,-384.251 1584,-356 1652.1,-338.894 1728,-361.218 1728,-291 1728,-291 1728,-291 1728,-121 1728,-65.835 1550.11,-30.9153 1465.15,-17.3843"/>
<polygon fill="midnightblue" stroke="midnightblue" points="1465.45,-13.888 1455.03,-15.8029 1464.37,-20.8042 1465.45,-13.888"/>
</g>
<!-- Node14 -->
<g id="node14" class="node"><title>Node14</title>
<g id="a_node14"><a xlink:href="CsvOutputter_8hpp.html" target="_top" xlink:title="Defines the CsvOutputter class for writing data to output files.">
<polygon fill="white" stroke="black" points="504,-336.5 504,-355.5 598,-355.5 598,-336.5 504,-336.5"/>
<text text-anchor="middle" x="551" y="-343.5" font-family="Helvetica,sans-Serif" font-size="10.00">CsvOutputter.hpp</text>
</a>
</g>
</g>
<!-- Node1&#45;&gt;Node14 -->
<g id="edge21" class="edge"><title>Node1&#45;&gt;Node14</title>
<path fill="none" stroke="midnightblue" d="M865.739,-392.444C795.064,-382.239 677.761,-365.302 608.068,-355.24"/>
<polygon fill="midnightblue" stroke="midnightblue" points="608.54,-351.772 598.142,-353.807 607.54,-358.7 608.54,-351.772"/>
</g>
<!-- Node16 -->
<g id="node16" class="node"><title>Node16</title>
<g id="a_node16"><a xlink:title=" ">
<polygon fill="white" stroke="#bfbfbf" points="602.5,-224.5 602.5,-243.5 643.5,-243.5 643.5,-224.5 602.5,-224.5"/>
<text text-anchor="middle" x="623" y="-231.5" font-family="Helvetica,sans-Serif" font-size="10.00">string</text>
</a>
</g>
</g>
<!-- Node1&#45;&gt;Node16 -->
<g id="edge66" class="edge"><title>Node1&#45;&gt;Node16</title>
<path fill="none" stroke="midnightblue" d="M866.373,-392.475C830.6,-385.766 784.663,-374.395 747,-356 696.954,-331.557 654.431,-279.169 634.732,-252.05"/>
<polygon fill="midnightblue" stroke="midnightblue" points="637.379,-249.733 628.741,-243.599 631.669,-253.781 637.379,-249.733"/>
</g>
<!-- Node18 -->
<g id="node18" class="node"><title>Node18</title>
<g id="a_node18"><a xlink:href="Constants_8hpp.html" target="_top" xlink:title="Defines some universal constants used throughout this project.">
<polygon fill="white" stroke="black" points="1620,-112.5 1620,-131.5 1700,-131.5 1700,-112.5 1620,-112.5"/>
<text text-anchor="middle" x="1660" y="-119.5" font-family="Helvetica,sans-Serif" font-size="10.00">Constants.hpp</text>
</a>
</g>
</g>
<!-- Node1&#45;&gt;Node18 -->
<g id="edge29" class="edge"><title>Node1&#45;&gt;Node18</title>
<path fill="none" stroke="midnightblue" d="M985.424,-398.648C1112.65,-393.31 1404.38,-378.93 1501,-356 1575.28,-338.371 1660,-367.344 1660,-291 1660,-291 1660,-291 1660,-233 1660,-200.948 1660,-163.643 1660,-141.749"/>
<polygon fill="midnightblue" stroke="midnightblue" points="1663.5,-141.558 1660,-131.558 1656.5,-141.558 1663.5,-141.558"/>
</g>
<!-- Node19 -->
<g id="node19" class="node"><title>Node19</title>
<g id="a_node19"><a xlink:href="Warning_8hpp.html" target="_top" xlink:title="File containing standard GNU&#45;style copyright and warranty notices.">
<polygon fill="white" stroke="black" points="1046.5,-336.5 1046.5,-355.5 1117.5,-355.5 1117.5,-336.5 1046.5,-336.5"/>
<text text-anchor="middle" x="1082" y="-343.5" font-family="Helvetica,sans-Serif" font-size="10.00">Warning.hpp</text>
</a>
</g>
</g>
<!-- Node1&#45;&gt;Node19 -->
<g id="edge31" class="edge"><title>Node1&#45;&gt;Node19</title>
<path fill="none" stroke="midnightblue" d="M949.877,-392.444C976.289,-383.359 1018.22,-368.939 1047.74,-358.783"/>
<polygon fill="midnightblue" stroke="midnightblue" points="1048.92,-362.079 1057.24,-355.516 1046.64,-355.459 1048.92,-362.079"/>
</g>
<!-- Node21 -->
<g id="node21" class="node"><title>Node21</title>
<g id="a_node21"><a xlink:href="Poisson1d_8hpp.html" target="_top" xlink:title="Short header file for 1D Poisson solver&#39;s main.cpp file.">
<polygon fill="white" stroke="black" points="756.5,-336.5 756.5,-355.5 837.5,-355.5 837.5,-336.5 756.5,-336.5"/>
<text text-anchor="middle" x="797" y="-343.5" font-family="Helvetica,sans-Serif" font-size="10.00">Poisson1d.hpp</text>
</a>
</g>
</g>
<!-- Node1&#45;&gt;Node21 -->
<g id="edge33" class="edge"><title>Node1&#45;&gt;Node21</title>
<path fill="none" stroke="midnightblue" d="M904.718,-392.444C883.653,-383.557 850.483,-369.563 826.514,-359.451"/>
<polygon fill="midnightblue" stroke="midnightblue" points="827.761,-356.179 817.187,-355.516 825.04,-362.628 827.761,-356.179"/>
</g>
<!-- Node26 -->
<g id="node26" class="node"><title>Node26</title>
<g id="a_node26"><a xlink:title=" ">
<polygon fill="white" stroke="#bfbfbf" points="1134,-224.5 1134,-243.5 1178,-243.5 1178,-224.5 1134,-224.5"/>
<text text-anchor="middle" x="1156" y="-231.5" font-family="Helvetica,sans-Serif" font-size="10.00">cmath</text>
</a>
</g>
</g>
<!-- Node1&#45;&gt;Node26 -->
<g id="edge65" class="edge"><title>Node1&#45;&gt;Node26</title>
<path fill="none" stroke="midnightblue" d="M985.047,-401.193C1130.02,-400.227 1492.57,-388.8 1565,-300 1613.78,-240.204 1293.2,-234.985 1188.38,-234.86"/>
<polygon fill="midnightblue" stroke="midnightblue" points="1188.08,-231.36 1178.09,-234.863 1188.09,-238.36 1188.08,-231.36"/>
</g>
<!-- Node29 -->
<g id="node29" class="node"><title>Node29</title>
<g id="a_node29"><a xlink:title=" ">
<polygon fill="white" stroke="#bfbfbf" points="942.5,-224.5 942.5,-243.5 1001.5,-243.5 1001.5,-224.5 942.5,-224.5"/>
<text text-anchor="middle" x="972" y="-231.5" font-family="Helvetica,sans-Serif" font-size="10.00">stdexcept</text>
</a>
</g>
</g>
<!-- Node1&#45;&gt;Node29 -->
<g id="edge67" class="edge"><title>Node1&#45;&gt;Node29</title>
<path fill="none" stroke="midnightblue" d="M923.386,-392.35C919.974,-371.867 913.613,-319.182 930,-280 934.812,-268.494 943.965,-258.127 952.501,-250.251"/>
<polygon fill="midnightblue" stroke="midnightblue" points="955.039,-252.684 960.335,-243.508 950.472,-247.379 955.039,-252.684"/>
</g>
<!-- Node31 -->
<g id="node31" class="node"><title>Node31</title>
<g id="a_node31"><a xlink:href="LSERK4_8hpp.html" target="_top" xlink:title="Header file containing coefficients for Low&#45;Storage Explicit Runge&#45;Kutta time&#45;stepper (4th order).">
<polygon fill="white" stroke="black" points="866,-112.5 866,-131.5 940,-131.5 940,-112.5 866,-112.5"/>
<text text-anchor="middle" x="903" y="-119.5" font-family="Helvetica,sans-Serif" font-size="10.00">LSERK4.hpp</text>
</a>
</g>
</g>
<!-- Node1&#45;&gt;Node31 -->
<g id="edge50" class="edge"><title>Node1&#45;&gt;Node31</title>
<path fill="none" stroke="midnightblue" d="M925.916,-392.297C928.492,-371.247 937.368,-316.618 963,-280 978.089,-258.444 998.352,-267.594 1010,-244 1013.93,-236.029 1013.52,-232.162 1010,-224 993.17,-184.971 953.019,-154.011 926.97,-137.117"/>
<polygon fill="midnightblue" stroke="midnightblue" points="928.735,-134.093 918.405,-131.739 925.012,-140.021 928.735,-134.093"/>
</g>
<!-- Node32 -->
<g id="node32" class="node"><title>Node32</title>
<g id="a_node32"><a xlink:href="GMRESSolver_8hpp.html" target="_top" xlink:title="Defines the GMRESSolver class that implements a right&#45;preconditioned GMRES iterative method with modi...">
<polygon fill="white" stroke="black" points="1183,-336.5 1183,-355.5 1283,-355.5 1283,-336.5 1183,-336.5"/>
<text text-anchor="middle" x="1233" y="-343.5" font-family="Helvetica,sans-Serif" font-size="10.00">GMRESSolver.hpp</text>
</a>
</g>
</g>
<!-- Node1&#45;&gt;Node32 -->
<g id="edge52" class="edge"><title>Node1&#45;&gt;Node32</title>
<path fill="none" stroke="midnightblue" d="M973.804,-392.444C1028.21,-382.905 1116.17,-367.483 1174.29,-357.293"/>
<polygon fill="midnightblue" stroke="midnightblue" points="1175.18,-360.691 1184.42,-355.516 1173.97,-353.796 1175.18,-360.691"/>
</g>
<!-- Node3 -->
<g id="node3" class="node"><title>Node3</title>
<g id="a_node3"><a xlink:href="DirectSolver_8hpp.html" target="_top" xlink:title="Defines the DirectSolver class that implements LAPACK direct solution routine DSGESV....">
<polygon fill="white" stroke="black" points="286.5,-168.5 286.5,-187.5 375.5,-187.5 375.5,-168.5 286.5,-168.5"/>
<text text-anchor="middle" x="331" y="-175.5" font-family="Helvetica,sans-Serif" font-size="10.00">DirectSolver.hpp</text>
</a>
</g>
</g>
<!-- Node2&#45;&gt;Node3 -->
<g id="edge2" class="edge"><title>Node2&#45;&gt;Node3</title>
<path fill="none" stroke="midnightblue" d="M281.865,-280.134C280.599,-267.181 279.698,-242.604 288,-224 293.192,-212.365 302.723,-201.902 311.494,-193.999"/>
<polygon fill="midnightblue" stroke="midnightblue" points="313.808,-196.627 319.19,-187.501 309.292,-191.278 313.808,-196.627"/>
</g>
<!-- Node2&#45;&gt;Node4 -->
<g id="edge18" class="edge"><title>Node2&#45;&gt;Node4</title>
<path fill="none" stroke="midnightblue" d="M220.419,-280.799C171.039,-273.224 107.223,-260.633 87,-244 40.5346,-205.783 16.5321,-156.519 57,-112 85.67,-80.4603 377.455,-70.4829 486.862,-67.8362"/>
<polygon fill="midnightblue" stroke="midnightblue" points="486.95,-71.3352 496.866,-67.6024 486.787,-64.3371 486.95,-71.3352"/>
</g>
<!-- Node8 -->
<g id="node8" class="node"><title>Node8</title>
<g id="a_node8"><a xlink:href="JacobiBuilders_8hpp.html" target="_top" xlink:title="Defines the JacobiBuilders class that constructs Jacobi polynomials, their derivatives,...">
<polygon fill="white" stroke="black" points="71.5,-168.5 71.5,-187.5 170.5,-187.5 170.5,-168.5 71.5,-168.5"/>
<text text-anchor="middle" x="121" y="-175.5" font-family="Helvetica,sans-Serif" font-size="10.00">JacobiBuilders.hpp</text>
</a>
</g>
</g>
<!-- Node2&#45;&gt;Node8 -->
<g id="edge7" class="edge"><title>Node2&#45;&gt;Node8</title>
<path fill="none" stroke="midnightblue" d="M220.041,-282.275C171.632,-275.654 110.486,-263.63 95,-244 83.6543,-229.618 94.6802,-209.64 105.668,-195.641"/>
<polygon fill="midnightblue" stroke="midnightblue" points="108.515,-197.695 112.304,-187.8 103.172,-193.172 108.515,-197.695"/>
</g>
<!-- Node10 -->
<g id="node10" class="node"><title>Node10</title>
<g id="a_node10"><a xlink:href="VandermondeBuilders_8hpp.html" target="_top" xlink:title="Defines a class for computating the generalized Vandermonde, its gradient, and its inverse for 1D ort...">
<polygon fill="white" stroke="black" points="104.5,-224.5 104.5,-243.5 235.5,-243.5 235.5,-224.5 104.5,-224.5"/>
<text text-anchor="middle" x="170" y="-231.5" font-family="Helvetica,sans-Serif" font-size="10.00">VandermondeBuilders.hpp</text>
</a>
</g>
</g>
<!-- Node2&#45;&gt;Node10 -->
<g id="edge11" class="edge"><title>Node2&#45;&gt;Node10</title>
<path fill="none" stroke="midnightblue" d="M265.095,-280.444C246.746,-271.675 217.995,-257.935 196.906,-247.858"/>
<polygon fill="midnightblue" stroke="midnightblue" points="198.353,-244.67 187.821,-243.516 195.335,-250.986 198.353,-244.67"/>
</g>
<!-- Node12 -->
<g id="node12" class="node"><title>Node12</title>
<g id="a_node12"><a xlink:title=" ">
<polygon fill="white" stroke="#bfbfbf" points="394,-168.5 394,-187.5 446,-187.5 446,-168.5 394,-168.5"/>
<text text-anchor="middle" x="420" y="-175.5" font-family="Helvetica,sans-Serif" font-size="10.00">memory</text>
</a>
</g>
</g>
<!-- Node2&#45;&gt;Node12 -->
<g id="edge19" class="edge"><title>Node2&#45;&gt;Node12</title>
<path fill="none" stroke="midnightblue" d="M286.09,-280.291C291.326,-266.644 303.145,-240.115 321,-224 339.067,-207.694 364.041,-196.4 384.385,-189.204"/>
<polygon fill="midnightblue" stroke="midnightblue" points="385.581,-192.495 393.949,-185.997 383.355,-185.858 385.581,-192.495"/>
</g>
<!-- Node13 -->
<g id="node13" class="node"><title>Node13</title>
<g id="a_node13"><a xlink:title=" ">
<polygon fill="white" stroke="#bfbfbf" points="330,-224.5 330,-243.5 454,-243.5 454,-224.5 330,-224.5"/>
<text text-anchor="middle" x="392" y="-231.5" font-family="Helvetica,sans-Serif" font-size="10.00">boost/python/numpy.hpp</text>
</a>
</g>
</g>
<!-- Node2&#45;&gt;Node13 -->
<g id="edge20" class="edge"><title>Node2&#45;&gt;Node13</title>
<path fill="none" stroke="midnightblue" d="M300.513,-280.324C318.072,-271.625 345.331,-258.12 365.531,-248.113"/>
<polygon fill="midnightblue" stroke="midnightblue" points="367.124,-251.23 374.531,-243.655 364.016,-244.958 367.124,-251.23"/>
</g>
<!-- Node3&#45;&gt;Node4 -->
<g id="edge3" class="edge"><title>Node3&#45;&gt;Node4</title>
<path fill="none" stroke="midnightblue" d="M346.458,-168.368C380.623,-149.292 462.771,-103.422 503.813,-80.5054"/>
<polygon fill="midnightblue" stroke="midnightblue" points="505.589,-83.5226 512.614,-75.5914 502.176,-77.4108 505.589,-83.5226"/>
</g>
<!-- Node4&#45;&gt;Node5 -->
<g id="edge4" class="edge"><title>Node4&#45;&gt;Node5</title>
<path fill="none" stroke="midnightblue" d="M559.259,-63.1098C693.243,-55.0077 1219.33,-23.1953 1376.45,-13.6938"/>
<polygon fill="midnightblue" stroke="midnightblue" points="1376.92,-17.1721 1386.69,-13.0748 1376.5,-10.1848 1376.92,-17.1721"/>
</g>
<!-- Node6 -->
<g id="node6" class="node"><title>Node6</title>
<g id="a_node6"><a xlink:title=" ">
<polygon fill="white" stroke="#bfbfbf" points="486.5,-0.5 486.5,-19.5 569.5,-19.5 569.5,-0.5 486.5,-0.5"/>
<text text-anchor="middle" x="528" y="-7.5" font-family="Helvetica,sans-Serif" font-size="10.00">unordered_map</text>
</a>
</g>
</g>
<!-- Node4&#45;&gt;Node6 -->
<g id="edge5" class="edge"><title>Node4&#45;&gt;Node6</title>
<path fill="none" stroke="midnightblue" d="M528,-56.083C528,-49.0059 528,-38.8611 528,-29.9865"/>
<polygon fill="midnightblue" stroke="midnightblue" points="531.5,-29.751 528,-19.7511 524.5,-29.7511 531.5,-29.751"/>
</g>
<!-- Node7 -->
<g id="node7" class="node"><title>Node7</title>
<g id="a_node7"><a xlink:title=" ">
<polygon fill="white" stroke="#bfbfbf" points="934,-0.5 934,-19.5 978,-19.5 978,-0.5 934,-0.5"/>
<text text-anchor="middle" x="956" y="-7.5" font-family="Helvetica,sans-Serif" font-size="10.00">vector</text>
</a>
</g>
</g>
<!-- Node4&#45;&gt;Node7 -->
<g id="edge6" class="edge"><title>Node4&#45;&gt;Node7</title>
<path fill="none" stroke="midnightblue" d="M559.125,-61.073C637.827,-51.1433 844.169,-25.1096 923.906,-15.0492"/>
<polygon fill="midnightblue" stroke="midnightblue" points="924.375,-18.518 933.858,-13.7936 923.498,-11.573 924.375,-18.518"/>
</g>
<!-- Node8&#45;&gt;Node4 -->
<g id="edge10" class="edge"><title>Node8&#45;&gt;Node4</title>
<path fill="none" stroke="midnightblue" d="M128.825,-168.051C142.071,-153.561 170.467,-125.254 201,-112 251.519,-90.0706 410.516,-75.7034 486.617,-69.905"/>
<polygon fill="midnightblue" stroke="midnightblue" points="487.075,-73.3806 496.786,-69.1438 486.552,-66.4002 487.075,-73.3806"/>
</g>
<!-- Node9 -->
<g id="node9" class="node"><title>Node9</title>
<g id="a_node9"><a xlink:href="EigenSolver_8hpp.html" target="_top" xlink:title="Defines the EigenSolver class that implements LAPACK solution routine DSYEVD. For symmetric matrices ...">
<polygon fill="white" stroke="black" points="66,-112.5 66,-131.5 154,-131.5 154,-112.5 66,-112.5"/>
<text text-anchor="middle" x="110" y="-119.5" font-family="Helvetica,sans-Serif" font-size="10.00">EigenSolver.hpp</text>
</a>
</g>
</g>
<!-- Node8&#45;&gt;Node9 -->
<g id="edge8" class="edge"><title>Node8&#45;&gt;Node9</title>
<path fill="none" stroke="midnightblue" d="M119.184,-168.083C117.726,-160.927 115.629,-150.635 113.807,-141.691"/>
<polygon fill="midnightblue" stroke="midnightblue" points="117.208,-140.851 111.783,-131.751 110.349,-142.248 117.208,-140.851"/>
</g>
<!-- Node9&#45;&gt;Node4 -->
<g id="edge9" class="edge"><title>Node9&#45;&gt;Node4</title>
<path fill="none" stroke="midnightblue" d="M154.314,-113.986C158.932,-113.296 163.56,-112.622 168,-112 283.163,-95.8708 419.457,-79.6011 486.506,-71.7824"/>
<polygon fill="midnightblue" stroke="midnightblue" points="487.13,-75.2335 496.659,-70.6014 486.321,-68.2804 487.13,-75.2335"/>
</g>
<!-- Node10&#45;&gt;Node3 -->
<g id="edge12" class="edge"><title>Node10&#45;&gt;Node3</title>
<path fill="none" stroke="midnightblue" d="M195.511,-224.444C222.596,-215.359 265.59,-200.939 295.869,-190.783"/>
<polygon fill="midnightblue" stroke="midnightblue" points="297.24,-194.015 305.608,-187.516 295.014,-187.378 297.24,-194.015"/>
</g>
<!-- Node10&#45;&gt;Node4 -->
<g id="edge16" class="edge"><title>Node10&#45;&gt;Node4</title>
<path fill="none" stroke="midnightblue" d="M182.834,-224.381C202.58,-211.311 241.82,-186.089 277,-168 351.254,-129.82 443.404,-95.9659 492.799,-78.8381"/>
<polygon fill="midnightblue" stroke="midnightblue" points="494.063,-82.1047 502.379,-75.5403 491.784,-75.4858 494.063,-82.1047"/>
</g>
<!-- Node10&#45;&gt;Node8 -->
<g id="edge13" class="edge"><title>Node10&#45;&gt;Node8</title>
<path fill="none" stroke="midnightblue" d="M161.909,-224.083C154.845,-216.298 144.412,-204.801 135.851,-195.367"/>
<polygon fill="midnightblue" stroke="midnightblue" points="138.253,-192.805 128.941,-187.751 133.069,-197.509 138.253,-192.805"/>
</g>
<!-- Node11 -->
<g id="node11" class="node"><title>Node11</title>
<g id="a_node11"><a xlink:href="DenseMatrixInverter_8hpp.html" target="_top" xlink:title="Defines the DenseMatrixInverter class that computes the explicit inverse of a dense matrix via the LA...">
<polygon fill="white" stroke="black" points="210,-112.5 210,-131.5 334,-131.5 334,-112.5 210,-112.5"/>
<text text-anchor="middle" x="272" y="-119.5" font-family="Helvetica,sans-Serif" font-size="10.00">DenseMatrixInverter.hpp</text>
</a>
</g>
</g>
<!-- Node10&#45;&gt;Node11 -->
<g id="edge14" class="edge"><title>Node10&#45;&gt;Node11</title>
<path fill="none" stroke="midnightblue" d="M178.004,-224.368C195.06,-205.974 235.214,-162.671 257.116,-139.052"/>
<polygon fill="midnightblue" stroke="midnightblue" points="259.8,-141.304 264.033,-131.591 254.668,-136.544 259.8,-141.304"/>
</g>
<!-- Node10&#45;&gt;Node12 -->
<g id="edge17" class="edge"><title>Node10&#45;&gt;Node12</title>
<path fill="none" stroke="midnightblue" d="M213.143,-224.425C254.324,-216.129 318.353,-202.943 383.623,-188.014"/>
<polygon fill="midnightblue" stroke="midnightblue" points="384.72,-191.353 393.681,-185.701 383.152,-184.531 384.72,-191.353"/>
</g>
<!-- Node11&#45;&gt;Node4 -->
<g id="edge15" class="edge"><title>Node11&#45;&gt;Node4</title>
<path fill="none" stroke="midnightblue" d="M312.564,-112.444C360.244,-102.386 438.928,-85.7886 486.857,-75.6786"/>
<polygon fill="midnightblue" stroke="midnightblue" points="487.824,-79.0517 496.886,-73.5631 486.379,-72.2024 487.824,-79.0517"/>
</g>
<!-- Node14&#45;&gt;Node4 -->
<g id="edge22" class="edge"><title>Node14&#45;&gt;Node4</title>
<path fill="none" stroke="midnightblue" d="M521.879,-336.441C504.357,-329.62 483.477,-318.141 473,-300 451.452,-262.691 500.877,-132.998 520.453,-85.0238"/>
<polygon fill="midnightblue" stroke="midnightblue" points="523.756,-86.1953 524.338,-75.6165 517.286,-83.5228 523.756,-86.1953"/>
</g>
<!-- Node15 -->
<g id="node15" class="node"><title>Node15</title>
<g id="a_node15"><a xlink:href="OutputterBase_8hpp_source.html" target="_top" xlink:title=" ">
<polygon fill="white" stroke="black" points="482,-280.5 482,-299.5 580,-299.5 580,-280.5 482,-280.5"/>
<text text-anchor="middle" x="531" y="-287.5" font-family="Helvetica,sans-Serif" font-size="10.00">OutputterBase.hpp</text>
</a>
</g>
</g>
<!-- Node14&#45;&gt;Node15 -->
<g id="edge23" class="edge"><title>Node14&#45;&gt;Node15</title>
<path fill="none" stroke="midnightblue" d="M547.697,-336.083C545.018,-328.849 541.151,-318.409 537.814,-309.397"/>
<polygon fill="midnightblue" stroke="midnightblue" points="540.996,-307.913 534.241,-299.751 534.432,-310.344 540.996,-307.913"/>
</g>
<!-- Node14&#45;&gt;Node16 -->
<g id="edge27" class="edge"><title>Node14&#45;&gt;Node16</title>
<path fill="none" stroke="midnightblue" d="M559.174,-336.491C567.313,-327.763 579.876,-313.58 589,-300 599.187,-284.837 608.633,-266.26 614.969,-252.855"/>
<polygon fill="midnightblue" stroke="midnightblue" points="618.157,-254.3 619.17,-243.754 611.801,-251.367 618.157,-254.3"/>
</g>
<!-- Node15&#45;&gt;Node4 -->
<g id="edge24" class="edge"><title>Node15&#45;&gt;Node4</title>
<path fill="none" stroke="midnightblue" d="M537.105,-280.191C542.755,-271.46 550.755,-257.478 554,-244 567.781,-186.757 546.895,-117.233 535.127,-85.0063"/>
<polygon fill="midnightblue" stroke="midnightblue" points="538.37,-83.6861 531.55,-75.5785 531.825,-86.1698 538.37,-83.6861"/>
</g>
<!-- Node15&#45;&gt;Node16 -->
<g id="edge25" class="edge"><title>Node15&#45;&gt;Node16</title>
<path fill="none" stroke="midnightblue" d="M545.781,-280.324C560.267,-271.822 582.573,-258.729 599.493,-248.797"/>
<polygon fill="midnightblue" stroke="midnightblue" points="601.403,-251.735 608.255,-243.655 597.859,-245.698 601.403,-251.735"/>
</g>
<!-- Node17 -->
<g id="node17" class="node"><title>Node17</title>
<g id="a_node17"><a xlink:title=" ">
<polygon fill="white" stroke="#bfbfbf" points="510.5,-224.5 510.5,-243.5 545.5,-243.5 545.5,-224.5 510.5,-224.5"/>
<text text-anchor="middle" x="528" y="-231.5" font-family="Helvetica,sans-Serif" font-size="10.00">map</text>
</a>
</g>
</g>
<!-- Node15&#45;&gt;Node17 -->
<g id="edge26" class="edge"><title>Node15&#45;&gt;Node17</title>
<path fill="none" stroke="midnightblue" d="M530.505,-280.083C530.111,-273.006 529.548,-262.861 529.055,-253.986"/>
<polygon fill="midnightblue" stroke="midnightblue" points="532.536,-253.542 528.486,-243.751 525.546,-253.93 532.536,-253.542"/>
</g>
<!-- Node18&#45;&gt;Node5 -->
<g id="edge30" class="edge"><title>Node18&#45;&gt;Node5</title>
<path fill="none" stroke="midnightblue" d="M1655.29,-112.319C1647.16,-98.2158 1629.15,-70.4508 1606,-56 1562.89,-29.0849 1504.82,-18.2678 1465.32,-13.9206"/>
<polygon fill="midnightblue" stroke="midnightblue" points="1465.5,-10.421 1455.2,-12.9033 1464.8,-17.3859 1465.5,-10.421"/>
</g>
<!-- Node20 -->
<g id="node20" class="node"><title>Node20</title>
<g id="a_node20"><a xlink:title=" ">
<polygon fill="white" stroke="#bfbfbf" points="1086,-280.5 1086,-299.5 1140,-299.5 1140,-280.5 1086,-280.5"/>
<text text-anchor="middle" x="1113" y="-287.5" font-family="Helvetica,sans-Serif" font-size="10.00">iostream</text>
</a>
</g>
</g>
<!-- Node19&#45;&gt;Node20 -->
<g id="edge32" class="edge"><title>Node19&#45;&gt;Node20</title>
<path fill="none" stroke="midnightblue" d="M1087.12,-336.083C1091.41,-328.613 1097.66,-317.724 1102.94,-308.52"/>
<polygon fill="midnightblue" stroke="midnightblue" points="1106.03,-310.166 1107.98,-299.751 1099.96,-306.681 1106.03,-310.166"/>
</g>
<!-- Node21&#45;&gt;Node2 -->
<g id="edge34" class="edge"><title>Node21&#45;&gt;Node2</title>
<path fill="none" stroke="midnightblue" d="M756.238,-340.718C669.431,-331.598 465.311,-310.153 355.668,-298.634"/>
<polygon fill="midnightblue" stroke="midnightblue" points="355.993,-295.149 345.682,-297.585 355.262,-302.111 355.993,-295.149"/>
</g>
<!-- Node21&#45;&gt;Node4 -->
<g id="edge48" class="edge"><title>Node21&#45;&gt;Node4</title>
<path fill="none" stroke="midnightblue" d="M788.654,-336.375C750.606,-297.054 593.29,-134.475 543.313,-82.8253"/>
<polygon fill="midnightblue" stroke="midnightblue" points="545.717,-80.2769 536.248,-75.5243 540.687,-85.1446 545.717,-80.2769"/>
</g>
<!-- Node21&#45;&gt;Node16 -->
<g id="edge49" class="edge"><title>Node21&#45;&gt;Node16</title>
<path fill="none" stroke="midnightblue" d="M777.694,-336.499C759.282,-328.102 731.024,-314.451 708,-300 683.614,-284.694 657.6,-264.097 640.868,-250.226"/>
<polygon fill="midnightblue" stroke="midnightblue" points="642.934,-247.39 633.022,-243.648 638.437,-252.755 642.934,-247.39"/>
</g>
<!-- Node22 -->
<g id="node22" class="node"><title>Node22</title>
<g id="a_node22"><a xlink:href="BlitzHelpers_8hpp.html" target="_top" xlink:title="Defines a set of utility functions for working with blitz arrays and their matrix and vector aliases.">
<polygon fill="white" stroke="black" points="788.5,-280.5 788.5,-299.5 877.5,-299.5 877.5,-280.5 788.5,-280.5"/>
<text text-anchor="middle" x="833" y="-287.5" font-family="Helvetica,sans-Serif" font-size="10.00">BlitzHelpers.hpp</text>
</a>
</g>
</g>
<!-- Node21&#45;&gt;Node22 -->
<g id="edge35" class="edge"><title>Node21&#45;&gt;Node22</title>
<path fill="none" stroke="midnightblue" d="M802.945,-336.083C807.977,-328.534 815.337,-317.495 821.513,-308.23"/>
<polygon fill="midnightblue" stroke="midnightblue" points="824.531,-310.013 827.166,-299.751 818.707,-306.13 824.531,-310.013"/>
</g>
<!-- Node30 -->
<g id="node30" class="node"><title>Node30</title>
<g id="a_node30"><a xlink:href="LinAlgHelpers_8hpp.html" target="_top" xlink:title="Implements a set functions for basic linear algebra operations.">
<polygon fill="white" stroke="black" points="972,-280.5 972,-299.5 1068,-299.5 1068,-280.5 972,-280.5"/>
<text text-anchor="middle" x="1020" y="-287.5" font-family="Helvetica,sans-Serif" font-size="10.00">LinAlgHelpers.hpp</text>
</a>
</g>
</g>
<!-- Node21&#45;&gt;Node30 -->
<g id="edge45" class="edge"><title>Node21&#45;&gt;Node30</title>
<path fill="none" stroke="midnightblue" d="M832.335,-336.444C870.911,-327.102 932.785,-312.119 974.853,-301.933"/>
<polygon fill="midnightblue" stroke="midnightblue" points="975.935,-305.272 984.83,-299.516 974.287,-298.468 975.935,-305.272"/>
</g>
<!-- Node22&#45;&gt;Node4 -->
<g id="edge39" class="edge"><title>Node22&#45;&gt;Node4</title>
<path fill="none" stroke="midnightblue" d="M793.716,-280.464C771.955,-273.868 745.955,-262.618 729,-244 687.456,-198.381 730.439,-154.805 686,-112 654.684,-81.8353 604.634,-71.6389 569.268,-68.3256"/>
<polygon fill="midnightblue" stroke="midnightblue" points="569.501,-64.8332 559.256,-67.533 568.949,-71.8113 569.501,-64.8332"/>
</g>
<!-- Node22&#45;&gt;Node5 -->
<g id="edge40" class="edge"><title>Node22&#45;&gt;Node5</title>
<path fill="none" stroke="midnightblue" d="M877.68,-281.079C914.107,-273.813 966.463,-261.508 1010,-244 1168.92,-180.093 1342.06,-65.4047 1400.47,-25.3085"/>
<polygon fill="midnightblue" stroke="midnightblue" points="1402.59,-28.0932 1408.84,-19.5329 1398.62,-22.3318 1402.59,-28.0932"/>
</g>
<!-- Node23 -->
<g id="node23" class="node"><title>Node23</title>
<g id="a_node23"><a xlink:href="Traits_8hpp.html" target="_top" xlink:title="Defines a basic set of traits for making compile&#45;time assertions about numeric types and iterators.">
<polygon fill="white" stroke="black" points="738,-224.5 738,-243.5 798,-243.5 798,-224.5 738,-224.5"/>
<text text-anchor="middle" x="768" y="-231.5" font-family="Helvetica,sans-Serif" font-size="10.00">Traits.hpp</text>
</a>
</g>
</g>
<!-- Node22&#45;&gt;Node23 -->
<g id="edge36" class="edge"><title>Node22&#45;&gt;Node23</title>
<path fill="none" stroke="midnightblue" d="M822.557,-280.324C812.854,-272.263 798.185,-260.077 786.5,-250.369"/>
<polygon fill="midnightblue" stroke="midnightblue" points="788.562,-247.532 778.633,-243.834 784.089,-252.916 788.562,-247.532"/>
</g>
<!-- Node22&#45;&gt;Node26 -->
<g id="edge41" class="edge"><title>Node22&#45;&gt;Node26</title>
<path fill="none" stroke="midnightblue" d="M877.573,-281.548C943.556,-270.517 1065.66,-250.103 1123.72,-240.397"/>
<polygon fill="midnightblue" stroke="midnightblue" points="1124.5,-243.815 1133.79,-238.714 1123.35,-236.911 1124.5,-243.815"/>
</g>
<!-- Node27 -->
<g id="node27" class="node"><title>Node27</title>
<g id="a_node27"><a xlink:title=" ">
<polygon fill="white" stroke="#bfbfbf" points="816.5,-224.5 816.5,-243.5 865.5,-243.5 865.5,-224.5 816.5,-224.5"/>
<text text-anchor="middle" x="841" y="-231.5" font-family="Helvetica,sans-Serif" font-size="10.00">cstddef</text>
</a>
</g>
</g>
<!-- Node22&#45;&gt;Node27 -->
<g id="edge42" class="edge"><title>Node22&#45;&gt;Node27</title>
<path fill="none" stroke="midnightblue" d="M834.321,-280.083C835.381,-272.927 836.906,-262.635 838.231,-253.691"/>
<polygon fill="midnightblue" stroke="midnightblue" points="841.7,-254.156 839.704,-243.751 834.776,-253.13 841.7,-254.156"/>
</g>
<!-- Node28 -->
<g id="node28" class="node"><title>Node28</title>
<g id="a_node28"><a xlink:title=" ">
<polygon fill="white" stroke="#bfbfbf" points="884,-224.5 884,-243.5 924,-243.5 924,-224.5 884,-224.5"/>
<text text-anchor="middle" x="904" y="-231.5" font-family="Helvetica,sans-Serif" font-size="10.00">limits</text>
</a>
</g>
</g>
<!-- Node22&#45;&gt;Node28 -->
<g id="edge43" class="edge"><title>Node22&#45;&gt;Node28</title>
<path fill="none" stroke="midnightblue" d="M844.407,-280.324C855.109,-272.185 871.341,-259.839 884.163,-250.087"/>
<polygon fill="midnightblue" stroke="midnightblue" points="886.544,-252.673 892.385,-243.834 882.307,-247.102 886.544,-252.673"/>
</g>
<!-- Node22&#45;&gt;Node29 -->
<g id="edge44" class="edge"><title>Node22&#45;&gt;Node29</title>
<path fill="none" stroke="midnightblue" d="M855.025,-280.444C878.104,-271.478 914.562,-257.314 940.641,-247.183"/>
<polygon fill="midnightblue" stroke="midnightblue" points="942.024,-250.4 950.078,-243.516 939.489,-243.875 942.024,-250.4"/>
</g>
<!-- Node24 -->
<g id="node24" class="node"><title>Node24</title>
<g id="a_node24"><a xlink:title=" ">
<polygon fill="white" stroke="#bfbfbf" points="741.5,-168.5 741.5,-187.5 788.5,-187.5 788.5,-168.5 741.5,-168.5"/>
<text text-anchor="middle" x="765" y="-175.5" font-family="Helvetica,sans-Serif" font-size="10.00">iterator</text>
</a>
</g>
</g>
<!-- Node23&#45;&gt;Node24 -->
<g id="edge37" class="edge"><title>Node23&#45;&gt;Node24</title>
<path fill="none" stroke="midnightblue" d="M767.505,-224.083C767.111,-217.006 766.548,-206.861 766.055,-197.986"/>
<polygon fill="midnightblue" stroke="midnightblue" points="769.536,-197.542 765.486,-187.751 762.546,-197.93 769.536,-197.542"/>
</g>
<!-- Node25 -->
<g id="node25" class="node"><title>Node25</title>
<g id="a_node25"><a xlink:title=" ">
<polygon fill="white" stroke="#bfbfbf" points="807,-168.5 807,-187.5 869,-187.5 869,-168.5 807,-168.5"/>
<text text-anchor="middle" x="838" y="-175.5" font-family="Helvetica,sans-Serif" font-size="10.00">type_traits</text>
</a>
</g>
</g>
<!-- Node23&#45;&gt;Node25 -->
<g id="edge38" class="edge"><title>Node23&#45;&gt;Node25</title>
<path fill="none" stroke="midnightblue" d="M779.247,-224.324C789.797,-216.185 805.801,-203.839 818.442,-194.087"/>
<polygon fill="midnightblue" stroke="midnightblue" points="820.769,-196.713 826.549,-187.834 816.493,-191.171 820.769,-196.713"/>
</g>
<!-- Node30&#45;&gt;Node4 -->
<g id="edge46" class="edge"><title>Node30&#45;&gt;Node4</title>
<path fill="none" stroke="midnightblue" d="M1026.37,-280.232C1032.26,-271.532 1040.61,-257.572 1044,-244 1052.19,-211.231 1060.76,-197.328 1044,-168 1019.69,-125.444 995.531,-127.397 949,-112 879.117,-88.8752 660.898,-74.3906 569.218,-69.1809"/>
<polygon fill="midnightblue" stroke="midnightblue" points="569.378,-65.6844 559.197,-68.6199 568.986,-72.6735 569.378,-65.6844"/>
</g>
<!-- Node30&#45;&gt;Node26 -->
<g id="edge47" class="edge"><title>Node30&#45;&gt;Node26</title>
<path fill="none" stroke="midnightblue" d="M1041.55,-280.444C1064.03,-271.517 1099.49,-257.439 1124.98,-247.317"/>
<polygon fill="midnightblue" stroke="midnightblue" points="1126.55,-250.46 1134.55,-243.516 1123.97,-243.954 1126.55,-250.46"/>
</g>
<!-- Node31&#45;&gt;Node4 -->
<g id="edge51" class="edge"><title>Node31&#45;&gt;Node4</title>
<path fill="none" stroke="midnightblue" d="M865.673,-115.625C795.131,-105.467 642.751,-83.5241 569.274,-72.9434"/>
<polygon fill="midnightblue" stroke="midnightblue" points="569.421,-69.4286 559.024,-71.4675 568.423,-76.3572 569.421,-69.4286"/>
</g>
<!-- Node32&#45;&gt;Node4 -->
<g id="edge54" class="edge"><title>Node32&#45;&gt;Node4</title>
<path fill="none" stroke="midnightblue" d="M1231.76,-336.372C1228.28,-315.018 1216.72,-258.91 1187,-224 1122.46,-148.191 1087.81,-142.374 993,-112 914.563,-86.8724 667.905,-73.2914 569.314,-68.7516"/>
<polygon fill="midnightblue" stroke="midnightblue" points="569.29,-65.247 559.142,-68.2912 568.973,-72.2398 569.29,-65.247"/>
</g>
<!-- Node32&#45;&gt;Node7 -->
<g id="edge63" class="edge"><title>Node32&#45;&gt;Node7</title>
<path fill="none" stroke="midnightblue" d="M1283.22,-345.877C1366.84,-346.144 1529.03,-341.176 1565,-300 1570.85,-293.306 1569.85,-287.448 1565,-280 1429.73,-72.3783 1093.92,-23.8464 988.32,-13.5546"/>
<polygon fill="midnightblue" stroke="midnightblue" points="988.553,-10.0612 978.273,-12.6247 987.907,-17.0314 988.553,-10.0612"/>
</g>
<!-- Node32&#45;&gt;Node16 -->
<g id="edge61" class="edge"><title>Node32&#45;&gt;Node16</title>
<path fill="none" stroke="midnightblue" d="M1182.66,-340.413C1068.51,-329.954 798.345,-304.874 779,-300 730.992,-287.905 678.496,-263.515 648.286,-248.292"/>
<polygon fill="midnightblue" stroke="midnightblue" points="649.792,-245.132 639.294,-243.699 646.608,-251.365 649.792,-245.132"/>
</g>
<!-- Node32&#45;&gt;Node20 -->
<g id="edge58" class="edge"><title>Node32&#45;&gt;Node20</title>
<path fill="none" stroke="midnightblue" d="M1213.99,-336.444C1194.41,-327.636 1163.69,-313.812 1141.27,-303.722"/>
<polygon fill="midnightblue" stroke="midnightblue" points="1142.48,-300.428 1131.93,-299.516 1139.61,-306.812 1142.48,-300.428"/>
</g>
<!-- Node32&#45;&gt;Node26 -->
<g id="edge56" class="edge"><title>Node32&#45;&gt;Node26</title>
<path fill="none" stroke="midnightblue" d="M1223.85,-336.23C1215.07,-327.529 1201.73,-313.568 1192,-300 1181.21,-284.966 1171.21,-266.373 1164.5,-252.929"/>
<polygon fill="midnightblue" stroke="midnightblue" points="1167.58,-251.255 1160.06,-243.797 1161.29,-254.32 1167.58,-251.255"/>
</g>
<!-- Node32&#45;&gt;Node30 -->
<g id="edge53" class="edge"><title>Node32&#45;&gt;Node30</title>
<path fill="none" stroke="midnightblue" d="M1199.25,-336.444C1162.48,-327.122 1103.55,-312.183 1063.38,-301.997"/>
<polygon fill="midnightblue" stroke="midnightblue" points="1064.15,-298.581 1053.59,-299.516 1062.43,-305.367 1064.15,-298.581"/>
</g>
<!-- Node33 -->
<g id="node33" class="node"><title>Node33</title>
<g id="a_node33"><a xlink:title=" ">
<polygon fill="white" stroke="#bfbfbf" points="1362,-280.5 1362,-299.5 1418,-299.5 1418,-280.5 1362,-280.5"/>
<text text-anchor="middle" x="1390" y="-287.5" font-family="Helvetica,sans-Serif" font-size="10.00">algorithm</text>
</a>
</g>
</g>
<!-- Node32&#45;&gt;Node33 -->
<g id="edge55" class="edge"><title>Node32&#45;&gt;Node33</title>
<path fill="none" stroke="midnightblue" d="M1257.88,-336.444C1284.29,-327.359 1326.22,-312.939 1355.74,-302.783"/>
<polygon fill="midnightblue" stroke="midnightblue" points="1356.92,-306.079 1365.24,-299.516 1354.64,-299.459 1356.92,-306.079"/>
</g>
<!-- Node34 -->
<g id="node34" class="node"><title>Node34</title>
<g id="a_node34"><a xlink:title=" ">
<polygon fill="white" stroke="#bfbfbf" points="1436,-280.5 1436,-299.5 1486,-299.5 1486,-280.5 1436,-280.5"/>
<text text-anchor="middle" x="1461" y="-287.5" font-family="Helvetica,sans-Serif" font-size="10.00">iomanip</text>
</a>
</g>
</g>
<!-- Node32&#45;&gt;Node34 -->
<g id="edge57" class="edge"><title>Node32&#45;&gt;Node34</title>
<path fill="none" stroke="midnightblue" d="M1271.37,-336.468C1308.49,-328.129 1366.61,-314.863 1425.87,-300.227"/>
<polygon fill="midnightblue" stroke="midnightblue" points="1426.91,-303.575 1435.77,-297.771 1425.22,-296.781 1426.91,-303.575"/>
</g>
<!-- Node35 -->
<g id="node35" class="node"><title>Node35</title>
<g id="a_node35"><a xlink:title=" ">
<polygon fill="white" stroke="#bfbfbf" points="1504,-280.5 1504,-299.5 1556,-299.5 1556,-280.5 1504,-280.5"/>
<text text-anchor="middle" x="1530" y="-287.5" font-family="Helvetica,sans-Serif" font-size="10.00">ostream</text>
</a>
</g>
</g>
<!-- Node32&#45;&gt;Node35 -->
<g id="edge59" class="edge"><title>Node32&#45;&gt;Node35</title>
<path fill="none" stroke="midnightblue" d="M1283.46,-337.585C1334.22,-329.845 1414.93,-316.779 1493.6,-300.164"/>
<polygon fill="midnightblue" stroke="midnightblue" points="1494.63,-303.523 1503.68,-298.013 1493.17,-296.677 1494.63,-303.523"/>
</g>
<!-- Node36 -->
<g id="node36" class="node"><title>Node36</title>
<g id="a_node36"><a xlink:title=" ">
<polygon fill="white" stroke="#bfbfbf" points="1234,-280.5 1234,-299.5 1286,-299.5 1286,-280.5 1234,-280.5"/>
<text text-anchor="middle" x="1260" y="-287.5" font-family="Helvetica,sans-Serif" font-size="10.00">sstream</text>
</a>
</g>
</g>
<!-- Node32&#45;&gt;Node36 -->
<g id="edge60" class="edge"><title>Node32&#45;&gt;Node36</title>
<path fill="none" stroke="midnightblue" d="M1237.46,-336.083C1241.15,-328.691 1246.52,-317.953 1251.09,-308.811"/>
<polygon fill="midnightblue" stroke="midnightblue" points="1254.28,-310.261 1255.62,-299.751 1248.02,-307.13 1254.28,-310.261"/>
</g>
<!-- Node37 -->
<g id="node37" class="node"><title>Node37</title>
<g id="a_node37"><a xlink:title=" ">
<polygon fill="white" stroke="#bfbfbf" points="1304,-280.5 1304,-299.5 1344,-299.5 1344,-280.5 1304,-280.5"/>
<text text-anchor="middle" x="1324" y="-287.5" font-family="Helvetica,sans-Serif" font-size="10.00">utility</text>
</a>
</g>
</g>
<!-- Node32&#45;&gt;Node37 -->
<g id="edge62" class="edge"><title>Node32&#45;&gt;Node37</title>
<path fill="none" stroke="midnightblue" d="M1247.62,-336.324C1261.95,-327.822 1284.01,-314.729 1300.75,-304.797"/>
<polygon fill="midnightblue" stroke="midnightblue" points="1302.6,-307.768 1309.42,-299.655 1299.03,-301.748 1302.6,-307.768"/>
</g>
</g>
</svg>
