<?xml version="1.0" encoding="UTF-8" standalone="no"?>
<!DOCTYPE svg PUBLIC "-//W3C//DTD SVG 1.1//EN"
 "http://www.w3.org/Graphics/SVG/1.1/DTD/svg11.dtd">
<!-- Generated by graphviz version 2.38.0 (20140413.2041)
 -->
<!-- Title: src/poisson1d/Poisson1d.hpp Pages: 1 -->
<!--zoomable 364 -->
<svg id="main" version="1.1" xmlns="http://www.w3.org/2000/svg" xmlns:xlink="http://www.w3.org/1999/xlink" xml:space="preserve" onload="init(evt)">
<style type="text/css"><![CDATA[
.edge:hover path { stroke: red; }
.edge:hover polygon { stroke: red; fill: red; }
]]></style>
<script type="text/javascript"><![CDATA[
var edges = document.getElementsByTagName('g');
if (edges && edges.length) {
  for (var i=0;i<edges.length;i++) {
    if (edges[i].id.substr(0,4)=='edge') {
      edges[i].setAttribute('class','edge');
    }
  }
}
]]></script>
        <defs>
                <circle id="rim" cx="0" cy="0" r="7"/>
                <circle id="rim2" cx="0" cy="0" r="3.5"/>
                <g id="zoomPlus">
                        <use xlink:href="#rim" fill="#404040">
                                <set attributeName="fill" to="#808080" begin="zoomplus.mouseover" end="zoomplus.mouseout"/>
                        </use>
                        <path d="M-4,0h8M0,-4v8" fill="none" stroke="white" stroke-width="1.5" pointer-events="none"/>
                </g>
                <g id="zoomMin">
                        <use xlink:href="#rim" fill="#404040">
                                <set attributeName="fill" to="#808080" begin="zoomminus.mouseover" end="zoomminus.mouseout"/>
                        </use>
                        <path d="M-4,0h8" fill="none" stroke="white" stroke-width="1.5" pointer-events="none"/>
                </g>
                <g id="dirArrow">
                        <path fill="none" stroke="white" stroke-width="1.5" d="M0,-3.0v7 M-2.5,-0.5L0,-3.0L2.5,-0.5"/>
                </g>
               <g id="resetDef">
                       <use xlink:href="#rim2" fill="#404040">
                               <set attributeName="fill" to="#808080" begin="reset.mouseover" end="reset.mouseout"/>
                       </use>
               </g>
        </defs>

<script type="text/javascript">
var viewWidth = 828;
var viewHeight = 364;
var sectionId = 'dynsection-0';
</script>
<script xlink:href="svgpan.js"/>
<svg id="graph" class="graph">
<g id="viewport">
<title>src/poisson1d/Poisson1d.hpp</title>
<polygon fill="white" stroke="none" points="-4,4 -4,-360 824,-360 824,4 -4,4"/>
<!-- Node1 -->
<g id="node1" class="node"><title>Node1</title>
<g id="a_node1"><a xlink:title="Short header file for 1D Poisson solver&#39;s main.cpp file.">
<polygon fill="#bfbfbf" stroke="black" points="433,-336.5 433,-355.5 578,-355.5 578,-336.5 433,-336.5"/>
<text text-anchor="middle" x="505.5" y="-343.5" font-family="Helvetica,sans-Serif" font-size="10.00">src/poisson1d/Poisson1d.hpp</text>
</a>
</g>
</g>
<!-- Node2 -->
<g id="node2" class="node"><title>Node2</title>
<g id="a_node2"><a xlink:href="Nodes1DProvisioner_8hpp.html" target="_top" xlink:title="Defines a class for computations related to the construction of one&#45;dimensional nodes,...">
<polygon fill="white" stroke="black" points="216,-280.5 216,-299.5 341,-299.5 341,-280.5 216,-280.5"/>
<text text-anchor="middle" x="278.5" y="-287.5" font-family="Helvetica,sans-Serif" font-size="10.00">Nodes1DProvisioner.hpp</text>
</a>
</g>
</g>
<!-- Node1&#45;&gt;Node2 -->
<g id="edge1" class="edge"><title>Node1&#45;&gt;Node2</title>
<path fill="none" stroke="midnightblue" d="M469.531,-336.444C430.181,-327.083 367.013,-312.056 324.186,-301.868"/>
<polygon fill="midnightblue" stroke="midnightblue" points="324.839,-298.426 314.301,-299.516 323.219,-305.236 324.839,-298.426"/>
</g>
<!-- Node4 -->
<g id="node4" class="node"><title>Node4</title>
<g id="a_node4"><a xlink:href="Types_8hpp.html" target="_top" xlink:title="Defines the basic types used throughout this project.">
<polygon fill="white" stroke="black" points="356.5,-56.5 356.5,-75.5 418.5,-75.5 418.5,-56.5 356.5,-56.5"/>
<text text-anchor="middle" x="387.5" y="-63.5" font-family="Helvetica,sans-Serif" font-size="10.00">Types.hpp</text>
</a>
</g>
</g>
<!-- Node1&#45;&gt;Node4 -->
<g id="edge34" class="edge"><title>Node1&#45;&gt;Node4</title>
<path fill="none" stroke="midnightblue" d="M497.333,-336.384C481.572,-318.812 448.5,-276.942 448.5,-235 448.5,-235 448.5,-235 448.5,-177 448.5,-139.574 421.16,-102.958 403.087,-82.8412"/>
<polygon fill="midnightblue" stroke="midnightblue" points="405.622,-80.4285 396.24,-75.5071 400.505,-85.2053 405.622,-80.4285"/>
</g>
<!-- Node14 -->
<g id="node14" class="node"><title>Node14</title>
<g id="a_node14"><a xlink:href="BlitzHelpers_8hpp.html" target="_top" xlink:title="Defines a set of utility functions for working with blitz arrays and their matrix and vector aliases.">
<polygon fill="white" stroke="black" points="591,-112.5 591,-131.5 680,-131.5 680,-112.5 591,-112.5"/>
<text text-anchor="middle" x="635.5" y="-119.5" font-family="Helvetica,sans-Serif" font-size="10.00">BlitzHelpers.hpp</text>
</a>
</g>
</g>
<!-- Node1&#45;&gt;Node14 -->
<g id="edge21" class="edge"><title>Node1&#45;&gt;Node14</title>
<path fill="none" stroke="midnightblue" d="M510.596,-336.297C529.927,-303.286 598.957,-185.404 625.239,-140.522"/>
<polygon fill="midnightblue" stroke="midnightblue" points="628.265,-142.282 630.298,-131.884 622.224,-138.744 628.265,-142.282"/>
</g>
<!-- Node22 -->
<g id="node22" class="node"><title>Node22</title>
<g id="a_node22"><a xlink:href="LinAlgHelpers_8hpp.html" target="_top" xlink:title="Implements a set functions for basic linear algebra operations.">
<polygon fill="white" stroke="black" points="476.5,-112.5 476.5,-131.5 572.5,-131.5 572.5,-112.5 476.5,-112.5"/>
<text text-anchor="middle" x="524.5" y="-119.5" font-family="Helvetica,sans-Serif" font-size="10.00">LinAlgHelpers.hpp</text>
</a>
</g>
</g>
<!-- Node1&#45;&gt;Node22 -->
<g id="edge31" class="edge"><title>Node1&#45;&gt;Node22</title>
<path fill="none" stroke="midnightblue" d="M506.245,-336.297C509.04,-303.633 518.948,-187.866 522.878,-141.957"/>
<polygon fill="midnightblue" stroke="midnightblue" points="526.374,-142.146 523.74,-131.884 519.4,-141.549 526.374,-142.146"/>
</g>
<!-- Node23 -->
<g id="node23" class="node"><title>Node23</title>
<g id="a_node23"><a xlink:title=" ">
<polygon fill="white" stroke="#bfbfbf" points="572,-280.5 572,-299.5 613,-299.5 613,-280.5 572,-280.5"/>
<text text-anchor="middle" x="592.5" y="-287.5" font-family="Helvetica,sans-Serif" font-size="10.00">string</text>
</a>
</g>
</g>
<!-- Node1&#45;&gt;Node23 -->
<g id="edge35" class="edge"><title>Node1&#45;&gt;Node23</title>
<path fill="none" stroke="midnightblue" d="M519.478,-336.324C533.05,-327.9 553.88,-314.971 569.825,-305.074"/>
<polygon fill="midnightblue" stroke="midnightblue" points="571.906,-307.902 578.557,-299.655 568.214,-301.954 571.906,-307.902"/>
</g>
<!-- Node3 -->
<g id="node3" class="node"><title>Node3</title>
<g id="a_node3"><a xlink:href="DirectSolver_8hpp.html" target="_top" xlink:title="Defines the DirectSolver class that implements LAPACK direct solution routine DSGESV....">
<polygon fill="white" stroke="black" points="0,-168.5 0,-187.5 89,-187.5 89,-168.5 0,-168.5"/>
<text text-anchor="middle" x="44.5" y="-175.5" font-family="Helvetica,sans-Serif" font-size="10.00">DirectSolver.hpp</text>
</a>
</g>
</g>
<!-- Node2&#45;&gt;Node3 -->
<g id="edge2" class="edge"><title>Node2&#45;&gt;Node3</title>
<path fill="none" stroke="midnightblue" d="M215.913,-286.875C148.489,-283.114 47.5904,-272.714 23.5,-244 11.9952,-230.287 21.357,-210.149 30.979,-195.929"/>
<polygon fill="midnightblue" stroke="midnightblue" points="34.0229,-197.697 37.1228,-187.566 28.3816,-193.553 34.0229,-197.697"/>
</g>
<!-- Node2&#45;&gt;Node4 -->
<g id="edge18" class="edge"><title>Node2&#45;&gt;Node4</title>
<path fill="none" stroke="midnightblue" d="M309.477,-280.406C329.294,-273.482 354.242,-261.901 370.5,-244 410.578,-199.871 399.866,-121.607 392.184,-85.8126"/>
<polygon fill="midnightblue" stroke="midnightblue" points="395.527,-84.7348 389.864,-75.7804 388.707,-86.3119 395.527,-84.7348"/>
</g>
<!-- Node8 -->
<g id="node8" class="node"><title>Node8</title>
<g id="a_node8"><a xlink:href="JacobiBuilders_8hpp.html" target="_top" xlink:title="Defines the JacobiBuilders class that constructs Jacobi polynomials, their derivatives,...">
<polygon fill="white" stroke="black" points="136,-168.5 136,-187.5 235,-187.5 235,-168.5 136,-168.5"/>
<text text-anchor="middle" x="185.5" y="-175.5" font-family="Helvetica,sans-Serif" font-size="10.00">JacobiBuilders.hpp</text>
</a>
</g>
</g>
<!-- Node2&#45;&gt;Node8 -->
<g id="edge7" class="edge"><title>Node2&#45;&gt;Node8</title>
<path fill="none" stroke="midnightblue" d="M254.894,-280.387C238.202,-273.13 216.554,-261.162 203.5,-244 193.32,-230.616 188.897,-211.793 186.975,-197.845"/>
<polygon fill="midnightblue" stroke="midnightblue" points="190.455,-197.471 185.908,-187.902 183.495,-198.218 190.455,-197.471"/>
</g>
<!-- Node10 -->
<g id="node10" class="node"><title>Node10</title>
<g id="a_node10"><a xlink:href="VandermondeBuilders_8hpp.html" target="_top" xlink:title="Defines a class for computating the generalized Vandermonde, its gradient, and its inverse for 1D ort...">
<polygon fill="white" stroke="black" points="213,-224.5 213,-243.5 344,-243.5 344,-224.5 213,-224.5"/>
<text text-anchor="middle" x="278.5" y="-231.5" font-family="Helvetica,sans-Serif" font-size="10.00">VandermondeBuilders.hpp</text>
</a>
</g>
</g>
<!-- Node2&#45;&gt;Node10 -->
<g id="edge11" class="edge"><title>Node2&#45;&gt;Node10</title>
<path fill="none" stroke="midnightblue" d="M278.5,-280.083C278.5,-273.006 278.5,-262.861 278.5,-253.986"/>
<polygon fill="midnightblue" stroke="midnightblue" points="282,-253.751 278.5,-243.751 275,-253.751 282,-253.751"/>
</g>
<!-- Node12 -->
<g id="node12" class="node"><title>Node12</title>
<g id="a_node12"><a xlink:title=" ">
<polygon fill="white" stroke="#bfbfbf" points="330.5,-168.5 330.5,-187.5 382.5,-187.5 382.5,-168.5 330.5,-168.5"/>
<text text-anchor="middle" x="356.5" y="-175.5" font-family="Helvetica,sans-Serif" font-size="10.00">memory</text>
</a>
</g>
</g>
<!-- Node2&#45;&gt;Node12 -->
<g id="edge19" class="edge"><title>Node2&#45;&gt;Node12</title>
<path fill="none" stroke="midnightblue" d="M304.34,-280.455C321.113,-273.454 341.779,-261.766 352.5,-244 360.806,-230.236 361.119,-211.71 359.756,-197.957"/>
<polygon fill="midnightblue" stroke="midnightblue" points="363.181,-197.17 358.356,-187.737 356.246,-198.12 363.181,-197.17"/>
</g>
<!-- Node13 -->
<g id="node13" class="node"><title>Node13</title>
<g id="a_node13"><a xlink:title=" ">
<polygon fill="white" stroke="#bfbfbf" points="32.5,-224.5 32.5,-243.5 156.5,-243.5 156.5,-224.5 32.5,-224.5"/>
<text text-anchor="middle" x="94.5" y="-231.5" font-family="Helvetica,sans-Serif" font-size="10.00">boost/python/numpy.hpp</text>
</a>
</g>
</g>
<!-- Node2&#45;&gt;Node13 -->
<g id="edge20" class="edge"><title>Node2&#45;&gt;Node13</title>
<path fill="none" stroke="midnightblue" d="M249.345,-280.444C217.987,-271.241 167.969,-256.562 133.303,-246.388"/>
<polygon fill="midnightblue" stroke="midnightblue" points="134.1,-242.974 123.519,-243.516 132.129,-249.691 134.1,-242.974"/>
</g>
<!-- Node3&#45;&gt;Node4 -->
<g id="edge3" class="edge"><title>Node3&#45;&gt;Node4</title>
<path fill="none" stroke="midnightblue" d="M44.2721,-168.283C44.418,-154.128 46.9477,-126.291 63.5,-112 105.016,-76.1558 268.348,-68.7835 346.027,-67.3239"/>
<polygon fill="midnightblue" stroke="midnightblue" points="346.456,-70.8175 356.397,-67.1549 346.342,-63.8184 346.456,-70.8175"/>
</g>
<!-- Node5 -->
<g id="node5" class="node"><title>Node5</title>
<g id="a_node5"><a xlink:title=" ">
<polygon fill="white" stroke="#bfbfbf" points="527.5,-0.5 527.5,-19.5 595.5,-19.5 595.5,-0.5 527.5,-0.5"/>
<text text-anchor="middle" x="561.5" y="-7.5" font-family="Helvetica,sans-Serif" font-size="10.00">blitz/array.h</text>
</a>
</g>
</g>
<!-- Node4&#45;&gt;Node5 -->
<g id="edge4" class="edge"><title>Node4&#45;&gt;Node5</title>
<path fill="none" stroke="midnightblue" d="M415.071,-56.4435C444.597,-47.2801 491.618,-32.6876 524.383,-22.5192"/>
<polygon fill="midnightblue" stroke="midnightblue" points="525.545,-25.8232 534.058,-19.5164 523.47,-19.1378 525.545,-25.8232"/>
</g>
<!-- Node6 -->
<g id="node6" class="node"><title>Node6</title>
<g id="a_node6"><a xlink:title=" ">
<polygon fill="white" stroke="#bfbfbf" points="305,-0.5 305,-19.5 388,-19.5 388,-0.5 305,-0.5"/>
<text text-anchor="middle" x="346.5" y="-7.5" font-family="Helvetica,sans-Serif" font-size="10.00">unordered_map</text>
</a>
</g>
</g>
<!-- Node4&#45;&gt;Node6 -->
<g id="edge5" class="edge"><title>Node4&#45;&gt;Node6</title>
<path fill="none" stroke="midnightblue" d="M380.73,-56.083C374.938,-48.4554 366.442,-37.2645 359.362,-27.9408"/>
<polygon fill="midnightblue" stroke="midnightblue" points="361.979,-25.5991 353.144,-19.7511 356.404,-29.8321 361.979,-25.5991"/>
</g>
<!-- Node7 -->
<g id="node7" class="node"><title>Node7</title>
<g id="a_node7"><a xlink:title=" ">
<polygon fill="white" stroke="#bfbfbf" points="406.5,-0.5 406.5,-19.5 450.5,-19.5 450.5,-0.5 406.5,-0.5"/>
<text text-anchor="middle" x="428.5" y="-7.5" font-family="Helvetica,sans-Serif" font-size="10.00">vector</text>
</a>
</g>
</g>
<!-- Node4&#45;&gt;Node7 -->
<g id="edge6" class="edge"><title>Node4&#45;&gt;Node7</title>
<path fill="none" stroke="midnightblue" d="M394.27,-56.083C400.062,-48.4554 408.558,-37.2645 415.638,-27.9408"/>
<polygon fill="midnightblue" stroke="midnightblue" points="418.596,-29.8321 421.856,-19.7511 413.021,-25.5991 418.596,-29.8321"/>
</g>
<!-- Node8&#45;&gt;Node4 -->
<g id="edge10" class="edge"><title>Node8&#45;&gt;Node4</title>
<path fill="none" stroke="midnightblue" d="M185.88,-168.447C186.976,-154.526 191.207,-127.019 207.5,-112 245.303,-77.1551 305.935,-68.2674 346.236,-66.5147"/>
<polygon fill="midnightblue" stroke="midnightblue" points="346.382,-70.0119 356.27,-66.2067 346.168,-63.0152 346.382,-70.0119"/>
</g>
<!-- Node9 -->
<g id="node9" class="node"><title>Node9</title>
<g id="a_node9"><a xlink:href="EigenSolver_8hpp.html" target="_top" xlink:title="Defines the EigenSolver class that implements LAPACK solution routine DSYEVD. For symmetric matrices ...">
<polygon fill="white" stroke="black" points="72.5,-112.5 72.5,-131.5 160.5,-131.5 160.5,-112.5 72.5,-112.5"/>
<text text-anchor="middle" x="116.5" y="-119.5" font-family="Helvetica,sans-Serif" font-size="10.00">EigenSolver.hpp</text>
</a>
</g>
</g>
<!-- Node8&#45;&gt;Node9 -->
<g id="edge8" class="edge"><title>Node8&#45;&gt;Node9</title>
<path fill="none" stroke="midnightblue" d="M174.414,-168.324C164.014,-160.185 148.239,-147.839 135.778,-138.087"/>
<polygon fill="midnightblue" stroke="midnightblue" points="137.82,-135.241 127.788,-131.834 133.506,-140.753 137.82,-135.241"/>
</g>
<!-- Node9&#45;&gt;Node4 -->
<g id="edge9" class="edge"><title>Node9&#45;&gt;Node4</title>
<path fill="none" stroke="midnightblue" d="M159.441,-112.444C210.684,-102.233 295.759,-85.2806 346.246,-75.2204"/>
<polygon fill="midnightblue" stroke="midnightblue" points="347.043,-78.6305 356.166,-73.2437 345.675,-71.7655 347.043,-78.6305"/>
</g>
<!-- Node10&#45;&gt;Node3 -->
<g id="edge12" class="edge"><title>Node10&#45;&gt;Node3</title>
<path fill="none" stroke="midnightblue" d="M241.422,-224.444C200.772,-215.063 135.468,-199.993 91.3156,-189.804"/>
<polygon fill="midnightblue" stroke="midnightblue" points="91.9355,-186.355 81.4045,-187.516 90.3614,-193.175 91.9355,-186.355"/>
</g>
<!-- Node10&#45;&gt;Node4 -->
<g id="edge16" class="edge"><title>Node10&#45;&gt;Node4</title>
<path fill="none" stroke="midnightblue" d="M283.863,-224.446C291.807,-211.881 307.295,-187.783 321.5,-168 333.323,-151.535 338.138,-148.786 349.5,-132 360.01,-116.473 370.672,-97.9395 378.016,-84.6432"/>
<polygon fill="midnightblue" stroke="midnightblue" points="381.215,-86.0883 382.928,-75.6329 375.069,-82.7377 381.215,-86.0883"/>
</g>
<!-- Node10&#45;&gt;Node8 -->
<g id="edge13" class="edge"><title>Node10&#45;&gt;Node8</title>
<path fill="none" stroke="midnightblue" d="M263.558,-224.324C248.915,-215.822 226.366,-202.729 209.262,-192.797"/>
<polygon fill="midnightblue" stroke="midnightblue" points="210.81,-189.649 200.405,-187.655 207.295,-195.703 210.81,-189.649"/>
</g>
<!-- Node11 -->
<g id="node11" class="node"><title>Node11</title>
<g id="a_node11"><a xlink:href="DenseMatrixInverter_8hpp.html" target="_top" xlink:title="Defines the DenseMatrixInverter class that computes the explicit inverse of a dense matrix via the LA...">
<polygon fill="white" stroke="black" points="216.5,-112.5 216.5,-131.5 340.5,-131.5 340.5,-112.5 216.5,-112.5"/>
<text text-anchor="middle" x="278.5" y="-119.5" font-family="Helvetica,sans-Serif" font-size="10.00">DenseMatrixInverter.hpp</text>
</a>
</g>
</g>
<!-- Node10&#45;&gt;Node11 -->
<g id="edge14" class="edge"><title>Node10&#45;&gt;Node11</title>
<path fill="none" stroke="midnightblue" d="M278.5,-224.368C278.5,-206.617 278.5,-165.666 278.5,-141.597"/>
<polygon fill="midnightblue" stroke="midnightblue" points="282,-141.591 278.5,-131.591 275,-141.591 282,-141.591"/>
</g>
<!-- Node10&#45;&gt;Node12 -->
<g id="edge17" class="edge"><title>Node10&#45;&gt;Node12</title>
<path fill="none" stroke="midnightblue" d="M291.032,-224.324C303.086,-215.979 321.527,-203.212 335.769,-193.352"/>
<polygon fill="midnightblue" stroke="midnightblue" points="337.769,-196.224 343.999,-187.655 333.785,-190.469 337.769,-196.224"/>
</g>
<!-- Node11&#45;&gt;Node4 -->
<g id="edge15" class="edge"><title>Node11&#45;&gt;Node4</title>
<path fill="none" stroke="midnightblue" d="M296.013,-112.324C313.572,-103.625 340.831,-90.1202 361.031,-80.113"/>
<polygon fill="midnightblue" stroke="midnightblue" points="362.624,-83.23 370.031,-75.6545 359.516,-76.9575 362.624,-83.23"/>
</g>
<!-- Node14&#45;&gt;Node4 -->
<g id="edge25" class="edge"><title>Node14&#45;&gt;Node4</title>
<path fill="none" stroke="midnightblue" d="M596.204,-112.444C550.492,-102.49 475.362,-86.1313 428.808,-75.9944"/>
<polygon fill="midnightblue" stroke="midnightblue" points="429.276,-72.5144 418.76,-73.8067 427.787,-79.3542 429.276,-72.5144"/>
</g>
<!-- Node14&#45;&gt;Node5 -->
<g id="edge26" class="edge"><title>Node14&#45;&gt;Node5</title>
<path fill="none" stroke="midnightblue" d="M640.199,-112.315C646.617,-99.1602 656.175,-73.8284 645.5,-56 636.351,-40.7189 620.041,-30.332 604.212,-23.4255"/>
<polygon fill="midnightblue" stroke="midnightblue" points="605.072,-20.0012 594.486,-19.5623 602.488,-26.5068 605.072,-20.0012"/>
</g>
<!-- Node15 -->
<g id="node15" class="node"><title>Node15</title>
<g id="a_node15"><a xlink:href="Traits_8hpp.html" target="_top" xlink:title="Defines a basic set of traits for making compile&#45;time assertions about numeric types and iterators.">
<polygon fill="white" stroke="black" points="692.5,-56.5 692.5,-75.5 752.5,-75.5 752.5,-56.5 692.5,-56.5"/>
<text text-anchor="middle" x="722.5" y="-63.5" font-family="Helvetica,sans-Serif" font-size="10.00">Traits.hpp</text>
</a>
</g>
</g>
<!-- Node14&#45;&gt;Node15 -->
<g id="edge22" class="edge"><title>Node14&#45;&gt;Node15</title>
<path fill="none" stroke="midnightblue" d="M649.478,-112.324C663.05,-103.9 683.88,-90.9709 699.825,-81.0741"/>
<polygon fill="midnightblue" stroke="midnightblue" points="701.906,-83.9019 708.557,-75.6545 698.214,-77.9544 701.906,-83.9019"/>
</g>
<!-- Node18 -->
<g id="node18" class="node"><title>Node18</title>
<g id="a_node18"><a xlink:title=" ">
<polygon fill="white" stroke="#bfbfbf" points="456.5,-56.5 456.5,-75.5 500.5,-75.5 500.5,-56.5 456.5,-56.5"/>
<text text-anchor="middle" x="478.5" y="-63.5" font-family="Helvetica,sans-Serif" font-size="10.00">cmath</text>
</a>
</g>
</g>
<!-- Node14&#45;&gt;Node18 -->
<g id="edge27" class="edge"><title>Node14&#45;&gt;Node18</title>
<path fill="none" stroke="midnightblue" d="M610.623,-112.444C583.434,-103.092 539.805,-88.0859 510.186,-77.8984"/>
<polygon fill="midnightblue" stroke="midnightblue" points="511.317,-74.5862 500.722,-74.6433 509.04,-81.2056 511.317,-74.5862"/>
</g>
<!-- Node19 -->
<g id="node19" class="node"><title>Node19</title>
<g id="a_node19"><a xlink:title=" ">
<polygon fill="white" stroke="#bfbfbf" points="771,-56.5 771,-75.5 820,-75.5 820,-56.5 771,-56.5"/>
<text text-anchor="middle" x="795.5" y="-63.5" font-family="Helvetica,sans-Serif" font-size="10.00">cstddef</text>
</a>
</g>
</g>
<!-- Node14&#45;&gt;Node19 -->
<g id="edge28" class="edge"><title>Node14&#45;&gt;Node19</title>
<path fill="none" stroke="midnightblue" d="M660.852,-112.444C687.928,-103.306 731,-88.7689 761.117,-78.6044"/>
<polygon fill="midnightblue" stroke="midnightblue" points="762.436,-81.8531 770.792,-75.339 760.198,-75.2206 762.436,-81.8531"/>
</g>
<!-- Node20 -->
<g id="node20" class="node"><title>Node20</title>
<g id="a_node20"><a xlink:title=" ">
<polygon fill="white" stroke="#bfbfbf" points="518.5,-56.5 518.5,-75.5 558.5,-75.5 558.5,-56.5 518.5,-56.5"/>
<text text-anchor="middle" x="538.5" y="-63.5" font-family="Helvetica,sans-Serif" font-size="10.00">limits</text>
</a>
</g>
</g>
<!-- Node14&#45;&gt;Node20 -->
<g id="edge29" class="edge"><title>Node14&#45;&gt;Node20</title>
<path fill="none" stroke="midnightblue" d="M619.915,-112.324C604.501,-103.743 580.688,-90.486 562.79,-80.5224"/>
<polygon fill="midnightblue" stroke="midnightblue" points="564.486,-77.4606 554.046,-75.6545 561.081,-83.5767 564.486,-77.4606"/>
</g>
<!-- Node21 -->
<g id="node21" class="node"><title>Node21</title>
<g id="a_node21"><a xlink:title=" ">
<polygon fill="white" stroke="#bfbfbf" points="577,-56.5 577,-75.5 636,-75.5 636,-56.5 577,-56.5"/>
<text text-anchor="middle" x="606.5" y="-63.5" font-family="Helvetica,sans-Serif" font-size="10.00">stdexcept</text>
</a>
</g>
</g>
<!-- Node14&#45;&gt;Node21 -->
<g id="edge30" class="edge"><title>Node14&#45;&gt;Node21</title>
<path fill="none" stroke="midnightblue" d="M630.711,-112.083C626.742,-104.691 620.975,-93.9533 616.065,-84.8111"/>
<polygon fill="midnightblue" stroke="midnightblue" points="619.014,-82.9051 611.2,-75.7511 612.847,-86.217 619.014,-82.9051"/>
</g>
<!-- Node16 -->
<g id="node16" class="node"><title>Node16</title>
<g id="a_node16"><a xlink:title=" ">
<polygon fill="white" stroke="#bfbfbf" points="735,-0.5 735,-19.5 782,-19.5 782,-0.5 735,-0.5"/>
<text text-anchor="middle" x="758.5" y="-7.5" font-family="Helvetica,sans-Serif" font-size="10.00">iterator</text>
</a>
</g>
</g>
<!-- Node15&#45;&gt;Node16 -->
<g id="edge23" class="edge"><title>Node15&#45;&gt;Node16</title>
<path fill="none" stroke="midnightblue" d="M728.445,-56.083C733.477,-48.5341 740.837,-37.4948 747.013,-28.2298"/>
<polygon fill="midnightblue" stroke="midnightblue" points="750.031,-30.0131 752.666,-19.7511 744.207,-26.1301 750.031,-30.0131"/>
</g>
<!-- Node17 -->
<g id="node17" class="node"><title>Node17</title>
<g id="a_node17"><a xlink:title=" ">
<polygon fill="white" stroke="#bfbfbf" points="654.5,-0.5 654.5,-19.5 716.5,-19.5 716.5,-0.5 654.5,-0.5"/>
<text text-anchor="middle" x="685.5" y="-7.5" font-family="Helvetica,sans-Serif" font-size="10.00">type_traits</text>
</a>
</g>
</g>
<!-- Node15&#45;&gt;Node17 -->
<g id="edge24" class="edge"><title>Node15&#45;&gt;Node17</title>
<path fill="none" stroke="midnightblue" d="M716.39,-56.083C711.218,-48.5341 703.654,-37.4948 697.306,-28.2298"/>
<polygon fill="midnightblue" stroke="midnightblue" points="700.036,-26.0221 691.496,-19.7511 694.261,-29.9787 700.036,-26.0221"/>
</g>
<!-- Node22&#45;&gt;Node4 -->
<g id="edge32" class="edge"><title>Node22&#45;&gt;Node4</title>
<path fill="none" stroke="midnightblue" d="M502.792,-112.444C480.145,-103.517 444.428,-89.4387 418.748,-79.3168"/>
<polygon fill="midnightblue" stroke="midnightblue" points="419.693,-75.9273 409.106,-75.5164 417.126,-82.4397 419.693,-75.9273"/>
</g>
<!-- Node22&#45;&gt;Node18 -->
<g id="edge33" class="edge"><title>Node22&#45;&gt;Node18</title>
<path fill="none" stroke="midnightblue" d="M516.904,-112.083C510.273,-104.298 500.479,-92.8015 492.442,-83.3665"/>
<polygon fill="midnightblue" stroke="midnightblue" points="495.104,-81.0939 485.955,-75.7511 489.775,-85.6332 495.104,-81.0939"/>
</g>
</g>
</svg>
        <g id="navigator" transform="translate(0 0)" fill="#404254">
                <rect fill="#f2f5e9" fill-opacity="0.5" stroke="#606060" stroke-width=".5" x="0" y="0" width="60" height="60"/>
                <use id="zoomplus" xlink:href="#zoomPlus" x="17" y="9" onmousedown="handleZoom(evt,'in')"/>
                <use id="zoomminus" xlink:href="#zoomMin" x="42" y="9" onmousedown="handleZoom(evt,'out')"/>
                <use id="reset" xlink:href="#resetDef" x="30" y="36" onmousedown="handleReset()"/>
                <g id="arrowUp" xlink:href="#dirArrow" transform="translate(30 24)" onmousedown="handlePan(0,-1)">
                  <use xlink:href="#rim" fill="#404040">
                        <set attributeName="fill" to="#808080" begin="arrowUp.mouseover" end="arrowUp.mouseout"/>
                  </use>
                  <path fill="none" stroke="white" stroke-width="1.5" d="M0,-3.0v7 M-2.5,-0.5L0,-3.0L2.5,-0.5"/>
                </g>
                <g id="arrowRight" xlink:href="#dirArrow" transform="rotate(90) translate(36 -43)" onmousedown="handlePan(1,0)">
                  <use xlink:href="#rim" fill="#404040">
                        <set attributeName="fill" to="#808080" begin="arrowRight.mouseover" end="arrowRight.mouseout"/>
                  </use>
                  <path fill="none" stroke="white" stroke-width="1.5" d="M0,-3.0v7 M-2.5,-0.5L0,-3.0L2.5,-0.5"/>
                </g>
                <g id="arrowDown" xlink:href="#dirArrow" transform="rotate(180) translate(-30 -48)" onmousedown="handlePan(0,1)">
                  <use xlink:href="#rim" fill="#404040">
                        <set attributeName="fill" to="#808080" begin="arrowDown.mouseover" end="arrowDown.mouseout"/>
                  </use>
                  <path fill="none" stroke="white" stroke-width="1.5" d="M0,-3.0v7 M-2.5,-0.5L0,-3.0L2.5,-0.5"/>
                </g>
                <g id="arrowLeft" xlink:href="#dirArrow" transform="rotate(270) translate(-36 17)" onmousedown="handlePan(-1,0)">
                  <use xlink:href="#rim" fill="#404040">
                        <set attributeName="fill" to="#808080" begin="arrowLeft.mouseover" end="arrowLeft.mouseout"/>
                  </use>
                  <path fill="none" stroke="white" stroke-width="1.5" d="M0,-3.0v7 M-2.5,-0.5L0,-3.0L2.5,-0.5"/>
                </g>
        </g>
        <svg viewBox="0 0 15 15" width="100%" height="30px" preserveAspectRatio="xMaxYMin meet">
         <g id="arrow_out" transform="scale(0.3 0.3)">
          <a xlink:href="Poisson1d_8hpp__incl_org.svg" target="_base">
           <rect id="button" ry="5" rx="5" y="6" x="6" height="38" width="38"
                fill="#f2f5e9" fill-opacity="0.5" stroke="#606060" stroke-width="1.0"/>
           <path id="arrow"
             d="M 11.500037,31.436501 C 11.940474,20.09759 22.043105,11.32322 32.158766,21.979434 L 37.068811,17.246167 C 37.068811,17.246167 37.088388,32 37.088388,32 L 22.160133,31.978069 C 22.160133,31.978069 26.997745,27.140456 26.997745,27.140456 C 18.528582,18.264221 13.291696,25.230495 11.500037,31.436501 z"
             style="fill:#404040;"/>
          </a>
         </g>
        </svg>
</svg>
