<?xml version="1.0" encoding="UTF-8" standalone="no"?>
<!DOCTYPE svg PUBLIC "-//W3C//DTD SVG 1.1//EN"
 "http://www.w3.org/Graphics/SVG/1.1/DTD/svg11.dtd">
<!-- Generated by graphviz version 2.38.0 (20140413.2041)
 -->
<!-- Title: src/poisson2d/Poisson2d.hpp Pages: 1 -->
<svg width="505pt" height="196pt"
 viewBox="0.00 0.00 505.00 196.00" xmlns="http://www.w3.org/2000/svg" xmlns:xlink="http://www.w3.org/1999/xlink">
<g id="graph0" class="graph" transform="scale(1 1) rotate(0) translate(4 192)">
<title>src/poisson2d/Poisson2d.hpp</title>
<polygon fill="white" stroke="none" points="-4,4 -4,-192 501,-192 501,4 -4,4"/>
<!-- Node1 -->
<g id="node1" class="node"><title>Node1</title>
<g id="a_node1"><a xlink:title="Header file for 2D Poisson solver&#39;s main.cpp file.">
<polygon fill="#bfbfbf" stroke="black" points="146.5,-168.5 146.5,-187.5 291.5,-187.5 291.5,-168.5 146.5,-168.5"/>
<text text-anchor="middle" x="219" y="-175.5" font-family="Helvetica,sans-Serif" font-size="10.00">src/poisson2d/Poisson2d.hpp</text>
</a>
</g>
</g>
<!-- Node2 -->
<g id="node2" class="node"><title>Node2</title>
<g id="a_node2"><a xlink:href="DGContext2D_8hpp_source.html" target="_top" xlink:title=" ">
<polygon fill="white" stroke="black" points="0,-112.5 0,-131.5 98,-131.5 98,-112.5 0,-112.5"/>
<text text-anchor="middle" x="49" y="-119.5" font-family="Helvetica,sans-Serif" font-size="10.00">DGContext2D.hpp</text>
</a>
</g>
</g>
<!-- Node1&#45;&gt;Node2 -->
<g id="edge1" class="edge"><title>Node1&#45;&gt;Node2</title>
<path fill="none" stroke="midnightblue" d="M192.063,-168.444C163.34,-159.32 117.671,-144.813 85.6788,-134.651"/>
<polygon fill="midnightblue" stroke="midnightblue" points="86.4013,-131.208 75.811,-131.516 84.2821,-137.88 86.4013,-131.208"/>
</g>
<!-- Node7 -->
<g id="node7" class="node"><title>Node7</title>
<g id="a_node7"><a xlink:href="BlitzHelpers_8hpp.html" target="_top" xlink:title="Defines a set of utility functions for working with blitz arrays and their matrix and vector aliases.">
<polygon fill="white" stroke="black" points="230.5,-112.5 230.5,-131.5 319.5,-131.5 319.5,-112.5 230.5,-112.5"/>
<text text-anchor="middle" x="275" y="-119.5" font-family="Helvetica,sans-Serif" font-size="10.00">BlitzHelpers.hpp</text>
</a>
</g>
</g>
<!-- Node1&#45;&gt;Node7 -->
<g id="edge6" class="edge"><title>Node1&#45;&gt;Node7</title>
<path fill="none" stroke="midnightblue" d="M227.997,-168.324C236.194,-160.42 248.506,-148.548 258.472,-138.938"/>
<polygon fill="midnightblue" stroke="midnightblue" points="261.07,-141.295 265.839,-131.834 256.211,-136.256 261.07,-141.295"/>
</g>
<!-- Node15 -->
<g id="node15" class="node"><title>Node15</title>
<g id="a_node15"><a xlink:href="LinAlgHelpers_8hpp.html" target="_top" xlink:title="Implements a set functions for basic linear algebra operations.">
<polygon fill="white" stroke="black" points="116,-112.5 116,-131.5 212,-131.5 212,-112.5 116,-112.5"/>
<text text-anchor="middle" x="164" y="-119.5" font-family="Helvetica,sans-Serif" font-size="10.00">LinAlgHelpers.hpp</text>
</a>
</g>
</g>
<!-- Node1&#45;&gt;Node15 -->
<g id="edge16" class="edge"><title>Node1&#45;&gt;Node15</title>
<path fill="none" stroke="midnightblue" d="M209.918,-168.083C201.829,-160.141 189.805,-148.335 180.09,-138.797"/>
<polygon fill="midnightblue" stroke="midnightblue" points="182.501,-136.26 172.913,-131.751 177.597,-141.254 182.501,-136.26"/>
</g>
<!-- Node16 -->
<g id="node16" class="node"><title>Node16</title>
<g id="a_node16"><a xlink:href="BCtypes_8hpp.html" target="_top" xlink:title="Defines enum of boundary condition tags.">
<polygon fill="white" stroke="black" points="338,-112.5 338,-131.5 412,-131.5 412,-112.5 338,-112.5"/>
<text text-anchor="middle" x="375" y="-119.5" font-family="Helvetica,sans-Serif" font-size="10.00">BCtypes.hpp</text>
</a>
</g>
</g>
<!-- Node1&#45;&gt;Node16 -->
<g id="edge19" class="edge"><title>Node1&#45;&gt;Node16</title>
<path fill="none" stroke="midnightblue" d="M243.719,-168.444C269.848,-159.399 311.259,-145.064 340.576,-134.916"/>
<polygon fill="midnightblue" stroke="midnightblue" points="342.092,-138.095 350.397,-131.516 339.802,-131.48 342.092,-138.095"/>
</g>
<!-- Node3 -->
<g id="node3" class="node"><title>Node3</title>
<g id="a_node3"><a xlink:href="Types_8hpp.html" target="_top" xlink:title="Defines the basic types used throughout this project.">
<polygon fill="white" stroke="black" points="53,-56.5 53,-75.5 115,-75.5 115,-56.5 53,-56.5"/>
<text text-anchor="middle" x="84" y="-63.5" font-family="Helvetica,sans-Serif" font-size="10.00">Types.hpp</text>
</a>
</g>
</g>
<!-- Node2&#45;&gt;Node3 -->
<g id="edge2" class="edge"><title>Node2&#45;&gt;Node3</title>
<path fill="none" stroke="midnightblue" d="M54.7795,-112.083C59.6724,-104.534 66.8274,-93.4948 72.8326,-84.2298"/>
<polygon fill="midnightblue" stroke="midnightblue" points="75.826,-86.0463 78.328,-75.7511 69.952,-82.239 75.826,-86.0463"/>
</g>
<!-- Node4 -->
<g id="node4" class="node"><title>Node4</title>
<g id="a_node4"><a xlink:title=" ">
<polygon fill="white" stroke="#bfbfbf" points="206,-0.5 206,-19.5 274,-19.5 274,-0.5 206,-0.5"/>
<text text-anchor="middle" x="240" y="-7.5" font-family="Helvetica,sans-Serif" font-size="10.00">blitz/array.h</text>
</a>
</g>
</g>
<!-- Node3&#45;&gt;Node4 -->
<g id="edge3" class="edge"><title>Node3&#45;&gt;Node4</title>
<path fill="none" stroke="midnightblue" d="M108.719,-56.4435C134.848,-47.3986 176.259,-33.064 205.576,-22.9158"/>
<polygon fill="midnightblue" stroke="midnightblue" points="207.092,-26.0951 215.397,-19.5164 204.802,-19.4801 207.092,-26.0951"/>
</g>
<!-- Node5 -->
<g id="node5" class="node"><title>Node5</title>
<g id="a_node5"><a xlink:title=" ">
<polygon fill="white" stroke="#bfbfbf" points="18.5,-0.5 18.5,-19.5 101.5,-19.5 101.5,-0.5 18.5,-0.5"/>
<text text-anchor="middle" x="60" y="-7.5" font-family="Helvetica,sans-Serif" font-size="10.00">unordered_map</text>
</a>
</g>
</g>
<!-- Node3&#45;&gt;Node5 -->
<g id="edge4" class="edge"><title>Node3&#45;&gt;Node5</title>
<path fill="none" stroke="midnightblue" d="M80.0369,-56.083C76.7867,-48.77 72.0806,-38.1814 68.046,-29.1034"/>
<polygon fill="midnightblue" stroke="midnightblue" points="71.1492,-27.4677 63.8894,-19.7511 64.7525,-30.3107 71.1492,-27.4677"/>
</g>
<!-- Node6 -->
<g id="node6" class="node"><title>Node6</title>
<g id="a_node6"><a xlink:title=" ">
<polygon fill="white" stroke="#bfbfbf" points="120,-0.5 120,-19.5 164,-19.5 164,-0.5 120,-0.5"/>
<text text-anchor="middle" x="142" y="-7.5" font-family="Helvetica,sans-Serif" font-size="10.00">vector</text>
</a>
</g>
</g>
<!-- Node3&#45;&gt;Node6 -->
<g id="edge5" class="edge"><title>Node3&#45;&gt;Node6</title>
<path fill="none" stroke="midnightblue" d="M93.3187,-56.324C101.893,-48.3414 114.812,-36.3128 125.188,-26.6529"/>
<polygon fill="midnightblue" stroke="midnightblue" points="127.578,-29.2098 132.512,-19.8339 122.808,-24.0865 127.578,-29.2098"/>
</g>
<!-- Node7&#45;&gt;Node3 -->
<g id="edge10" class="edge"><title>Node7&#45;&gt;Node3</title>
<path fill="none" stroke="midnightblue" d="M244.735,-112.444C212.045,-103.201 159.818,-88.4356 123.817,-78.2572"/>
<polygon fill="midnightblue" stroke="midnightblue" points="124.698,-74.8691 114.123,-75.5164 122.794,-81.6051 124.698,-74.8691"/>
</g>
<!-- Node7&#45;&gt;Node4 -->
<g id="edge11" class="edge"><title>Node7&#45;&gt;Node4</title>
<path fill="none" stroke="midnightblue" d="M274.212,-112.386C272.878,-99.7474 269.645,-75.5577 263,-56 259.789,-46.5503 254.891,-36.6138 250.438,-28.4887"/>
<polygon fill="midnightblue" stroke="midnightblue" points="253.375,-26.5735 245.372,-19.6308 247.299,-30.049 253.375,-26.5735"/>
</g>
<!-- Node8 -->
<g id="node8" class="node"><title>Node8</title>
<g id="a_node8"><a xlink:href="Traits_8hpp.html" target="_top" xlink:title="Defines a basic set of traits for making compile&#45;time assertions about numeric types and iterators.">
<polygon fill="white" stroke="black" points="311,-56.5 311,-75.5 371,-75.5 371,-56.5 311,-56.5"/>
<text text-anchor="middle" x="341" y="-63.5" font-family="Helvetica,sans-Serif" font-size="10.00">Traits.hpp</text>
</a>
</g>
</g>
<!-- Node7&#45;&gt;Node8 -->
<g id="edge7" class="edge"><title>Node7&#45;&gt;Node8</title>
<path fill="none" stroke="midnightblue" d="M285.604,-112.324C295.456,-104.263 310.351,-92.0765 322.215,-82.3695"/>
<polygon fill="midnightblue" stroke="midnightblue" points="324.68,-84.8752 330.203,-75.8339 320.247,-79.4575 324.68,-84.8752"/>
</g>
<!-- Node11 -->
<g id="node11" class="node"><title>Node11</title>
<g id="a_node11"><a xlink:title=" ">
<polygon fill="white" stroke="#bfbfbf" points="133,-56.5 133,-75.5 177,-75.5 177,-56.5 133,-56.5"/>
<text text-anchor="middle" x="155" y="-63.5" font-family="Helvetica,sans-Serif" font-size="10.00">cmath</text>
</a>
</g>
</g>
<!-- Node7&#45;&gt;Node11 -->
<g id="edge12" class="edge"><title>Node7&#45;&gt;Node11</title>
<path fill="none" stroke="midnightblue" d="M255.986,-112.444C236.412,-103.636 205.692,-89.8116 183.271,-79.722"/>
<polygon fill="midnightblue" stroke="midnightblue" points="184.481,-76.4284 173.925,-75.5164 181.608,-82.8119 184.481,-76.4284"/>
</g>
<!-- Node12 -->
<g id="node12" class="node"><title>Node12</title>
<g id="a_node12"><a xlink:title=" ">
<polygon fill="white" stroke="#bfbfbf" points="389.5,-56.5 389.5,-75.5 438.5,-75.5 438.5,-56.5 389.5,-56.5"/>
<text text-anchor="middle" x="414" y="-63.5" font-family="Helvetica,sans-Serif" font-size="10.00">cstddef</text>
</a>
</g>
</g>
<!-- Node7&#45;&gt;Node12 -->
<g id="edge13" class="edge"><title>Node7&#45;&gt;Node12</title>
<path fill="none" stroke="midnightblue" d="M297.025,-112.444C320.104,-103.478 356.562,-89.314 382.641,-79.1827"/>
<polygon fill="midnightblue" stroke="midnightblue" points="384.024,-82.4002 392.078,-75.5164 381.489,-75.8753 384.024,-82.4002"/>
</g>
<!-- Node13 -->
<g id="node13" class="node"><title>Node13</title>
<g id="a_node13"><a xlink:title=" ">
<polygon fill="white" stroke="#bfbfbf" points="457,-56.5 457,-75.5 497,-75.5 497,-56.5 457,-56.5"/>
<text text-anchor="middle" x="477" y="-63.5" font-family="Helvetica,sans-Serif" font-size="10.00">limits</text>
</a>
</g>
</g>
<!-- Node7&#45;&gt;Node13 -->
<g id="edge14" class="edge"><title>Node7&#45;&gt;Node13</title>
<path fill="none" stroke="midnightblue" d="M309.922,-112.423C342.903,-104.21 393.97,-91.2071 446.861,-76.2328"/>
<polygon fill="midnightblue" stroke="midnightblue" points="448.096,-79.5204 456.754,-73.4146 446.178,-72.7882 448.096,-79.5204"/>
</g>
<!-- Node14 -->
<g id="node14" class="node"><title>Node14</title>
<g id="a_node14"><a xlink:title=" ">
<polygon fill="white" stroke="#bfbfbf" points="195.5,-56.5 195.5,-75.5 254.5,-75.5 254.5,-56.5 195.5,-56.5"/>
<text text-anchor="middle" x="225" y="-63.5" font-family="Helvetica,sans-Serif" font-size="10.00">stdexcept</text>
</a>
</g>
</g>
<!-- Node7&#45;&gt;Node14 -->
<g id="edge15" class="edge"><title>Node7&#45;&gt;Node14</title>
<path fill="none" stroke="midnightblue" d="M266.744,-112.083C259.535,-104.298 248.89,-92.8015 240.154,-83.3665"/>
<polygon fill="midnightblue" stroke="midnightblue" points="242.465,-80.7108 233.103,-75.7511 237.329,-85.4666 242.465,-80.7108"/>
</g>
<!-- Node9 -->
<g id="node9" class="node"><title>Node9</title>
<g id="a_node9"><a xlink:title=" ">
<polygon fill="white" stroke="#bfbfbf" points="304.5,-0.5 304.5,-19.5 351.5,-19.5 351.5,-0.5 304.5,-0.5"/>
<text text-anchor="middle" x="328" y="-7.5" font-family="Helvetica,sans-Serif" font-size="10.00">iterator</text>
</a>
</g>
</g>
<!-- Node8&#45;&gt;Node9 -->
<g id="edge8" class="edge"><title>Node8&#45;&gt;Node9</title>
<path fill="none" stroke="midnightblue" d="M338.853,-56.083C337.131,-48.9272 334.653,-38.6353 332.5,-29.6911"/>
<polygon fill="midnightblue" stroke="midnightblue" points="335.85,-28.6541 330.107,-19.7511 329.045,-30.2925 335.85,-28.6541"/>
</g>
<!-- Node10 -->
<g id="node10" class="node"><title>Node10</title>
<g id="a_node10"><a xlink:title=" ">
<polygon fill="white" stroke="#bfbfbf" points="370,-0.5 370,-19.5 432,-19.5 432,-0.5 370,-0.5"/>
<text text-anchor="middle" x="401" y="-7.5" font-family="Helvetica,sans-Serif" font-size="10.00">type_traits</text>
</a>
</g>
</g>
<!-- Node8&#45;&gt;Node10 -->
<g id="edge9" class="edge"><title>Node8&#45;&gt;Node10</title>
<path fill="none" stroke="midnightblue" d="M350.64,-56.324C359.51,-48.3414 372.875,-36.3128 383.608,-26.6529"/>
<polygon fill="midnightblue" stroke="midnightblue" points="386.093,-29.1251 391.185,-19.8339 381.41,-23.922 386.093,-29.1251"/>
</g>
<!-- Node15&#45;&gt;Node3 -->
<g id="edge17" class="edge"><title>Node15&#45;&gt;Node3</title>
<path fill="none" stroke="midnightblue" d="M151.147,-112.324C138.784,-103.979 119.87,-91.2122 105.263,-81.3524"/>
<polygon fill="midnightblue" stroke="midnightblue" points="107.068,-78.3483 96.8215,-75.6545 103.152,-84.1503 107.068,-78.3483"/>
</g>
<!-- Node15&#45;&gt;Node11 -->
<g id="edge18" class="edge"><title>Node15&#45;&gt;Node11</title>
<path fill="none" stroke="midnightblue" d="M162.514,-112.083C161.321,-104.927 159.606,-94.6353 158.115,-85.6911"/>
<polygon fill="midnightblue" stroke="midnightblue" points="161.555,-85.0396 156.459,-75.7511 154.65,-86.1904 161.555,-85.0396"/>
</g>
</g>
</svg>
