<?xml version="1.0" encoding="UTF-8" standalone="no"?>
<!DOCTYPE svg PUBLIC "-//W3C//DTD SVG 1.1//EN"
 "http://www.w3.org/Graphics/SVG/1.1/DTD/svg11.dtd">
<!-- Generated by graphviz version 2.38.0 (20140413.2041)
 -->
<!-- Title: src/pyblitzdg/pyblitzdg.cpp Pages: 1 -->
<svg width="1558pt" height="487pt"
 viewBox="0.00 0.00 1557.50 487.00" xmlns="http://www.w3.org/2000/svg" xmlns:xlink="http://www.w3.org/1999/xlink">
<g id="graph0" class="graph" transform="scale(1 1) rotate(0) translate(4 483)">
<title>src/pyblitzdg/pyblitzdg.cpp</title>
<polygon fill="white" stroke="none" points="-4,4 -4,-483 1553.5,-483 1553.5,4 -4,4"/>
<!-- Node1 -->
<g id="node1" class="node"><title>Node1</title>
<g id="a_node1"><a xlink:title="Python bindings for blitzdg&#39;s public API.">
<polygon fill="#bfbfbf" stroke="black" points="591,-459.5 591,-478.5 724,-478.5 724,-459.5 591,-459.5"/>
<text text-anchor="middle" x="657.5" y="-466.5" font-family="Helvetica,sans-Serif" font-size="10.00">src/pyblitzdg/pyblitzdg.cpp</text>
</a>
</g>
</g>
<!-- Node2 -->
<g id="node2" class="node"><title>Node2</title>
<g id="a_node2"><a xlink:title=" ">
<polygon fill="white" stroke="#bfbfbf" points="284.5,-342 284.5,-361 376.5,-361 376.5,-342 284.5,-342"/>
<text text-anchor="middle" x="330.5" y="-349" font-family="Helvetica,sans-Serif" font-size="10.00">boost/python.hpp</text>
</a>
</g>
</g>
<!-- Node1&#45;&gt;Node2 -->
<g id="edge1" class="edge"><title>Node1&#45;&gt;Node2</title>
<path fill="none" stroke="midnightblue" d="M633.189,-459.413C575.607,-439.075 430.778,-387.919 364.53,-364.52"/>
<polygon fill="midnightblue" stroke="midnightblue" points="365.566,-361.174 354.971,-361.143 363.234,-367.774 365.566,-361.174"/>
</g>
<!-- Node3 -->
<g id="node3" class="node"><title>Node3</title>
<g id="a_node3"><a xlink:href="Nodes1DProvisioner_8hpp.html" target="_top" xlink:title="Defines a class for computations related to the construction of one&#45;dimensional nodes,...">
<polygon fill="white" stroke="black" points="196,-280.5 196,-299.5 321,-299.5 321,-280.5 196,-280.5"/>
<text text-anchor="middle" x="258.5" y="-287.5" font-family="Helvetica,sans-Serif" font-size="10.00">Nodes1DProvisioner.hpp</text>
</a>
</g>
</g>
<!-- Node1&#45;&gt;Node3 -->
<g id="edge2" class="edge"><title>Node1&#45;&gt;Node3</title>
<path fill="none" stroke="midnightblue" d="M594.511,-459.486C497.67,-445.103 318.835,-412.998 275.5,-367 261.112,-351.728 257.921,-327.043 257.639,-309.97"/>
<polygon fill="midnightblue" stroke="midnightblue" points="261.145,-309.631 257.806,-299.575 254.146,-309.518 261.145,-309.631"/>
</g>
<!-- Node5 -->
<g id="node5" class="node"><title>Node5</title>
<g id="a_node5"><a xlink:href="Types_8hpp.html" target="_top" xlink:title="Defines the basic types used throughout this project.">
<polygon fill="white" stroke="black" points="490.5,-56.5 490.5,-75.5 552.5,-75.5 552.5,-56.5 490.5,-56.5"/>
<text text-anchor="middle" x="521.5" y="-63.5" font-family="Helvetica,sans-Serif" font-size="10.00">Types.hpp</text>
</a>
</g>
</g>
<!-- Node1&#45;&gt;Node5 -->
<g id="edge56" class="edge"><title>Node1&#45;&gt;Node5</title>
<path fill="none" stroke="midnightblue" d="M724.174,-465.233C914.633,-456.447 1447.5,-425.357 1447.5,-352.5 1447.5,-352.5 1447.5,-352.5 1447.5,-233 1447.5,-128.348 1348.1,-132.628 1245.5,-112 1113.42,-85.4448 696.399,-71.8448 562.983,-68.0939"/>
<polygon fill="midnightblue" stroke="midnightblue" points="562.873,-64.5895 552.779,-67.8107 562.678,-71.5868 562.873,-64.5895"/>
</g>
<!-- Node15 -->
<g id="node15" class="node"><title>Node15</title>
<g id="a_node15"><a xlink:href="VtkOutputter_8hpp.html" target="_top" xlink:title="Defines the VtkOutputter class that writes output to *.vtu files.">
<polygon fill="white" stroke="black" points="612,-403.5 612,-422.5 703,-422.5 703,-403.5 612,-403.5"/>
<text text-anchor="middle" x="657.5" y="-410.5" font-family="Helvetica,sans-Serif" font-size="10.00">VtkOutputter.hpp</text>
</a>
</g>
</g>
<!-- Node1&#45;&gt;Node15 -->
<g id="edge22" class="edge"><title>Node1&#45;&gt;Node15</title>
<path fill="none" stroke="midnightblue" d="M657.5,-459.083C657.5,-452.006 657.5,-441.861 657.5,-432.986"/>
<polygon fill="midnightblue" stroke="midnightblue" points="661,-432.751 657.5,-422.751 654,-432.751 661,-432.751"/>
</g>
<!-- Node18 -->
<g id="node18" class="node"><title>Node18</title>
<g id="a_node18"><a xlink:href="TriangleNodesProvisioner_8hpp.html" target="_top" xlink:title="Defines the TriangleNodesProvisioner class that provides a construction of 2D nodal points on the tri...">
<polygon fill="white" stroke="black" points="433,-342 433,-361 580,-361 580,-342 433,-342"/>
<text text-anchor="middle" x="506.5" y="-349" font-family="Helvetica,sans-Serif" font-size="10.00">TriangleNodesProvisioner.hpp</text>
</a>
</g>
</g>
<!-- Node1&#45;&gt;Node18 -->
<g id="edge60" class="edge"><title>Node1&#45;&gt;Node18</title>
<path fill="none" stroke="midnightblue" d="M646.15,-459.319C620.572,-439.753 558.163,-392.017 526.149,-367.53"/>
<polygon fill="midnightblue" stroke="midnightblue" points="528.051,-364.578 517.981,-361.282 523.798,-370.138 528.051,-364.578"/>
</g>
<!-- Node20 -->
<g id="node20" class="node"><title>Node20</title>
<g id="a_node20"><a xlink:href="MeshManager_8hpp.html" target="_top" xlink:title="Defines the MeshManager class that reads mesh input files and partitions meshes with METIS....">
<polygon fill="white" stroke="black" points="936,-280.5 936,-299.5 1033,-299.5 1033,-280.5 936,-280.5"/>
<text text-anchor="middle" x="984.5" y="-287.5" font-family="Helvetica,sans-Serif" font-size="10.00">MeshManager.hpp</text>
</a>
</g>
</g>
<!-- Node1&#45;&gt;Node20 -->
<g id="edge59" class="edge"><title>Node1&#45;&gt;Node20</title>
<path fill="none" stroke="midnightblue" d="M724.152,-464.134C793.836,-456.472 901.623,-433.801 964.5,-367 978.936,-351.663 983.234,-327.186 984.372,-310.17"/>
<polygon fill="midnightblue" stroke="midnightblue" points="987.883,-309.904 984.74,-299.786 980.888,-309.655 987.883,-309.904"/>
</g>
<!-- Node33 -->
<g id="node33" class="node"><title>Node33</title>
<g id="a_node33"><a xlink:href="LSERK4_8hpp.html" target="_top" xlink:title="Header file containing coefficients for Low&#45;Storage Explicit Runge&#45;Kutta time&#45;stepper (4th order).">
<polygon fill="white" stroke="black" points="1475.5,-403.5 1475.5,-422.5 1549.5,-422.5 1549.5,-403.5 1475.5,-403.5"/>
<text text-anchor="middle" x="1512.5" y="-410.5" font-family="Helvetica,sans-Serif" font-size="10.00">LSERK4.hpp</text>
</a>
</g>
</g>
<!-- Node1&#45;&gt;Node33 -->
<g id="edge57" class="edge"><title>Node1&#45;&gt;Node33</title>
<path fill="none" stroke="midnightblue" d="M724.173,-466.943C862.203,-464.166 1189.13,-454.542 1461.5,-423 1462.76,-422.855 1464.03,-422.698 1465.31,-422.532"/>
<polygon fill="midnightblue" stroke="midnightblue" points="1465.85,-425.99 1475.25,-421.1 1464.85,-419.061 1465.85,-425.99"/>
</g>
<!-- Node4 -->
<g id="node4" class="node"><title>Node4</title>
<g id="a_node4"><a xlink:href="DirectSolver_8hpp.html" target="_top" xlink:title="Defines the DirectSolver class that implements LAPACK direct solution routine DSGESV....">
<polygon fill="white" stroke="black" points="0,-168.5 0,-187.5 89,-187.5 89,-168.5 0,-168.5"/>
<text text-anchor="middle" x="44.5" y="-175.5" font-family="Helvetica,sans-Serif" font-size="10.00">DirectSolver.hpp</text>
</a>
</g>
</g>
<!-- Node3&#45;&gt;Node4 -->
<g id="edge3" class="edge"><title>Node3&#45;&gt;Node4</title>
<path fill="none" stroke="midnightblue" d="M195.776,-283.198C161.542,-277.514 119.87,-266.265 88.5,-244 71.7062,-232.08 59.4066,-211.582 52.1475,-196.787"/>
<polygon fill="midnightblue" stroke="midnightblue" points="55.2942,-195.252 47.9341,-187.631 48.9352,-198.179 55.2942,-195.252"/>
</g>
<!-- Node3&#45;&gt;Node5 -->
<g id="edge19" class="edge"><title>Node3&#45;&gt;Node5</title>
<path fill="none" stroke="midnightblue" d="M261.524,-280.192C266.421,-266.875 277.115,-241.335 292.5,-224 352.543,-156.347 447.606,-103.517 494.086,-80.1304"/>
<polygon fill="midnightblue" stroke="midnightblue" points="495.833,-83.1707 503.237,-75.592 492.723,-76.8996 495.833,-83.1707"/>
</g>
<!-- Node9 -->
<g id="node9" class="node"><title>Node9</title>
<g id="a_node9"><a xlink:href="JacobiBuilders_8hpp.html" target="_top" xlink:title="Defines the JacobiBuilders class that constructs Jacobi polynomials, their derivatives,...">
<polygon fill="white" stroke="black" points="117,-168.5 117,-187.5 216,-187.5 216,-168.5 117,-168.5"/>
<text text-anchor="middle" x="166.5" y="-175.5" font-family="Helvetica,sans-Serif" font-size="10.00">JacobiBuilders.hpp</text>
</a>
</g>
</g>
<!-- Node3&#45;&gt;Node9 -->
<g id="edge8" class="edge"><title>Node3&#45;&gt;Node9</title>
<path fill="none" stroke="midnightblue" d="M200.765,-280.459C159.577,-273.047 109.306,-260.848 96.5,-244 81.0163,-223.629 109.623,-204.202 134.799,-191.981"/>
<polygon fill="midnightblue" stroke="midnightblue" points="136.56,-195.024 144.18,-187.663 133.633,-188.665 136.56,-195.024"/>
</g>
<!-- Node11 -->
<g id="node11" class="node"><title>Node11</title>
<g id="a_node11"><a xlink:href="VandermondeBuilders_8hpp.html" target="_top" xlink:title="Defines a class for computating the generalized Vandermonde, its gradient, and its inverse for 1D ort...">
<polygon fill="white" stroke="black" points="106,-224.5 106,-243.5 237,-243.5 237,-224.5 106,-224.5"/>
<text text-anchor="middle" x="171.5" y="-231.5" font-family="Helvetica,sans-Serif" font-size="10.00">VandermondeBuilders.hpp</text>
</a>
</g>
</g>
<!-- Node3&#45;&gt;Node11 -->
<g id="edge12" class="edge"><title>Node3&#45;&gt;Node11</title>
<path fill="none" stroke="midnightblue" d="M244.522,-280.324C230.95,-271.9 210.12,-258.971 194.175,-249.074"/>
<polygon fill="midnightblue" stroke="midnightblue" points="195.786,-245.954 185.443,-243.655 192.094,-251.902 195.786,-245.954"/>
</g>
<!-- Node13 -->
<g id="node13" class="node"><title>Node13</title>
<g id="a_node13"><a xlink:title=" ">
<polygon fill="white" stroke="#bfbfbf" points="549.5,-168.5 549.5,-187.5 601.5,-187.5 601.5,-168.5 549.5,-168.5"/>
<text text-anchor="middle" x="575.5" y="-175.5" font-family="Helvetica,sans-Serif" font-size="10.00">memory</text>
</a>
</g>
</g>
<!-- Node3&#45;&gt;Node13 -->
<g id="edge20" class="edge"><title>Node3&#45;&gt;Node13</title>
<path fill="none" stroke="midnightblue" d="M264.392,-280.156C274.461,-265.817 296.435,-237.722 322.5,-224 392.893,-186.941 487.972,-179.676 539.194,-178.679"/>
<polygon fill="midnightblue" stroke="midnightblue" points="539.478,-182.176 549.434,-178.553 539.392,-175.176 539.478,-182.176"/>
</g>
<!-- Node14 -->
<g id="node14" class="node"><title>Node14</title>
<g id="a_node14"><a xlink:title=" ">
<polygon fill="white" stroke="#bfbfbf" points="331.5,-224.5 331.5,-243.5 455.5,-243.5 455.5,-224.5 331.5,-224.5"/>
<text text-anchor="middle" x="393.5" y="-231.5" font-family="Helvetica,sans-Serif" font-size="10.00">boost/python/numpy.hpp</text>
</a>
</g>
</g>
<!-- Node3&#45;&gt;Node14 -->
<g id="edge21" class="edge"><title>Node3&#45;&gt;Node14</title>
<path fill="none" stroke="midnightblue" d="M279.891,-280.444C302.207,-271.517 337.403,-257.439 362.708,-247.317"/>
<polygon fill="midnightblue" stroke="midnightblue" points="364.224,-250.48 372.209,-243.516 361.624,-243.981 364.224,-250.48"/>
</g>
<!-- Node4&#45;&gt;Node5 -->
<g id="edge4" class="edge"><title>Node4&#45;&gt;Node5</title>
<path fill="none" stroke="midnightblue" d="M44.2087,-168.208C44.2633,-153.945 46.6648,-125.956 63.5,-112 95.2354,-85.6914 373.457,-72.5554 480.123,-68.4514"/>
<polygon fill="midnightblue" stroke="midnightblue" points="480.332,-71.9461 490.193,-68.0713 480.068,-64.9511 480.332,-71.9461"/>
</g>
<!-- Node6 -->
<g id="node6" class="node"><title>Node6</title>
<g id="a_node6"><a xlink:title=" ">
<polygon fill="white" stroke="#bfbfbf" points="534.5,-0.5 534.5,-19.5 602.5,-19.5 602.5,-0.5 534.5,-0.5"/>
<text text-anchor="middle" x="568.5" y="-7.5" font-family="Helvetica,sans-Serif" font-size="10.00">blitz/array.h</text>
</a>
</g>
</g>
<!-- Node5&#45;&gt;Node6 -->
<g id="edge5" class="edge"><title>Node5&#45;&gt;Node6</title>
<path fill="none" stroke="midnightblue" d="M529.261,-56.083C536.037,-48.2982 546.043,-36.8015 554.255,-27.3665"/>
<polygon fill="midnightblue" stroke="midnightblue" points="556.958,-29.592 560.883,-19.7511 551.678,-24.9963 556.958,-29.592"/>
</g>
<!-- Node7 -->
<g id="node7" class="node"><title>Node7</title>
<g id="a_node7"><a xlink:title=" ">
<polygon fill="white" stroke="#bfbfbf" points="433,-0.5 433,-19.5 516,-19.5 516,-0.5 433,-0.5"/>
<text text-anchor="middle" x="474.5" y="-7.5" font-family="Helvetica,sans-Serif" font-size="10.00">unordered_map</text>
</a>
</g>
</g>
<!-- Node5&#45;&gt;Node7 -->
<g id="edge6" class="edge"><title>Node5&#45;&gt;Node7</title>
<path fill="none" stroke="midnightblue" d="M513.739,-56.083C506.963,-48.2982 496.957,-36.8015 488.745,-27.3665"/>
<polygon fill="midnightblue" stroke="midnightblue" points="491.322,-24.9963 482.117,-19.7511 486.042,-29.592 491.322,-24.9963"/>
</g>
<!-- Node8 -->
<g id="node8" class="node"><title>Node8</title>
<g id="a_node8"><a xlink:title=" ">
<polygon fill="white" stroke="#bfbfbf" points="1036.5,-0.5 1036.5,-19.5 1080.5,-19.5 1080.5,-0.5 1036.5,-0.5"/>
<text text-anchor="middle" x="1058.5" y="-7.5" font-family="Helvetica,sans-Serif" font-size="10.00">vector</text>
</a>
</g>
</g>
<!-- Node5&#45;&gt;Node8 -->
<g id="edge7" class="edge"><title>Node5&#45;&gt;Node8</title>
<path fill="none" stroke="midnightblue" d="M552.692,-61.8633C647.302,-52.3495 930.394,-23.8822 1026.31,-14.2368"/>
<polygon fill="midnightblue" stroke="midnightblue" points="1026.69,-17.7165 1036.29,-13.2334 1025.99,-10.7516 1026.69,-17.7165"/>
</g>
<!-- Node9&#45;&gt;Node5 -->
<g id="edge11" class="edge"><title>Node9&#45;&gt;Node5</title>
<path fill="none" stroke="midnightblue" d="M169.349,-168.106C174.469,-153.696 186.677,-125.5 207.5,-112 251.708,-83.3385 405.245,-72.3827 479.984,-68.6768"/>
<polygon fill="midnightblue" stroke="midnightblue" points="480.595,-72.1518 490.417,-68.1814 480.263,-65.1597 480.595,-72.1518"/>
</g>
<!-- Node10 -->
<g id="node10" class="node"><title>Node10</title>
<g id="a_node10"><a xlink:href="EigenSolver_8hpp.html" target="_top" xlink:title="Defines the EigenSolver class that implements LAPACK solution routine DSYEVD. For symmetric matrices ...">
<polygon fill="white" stroke="black" points="72.5,-112.5 72.5,-131.5 160.5,-131.5 160.5,-112.5 72.5,-112.5"/>
<text text-anchor="middle" x="116.5" y="-119.5" font-family="Helvetica,sans-Serif" font-size="10.00">EigenSolver.hpp</text>
</a>
</g>
</g>
<!-- Node9&#45;&gt;Node10 -->
<g id="edge9" class="edge"><title>Node9&#45;&gt;Node10</title>
<path fill="none" stroke="midnightblue" d="M158.244,-168.083C151.035,-160.298 140.39,-148.801 131.654,-139.367"/>
<polygon fill="midnightblue" stroke="midnightblue" points="133.965,-136.711 124.603,-131.751 128.829,-141.467 133.965,-136.711"/>
</g>
<!-- Node10&#45;&gt;Node5 -->
<g id="edge10" class="edge"><title>Node10&#45;&gt;Node5</title>
<path fill="none" stroke="midnightblue" d="M160.502,-114.054C165.224,-113.344 169.96,-112.646 174.5,-112 284.736,-96.3019 415.005,-80.014 480.107,-72.0286"/>
<polygon fill="midnightblue" stroke="midnightblue" points="480.859,-75.4628 490.36,-70.7736 480.008,-68.5146 480.859,-75.4628"/>
</g>
<!-- Node11&#45;&gt;Node4 -->
<g id="edge13" class="edge"><title>Node11&#45;&gt;Node4</title>
<path fill="none" stroke="midnightblue" d="M151.376,-224.444C130.476,-215.557 97.5653,-201.563 73.7839,-191.451"/>
<polygon fill="midnightblue" stroke="midnightblue" points="75.1016,-188.208 64.5294,-187.516 72.3625,-194.65 75.1016,-188.208"/>
</g>
<!-- Node11&#45;&gt;Node5 -->
<g id="edge17" class="edge"><title>Node11&#45;&gt;Node5</title>
<path fill="none" stroke="midnightblue" d="M186.277,-224.491C228.703,-200.127 350.53,-130.656 392.5,-112 422.158,-98.8163 456.967,-86.8696 482.947,-78.6042"/>
<polygon fill="midnightblue" stroke="midnightblue" points="484.301,-81.8476 492.793,-75.5129 482.204,-75.169 484.301,-81.8476"/>
</g>
<!-- Node11&#45;&gt;Node9 -->
<g id="edge14" class="edge"><title>Node11&#45;&gt;Node9</title>
<path fill="none" stroke="midnightblue" d="M170.674,-224.083C170.019,-217.006 169.08,-206.861 168.258,-197.986"/>
<polygon fill="midnightblue" stroke="midnightblue" points="171.717,-197.386 167.31,-187.751 164.747,-198.031 171.717,-197.386"/>
</g>
<!-- Node12 -->
<g id="node12" class="node"><title>Node12</title>
<g id="a_node12"><a xlink:href="DenseMatrixInverter_8hpp.html" target="_top" xlink:title="Defines the DenseMatrixInverter class that computes the explicit inverse of a dense matrix via the LA...">
<polygon fill="white" stroke="black" points="216.5,-112.5 216.5,-131.5 340.5,-131.5 340.5,-112.5 216.5,-112.5"/>
<text text-anchor="middle" x="278.5" y="-119.5" font-family="Helvetica,sans-Serif" font-size="10.00">DenseMatrixInverter.hpp</text>
</a>
</g>
</g>
<!-- Node11&#45;&gt;Node12 -->
<g id="edge15" class="edge"><title>Node11&#45;&gt;Node12</title>
<path fill="none" stroke="midnightblue" d="M182.957,-224.226C194.042,-215.522 211.087,-201.558 224.5,-188 239.735,-172.6 255.36,-153.341 265.857,-139.798"/>
<polygon fill="midnightblue" stroke="midnightblue" points="268.663,-141.89 271.959,-131.821 263.103,-137.637 268.663,-141.89"/>
</g>
<!-- Node11&#45;&gt;Node13 -->
<g id="edge18" class="edge"><title>Node11&#45;&gt;Node13</title>
<path fill="none" stroke="midnightblue" d="M235.515,-224.444C321.26,-212.983 470.546,-193.029 539.138,-183.86"/>
<polygon fill="midnightblue" stroke="midnightblue" points="539.984,-187.278 549.432,-182.484 539.057,-180.34 539.984,-187.278"/>
</g>
<!-- Node12&#45;&gt;Node5 -->
<g id="edge16" class="edge"><title>Node12&#45;&gt;Node5</title>
<path fill="none" stroke="midnightblue" d="M317.004,-112.444C361.545,-102.545 434.592,-86.3128 480.262,-76.1639"/>
<polygon fill="midnightblue" stroke="midnightblue" points="481.128,-79.557 490.131,-73.971 479.609,-72.7237 481.128,-79.557"/>
</g>
<!-- Node15&#45;&gt;Node2 -->
<g id="edge55" class="edge"><title>Node15&#45;&gt;Node2</title>
<path fill="none" stroke="midnightblue" d="M611.967,-405.321C558.677,-397.275 467.867,-382.848 390.5,-367 385.119,-365.898 379.489,-364.656 373.923,-363.374"/>
<polygon fill="midnightblue" stroke="midnightblue" points="374.581,-359.933 364.045,-361.046 372.975,-366.747 374.581,-359.933"/>
</g>
<!-- Node15&#45;&gt;Node5 -->
<g id="edge26" class="edge"><title>Node15&#45;&gt;Node5</title>
<path fill="none" stroke="midnightblue" d="M649.286,-403.182C641.956,-394.663 631.745,-381.019 627.5,-367 623.507,-353.813 627.364,-349.777 627.5,-336 627.944,-291.105 629.5,-279.898 629.5,-235 629.5,-235 629.5,-235 629.5,-177 629.5,-131.206 581.251,-97.486 549.251,-80.1584"/>
<polygon fill="midnightblue" stroke="midnightblue" points="550.799,-77.0184 540.312,-75.5104 547.57,-83.229 550.799,-77.0184"/>
</g>
<!-- Node15&#45;&gt;Node13 -->
<g id="edge25" class="edge"><title>Node15&#45;&gt;Node13</title>
<path fill="none" stroke="midnightblue" d="M703.232,-411.354C773.453,-409.286 902.754,-400.852 931.5,-367 940.418,-356.498 939.024,-347.542 931.5,-336 912.469,-306.807 692.792,-222.661 608.317,-191.127"/>
<polygon fill="midnightblue" stroke="midnightblue" points="609.301,-187.758 598.708,-187.549 606.858,-194.318 609.301,-187.758"/>
</g>
<!-- Node15&#45;&gt;Node14 -->
<g id="edge54" class="edge"><title>Node15&#45;&gt;Node14</title>
<path fill="none" stroke="midnightblue" d="M611.921,-409.06C551.605,-404.22 449.818,-392.451 423.5,-367 392.616,-337.134 390.543,-282.609 391.881,-253.874"/>
<polygon fill="midnightblue" stroke="midnightblue" points="395.393,-253.807 392.563,-243.598 388.409,-253.344 395.393,-253.807"/>
</g>
<!-- Node16 -->
<g id="node16" class="node"><title>Node16</title>
<g id="a_node16"><a xlink:title=" ">
<polygon fill="white" stroke="#bfbfbf" points="636.5,-336.5 636.5,-366.5 776.5,-366.5 776.5,-336.5 636.5,-336.5"/>
<text text-anchor="start" x="644.5" y="-354.5" font-family="Helvetica,sans-Serif" font-size="10.00">vtk&#45;7.1/vtkXMLUnstructured</text>
<text text-anchor="middle" x="706.5" y="-343.5" font-family="Helvetica,sans-Serif" font-size="10.00">GridWriter.h</text>
</a>
</g>
</g>
<!-- Node15&#45;&gt;Node16 -->
<g id="edge23" class="edge"><title>Node15&#45;&gt;Node16</title>
<path fill="none" stroke="midnightblue" d="M664.521,-403.475C670.785,-395.869 680.23,-384.399 688.576,-374.265"/>
<polygon fill="midnightblue" stroke="midnightblue" points="691.296,-376.467 694.952,-366.523 685.893,-372.017 691.296,-376.467"/>
</g>
<!-- Node17 -->
<g id="node17" class="node"><title>Node17</title>
<g id="a_node17"><a xlink:title=" ">
<polygon fill="white" stroke="#bfbfbf" points="794.5,-342 794.5,-361 922.5,-361 922.5,-342 794.5,-342"/>
<text text-anchor="middle" x="858.5" y="-349" font-family="Helvetica,sans-Serif" font-size="10.00">vtk&#45;7.1/vtkSmartPointer.h</text>
</a>
</g>
</g>
<!-- Node15&#45;&gt;Node17 -->
<g id="edge24" class="edge"><title>Node15&#45;&gt;Node17</title>
<path fill="none" stroke="midnightblue" d="M686.298,-403.475C721.374,-393.092 780.763,-375.512 819.807,-363.954"/>
<polygon fill="midnightblue" stroke="midnightblue" points="821.16,-367.204 829.755,-361.009 819.173,-360.492 821.16,-367.204"/>
</g>
<!-- Node15&#45;&gt;Node18 -->
<g id="edge27" class="edge"><title>Node15&#45;&gt;Node18</title>
<path fill="none" stroke="midnightblue" d="M635.865,-403.475C610.076,-393.313 566.789,-376.256 537.46,-364.7"/>
<polygon fill="midnightblue" stroke="midnightblue" points="538.681,-361.419 528.094,-361.009 536.115,-367.932 538.681,-361.419"/>
</g>
<!-- Node31 -->
<g id="node31" class="node"><title>Node31</title>
<g id="a_node31"><a xlink:href="OutputterBase_8hpp_source.html" target="_top" xlink:title=" ">
<polygon fill="white" stroke="black" points="1286.5,-224.5 1286.5,-243.5 1384.5,-243.5 1384.5,-224.5 1286.5,-224.5"/>
<text text-anchor="middle" x="1335.5" y="-231.5" font-family="Helvetica,sans-Serif" font-size="10.00">OutputterBase.hpp</text>
</a>
</g>
</g>
<!-- Node15&#45;&gt;Node31 -->
<g id="edge50" class="edge"><title>Node15&#45;&gt;Node31</title>
<path fill="none" stroke="midnightblue" d="M703.038,-408.142C763.46,-402.386 873.147,-389.713 964.5,-367 1095.22,-334.499 1244.49,-273.835 1306.32,-247.612"/>
<polygon fill="midnightblue" stroke="midnightblue" points="1307.99,-250.705 1315.82,-243.563 1305.25,-244.266 1307.99,-250.705"/>
</g>
<!-- Node18&#45;&gt;Node3 -->
<g id="edge28" class="edge"><title>Node18&#45;&gt;Node3</title>
<path fill="none" stroke="midnightblue" d="M470.968,-341.975C426.954,-331.415 351.911,-313.411 303.802,-301.869"/>
<polygon fill="midnightblue" stroke="midnightblue" points="304.507,-298.439 293.966,-299.509 302.874,-305.246 304.507,-298.439"/>
</g>
<!-- Node18&#45;&gt;Node5 -->
<g id="edge48" class="edge"><title>Node18&#45;&gt;Node5</title>
<path fill="none" stroke="midnightblue" d="M493.388,-341.89C481.223,-333.039 463.915,-318.028 456.5,-300 453.119,-291.779 455.188,-288.792 456.5,-280 462.297,-241.141 499.859,-129.729 515.095,-85.4592"/>
<polygon fill="midnightblue" stroke="midnightblue" points="518.42,-86.5511 518.378,-75.9563 511.804,-84.2653 518.42,-86.5511"/>
</g>
<!-- Node18&#45;&gt;Node13 -->
<g id="edge49" class="edge"><title>Node18&#45;&gt;Node13</title>
<path fill="none" stroke="midnightblue" d="M525.398,-341.943C541.143,-333.68 562.544,-319.54 572.5,-300 589.294,-267.04 584.409,-222.193 579.72,-197.393"/>
<polygon fill="midnightblue" stroke="midnightblue" points="583.129,-196.597 577.658,-187.524 576.277,-198.029 583.129,-196.597"/>
</g>
<!-- Node19 -->
<g id="node19" class="node"><title>Node19</title>
<g id="a_node19"><a xlink:href="DGContext2D_8hpp_source.html" target="_top" xlink:title=" ">
<polygon fill="white" stroke="black" points="465.5,-280.5 465.5,-299.5 563.5,-299.5 563.5,-280.5 465.5,-280.5"/>
<text text-anchor="middle" x="514.5" y="-287.5" font-family="Helvetica,sans-Serif" font-size="10.00">DGContext2D.hpp</text>
</a>
</g>
</g>
<!-- Node18&#45;&gt;Node19 -->
<g id="edge29" class="edge"><title>Node18&#45;&gt;Node19</title>
<path fill="none" stroke="midnightblue" d="M507.646,-341.975C508.775,-333.58 510.536,-320.481 511.991,-309.663"/>
<polygon fill="midnightblue" stroke="midnightblue" points="515.492,-309.886 513.356,-299.509 508.555,-308.953 515.492,-309.886"/>
</g>
<!-- Node18&#45;&gt;Node20 -->
<g id="edge31" class="edge"><title>Node18&#45;&gt;Node20</title>
<path fill="none" stroke="midnightblue" d="M574.986,-341.975C669.097,-330.26 836.811,-309.384 925.597,-298.332"/>
<polygon fill="midnightblue" stroke="midnightblue" points="926.271,-301.775 935.762,-297.067 925.406,-294.829 926.271,-301.775"/>
</g>
<!-- Node19&#45;&gt;Node5 -->
<g id="edge30" class="edge"><title>Node19&#45;&gt;Node5</title>
<path fill="none" stroke="midnightblue" d="M514.774,-280.297C515.804,-247.633 519.455,-131.866 520.902,-85.9573"/>
<polygon fill="midnightblue" stroke="midnightblue" points="524.403,-85.9891 521.22,-75.8837 517.406,-85.7684 524.403,-85.9891"/>
</g>
<!-- Node20&#45;&gt;Node5 -->
<g id="edge32" class="edge"><title>Node20&#45;&gt;Node5</title>
<path fill="none" stroke="midnightblue" d="M960.414,-280.408C893.019,-256.355 707.253,-189.967 704.5,-188 669.257,-162.823 678.652,-137.304 643.5,-112 619.264,-94.5543 587.502,-83.123 562.462,-76.1483"/>
<polygon fill="midnightblue" stroke="midnightblue" points="563.095,-72.6953 552.532,-73.5152 561.301,-79.4615 563.095,-72.6953"/>
</g>
<!-- Node20&#45;&gt;Node13 -->
<g id="edge46" class="edge"><title>Node20&#45;&gt;Node13</title>
<path fill="none" stroke="midnightblue" d="M945.794,-280.497C910.634,-272.392 857.54,-259.193 812.5,-244 790.601,-236.613 786.479,-231.144 764.5,-224 712.308,-207.036 650.115,-193.458 611.715,-185.815"/>
<polygon fill="midnightblue" stroke="midnightblue" points="612.03,-182.31 601.543,-183.818 610.682,-189.179 612.03,-182.31"/>
</g>
<!-- Node21 -->
<g id="node21" class="node"><title>Node21</title>
<g id="a_node21"><a xlink:href="CSVFileReader_8hpp.html" target="_top" xlink:title="Defines the class CSVFileReader and functions csvread for reading csv files.">
<polygon fill="white" stroke="black" points="936.5,-224.5 936.5,-243.5 1040.5,-243.5 1040.5,-224.5 936.5,-224.5"/>
<text text-anchor="middle" x="988.5" y="-231.5" font-family="Helvetica,sans-Serif" font-size="10.00">CSVFileReader.hpp</text>
</a>
</g>
</g>
<!-- Node20&#45;&gt;Node21 -->
<g id="edge33" class="edge"><title>Node20&#45;&gt;Node21</title>
<path fill="none" stroke="midnightblue" d="M985.161,-280.083C985.685,-273.006 986.436,-262.861 987.094,-253.986"/>
<polygon fill="midnightblue" stroke="midnightblue" points="990.603,-253.982 987.852,-243.751 983.623,-253.465 990.603,-253.982"/>
</g>
<!-- Node30 -->
<g id="node30" class="node"><title>Node30</title>
<g id="a_node30"><a xlink:title=" ">
<polygon fill="white" stroke="#bfbfbf" points="1287,-168.5 1287,-187.5 1328,-187.5 1328,-168.5 1287,-168.5"/>
<text text-anchor="middle" x="1307.5" y="-175.5" font-family="Helvetica,sans-Serif" font-size="10.00">string</text>
</a>
</g>
</g>
<!-- Node20&#45;&gt;Node30 -->
<g id="edge47" class="edge"><title>Node20&#45;&gt;Node30</title>
<path fill="none" stroke="midnightblue" d="M1009.58,-280.46C1068.13,-260.521 1213.66,-210.957 1277.11,-189.348"/>
<polygon fill="midnightblue" stroke="midnightblue" points="1278.58,-192.546 1286.92,-186.009 1276.33,-185.919 1278.58,-192.546"/>
</g>
<!-- Node21&#45;&gt;Node5 -->
<g id="edge37" class="edge"><title>Node21&#45;&gt;Node5</title>
<path fill="none" stroke="midnightblue" d="M936.221,-229.383C869.251,-223.862 757.838,-211.418 724.5,-188 692.743,-165.692 712.039,-135.949 681.5,-112 647.239,-85.1317 597.78,-74.3031 562.942,-69.9405"/>
<polygon fill="midnightblue" stroke="midnightblue" points="562.96,-66.4207 552.632,-68.7835 562.179,-73.377 562.96,-66.4207"/>
</g>
<!-- Node21&#45;&gt;Node8 -->
<g id="edge45" class="edge"><title>Node21&#45;&gt;Node8</title>
<path fill="none" stroke="midnightblue" d="M1040.68,-227.221C1110.45,-218.963 1226.86,-203.11 1239.5,-188 1295.57,-120.988 1155.41,-51.317 1089.97,-23.5262"/>
<polygon fill="midnightblue" stroke="midnightblue" points="1091.1,-20.2038 1080.52,-19.5834 1088.4,-26.6641 1091.1,-20.2038"/>
</g>
<!-- Node21&#45;&gt;Node13 -->
<g id="edge41" class="edge"><title>Node21&#45;&gt;Node13</title>
<path fill="none" stroke="midnightblue" d="M936.193,-226.161C851.165,-215.043 685.103,-193.331 611.78,-183.744"/>
<polygon fill="midnightblue" stroke="midnightblue" points="612.025,-180.246 601.656,-182.42 611.117,-187.187 612.025,-180.246"/>
</g>
<!-- Node22 -->
<g id="node22" class="node"><title>Node22</title>
<g id="a_node22"><a xlink:href="Traits_8hpp.html" target="_top" xlink:title="Defines a basic set of traits for making compile&#45;time assertions about numeric types and iterators.">
<polygon fill="white" stroke="black" points="958.5,-168.5 958.5,-187.5 1018.5,-187.5 1018.5,-168.5 958.5,-168.5"/>
<text text-anchor="middle" x="988.5" y="-175.5" font-family="Helvetica,sans-Serif" font-size="10.00">Traits.hpp</text>
</a>
</g>
</g>
<!-- Node21&#45;&gt;Node22 -->
<g id="edge34" class="edge"><title>Node21&#45;&gt;Node22</title>
<path fill="none" stroke="midnightblue" d="M988.5,-224.083C988.5,-217.006 988.5,-206.861 988.5,-197.986"/>
<polygon fill="midnightblue" stroke="midnightblue" points="992,-197.751 988.5,-187.751 985,-197.751 992,-197.751"/>
</g>
<!-- Node25 -->
<g id="node25" class="node"><title>Node25</title>
<g id="a_node25"><a xlink:title=" ">
<polygon fill="white" stroke="#bfbfbf" points="811,-168.5 811,-187.5 940,-187.5 940,-168.5 811,-168.5"/>
<text text-anchor="middle" x="875.5" y="-175.5" font-family="Helvetica,sans-Serif" font-size="10.00">boost/algorithm/string.hpp</text>
</a>
</g>
</g>
<!-- Node21&#45;&gt;Node25 -->
<g id="edge38" class="edge"><title>Node21&#45;&gt;Node25</title>
<path fill="none" stroke="midnightblue" d="M970.595,-224.444C952.246,-215.675 923.495,-201.935 902.406,-191.858"/>
<polygon fill="midnightblue" stroke="midnightblue" points="903.853,-188.67 893.321,-187.516 900.835,-194.986 903.853,-188.67"/>
</g>
<!-- Node26 -->
<g id="node26" class="node"><title>Node26</title>
<g id="a_node26"><a xlink:title=" ">
<polygon fill="white" stroke="#bfbfbf" points="1036.5,-168.5 1036.5,-187.5 1092.5,-187.5 1092.5,-168.5 1036.5,-168.5"/>
<text text-anchor="middle" x="1064.5" y="-175.5" font-family="Helvetica,sans-Serif" font-size="10.00">algorithm</text>
</a>
</g>
</g>
<!-- Node21&#45;&gt;Node26 -->
<g id="edge39" class="edge"><title>Node21&#45;&gt;Node26</title>
<path fill="none" stroke="midnightblue" d="M1000.71,-224.324C1012.28,-216.107 1029.88,-203.602 1043.66,-193.807"/>
<polygon fill="midnightblue" stroke="midnightblue" points="1045.94,-196.479 1052.07,-187.834 1041.89,-190.773 1045.94,-196.479"/>
</g>
<!-- Node27 -->
<g id="node27" class="node"><title>Node27</title>
<g id="a_node27"><a xlink:title=" ">
<polygon fill="white" stroke="#bfbfbf" points="1110.5,-168.5 1110.5,-187.5 1160.5,-187.5 1160.5,-168.5 1110.5,-168.5"/>
<text text-anchor="middle" x="1135.5" y="-175.5" font-family="Helvetica,sans-Serif" font-size="10.00">fstream</text>
</a>
</g>
</g>
<!-- Node21&#45;&gt;Node27 -->
<g id="edge40" class="edge"><title>Node21&#45;&gt;Node27</title>
<path fill="none" stroke="midnightblue" d="M1011.79,-224.444C1036.31,-215.438 1075.1,-201.189 1102.7,-191.049"/>
<polygon fill="midnightblue" stroke="midnightblue" points="1104.14,-194.25 1112.32,-187.516 1101.72,-187.679 1104.14,-194.25"/>
</g>
<!-- Node28 -->
<g id="node28" class="node"><title>Node28</title>
<g id="a_node28"><a xlink:title=" ">
<polygon fill="white" stroke="#bfbfbf" points="1178.5,-168.5 1178.5,-187.5 1230.5,-187.5 1230.5,-168.5 1178.5,-168.5"/>
<text text-anchor="middle" x="1204.5" y="-175.5" font-family="Helvetica,sans-Serif" font-size="10.00">sstream</text>
</a>
</g>
</g>
<!-- Node21&#45;&gt;Node28 -->
<g id="edge42" class="edge"><title>Node21&#45;&gt;Node28</title>
<path fill="none" stroke="midnightblue" d="M1023.22,-224.456C1057.68,-215.956 1112.26,-202.441 1168.38,-188.27"/>
<polygon fill="midnightblue" stroke="midnightblue" points="1169.3,-191.649 1178.13,-185.804 1167.58,-184.862 1169.3,-191.649"/>
</g>
<!-- Node29 -->
<g id="node29" class="node"><title>Node29</title>
<g id="a_node29"><a xlink:title=" ">
<polygon fill="white" stroke="#bfbfbf" points="734,-168.5 734,-187.5 793,-187.5 793,-168.5 734,-168.5"/>
<text text-anchor="middle" x="763.5" y="-175.5" font-family="Helvetica,sans-Serif" font-size="10.00">stdexcept</text>
</a>
</g>
</g>
<!-- Node21&#45;&gt;Node29 -->
<g id="edge43" class="edge"><title>Node21&#45;&gt;Node29</title>
<path fill="none" stroke="midnightblue" d="M952.848,-224.444C912.095,-214.663 845.57,-198.697 803.197,-188.527"/>
<polygon fill="midnightblue" stroke="midnightblue" points="803.777,-185.067 793.237,-186.137 802.144,-191.874 803.777,-185.067"/>
</g>
<!-- Node21&#45;&gt;Node30 -->
<g id="edge44" class="edge"><title>Node21&#45;&gt;Node30</title>
<path fill="none" stroke="midnightblue" d="M1040.59,-226.252C1097.75,-218.497 1192.09,-204.67 1272.5,-188 1273.96,-187.698 1275.45,-187.374 1276.95,-187.035"/>
<polygon fill="midnightblue" stroke="midnightblue" points="1277.94,-190.396 1286.85,-184.656 1276.31,-183.59 1277.94,-190.396"/>
</g>
<!-- Node23 -->
<g id="node23" class="node"><title>Node23</title>
<g id="a_node23"><a xlink:title=" ">
<polygon fill="white" stroke="#bfbfbf" points="928,-112.5 928,-131.5 975,-131.5 975,-112.5 928,-112.5"/>
<text text-anchor="middle" x="951.5" y="-119.5" font-family="Helvetica,sans-Serif" font-size="10.00">iterator</text>
</a>
</g>
</g>
<!-- Node22&#45;&gt;Node23 -->
<g id="edge35" class="edge"><title>Node22&#45;&gt;Node23</title>
<path fill="none" stroke="midnightblue" d="M982.39,-168.083C977.218,-160.534 969.654,-149.495 963.306,-140.23"/>
<polygon fill="midnightblue" stroke="midnightblue" points="966.036,-138.022 957.496,-131.751 960.261,-141.979 966.036,-138.022"/>
</g>
<!-- Node24 -->
<g id="node24" class="node"><title>Node24</title>
<g id="a_node24"><a xlink:title=" ">
<polygon fill="white" stroke="#bfbfbf" points="993.5,-112.5 993.5,-131.5 1055.5,-131.5 1055.5,-112.5 993.5,-112.5"/>
<text text-anchor="middle" x="1024.5" y="-119.5" font-family="Helvetica,sans-Serif" font-size="10.00">type_traits</text>
</a>
</g>
</g>
<!-- Node22&#45;&gt;Node24 -->
<g id="edge36" class="edge"><title>Node22&#45;&gt;Node24</title>
<path fill="none" stroke="midnightblue" d="M994.445,-168.083C999.477,-160.534 1006.84,-149.495 1013.01,-140.23"/>
<polygon fill="midnightblue" stroke="midnightblue" points="1016.03,-142.013 1018.67,-131.751 1010.21,-138.13 1016.03,-142.013"/>
</g>
<!-- Node31&#45;&gt;Node5 -->
<g id="edge51" class="edge"><title>Node31&#45;&gt;Node5</title>
<path fill="none" stroke="midnightblue" d="M1351.81,-224.347C1373.28,-211.861 1406.42,-188.084 1389.5,-168 1335.52,-103.924 728.403,-75.2266 562.934,-68.5618"/>
<polygon fill="midnightblue" stroke="midnightblue" points="562.815,-65.0544 552.684,-68.1545 562.537,-72.0488 562.815,-65.0544"/>
</g>
<!-- Node31&#45;&gt;Node30 -->
<g id="edge52" class="edge"><title>Node31&#45;&gt;Node30</title>
<path fill="none" stroke="midnightblue" d="M1330.88,-224.083C1327.04,-216.691 1321.48,-205.953 1316.74,-196.811"/>
<polygon fill="midnightblue" stroke="midnightblue" points="1319.75,-195.018 1312.04,-187.751 1313.53,-198.24 1319.75,-195.018"/>
</g>
<!-- Node32 -->
<g id="node32" class="node"><title>Node32</title>
<g id="a_node32"><a xlink:title=" ">
<polygon fill="white" stroke="#bfbfbf" points="1346,-168.5 1346,-187.5 1381,-187.5 1381,-168.5 1346,-168.5"/>
<text text-anchor="middle" x="1363.5" y="-175.5" font-family="Helvetica,sans-Serif" font-size="10.00">map</text>
</a>
</g>
</g>
<!-- Node31&#45;&gt;Node32 -->
<g id="edge53" class="edge"><title>Node31&#45;&gt;Node32</title>
<path fill="none" stroke="midnightblue" d="M1340.12,-224.083C1343.96,-216.691 1349.52,-205.953 1354.26,-196.811"/>
<polygon fill="midnightblue" stroke="midnightblue" points="1357.47,-198.24 1358.96,-187.751 1351.25,-195.018 1357.47,-198.24"/>
</g>
<!-- Node33&#45;&gt;Node5 -->
<g id="edge58" class="edge"><title>Node33&#45;&gt;Node5</title>
<path fill="none" stroke="midnightblue" d="M1512.5,-403.491C1512.5,-383.736 1512.5,-333.224 1512.5,-291 1512.5,-291 1512.5,-291 1512.5,-177 1512.5,-137.077 1486.81,-128.596 1450.5,-112 1369.09,-74.791 731.767,-68.2795 562.605,-67.2029"/>
<polygon fill="midnightblue" stroke="midnightblue" points="562.625,-63.7031 552.604,-67.1422 562.583,-70.703 562.625,-63.7031"/>
</g>
</g>
</svg>
