<?xml version="1.0" encoding="UTF-8" standalone="no"?>
<!DOCTYPE svg PUBLIC "-//W3C//DTD SVG 1.1//EN"
 "http://www.w3.org/Graphics/SVG/1.1/DTD/svg11.dtd">
<!-- Generated by graphviz version 2.38.0 (20140413.2041)
 -->
<!-- Title: include/SparseTriplet.hpp Pages: 1 -->
<svg width="296pt" height="151pt"
 viewBox="0.00 0.00 295.50 151.00" xmlns="http://www.w3.org/2000/svg" xmlns:xlink="http://www.w3.org/1999/xlink">
<g id="graph0" class="graph" transform="scale(1 1) rotate(0) translate(4 147)">
<title>include/SparseTriplet.hpp</title>
<polygon fill="white" stroke="none" points="-4,4 -4,-147 291.5,-147 291.5,4 -4,4"/>
<!-- Node1 -->
<g id="node1" class="node"><title>Node1</title>
<g id="a_node1"><a xlink:title="Defines a sparse triplet matrix class.">
<polygon fill="#bfbfbf" stroke="black" points="100.5,-123.5 100.5,-142.5 227.5,-142.5 227.5,-123.5 100.5,-123.5"/>
<text text-anchor="middle" x="164" y="-130.5" font-family="Helvetica,sans-Serif" font-size="10.00">include/SparseTriplet.hpp</text>
</a>
</g>
</g>
<!-- Node2 -->
<g id="node2" class="node"><title>Node2</title>
<g id="a_node2"><a xlink:href="CSCMatrix_8hpp.html" target="_top" xlink:title=" ">
<polygon fill="white" stroke="black" points="62,-67.5 62,-86.5 180,-86.5 180,-67.5 62,-67.5"/>
<text text-anchor="middle" x="121" y="-74.5" font-family="Helvetica,sans-Serif" font-size="10.00">include/CSCMatrix.hpp</text>
</a>
</g>
</g>
<!-- Node1&#45;&gt;Node2 -->
<g id="edge1" class="edge"><title>Node1&#45;&gt;Node2</title>
<path fill="none" stroke="midnightblue" d="M150.578,-115.144C143.086,-105.736 134.063,-94.4046 127.968,-86.7511"/>
<polygon fill="midnightblue" stroke="midnightblue" points="147.932,-117.44 156.899,-123.083 153.408,-113.08 147.932,-117.44"/>
</g>
<!-- Node4 -->
<g id="node4" class="node"><title>Node4</title>
<g id="a_node4"><a xlink:href="Poisson2DSparseMatrix_8hpp_source.html" target="_top" xlink:title=" ">
<polygon fill="white" stroke="black" points="128.5,-0.5 128.5,-30.5 287.5,-30.5 287.5,-0.5 128.5,-0.5"/>
<text text-anchor="start" x="136.5" y="-18.5" font-family="Helvetica,sans-Serif" font-size="10.00">src/poisson2d/Poisson2DSparse</text>
<text text-anchor="middle" x="208" y="-7.5" font-family="Helvetica,sans-Serif" font-size="10.00">Matrix.hpp</text>
</a>
</g>
</g>
<!-- Node1&#45;&gt;Node4 -->
<g id="edge4" class="edge"><title>Node1&#45;&gt;Node4</title>
<path fill="none" stroke="midnightblue" d="M174.883,-114.752C179.701,-106.573 185.138,-96.5247 189,-87 196.668,-68.0865 202.206,-45.0782 205.26,-30.6064"/>
<polygon fill="midnightblue" stroke="midnightblue" points="171.858,-112.991 169.644,-123.352 177.836,-116.634 171.858,-112.991"/>
</g>
<!-- Node3 -->
<g id="node3" class="node"><title>Node3</title>
<g id="a_node3"><a xlink:href="LUSolver_8hpp.html" target="_top" xlink:title="Defines the LUSolver class that implements UMFPACK LU factorization (umfpack_di_numeric,...">
<polygon fill="white" stroke="black" points="0,-6 0,-25 110,-25 110,-6 0,-6"/>
<text text-anchor="middle" x="55" y="-13" font-family="Helvetica,sans-Serif" font-size="10.00">include/LUSolver.hpp</text>
</a>
</g>
</g>
<!-- Node2&#45;&gt;Node3 -->
<g id="edge2" class="edge"><title>Node2&#45;&gt;Node3</title>
<path fill="none" stroke="midnightblue" d="M103.973,-60.6496C91.3897,-49.3058 74.7235,-34.2811 64.4386,-25.0091"/>
<polygon fill="midnightblue" stroke="midnightblue" points="101.773,-63.3788 111.544,-67.4751 106.46,-58.1796 101.773,-63.3788"/>
</g>
<!-- Node2&#45;&gt;Node4 -->
<g id="edge3" class="edge"><title>Node2&#45;&gt;Node4</title>
<path fill="none" stroke="midnightblue" d="M141.852,-61.739C155.679,-52.2824 173.74,-39.9304 187.496,-30.523"/>
<polygon fill="midnightblue" stroke="midnightblue" points="139.743,-58.9409 133.465,-67.4751 143.695,-64.7189 139.743,-58.9409"/>
</g>
</g>
</svg>
