<?xml version="1.0" encoding="UTF-8" standalone="no"?>
<!DOCTYPE svg PUBLIC "-//W3C//DTD SVG 1.1//EN"
 "http://www.w3.org/Graphics/SVG/1.1/DTD/svg11.dtd">
<!-- Generated by graphviz version 2.38.0 (20140413.2041)
 -->
<!-- Title: include/SparseTriplet.hpp Pages: 1 -->
<svg width="296pt" height="140pt"
 viewBox="0.00 0.00 296.00 140.00" xmlns="http://www.w3.org/2000/svg" xmlns:xlink="http://www.w3.org/1999/xlink">
<g id="graph0" class="graph" transform="scale(1 1) rotate(0) translate(4 136)">
<title>include/SparseTriplet.hpp</title>
<polygon fill="white" stroke="none" points="-4,4 -4,-136 292,-136 292,4 -4,4"/>
<!-- Node1 -->
<g id="node1" class="node"><title>Node1</title>
<g id="a_node1"><a xlink:title="Defines a sparse triplet matrix class.">
<polygon fill="#bfbfbf" stroke="black" points="140.5,-112.5 140.5,-131.5 267.5,-131.5 267.5,-112.5 140.5,-112.5"/>
<text text-anchor="middle" x="204" y="-119.5" font-family="Helvetica,sans-Serif" font-size="10.00">include/SparseTriplet.hpp</text>
</a>
</g>
</g>
<!-- Node2 -->
<g id="node2" class="node"><title>Node2</title>
<g id="a_node2"><a xlink:href="Types_8hpp.html" target="_top" xlink:title="Defines the basic types used throughout this project.">
<polygon fill="white" stroke="black" points="103,-56.5 103,-75.5 165,-75.5 165,-56.5 103,-56.5"/>
<text text-anchor="middle" x="134" y="-63.5" font-family="Helvetica,sans-Serif" font-size="10.00">Types.hpp</text>
</a>
</g>
</g>
<!-- Node1&#45;&gt;Node2 -->
<g id="edge1" class="edge"><title>Node1&#45;&gt;Node2</title>
<path fill="none" stroke="midnightblue" d="M192.753,-112.324C182.203,-104.185 166.199,-91.8395 153.558,-82.0874"/>
<polygon fill="midnightblue" stroke="midnightblue" points="155.507,-79.1707 145.451,-75.8339 151.231,-84.7132 155.507,-79.1707"/>
</g>
<!-- Node5 -->
<g id="node5" class="node"><title>Node5</title>
<g id="a_node5"><a xlink:title=" ">
<polygon fill="white" stroke="#bfbfbf" points="188,-0.5 188,-19.5 232,-19.5 232,-0.5 188,-0.5"/>
<text text-anchor="middle" x="210" y="-7.5" font-family="Helvetica,sans-Serif" font-size="10.00">vector</text>
</a>
</g>
</g>
<!-- Node1&#45;&gt;Node5 -->
<g id="edge6" class="edge"><title>Node1&#45;&gt;Node5</title>
<path fill="none" stroke="midnightblue" d="M204.471,-112.368C205.439,-94.617 207.673,-53.6664 208.986,-29.5974"/>
<polygon fill="midnightblue" stroke="midnightblue" points="212.481,-29.7672 209.531,-19.5914 205.492,-29.3859 212.481,-29.7672"/>
</g>
<!-- Node6 -->
<g id="node6" class="node"><title>Node6</title>
<g id="a_node6"><a xlink:title=" ">
<polygon fill="white" stroke="#bfbfbf" points="232,-56.5 232,-75.5 288,-75.5 288,-56.5 232,-56.5"/>
<text text-anchor="middle" x="260" y="-63.5" font-family="Helvetica,sans-Serif" font-size="10.00">algorithm</text>
</a>
</g>
</g>
<!-- Node1&#45;&gt;Node6 -->
<g id="edge5" class="edge"><title>Node1&#45;&gt;Node6</title>
<path fill="none" stroke="midnightblue" d="M212.997,-112.324C221.194,-104.42 233.506,-92.5482 243.472,-82.9377"/>
<polygon fill="midnightblue" stroke="midnightblue" points="246.07,-85.2947 250.839,-75.8339 241.211,-80.2558 246.07,-85.2947"/>
</g>
<!-- Node3 -->
<g id="node3" class="node"><title>Node3</title>
<g id="a_node3"><a xlink:title=" ">
<polygon fill="white" stroke="#bfbfbf" points="0,-0.5 0,-19.5 68,-19.5 68,-0.5 0,-0.5"/>
<text text-anchor="middle" x="34" y="-7.5" font-family="Helvetica,sans-Serif" font-size="10.00">blitz/array.h</text>
</a>
</g>
</g>
<!-- Node2&#45;&gt;Node3 -->
<g id="edge2" class="edge"><title>Node2&#45;&gt;Node3</title>
<path fill="none" stroke="midnightblue" d="M117.933,-56.324C102.042,-47.7428 77.4926,-34.486 59.0415,-24.5224"/>
<polygon fill="midnightblue" stroke="midnightblue" points="60.489,-21.3264 50.0269,-19.6545 57.1629,-27.4857 60.489,-21.3264"/>
</g>
<!-- Node4 -->
<g id="node4" class="node"><title>Node4</title>
<g id="a_node4"><a xlink:title=" ">
<polygon fill="white" stroke="#bfbfbf" points="86.5,-0.5 86.5,-19.5 169.5,-19.5 169.5,-0.5 86.5,-0.5"/>
<text text-anchor="middle" x="128" y="-7.5" font-family="Helvetica,sans-Serif" font-size="10.00">unordered_map</text>
</a>
</g>
</g>
<!-- Node2&#45;&gt;Node4 -->
<g id="edge3" class="edge"><title>Node2&#45;&gt;Node4</title>
<path fill="none" stroke="midnightblue" d="M133.009,-56.083C132.214,-48.9272 131.071,-38.6353 130.077,-29.6911"/>
<polygon fill="midnightblue" stroke="midnightblue" points="133.555,-29.3034 128.972,-19.7511 126.598,-30.0765 133.555,-29.3034"/>
</g>
<!-- Node2&#45;&gt;Node5 -->
<g id="edge4" class="edge"><title>Node2&#45;&gt;Node5</title>
<path fill="none" stroke="midnightblue" d="M146.211,-56.324C157.776,-48.1066 175.375,-35.6017 189.161,-25.8069"/>
<polygon fill="midnightblue" stroke="midnightblue" points="191.443,-28.4791 197.567,-19.8339 187.388,-22.7729 191.443,-28.4791"/>
</g>
</g>
</svg>
