<?xml version="1.0" encoding="UTF-8" standalone="no"?>
<!DOCTYPE svg PUBLIC "-//W3C//DTD SVG 1.1//EN"
 "http://www.w3.org/Graphics/SVG/1.1/DTD/svg11.dtd">
<!-- Generated by graphviz version 2.38.0 (20140413.2041)
 -->
<!-- Title: src/sw2d/SW2d.hpp Pages: 1 -->
<!--zoomable 420 -->
<svg id="main" version="1.1" xmlns="http://www.w3.org/2000/svg" xmlns:xlink="http://www.w3.org/1999/xlink" xml:space="preserve" onload="init(evt)">
<style type="text/css"><![CDATA[
.edge:hover path { stroke: red; }
.edge:hover polygon { stroke: red; fill: red; }
]]></style>
<script type="text/javascript"><![CDATA[
var edges = document.getElementsByTagName('g');
if (edges && edges.length) {
  for (var i=0;i<edges.length;i++) {
    if (edges[i].id.substr(0,4)=='edge') {
      edges[i].setAttribute('class','edge');
    }
  }
}
]]></script>
        <defs>
                <circle id="rim" cx="0" cy="0" r="7"/>
                <circle id="rim2" cx="0" cy="0" r="3.5"/>
                <g id="zoomPlus">
                        <use xlink:href="#rim" fill="#404040">
                                <set attributeName="fill" to="#808080" begin="zoomplus.mouseover" end="zoomplus.mouseout"/>
                        </use>
                        <path d="M-4,0h8M0,-4v8" fill="none" stroke="white" stroke-width="1.5" pointer-events="none"/>
                </g>
                <g id="zoomMin">
                        <use xlink:href="#rim" fill="#404040">
                                <set attributeName="fill" to="#808080" begin="zoomminus.mouseover" end="zoomminus.mouseout"/>
                        </use>
                        <path d="M-4,0h8" fill="none" stroke="white" stroke-width="1.5" pointer-events="none"/>
                </g>
                <g id="dirArrow">
                        <path fill="none" stroke="white" stroke-width="1.5" d="M0,-3.0v7 M-2.5,-0.5L0,-3.0L2.5,-0.5"/>
                </g>
               <g id="resetDef">
                       <use xlink:href="#rim2" fill="#404040">
                               <set attributeName="fill" to="#808080" begin="reset.mouseover" end="reset.mouseout"/>
                       </use>
               </g>
        </defs>

<script type="text/javascript">
var viewWidth = 1325;
var viewHeight = 420;
var sectionId = 'dynsection-0';
</script>
<script xlink:href="svgpan.js"/>
<svg id="graph" class="graph">
<g id="viewport">
<title>src/sw2d/SW2d.hpp</title>
<polygon fill="white" stroke="none" points="-4,4 -4,-416 1320.98,-416 1320.98,4 -4,4"/>
<!-- Node1 -->
<g id="node1" class="node"><title>Node1</title>
<g id="a_node1"><a xlink:title="Short header file for 2D shallow water solver&#39;s main.cpp file.">
<polygon fill="#bfbfbf" stroke="black" points="910.481,-392.5 910.481,-411.5 1015.48,-411.5 1015.48,-392.5 910.481,-392.5"/>
<text text-anchor="middle" x="962.981" y="-399.5" font-family="Helvetica,sans-Serif" font-size="10.00">src/sw2d/SW2d.hpp</text>
</a>
</g>
</g>
<!-- Node2 -->
<g id="node2" class="node"><title>Node2</title>
<g id="a_node2"><a xlink:href="TriangleNodesProvisioner_8hpp.html" target="_top" xlink:title="Defines the TriangleNodesProvisioner class that provides a construction of 2D nodal points on the tri...">
<polygon fill="white" stroke="black" points="889.481,-336.5 889.481,-355.5 1036.48,-355.5 1036.48,-336.5 889.481,-336.5"/>
<text text-anchor="middle" x="962.981" y="-343.5" font-family="Helvetica,sans-Serif" font-size="10.00">TriangleNodesProvisioner.hpp</text>
</a>
</g>
</g>
<!-- Node1&#45;&gt;Node2 -->
<g id="edge1" class="edge"><title>Node1&#45;&gt;Node2</title>
<path fill="none" stroke="midnightblue" d="M962.981,-392.083C962.981,-385.006 962.981,-374.861 962.981,-365.986"/>
<polygon fill="midnightblue" stroke="midnightblue" points="966.481,-365.751 962.981,-355.751 959.481,-365.751 966.481,-365.751"/>
</g>
<!-- Node5 -->
<g id="node5" class="node"><title>Node5</title>
<g id="a_node5"><a xlink:href="Types_8hpp.html" target="_top" xlink:title="Defines the basic types used throughout this project.">
<polygon fill="white" stroke="black" points="960.981,-56.5 960.981,-75.5 1022.98,-75.5 1022.98,-56.5 960.981,-56.5"/>
<text text-anchor="middle" x="991.981" y="-63.5" font-family="Helvetica,sans-Serif" font-size="10.00">Types.hpp</text>
</a>
</g>
</g>
<!-- Node1&#45;&gt;Node5 -->
<g id="edge43" class="edge"><title>Node1&#45;&gt;Node5</title>
<path fill="none" stroke="midnightblue" d="M1015.6,-395.71C1114.21,-384.329 1316.98,-353.346 1316.98,-291 1316.98,-291 1316.98,-291 1316.98,-177 1316.98,-131.188 1278.58,-131.18 1236.98,-112 1170.07,-81.1508 1083.7,-71.4319 1033.41,-68.3817"/>
<polygon fill="midnightblue" stroke="midnightblue" points="1033.42,-64.8772 1023.25,-67.8268 1033.04,-71.8668 1033.42,-64.8772"/>
</g>
<!-- Node26 -->
<g id="node26" class="node"><title>Node26</title>
<g id="a_node26"><a xlink:title=" ">
<polygon fill="white" stroke="#bfbfbf" points="584.481,-168.5 584.481,-187.5 625.481,-187.5 625.481,-168.5 584.481,-168.5"/>
<text text-anchor="middle" x="604.981" y="-175.5" font-family="Helvetica,sans-Serif" font-size="10.00">string</text>
</a>
</g>
</g>
<!-- Node1&#45;&gt;Node26 -->
<g id="edge44" class="edge"><title>Node1&#45;&gt;Node26</title>
<path fill="none" stroke="midnightblue" d="M910.398,-394.75C816.344,-382.373 625.427,-351.405 585.981,-300 562.667,-269.618 581.559,-222.1 594.811,-196.592"/>
<polygon fill="midnightblue" stroke="midnightblue" points="597.952,-198.143 599.679,-187.689 591.81,-194.785 597.952,-198.143"/>
</g>
<!-- Node3 -->
<g id="node3" class="node"><title>Node3</title>
<g id="a_node3"><a xlink:href="Nodes1DProvisioner_8hpp.html" target="_top" xlink:title="Defines a class for computations related to the construction of one&#45;dimensional nodes,...">
<polygon fill="white" stroke="black" points="900.481,-280.5 900.481,-299.5 1025.48,-299.5 1025.48,-280.5 900.481,-280.5"/>
<text text-anchor="middle" x="962.981" y="-287.5" font-family="Helvetica,sans-Serif" font-size="10.00">Nodes1DProvisioner.hpp</text>
</a>
</g>
</g>
<!-- Node2&#45;&gt;Node3 -->
<g id="edge2" class="edge"><title>Node2&#45;&gt;Node3</title>
<path fill="none" stroke="midnightblue" d="M962.981,-336.083C962.981,-329.006 962.981,-318.861 962.981,-309.986"/>
<polygon fill="midnightblue" stroke="midnightblue" points="966.481,-309.751 962.981,-299.751 959.481,-309.751 966.481,-309.751"/>
</g>
<!-- Node2&#45;&gt;Node5 -->
<g id="edge41" class="edge"><title>Node2&#45;&gt;Node5</title>
<path fill="none" stroke="midnightblue" d="M991.114,-336.471C1030.83,-323.051 1103.13,-293.323 1144.98,-244 1162.08,-223.848 1160.47,-214.041 1164.98,-188 1170.96,-153.471 1169.62,-135.885 1143.98,-112 1113.78,-83.866 1066.79,-73.2518 1033.05,-69.2855"/>
<polygon fill="midnightblue" stroke="midnightblue" points="1033.35,-65.7974 1023.04,-68.256 1032.63,-72.7607 1033.35,-65.7974"/>
</g>
<!-- Node13 -->
<g id="node13" class="node"><title>Node13</title>
<g id="a_node13"><a xlink:title=" ">
<polygon fill="white" stroke="#bfbfbf" points="681.981,-168.5 681.981,-187.5 733.981,-187.5 733.981,-168.5 681.981,-168.5"/>
<text text-anchor="middle" x="707.981" y="-175.5" font-family="Helvetica,sans-Serif" font-size="10.00">memory</text>
</a>
</g>
</g>
<!-- Node2&#45;&gt;Node13 -->
<g id="edge42" class="edge"><title>Node2&#45;&gt;Node13</title>
<path fill="none" stroke="midnightblue" d="M939.204,-336.445C900.052,-321.624 820.704,-288.447 763.981,-244 746.284,-230.133 729.988,-210.022 719.593,-195.851"/>
<polygon fill="midnightblue" stroke="midnightblue" points="722.312,-193.635 713.659,-187.521 716.611,-197.697 722.312,-193.635"/>
</g>
<!-- Node15 -->
<g id="node15" class="node"><title>Node15</title>
<g id="a_node15"><a xlink:href="DGContext2D_8hpp_source.html" target="_top" xlink:title=" ">
<polygon fill="white" stroke="black" points="1190.98,-280.5 1190.98,-299.5 1288.98,-299.5 1288.98,-280.5 1190.98,-280.5"/>
<text text-anchor="middle" x="1239.98" y="-287.5" font-family="Helvetica,sans-Serif" font-size="10.00">DGContext2D.hpp</text>
</a>
</g>
</g>
<!-- Node2&#45;&gt;Node15 -->
<g id="edge22" class="edge"><title>Node2&#45;&gt;Node15</title>
<path fill="none" stroke="midnightblue" d="M1006.87,-336.444C1055.5,-326.964 1133.93,-311.675 1186.2,-301.483"/>
<polygon fill="midnightblue" stroke="midnightblue" points="1187.15,-304.865 1196.29,-299.516 1185.81,-297.995 1187.15,-304.865"/>
</g>
<!-- Node16 -->
<g id="node16" class="node"><title>Node16</title>
<g id="a_node16"><a xlink:href="MeshManager_8hpp.html" target="_top" xlink:title="Defines the MeshManager class that reads mesh input files and partitions meshes with METIS....">
<polygon fill="white" stroke="black" points="595.481,-280.5 595.481,-299.5 692.481,-299.5 692.481,-280.5 595.481,-280.5"/>
<text text-anchor="middle" x="643.981" y="-287.5" font-family="Helvetica,sans-Serif" font-size="10.00">MeshManager.hpp</text>
</a>
</g>
</g>
<!-- Node2&#45;&gt;Node16 -->
<g id="edge24" class="edge"><title>Node2&#45;&gt;Node16</title>
<path fill="none" stroke="midnightblue" d="M912.434,-336.444C855.471,-326.801 762.992,-311.146 702.826,-300.961"/>
<polygon fill="midnightblue" stroke="midnightblue" points="703.166,-297.469 692.722,-299.251 701.997,-304.371 703.166,-297.469"/>
</g>
<!-- Node4 -->
<g id="node4" class="node"><title>Node4</title>
<g id="a_node4"><a xlink:href="DirectSolver_8hpp.html" target="_top" xlink:title="Defines the DirectSolver class that implements LAPACK direct solution routine DSGESV....">
<polygon fill="white" stroke="black" points="752.481,-168.5 752.481,-187.5 841.481,-187.5 841.481,-168.5 752.481,-168.5"/>
<text text-anchor="middle" x="796.981" y="-175.5" font-family="Helvetica,sans-Serif" font-size="10.00">DirectSolver.hpp</text>
</a>
</g>
</g>
<!-- Node3&#45;&gt;Node4 -->
<g id="edge3" class="edge"><title>Node3&#45;&gt;Node4</title>
<path fill="none" stroke="midnightblue" d="M900.36,-283.788C870.843,-278.211 837.294,-266.879 814.981,-244 803.111,-231.829 798.915,-212.557 797.507,-198.152"/>
<polygon fill="midnightblue" stroke="midnightblue" points="800.982,-197.641 796.882,-187.872 793.995,-198.066 800.982,-197.641"/>
</g>
<!-- Node3&#45;&gt;Node5 -->
<g id="edge19" class="edge"><title>Node3&#45;&gt;Node5</title>
<path fill="none" stroke="midnightblue" d="M1018.35,-280.459C1059.41,-272.908 1110.49,-260.523 1123.98,-244 1161.09,-198.558 1159.16,-158.186 1122.98,-112 1101.69,-84.8202 1063.08,-73.9731 1033.27,-69.6877"/>
<polygon fill="midnightblue" stroke="midnightblue" points="1033.49,-66.1884 1023.13,-68.4296 1032.63,-73.1351 1033.49,-66.1884"/>
</g>
<!-- Node9 -->
<g id="node9" class="node"><title>Node9</title>
<g id="a_node9"><a xlink:href="JacobiBuilders_8hpp.html" target="_top" xlink:title="Defines the JacobiBuilders class that constructs Jacobi polynomials, their derivatives,...">
<polygon fill="white" stroke="black" points="1020.48,-168.5 1020.48,-187.5 1119.48,-187.5 1119.48,-168.5 1020.48,-168.5"/>
<text text-anchor="middle" x="1069.98" y="-175.5" font-family="Helvetica,sans-Serif" font-size="10.00">JacobiBuilders.hpp</text>
</a>
</g>
</g>
<!-- Node3&#45;&gt;Node9 -->
<g id="edge8" class="edge"><title>Node3&#45;&gt;Node9</title>
<path fill="none" stroke="midnightblue" d="M1025.59,-285.897C1055.29,-280.889 1088.29,-269.429 1106.98,-244 1118.73,-228.023 1103.29,-207.976 1088.92,-194.401"/>
<polygon fill="midnightblue" stroke="midnightblue" points="1091.04,-191.599 1081.23,-187.592 1086.4,-196.841 1091.04,-191.599"/>
</g>
<!-- Node11 -->
<g id="node11" class="node"><title>Node11</title>
<g id="a_node11"><a xlink:href="VandermondeBuilders_8hpp.html" target="_top" xlink:title="Defines a class for computating the generalized Vandermonde, its gradient, and its inverse for 1D ort...">
<polygon fill="white" stroke="black" points="824.481,-224.5 824.481,-243.5 955.481,-243.5 955.481,-224.5 824.481,-224.5"/>
<text text-anchor="middle" x="889.981" y="-231.5" font-family="Helvetica,sans-Serif" font-size="10.00">VandermondeBuilders.hpp</text>
</a>
</g>
</g>
<!-- Node3&#45;&gt;Node11 -->
<g id="edge12" class="edge"><title>Node3&#45;&gt;Node11</title>
<path fill="none" stroke="midnightblue" d="M951.252,-280.324C940.143,-272.107 923.239,-259.602 909.997,-249.807"/>
<polygon fill="midnightblue" stroke="midnightblue" points="912.044,-246.967 901.923,-243.834 907.881,-252.595 912.044,-246.967"/>
</g>
<!-- Node3&#45;&gt;Node13 -->
<g id="edge20" class="edge"><title>Node3&#45;&gt;Node13</title>
<path fill="none" stroke="midnightblue" d="M915.789,-280.489C882.393,-273.398 837.127,-261.589 799.981,-244 771.88,-230.694 743.2,-208.846 725.497,-194.197"/>
<polygon fill="midnightblue" stroke="midnightblue" points="727.64,-191.426 717.74,-187.653 723.127,-196.776 727.64,-191.426"/>
</g>
<!-- Node14 -->
<g id="node14" class="node"><title>Node14</title>
<g id="a_node14"><a xlink:title=" ">
<polygon fill="white" stroke="#bfbfbf" points="973.981,-224.5 973.981,-243.5 1097.98,-243.5 1097.98,-224.5 973.981,-224.5"/>
<text text-anchor="middle" x="1035.98" y="-231.5" font-family="Helvetica,sans-Serif" font-size="10.00">boost/python/numpy.hpp</text>
</a>
</g>
</g>
<!-- Node3&#45;&gt;Node14 -->
<g id="edge21" class="edge"><title>Node3&#45;&gt;Node14</title>
<path fill="none" stroke="midnightblue" d="M974.71,-280.324C985.818,-272.107 1002.72,-259.602 1015.96,-249.807"/>
<polygon fill="midnightblue" stroke="midnightblue" points="1018.08,-252.595 1024.04,-243.834 1013.92,-246.967 1018.08,-252.595"/>
</g>
<!-- Node4&#45;&gt;Node5 -->
<g id="edge4" class="edge"><title>Node4&#45;&gt;Node5</title>
<path fill="none" stroke="midnightblue" d="M798.383,-168.43C801.123,-154.486 808.52,-126.946 825.981,-112 860.873,-82.134 913.764,-71.912 950.429,-68.5101"/>
<polygon fill="midnightblue" stroke="midnightblue" points="951.087,-71.969 960.779,-67.6897 950.534,-64.9909 951.087,-71.969"/>
</g>
<!-- Node6 -->
<g id="node6" class="node"><title>Node6</title>
<g id="a_node6"><a xlink:title=" ">
<polygon fill="white" stroke="#bfbfbf" points="1004.98,-0.5 1004.98,-19.5 1072.98,-19.5 1072.98,-0.5 1004.98,-0.5"/>
<text text-anchor="middle" x="1038.98" y="-7.5" font-family="Helvetica,sans-Serif" font-size="10.00">blitz/array.h</text>
</a>
</g>
</g>
<!-- Node5&#45;&gt;Node6 -->
<g id="edge5" class="edge"><title>Node5&#45;&gt;Node6</title>
<path fill="none" stroke="midnightblue" d="M999.742,-56.083C1006.52,-48.2982 1016.52,-36.8015 1024.74,-27.3665"/>
<polygon fill="midnightblue" stroke="midnightblue" points="1027.44,-29.592 1031.36,-19.7511 1022.16,-24.9963 1027.44,-29.592"/>
</g>
<!-- Node7 -->
<g id="node7" class="node"><title>Node7</title>
<g id="a_node7"><a xlink:title=" ">
<polygon fill="white" stroke="#bfbfbf" points="903.481,-0.5 903.481,-19.5 986.481,-19.5 986.481,-0.5 903.481,-0.5"/>
<text text-anchor="middle" x="944.981" y="-7.5" font-family="Helvetica,sans-Serif" font-size="10.00">unordered_map</text>
</a>
</g>
</g>
<!-- Node5&#45;&gt;Node7 -->
<g id="edge6" class="edge"><title>Node5&#45;&gt;Node7</title>
<path fill="none" stroke="midnightblue" d="M984.22,-56.083C977.444,-48.2982 967.438,-36.8015 959.226,-27.3665"/>
<polygon fill="midnightblue" stroke="midnightblue" points="961.803,-24.9963 952.597,-19.7511 956.523,-29.592 961.803,-24.9963"/>
</g>
<!-- Node8 -->
<g id="node8" class="node"><title>Node8</title>
<g id="a_node8"><a xlink:title=" ">
<polygon fill="white" stroke="#bfbfbf" points="410.981,-0.5 410.981,-19.5 454.981,-19.5 454.981,-0.5 410.981,-0.5"/>
<text text-anchor="middle" x="432.981" y="-7.5" font-family="Helvetica,sans-Serif" font-size="10.00">vector</text>
</a>
</g>
</g>
<!-- Node5&#45;&gt;Node8 -->
<g id="edge7" class="edge"><title>Node5&#45;&gt;Node8</title>
<path fill="none" stroke="midnightblue" d="M960.729,-61.981C863.007,-52.541 563.866,-23.6437 465.042,-14.0971"/>
<polygon fill="midnightblue" stroke="midnightblue" points="465.347,-10.6104 455.057,-13.1326 464.674,-17.578 465.347,-10.6104"/>
</g>
<!-- Node9&#45;&gt;Node5 -->
<g id="edge11" class="edge"><title>Node9&#45;&gt;Node5</title>
<path fill="none" stroke="midnightblue" d="M1081.31,-168.319C1096.51,-155.597 1120.16,-131.305 1106.98,-112 1090.5,-87.8473 1058.93,-76.6573 1033.04,-71.4733"/>
<polygon fill="midnightblue" stroke="midnightblue" points="1033.53,-68.0063 1023.07,-69.7101 1032.31,-74.8992 1033.53,-68.0063"/>
</g>
<!-- Node10 -->
<g id="node10" class="node"><title>Node10</title>
<g id="a_node10"><a xlink:href="EigenSolver_8hpp.html" target="_top" xlink:title="Defines the EigenSolver class that implements LAPACK solution routine DSYEVD. For symmetric matrices ...">
<polygon fill="white" stroke="black" points="1009.98,-112.5 1009.98,-131.5 1097.98,-131.5 1097.98,-112.5 1009.98,-112.5"/>
<text text-anchor="middle" x="1053.98" y="-119.5" font-family="Helvetica,sans-Serif" font-size="10.00">EigenSolver.hpp</text>
</a>
</g>
</g>
<!-- Node9&#45;&gt;Node10 -->
<g id="edge9" class="edge"><title>Node9&#45;&gt;Node10</title>
<path fill="none" stroke="midnightblue" d="M1067.34,-168.083C1065.2,-160.849 1062.1,-150.409 1059.43,-141.397"/>
<polygon fill="midnightblue" stroke="midnightblue" points="1062.77,-140.345 1056.57,-131.751 1056.06,-142.333 1062.77,-140.345"/>
</g>
<!-- Node10&#45;&gt;Node5 -->
<g id="edge10" class="edge"><title>Node10&#45;&gt;Node5</title>
<path fill="none" stroke="midnightblue" d="M1044.02,-112.324C1034.85,-104.341 1021.04,-92.3128 1009.95,-82.6529"/>
<polygon fill="midnightblue" stroke="midnightblue" points="1011.96,-79.7624 1002.12,-75.8339 1007.37,-85.041 1011.96,-79.7624"/>
</g>
<!-- Node11&#45;&gt;Node4 -->
<g id="edge13" class="edge"><title>Node11&#45;&gt;Node4</title>
<path fill="none" stroke="midnightblue" d="M875.039,-224.324C860.396,-215.822 837.847,-202.729 820.743,-192.797"/>
<polygon fill="midnightblue" stroke="midnightblue" points="822.291,-189.649 811.886,-187.655 818.776,-195.703 822.291,-189.649"/>
</g>
<!-- Node11&#45;&gt;Node5 -->
<g id="edge17" class="edge"><title>Node11&#45;&gt;Node5</title>
<path fill="none" stroke="midnightblue" d="M883.245,-224.188C867.849,-202.896 833.322,-147.77 858.981,-112 879.725,-83.0826 920.065,-72.5124 950.903,-68.7679"/>
<polygon fill="midnightblue" stroke="midnightblue" points="951.362,-72.2393 960.955,-67.743 950.652,-65.2754 951.362,-72.2393"/>
</g>
<!-- Node11&#45;&gt;Node9 -->
<g id="edge14" class="edge"><title>Node11&#45;&gt;Node9</title>
<path fill="none" stroke="midnightblue" d="M918.502,-224.444C949.047,-215.28 997.689,-200.688 1031.58,-190.519"/>
<polygon fill="midnightblue" stroke="midnightblue" points="1033.02,-193.742 1041.59,-187.516 1031.01,-187.038 1033.02,-193.742"/>
</g>
<!-- Node12 -->
<g id="node12" class="node"><title>Node12</title>
<g id="a_node12"><a xlink:href="DenseMatrixInverter_8hpp.html" target="_top" xlink:title="Defines the DenseMatrixInverter class that computes the explicit inverse of a dense matrix via the LA...">
<polygon fill="white" stroke="black" points="867.981,-112.5 867.981,-131.5 991.981,-131.5 991.981,-112.5 867.981,-112.5"/>
<text text-anchor="middle" x="929.981" y="-119.5" font-family="Helvetica,sans-Serif" font-size="10.00">DenseMatrixInverter.hpp</text>
</a>
</g>
</g>
<!-- Node11&#45;&gt;Node12 -->
<g id="edge15" class="edge"><title>Node11&#45;&gt;Node12</title>
<path fill="none" stroke="midnightblue" d="M893.12,-224.368C899.604,-206.537 914.601,-165.295 923.337,-141.272"/>
<polygon fill="midnightblue" stroke="midnightblue" points="926.728,-142.185 926.857,-131.591 920.15,-139.793 926.728,-142.185"/>
</g>
<!-- Node11&#45;&gt;Node13 -->
<g id="edge18" class="edge"><title>Node11&#45;&gt;Node13</title>
<path fill="none" stroke="midnightblue" d="M861.142,-224.444C829.304,-214.997 778.019,-199.781 743.672,-189.59"/>
<polygon fill="midnightblue" stroke="midnightblue" points="744.613,-186.218 734.031,-186.729 742.622,-192.929 744.613,-186.218"/>
</g>
<!-- Node12&#45;&gt;Node5 -->
<g id="edge16" class="edge"><title>Node12&#45;&gt;Node5</title>
<path fill="none" stroke="midnightblue" d="M939.942,-112.324C949.107,-104.341 962.918,-92.3128 974.009,-82.6529"/>
<polygon fill="midnightblue" stroke="midnightblue" points="976.596,-85.041 981.838,-75.8339 971.999,-79.7624 976.596,-85.041"/>
</g>
<!-- Node15&#45;&gt;Node5 -->
<g id="edge23" class="edge"><title>Node15&#45;&gt;Node5</title>
<path fill="none" stroke="midnightblue" d="M1241.92,-280.178C1247.65,-251.564 1261.39,-160.391 1215.98,-112 1191.64,-86.0641 1091.47,-74.3825 1033.66,-69.7119"/>
<polygon fill="midnightblue" stroke="midnightblue" points="1033.63,-66.199 1023.39,-68.9196 1033.09,-73.1783 1033.63,-66.199"/>
</g>
<!-- Node16&#45;&gt;Node5 -->
<g id="edge25" class="edge"><title>Node16&#45;&gt;Node5</title>
<path fill="none" stroke="midnightblue" d="M643.549,-280.205C642.963,-258.47 644.42,-201.56 672.981,-168 743.528,-85.103 881.708,-69.4482 950.716,-67.0118"/>
<polygon fill="midnightblue" stroke="midnightblue" points="950.878,-70.5087 960.778,-66.7338 950.685,-63.5114 950.878,-70.5087"/>
</g>
<!-- Node16&#45;&gt;Node13 -->
<g id="edge39" class="edge"><title>Node16&#45;&gt;Node13</title>
<path fill="none" stroke="midnightblue" d="M649.003,-280.368C659.518,-262.296 684.024,-220.176 697.911,-196.307"/>
<polygon fill="midnightblue" stroke="midnightblue" points="700.978,-197.995 702.982,-187.591 694.928,-194.475 700.978,-197.995"/>
</g>
<!-- Node17 -->
<g id="node17" class="node"><title>Node17</title>
<g id="a_node17"><a xlink:href="CSVFileReader_8hpp.html" target="_top" xlink:title="Defines the class CSVFileReader and functions csvread for reading csv files.">
<polygon fill="white" stroke="black" points="367.981,-224.5 367.981,-243.5 471.981,-243.5 471.981,-224.5 367.981,-224.5"/>
<text text-anchor="middle" x="419.981" y="-231.5" font-family="Helvetica,sans-Serif" font-size="10.00">CSVFileReader.hpp</text>
</a>
</g>
</g>
<!-- Node16&#45;&gt;Node17 -->
<g id="edge26" class="edge"><title>Node16&#45;&gt;Node17</title>
<path fill="none" stroke="midnightblue" d="M608.487,-280.444C569.657,-271.083 507.324,-256.056 465.063,-245.868"/>
<polygon fill="midnightblue" stroke="midnightblue" points="465.85,-242.458 455.308,-243.516 464.209,-249.263 465.85,-242.458"/>
</g>
<!-- Node16&#45;&gt;Node26 -->
<g id="edge40" class="edge"><title>Node16&#45;&gt;Node26</title>
<path fill="none" stroke="midnightblue" d="M640.921,-280.368C634.598,-262.537 619.976,-221.295 611.459,-197.272"/>
<polygon fill="midnightblue" stroke="midnightblue" points="614.667,-195.847 608.027,-187.591 608.07,-198.186 614.667,-195.847"/>
</g>
<!-- Node17&#45;&gt;Node5 -->
<g id="edge30" class="edge"><title>Node17&#45;&gt;Node5</title>
<path fill="none" stroke="midnightblue" d="M448.34,-224.471C472.636,-216.614 508.164,-203.796 536.981,-188 586.868,-160.654 587.179,-133.177 639.981,-112 695.594,-89.6957 869.919,-75.306 950.446,-69.6806"/>
<polygon fill="midnightblue" stroke="midnightblue" points="950.969,-73.153 960.706,-68.9759 950.489,-66.1694 950.969,-73.153"/>
</g>
<!-- Node17&#45;&gt;Node8 -->
<g id="edge38" class="edge"><title>Node17&#45;&gt;Node8</title>
<path fill="none" stroke="midnightblue" d="M367.859,-230.923C264.97,-226.285 43.7114,-213.438 20.9808,-188 -91.9571,-61.6087 285.227,-22.1763 400.534,-13.2106"/>
<polygon fill="midnightblue" stroke="midnightblue" points="401.14,-16.6751 410.85,-12.4362 400.616,-9.69472 401.14,-16.6751"/>
</g>
<!-- Node17&#45;&gt;Node13 -->
<g id="edge34" class="edge"><title>Node17&#45;&gt;Node13</title>
<path fill="none" stroke="midnightblue" d="M465.615,-224.444C522.744,-213.732 619.44,-195.601 671.76,-185.791"/>
<polygon fill="midnightblue" stroke="midnightblue" points="672.73,-189.171 681.914,-183.888 671.44,-182.29 672.73,-189.171"/>
</g>
<!-- Node18 -->
<g id="node18" class="node"><title>Node18</title>
<g id="a_node18"><a xlink:href="Traits_8hpp.html" target="_top" xlink:title="Defines a basic set of traits for making compile&#45;time assertions about numeric types and iterators.">
<polygon fill="white" stroke="black" points="467.981,-168.5 467.981,-187.5 527.981,-187.5 527.981,-168.5 467.981,-168.5"/>
<text text-anchor="middle" x="497.981" y="-175.5" font-family="Helvetica,sans-Serif" font-size="10.00">Traits.hpp</text>
</a>
</g>
</g>
<!-- Node17&#45;&gt;Node18 -->
<g id="edge27" class="edge"><title>Node17&#45;&gt;Node18</title>
<path fill="none" stroke="midnightblue" d="M432.513,-224.324C444.567,-215.979 463.008,-203.212 477.25,-193.352"/>
<polygon fill="midnightblue" stroke="midnightblue" points="479.25,-196.224 485.48,-187.655 475.266,-190.469 479.25,-196.224"/>
</g>
<!-- Node21 -->
<g id="node21" class="node"><title>Node21</title>
<g id="a_node21"><a xlink:title=" ">
<polygon fill="white" stroke="#bfbfbf" points="30.4808,-168.5 30.4808,-187.5 159.481,-187.5 159.481,-168.5 30.4808,-168.5"/>
<text text-anchor="middle" x="94.9808" y="-175.5" font-family="Helvetica,sans-Serif" font-size="10.00">boost/algorithm/string.hpp</text>
</a>
</g>
</g>
<!-- Node17&#45;&gt;Node21 -->
<g id="edge31" class="edge"><title>Node17&#45;&gt;Node21</title>
<path fill="none" stroke="midnightblue" d="M368.484,-224.444C310.837,-214.865 217.491,-199.356 156.169,-189.167"/>
<polygon fill="midnightblue" stroke="midnightblue" points="156.676,-185.703 146.237,-187.516 155.528,-192.608 156.676,-185.703"/>
</g>
<!-- Node22 -->
<g id="node22" class="node"><title>Node22</title>
<g id="a_node22"><a xlink:title=" ">
<polygon fill="white" stroke="#bfbfbf" points="177.981,-168.5 177.981,-187.5 233.981,-187.5 233.981,-168.5 177.981,-168.5"/>
<text text-anchor="middle" x="205.981" y="-175.5" font-family="Helvetica,sans-Serif" font-size="10.00">algorithm</text>
</a>
</g>
</g>
<!-- Node17&#45;&gt;Node22 -->
<g id="edge32" class="edge"><title>Node17&#45;&gt;Node22</title>
<path fill="none" stroke="midnightblue" d="M386.072,-224.444C347.393,-214.683 284.306,-198.764 243.993,-188.592"/>
<polygon fill="midnightblue" stroke="midnightblue" points="244.816,-185.19 234.264,-186.137 243.103,-191.977 244.816,-185.19"/>
</g>
<!-- Node23 -->
<g id="node23" class="node"><title>Node23</title>
<g id="a_node23"><a xlink:title=" ">
<polygon fill="white" stroke="#bfbfbf" points="251.981,-168.5 251.981,-187.5 301.981,-187.5 301.981,-168.5 251.981,-168.5"/>
<text text-anchor="middle" x="276.981" y="-175.5" font-family="Helvetica,sans-Serif" font-size="10.00">fstream</text>
</a>
</g>
</g>
<!-- Node17&#45;&gt;Node23 -->
<g id="edge33" class="edge"><title>Node17&#45;&gt;Node23</title>
<path fill="none" stroke="midnightblue" d="M397.322,-224.444C373.579,-215.478 336.072,-201.314 309.242,-191.183"/>
<polygon fill="midnightblue" stroke="midnightblue" points="310.125,-187.775 299.534,-187.516 307.652,-194.324 310.125,-187.775"/>
</g>
<!-- Node24 -->
<g id="node24" class="node"><title>Node24</title>
<g id="a_node24"><a xlink:title=" ">
<polygon fill="white" stroke="#bfbfbf" points="319.981,-168.5 319.981,-187.5 371.981,-187.5 371.981,-168.5 319.981,-168.5"/>
<text text-anchor="middle" x="345.981" y="-175.5" font-family="Helvetica,sans-Serif" font-size="10.00">sstream</text>
</a>
</g>
</g>
<!-- Node17&#45;&gt;Node24 -->
<g id="edge35" class="edge"><title>Node17&#45;&gt;Node24</title>
<path fill="none" stroke="midnightblue" d="M408.091,-224.324C396.831,-216.107 379.694,-203.602 366.272,-193.807"/>
<polygon fill="midnightblue" stroke="midnightblue" points="368.228,-190.901 358.087,-187.834 364.101,-196.556 368.228,-190.901"/>
</g>
<!-- Node25 -->
<g id="node25" class="node"><title>Node25</title>
<g id="a_node25"><a xlink:title=" ">
<polygon fill="white" stroke="#bfbfbf" points="390.481,-168.5 390.481,-187.5 449.481,-187.5 449.481,-168.5 390.481,-168.5"/>
<text text-anchor="middle" x="419.981" y="-175.5" font-family="Helvetica,sans-Serif" font-size="10.00">stdexcept</text>
</a>
</g>
</g>
<!-- Node17&#45;&gt;Node25 -->
<g id="edge36" class="edge"><title>Node17&#45;&gt;Node25</title>
<path fill="none" stroke="midnightblue" d="M419.981,-224.083C419.981,-217.006 419.981,-206.861 419.981,-197.986"/>
<polygon fill="midnightblue" stroke="midnightblue" points="423.481,-197.751 419.981,-187.751 416.481,-197.751 423.481,-197.751"/>
</g>
<!-- Node17&#45;&gt;Node26 -->
<g id="edge37" class="edge"><title>Node17&#45;&gt;Node26</title>
<path fill="none" stroke="midnightblue" d="M449.295,-224.444C483.458,-214.472 539.648,-198.07 574.361,-187.938"/>
<polygon fill="midnightblue" stroke="midnightblue" points="575.778,-191.17 584.396,-185.008 573.816,-184.451 575.778,-191.17"/>
</g>
<!-- Node19 -->
<g id="node19" class="node"><title>Node19</title>
<g id="a_node19"><a xlink:title=" ">
<polygon fill="white" stroke="#bfbfbf" points="477.481,-112.5 477.481,-131.5 524.481,-131.5 524.481,-112.5 477.481,-112.5"/>
<text text-anchor="middle" x="500.981" y="-119.5" font-family="Helvetica,sans-Serif" font-size="10.00">iterator</text>
</a>
</g>
</g>
<!-- Node18&#45;&gt;Node19 -->
<g id="edge28" class="edge"><title>Node18&#45;&gt;Node19</title>
<path fill="none" stroke="midnightblue" d="M498.476,-168.083C498.869,-161.006 499.433,-150.861 499.926,-141.986"/>
<polygon fill="midnightblue" stroke="midnightblue" points="503.434,-141.93 500.495,-131.751 496.445,-141.542 503.434,-141.93"/>
</g>
<!-- Node20 -->
<g id="node20" class="node"><title>Node20</title>
<g id="a_node20"><a xlink:title=" ">
<polygon fill="white" stroke="#bfbfbf" points="396.981,-112.5 396.981,-131.5 458.981,-131.5 458.981,-112.5 396.981,-112.5"/>
<text text-anchor="middle" x="427.981" y="-119.5" font-family="Helvetica,sans-Serif" font-size="10.00">type_traits</text>
</a>
</g>
</g>
<!-- Node18&#45;&gt;Node20 -->
<g id="edge29" class="edge"><title>Node18&#45;&gt;Node20</title>
<path fill="none" stroke="midnightblue" d="M486.734,-168.324C476.183,-160.185 460.18,-147.839 447.539,-138.087"/>
<polygon fill="midnightblue" stroke="midnightblue" points="449.488,-135.171 439.432,-131.834 445.212,-140.713 449.488,-135.171"/>
</g>
</g>
</svg>
        <g id="navigator" transform="translate(0 0)" fill="#404254">
                <rect fill="#f2f5e9" fill-opacity="0.5" stroke="#606060" stroke-width=".5" x="0" y="0" width="60" height="60"/>
                <use id="zoomplus" xlink:href="#zoomPlus" x="17" y="9" onmousedown="handleZoom(evt,'in')"/>
                <use id="zoomminus" xlink:href="#zoomMin" x="42" y="9" onmousedown="handleZoom(evt,'out')"/>
                <use id="reset" xlink:href="#resetDef" x="30" y="36" onmousedown="handleReset()"/>
                <g id="arrowUp" xlink:href="#dirArrow" transform="translate(30 24)" onmousedown="handlePan(0,-1)">
                  <use xlink:href="#rim" fill="#404040">
                        <set attributeName="fill" to="#808080" begin="arrowUp.mouseover" end="arrowUp.mouseout"/>
                  </use>
                  <path fill="none" stroke="white" stroke-width="1.5" d="M0,-3.0v7 M-2.5,-0.5L0,-3.0L2.5,-0.5"/>
                </g>
                <g id="arrowRight" xlink:href="#dirArrow" transform="rotate(90) translate(36 -43)" onmousedown="handlePan(1,0)">
                  <use xlink:href="#rim" fill="#404040">
                        <set attributeName="fill" to="#808080" begin="arrowRight.mouseover" end="arrowRight.mouseout"/>
                  </use>
                  <path fill="none" stroke="white" stroke-width="1.5" d="M0,-3.0v7 M-2.5,-0.5L0,-3.0L2.5,-0.5"/>
                </g>
                <g id="arrowDown" xlink:href="#dirArrow" transform="rotate(180) translate(-30 -48)" onmousedown="handlePan(0,1)">
                  <use xlink:href="#rim" fill="#404040">
                        <set attributeName="fill" to="#808080" begin="arrowDown.mouseover" end="arrowDown.mouseout"/>
                  </use>
                  <path fill="none" stroke="white" stroke-width="1.5" d="M0,-3.0v7 M-2.5,-0.5L0,-3.0L2.5,-0.5"/>
                </g>
                <g id="arrowLeft" xlink:href="#dirArrow" transform="rotate(270) translate(-36 17)" onmousedown="handlePan(-1,0)">
                  <use xlink:href="#rim" fill="#404040">
                        <set attributeName="fill" to="#808080" begin="arrowLeft.mouseover" end="arrowLeft.mouseout"/>
                  </use>
                  <path fill="none" stroke="white" stroke-width="1.5" d="M0,-3.0v7 M-2.5,-0.5L0,-3.0L2.5,-0.5"/>
                </g>
        </g>
        <svg viewBox="0 0 15 15" width="100%" height="30px" preserveAspectRatio="xMaxYMin meet">
         <g id="arrow_out" transform="scale(0.3 0.3)">
          <a xlink:href="SW2d_8hpp__incl_org.svg" target="_base">
           <rect id="button" ry="5" rx="5" y="6" x="6" height="38" width="38"
                fill="#f2f5e9" fill-opacity="0.5" stroke="#606060" stroke-width="1.0"/>
           <path id="arrow"
             d="M 11.500037,31.436501 C 11.940474,20.09759 22.043105,11.32322 32.158766,21.979434 L 37.068811,17.246167 C 37.068811,17.246167 37.088388,32 37.088388,32 L 22.160133,31.978069 C 22.160133,31.978069 26.997745,27.140456 26.997745,27.140456 C 18.528582,18.264221 13.291696,25.230495 11.500037,31.436501 z"
             style="fill:#404040;"/>
          </a>
         </g>
        </svg>
</svg>
