<?xml version="1.0" encoding="UTF-8" standalone="no"?>
<!DOCTYPE svg PUBLIC "-//W3C//DTD SVG 1.1//EN"
 "http://www.w3.org/Graphics/SVG/1.1/DTD/svg11.dtd">
<!-- Generated by graphviz version 2.38.0 (20140413.2041)
 -->
<!-- Title: include/Traits.hpp Pages: 1 -->
<svg width="842pt" height="308pt"
 viewBox="0.00 0.00 842.23 308.00" xmlns="http://www.w3.org/2000/svg" xmlns:xlink="http://www.w3.org/1999/xlink">
<g id="graph0" class="graph" transform="scale(1 1) rotate(0) translate(4 304)">
<title>include/Traits.hpp</title>
<polygon fill="white" stroke="none" points="-4,4 -4,-304 838.229,-304 838.229,4 -4,4"/>
<!-- Node1 -->
<g id="node1" class="node"><title>Node1</title>
<g id="a_node1"><a xlink:title="Defines a basic set of traits for making compile&#45;time assertions about numeric types and iterators.">
<polygon fill="#bfbfbf" stroke="black" points="281,-280.5 281,-299.5 375,-299.5 375,-280.5 281,-280.5"/>
<text text-anchor="middle" x="328" y="-287.5" font-family="Helvetica,sans-Serif" font-size="10.00">include/Traits.hpp</text>
</a>
</g>
</g>
<!-- Node2 -->
<g id="node2" class="node"><title>Node2</title>
<g id="a_node2"><a xlink:href="BlitzHelpers_8hpp.html" target="_top" xlink:title="Defines a set of utility functions for working with blitz arrays and their matrix and vector aliases.">
<polygon fill="white" stroke="black" points="150,-224.5 150,-243.5 272,-243.5 272,-224.5 150,-224.5"/>
<text text-anchor="middle" x="211" y="-231.5" font-family="Helvetica,sans-Serif" font-size="10.00">include/BlitzHelpers.hpp</text>
</a>
</g>
</g>
<!-- Node1&#45;&gt;Node2 -->
<g id="edge1" class="edge"><title>Node1&#45;&gt;Node2</title>
<path fill="none" stroke="midnightblue" d="M300.336,-276.232C278.451,-266.131 248.503,-252.309 229.452,-243.516"/>
<polygon fill="midnightblue" stroke="midnightblue" points="298.915,-279.431 309.461,-280.444 301.848,-273.075 298.915,-279.431"/>
</g>
<!-- Node7 -->
<g id="node7" class="node"><title>Node7</title>
<g id="a_node7"><a xlink:href="CSVFileReader_8hpp.html" target="_top" xlink:title="Defines the class CSVFileReader and functions csvread for reading csv files.">
<polygon fill="white" stroke="black" points="376.5,-224.5 376.5,-243.5 513.5,-243.5 513.5,-224.5 376.5,-224.5"/>
<text text-anchor="middle" x="445" y="-231.5" font-family="Helvetica,sans-Serif" font-size="10.00">include/CSVFileReader.hpp</text>
</a>
</g>
</g>
<!-- Node1&#45;&gt;Node7 -->
<g id="edge6" class="edge"><title>Node1&#45;&gt;Node7</title>
<path fill="none" stroke="midnightblue" d="M355.664,-276.232C377.549,-266.131 407.497,-252.309 426.548,-243.516"/>
<polygon fill="midnightblue" stroke="midnightblue" points="354.152,-273.075 346.539,-280.444 357.085,-279.431 354.152,-273.075"/>
</g>
<!-- Node3 -->
<g id="node3" class="node"><title>Node3</title>
<g id="a_node3"><a xlink:href="Poisson1d_8hpp.html" target="_top" xlink:title="Short header file for 1D Poisson solver&#39;s main.cpp file.">
<polygon fill="white" stroke="black" points="12.5,-168.5 12.5,-187.5 157.5,-187.5 157.5,-168.5 12.5,-168.5"/>
<text text-anchor="middle" x="85" y="-175.5" font-family="Helvetica,sans-Serif" font-size="10.00">src/poisson1d/Poisson1d.hpp</text>
</a>
</g>
</g>
<!-- Node2&#45;&gt;Node3 -->
<g id="edge2" class="edge"><title>Node2&#45;&gt;Node3</title>
<path fill="none" stroke="midnightblue" d="M181.84,-220.503C158.219,-210.38 125.572,-196.388 104.872,-187.516"/>
<polygon fill="midnightblue" stroke="midnightblue" points="180.465,-223.721 191.035,-224.444 183.222,-217.287 180.465,-223.721"/>
</g>
<!-- Node5 -->
<g id="node5" class="node"><title>Node5</title>
<g id="a_node5"><a xlink:href="Poisson2d_8hpp.html" target="_top" xlink:title="Header file for 2D Poisson solver&#39;s main.cpp file.">
<polygon fill="white" stroke="black" points="138.5,-112.5 138.5,-131.5 283.5,-131.5 283.5,-112.5 138.5,-112.5"/>
<text text-anchor="middle" x="211" y="-119.5" font-family="Helvetica,sans-Serif" font-size="10.00">src/poisson2d/Poisson2d.hpp</text>
</a>
</g>
</g>
<!-- Node2&#45;&gt;Node5 -->
<g id="edge4" class="edge"><title>Node2&#45;&gt;Node5</title>
<path fill="none" stroke="midnightblue" d="M211,-214.348C211,-190.254 211,-149.308 211,-131.591"/>
<polygon fill="midnightblue" stroke="midnightblue" points="207.5,-214.368 211,-224.368 214.5,-214.369 207.5,-214.368"/>
</g>
<!-- Node4 -->
<g id="node4" class="node"><title>Node4</title>
<g id="a_node4"><a xlink:href="poisson1d_2main_8cpp.html" target="_top" xlink:title=" ">
<polygon fill="white" stroke="black" points="0,-112.5 0,-131.5 120,-131.5 120,-112.5 0,-112.5"/>
<text text-anchor="middle" x="60" y="-119.5" font-family="Helvetica,sans-Serif" font-size="10.00">src/poisson1d/main.cpp</text>
</a>
</g>
</g>
<!-- Node3&#45;&gt;Node4 -->
<g id="edge3" class="edge"><title>Node3&#45;&gt;Node4</title>
<path fill="none" stroke="midnightblue" d="M76.6587,-158.983C72.4152,-149.817 67.4501,-139.092 64.0514,-131.751"/>
<polygon fill="midnightblue" stroke="midnightblue" points="73.4943,-160.479 80.8718,-168.083 79.8466,-157.538 73.4943,-160.479"/>
</g>
<!-- Node6 -->
<g id="node6" class="node"><title>Node6</title>
<g id="a_node6"><a xlink:href="poisson2d_2main_8cpp.html" target="_top" xlink:title=" ">
<polygon fill="white" stroke="black" points="271,-0.5 271,-19.5 391,-19.5 391,-0.5 271,-0.5"/>
<text text-anchor="middle" x="331" y="-7.5" font-family="Helvetica,sans-Serif" font-size="10.00">src/poisson2d/main.cpp</text>
</a>
</g>
</g>
<!-- Node5&#45;&gt;Node6 -->
<g id="edge5" class="edge"><title>Node5&#45;&gt;Node6</title>
<path fill="none" stroke="midnightblue" d="M227.896,-105.512C253.538,-82.0068 301.426,-38.1096 321.628,-19.5914"/>
<polygon fill="midnightblue" stroke="midnightblue" points="225.423,-103.031 220.416,-112.368 230.153,-108.191 225.423,-103.031"/>
</g>
<!-- Node8 -->
<g id="node8" class="node"><title>Node8</title>
<g id="a_node8"><a xlink:href="MeshManager_8hpp.html" target="_top" xlink:title="Defines the MeshManager class that reads mesh input files and partitions meshes with METIS....">
<polygon fill="white" stroke="black" points="422.5,-168.5 422.5,-187.5 553.5,-187.5 553.5,-168.5 422.5,-168.5"/>
<text text-anchor="middle" x="488" y="-175.5" font-family="Helvetica,sans-Serif" font-size="10.00">include/MeshManager.hpp</text>
</a>
</g>
</g>
<!-- Node7&#45;&gt;Node8 -->
<g id="edge7" class="edge"><title>Node7&#45;&gt;Node8</title>
<path fill="none" stroke="midnightblue" d="M458.422,-216.144C465.914,-206.736 474.937,-195.405 481.032,-187.751"/>
<polygon fill="midnightblue" stroke="midnightblue" points="455.592,-214.08 452.101,-224.083 461.068,-218.44 455.592,-214.08"/>
</g>
<!-- Node8&#45;&gt;Node6 -->
<g id="edge16" class="edge"><title>Node8&#45;&gt;Node6</title>
<path fill="none" stroke="midnightblue" d="M458.166,-164.251C425.376,-148.563 373.921,-118.66 348,-76 336.976,-57.8576 333.035,-32.6583 331.677,-19.6059"/>
<polygon fill="midnightblue" stroke="midnightblue" points="456.743,-167.449 467.288,-168.48 459.687,-161.098 456.743,-167.449"/>
</g>
<!-- Node9 -->
<g id="node9" class="node"><title>Node9</title>
<g id="a_node9"><a xlink:href="TriangleNodesProvisioner_8hpp.html" target="_top" xlink:title="Defines the TriangleNodesProvisioner class that provides a construction of 2D nodal points on the tri...">
<polygon fill="white" stroke="black" points="419.5,-112.5 419.5,-131.5 600.5,-131.5 600.5,-112.5 419.5,-112.5"/>
<text text-anchor="middle" x="510" y="-119.5" font-family="Helvetica,sans-Serif" font-size="10.00">include/TriangleNodesProvisioner.hpp</text>
</a>
</g>
</g>
<!-- Node8&#45;&gt;Node9 -->
<g id="edge8" class="edge"><title>Node8&#45;&gt;Node9</title>
<path fill="none" stroke="midnightblue" d="M495.46,-158.69C499.167,-149.589 503.476,-139.014 506.435,-131.751"/>
<polygon fill="midnightblue" stroke="midnightblue" points="492.165,-157.502 491.633,-168.083 498.647,-160.143 492.165,-157.502"/>
</g>
<!-- Node11 -->
<g id="node11" class="node"><title>Node11</title>
<g id="a_node11"><a xlink:href="pyblitzdg_8cpp.html" target="_top" xlink:title="Python bindings for blitzdg&#39;s public API.">
<polygon fill="white" stroke="black" points="465.5,-0.5 465.5,-19.5 598.5,-19.5 598.5,-0.5 465.5,-0.5"/>
<text text-anchor="middle" x="532" y="-7.5" font-family="Helvetica,sans-Serif" font-size="10.00">src/pyblitzdg/pyblitzdg.cpp</text>
</a>
</g>
</g>
<!-- Node8&#45;&gt;Node11 -->
<g id="edge17" class="edge"><title>Node8&#45;&gt;Node11</title>
<path fill="none" stroke="midnightblue" d="M555.24,-166.788C645.15,-151.601 797.078,-120.05 830,-76 835.321,-68.8799 835.797,-62.7383 830,-56 800.781,-22.0379 677.303,-13.3764 598.749,-11.3637"/>
<polygon fill="midnightblue" stroke="midnightblue" points="554.421,-163.376 545.131,-168.471 555.57,-170.281 554.421,-163.376"/>
</g>
<!-- Node9&#45;&gt;Node6 -->
<g id="edge12" class="edge"><title>Node9&#45;&gt;Node6</title>
<path fill="none" stroke="midnightblue" d="M442.404,-110.033C417.359,-103.39 389.98,-92.8052 369,-76 350.024,-60.8001 338.562,-33.3745 333.713,-19.5126"/>
<polygon fill="midnightblue" stroke="midnightblue" points="441.685,-113.46 452.234,-112.475 443.373,-106.667 441.685,-113.46"/>
</g>
<!-- Node10 -->
<g id="node10" class="node"><title>Node10</title>
<g id="a_node10"><a xlink:href="VtkOutputter_8hpp.html" target="_top" xlink:title="Defines the VtkOutputter class that writes output to *.vtu files.">
<polygon fill="white" stroke="black" points="378.5,-56.5 378.5,-75.5 503.5,-75.5 503.5,-56.5 378.5,-56.5"/>
<text text-anchor="middle" x="441" y="-63.5" font-family="Helvetica,sans-Serif" font-size="10.00">include/VtkOutputter.hpp</text>
</a>
</g>
</g>
<!-- Node9&#45;&gt;Node10 -->
<g id="edge9" class="edge"><title>Node9&#45;&gt;Node10</title>
<path fill="none" stroke="midnightblue" d="M490.962,-106.101C478.544,-96.3824 462.757,-84.0269 452.288,-75.8339"/>
<polygon fill="midnightblue" stroke="midnightblue" points="488.882,-108.917 498.914,-112.324 493.196,-103.405 488.882,-108.917"/>
</g>
<!-- Node9&#45;&gt;Node11 -->
<g id="edge13" class="edge"><title>Node9&#45;&gt;Node11</title>
<path fill="none" stroke="midnightblue" d="M513.73,-102.348C518.549,-78.2538 526.738,-37.3079 530.282,-19.5914"/>
<polygon fill="midnightblue" stroke="midnightblue" points="510.256,-101.876 511.726,-112.368 517.12,-103.249 510.256,-101.876"/>
</g>
<!-- Node12 -->
<g id="node12" class="node"><title>Node12</title>
<g id="a_node12"><a xlink:href="SW2d_8hpp.html" target="_top" xlink:title="Short header file for 2D shallow water solver&#39;s main.cpp file.">
<polygon fill="white" stroke="black" points="560.5,-56.5 560.5,-75.5 665.5,-75.5 665.5,-56.5 560.5,-56.5"/>
<text text-anchor="middle" x="613" y="-63.5" font-family="Helvetica,sans-Serif" font-size="10.00">src/sw2d/SW2d.hpp</text>
</a>
</g>
</g>
<!-- Node9&#45;&gt;Node12 -->
<g id="edge14" class="edge"><title>Node9&#45;&gt;Node12</title>
<path fill="none" stroke="midnightblue" d="M535.579,-107.59C554.623,-97.6052 580.064,-84.2672 596.492,-75.6545"/>
<polygon fill="midnightblue" stroke="midnightblue" points="533.78,-104.581 526.549,-112.324 537.031,-110.78 533.78,-104.581"/>
</g>
<!-- Node13 -->
<g id="node13" class="node"><title>Node13</title>
<g id="a_node13"><a xlink:href="simple_2SW2d_8hpp.html" target="_top" xlink:title="Short header file for 2D shallow water solver&#39;s main.cpp file.">
<polygon fill="white" stroke="black" points="683.5,-56.5 683.5,-75.5 820.5,-75.5 820.5,-56.5 683.5,-56.5"/>
<text text-anchor="middle" x="752" y="-63.5" font-family="Helvetica,sans-Serif" font-size="10.00">src/sw2d&#45;simple/SW2d.hpp</text>
</a>
</g>
</g>
<!-- Node9&#45;&gt;Node13 -->
<g id="edge15" class="edge"><title>Node9&#45;&gt;Node13</title>
<path fill="none" stroke="midnightblue" d="M558.323,-110.217C604.051,-100.013 671.779,-84.9006 713.834,-75.5164"/>
<polygon fill="midnightblue" stroke="midnightblue" points="557.343,-106.85 548.346,-112.444 558.868,-113.682 557.343,-106.85"/>
</g>
<!-- Node10&#45;&gt;Node6 -->
<g id="edge10" class="edge"><title>Node10&#45;&gt;Node6</title>
<path fill="none" stroke="midnightblue" d="M414.238,-51.8622C393.841,-41.8492 366.334,-28.3458 348.63,-19.6545"/>
<polygon fill="midnightblue" stroke="midnightblue" points="412.808,-55.059 423.327,-56.324 415.892,-48.7753 412.808,-55.059"/>
</g>
<!-- Node10&#45;&gt;Node11 -->
<g id="edge11" class="edge"><title>Node10&#45;&gt;Node11</title>
<path fill="none" stroke="midnightblue" d="M464.294,-51.1774C481.039,-41.2407 503.1,-28.1492 517.416,-19.6545"/>
<polygon fill="midnightblue" stroke="midnightblue" points="462.434,-48.2108 455.621,-56.324 466.007,-54.2307 462.434,-48.2108"/>
</g>
</g>
</svg>
