<?xml version="1.0" encoding="UTF-8" standalone="no"?>
<!DOCTYPE svg PUBLIC "-//W3C//DTD SVG 1.1//EN"
 "http://www.w3.org/Graphics/SVG/1.1/DTD/svg11.dtd">
<!-- Generated by graphviz version 2.38.0 (20140413.2041)
 -->
<!-- Title: include/TriangleNodesProvisioner.hpp Pages: 1 -->
<!--zoomable 364 -->
<svg id="main" version="1.1" xmlns="http://www.w3.org/2000/svg" xmlns:xlink="http://www.w3.org/1999/xlink" xml:space="preserve" onload="init(evt)">
<style type="text/css"><![CDATA[
.edge:hover path { stroke: red; }
.edge:hover polygon { stroke: red; fill: red; }
]]></style>
<script type="text/javascript"><![CDATA[
var edges = document.getElementsByTagName('g');
if (edges && edges.length) {
  for (var i=0;i<edges.length;i++) {
    if (edges[i].id.substr(0,4)=='edge') {
      edges[i].setAttribute('class','edge');
    }
  }
}
]]></script>
        <defs>
                <circle id="rim" cx="0" cy="0" r="7"/>
                <circle id="rim2" cx="0" cy="0" r="3.5"/>
                <g id="zoomPlus">
                        <use xlink:href="#rim" fill="#404040">
                                <set attributeName="fill" to="#808080" begin="zoomplus.mouseover" end="zoomplus.mouseout"/>
                        </use>
                        <path d="M-4,0h8M0,-4v8" fill="none" stroke="white" stroke-width="1.5" pointer-events="none"/>
                </g>
                <g id="zoomMin">
                        <use xlink:href="#rim" fill="#404040">
                                <set attributeName="fill" to="#808080" begin="zoomminus.mouseover" end="zoomminus.mouseout"/>
                        </use>
                        <path d="M-4,0h8" fill="none" stroke="white" stroke-width="1.5" pointer-events="none"/>
                </g>
                <g id="dirArrow">
                        <path fill="none" stroke="white" stroke-width="1.5" d="M0,-3.0v7 M-2.5,-0.5L0,-3.0L2.5,-0.5"/>
                </g>
               <g id="resetDef">
                       <use xlink:href="#rim2" fill="#404040">
                               <set attributeName="fill" to="#808080" begin="reset.mouseover" end="reset.mouseout"/>
                       </use>
               </g>
        </defs>

<script type="text/javascript">
var viewWidth = 1222;
var viewHeight = 364;
var sectionId = 'dynsection-0';
</script>
<script xlink:href="svgpan.js"/>
<svg id="graph" class="graph">
<g id="viewport">
<title>include/TriangleNodesProvisioner.hpp</title>
<polygon fill="white" stroke="none" points="-4,4 -4,-360 1217.5,-360 1217.5,4 -4,4"/>
<!-- Node1 -->
<g id="node1" class="node"><title>Node1</title>
<g id="a_node1"><a xlink:title="Defines the TriangleNodesProvisioner class that provides a construction of 2D nodal points on the tri...">
<polygon fill="#bfbfbf" stroke="black" points="270.5,-336.5 270.5,-355.5 451.5,-355.5 451.5,-336.5 270.5,-336.5"/>
<text text-anchor="middle" x="361" y="-343.5" font-family="Helvetica,sans-Serif" font-size="10.00">include/TriangleNodesProvisioner.hpp</text>
</a>
</g>
</g>
<!-- Node2 -->
<g id="node2" class="node"><title>Node2</title>
<g id="a_node2"><a xlink:href="Nodes1DProvisioner_8hpp.html" target="_top" xlink:title="Defines a class for computations related to the construction of one&#45;dimensional nodes,...">
<polygon fill="white" stroke="black" points="298.5,-280.5 298.5,-299.5 423.5,-299.5 423.5,-280.5 298.5,-280.5"/>
<text text-anchor="middle" x="361" y="-287.5" font-family="Helvetica,sans-Serif" font-size="10.00">Nodes1DProvisioner.hpp</text>
</a>
</g>
</g>
<!-- Node1&#45;&gt;Node2 -->
<g id="edge1" class="edge"><title>Node1&#45;&gt;Node2</title>
<path fill="none" stroke="midnightblue" d="M361,-336.083C361,-329.006 361,-318.861 361,-309.986"/>
<polygon fill="midnightblue" stroke="midnightblue" points="364.5,-309.751 361,-299.751 357.5,-309.751 364.5,-309.751"/>
</g>
<!-- Node4 -->
<g id="node4" class="node"><title>Node4</title>
<g id="a_node4"><a xlink:href="Types_8hpp.html" target="_top" xlink:title="Defines the basic types used throughout this project.">
<polygon fill="white" stroke="black" points="269,-56.5 269,-75.5 331,-75.5 331,-56.5 269,-56.5"/>
<text text-anchor="middle" x="300" y="-63.5" font-family="Helvetica,sans-Serif" font-size="10.00">Types.hpp</text>
</a>
</g>
</g>
<!-- Node1&#45;&gt;Node4 -->
<g id="edge40" class="edge"><title>Node1&#45;&gt;Node4</title>
<path fill="none" stroke="midnightblue" d="M278.179,-336.492C171.6,-323.2 0,-292.82 0,-235 0,-235 0,-235 0,-177 0,-135.512 30.2099,-131.177 67,-112 128.605,-79.8873 210.147,-70.555 258.631,-67.9255"/>
<polygon fill="midnightblue" stroke="midnightblue" points="258.925,-71.4156 268.749,-67.4485 258.595,-64.4234 258.925,-71.4156"/>
</g>
<!-- Node12 -->
<g id="node12" class="node"><title>Node12</title>
<g id="a_node12"><a xlink:title=" ">
<polygon fill="white" stroke="#bfbfbf" points="472,-168.5 472,-187.5 524,-187.5 524,-168.5 472,-168.5"/>
<text text-anchor="middle" x="498" y="-175.5" font-family="Helvetica,sans-Serif" font-size="10.00">memory</text>
</a>
</g>
</g>
<!-- Node1&#45;&gt;Node12 -->
<g id="edge41" class="edge"><title>Node1&#45;&gt;Node12</title>
<path fill="none" stroke="midnightblue" d="M378.128,-336.274C405.248,-321.436 457.411,-288.512 481,-244 488.681,-229.507 493.053,-211.322 495.434,-197.876"/>
<polygon fill="midnightblue" stroke="midnightblue" points="498.91,-198.3 496.994,-187.88 491.994,-197.22 498.91,-198.3"/>
</g>
<!-- Node14 -->
<g id="node14" class="node"><title>Node14</title>
<g id="a_node14"><a xlink:href="DGContext2D_8hpp_source.html" target="_top" xlink:title=" ">
<polygon fill="white" stroke="black" points="128,-280.5 128,-299.5 226,-299.5 226,-280.5 128,-280.5"/>
<text text-anchor="middle" x="177" y="-287.5" font-family="Helvetica,sans-Serif" font-size="10.00">DGContext2D.hpp</text>
</a>
</g>
</g>
<!-- Node1&#45;&gt;Node14 -->
<g id="edge21" class="edge"><title>Node1&#45;&gt;Node14</title>
<path fill="none" stroke="midnightblue" d="M331.845,-336.444C300.487,-327.241 250.469,-312.562 215.803,-302.388"/>
<polygon fill="midnightblue" stroke="midnightblue" points="216.6,-298.974 206.019,-299.516 214.629,-305.691 216.6,-298.974"/>
</g>
<!-- Node15 -->
<g id="node15" class="node"><title>Node15</title>
<g id="a_node15"><a xlink:href="MeshManager_8hpp.html" target="_top" xlink:title="Defines the MeshManager class that reads mesh input files and partitions meshes with METIS....">
<polygon fill="white" stroke="black" points="548.5,-280.5 548.5,-299.5 645.5,-299.5 645.5,-280.5 548.5,-280.5"/>
<text text-anchor="middle" x="597" y="-287.5" font-family="Helvetica,sans-Serif" font-size="10.00">MeshManager.hpp</text>
</a>
</g>
</g>
<!-- Node1&#45;&gt;Node15 -->
<g id="edge23" class="edge"><title>Node1&#45;&gt;Node15</title>
<path fill="none" stroke="midnightblue" d="M398.395,-336.444C439.392,-327.063 505.254,-311.993 549.784,-301.804"/>
<polygon fill="midnightblue" stroke="midnightblue" points="550.813,-305.159 559.78,-299.516 549.251,-298.335 550.813,-305.159"/>
</g>
<!-- Node3 -->
<g id="node3" class="node"><title>Node3</title>
<g id="a_node3"><a xlink:href="DirectSolver_8hpp.html" target="_top" xlink:title="Defines the DirectSolver class that implements LAPACK direct solution routine DSGESV....">
<polygon fill="white" stroke="black" points="66.5,-168.5 66.5,-187.5 155.5,-187.5 155.5,-168.5 66.5,-168.5"/>
<text text-anchor="middle" x="111" y="-175.5" font-family="Helvetica,sans-Serif" font-size="10.00">DirectSolver.hpp</text>
</a>
</g>
</g>
<!-- Node2&#45;&gt;Node3 -->
<g id="edge2" class="edge"><title>Node2&#45;&gt;Node3</title>
<path fill="none" stroke="midnightblue" d="M298.4,-282.649C223.944,-274.452 108.018,-259.405 95,-244 83.7859,-230.729 91.1261,-210.791 99.1742,-196.498"/>
<polygon fill="midnightblue" stroke="midnightblue" points="102.359,-198.003 104.64,-187.657 96.4045,-194.322 102.359,-198.003"/>
</g>
<!-- Node2&#45;&gt;Node4 -->
<g id="edge18" class="edge"><title>Node2&#45;&gt;Node4</title>
<path fill="none" stroke="midnightblue" d="M371.458,-280.492C380.933,-272.19 394.522,-258.694 402,-244 429.008,-190.926 459.242,-160.721 425,-112 406.219,-85.2778 369.967,-74.3496 341.32,-69.9187"/>
<polygon fill="midnightblue" stroke="midnightblue" points="341.531,-66.416 331.156,-68.563 340.606,-73.3545 341.531,-66.416"/>
</g>
<!-- Node8 -->
<g id="node8" class="node"><title>Node8</title>
<g id="a_node8"><a xlink:href="JacobiBuilders_8hpp.html" target="_top" xlink:title="Defines the JacobiBuilders class that constructs Jacobi polynomials, their derivatives,...">
<polygon fill="white" stroke="black" points="303.5,-168.5 303.5,-187.5 402.5,-187.5 402.5,-168.5 303.5,-168.5"/>
<text text-anchor="middle" x="353" y="-175.5" font-family="Helvetica,sans-Serif" font-size="10.00">JacobiBuilders.hpp</text>
</a>
</g>
</g>
<!-- Node2&#45;&gt;Node8 -->
<g id="edge7" class="edge"><title>Node2&#45;&gt;Node8</title>
<path fill="none" stroke="midnightblue" d="M368.686,-280.287C378.621,-267.924 393.878,-244.512 387,-224 383.396,-213.251 376.097,-203.02 369.183,-195.038"/>
<polygon fill="midnightblue" stroke="midnightblue" points="371.655,-192.556 362.288,-187.605 366.523,-197.317 371.655,-192.556"/>
</g>
<!-- Node10 -->
<g id="node10" class="node"><title>Node10</title>
<g id="a_node10"><a xlink:href="VandermondeBuilders_8hpp.html" target="_top" xlink:title="Defines a class for computating the generalized Vandermonde, its gradient, and its inverse for 1D ort...">
<polygon fill="white" stroke="black" points="104.5,-224.5 104.5,-243.5 235.5,-243.5 235.5,-224.5 104.5,-224.5"/>
<text text-anchor="middle" x="170" y="-231.5" font-family="Helvetica,sans-Serif" font-size="10.00">VandermondeBuilders.hpp</text>
</a>
</g>
</g>
<!-- Node2&#45;&gt;Node10 -->
<g id="edge11" class="edge"><title>Node2&#45;&gt;Node10</title>
<path fill="none" stroke="midnightblue" d="M330.735,-280.444C298.045,-271.201 245.818,-256.436 209.817,-246.257"/>
<polygon fill="midnightblue" stroke="midnightblue" points="210.698,-242.869 200.123,-243.516 208.794,-249.605 210.698,-242.869"/>
</g>
<!-- Node2&#45;&gt;Node12 -->
<g id="edge19" class="edge"><title>Node2&#45;&gt;Node12</title>
<path fill="none" stroke="midnightblue" d="M390.294,-280.445C410.999,-273.277 438.438,-261.392 458,-244 472.662,-230.964 483.744,-211.264 490.483,-196.969"/>
<polygon fill="midnightblue" stroke="midnightblue" points="493.745,-198.248 494.611,-187.688 487.349,-195.403 493.745,-198.248"/>
</g>
<!-- Node13 -->
<g id="node13" class="node"><title>Node13</title>
<g id="a_node13"><a xlink:title=" ">
<polygon fill="white" stroke="#bfbfbf" points="254,-224.5 254,-243.5 378,-243.5 378,-224.5 254,-224.5"/>
<text text-anchor="middle" x="316" y="-231.5" font-family="Helvetica,sans-Serif" font-size="10.00">boost/python/numpy.hpp</text>
</a>
</g>
</g>
<!-- Node2&#45;&gt;Node13 -->
<g id="edge20" class="edge"><title>Node2&#45;&gt;Node13</title>
<path fill="none" stroke="midnightblue" d="M353.569,-280.083C347.147,-272.377 337.694,-261.033 329.878,-251.653"/>
<polygon fill="midnightblue" stroke="midnightblue" points="332.383,-249.193 323.293,-243.751 327.006,-253.674 332.383,-249.193"/>
</g>
<!-- Node3&#45;&gt;Node4 -->
<g id="edge3" class="edge"><title>Node3&#45;&gt;Node4</title>
<path fill="none" stroke="midnightblue" d="M105.96,-168.362C98.7889,-154.811 87.8851,-128.412 101,-112 120.383,-87.7446 206.544,-75.6064 258.931,-70.3644"/>
<polygon fill="midnightblue" stroke="midnightblue" points="259.308,-73.8444 268.929,-69.4064 258.64,-66.8764 259.308,-73.8444"/>
</g>
<!-- Node5 -->
<g id="node5" class="node"><title>Node5</title>
<g id="a_node5"><a xlink:title=" ">
<polygon fill="white" stroke="#bfbfbf" points="313,-0.5 313,-19.5 381,-19.5 381,-0.5 313,-0.5"/>
<text text-anchor="middle" x="347" y="-7.5" font-family="Helvetica,sans-Serif" font-size="10.00">blitz/array.h</text>
</a>
</g>
</g>
<!-- Node4&#45;&gt;Node5 -->
<g id="edge4" class="edge"><title>Node4&#45;&gt;Node5</title>
<path fill="none" stroke="midnightblue" d="M307.761,-56.083C314.537,-48.2982 324.543,-36.8015 332.755,-27.3665"/>
<polygon fill="midnightblue" stroke="midnightblue" points="335.458,-29.592 339.383,-19.7511 330.178,-24.9963 335.458,-29.592"/>
</g>
<!-- Node6 -->
<g id="node6" class="node"><title>Node6</title>
<g id="a_node6"><a xlink:title=" ">
<polygon fill="white" stroke="#bfbfbf" points="211.5,-0.5 211.5,-19.5 294.5,-19.5 294.5,-0.5 211.5,-0.5"/>
<text text-anchor="middle" x="253" y="-7.5" font-family="Helvetica,sans-Serif" font-size="10.00">unordered_map</text>
</a>
</g>
</g>
<!-- Node4&#45;&gt;Node6 -->
<g id="edge5" class="edge"><title>Node4&#45;&gt;Node6</title>
<path fill="none" stroke="midnightblue" d="M292.239,-56.083C285.463,-48.2982 275.457,-36.8015 267.245,-27.3665"/>
<polygon fill="midnightblue" stroke="midnightblue" points="269.822,-24.9963 260.617,-19.7511 264.542,-29.592 269.822,-24.9963"/>
</g>
<!-- Node7 -->
<g id="node7" class="node"><title>Node7</title>
<g id="a_node7"><a xlink:title=" ">
<polygon fill="white" stroke="#bfbfbf" points="760,-0.5 760,-19.5 804,-19.5 804,-0.5 760,-0.5"/>
<text text-anchor="middle" x="782" y="-7.5" font-family="Helvetica,sans-Serif" font-size="10.00">vector</text>
</a>
</g>
</g>
<!-- Node4&#45;&gt;Node7 -->
<g id="edge6" class="edge"><title>Node4&#45;&gt;Node7</title>
<path fill="none" stroke="midnightblue" d="M331.254,-61.4985C418.066,-51.7727 661.527,-24.4969 749.647,-14.6247"/>
<polygon fill="midnightblue" stroke="midnightblue" points="750.291,-18.0744 759.839,-13.4827 749.512,-11.1179 750.291,-18.0744"/>
</g>
<!-- Node8&#45;&gt;Node4 -->
<g id="edge10" class="edge"><title>Node8&#45;&gt;Node4</title>
<path fill="none" stroke="midnightblue" d="M344.921,-168.343C337.27,-159.725 325.947,-145.823 319,-132 311.576,-117.228 306.575,-99.071 303.575,-85.7057"/>
<polygon fill="midnightblue" stroke="midnightblue" points="306.975,-84.8657 301.517,-75.7853 300.121,-86.2878 306.975,-84.8657"/>
</g>
<!-- Node9 -->
<g id="node9" class="node"><title>Node9</title>
<g id="a_node9"><a xlink:href="EigenSolver_8hpp.html" target="_top" xlink:title="Defines the EigenSolver class that implements LAPACK solution routine DSYEVD. For symmetric matrices ...">
<polygon fill="white" stroke="black" points="328,-112.5 328,-131.5 416,-131.5 416,-112.5 328,-112.5"/>
<text text-anchor="middle" x="372" y="-119.5" font-family="Helvetica,sans-Serif" font-size="10.00">EigenSolver.hpp</text>
</a>
</g>
</g>
<!-- Node8&#45;&gt;Node9 -->
<g id="edge8" class="edge"><title>Node8&#45;&gt;Node9</title>
<path fill="none" stroke="midnightblue" d="M356.137,-168.083C358.683,-160.849 362.356,-150.409 365.527,-141.397"/>
<polygon fill="midnightblue" stroke="midnightblue" points="368.903,-142.346 368.921,-131.751 362.3,-140.023 368.903,-142.346"/>
</g>
<!-- Node9&#45;&gt;Node4 -->
<g id="edge9" class="edge"><title>Node9&#45;&gt;Node4</title>
<path fill="none" stroke="midnightblue" d="M360.432,-112.324C349.58,-104.185 333.119,-91.8395 320.117,-82.0874"/>
<polygon fill="midnightblue" stroke="midnightblue" points="321.879,-79.0339 311.779,-75.8339 317.679,-84.6339 321.879,-79.0339"/>
</g>
<!-- Node10&#45;&gt;Node3 -->
<g id="edge12" class="edge"><title>Node10&#45;&gt;Node3</title>
<path fill="none" stroke="midnightblue" d="M160.521,-224.324C151.799,-216.341 138.657,-204.313 128.102,-194.653"/>
<polygon fill="midnightblue" stroke="midnightblue" points="130.392,-192.004 120.652,-187.834 125.666,-197.167 130.392,-192.004"/>
</g>
<!-- Node10&#45;&gt;Node4 -->
<g id="edge16" class="edge"><title>Node10&#45;&gt;Node4</title>
<path fill="none" stroke="midnightblue" d="M176.989,-224.075C197.807,-197.493 259.639,-118.538 286.872,-83.7633"/>
<polygon fill="midnightblue" stroke="midnightblue" points="289.88,-85.5992 293.29,-75.5681 284.369,-81.2832 289.88,-85.5992"/>
</g>
<!-- Node10&#45;&gt;Node8 -->
<g id="edge13" class="edge"><title>Node10&#45;&gt;Node8</title>
<path fill="none" stroke="midnightblue" d="M198.997,-224.444C230.185,-215.241 279.93,-200.562 314.408,-190.388"/>
<polygon fill="midnightblue" stroke="midnightblue" points="315.538,-193.704 324.139,-187.516 313.557,-186.99 315.538,-193.704"/>
</g>
<!-- Node11 -->
<g id="node11" class="node"><title>Node11</title>
<g id="a_node11"><a xlink:href="DenseMatrixInverter_8hpp.html" target="_top" xlink:title="Defines the DenseMatrixInverter class that computes the explicit inverse of a dense matrix via the LA...">
<polygon fill="white" stroke="black" points="110,-112.5 110,-131.5 234,-131.5 234,-112.5 110,-112.5"/>
<text text-anchor="middle" x="172" y="-119.5" font-family="Helvetica,sans-Serif" font-size="10.00">DenseMatrixInverter.hpp</text>
</a>
</g>
</g>
<!-- Node10&#45;&gt;Node11 -->
<g id="edge14" class="edge"><title>Node10&#45;&gt;Node11</title>
<path fill="none" stroke="midnightblue" d="M170.157,-224.368C170.48,-206.617 171.224,-165.666 171.662,-141.597"/>
<polygon fill="midnightblue" stroke="midnightblue" points="175.161,-141.653 171.844,-131.591 168.162,-141.526 175.161,-141.653"/>
</g>
<!-- Node10&#45;&gt;Node12 -->
<g id="edge17" class="edge"><title>Node10&#45;&gt;Node12</title>
<path fill="none" stroke="midnightblue" d="M221.973,-224.444C288.804,-213.441 403.179,-194.611 461.492,-185.011"/>
<polygon fill="midnightblue" stroke="midnightblue" points="462.405,-188.407 471.703,-183.329 461.267,-181.5 462.405,-188.407"/>
</g>
<!-- Node11&#45;&gt;Node4 -->
<g id="edge15" class="edge"><title>Node11&#45;&gt;Node4</title>
<path fill="none" stroke="midnightblue" d="M192.282,-112.444C213.347,-103.557 246.517,-89.5632 270.486,-79.4514"/>
<polygon fill="midnightblue" stroke="midnightblue" points="271.96,-82.6283 279.813,-75.5164 269.239,-76.1787 271.96,-82.6283"/>
</g>
<!-- Node14&#45;&gt;Node4 -->
<g id="edge22" class="edge"><title>Node14&#45;&gt;Node4</title>
<path fill="none" stroke="midnightblue" d="M149.144,-280.455C129.539,-273.291 103.735,-261.408 86,-244 60.1993,-218.674 47.2583,-202.816 57,-168 64.8457,-139.96 67.2787,-128.885 91,-112 141.075,-76.3565 213.821,-67.9967 258.954,-66.5372"/>
<polygon fill="midnightblue" stroke="midnightblue" points="259.055,-70.0359 268.974,-66.3121 258.898,-63.0377 259.055,-70.0359"/>
</g>
<!-- Node15&#45;&gt;Node4 -->
<g id="edge24" class="edge"><title>Node15&#45;&gt;Node4</title>
<path fill="none" stroke="midnightblue" d="M594.221,-280.461C586.997,-259.31 565.878,-203.627 533,-168 481.142,-111.806 392.605,-85.3956 340.891,-74.2051"/>
<polygon fill="midnightblue" stroke="midnightblue" points="341.564,-70.7702 331.061,-72.1656 340.141,-77.6242 341.564,-70.7702"/>
</g>
<!-- Node15&#45;&gt;Node12 -->
<g id="edge38" class="edge"><title>Node15&#45;&gt;Node12</title>
<path fill="none" stroke="midnightblue" d="M589.232,-280.368C572.677,-261.974 533.704,-218.671 512.447,-195.052"/>
<polygon fill="midnightblue" stroke="midnightblue" points="515.023,-192.683 505.732,-187.591 509.82,-197.366 515.023,-192.683"/>
</g>
<!-- Node16 -->
<g id="node16" class="node"><title>Node16</title>
<g id="a_node16"><a xlink:href="CSVFileReader_8hpp.html" target="_top" xlink:title="Defines the class CSVFileReader and functions csvread for reading csv files.">
<polygon fill="white" stroke="black" points="813,-224.5 813,-243.5 917,-243.5 917,-224.5 813,-224.5"/>
<text text-anchor="middle" x="865" y="-231.5" font-family="Helvetica,sans-Serif" font-size="10.00">CSVFileReader.hpp</text>
</a>
</g>
</g>
<!-- Node15&#45;&gt;Node16 -->
<g id="edge25" class="edge"><title>Node15&#45;&gt;Node16</title>
<path fill="none" stroke="midnightblue" d="M639.465,-280.444C686.413,-270.984 762.076,-255.738 812.654,-245.547"/>
<polygon fill="midnightblue" stroke="midnightblue" points="813.622,-248.923 822.733,-243.516 812.239,-242.061 813.622,-248.923"/>
</g>
<!-- Node25 -->
<g id="node25" class="node"><title>Node25</title>
<g id="a_node25"><a xlink:title=" ">
<polygon fill="white" stroke="#bfbfbf" points="1172.5,-168.5 1172.5,-187.5 1213.5,-187.5 1213.5,-168.5 1172.5,-168.5"/>
<text text-anchor="middle" x="1193" y="-175.5" font-family="Helvetica,sans-Serif" font-size="10.00">string</text>
</a>
</g>
</g>
<!-- Node15&#45;&gt;Node25 -->
<g id="edge39" class="edge"><title>Node15&#45;&gt;Node25</title>
<path fill="none" stroke="midnightblue" d="M645.746,-283.89C710.192,-276.779 827.143,-262.642 926,-244 1030.24,-224.343 1055.08,-213.653 1158,-188 1159.45,-187.64 1160.92,-187.269 1162.42,-186.892"/>
<polygon fill="midnightblue" stroke="midnightblue" points="1163.46,-190.239 1172.28,-184.381 1161.73,-183.456 1163.46,-190.239"/>
</g>
<!-- Node16&#45;&gt;Node4 -->
<g id="edge29" class="edge"><title>Node16&#45;&gt;Node4</title>
<path fill="none" stroke="midnightblue" d="M812.9,-229.078C747.809,-223.299 641.067,-210.65 609,-188 577.301,-165.61 597.771,-134.288 566,-112 530.423,-87.0421 406.651,-74.6217 341.241,-69.6767"/>
<polygon fill="midnightblue" stroke="midnightblue" points="341.496,-66.1861 331.267,-68.9465 340.985,-73.1674 341.496,-66.1861"/>
</g>
<!-- Node16&#45;&gt;Node7 -->
<g id="edge37" class="edge"><title>Node16&#45;&gt;Node7</title>
<path fill="none" stroke="midnightblue" d="M916.574,-224.496C991.898,-212.017 1123.32,-189.999 1125,-188 1134.7,-176.478 1144.72,-140.811 1122,-112 1083.21,-62.8201 891.369,-28.0232 814.216,-15.8062"/>
<polygon fill="midnightblue" stroke="midnightblue" points="814.538,-12.3142 804.118,-14.233 813.46,-19.2308 814.538,-12.3142"/>
</g>
<!-- Node16&#45;&gt;Node12 -->
<g id="edge33" class="edge"><title>Node16&#45;&gt;Node12</title>
<path fill="none" stroke="midnightblue" d="M812.808,-225.32C737.449,-214.232 600.046,-194.015 534.575,-184.382"/>
<polygon fill="midnightblue" stroke="midnightblue" points="534.736,-180.868 524.333,-182.875 533.717,-187.793 534.736,-180.868"/>
</g>
<!-- Node17 -->
<g id="node17" class="node"><title>Node17</title>
<g id="a_node17"><a xlink:href="Traits_8hpp.html" target="_top" xlink:title="Defines a basic set of traits for making compile&#45;time assertions about numeric types and iterators.">
<polygon fill="white" stroke="black" points="1056,-168.5 1056,-187.5 1116,-187.5 1116,-168.5 1056,-168.5"/>
<text text-anchor="middle" x="1086" y="-175.5" font-family="Helvetica,sans-Serif" font-size="10.00">Traits.hpp</text>
</a>
</g>
</g>
<!-- Node16&#45;&gt;Node17 -->
<g id="edge26" class="edge"><title>Node16&#45;&gt;Node17</title>
<path fill="none" stroke="midnightblue" d="M900.018,-224.444C939.709,-214.745 1004.29,-198.965 1045.95,-188.786"/>
<polygon fill="midnightblue" stroke="midnightblue" points="1046.88,-192.162 1055.76,-186.388 1045.22,-185.362 1046.88,-192.162"/>
</g>
<!-- Node20 -->
<g id="node20" class="node"><title>Node20</title>
<g id="a_node20"><a xlink:title=" ">
<polygon fill="white" stroke="#bfbfbf" points="618.5,-168.5 618.5,-187.5 747.5,-187.5 747.5,-168.5 618.5,-168.5"/>
<text text-anchor="middle" x="683" y="-175.5" font-family="Helvetica,sans-Serif" font-size="10.00">boost/algorithm/string.hpp</text>
</a>
</g>
</g>
<!-- Node16&#45;&gt;Node20 -->
<g id="edge30" class="edge"><title>Node16&#45;&gt;Node20</title>
<path fill="none" stroke="midnightblue" d="M836.162,-224.444C805.144,-215.241 755.671,-200.562 721.382,-190.388"/>
<polygon fill="midnightblue" stroke="midnightblue" points="722.286,-187.006 711.704,-187.516 720.295,-193.716 722.286,-187.006"/>
</g>
<!-- Node21 -->
<g id="node21" class="node"><title>Node21</title>
<g id="a_node21"><a xlink:title=" ">
<polygon fill="white" stroke="#bfbfbf" points="766,-168.5 766,-187.5 822,-187.5 822,-168.5 766,-168.5"/>
<text text-anchor="middle" x="794" y="-175.5" font-family="Helvetica,sans-Serif" font-size="10.00">algorithm</text>
</a>
</g>
</g>
<!-- Node16&#45;&gt;Node21 -->
<g id="edge31" class="edge"><title>Node16&#45;&gt;Node21</title>
<path fill="none" stroke="midnightblue" d="M853.593,-224.324C842.891,-216.185 826.659,-203.839 813.837,-194.087"/>
<polygon fill="midnightblue" stroke="midnightblue" points="815.693,-191.102 805.615,-187.834 811.456,-196.673 815.693,-191.102"/>
</g>
<!-- Node22 -->
<g id="node22" class="node"><title>Node22</title>
<g id="a_node22"><a xlink:title=" ">
<polygon fill="white" stroke="#bfbfbf" points="840,-168.5 840,-187.5 890,-187.5 890,-168.5 840,-168.5"/>
<text text-anchor="middle" x="865" y="-175.5" font-family="Helvetica,sans-Serif" font-size="10.00">fstream</text>
</a>
</g>
</g>
<!-- Node16&#45;&gt;Node22 -->
<g id="edge32" class="edge"><title>Node16&#45;&gt;Node22</title>
<path fill="none" stroke="midnightblue" d="M865,-224.083C865,-217.006 865,-206.861 865,-197.986"/>
<polygon fill="midnightblue" stroke="midnightblue" points="868.5,-197.751 865,-187.751 861.5,-197.751 868.5,-197.751"/>
</g>
<!-- Node23 -->
<g id="node23" class="node"><title>Node23</title>
<g id="a_node23"><a xlink:title=" ">
<polygon fill="white" stroke="#bfbfbf" points="908,-168.5 908,-187.5 960,-187.5 960,-168.5 908,-168.5"/>
<text text-anchor="middle" x="934" y="-175.5" font-family="Helvetica,sans-Serif" font-size="10.00">sstream</text>
</a>
</g>
</g>
<!-- Node16&#45;&gt;Node23 -->
<g id="edge34" class="edge"><title>Node16&#45;&gt;Node23</title>
<path fill="none" stroke="midnightblue" d="M876.086,-224.324C886.486,-216.185 902.261,-203.839 914.722,-194.087"/>
<polygon fill="midnightblue" stroke="midnightblue" points="916.994,-196.753 922.712,-187.834 912.68,-191.241 916.994,-196.753"/>
</g>
<!-- Node24 -->
<g id="node24" class="node"><title>Node24</title>
<g id="a_node24"><a xlink:title=" ">
<polygon fill="white" stroke="#bfbfbf" points="978.5,-168.5 978.5,-187.5 1037.5,-187.5 1037.5,-168.5 978.5,-168.5"/>
<text text-anchor="middle" x="1008" y="-175.5" font-family="Helvetica,sans-Serif" font-size="10.00">stdexcept</text>
</a>
</g>
</g>
<!-- Node16&#45;&gt;Node24 -->
<g id="edge35" class="edge"><title>Node16&#45;&gt;Node24</title>
<path fill="none" stroke="midnightblue" d="M887.659,-224.444C911.402,-215.478 948.909,-201.314 975.738,-191.183"/>
<polygon fill="midnightblue" stroke="midnightblue" points="977.329,-194.324 985.447,-187.516 974.856,-187.775 977.329,-194.324"/>
</g>
<!-- Node16&#45;&gt;Node25 -->
<g id="edge36" class="edge"><title>Node16&#45;&gt;Node25</title>
<path fill="none" stroke="midnightblue" d="M917.146,-226.582C975.955,-218.975 1074.31,-205.143 1158,-188 1159.46,-187.701 1160.95,-187.38 1162.45,-187.044"/>
<polygon fill="midnightblue" stroke="midnightblue" points="1163.44,-190.406 1172.35,-184.672 1161.81,-183.598 1163.44,-190.406"/>
</g>
<!-- Node18 -->
<g id="node18" class="node"><title>Node18</title>
<g id="a_node18"><a xlink:title=" ">
<polygon fill="white" stroke="#bfbfbf" points="1065.5,-112.5 1065.5,-131.5 1112.5,-131.5 1112.5,-112.5 1065.5,-112.5"/>
<text text-anchor="middle" x="1089" y="-119.5" font-family="Helvetica,sans-Serif" font-size="10.00">iterator</text>
</a>
</g>
</g>
<!-- Node17&#45;&gt;Node18 -->
<g id="edge27" class="edge"><title>Node17&#45;&gt;Node18</title>
<path fill="none" stroke="midnightblue" d="M1086.5,-168.083C1086.89,-161.006 1087.45,-150.861 1087.95,-141.986"/>
<polygon fill="midnightblue" stroke="midnightblue" points="1091.45,-141.93 1088.51,-131.751 1084.46,-141.542 1091.45,-141.93"/>
</g>
<!-- Node19 -->
<g id="node19" class="node"><title>Node19</title>
<g id="a_node19"><a xlink:title=" ">
<polygon fill="white" stroke="#bfbfbf" points="985,-112.5 985,-131.5 1047,-131.5 1047,-112.5 985,-112.5"/>
<text text-anchor="middle" x="1016" y="-119.5" font-family="Helvetica,sans-Serif" font-size="10.00">type_traits</text>
</a>
</g>
</g>
<!-- Node17&#45;&gt;Node19 -->
<g id="edge28" class="edge"><title>Node17&#45;&gt;Node19</title>
<path fill="none" stroke="midnightblue" d="M1074.75,-168.324C1064.2,-160.185 1048.2,-147.839 1035.56,-138.087"/>
<polygon fill="midnightblue" stroke="midnightblue" points="1037.51,-135.171 1027.45,-131.834 1033.23,-140.713 1037.51,-135.171"/>
</g>
</g>
</svg>
        <g id="navigator" transform="translate(0 0)" fill="#404254">
                <rect fill="#f2f5e9" fill-opacity="0.5" stroke="#606060" stroke-width=".5" x="0" y="0" width="60" height="60"/>
                <use id="zoomplus" xlink:href="#zoomPlus" x="17" y="9" onmousedown="handleZoom(evt,'in')"/>
                <use id="zoomminus" xlink:href="#zoomMin" x="42" y="9" onmousedown="handleZoom(evt,'out')"/>
                <use id="reset" xlink:href="#resetDef" x="30" y="36" onmousedown="handleReset()"/>
                <g id="arrowUp" xlink:href="#dirArrow" transform="translate(30 24)" onmousedown="handlePan(0,-1)">
                  <use xlink:href="#rim" fill="#404040">
                        <set attributeName="fill" to="#808080" begin="arrowUp.mouseover" end="arrowUp.mouseout"/>
                  </use>
                  <path fill="none" stroke="white" stroke-width="1.5" d="M0,-3.0v7 M-2.5,-0.5L0,-3.0L2.5,-0.5"/>
                </g>
                <g id="arrowRight" xlink:href="#dirArrow" transform="rotate(90) translate(36 -43)" onmousedown="handlePan(1,0)">
                  <use xlink:href="#rim" fill="#404040">
                        <set attributeName="fill" to="#808080" begin="arrowRight.mouseover" end="arrowRight.mouseout"/>
                  </use>
                  <path fill="none" stroke="white" stroke-width="1.5" d="M0,-3.0v7 M-2.5,-0.5L0,-3.0L2.5,-0.5"/>
                </g>
                <g id="arrowDown" xlink:href="#dirArrow" transform="rotate(180) translate(-30 -48)" onmousedown="handlePan(0,1)">
                  <use xlink:href="#rim" fill="#404040">
                        <set attributeName="fill" to="#808080" begin="arrowDown.mouseover" end="arrowDown.mouseout"/>
                  </use>
                  <path fill="none" stroke="white" stroke-width="1.5" d="M0,-3.0v7 M-2.5,-0.5L0,-3.0L2.5,-0.5"/>
                </g>
                <g id="arrowLeft" xlink:href="#dirArrow" transform="rotate(270) translate(-36 17)" onmousedown="handlePan(-1,0)">
                  <use xlink:href="#rim" fill="#404040">
                        <set attributeName="fill" to="#808080" begin="arrowLeft.mouseover" end="arrowLeft.mouseout"/>
                  </use>
                  <path fill="none" stroke="white" stroke-width="1.5" d="M0,-3.0v7 M-2.5,-0.5L0,-3.0L2.5,-0.5"/>
                </g>
        </g>
        <svg viewBox="0 0 15 15" width="100%" height="30px" preserveAspectRatio="xMaxYMin meet">
         <g id="arrow_out" transform="scale(0.3 0.3)">
          <a xlink:href="TriangleNodesProvisioner_8hpp__incl_org.svg" target="_base">
           <rect id="button" ry="5" rx="5" y="6" x="6" height="38" width="38"
                fill="#f2f5e9" fill-opacity="0.5" stroke="#606060" stroke-width="1.0"/>
           <path id="arrow"
             d="M 11.500037,31.436501 C 11.940474,20.09759 22.043105,11.32322 32.158766,21.979434 L 37.068811,17.246167 C 37.068811,17.246167 37.088388,32 37.088388,32 L 22.160133,31.978069 C 22.160133,31.978069 26.997745,27.140456 26.997745,27.140456 C 18.528582,18.264221 13.291696,25.230495 11.500037,31.436501 z"
             style="fill:#404040;"/>
          </a>
         </g>
        </svg>
</svg>
