<?xml version="1.0" encoding="UTF-8" standalone="no"?>
<!DOCTYPE svg PUBLIC "-//W3C//DTD SVG 1.1//EN"
 "http://www.w3.org/Graphics/SVG/1.1/DTD/svg11.dtd">
<!-- Generated by graphviz version 2.38.0 (20140413.2041)
 -->
<!-- Title: include/TriangleNodesProvisioner.hpp Pages: 1 -->
<svg width="530pt" height="140pt"
 viewBox="0.00 0.00 529.50 140.00" xmlns="http://www.w3.org/2000/svg" xmlns:xlink="http://www.w3.org/1999/xlink">
<g id="graph0" class="graph" transform="scale(1 1) rotate(0) translate(4 136)">
<title>include/TriangleNodesProvisioner.hpp</title>
<polygon fill="white" stroke="none" points="-4,4 -4,-136 525.5,-136 525.5,4 -4,4"/>
<!-- Node1 -->
<g id="node1" class="node"><title>Node1</title>
<g id="a_node1"><a xlink:title="Defines the TriangleNodesProvisioner class that provides a construction of 2D nodal points on the tri...">
<polygon fill="#bfbfbf" stroke="black" points="142.5,-112.5 142.5,-131.5 323.5,-131.5 323.5,-112.5 142.5,-112.5"/>
<text text-anchor="middle" x="233" y="-119.5" font-family="Helvetica,sans-Serif" font-size="10.00">include/TriangleNodesProvisioner.hpp</text>
</a>
</g>
</g>
<!-- Node2 -->
<g id="node2" class="node"><title>Node2</title>
<g id="a_node2"><a xlink:href="VtkOutputter_8hpp.html" target="_top" xlink:title="Defines the VtkOutputter class that writes output to *.vtu files.">
<polygon fill="white" stroke="black" points="79.5,-56.5 79.5,-75.5 204.5,-75.5 204.5,-56.5 79.5,-56.5"/>
<text text-anchor="middle" x="142" y="-63.5" font-family="Helvetica,sans-Serif" font-size="10.00">include/VtkOutputter.hpp</text>
</a>
</g>
</g>
<!-- Node1&#45;&gt;Node2 -->
<g id="edge1" class="edge"><title>Node1&#45;&gt;Node2</title>
<path fill="none" stroke="midnightblue" d="M209.706,-107.177C192.961,-97.2407 170.9,-84.1492 156.584,-75.6545"/>
<polygon fill="midnightblue" stroke="midnightblue" points="207.993,-110.231 218.379,-112.324 211.566,-104.211 207.993,-110.231"/>
</g>
<!-- Node3 -->
<g id="node3" class="node"><title>Node3</title>
<g id="a_node3"><a xlink:href="poisson2d_2main_8cpp.html" target="_top" xlink:title=" ">
<polygon fill="white" stroke="black" points="0,-0.5 0,-19.5 120,-19.5 120,-0.5 0,-0.5"/>
<text text-anchor="middle" x="60" y="-7.5" font-family="Helvetica,sans-Serif" font-size="10.00">src/poisson2d/main.cpp</text>
</a>
</g>
</g>
<!-- Node1&#45;&gt;Node3 -->
<g id="edge4" class="edge"><title>Node1&#45;&gt;Node3</title>
<path fill="none" stroke="midnightblue" d="M132.529,-112.079C109.055,-105.351 86.2065,-94.2177 70,-76 56.0367,-60.3039 56.9796,-33.5918 58.6145,-19.8079"/>
<polygon fill="midnightblue" stroke="midnightblue" points="131.691,-115.478 142.251,-114.617 133.459,-108.705 131.691,-115.478"/>
</g>
<!-- Node4 -->
<g id="node4" class="node"><title>Node4</title>
<g id="a_node4"><a xlink:href="pyblitzdg_8cpp.html" target="_top" xlink:title="Python bindings for blitzdg&#39;s public API.">
<polygon fill="white" stroke="black" points="156.5,-0.5 156.5,-19.5 289.5,-19.5 289.5,-0.5 156.5,-0.5"/>
<text text-anchor="middle" x="223" y="-7.5" font-family="Helvetica,sans-Serif" font-size="10.00">src/pyblitzdg/pyblitzdg.cpp</text>
</a>
</g>
</g>
<!-- Node1&#45;&gt;Node4 -->
<g id="edge5" class="edge"><title>Node1&#45;&gt;Node4</title>
<path fill="none" stroke="midnightblue" d="M231.304,-102.348C229.114,-78.2538 225.392,-37.3079 223.781,-19.5914"/>
<polygon fill="midnightblue" stroke="midnightblue" points="227.824,-102.726 232.215,-112.368 234.795,-102.093 227.824,-102.726"/>
</g>
<!-- Node5 -->
<g id="node5" class="node"><title>Node5</title>
<g id="a_node5"><a xlink:href="SW2d_8hpp.html" target="_top" xlink:title="Short header file for 2D shallow water solver&#39;s main.cpp file.">
<polygon fill="white" stroke="black" points="261.5,-56.5 261.5,-75.5 366.5,-75.5 366.5,-56.5 261.5,-56.5"/>
<text text-anchor="middle" x="314" y="-63.5" font-family="Helvetica,sans-Serif" font-size="10.00">src/sw2d/SW2d.hpp</text>
</a>
</g>
</g>
<!-- Node1&#45;&gt;Node5 -->
<g id="edge6" class="edge"><title>Node1&#45;&gt;Node5</title>
<path fill="none" stroke="midnightblue" d="M254.567,-106.622C269.364,-96.7574 288.512,-83.9919 301.018,-75.6545"/>
<polygon fill="midnightblue" stroke="midnightblue" points="252.393,-103.865 246.014,-112.324 256.276,-109.689 252.393,-103.865"/>
</g>
<!-- Node6 -->
<g id="node6" class="node"><title>Node6</title>
<g id="a_node6"><a xlink:href="simple_2SW2d_8hpp.html" target="_top" xlink:title="Short header file for 2D shallow water solver&#39;s main.cpp file.">
<polygon fill="white" stroke="black" points="384.5,-56.5 384.5,-75.5 521.5,-75.5 521.5,-56.5 384.5,-56.5"/>
<text text-anchor="middle" x="453" y="-63.5" font-family="Helvetica,sans-Serif" font-size="10.00">src/sw2d&#45;simple/SW2d.hpp</text>
</a>
</g>
</g>
<!-- Node1&#45;&gt;Node6 -->
<g id="edge7" class="edge"><title>Node1&#45;&gt;Node6</title>
<path fill="none" stroke="midnightblue" d="M277.718,-110.024C319.276,-99.8232 380.313,-84.8414 418.303,-75.5164"/>
<polygon fill="midnightblue" stroke="midnightblue" points="276.737,-106.661 267.86,-112.444 278.406,-113.459 276.737,-106.661"/>
</g>
<!-- Node2&#45;&gt;Node3 -->
<g id="edge2" class="edge"><title>Node2&#45;&gt;Node3</title>
<path fill="none" stroke="midnightblue" d="M120.167,-50.6221C105.187,-40.7574 85.8025,-27.9919 73.142,-19.6545"/>
<polygon fill="midnightblue" stroke="midnightblue" points="118.549,-53.7471 128.825,-56.324 122.399,-47.9009 118.549,-53.7471"/>
</g>
<!-- Node2&#45;&gt;Node4 -->
<g id="edge3" class="edge"><title>Node2&#45;&gt;Node4</title>
<path fill="none" stroke="midnightblue" d="M163.567,-50.6221C178.364,-40.7574 197.512,-27.9919 210.018,-19.6545"/>
<polygon fill="midnightblue" stroke="midnightblue" points="161.393,-47.8647 155.014,-56.324 165.276,-53.6891 161.393,-47.8647"/>
</g>
</g>
</svg>
