<?xml version="1.0" encoding="UTF-8" standalone="no"?>
<!DOCTYPE svg PUBLIC "-//W3C//DTD SVG 1.1//EN"
 "http://www.w3.org/Graphics/SVG/1.1/DTD/svg11.dtd">
<!-- Generated by graphviz version 2.38.0 (20140413.2041)
 -->
<!-- Title: include/Types.hpp Pages: 1 -->
<svg width="1873pt" height="431pt"
 viewBox="0.00 0.00 1873.00 431.00" xmlns="http://www.w3.org/2000/svg" xmlns:xlink="http://www.w3.org/1999/xlink">
<g id="graph0" class="graph" transform="scale(1 1) rotate(0) translate(4 427)">
<title>include/Types.hpp</title>
<polygon fill="white" stroke="none" points="-4,4 -4,-427 1869,-427 1869,4 -4,4"/>
<!-- Node1 -->
<g id="node1" class="node"><title>Node1</title>
<g id="a_node1"><a xlink:title="Defines the basic types used throughout this project.">
<polygon fill="#bfbfbf" stroke="black" points="803,-403.5 803,-422.5 899,-422.5 899,-403.5 803,-403.5"/>
<text text-anchor="middle" x="851" y="-410.5" font-family="Helvetica,sans-Serif" font-size="10.00">include/Types.hpp</text>
</a>
</g>
</g>
<!-- Node2 -->
<g id="node2" class="node"><title>Node2</title>
<g id="a_node2"><a xlink:href="BlitzHelpers_8hpp.html" target="_top" xlink:title="Defines a set of utility functions for working with blitz arrays and their matrix and vector aliases.">
<polygon fill="white" stroke="black" points="1302,-168.5 1302,-187.5 1424,-187.5 1424,-168.5 1302,-168.5"/>
<text text-anchor="middle" x="1363" y="-175.5" font-family="Helvetica,sans-Serif" font-size="10.00">include/BlitzHelpers.hpp</text>
</a>
</g>
</g>
<!-- Node1&#45;&gt;Node2 -->
<g id="edge1" class="edge"><title>Node1&#45;&gt;Node2</title>
<path fill="none" stroke="midnightblue" d="M909.386,-411.069C1035.97,-408.455 1326.77,-398.996 1357,-367 1405.44,-315.728 1376.41,-217.138 1366.15,-187.58"/>
<polygon fill="midnightblue" stroke="midnightblue" points="909.037,-407.576 899.109,-411.274 909.177,-414.574 909.037,-407.576"/>
</g>
<!-- Node3 -->
<g id="node3" class="node"><title>Node3</title>
<g id="a_node3"><a xlink:href="Poisson1d_8hpp.html" target="_top" xlink:title="Short header file for 1D Poisson solver&#39;s main.cpp file.">
<polygon fill="white" stroke="black" points="1067.5,-112.5 1067.5,-131.5 1212.5,-131.5 1212.5,-112.5 1067.5,-112.5"/>
<text text-anchor="middle" x="1140" y="-119.5" font-family="Helvetica,sans-Serif" font-size="10.00">src/poisson1d/Poisson1d.hpp</text>
</a>
</g>
</g>
<!-- Node1&#45;&gt;Node3 -->
<g id="edge71" class="edge"><title>Node1&#45;&gt;Node3</title>
<path fill="none" stroke="midnightblue" d="M863.479,-394.991C899.855,-345.713 1006.05,-204.066 1051,-168 1071.12,-151.856 1097.97,-139.26 1116.9,-131.551"/>
<polygon fill="midnightblue" stroke="midnightblue" points="860.461,-393.187 857.351,-403.315 866.098,-397.337 860.461,-393.187"/>
</g>
<!-- Node4 -->
<g id="node4" class="node"><title>Node4</title>
<g id="a_node4"><a xlink:href="poisson1d_2main_8cpp.html" target="_top" xlink:title=" ">
<polygon fill="white" stroke="black" points="960,-56.5 960,-75.5 1080,-75.5 1080,-56.5 960,-56.5"/>
<text text-anchor="middle" x="1020" y="-63.5" font-family="Helvetica,sans-Serif" font-size="10.00">src/poisson1d/main.cpp</text>
</a>
</g>
</g>
<!-- Node1&#45;&gt;Node4 -->
<g id="edge70" class="edge"><title>Node1&#45;&gt;Node4</title>
<path fill="none" stroke="midnightblue" d="M859.598,-394.448C890.276,-331.821 993.704,-120.681 1015.82,-75.5389"/>
<polygon fill="midnightblue" stroke="midnightblue" points="856.434,-392.952 855.178,-403.472 862.72,-396.031 856.434,-392.952"/>
</g>
<!-- Node6 -->
<g id="node6" class="node"><title>Node6</title>
<g id="a_node6"><a xlink:href="poisson2d_2main_8cpp.html" target="_top" xlink:title=" ">
<polygon fill="white" stroke="black" points="802,-0.5 802,-19.5 922,-19.5 922,-0.5 802,-0.5"/>
<text text-anchor="middle" x="862" y="-7.5" font-family="Helvetica,sans-Serif" font-size="10.00">src/poisson2d/main.cpp</text>
</a>
</g>
</g>
<!-- Node1&#45;&gt;Node6 -->
<g id="edge72" class="edge"><title>Node1&#45;&gt;Node6</title>
<path fill="none" stroke="midnightblue" d="M909.399,-411.84C1125.17,-410.49 1865,-398.802 1865,-302 1865,-302 1865,-302 1865,-121 1865,-25.5838 1138.5,-12.9041 922.11,-11.2437"/>
<polygon fill="midnightblue" stroke="midnightblue" points="909.205,-408.341 899.225,-411.899 909.245,-415.341 909.205,-408.341"/>
</g>
<!-- Node7 -->
<g id="node7" class="node"><title>Node7</title>
<g id="a_node7"><a xlink:href="SparseTriplet_8hpp.html" target="_top" xlink:title="Defines a sparse triplet matrix class.">
<polygon fill="white" stroke="black" points="239.5,-347.5 239.5,-366.5 366.5,-366.5 366.5,-347.5 239.5,-347.5"/>
<text text-anchor="middle" x="303" y="-354.5" font-family="Helvetica,sans-Serif" font-size="10.00">include/SparseTriplet.hpp</text>
</a>
</g>
</g>
<!-- Node1&#45;&gt;Node7 -->
<g id="edge6" class="edge"><title>Node1&#45;&gt;Node7</title>
<path fill="none" stroke="midnightblue" d="M792.89,-406.274C689.395,-396.075 473.958,-374.846 366.625,-364.27"/>
<polygon fill="midnightblue" stroke="midnightblue" points="792.554,-409.758 802.849,-407.255 793.24,-402.791 792.554,-409.758"/>
</g>
<!-- Node8 -->
<g id="node8" class="node"><title>Node8</title>
<g id="a_node8"><a xlink:href="CSCMatrix_8hpp.html" target="_top" xlink:title=" ">
<polygon fill="white" stroke="black" points="152,-291.5 152,-310.5 270,-310.5 270,-291.5 152,-291.5"/>
<text text-anchor="middle" x="211" y="-298.5" font-family="Helvetica,sans-Serif" font-size="10.00">include/CSCMatrix.hpp</text>
</a>
</g>
</g>
<!-- Node1&#45;&gt;Node8 -->
<g id="edge11" class="edge"><title>Node1&#45;&gt;Node8</title>
<path fill="none" stroke="midnightblue" d="M792.702,-411.506C646.56,-409.75 273.166,-401.862 230,-367 212.988,-353.26 210.666,-325.173 210.669,-310.84"/>
<polygon fill="midnightblue" stroke="midnightblue" points="792.785,-415.007 802.824,-411.623 792.865,-408.008 792.785,-415.007"/>
</g>
<!-- Node9 -->
<g id="node9" class="node"><title>Node9</title>
<g id="a_node9"><a xlink:href="LUSolver_8hpp.html" target="_top" xlink:title="Defines the LUSolver class that implements UMFPACK LU factorization (umfpack_di_numeric,...">
<polygon fill="white" stroke="black" points="104,-230 104,-249 214,-249 214,-230 104,-230"/>
<text text-anchor="middle" x="159" y="-237" font-family="Helvetica,sans-Serif" font-size="10.00">include/LUSolver.hpp</text>
</a>
</g>
</g>
<!-- Node1&#45;&gt;Node9 -->
<g id="edge62" class="edge"><title>Node1&#45;&gt;Node9</title>
<path fill="none" stroke="midnightblue" d="M792.228,-412.287C655.071,-412.251 317.575,-407.871 213,-367 175.892,-352.497 160.259,-346.909 143,-311 132.996,-290.186 145.638,-262.872 153.541,-249.154"/>
<polygon fill="midnightblue" stroke="midnightblue" points="792.534,-415.787 802.532,-412.282 792.53,-408.787 792.534,-415.787"/>
</g>
<!-- Node11 -->
<g id="node11" class="node"><title>Node11</title>
<g id="a_node11"><a xlink:href="CSVFileReader_8hpp.html" target="_top" xlink:title="Defines the class CSVFileReader and functions csvread for reading csv files.">
<polygon fill="white" stroke="black" points="514.5,-347.5 514.5,-366.5 651.5,-366.5 651.5,-347.5 514.5,-347.5"/>
<text text-anchor="middle" x="583" y="-354.5" font-family="Helvetica,sans-Serif" font-size="10.00">include/CSVFileReader.hpp</text>
</a>
</g>
</g>
<!-- Node1&#45;&gt;Node11 -->
<g id="edge12" class="edge"><title>Node1&#45;&gt;Node11</title>
<path fill="none" stroke="midnightblue" d="M798.44,-401.41C747.791,-391.204 672.133,-375.96 625.267,-366.516"/>
<polygon fill="midnightblue" stroke="midnightblue" points="798.04,-404.899 808.535,-403.444 799.423,-398.037 798.04,-404.899"/>
</g>
<!-- Node12 -->
<g id="node12" class="node"><title>Node12</title>
<g id="a_node12"><a xlink:href="MeshManager_8hpp.html" target="_top" xlink:title="Defines the MeshManager class that reads mesh input files and partitions meshes with METIS....">
<polygon fill="white" stroke="black" points="481.5,-168.5 481.5,-187.5 612.5,-187.5 612.5,-168.5 481.5,-168.5"/>
<text text-anchor="middle" x="547" y="-175.5" font-family="Helvetica,sans-Serif" font-size="10.00">include/MeshManager.hpp</text>
</a>
</g>
</g>
<!-- Node1&#45;&gt;Node12 -->
<g id="edge63" class="edge"><title>Node1&#45;&gt;Node12</title>
<path fill="none" stroke="midnightblue" d="M793.116,-402.369C764.576,-395.684 730.654,-384.694 704,-367 665.029,-341.13 577.091,-220.881 553.129,-187.573"/>
<polygon fill="midnightblue" stroke="midnightblue" points="792.445,-405.805 802.966,-404.558 793.963,-398.972 792.445,-405.805"/>
</g>
<!-- Node13 -->
<g id="node13" class="node"><title>Node13</title>
<g id="a_node13"><a xlink:href="TriangleNodesProvisioner_8hpp.html" target="_top" xlink:title="Defines the TriangleNodesProvisioner class that provides a construction of 2D nodal points on the tri...">
<polygon fill="white" stroke="black" points="318.5,-112.5 318.5,-131.5 499.5,-131.5 499.5,-112.5 318.5,-112.5"/>
<text text-anchor="middle" x="409" y="-119.5" font-family="Helvetica,sans-Serif" font-size="10.00">include/TriangleNodesProvisioner.hpp</text>
</a>
</g>
</g>
<!-- Node1&#45;&gt;Node13 -->
<g id="edge66" class="edge"><title>Node1&#45;&gt;Node13</title>
<path fill="none" stroke="midnightblue" d="M792.701,-411.414C705.999,-409.403 548.596,-401.02 505,-367 484.723,-351.177 425.429,-173.128 411.811,-131.615"/>
<polygon fill="midnightblue" stroke="midnightblue" points="792.84,-414.917 802.912,-411.629 792.987,-407.919 792.84,-414.917"/>
</g>
<!-- Node14 -->
<g id="node14" class="node"><title>Node14</title>
<g id="a_node14"><a xlink:href="VtkOutputter_8hpp.html" target="_top" xlink:title="Defines the VtkOutputter class that writes output to *.vtu files.">
<polygon fill="white" stroke="black" points="507.5,-56.5 507.5,-75.5 632.5,-75.5 632.5,-56.5 507.5,-56.5"/>
<text text-anchor="middle" x="570" y="-63.5" font-family="Helvetica,sans-Serif" font-size="10.00">include/VtkOutputter.hpp</text>
</a>
</g>
</g>
<!-- Node1&#45;&gt;Node14 -->
<g id="edge67" class="edge"><title>Node1&#45;&gt;Node14</title>
<path fill="none" stroke="midnightblue" d="M817.108,-399.369C799.879,-391.801 779.389,-380.925 764,-367 711.686,-319.661 599.143,-119.538 574.733,-75.5665"/>
<polygon fill="midnightblue" stroke="midnightblue" points="816.237,-402.8 826.812,-403.442 818.945,-396.345 816.237,-402.8"/>
</g>
<!-- Node15 -->
<g id="node15" class="node"><title>Node15</title>
<g id="a_node15"><a xlink:href="pyblitzdg_8cpp.html" target="_top" xlink:title="Python bindings for blitzdg&#39;s public API.">
<polygon fill="white" stroke="black" points="438.5,-0.5 438.5,-19.5 571.5,-19.5 571.5,-0.5 438.5,-0.5"/>
<text text-anchor="middle" x="505" y="-7.5" font-family="Helvetica,sans-Serif" font-size="10.00">src/pyblitzdg/pyblitzdg.cpp</text>
</a>
</g>
</g>
<!-- Node1&#45;&gt;Node15 -->
<g id="edge73" class="edge"><title>Node1&#45;&gt;Node15</title>
<path fill="none" stroke="midnightblue" d="M792.719,-411.225C620.958,-408.588 124.623,-398.316 59,-367 23.7889,-350.197 0,-341.015 0,-302 0,-302 0,-302 0,-121 0,-86.8442 11.9237,-73.9217 41,-56 105.85,-16.0286 326.229,-10.5099 438.333,-10.3884"/>
<polygon fill="midnightblue" stroke="midnightblue" points="792.781,-414.726 802.833,-411.377 792.887,-407.727 792.781,-414.726"/>
</g>
<!-- Node16 -->
<g id="node16" class="node"><title>Node16</title>
<g id="a_node16"><a xlink:href="SW2d_8hpp.html" target="_top" xlink:title="Short header file for 2D shallow water solver&#39;s main.cpp file.">
<polygon fill="white" stroke="black" points="50.5,-56.5 50.5,-75.5 155.5,-75.5 155.5,-56.5 50.5,-56.5"/>
<text text-anchor="middle" x="103" y="-63.5" font-family="Helvetica,sans-Serif" font-size="10.00">src/sw2d/SW2d.hpp</text>
</a>
</g>
</g>
<!-- Node1&#45;&gt;Node16 -->
<g id="edge74" class="edge"><title>Node1&#45;&gt;Node16</title>
<path fill="none" stroke="midnightblue" d="M792.427,-410.86C627.166,-407.31 165.183,-394.974 103,-367 65.7415,-350.239 38,-342.855 38,-302 38,-302 38,-302 38,-177 38,-133.967 75.3282,-92.9849 93.409,-75.6585"/>
<polygon fill="midnightblue" stroke="midnightblue" points="792.804,-414.368 802.876,-411.081 792.952,-407.37 792.804,-414.368"/>
</g>
<!-- Node17 -->
<g id="node17" class="node"><title>Node17</title>
<g id="a_node17"><a xlink:href="simple_2SW2d_8hpp.html" target="_top" xlink:title="Short header file for 2D shallow water solver&#39;s main.cpp file.">
<polygon fill="white" stroke="black" points="216.5,-56.5 216.5,-75.5 353.5,-75.5 353.5,-56.5 216.5,-56.5"/>
<text text-anchor="middle" x="285" y="-63.5" font-family="Helvetica,sans-Serif" font-size="10.00">src/sw2d&#45;simple/SW2d.hpp</text>
</a>
</g>
</g>
<!-- Node1&#45;&gt;Node17 -->
<g id="edge75" class="edge"><title>Node1&#45;&gt;Node17</title>
<path fill="none" stroke="midnightblue" d="M792.249,-412.237C648.296,-412.165 281.396,-407.849 167,-367 120.192,-350.286 76,-351.702 76,-302 76,-302 76,-302 76,-177 76,-112.317 155.361,-85.582 216.276,-74.5882"/>
<polygon fill="midnightblue" stroke="midnightblue" points="792.631,-415.737 802.63,-412.235 792.63,-408.737 792.631,-415.737"/>
</g>
<!-- Node18 -->
<g id="node18" class="node"><title>Node18</title>
<g id="a_node18"><a xlink:href="CsvOutputter_8hpp.html" target="_top" xlink:title="Defines the CsvOutputter class for writing data to output files.">
<polygon fill="white" stroke="black" points="719,-112.5 719,-131.5 847,-131.5 847,-112.5 719,-112.5"/>
<text text-anchor="middle" x="783" y="-119.5" font-family="Helvetica,sans-Serif" font-size="10.00">include/CsvOutputter.hpp</text>
</a>
</g>
</g>
<!-- Node1&#45;&gt;Node18 -->
<g id="edge24" class="edge"><title>Node1&#45;&gt;Node18</title>
<path fill="none" stroke="midnightblue" d="M835.267,-395.564C828.658,-387.588 821.664,-377.477 818,-367 788.776,-283.447 835.337,-252.812 810,-168 805.88,-154.207 796.56,-140.298 790.029,-131.671"/>
<polygon fill="midnightblue" stroke="midnightblue" points="832.863,-398.128 842.112,-403.295 838.104,-393.488 832.863,-398.128"/>
</g>
<!-- Node19 -->
<g id="node19" class="node"><title>Node19</title>
<g id="a_node19"><a xlink:href="OutputterBase_8hpp_source.html" target="_top" xlink:title=" ">
<polygon fill="white" stroke="black" points="669,-168.5 669,-187.5 801,-187.5 801,-168.5 669,-168.5"/>
<text text-anchor="middle" x="735" y="-175.5" font-family="Helvetica,sans-Serif" font-size="10.00">include/OutputterBase.hpp</text>
</a>
</g>
</g>
<!-- Node1&#45;&gt;Node19 -->
<g id="edge27" class="edge"><title>Node1&#45;&gt;Node19</title>
<path fill="none" stroke="midnightblue" d="M819.825,-398.952C805.692,-391.541 789.953,-380.929 780,-367 738.246,-308.564 734.854,-216.453 734.865,-187.802"/>
<polygon fill="midnightblue" stroke="midnightblue" points="818.285,-402.095 828.803,-403.362 821.371,-395.812 818.285,-402.095"/>
</g>
<!-- Node20 -->
<g id="node20" class="node"><title>Node20</title>
<g id="a_node20"><a xlink:href="DenseMatrixInverter_8hpp.html" target="_top" xlink:title="Defines the DenseMatrixInverter class that computes the explicit inverse of a dense matrix via the LA...">
<polygon fill="white" stroke="black" points="1152,-347.5 1152,-366.5 1310,-366.5 1310,-347.5 1152,-347.5"/>
<text text-anchor="middle" x="1231" y="-354.5" font-family="Helvetica,sans-Serif" font-size="10.00">include/DenseMatrixInverter.hpp</text>
</a>
</g>
</g>
<!-- Node1&#45;&gt;Node20 -->
<g id="edge30" class="edge"><title>Node1&#45;&gt;Node20</title>
<path fill="none" stroke="midnightblue" d="M909.232,-403.725C980.169,-393.644 1099.39,-376.703 1171.08,-366.515"/>
<polygon fill="midnightblue" stroke="midnightblue" points="908.535,-400.289 899.127,-405.161 909.52,-407.219 908.535,-400.289"/>
</g>
<!-- Node21 -->
<g id="node21" class="node"><title>Node21</title>
<g id="a_node21"><a xlink:href="VandermondeBuilders_8hpp.html" target="_top" xlink:title="Defines a class for computating the generalized Vandermonde, its gradient, and its inverse for 1D ort...">
<polygon fill="white" stroke="black" points="1058,-230 1058,-249 1222,-249 1222,-230 1058,-230"/>
<text text-anchor="middle" x="1140" y="-237" font-family="Helvetica,sans-Serif" font-size="10.00">include/VandermondeBuilders.hpp</text>
</a>
</g>
</g>
<!-- Node1&#45;&gt;Node21 -->
<g id="edge64" class="edge"><title>Node1&#45;&gt;Node21</title>
<path fill="none" stroke="midnightblue" d="M909.414,-408.76C975.325,-403.913 1077.01,-392.458 1105,-367 1139.89,-335.261 1141.24,-272.141 1140.48,-249.141"/>
<polygon fill="midnightblue" stroke="midnightblue" points="908.889,-405.288 899.159,-409.482 909.381,-412.271 908.889,-405.288"/>
</g>
<!-- Node22 -->
<g id="node22" class="node"><title>Node22</title>
<g id="a_node22"><a xlink:href="Nodes1DProvisioner_8hpp.html" target="_top" xlink:title="Defines a class for computations related to the construction of one&#45;dimensional nodes,...">
<polygon fill="white" stroke="black" points="1060.5,-168.5 1060.5,-187.5 1219.5,-187.5 1219.5,-168.5 1060.5,-168.5"/>
<text text-anchor="middle" x="1140" y="-175.5" font-family="Helvetica,sans-Serif" font-size="10.00">include/Nodes1DProvisioner.hpp</text>
</a>
</g>
</g>
<!-- Node1&#45;&gt;Node22 -->
<g id="edge65" class="edge"><title>Node1&#45;&gt;Node22</title>
<path fill="none" stroke="midnightblue" d="M909.649,-410.891C1032.47,-407.959 1307.77,-397.97 1336,-367 1385.5,-312.691 1314.67,-263.954 1253,-224 1227.12,-207.238 1194.01,-194.958 1170.33,-187.501"/>
<polygon fill="midnightblue" stroke="midnightblue" points="909.224,-407.4 899.307,-411.129 909.386,-414.398 909.224,-407.4"/>
</g>
<!-- Node23 -->
<g id="node23" class="node"><title>Node23</title>
<g id="a_node23"><a xlink:href="Advec1d_8hpp.html" target="_top" xlink:title="Short header file for 1D advection solver&#39;s main.cpp file.">
<polygon fill="white" stroke="black" points="1231,-112.5 1231,-131.5 1361,-131.5 1361,-112.5 1231,-112.5"/>
<text text-anchor="middle" x="1296" y="-119.5" font-family="Helvetica,sans-Serif" font-size="10.00">src/advec1d/Advec1d.hpp</text>
</a>
</g>
</g>
<!-- Node1&#45;&gt;Node23 -->
<g id="edge68" class="edge"><title>Node1&#45;&gt;Node23</title>
<path fill="none" stroke="midnightblue" d="M909.241,-411.577C1028.21,-409.979 1294.9,-402.427 1378,-367 1418.27,-349.834 1452,-345.775 1452,-302 1452,-302 1452,-302 1452,-238.5 1452,-206.049 1455.32,-191.559 1433,-168 1414.23,-148.189 1386.61,-137.091 1361.08,-130.877"/>
<polygon fill="midnightblue" stroke="midnightblue" points="909.179,-408.078 899.223,-411.702 909.266,-415.077 909.179,-408.078"/>
</g>
<!-- Node24 -->
<g id="node24" class="node"><title>Node24</title>
<g id="a_node24"><a xlink:href="Burgers1d_8hpp.html" target="_top" xlink:title="Short header file for 1D Burger&#39;s solver&#39;s main.cpp file.">
<polygon fill="white" stroke="black" points="1379,-112.5 1379,-131.5 1521,-131.5 1521,-112.5 1379,-112.5"/>
<text text-anchor="middle" x="1450" y="-119.5" font-family="Helvetica,sans-Serif" font-size="10.00">src/burgers1d/Burgers1d.hpp</text>
</a>
</g>
</g>
<!-- Node1&#45;&gt;Node24 -->
<g id="edge69" class="edge"><title>Node1&#45;&gt;Node24</title>
<path fill="none" stroke="midnightblue" d="M909.32,-411.972C1034.7,-411.169 1325.87,-405.12 1416,-367 1456.32,-349.949 1490,-345.775 1490,-302 1490,-302 1490,-302 1490,-238.5 1490,-196.483 1466.07,-150.368 1455.23,-131.629"/>
<polygon fill="midnightblue" stroke="midnightblue" points="909.127,-408.473 899.146,-412.028 909.165,-415.472 909.127,-408.473"/>
</g>
<!-- Node25 -->
<g id="node25" class="node"><title>Node25</title>
<g id="a_node25"><a xlink:href="DGContext2D_8hpp_source.html" target="_top" xlink:title=" ">
<polygon fill="white" stroke="black" points="326.5,-291.5 326.5,-310.5 457.5,-310.5 457.5,-291.5 326.5,-291.5"/>
<text text-anchor="middle" x="392" y="-298.5" font-family="Helvetica,sans-Serif" font-size="10.00">include/DGContext2D.hpp</text>
</a>
</g>
</g>
<!-- Node1&#45;&gt;Node25 -->
<g id="edge39" class="edge"><title>Node1&#45;&gt;Node25</title>
<path fill="none" stroke="midnightblue" d="M792.553,-409.036C701.003,-403.73 528.409,-390.866 472,-367 441.016,-353.891 412.395,-324.981 399.376,-310.547"/>
<polygon fill="midnightblue" stroke="midnightblue" points="792.583,-412.543 802.766,-409.616 792.98,-405.555 792.583,-412.543"/>
</g>
<!-- Node26 -->
<g id="node26" class="node"><title>Node26</title>
<g id="a_node26"><a xlink:href="DirectSolver_8hpp.html" target="_top" xlink:title="Defines the DirectSolver class that implements LAPACK direct solution routine DSGESV....">
<polygon fill="white" stroke="black" points="1190.5,-291.5 1190.5,-310.5 1313.5,-310.5 1313.5,-291.5 1190.5,-291.5"/>
<text text-anchor="middle" x="1252" y="-298.5" font-family="Helvetica,sans-Serif" font-size="10.00">include/DirectSolver.hpp</text>
</a>
</g>
</g>
<!-- Node1&#45;&gt;Node26 -->
<g id="edge43" class="edge"><title>Node1&#45;&gt;Node26</title>
<path fill="none" stroke="midnightblue" d="M909.353,-410.685C1028.73,-407.39 1291.93,-396.793 1319,-367 1338.29,-345.768 1298.88,-322.823 1272.71,-310.684"/>
<polygon fill="midnightblue" stroke="midnightblue" points="909.193,-407.188 899.291,-410.955 909.381,-414.186 909.193,-407.188"/>
</g>
<!-- Node27 -->
<g id="node27" class="node"><title>Node27</title>
<g id="a_node27"><a xlink:href="EigenSolver_8hpp.html" target="_top" xlink:title="Defines the EigenSolver class that implements LAPACK solution routine DSYEVD. For symmetric matrices ...">
<polygon fill="white" stroke="black" points="974,-347.5 974,-366.5 1096,-366.5 1096,-347.5 974,-347.5"/>
<text text-anchor="middle" x="1035" y="-354.5" font-family="Helvetica,sans-Serif" font-size="10.00">include/EigenSolver.hpp</text>
</a>
</g>
</g>
<!-- Node1&#45;&gt;Node27 -->
<g id="edge46" class="edge"><title>Node1&#45;&gt;Node27</title>
<path fill="none" stroke="midnightblue" d="M889.954,-400.568C924.665,-390.381 974.677,-375.703 1005.98,-366.516"/>
<polygon fill="midnightblue" stroke="midnightblue" points="888.765,-397.269 880.155,-403.444 890.736,-403.986 888.765,-397.269"/>
</g>
<!-- Node28 -->
<g id="node28" class="node"><title>Node28</title>
<g id="a_node28"><a xlink:href="JacobiBuilders_8hpp.html" target="_top" xlink:title="Defines the JacobiBuilders class that constructs Jacobi polynomials, their derivatives,...">
<polygon fill="white" stroke="black" points="962.5,-291.5 962.5,-310.5 1095.5,-310.5 1095.5,-291.5 962.5,-291.5"/>
<text text-anchor="middle" x="1029" y="-298.5" font-family="Helvetica,sans-Serif" font-size="10.00">include/JacobiBuilders.hpp</text>
</a>
</g>
</g>
<!-- Node1&#45;&gt;Node28 -->
<g id="edge57" class="edge"><title>Node1&#45;&gt;Node28</title>
<path fill="none" stroke="midnightblue" d="M873.64,-398.009C911.004,-374.919 984.483,-329.51 1015.1,-310.591"/>
<polygon fill="midnightblue" stroke="midnightblue" points="871.634,-395.134 864.967,-403.368 875.314,-401.089 871.634,-395.134"/>
</g>
<!-- Node29 -->
<g id="node29" class="node"><title>Node29</title>
<g id="a_node29"><a xlink:href="LinAlgHelpers_8hpp.html" target="_top" xlink:title="Implements a set functions for basic linear algebra operations.">
<polygon fill="white" stroke="black" points="1556,-168.5 1556,-187.5 1686,-187.5 1686,-168.5 1556,-168.5"/>
<text text-anchor="middle" x="1621" y="-175.5" font-family="Helvetica,sans-Serif" font-size="10.00">include/LinAlgHelpers.hpp</text>
</a>
</g>
</g>
<!-- Node1&#45;&gt;Node29 -->
<g id="edge50" class="edge"><title>Node1&#45;&gt;Node29</title>
<path fill="none" stroke="midnightblue" d="M909.464,-411.672C1066.86,-410.307 1491.09,-403.267 1542,-367 1604.57,-322.424 1617.83,-218.336 1620.41,-187.657"/>
<polygon fill="midnightblue" stroke="midnightblue" points="909.016,-408.176 899.045,-411.758 909.074,-415.175 909.016,-408.176"/>
</g>
<!-- Node30 -->
<g id="node30" class="node"><title>Node30</title>
<g id="a_node30"><a xlink:href="GMRESSolver_8hpp.html" target="_top" xlink:title="Defines the GMRESSolver class that implements a right&#45;preconditioned GMRES iterative method with modi...">
<polygon fill="white" stroke="black" points="1539,-112.5 1539,-131.5 1673,-131.5 1673,-112.5 1539,-112.5"/>
<text text-anchor="middle" x="1606" y="-119.5" font-family="Helvetica,sans-Serif" font-size="10.00">include/GMRESSolver.hpp</text>
</a>
</g>
</g>
<!-- Node1&#45;&gt;Node30 -->
<g id="edge56" class="edge"><title>Node1&#45;&gt;Node30</title>
<path fill="none" stroke="midnightblue" d="M909.44,-412.318C1041.06,-412.287 1356.82,-407.815 1454,-367 1494.36,-350.049 1528,-345.775 1528,-302 1528,-302 1528,-302 1528,-238.5 1528,-206.049 1528.91,-194.943 1547,-168 1557.77,-151.957 1576.18,-139.264 1589.57,-131.504"/>
<polygon fill="midnightblue" stroke="midnightblue" points="909.162,-408.818 899.159,-412.312 909.157,-415.818 909.162,-408.818"/>
</g>
<!-- Node31 -->
<g id="node31" class="node"><title>Node31</title>
<g id="a_node31"><a xlink:href="LSERK4_8hpp.html" target="_top" xlink:title="Header file containing coefficients for Low&#45;Storage Explicit Runge&#45;Kutta time&#45;stepper (4th order).">
<polygon fill="white" stroke="black" points="865.5,-112.5 865.5,-131.5 972.5,-131.5 972.5,-112.5 865.5,-112.5"/>
<text text-anchor="middle" x="919" y="-119.5" font-family="Helvetica,sans-Serif" font-size="10.00">include/LSERK4.hpp</text>
</a>
</g>
</g>
<!-- Node1&#45;&gt;Node31 -->
<g id="edge58" class="edge"><title>Node1&#45;&gt;Node31</title>
<path fill="none" stroke="midnightblue" d="M852.215,-393.113C853.108,-380.13 854.436,-362.503 856,-347 858.518,-322.044 858.008,-315.581 863,-291 869.16,-260.667 872.448,-253.441 882,-224 893.238,-189.363 908.824,-148.891 915.613,-131.571"/>
<polygon fill="midnightblue" stroke="midnightblue" points="848.718,-392.947 851.546,-403.157 855.703,-393.411 848.718,-392.947"/>
</g>
<!-- Node2&#45;&gt;Node3 -->
<g id="edge2" class="edge"><title>Node2&#45;&gt;Node3</title>
<path fill="none" stroke="midnightblue" d="M1317.94,-166.088C1275.81,-155.887 1213.76,-140.861 1175.17,-131.516"/>
<polygon fill="midnightblue" stroke="midnightblue" points="1317.12,-169.492 1327.66,-168.444 1318.77,-162.688 1317.12,-169.492"/>
</g>
<!-- Node5 -->
<g id="node5" class="node"><title>Node5</title>
<g id="a_node5"><a xlink:href="Poisson2d_8hpp.html" target="_top" xlink:title="Header file for 2D Poisson solver&#39;s main.cpp file.">
<polygon fill="white" stroke="black" points="1691.5,-112.5 1691.5,-131.5 1836.5,-131.5 1836.5,-112.5 1691.5,-112.5"/>
<text text-anchor="middle" x="1764" y="-119.5" font-family="Helvetica,sans-Serif" font-size="10.00">src/poisson2d/Poisson2d.hpp</text>
</a>
</g>
</g>
<!-- Node2&#45;&gt;Node5 -->
<g id="edge4" class="edge"><title>Node2&#45;&gt;Node5</title>
<path fill="none" stroke="midnightblue" d="M1434.26,-167.404C1509.88,-157.221 1628.23,-141.283 1700.68,-131.527"/>
<polygon fill="midnightblue" stroke="midnightblue" points="1433.78,-163.936 1424.34,-168.74 1434.72,-170.874 1433.78,-163.936"/>
</g>
<!-- Node3&#45;&gt;Node4 -->
<g id="edge3" class="edge"><title>Node3&#45;&gt;Node4</title>
<path fill="none" stroke="midnightblue" d="M1111.63,-108.232C1089.18,-98.1312 1058.46,-84.3091 1038.93,-75.5164"/>
<polygon fill="midnightblue" stroke="midnightblue" points="1110.43,-111.532 1120.99,-112.444 1113.3,-105.148 1110.43,-111.532"/>
</g>
<!-- Node5&#45;&gt;Node6 -->
<g id="edge5" class="edge"><title>Node5&#45;&gt;Node6</title>
<path fill="none" stroke="midnightblue" d="M1687.98,-111.2C1587.36,-98.2806 1404.42,-74.9692 1248,-56 1132.8,-42.0294 998.153,-26.5181 922.195,-17.8429"/>
<polygon fill="midnightblue" stroke="midnightblue" points="1687.68,-114.691 1698.05,-112.494 1688.57,-107.748 1687.68,-114.691"/>
</g>
<!-- Node7&#45;&gt;Node8 -->
<g id="edge7" class="edge"><title>Node7&#45;&gt;Node8</title>
<path fill="none" stroke="midnightblue" d="M279.45,-342.177C262.521,-332.241 240.217,-319.149 225.745,-310.655"/>
<polygon fill="midnightblue" stroke="midnightblue" points="277.823,-345.28 288.219,-347.324 281.366,-339.243 277.823,-345.28"/>
</g>
<!-- Node10 -->
<g id="node10" class="node"><title>Node10</title>
<g id="a_node10"><a xlink:href="Poisson2DSparseMatrix_8hpp_source.html" target="_top" xlink:title=" ">
<polygon fill="white" stroke="black" points="232.5,-224.5 232.5,-254.5 391.5,-254.5 391.5,-224.5 232.5,-224.5"/>
<text text-anchor="start" x="240.5" y="-242.5" font-family="Helvetica,sans-Serif" font-size="10.00">src/poisson2d/Poisson2DSparse</text>
<text text-anchor="middle" x="312" y="-231.5" font-family="Helvetica,sans-Serif" font-size="10.00">Matrix.hpp</text>
</a>
</g>
</g>
<!-- Node7&#45;&gt;Node10 -->
<g id="edge10" class="edge"><title>Node7&#45;&gt;Node10</title>
<path fill="none" stroke="midnightblue" d="M304.475,-337.068C306.28,-313.904 309.294,-275.223 310.906,-254.545"/>
<polygon fill="midnightblue" stroke="midnightblue" points="300.964,-337.077 303.676,-347.319 307.943,-337.621 300.964,-337.077"/>
</g>
<!-- Node8&#45;&gt;Node9 -->
<g id="edge8" class="edge"><title>Node8&#45;&gt;Node9</title>
<path fill="none" stroke="midnightblue" d="M196.727,-283.669C186.924,-272.452 174.308,-258.016 166.437,-249.009"/>
<polygon fill="midnightblue" stroke="midnightblue" points="194.334,-286.249 203.55,-291.475 199.604,-281.642 194.334,-286.249"/>
</g>
<!-- Node8&#45;&gt;Node10 -->
<g id="edge9" class="edge"><title>Node8&#45;&gt;Node10</title>
<path fill="none" stroke="midnightblue" d="M234.296,-286.276C250.46,-276.754 271.923,-264.11 288.196,-254.523"/>
<polygon fill="midnightblue" stroke="midnightblue" points="232.31,-283.384 225.471,-291.475 235.863,-289.415 232.31,-283.384"/>
</g>
<!-- Node11&#45;&gt;Node12 -->
<g id="edge13" class="edge"><title>Node11&#45;&gt;Node12</title>
<path fill="none" stroke="midnightblue" d="M579.207,-337.352C571.528,-299.597 554.396,-215.365 548.804,-187.868"/>
<polygon fill="midnightblue" stroke="midnightblue" points="575.841,-338.361 581.264,-347.463 582.7,-336.966 575.841,-338.361"/>
</g>
<!-- Node12&#45;&gt;Node6 -->
<g id="edge22" class="edge"><title>Node12&#45;&gt;Node6</title>
<path fill="none" stroke="midnightblue" d="M572.675,-163.47C635.244,-130.497 794.229,-46.7144 845.671,-19.6051"/>
<polygon fill="midnightblue" stroke="midnightblue" points="570.707,-160.55 563.492,-168.309 573.971,-166.743 570.707,-160.55"/>
</g>
<!-- Node12&#45;&gt;Node13 -->
<g id="edge14" class="edge"><title>Node12&#45;&gt;Node13</title>
<path fill="none" stroke="midnightblue" d="M515.751,-164.772C489.829,-154.629 453.638,-140.467 430.764,-131.516"/>
<polygon fill="midnightblue" stroke="midnightblue" points="514.546,-168.059 525.133,-168.444 517.096,-161.54 514.546,-168.059"/>
</g>
<!-- Node12&#45;&gt;Node15 -->
<g id="edge23" class="edge"><title>Node12&#45;&gt;Node15</title>
<path fill="none" stroke="midnightblue" d="M535.58,-159.704C523.499,-140.281 505.206,-107.361 498,-76 493.425,-56.0889 498.744,-32.0428 502.306,-19.5202"/>
<polygon fill="midnightblue" stroke="midnightblue" points="532.753,-161.78 541.088,-168.321 538.651,-158.01 532.753,-161.78"/>
</g>
<!-- Node13&#45;&gt;Node6 -->
<g id="edge18" class="edge"><title>Node13&#45;&gt;Node6</title>
<path fill="none" stroke="midnightblue" d="M425.122,-105.214C441.853,-89.8673 469.519,-67.2736 498,-56 551.878,-34.674 713.125,-20.9265 801.845,-14.7606"/>
<polygon fill="midnightblue" stroke="midnightblue" points="422.293,-103.071 417.423,-112.48 427.098,-108.162 422.293,-103.071"/>
</g>
<!-- Node13&#45;&gt;Node14 -->
<g id="edge15" class="edge"><title>Node13&#45;&gt;Node14</title>
<path fill="none" stroke="midnightblue" d="M444.265,-109.172C474.581,-99.0039 517.57,-84.5852 544.608,-75.5164"/>
<polygon fill="midnightblue" stroke="midnightblue" points="442.879,-105.945 434.511,-112.444 445.105,-112.582 442.879,-105.945"/>
</g>
<!-- Node13&#45;&gt;Node15 -->
<g id="edge19" class="edge"><title>Node13&#45;&gt;Node15</title>
<path fill="none" stroke="midnightblue" d="M410.409,-102.104C412.296,-88.1299 416.705,-69.2964 427,-56 440.495,-38.5701 462.786,-26.6891 480.091,-19.5321"/>
<polygon fill="midnightblue" stroke="midnightblue" points="406.926,-101.762 409.372,-112.07 413.888,-102.486 406.926,-101.762"/>
</g>
<!-- Node13&#45;&gt;Node16 -->
<g id="edge20" class="edge"><title>Node13&#45;&gt;Node16</title>
<path fill="none" stroke="midnightblue" d="M350.43,-110.664C292.602,-100.459 205.219,-85.0386 151.26,-75.5164"/>
<polygon fill="midnightblue" stroke="midnightblue" points="350.057,-114.152 360.513,-112.444 351.274,-107.259 350.057,-114.152"/>
</g>
<!-- Node13&#45;&gt;Node17 -->
<g id="edge21" class="edge"><title>Node13&#45;&gt;Node17</title>
<path fill="none" stroke="midnightblue" d="M379.993,-108.368C356.771,-98.2553 324.837,-84.3486 304.556,-75.5164"/>
<polygon fill="midnightblue" stroke="midnightblue" points="378.786,-111.66 389.352,-112.444 381.581,-105.242 378.786,-111.66"/>
</g>
<!-- Node14&#45;&gt;Node6 -->
<g id="edge16" class="edge"><title>Node14&#45;&gt;Node6</title>
<path fill="none" stroke="midnightblue" d="M626.233,-54.6007C681.418,-44.3953 764.565,-29.0189 815.948,-19.5164"/>
<polygon fill="midnightblue" stroke="midnightblue" points="625.465,-51.1833 616.268,-56.4435 626.738,-58.0666 625.465,-51.1833"/>
</g>
<!-- Node14&#45;&gt;Node15 -->
<g id="edge17" class="edge"><title>Node14&#45;&gt;Node15</title>
<path fill="none" stroke="midnightblue" d="M551.727,-49.8197C540.082,-40.1452 525.401,-27.9481 515.633,-19.8339"/>
<polygon fill="midnightblue" stroke="midnightblue" points="549.628,-52.6259 559.557,-56.324 554.101,-47.2416 549.628,-52.6259"/>
</g>
<!-- Node18&#45;&gt;Node4 -->
<g id="edge25" class="edge"><title>Node18&#45;&gt;Node4</title>
<path fill="none" stroke="midnightblue" d="M830.324,-110.217C875.108,-100.013 941.436,-84.9006 982.622,-75.5164"/>
<polygon fill="midnightblue" stroke="midnightblue" points="829.526,-106.809 820.553,-112.444 831.081,-113.634 829.526,-106.809"/>
</g>
<!-- Node18&#45;&gt;Node6 -->
<g id="edge26" class="edge"><title>Node18&#45;&gt;Node6</title>
<path fill="none" stroke="midnightblue" d="M795.24,-103.957C812.36,-80.1184 842.818,-37.7088 855.83,-19.5914"/>
<polygon fill="midnightblue" stroke="midnightblue" points="792.19,-102.204 789.199,-112.368 797.875,-106.288 792.19,-102.204"/>
</g>
<!-- Node19&#45;&gt;Node14 -->
<g id="edge29" class="edge"><title>Node19&#45;&gt;Node14</title>
<path fill="none" stroke="midnightblue" d="M701.877,-164.542C682.706,-156.597 658.575,-145.305 639,-132 614.228,-115.163 589.804,-89.4131 577.753,-75.9332"/>
<polygon fill="midnightblue" stroke="midnightblue" points="700.816,-167.888 711.4,-168.384 703.436,-161.397 700.816,-167.888"/>
</g>
<!-- Node19&#45;&gt;Node18 -->
<g id="edge28" class="edge"><title>Node19&#45;&gt;Node18</title>
<path fill="none" stroke="midnightblue" d="M749.728,-160.431C758.14,-150.967 768.349,-139.483 775.221,-131.751"/>
<polygon fill="midnightblue" stroke="midnightblue" points="746.954,-158.284 742.926,-168.083 752.186,-162.934 746.954,-158.284"/>
</g>
<!-- Node20&#45;&gt;Node21 -->
<g id="edge31" class="edge"><title>Node20&#45;&gt;Node21</title>
<path fill="none" stroke="midnightblue" d="M1211.3,-340.736C1201.5,-332.559 1189.89,-321.936 1181,-311 1164.57,-290.781 1150.58,-263.207 1144.01,-249.295"/>
<polygon fill="midnightblue" stroke="midnightblue" points="1209.36,-343.664 1219.33,-347.237 1213.76,-338.224 1209.36,-343.664"/>
</g>
<!-- Node21&#45;&gt;Node22 -->
<g id="edge32" class="edge"><title>Node21&#45;&gt;Node22</title>
<path fill="none" stroke="midnightblue" d="M1140,-219.817C1140,-208.996 1140,-195.898 1140,-187.509"/>
<polygon fill="midnightblue" stroke="midnightblue" points="1136.5,-219.975 1140,-229.975 1143.5,-219.975 1136.5,-219.975"/>
</g>
<!-- Node22&#45;&gt;Node3 -->
<g id="edge37" class="edge"><title>Node22&#45;&gt;Node3</title>
<path fill="none" stroke="midnightblue" d="M1140,-157.805C1140,-148.91 1140,-138.78 1140,-131.751"/>
<polygon fill="midnightblue" stroke="midnightblue" points="1136.5,-158.083 1140,-168.083 1143.5,-158.083 1136.5,-158.083"/>
</g>
<!-- Node22&#45;&gt;Node4 -->
<g id="edge36" class="edge"><title>Node22&#45;&gt;Node4</title>
<path fill="none" stroke="midnightblue" d="M1107.81,-164.285C1091.5,-156.694 1072.2,-145.823 1058,-132 1040.76,-115.225 1028.67,-88.9849 1023.24,-75.5519"/>
<polygon fill="midnightblue" stroke="midnightblue" points="1106.44,-167.509 1117,-168.374 1109.29,-161.113 1106.44,-167.509"/>
</g>
<!-- Node22&#45;&gt;Node13 -->
<g id="edge33" class="edge"><title>Node22&#45;&gt;Node13</title>
<path fill="none" stroke="midnightblue" d="M1050.09,-170.358C909.806,-159.995 640.364,-140.091 499.633,-129.695"/>
<polygon fill="midnightblue" stroke="midnightblue" points="1050.15,-173.872 1060.38,-171.118 1050.66,-166.891 1050.15,-173.872"/>
</g>
<!-- Node22&#45;&gt;Node15 -->
<g id="edge38" class="edge"><title>Node22&#45;&gt;Node15</title>
<path fill="none" stroke="midnightblue" d="M1050,-175.065C941.803,-171.454 767.567,-161.167 710,-132 669.303,-111.381 679.246,-80.8718 641,-56 613.062,-37.8318 577.109,-26.354 549.187,-19.5405"/>
<polygon fill="midnightblue" stroke="midnightblue" points="1050.16,-178.572 1060.26,-175.394 1050.38,-171.575 1050.16,-178.572"/>
</g>
<!-- Node22&#45;&gt;Node23 -->
<g id="edge34" class="edge"><title>Node22&#45;&gt;Node23</title>
<path fill="none" stroke="midnightblue" d="M1174.17,-165.172C1203.54,-155.004 1245.2,-140.585 1271.4,-131.516"/>
<polygon fill="midnightblue" stroke="midnightblue" points="1173.02,-161.865 1164.72,-168.444 1175.31,-168.48 1173.02,-161.865"/>
</g>
<!-- Node22&#45;&gt;Node24 -->
<g id="edge35" class="edge"><title>Node22&#45;&gt;Node24</title>
<path fill="none" stroke="midnightblue" d="M1199.34,-166.664C1257.92,-156.459 1346.45,-141.039 1401.11,-131.516"/>
<polygon fill="midnightblue" stroke="midnightblue" points="1198.37,-163.279 1189.12,-168.444 1199.57,-170.175 1198.37,-163.279"/>
</g>
<!-- Node25&#45;&gt;Node5 -->
<g id="edge41" class="edge"><title>Node25&#45;&gt;Node5</title>
<path fill="none" stroke="midnightblue" d="M465.099,-290.104C586.251,-274.027 836.398,-242.204 1049,-224 1192.25,-211.734 1562.89,-244.732 1695,-188 1723.43,-175.792 1747.32,-146.459 1758,-131.738"/>
<polygon fill="midnightblue" stroke="midnightblue" points="464.289,-286.681 454.838,-291.469 465.212,-293.62 464.289,-286.681"/>
</g>
<!-- Node25&#45;&gt;Node10 -->
<g id="edge42" class="edge"><title>Node25&#45;&gt;Node10</title>
<path fill="none" stroke="midnightblue" d="M372.461,-285.468C359.795,-276.047 343.383,-263.841 330.854,-254.523"/>
<polygon fill="midnightblue" stroke="midnightblue" points="370.425,-288.316 380.538,-291.475 374.603,-282.699 370.425,-288.316"/>
</g>
<!-- Node25&#45;&gt;Node13 -->
<g id="edge40" class="edge"><title>Node25&#45;&gt;Node13</title>
<path fill="none" stroke="midnightblue" d="M395.745,-281.54C397.271,-273.429 398.924,-263.772 400,-255 405.675,-208.718 408.009,-152.835 408.732,-131.679"/>
<polygon fill="midnightblue" stroke="midnightblue" points="392.298,-280.929 393.811,-291.415 399.168,-282.274 392.298,-280.929"/>
</g>
<!-- Node26&#45;&gt;Node21 -->
<g id="edge45" class="edge"><title>Node26&#45;&gt;Node21</title>
<path fill="none" stroke="midnightblue" d="M1226.99,-286.712C1205.3,-275.188 1174.55,-258.855 1156.02,-249.009"/>
<polygon fill="midnightblue" stroke="midnightblue" points="1225.48,-289.874 1235.95,-291.475 1228.76,-283.693 1225.48,-289.874"/>
</g>
<!-- Node26&#45;&gt;Node22 -->
<g id="edge44" class="edge"><title>Node26&#45;&gt;Node22</title>
<path fill="none" stroke="midnightblue" d="M1251.06,-281.28C1249.32,-264.571 1244.46,-240.29 1231,-224 1215.96,-205.794 1191.73,-194.318 1172.05,-187.515"/>
<polygon fill="midnightblue" stroke="midnightblue" points="1247.59,-281.742 1251.84,-291.448 1254.57,-281.212 1247.59,-281.742"/>
</g>
<!-- Node27&#45;&gt;Node28 -->
<g id="edge47" class="edge"><title>Node27&#45;&gt;Node28</title>
<path fill="none" stroke="midnightblue" d="M1032.9,-337.101C1031.9,-328.136 1030.76,-317.858 1029.97,-310.751"/>
<polygon fill="midnightblue" stroke="midnightblue" points="1029.43,-337.531 1034.01,-347.083 1036.38,-336.758 1029.43,-337.531"/>
</g>
<!-- Node28&#45;&gt;Node21 -->
<g id="edge49" class="edge"><title>Node28&#45;&gt;Node21</title>
<path fill="none" stroke="midnightblue" d="M1053.79,-286.712C1075.29,-275.188 1105.76,-258.855 1124.13,-249.009"/>
<polygon fill="midnightblue" stroke="midnightblue" points="1052.06,-283.666 1044.9,-291.475 1055.37,-289.835 1052.06,-283.666"/>
</g>
<!-- Node28&#45;&gt;Node22 -->
<g id="edge48" class="edge"><title>Node28&#45;&gt;Node22</title>
<path fill="none" stroke="midnightblue" d="M1029.66,-281.294C1031.15,-264.593 1035.68,-240.319 1049,-224 1063.82,-205.839 1087.8,-194.402 1107.43,-187.605"/>
<polygon fill="midnightblue" stroke="midnightblue" points="1026.15,-281.26 1029.03,-291.455 1033.14,-281.688 1026.15,-281.26"/>
</g>
<!-- Node29&#45;&gt;Node3 -->
<g id="edge54" class="edge"><title>Node29&#45;&gt;Node3</title>
<path fill="none" stroke="midnightblue" d="M1545.91,-168.57C1454.94,-158.357 1302.71,-141.266 1212.78,-131.171"/>
<polygon fill="midnightblue" stroke="midnightblue" points="1545.55,-172.052 1555.88,-169.689 1546.33,-165.095 1545.55,-172.052"/>
</g>
<!-- Node29&#45;&gt;Node5 -->
<g id="edge55" class="edge"><title>Node29&#45;&gt;Node5</title>
<path fill="none" stroke="midnightblue" d="M1653.03,-164.906C1679.91,-154.754 1717.64,-140.506 1741.45,-131.516"/>
<polygon fill="midnightblue" stroke="midnightblue" points="1651.78,-161.636 1643.66,-168.444 1654.25,-168.185 1651.78,-161.636"/>
</g>
<!-- Node29&#45;&gt;Node30 -->
<g id="edge51" class="edge"><title>Node29&#45;&gt;Node30</title>
<path fill="none" stroke="midnightblue" d="M1615.83,-158.396C1613.32,-149.362 1610.43,-138.936 1608.43,-131.751"/>
<polygon fill="midnightblue" stroke="midnightblue" points="1612.47,-159.385 1618.52,-168.083 1619.22,-157.511 1612.47,-159.385"/>
</g>
<!-- Node30&#45;&gt;Node4 -->
<g id="edge52" class="edge"><title>Node30&#45;&gt;Node4</title>
<path fill="none" stroke="midnightblue" d="M1528.81,-111.905C1360.07,-94.5999 1173.68,-79.1938 1080.12,-71.7194"/>
<polygon fill="midnightblue" stroke="midnightblue" points="1528.57,-115.398 1538.88,-112.941 1529.29,-108.435 1528.57,-115.398"/>
</g>
<!-- Node30&#45;&gt;Node6 -->
<g id="edge53" class="edge"><title>Node30&#45;&gt;Node6</title>
<path fill="none" stroke="midnightblue" d="M1538.14,-110.966C1393.12,-89.5253 1055.22,-39.5677 919.725,-19.5345"/>
<polygon fill="midnightblue" stroke="midnightblue" points="1537.83,-114.46 1548.24,-112.46 1538.86,-107.535 1537.83,-114.46"/>
</g>
<!-- Node31&#45;&gt;Node4 -->
<g id="edge59" class="edge"><title>Node31&#45;&gt;Node4</title>
<path fill="none" stroke="midnightblue" d="M944.083,-107.59C962.757,-97.6052 987.704,-84.2672 1003.81,-75.6545"/>
<polygon fill="midnightblue" stroke="midnightblue" points="942.396,-104.522 935.227,-112.324 945.696,-110.696 942.396,-104.522"/>
</g>
<!-- Node31&#45;&gt;Node6 -->
<g id="edge60" class="edge"><title>Node31&#45;&gt;Node6</title>
<path fill="none" stroke="midnightblue" d="M909.839,-103.32C897.428,-79.3697 875.757,-37.5484 866.452,-19.5914"/>
<polygon fill="midnightblue" stroke="midnightblue" points="906.819,-105.1 914.527,-112.368 913.034,-101.879 906.819,-105.1"/>
</g>
<!-- Node31&#45;&gt;Node15 -->
<g id="edge61" class="edge"><title>Node31&#45;&gt;Node15</title>
<path fill="none" stroke="midnightblue" d="M877.195,-109.842C828.605,-96.8781 746.004,-74.855 675,-56 627.05,-43.2669 571.476,-28.5671 537.278,-19.528"/>
<polygon fill="midnightblue" stroke="midnightblue" points="876.466,-113.27 887.03,-112.466 878.271,-106.506 876.466,-113.27"/>
</g>
</g>
</svg>
