<?xml version="1.0" encoding="UTF-8" standalone="no"?>
<!DOCTYPE svg PUBLIC "-//W3C//DTD SVG 1.1//EN"
 "http://www.w3.org/Graphics/SVG/1.1/DTD/svg11.dtd">
<!-- Generated by graphviz version 2.38.0 (20140413.2041)
 -->
<!-- Title: include/VandermondeBuilders.hpp Pages: 1 -->
<svg width="422pt" height="252pt"
 viewBox="0.00 0.00 421.50 252.00" xmlns="http://www.w3.org/2000/svg" xmlns:xlink="http://www.w3.org/1999/xlink">
<g id="graph0" class="graph" transform="scale(1 1) rotate(0) translate(4 248)">
<title>include/VandermondeBuilders.hpp</title>
<polygon fill="white" stroke="none" points="-4,4 -4,-248 417.5,-248 417.5,4 -4,4"/>
<!-- Node1 -->
<g id="node1" class="node"><title>Node1</title>
<g id="a_node1"><a xlink:title="Defines a class for computating the generalized Vandermonde, its gradient, and its inverse for 1D ort...">
<polygon fill="#bfbfbf" stroke="black" points="113.5,-224.5 113.5,-243.5 277.5,-243.5 277.5,-224.5 113.5,-224.5"/>
<text text-anchor="middle" x="195.5" y="-231.5" font-family="Helvetica,sans-Serif" font-size="10.00">include/VandermondeBuilders.hpp</text>
</a>
</g>
</g>
<!-- Node2 -->
<g id="node2" class="node"><title>Node2</title>
<g id="a_node2"><a xlink:href="DirectSolver_8hpp.html" target="_top" xlink:title="Defines the DirectSolver class that implements LAPACK direct solution routine DSGESV....">
<polygon fill="white" stroke="black" points="0,-112.5 0,-131.5 89,-131.5 89,-112.5 0,-112.5"/>
<text text-anchor="middle" x="44.5" y="-119.5" font-family="Helvetica,sans-Serif" font-size="10.00">DirectSolver.hpp</text>
</a>
</g>
</g>
<!-- Node1&#45;&gt;Node2 -->
<g id="edge1" class="edge"><title>Node1&#45;&gt;Node2</title>
<path fill="none" stroke="midnightblue" d="M172.21,-224.484C152.744,-216.716 124.823,-204.02 103.5,-188 85.1089,-174.183 67.8945,-154.063 56.8625,-139.876"/>
<polygon fill="midnightblue" stroke="midnightblue" points="59.3788,-137.401 50.5555,-131.536 53.7955,-141.623 59.3788,-137.401"/>
</g>
<!-- Node3 -->
<g id="node3" class="node"><title>Node3</title>
<g id="a_node3"><a xlink:href="Types_8hpp.html" target="_top" xlink:title="Defines the basic types used throughout this project.">
<polygon fill="white" stroke="black" points="124.5,-56.5 124.5,-75.5 186.5,-75.5 186.5,-56.5 124.5,-56.5"/>
<text text-anchor="middle" x="155.5" y="-63.5" font-family="Helvetica,sans-Serif" font-size="10.00">Types.hpp</text>
</a>
</g>
</g>
<!-- Node1&#45;&gt;Node3 -->
<g id="edge12" class="edge"><title>Node1&#45;&gt;Node3</title>
<path fill="none" stroke="midnightblue" d="M176.516,-224.398C162.614,-216.954 144.786,-204.741 136.5,-188 119.828,-154.316 135.235,-109.465 146.372,-84.9238"/>
<polygon fill="midnightblue" stroke="midnightblue" points="149.607,-86.2716 150.777,-75.7416 143.296,-83.2435 149.607,-86.2716"/>
</g>
<!-- Node7 -->
<g id="node7" class="node"><title>Node7</title>
<g id="a_node7"><a xlink:href="JacobiBuilders_8hpp.html" target="_top" xlink:title="Defines the JacobiBuilders class that constructs Jacobi polynomials, their derivatives,...">
<polygon fill="white" stroke="black" points="146,-168.5 146,-187.5 245,-187.5 245,-168.5 146,-168.5"/>
<text text-anchor="middle" x="195.5" y="-175.5" font-family="Helvetica,sans-Serif" font-size="10.00">JacobiBuilders.hpp</text>
</a>
</g>
</g>
<!-- Node1&#45;&gt;Node7 -->
<g id="edge6" class="edge"><title>Node1&#45;&gt;Node7</title>
<path fill="none" stroke="midnightblue" d="M195.5,-224.083C195.5,-217.006 195.5,-206.861 195.5,-197.986"/>
<polygon fill="midnightblue" stroke="midnightblue" points="199,-197.751 195.5,-187.751 192,-197.751 199,-197.751"/>
</g>
<!-- Node9 -->
<g id="node9" class="node"><title>Node9</title>
<g id="a_node9"><a xlink:href="DenseMatrixInverter_8hpp.html" target="_top" xlink:title="Defines the DenseMatrixInverter class that computes the explicit inverse of a dense matrix via the LA...">
<polygon fill="white" stroke="black" points="289.5,-112.5 289.5,-131.5 413.5,-131.5 413.5,-112.5 289.5,-112.5"/>
<text text-anchor="middle" x="351.5" y="-119.5" font-family="Helvetica,sans-Serif" font-size="10.00">DenseMatrixInverter.hpp</text>
</a>
</g>
</g>
<!-- Node1&#45;&gt;Node9 -->
<g id="edge10" class="edge"><title>Node1&#45;&gt;Node9</title>
<path fill="none" stroke="midnightblue" d="M207.741,-224.368C234.397,-205.573 297.938,-160.768 330.889,-137.533"/>
<polygon fill="midnightblue" stroke="midnightblue" points="333.16,-140.215 339.316,-131.591 329.126,-134.494 333.16,-140.215"/>
</g>
<!-- Node10 -->
<g id="node10" class="node"><title>Node10</title>
<g id="a_node10"><a xlink:title=" ">
<polygon fill="white" stroke="#bfbfbf" points="301.5,-168.5 301.5,-187.5 353.5,-187.5 353.5,-168.5 301.5,-168.5"/>
<text text-anchor="middle" x="327.5" y="-175.5" font-family="Helvetica,sans-Serif" font-size="10.00">memory</text>
</a>
</g>
</g>
<!-- Node1&#45;&gt;Node10 -->
<g id="edge13" class="edge"><title>Node1&#45;&gt;Node10</title>
<path fill="none" stroke="midnightblue" d="M216.416,-224.444C238.236,-215.517 272.65,-201.439 297.392,-191.317"/>
<polygon fill="midnightblue" stroke="midnightblue" points="298.752,-194.542 306.682,-187.516 296.101,-188.063 298.752,-194.542"/>
</g>
<!-- Node2&#45;&gt;Node3 -->
<g id="edge2" class="edge"><title>Node2&#45;&gt;Node3</title>
<path fill="none" stroke="midnightblue" d="M62.3341,-112.324C80.2159,-103.625 107.975,-90.1202 128.546,-80.113"/>
<polygon fill="midnightblue" stroke="midnightblue" points="130.249,-83.1765 137.71,-75.6545 127.187,-76.8819 130.249,-83.1765"/>
</g>
<!-- Node4 -->
<g id="node4" class="node"><title>Node4</title>
<g id="a_node4"><a xlink:title=" ">
<polygon fill="white" stroke="#bfbfbf" points="27.5,-0.5 27.5,-19.5 95.5,-19.5 95.5,-0.5 27.5,-0.5"/>
<text text-anchor="middle" x="61.5" y="-7.5" font-family="Helvetica,sans-Serif" font-size="10.00">blitz/array.h</text>
</a>
</g>
</g>
<!-- Node3&#45;&gt;Node4 -->
<g id="edge3" class="edge"><title>Node3&#45;&gt;Node4</title>
<path fill="none" stroke="midnightblue" d="M140.397,-56.324C125.597,-47.8215 102.806,-34.7288 85.5178,-24.7975"/>
<polygon fill="midnightblue" stroke="midnightblue" points="86.9798,-21.6009 76.5652,-19.6545 83.4929,-27.6707 86.9798,-21.6009"/>
</g>
<!-- Node5 -->
<g id="node5" class="node"><title>Node5</title>
<g id="a_node5"><a xlink:title=" ">
<polygon fill="white" stroke="#bfbfbf" points="114,-0.5 114,-19.5 197,-19.5 197,-0.5 114,-0.5"/>
<text text-anchor="middle" x="155.5" y="-7.5" font-family="Helvetica,sans-Serif" font-size="10.00">unordered_map</text>
</a>
</g>
</g>
<!-- Node3&#45;&gt;Node5 -->
<g id="edge4" class="edge"><title>Node3&#45;&gt;Node5</title>
<path fill="none" stroke="midnightblue" d="M155.5,-56.083C155.5,-49.0059 155.5,-38.8611 155.5,-29.9865"/>
<polygon fill="midnightblue" stroke="midnightblue" points="159,-29.751 155.5,-19.7511 152,-29.7511 159,-29.751"/>
</g>
<!-- Node6 -->
<g id="node6" class="node"><title>Node6</title>
<g id="a_node6"><a xlink:title=" ">
<polygon fill="white" stroke="#bfbfbf" points="215.5,-0.5 215.5,-19.5 259.5,-19.5 259.5,-0.5 215.5,-0.5"/>
<text text-anchor="middle" x="237.5" y="-7.5" font-family="Helvetica,sans-Serif" font-size="10.00">vector</text>
</a>
</g>
</g>
<!-- Node3&#45;&gt;Node6 -->
<g id="edge5" class="edge"><title>Node3&#45;&gt;Node6</title>
<path fill="none" stroke="midnightblue" d="M168.675,-56.324C181.347,-47.979 200.733,-35.2122 215.706,-25.3524"/>
<polygon fill="midnightblue" stroke="midnightblue" points="217.931,-28.0776 224.358,-19.6545 214.081,-22.2313 217.931,-28.0776"/>
</g>
<!-- Node7&#45;&gt;Node3 -->
<g id="edge9" class="edge"><title>Node7&#45;&gt;Node3</title>
<path fill="none" stroke="midnightblue" d="M190.908,-168.207C186.353,-159.259 179.366,-144.907 174.5,-132 168.668,-116.53 163.51,-98.4418 160.045,-85.2804"/>
<polygon fill="midnightblue" stroke="midnightblue" points="163.425,-84.3695 157.556,-75.5491 156.643,-86.1046 163.425,-84.3695"/>
</g>
<!-- Node8 -->
<g id="node8" class="node"><title>Node8</title>
<g id="a_node8"><a xlink:href="EigenSolver_8hpp.html" target="_top" xlink:title="Defines the EigenSolver class that implements LAPACK solution routine DSYEVD. For symmetric matrices ...">
<polygon fill="white" stroke="black" points="183.5,-112.5 183.5,-131.5 271.5,-131.5 271.5,-112.5 183.5,-112.5"/>
<text text-anchor="middle" x="227.5" y="-119.5" font-family="Helvetica,sans-Serif" font-size="10.00">EigenSolver.hpp</text>
</a>
</g>
</g>
<!-- Node7&#45;&gt;Node8 -->
<g id="edge7" class="edge"><title>Node7&#45;&gt;Node8</title>
<path fill="none" stroke="midnightblue" d="M200.784,-168.083C205.211,-160.613 211.663,-149.724 217.118,-140.52"/>
<polygon fill="midnightblue" stroke="midnightblue" points="220.227,-142.138 222.314,-131.751 214.205,-138.57 220.227,-142.138"/>
</g>
<!-- Node8&#45;&gt;Node3 -->
<g id="edge8" class="edge"><title>Node8&#45;&gt;Node3</title>
<path fill="none" stroke="midnightblue" d="M215.932,-112.324C205.08,-104.185 188.619,-91.8395 175.617,-82.0874"/>
<polygon fill="midnightblue" stroke="midnightblue" points="177.379,-79.0339 167.279,-75.8339 173.179,-84.6339 177.379,-79.0339"/>
</g>
<!-- Node9&#45;&gt;Node3 -->
<g id="edge11" class="edge"><title>Node9&#45;&gt;Node3</title>
<path fill="none" stroke="midnightblue" d="M320.443,-112.444C286.897,-103.201 233.303,-88.4356 196.359,-78.2572"/>
<polygon fill="midnightblue" stroke="midnightblue" points="196.982,-74.7984 186.411,-75.5164 195.123,-81.5469 196.982,-74.7984"/>
</g>
</g>
</svg>
