<?xml version="1.0" encoding="UTF-8" standalone="no"?>
<!DOCTYPE svg PUBLIC "-//W3C//DTD SVG 1.1//EN"
 "http://www.w3.org/Graphics/SVG/1.1/DTD/svg11.dtd">
<!-- Generated by graphviz version 2.38.0 (20140413.2041)
 -->
<!-- Title: include/VtkOutputter.hpp Pages: 1 -->
<svg width="280pt" height="84pt"
 viewBox="0.00 0.00 279.50 84.00" xmlns="http://www.w3.org/2000/svg" xmlns:xlink="http://www.w3.org/1999/xlink">
<g id="graph0" class="graph" transform="scale(1 1) rotate(0) translate(4 80)">
<title>include/VtkOutputter.hpp</title>
<polygon fill="white" stroke="none" points="-4,4 -4,-80 275.5,-80 275.5,4 -4,4"/>
<!-- Node1 -->
<g id="node1" class="node"><title>Node1</title>
<g id="a_node1"><a xlink:title="Defines the VtkOutputter class that writes output to *.vtu files.">
<polygon fill="#bfbfbf" stroke="black" points="69.5,-56.5 69.5,-75.5 194.5,-75.5 194.5,-56.5 69.5,-56.5"/>
<text text-anchor="middle" x="132" y="-63.5" font-family="Helvetica,sans-Serif" font-size="10.00">include/VtkOutputter.hpp</text>
</a>
</g>
</g>
<!-- Node2 -->
<g id="node2" class="node"><title>Node2</title>
<g id="a_node2"><a xlink:href="poisson2d_2main_8cpp.html" target="_top" xlink:title=" ">
<polygon fill="white" stroke="black" points="0,-0.5 0,-19.5 120,-19.5 120,-0.5 0,-0.5"/>
<text text-anchor="middle" x="60" y="-7.5" font-family="Helvetica,sans-Serif" font-size="10.00">src/poisson2d/main.cpp</text>
</a>
</g>
</g>
<!-- Node1&#45;&gt;Node2 -->
<g id="edge1" class="edge"><title>Node1&#45;&gt;Node2</title>
<path fill="none" stroke="midnightblue" d="M112.134,-50.1008C99.1765,-40.3824 82.7026,-28.0269 71.7785,-19.8339"/>
<polygon fill="midnightblue" stroke="midnightblue" points="110.332,-53.1239 120.432,-56.324 114.532,-47.5239 110.332,-53.1239"/>
</g>
<!-- Node3 -->
<g id="node3" class="node"><title>Node3</title>
<g id="a_node3"><a xlink:href="pyblitzdg_8cpp.html" target="_top" xlink:title="Python bindings for blitzdg&#39;s public API.">
<polygon fill="white" stroke="black" points="138.5,-0.5 138.5,-19.5 271.5,-19.5 271.5,-0.5 138.5,-0.5"/>
<text text-anchor="middle" x="205" y="-7.5" font-family="Helvetica,sans-Serif" font-size="10.00">src/pyblitzdg/pyblitzdg.cpp</text>
</a>
</g>
</g>
<!-- Node1&#45;&gt;Node3 -->
<g id="edge2" class="edge"><title>Node1&#45;&gt;Node3</title>
<path fill="none" stroke="midnightblue" d="M152.142,-50.1008C165.279,-40.3824 181.982,-28.0269 193.058,-19.8339"/>
<polygon fill="midnightblue" stroke="midnightblue" points="149.687,-47.5631 143.729,-56.324 153.85,-53.1907 149.687,-47.5631"/>
</g>
</g>
</svg>
