<?xml version="1.0" encoding="UTF-8" standalone="no"?>
<!DOCTYPE svg PUBLIC "-//W3C//DTD SVG 1.1//EN"
 "http://www.w3.org/Graphics/SVG/1.1/DTD/svg11.dtd">
<!-- Generated by graphviz version 2.38.0 (20140413.2041)
 -->
<!-- Title: include/VtkOutputter.hpp Pages: 1 -->
<svg width="1748pt" height="431pt"
 viewBox="0.00 0.00 1748.00 431.00" xmlns="http://www.w3.org/2000/svg" xmlns:xlink="http://www.w3.org/1999/xlink">
<g id="graph0" class="graph" transform="scale(1 1) rotate(0) translate(4 427)">
<title>include/VtkOutputter.hpp</title>
<polygon fill="white" stroke="none" points="-4,4 -4,-427 1744,-427 1744,4 -4,4"/>
<!-- Node1 -->
<g id="node1" class="node"><title>Node1</title>
<g id="a_node1"><a xlink:title="Defines the VtkOutputter class that writes output to *.vtu files.">
<polygon fill="#bfbfbf" stroke="black" points="977.5,-403.5 977.5,-422.5 1102.5,-422.5 1102.5,-403.5 977.5,-403.5"/>
<text text-anchor="middle" x="1040" y="-410.5" font-family="Helvetica,sans-Serif" font-size="10.00">include/VtkOutputter.hpp</text>
</a>
</g>
</g>
<!-- Node2 -->
<g id="node2" class="node"><title>Node2</title>
<g id="a_node2"><a xlink:title=" ">
<polygon fill="white" stroke="#bfbfbf" points="0,-336.5 0,-366.5 140,-366.5 140,-336.5 0,-336.5"/>
<text text-anchor="start" x="8" y="-354.5" font-family="Helvetica,sans-Serif" font-size="10.00">vtk&#45;7.1/vtkXMLUnstructured</text>
<text text-anchor="middle" x="70" y="-343.5" font-family="Helvetica,sans-Serif" font-size="10.00">GridWriter.h</text>
</a>
</g>
</g>
<!-- Node1&#45;&gt;Node2 -->
<g id="edge1" class="edge"><title>Node1&#45;&gt;Node2</title>
<path fill="none" stroke="midnightblue" d="M977.383,-411.653C833.175,-410.247 466.41,-403.206 150.415,-367.055"/>
<polygon fill="midnightblue" stroke="midnightblue" points="150.475,-363.538 140.139,-365.867 149.671,-370.492 150.475,-363.538"/>
</g>
<!-- Node3 -->
<g id="node3" class="node"><title>Node3</title>
<g id="a_node3"><a xlink:title=" ">
<polygon fill="white" stroke="#bfbfbf" points="158,-342 158,-361 286,-361 286,-342 158,-342"/>
<text text-anchor="middle" x="222" y="-349" font-family="Helvetica,sans-Serif" font-size="10.00">vtk&#45;7.1/vtkSmartPointer.h</text>
</a>
</g>
</g>
<!-- Node1&#45;&gt;Node3 -->
<g id="edge2" class="edge"><title>Node1&#45;&gt;Node3</title>
<path fill="none" stroke="midnightblue" d="M977.392,-410.79C849.609,-407.749 549.749,-397.689 300,-367 291.16,-365.914 281.809,-364.451 272.769,-362.871"/>
<polygon fill="midnightblue" stroke="midnightblue" points="273.204,-359.393 262.74,-361.052 271.954,-366.281 273.204,-359.393"/>
</g>
<!-- Node4 -->
<g id="node4" class="node"><title>Node4</title>
<g id="a_node4"><a xlink:title=" ">
<polygon fill="white" stroke="#bfbfbf" points="418,-168.5 418,-187.5 470,-187.5 470,-168.5 418,-168.5"/>
<text text-anchor="middle" x="444" y="-175.5" font-family="Helvetica,sans-Serif" font-size="10.00">memory</text>
</a>
</g>
</g>
<!-- Node1&#45;&gt;Node4 -->
<g id="edge3" class="edge"><title>Node1&#45;&gt;Node4</title>
<path fill="none" stroke="midnightblue" d="M977.153,-410.134C877.339,-404.628 679.329,-383.153 537,-300 505.784,-281.762 499.785,-272.853 478,-244 466.871,-229.259 457.439,-210.359 451.353,-196.743"/>
<polygon fill="midnightblue" stroke="midnightblue" points="454.55,-195.316 447.379,-187.517 448.121,-198.086 454.55,-195.316"/>
</g>
<!-- Node5 -->
<g id="node5" class="node"><title>Node5</title>
<g id="a_node5"><a xlink:href="Types_8hpp.html" target="_top" xlink:title="Defines the basic types used throughout this project.">
<polygon fill="white" stroke="black" points="790,-56.5 790,-75.5 852,-75.5 852,-56.5 790,-56.5"/>
<text text-anchor="middle" x="821" y="-63.5" font-family="Helvetica,sans-Serif" font-size="10.00">Types.hpp</text>
</a>
</g>
</g>
<!-- Node1&#45;&gt;Node5 -->
<g id="edge4" class="edge"><title>Node1&#45;&gt;Node5</title>
<path fill="none" stroke="midnightblue" d="M1102.62,-412.032C1252.6,-410.424 1620,-395.791 1620,-291 1620,-291 1620,-291 1620,-177 1620,-126.207 1573.98,-128.669 1526,-112 1402.2,-68.9919 993.777,-66.4302 862.222,-66.7574"/>
<polygon fill="midnightblue" stroke="midnightblue" points="862.143,-63.2575 852.154,-66.7896 862.165,-70.2575 862.143,-63.2575"/>
</g>
<!-- Node9 -->
<g id="node9" class="node"><title>Node9</title>
<g id="a_node9"><a xlink:href="TriangleNodesProvisioner_8hpp.html" target="_top" xlink:title="Defines the TriangleNodesProvisioner class that provides a construction of 2D nodal points on the tri...">
<polygon fill="white" stroke="black" points="764.5,-342 764.5,-361 911.5,-361 911.5,-342 764.5,-342"/>
<text text-anchor="middle" x="838" y="-349" font-family="Helvetica,sans-Serif" font-size="10.00">TriangleNodesProvisioner.hpp</text>
</a>
</g>
</g>
<!-- Node1&#45;&gt;Node9 -->
<g id="edge8" class="edge"><title>Node1&#45;&gt;Node9</title>
<path fill="none" stroke="midnightblue" d="M1011.06,-403.475C975.733,-393.07 915.869,-375.437 876.635,-363.88"/>
<polygon fill="midnightblue" stroke="midnightblue" points="877.469,-360.477 866.888,-361.009 875.492,-367.192 877.469,-360.477"/>
</g>
<!-- Node16 -->
<g id="node16" class="node"><title>Node16</title>
<g id="a_node16"><a xlink:title=" ">
<polygon fill="white" stroke="#bfbfbf" points="1314,-224.5 1314,-243.5 1438,-243.5 1438,-224.5 1314,-224.5"/>
<text text-anchor="middle" x="1376" y="-231.5" font-family="Helvetica,sans-Serif" font-size="10.00">boost/python/numpy.hpp</text>
</a>
</g>
</g>
<!-- Node1&#45;&gt;Node16 -->
<g id="edge51" class="edge"><title>Node1&#45;&gt;Node16</title>
<path fill="none" stroke="midnightblue" d="M1053.32,-403.257C1087.54,-380.996 1181.72,-321.039 1265,-280 1290.51,-267.429 1320.44,-255.447 1342.79,-247.012"/>
<polygon fill="midnightblue" stroke="midnightblue" points="1344.03,-250.285 1352.18,-243.51 1341.58,-243.727 1344.03,-250.285"/>
</g>
<!-- Node29 -->
<g id="node29" class="node"><title>Node29</title>
<g id="a_node29"><a xlink:href="OutputterBase_8hpp_source.html" target="_top" xlink:title=" ">
<polygon fill="white" stroke="black" points="1494,-224.5 1494,-243.5 1592,-243.5 1592,-224.5 1494,-224.5"/>
<text text-anchor="middle" x="1543" y="-231.5" font-family="Helvetica,sans-Serif" font-size="10.00">OutputterBase.hpp</text>
</a>
</g>
</g>
<!-- Node1&#45;&gt;Node29 -->
<g id="edge47" class="edge"><title>Node1&#45;&gt;Node29</title>
<path fill="none" stroke="midnightblue" d="M1068.06,-403.456C1126.61,-385.476 1265.96,-341.924 1381,-300 1427.83,-282.933 1481.36,-260.964 1513.65,-247.438"/>
<polygon fill="midnightblue" stroke="midnightblue" points="1515.09,-250.627 1522.96,-243.526 1512.38,-244.174 1515.09,-250.627"/>
</g>
<!-- Node31 -->
<g id="node31" class="node"><title>Node31</title>
<g id="a_node31"><a xlink:title=" ">
<polygon fill="white" stroke="#bfbfbf" points="1648,-342 1648,-361 1740,-361 1740,-342 1648,-342"/>
<text text-anchor="middle" x="1694" y="-349" font-family="Helvetica,sans-Serif" font-size="10.00">boost/python.hpp</text>
</a>
</g>
</g>
<!-- Node1&#45;&gt;Node31 -->
<g id="edge52" class="edge"><title>Node1&#45;&gt;Node31</title>
<path fill="none" stroke="midnightblue" d="M1102.81,-410.571C1211.62,-407.354 1441.94,-397.279 1634,-367 1640.18,-366.025 1646.67,-364.741 1652.99,-363.338"/>
<polygon fill="midnightblue" stroke="midnightblue" points="1653.8,-366.745 1662.74,-361.065 1652.21,-359.928 1653.8,-366.745"/>
</g>
<!-- Node6 -->
<g id="node6" class="node"><title>Node6</title>
<g id="a_node6"><a xlink:title=" ">
<polygon fill="white" stroke="#bfbfbf" points="787,-0.5 787,-19.5 855,-19.5 855,-0.5 787,-0.5"/>
<text text-anchor="middle" x="821" y="-7.5" font-family="Helvetica,sans-Serif" font-size="10.00">blitz/array.h</text>
</a>
</g>
</g>
<!-- Node5&#45;&gt;Node6 -->
<g id="edge5" class="edge"><title>Node5&#45;&gt;Node6</title>
<path fill="none" stroke="midnightblue" d="M821,-56.083C821,-49.0059 821,-38.8611 821,-29.9865"/>
<polygon fill="midnightblue" stroke="midnightblue" points="824.5,-29.751 821,-19.7511 817.5,-29.7511 824.5,-29.751"/>
</g>
<!-- Node7 -->
<g id="node7" class="node"><title>Node7</title>
<g id="a_node7"><a xlink:title=" ">
<polygon fill="white" stroke="#bfbfbf" points="685.5,-0.5 685.5,-19.5 768.5,-19.5 768.5,-0.5 685.5,-0.5"/>
<text text-anchor="middle" x="727" y="-7.5" font-family="Helvetica,sans-Serif" font-size="10.00">unordered_map</text>
</a>
</g>
</g>
<!-- Node5&#45;&gt;Node7 -->
<g id="edge6" class="edge"><title>Node5&#45;&gt;Node7</title>
<path fill="none" stroke="midnightblue" d="M805.897,-56.324C791.097,-47.8215 768.306,-34.7288 751.018,-24.7975"/>
<polygon fill="midnightblue" stroke="midnightblue" points="752.48,-21.6009 742.065,-19.6545 748.993,-27.6707 752.48,-21.6009"/>
</g>
<!-- Node8 -->
<g id="node8" class="node"><title>Node8</title>
<g id="a_node8"><a xlink:title=" ">
<polygon fill="white" stroke="#bfbfbf" points="873,-0.5 873,-19.5 917,-19.5 917,-0.5 873,-0.5"/>
<text text-anchor="middle" x="895" y="-7.5" font-family="Helvetica,sans-Serif" font-size="10.00">vector</text>
</a>
</g>
</g>
<!-- Node5&#45;&gt;Node8 -->
<g id="edge7" class="edge"><title>Node5&#45;&gt;Node8</title>
<path fill="none" stroke="midnightblue" d="M832.889,-56.324C844.15,-48.1066 861.287,-35.6017 874.709,-25.8069"/>
<polygon fill="midnightblue" stroke="midnightblue" points="876.88,-28.5559 882.894,-19.8339 872.753,-22.9014 876.88,-28.5559"/>
</g>
<!-- Node9&#45;&gt;Node4 -->
<g id="edge46" class="edge"><title>Node9&#45;&gt;Node4</title>
<path fill="none" stroke="midnightblue" d="M764.417,-347.647C708.903,-342.931 632.273,-330.803 572,-300 521.604,-274.244 477.174,-222.486 456.425,-195.785"/>
<polygon fill="midnightblue" stroke="midnightblue" points="459.163,-193.602 450.322,-187.764 453.592,-197.841 459.163,-193.602"/>
</g>
<!-- Node9&#45;&gt;Node5 -->
<g id="edge45" class="edge"><title>Node9&#45;&gt;Node5</title>
<path fill="none" stroke="midnightblue" d="M774.214,-341.976C642.361,-323.487 352,-277.902 352,-235 352,-235 352,-235 352,-177 352,-89.512 665.251,-71.5543 779.739,-67.9128"/>
<polygon fill="midnightblue" stroke="midnightblue" points="779.973,-71.4074 789.864,-67.6119 779.765,-64.4105 779.973,-71.4074"/>
</g>
<!-- Node10 -->
<g id="node10" class="node"><title>Node10</title>
<g id="a_node10"><a xlink:href="Nodes1DProvisioner_8hpp.html" target="_top" xlink:title="Defines a class for computations related to the construction of one&#45;dimensional nodes,...">
<polygon fill="white" stroke="black" points="581.5,-280.5 581.5,-299.5 706.5,-299.5 706.5,-280.5 581.5,-280.5"/>
<text text-anchor="middle" x="644" y="-287.5" font-family="Helvetica,sans-Serif" font-size="10.00">Nodes1DProvisioner.hpp</text>
</a>
</g>
</g>
<!-- Node9&#45;&gt;Node10 -->
<g id="edge9" class="edge"><title>Node9&#45;&gt;Node10</title>
<path fill="none" stroke="midnightblue" d="M810.205,-341.975C776.35,-331.592 719.029,-314.012 681.345,-302.454"/>
<polygon fill="midnightblue" stroke="midnightblue" points="682.331,-299.095 671.744,-299.509 680.278,-305.788 682.331,-299.095"/>
</g>
<!-- Node17 -->
<g id="node17" class="node"><title>Node17</title>
<g id="a_node17"><a xlink:href="DGContext2D_8hpp_source.html" target="_top" xlink:title=" ">
<polygon fill="white" stroke="black" points="1274,-280.5 1274,-299.5 1372,-299.5 1372,-280.5 1274,-280.5"/>
<text text-anchor="middle" x="1323" y="-287.5" font-family="Helvetica,sans-Serif" font-size="10.00">DGContext2D.hpp</text>
</a>
</g>
</g>
<!-- Node9&#45;&gt;Node17 -->
<g id="edge26" class="edge"><title>Node9&#45;&gt;Node17</title>
<path fill="none" stroke="midnightblue" d="M907.489,-341.975C1003.2,-330.233 1173.94,-309.286 1263.86,-298.255"/>
<polygon fill="midnightblue" stroke="midnightblue" points="1264.39,-301.716 1273.89,-297.025 1263.54,-294.768 1264.39,-301.716"/>
</g>
<!-- Node18 -->
<g id="node18" class="node"><title>Node18</title>
<g id="a_node18"><a xlink:href="MeshManager_8hpp.html" target="_top" xlink:title="Defines the MeshManager class that reads mesh input files and partitions meshes with METIS....">
<polygon fill="white" stroke="black" points="984.5,-280.5 984.5,-299.5 1081.5,-299.5 1081.5,-280.5 984.5,-280.5"/>
<text text-anchor="middle" x="1033" y="-287.5" font-family="Helvetica,sans-Serif" font-size="10.00">MeshManager.hpp</text>
</a>
</g>
</g>
<!-- Node9&#45;&gt;Node18 -->
<g id="edge28" class="edge"><title>Node9&#45;&gt;Node18</title>
<path fill="none" stroke="midnightblue" d="M865.939,-341.975C899.967,-331.592 957.584,-314.012 995.462,-302.454"/>
<polygon fill="midnightblue" stroke="midnightblue" points="996.57,-305.775 1005.11,-299.509 994.527,-299.08 996.57,-305.775"/>
</g>
<!-- Node10&#45;&gt;Node4 -->
<g id="edge24" class="edge"><title>Node10&#45;&gt;Node4</title>
<path fill="none" stroke="midnightblue" d="M624.852,-280.385C605.86,-271.688 576.051,-257.63 551,-244 520.897,-227.622 487.287,-206.762 465.909,-193.154"/>
<polygon fill="midnightblue" stroke="midnightblue" points="467.582,-190.069 457.272,-187.627 463.808,-195.965 467.582,-190.069"/>
</g>
<!-- Node10&#45;&gt;Node5 -->
<g id="edge23" class="edge"><title>Node10&#45;&gt;Node5</title>
<path fill="none" stroke="midnightblue" d="M581.456,-281.476C497.474,-268.613 363.719,-236.809 409,-168 449.973,-105.738 683.72,-78.7922 779.785,-70.2395"/>
<polygon fill="midnightblue" stroke="midnightblue" points="780.33,-73.7054 789.991,-69.3543 779.726,-66.7316 780.33,-73.7054"/>
</g>
<!-- Node11 -->
<g id="node11" class="node"><title>Node11</title>
<g id="a_node11"><a xlink:href="DirectSolver_8hpp.html" target="_top" xlink:title="Defines the DirectSolver class that implements LAPACK direct solution routine DSGESV....">
<polygon fill="white" stroke="black" points="488.5,-168.5 488.5,-187.5 577.5,-187.5 577.5,-168.5 488.5,-168.5"/>
<text text-anchor="middle" x="533" y="-175.5" font-family="Helvetica,sans-Serif" font-size="10.00">DirectSolver.hpp</text>
</a>
</g>
</g>
<!-- Node10&#45;&gt;Node11 -->
<g id="edge10" class="edge"><title>Node10&#45;&gt;Node11</title>
<path fill="none" stroke="midnightblue" d="M623.554,-280.361C607.241,-272.679 584.614,-260.164 569,-244 556.002,-230.544 546.177,-211.472 540.102,-197.467"/>
<polygon fill="midnightblue" stroke="midnightblue" points="543.222,-195.851 536.196,-187.921 536.744,-198.502 543.222,-195.851"/>
</g>
<!-- Node12 -->
<g id="node12" class="node"><title>Node12</title>
<g id="a_node12"><a xlink:href="JacobiBuilders_8hpp.html" target="_top" xlink:title="Defines the JacobiBuilders class that constructs Jacobi polynomials, their derivatives,...">
<polygon fill="white" stroke="black" points="672.5,-168.5 672.5,-187.5 771.5,-187.5 771.5,-168.5 672.5,-168.5"/>
<text text-anchor="middle" x="722" y="-175.5" font-family="Helvetica,sans-Serif" font-size="10.00">JacobiBuilders.hpp</text>
</a>
</g>
</g>
<!-- Node10&#45;&gt;Node12 -->
<g id="edge12" class="edge"><title>Node10&#45;&gt;Node12</title>
<path fill="none" stroke="midnightblue" d="M669.84,-280.455C686.613,-273.454 707.279,-261.766 718,-244 726.306,-230.236 726.619,-211.71 725.256,-197.957"/>
<polygon fill="midnightblue" stroke="midnightblue" points="728.681,-197.17 723.856,-187.737 721.746,-198.12 728.681,-197.17"/>
</g>
<!-- Node14 -->
<g id="node14" class="node"><title>Node14</title>
<g id="a_node14"><a xlink:href="VandermondeBuilders_8hpp.html" target="_top" xlink:title="Defines a class for computating the generalized Vandermonde, its gradient, and its inverse for 1D ort...">
<polygon fill="white" stroke="black" points="578.5,-224.5 578.5,-243.5 709.5,-243.5 709.5,-224.5 578.5,-224.5"/>
<text text-anchor="middle" x="644" y="-231.5" font-family="Helvetica,sans-Serif" font-size="10.00">VandermondeBuilders.hpp</text>
</a>
</g>
</g>
<!-- Node10&#45;&gt;Node14 -->
<g id="edge16" class="edge"><title>Node10&#45;&gt;Node14</title>
<path fill="none" stroke="midnightblue" d="M644,-280.083C644,-273.006 644,-262.861 644,-253.986"/>
<polygon fill="midnightblue" stroke="midnightblue" points="647.5,-253.751 644,-243.751 640.5,-253.751 647.5,-253.751"/>
</g>
<!-- Node10&#45;&gt;Node16 -->
<g id="edge25" class="edge"><title>Node10&#45;&gt;Node16</title>
<path fill="none" stroke="midnightblue" d="M706.726,-284.373C841.986,-274.394 1160.42,-250.903 1303.8,-240.326"/>
<polygon fill="midnightblue" stroke="midnightblue" points="1304.1,-243.814 1313.82,-239.587 1303.59,-236.833 1304.1,-243.814"/>
</g>
<!-- Node11&#45;&gt;Node5 -->
<g id="edge11" class="edge"><title>Node11&#45;&gt;Node5</title>
<path fill="none" stroke="midnightblue" d="M533.541,-168.284C534.917,-154.13 539.786,-126.293 557,-112 590.19,-84.4411 713.985,-73.1906 779.588,-69.0861"/>
<polygon fill="midnightblue" stroke="midnightblue" points="779.821,-72.5785 789.594,-68.4874 779.403,-65.591 779.821,-72.5785"/>
</g>
<!-- Node12&#45;&gt;Node5 -->
<g id="edge15" class="edge"><title>Node12&#45;&gt;Node5</title>
<path fill="none" stroke="midnightblue" d="M771.54,-170.864C795.847,-165.076 823.051,-153.834 838,-132 847.745,-117.768 840.559,-98.2895 832.751,-84.3745"/>
<polygon fill="midnightblue" stroke="midnightblue" points="835.671,-82.4415 827.447,-75.7628 829.711,-86.1128 835.671,-82.4415"/>
</g>
<!-- Node13 -->
<g id="node13" class="node"><title>Node13</title>
<g id="a_node13"><a xlink:href="EigenSolver_8hpp.html" target="_top" xlink:title="Defines the EigenSolver class that implements LAPACK solution routine DSYEVD. For symmetric matrices ...">
<polygon fill="white" stroke="black" points="741,-112.5 741,-131.5 829,-131.5 829,-112.5 741,-112.5"/>
<text text-anchor="middle" x="785" y="-119.5" font-family="Helvetica,sans-Serif" font-size="10.00">EigenSolver.hpp</text>
</a>
</g>
</g>
<!-- Node12&#45;&gt;Node13 -->
<g id="edge13" class="edge"><title>Node12&#45;&gt;Node13</title>
<path fill="none" stroke="midnightblue" d="M732.122,-168.324C741.526,-160.263 755.744,-148.077 767.069,-138.369"/>
<polygon fill="midnightblue" stroke="midnightblue" points="769.379,-140.999 774.694,-131.834 764.823,-135.684 769.379,-140.999"/>
</g>
<!-- Node13&#45;&gt;Node5 -->
<g id="edge14" class="edge"><title>Node13&#45;&gt;Node5</title>
<path fill="none" stroke="midnightblue" d="M790.945,-112.083C795.977,-104.534 803.337,-93.4948 809.513,-84.2298"/>
<polygon fill="midnightblue" stroke="midnightblue" points="812.531,-86.0131 815.166,-75.7511 806.707,-82.1301 812.531,-86.0131"/>
</g>
<!-- Node14&#45;&gt;Node4 -->
<g id="edge22" class="edge"><title>Node14&#45;&gt;Node4</title>
<path fill="none" stroke="midnightblue" d="M612.309,-224.444C576.367,-214.739 517.871,-198.945 480.171,-188.766"/>
<polygon fill="midnightblue" stroke="midnightblue" points="480.692,-185.281 470.125,-186.054 478.867,-192.039 480.692,-185.281"/>
</g>
<!-- Node14&#45;&gt;Node5 -->
<g id="edge21" class="edge"><title>Node14&#45;&gt;Node5</title>
<path fill="none" stroke="midnightblue" d="M634.196,-224.223C611.659,-203.007 560.304,-148.039 590,-112 613.53,-83.4435 719.399,-72.7693 779.315,-68.9681"/>
<polygon fill="midnightblue" stroke="midnightblue" points="779.809,-72.445 789.583,-68.3554 779.392,-65.4574 779.809,-72.445"/>
</g>
<!-- Node14&#45;&gt;Node11 -->
<g id="edge17" class="edge"><title>Node14&#45;&gt;Node11</title>
<path fill="none" stroke="midnightblue" d="M626.166,-224.324C608.284,-215.625 580.525,-202.12 559.954,-192.113"/>
<polygon fill="midnightblue" stroke="midnightblue" points="561.313,-188.882 550.79,-187.655 558.251,-195.177 561.313,-188.882"/>
</g>
<!-- Node14&#45;&gt;Node12 -->
<g id="edge18" class="edge"><title>Node14&#45;&gt;Node12</title>
<path fill="none" stroke="midnightblue" d="M656.532,-224.324C668.586,-215.979 687.027,-203.212 701.269,-193.352"/>
<polygon fill="midnightblue" stroke="midnightblue" points="703.269,-196.224 709.499,-187.655 699.285,-190.469 703.269,-196.224"/>
</g>
<!-- Node15 -->
<g id="node15" class="node"><title>Node15</title>
<g id="a_node15"><a xlink:href="DenseMatrixInverter_8hpp.html" target="_top" xlink:title="Defines the DenseMatrixInverter class that computes the explicit inverse of a dense matrix via the LA...">
<polygon fill="white" stroke="black" points="599,-112.5 599,-131.5 723,-131.5 723,-112.5 599,-112.5"/>
<text text-anchor="middle" x="661" y="-119.5" font-family="Helvetica,sans-Serif" font-size="10.00">DenseMatrixInverter.hpp</text>
</a>
</g>
</g>
<!-- Node14&#45;&gt;Node15 -->
<g id="edge19" class="edge"><title>Node14&#45;&gt;Node15</title>
<path fill="none" stroke="midnightblue" d="M645.334,-224.368C648.077,-206.617 654.406,-165.666 658.126,-141.597"/>
<polygon fill="midnightblue" stroke="midnightblue" points="661.604,-142.009 659.672,-131.591 654.686,-140.94 661.604,-142.009"/>
</g>
<!-- Node15&#45;&gt;Node5 -->
<g id="edge20" class="edge"><title>Node15&#45;&gt;Node5</title>
<path fill="none" stroke="midnightblue" d="M686.352,-112.444C713.269,-103.359 755.996,-88.9388 786.087,-78.7831"/>
<polygon fill="midnightblue" stroke="midnightblue" points="787.41,-82.0305 795.766,-75.5164 785.172,-75.3981 787.41,-82.0305"/>
</g>
<!-- Node17&#45;&gt;Node5 -->
<g id="edge27" class="edge"><title>Node17&#45;&gt;Node5</title>
<path fill="none" stroke="midnightblue" d="M1359.91,-280.499C1392.56,-272.153 1436.58,-258.582 1447,-244 1485.72,-189.794 1438.08,-136.149 1376,-112 1282.28,-75.5461 974.361,-68.6227 862.273,-67.3081"/>
<polygon fill="midnightblue" stroke="midnightblue" points="862.088,-63.806 852.051,-67.1975 862.012,-70.8056 862.088,-63.806"/>
</g>
<!-- Node18&#45;&gt;Node4 -->
<g id="edge43" class="edge"><title>Node18&#45;&gt;Node4</title>
<path fill="none" stroke="midnightblue" d="M984.439,-287.025C881.618,-282.4 645.133,-269.295 569,-244 552.725,-238.593 551.051,-232.22 536,-224 514.968,-212.513 490.582,-200.649 472.202,-191.988"/>
<polygon fill="midnightblue" stroke="midnightblue" points="473.47,-188.717 462.929,-187.649 470.504,-195.057 473.47,-188.717"/>
</g>
<!-- Node18&#45;&gt;Node5 -->
<g id="edge29" class="edge"><title>Node18&#45;&gt;Node5</title>
<path fill="none" stroke="midnightblue" d="M1073.54,-280.446C1113.85,-271.796 1177.39,-257.773 1232,-244 1233.4,-243.646 1432.12,-189.154 1433,-188 1438.38,-180.921 1438.11,-175.275 1433,-168 1367.25,-74.3412 988.883,-66.5806 862.267,-66.6458"/>
<polygon fill="midnightblue" stroke="midnightblue" points="862.19,-63.1459 852.198,-66.6682 862.206,-70.1459 862.19,-63.1459"/>
</g>
<!-- Node19 -->
<g id="node19" class="node"><title>Node19</title>
<g id="a_node19"><a xlink:href="CSVFileReader_8hpp.html" target="_top" xlink:title="Defines the class CSVFileReader and functions csvread for reading csv files.">
<polygon fill="white" stroke="black" points="981,-224.5 981,-243.5 1085,-243.5 1085,-224.5 981,-224.5"/>
<text text-anchor="middle" x="1033" y="-231.5" font-family="Helvetica,sans-Serif" font-size="10.00">CSVFileReader.hpp</text>
</a>
</g>
</g>
<!-- Node18&#45;&gt;Node19 -->
<g id="edge30" class="edge"><title>Node18&#45;&gt;Node19</title>
<path fill="none" stroke="midnightblue" d="M1033,-280.083C1033,-273.006 1033,-262.861 1033,-253.986"/>
<polygon fill="midnightblue" stroke="midnightblue" points="1036.5,-253.751 1033,-243.751 1029.5,-253.751 1036.5,-253.751"/>
</g>
<!-- Node28 -->
<g id="node28" class="node"><title>Node28</title>
<g id="a_node28"><a xlink:title=" ">
<polygon fill="white" stroke="#bfbfbf" points="1382.5,-168.5 1382.5,-187.5 1423.5,-187.5 1423.5,-168.5 1382.5,-168.5"/>
<text text-anchor="middle" x="1403" y="-175.5" font-family="Helvetica,sans-Serif" font-size="10.00">string</text>
</a>
</g>
</g>
<!-- Node18&#45;&gt;Node28 -->
<g id="edge44" class="edge"><title>Node18&#45;&gt;Node28</title>
<path fill="none" stroke="midnightblue" d="M1061.73,-280.46C1130.04,-260.15 1301.73,-209.106 1372.14,-188.173"/>
<polygon fill="midnightblue" stroke="midnightblue" points="1373.57,-191.4 1382.16,-185.196 1371.58,-184.691 1373.57,-191.4"/>
</g>
<!-- Node19&#45;&gt;Node4 -->
<g id="edge38" class="edge"><title>Node19&#45;&gt;Node4</title>
<path fill="none" stroke="midnightblue" d="M980.697,-231.722C883.719,-228.707 669.423,-219.031 480.392,-187.956"/>
<polygon fill="midnightblue" stroke="midnightblue" points="480.71,-184.461 470.27,-186.268 479.558,-191.366 480.71,-184.461"/>
</g>
<!-- Node19&#45;&gt;Node5 -->
<g id="edge34" class="edge"><title>Node19&#45;&gt;Node5</title>
<path fill="none" stroke="midnightblue" d="M1085.11,-228.906C1167.18,-221.924 1318.93,-206.645 1335,-188 1340.8,-181.267 1339.66,-175.57 1335,-168 1285.3,-87.2532 975.534,-71.0384 862.349,-67.8013"/>
<polygon fill="midnightblue" stroke="midnightblue" points="862.115,-64.2939 852.025,-67.5268 861.929,-71.2914 862.115,-64.2939"/>
</g>
<!-- Node19&#45;&gt;Node8 -->
<g id="edge42" class="edge"><title>Node19&#45;&gt;Node8</title>
<path fill="none" stroke="midnightblue" d="M980.887,-229.413C924.213,-224.3 839.007,-212.651 819,-188 797.082,-160.993 853.491,-134.449 855,-132 875.335,-99.0062 886.57,-54.511 891.637,-29.7026"/>
<polygon fill="midnightblue" stroke="midnightblue" points="895.089,-30.2828 893.542,-19.8016 888.215,-28.9603 895.089,-30.2828"/>
</g>
<!-- Node20 -->
<g id="node20" class="node"><title>Node20</title>
<g id="a_node20"><a xlink:href="Traits_8hpp.html" target="_top" xlink:title="Defines a basic set of traits for making compile&#45;time assertions about numeric types and iterators.">
<polygon fill="white" stroke="black" points="1118,-168.5 1118,-187.5 1178,-187.5 1178,-168.5 1118,-168.5"/>
<text text-anchor="middle" x="1148" y="-175.5" font-family="Helvetica,sans-Serif" font-size="10.00">Traits.hpp</text>
</a>
</g>
</g>
<!-- Node19&#45;&gt;Node20 -->
<g id="edge31" class="edge"><title>Node19&#45;&gt;Node20</title>
<path fill="none" stroke="midnightblue" d="M1051.22,-224.444C1069.9,-215.675 1099.16,-201.935 1120.62,-191.858"/>
<polygon fill="midnightblue" stroke="midnightblue" points="1122.3,-194.935 1129.86,-187.516 1119.32,-188.599 1122.3,-194.935"/>
</g>
<!-- Node23 -->
<g id="node23" class="node"><title>Node23</title>
<g id="a_node23"><a xlink:title=" ">
<polygon fill="white" stroke="#bfbfbf" points="1196.5,-168.5 1196.5,-187.5 1325.5,-187.5 1325.5,-168.5 1196.5,-168.5"/>
<text text-anchor="middle" x="1261" y="-175.5" font-family="Helvetica,sans-Serif" font-size="10.00">boost/algorithm/string.hpp</text>
</a>
</g>
</g>
<!-- Node19&#45;&gt;Node23 -->
<g id="edge35" class="edge"><title>Node19&#45;&gt;Node23</title>
<path fill="none" stroke="midnightblue" d="M1069.13,-224.444C1108.65,-215.083 1172.1,-200.056 1215.11,-189.868"/>
<polygon fill="midnightblue" stroke="midnightblue" points="1216.12,-193.227 1225.04,-187.516 1214.5,-186.415 1216.12,-193.227"/>
</g>
<!-- Node24 -->
<g id="node24" class="node"><title>Node24</title>
<g id="a_node24"><a xlink:title=" ">
<polygon fill="white" stroke="#bfbfbf" points="828,-168.5 828,-187.5 884,-187.5 884,-168.5 828,-168.5"/>
<text text-anchor="middle" x="856" y="-175.5" font-family="Helvetica,sans-Serif" font-size="10.00">algorithm</text>
</a>
</g>
</g>
<!-- Node19&#45;&gt;Node24 -->
<g id="edge36" class="edge"><title>Node19&#45;&gt;Node24</title>
<path fill="none" stroke="midnightblue" d="M1004.95,-224.444C974.918,-215.28 927.087,-200.688 893.757,-190.519"/>
<polygon fill="midnightblue" stroke="midnightblue" points="894.501,-187.087 883.915,-187.516 892.458,-193.782 894.501,-187.087"/>
</g>
<!-- Node25 -->
<g id="node25" class="node"><title>Node25</title>
<g id="a_node25"><a xlink:title=" ">
<polygon fill="white" stroke="#bfbfbf" points="902,-168.5 902,-187.5 952,-187.5 952,-168.5 902,-168.5"/>
<text text-anchor="middle" x="927" y="-175.5" font-family="Helvetica,sans-Serif" font-size="10.00">fstream</text>
</a>
</g>
</g>
<!-- Node19&#45;&gt;Node25 -->
<g id="edge37" class="edge"><title>Node19&#45;&gt;Node25</title>
<path fill="none" stroke="midnightblue" d="M1015.97,-224.324C998.97,-215.664 972.624,-202.242 953.007,-192.249"/>
<polygon fill="midnightblue" stroke="midnightblue" points="954.488,-189.075 943.988,-187.655 951.31,-195.312 954.488,-189.075"/>
</g>
<!-- Node26 -->
<g id="node26" class="node"><title>Node26</title>
<g id="a_node26"><a xlink:title=" ">
<polygon fill="white" stroke="#bfbfbf" points="970,-168.5 970,-187.5 1022,-187.5 1022,-168.5 970,-168.5"/>
<text text-anchor="middle" x="996" y="-175.5" font-family="Helvetica,sans-Serif" font-size="10.00">sstream</text>
</a>
</g>
</g>
<!-- Node19&#45;&gt;Node26 -->
<g id="edge39" class="edge"><title>Node19&#45;&gt;Node26</title>
<path fill="none" stroke="midnightblue" d="M1026.89,-224.083C1021.72,-216.534 1014.15,-205.495 1007.81,-196.23"/>
<polygon fill="midnightblue" stroke="midnightblue" points="1010.54,-194.022 1002,-187.751 1004.76,-197.979 1010.54,-194.022"/>
</g>
<!-- Node27 -->
<g id="node27" class="node"><title>Node27</title>
<g id="a_node27"><a xlink:title=" ">
<polygon fill="white" stroke="#bfbfbf" points="1040.5,-168.5 1040.5,-187.5 1099.5,-187.5 1099.5,-168.5 1040.5,-168.5"/>
<text text-anchor="middle" x="1070" y="-175.5" font-family="Helvetica,sans-Serif" font-size="10.00">stdexcept</text>
</a>
</g>
</g>
<!-- Node19&#45;&gt;Node27 -->
<g id="edge40" class="edge"><title>Node19&#45;&gt;Node27</title>
<path fill="none" stroke="midnightblue" d="M1039.11,-224.083C1044.28,-216.534 1051.85,-205.495 1058.19,-196.23"/>
<polygon fill="midnightblue" stroke="midnightblue" points="1061.24,-197.979 1064,-187.751 1055.46,-194.022 1061.24,-197.979"/>
</g>
<!-- Node19&#45;&gt;Node28 -->
<g id="edge41" class="edge"><title>Node19&#45;&gt;Node28</title>
<path fill="none" stroke="midnightblue" d="M1085.25,-227.915C1151.42,-221.033 1268.79,-207.349 1368,-188 1369.46,-187.715 1370.95,-187.405 1372.46,-187.078"/>
<polygon fill="midnightblue" stroke="midnightblue" points="1373.44,-190.443 1382.36,-184.738 1371.83,-183.631 1373.44,-190.443"/>
</g>
<!-- Node21 -->
<g id="node21" class="node"><title>Node21</title>
<g id="a_node21"><a xlink:title=" ">
<polygon fill="white" stroke="#bfbfbf" points="1087.5,-112.5 1087.5,-131.5 1134.5,-131.5 1134.5,-112.5 1087.5,-112.5"/>
<text text-anchor="middle" x="1111" y="-119.5" font-family="Helvetica,sans-Serif" font-size="10.00">iterator</text>
</a>
</g>
</g>
<!-- Node20&#45;&gt;Node21 -->
<g id="edge32" class="edge"><title>Node20&#45;&gt;Node21</title>
<path fill="none" stroke="midnightblue" d="M1141.89,-168.083C1136.72,-160.534 1129.15,-149.495 1122.81,-140.23"/>
<polygon fill="midnightblue" stroke="midnightblue" points="1125.54,-138.022 1117,-131.751 1119.76,-141.979 1125.54,-138.022"/>
</g>
<!-- Node22 -->
<g id="node22" class="node"><title>Node22</title>
<g id="a_node22"><a xlink:title=" ">
<polygon fill="white" stroke="#bfbfbf" points="1153,-112.5 1153,-131.5 1215,-131.5 1215,-112.5 1153,-112.5"/>
<text text-anchor="middle" x="1184" y="-119.5" font-family="Helvetica,sans-Serif" font-size="10.00">type_traits</text>
</a>
</g>
</g>
<!-- Node20&#45;&gt;Node22 -->
<g id="edge33" class="edge"><title>Node20&#45;&gt;Node22</title>
<path fill="none" stroke="midnightblue" d="M1153.94,-168.083C1158.98,-160.534 1166.34,-149.495 1172.51,-140.23"/>
<polygon fill="midnightblue" stroke="midnightblue" points="1175.53,-142.013 1178.17,-131.751 1169.71,-138.13 1175.53,-142.013"/>
</g>
<!-- Node29&#45;&gt;Node5 -->
<g id="edge48" class="edge"><title>Node29&#45;&gt;Node5</title>
<path fill="none" stroke="midnightblue" d="M1543.22,-224.486C1543.29,-201.869 1540.03,-140.098 1504,-112 1453.43,-72.5577 1002.47,-67.6367 862.349,-67.0631"/>
<polygon fill="midnightblue" stroke="midnightblue" points="862.055,-63.5621 852.043,-67.0265 862.03,-70.5621 862.055,-63.5621"/>
</g>
<!-- Node29&#45;&gt;Node28 -->
<g id="edge49" class="edge"><title>Node29&#45;&gt;Node28</title>
<path fill="none" stroke="midnightblue" d="M1520.82,-224.444C1497.16,-215.319 1459.55,-200.813 1433.2,-190.65"/>
<polygon fill="midnightblue" stroke="midnightblue" points="1434.3,-187.322 1423.71,-186.988 1431.78,-193.853 1434.3,-187.322"/>
</g>
<!-- Node30 -->
<g id="node30" class="node"><title>Node30</title>
<g id="a_node30"><a xlink:title=" ">
<polygon fill="white" stroke="#bfbfbf" points="1556.5,-168.5 1556.5,-187.5 1591.5,-187.5 1591.5,-168.5 1556.5,-168.5"/>
<text text-anchor="middle" x="1574" y="-175.5" font-family="Helvetica,sans-Serif" font-size="10.00">map</text>
</a>
</g>
</g>
<!-- Node29&#45;&gt;Node30 -->
<g id="edge50" class="edge"><title>Node29&#45;&gt;Node30</title>
<path fill="none" stroke="midnightblue" d="M1548.12,-224.083C1552.41,-216.613 1558.66,-205.724 1563.94,-196.52"/>
<polygon fill="midnightblue" stroke="midnightblue" points="1567.03,-198.166 1568.98,-187.751 1560.96,-194.681 1567.03,-198.166"/>
</g>
</g>
</svg>
