<?xml version="1.0" encoding="UTF-8" standalone="no"?>
<!DOCTYPE svg PUBLIC "-//W3C//DTD SVG 1.1//EN"
 "http://www.w3.org/Graphics/SVG/1.1/DTD/svg11.dtd">
<!-- Generated by graphviz version 2.40.1 (20161225.0304)
 -->
<!-- Title: ComplexOperand Pages: 1 -->
<svg width="83pt" height="84pt"
 viewBox="0.00 0.00 83.00 84.00" xmlns="http://www.w3.org/2000/svg" xmlns:xlink="http://www.w3.org/1999/xlink">
<g id="graph0" class="graph" transform="scale(1 1) rotate(0) translate(4 80)">
<title>ComplexOperand</title>
<polygon fill="#ffffff" stroke="transparent" points="-4,4 -4,-80 79,-80 79,4 -4,4"/>
<!-- Node2 -->
<g id="node1" class="node">
<title>Node2</title>
<polygon fill="#bfbfbf" stroke="#000000" points="0,-.5 0,-19.5 75,-19.5 75,-.5 0,-.5"/>
<text text-anchor="middle" x="37.5" y="-7.5" font-family="Helvetica,sans-Serif" font-size="10.00" fill="#000000">ComplexOperand</text>
</g>
<!-- Node3 -->
<g id="node2" class="node">
<title>Node3</title>
<g id="a_node2"><a xlink:href="classoperand.html" target="_top" xlink:title="operand">
<polygon fill="#ffffff" stroke="#000000" points="15.5,-56.5 15.5,-75.5 59.5,-75.5 59.5,-56.5 15.5,-56.5"/>
<text text-anchor="middle" x="37.5" y="-63.5" font-family="Helvetica,sans-Serif" font-size="10.00" fill="#000000">operand</text>
</a>
</g>
</g>
<!-- Node3&#45;&gt;Node2 -->
<g id="edge1" class="edge">
<title>Node3&#45;&gt;Node2</title>
<path fill="none" stroke="#191970" d="M31.0113,-46.1575C30.419,-37.155 30.8335,-26.9199 32.2549,-19.6427"/>
<polygon fill="#191970" stroke="#191970" points="27.5561,-46.739 32.2332,-56.2455 34.5053,-45.8972 27.5561,-46.739"/>
</g>
<!-- Node3&#45;&gt;Node2 -->
<g id="edge2" class="edge">
<title>Node3&#45;&gt;Node2</title>
<path fill="none" stroke="#191970" d="M43.9887,-46.1575C44.581,-37.155 44.1665,-26.9199 42.7451,-19.6427"/>
<polygon fill="#191970" stroke="#191970" points="40.4947,-45.8972 42.7668,-56.2455 47.4439,-46.739 40.4947,-45.8972"/>
</g>
</g>
</svg>
