<?xml version="1.0" encoding="UTF-8" standalone="no"?>
<!DOCTYPE svg PUBLIC "-//W3C//DTD SVG 1.1//EN"
 "http://www.w3.org/Graphics/SVG/1.1/DTD/svg11.dtd">
<!-- Generated by graphviz version 2.40.1 (20161225.0304)
 -->
<!-- Title: div4_et2&lt; P_expr1, P_expr2, P_numtype &gt; Pages: 1 -->
<svg width="128pt" height="174pt"
 viewBox="0.00 0.00 128.00 174.00" xmlns="http://www.w3.org/2000/svg" xmlns:xlink="http://www.w3.org/1999/xlink">
<g id="graph0" class="graph" transform="scale(1 1) rotate(0) translate(4 170)">
<title>div4_et2&lt; P_expr1, P_expr2, P_numtype &gt;</title>
<polygon fill="#ffffff" stroke="transparent" points="-4,4 -4,-170 124,-170 124,4 -4,4"/>
<!-- Node2 -->
<g id="node1" class="node">
<title>Node2</title>
<polygon fill="#bfbfbf" stroke="#000000" points="12.5,-.5 12.5,-30.5 107.5,-30.5 107.5,-.5 12.5,-.5"/>
<text text-anchor="start" x="20.5" y="-18.5" font-family="Helvetica,sans-Serif" font-size="10.00" fill="#000000">div4_et2&lt; P_expr1,</text>
<text text-anchor="middle" x="60" y="-7.5" font-family="Helvetica,sans-Serif" font-size="10.00" fill="#000000"> P_expr2, P_numtype &gt;</text>
</g>
<!-- Node3 -->
<g id="node2" class="node">
<title>Node3</title>
<g id="a_node2"><a xlink:href="class__bz__StencilExpr2.html" target="_top" xlink:title="_bz_StencilExpr2\&lt; P\l_expr1, P_expr2, P_numtype \&gt;">
<polygon fill="#ffffff" stroke="#000000" points="0,-68.5 0,-98.5 120,-98.5 120,-68.5 0,-68.5"/>
<text text-anchor="start" x="8" y="-86.5" font-family="Helvetica,sans-Serif" font-size="10.00" fill="#000000">_bz_StencilExpr2&lt; P</text>
<text text-anchor="middle" x="60" y="-75.5" font-family="Helvetica,sans-Serif" font-size="10.00" fill="#000000">_expr1, P_expr2, P_numtype &gt;</text>
</a>
</g>
</g>
<!-- Node3&#45;&gt;Node2 -->
<g id="edge1" class="edge">
<title>Node3&#45;&gt;Node2</title>
<path fill="none" stroke="#191970" d="M60,-58.1174C60,-48.8378 60,-38.6413 60,-30.5492"/>
<polygon fill="#191970" stroke="#191970" points="56.5001,-58.4086 60,-68.4086 63.5001,-58.4086 56.5001,-58.4086"/>
</g>
<!-- Node4 -->
<g id="node3" class="node">
<title>Node4</title>
<polygon fill="#ffffff" stroke="#bfbfbf" points="7,-146.5 7,-165.5 51,-165.5 51,-146.5 7,-146.5"/>
<text text-anchor="middle" x="29" y="-153.5" font-family="Helvetica,sans-Serif" font-size="10.00" fill="#000000">P_expr1</text>
</g>
<!-- Node4&#45;&gt;Node3 -->
<g id="edge2" class="edge">
<title>Node4&#45;&gt;Node3</title>
<path fill="none" stroke="#9a32cd" stroke-dasharray="5,2" d="M37.2337,-136.7439C42.3303,-124.8244 48.7816,-109.7366 53.5144,-98.668"/>
<polygon fill="#9a32cd" stroke="#9a32cd" points="33.8942,-135.6515 33.1808,-146.2223 40.3306,-138.4037 33.8942,-135.6515"/>
<text text-anchor="middle" x="56.5" y="-120" font-family="Helvetica,sans-Serif" font-size="10.00" fill="#000000"> iter1_</text>
</g>
<!-- Node5 -->
<g id="node4" class="node">
<title>Node5</title>
<polygon fill="#ffffff" stroke="#bfbfbf" points="69,-146.5 69,-165.5 113,-165.5 113,-146.5 69,-146.5"/>
<text text-anchor="middle" x="91" y="-153.5" font-family="Helvetica,sans-Serif" font-size="10.00" fill="#000000">P_expr2</text>
</g>
<!-- Node5&#45;&gt;Node3 -->
<g id="edge3" class="edge">
<title>Node5&#45;&gt;Node3</title>
<path fill="none" stroke="#9a32cd" stroke-dasharray="5,2" d="M82.7663,-136.7439C77.6697,-124.8244 71.2184,-109.7366 66.4856,-98.668"/>
<polygon fill="#9a32cd" stroke="#9a32cd" points="79.6694,-138.4037 86.8192,-146.2223 86.1058,-135.6515 79.6694,-138.4037"/>
<text text-anchor="middle" x="88.5" y="-120" font-family="Helvetica,sans-Serif" font-size="10.00" fill="#000000"> iter2_</text>
</g>
</g>
</svg>
