<?xml version="1.0" encoding="UTF-8" standalone="no"?>
<!DOCTYPE svg PUBLIC "-//W3C//DTD SVG 1.1//EN"
 "http://www.w3.org/Graphics/SVG/1.1/DTD/svg11.dtd">
<!-- Generated by graphviz version 2.40.1 (20161225.0304)
 -->
<!-- Title: MemoryBlock&lt; P_type &gt; Pages: 1 -->
<svg width="106pt" height="106pt"
 viewBox="0.00 0.00 106.00 106.00" xmlns="http://www.w3.org/2000/svg" xmlns:xlink="http://www.w3.org/1999/xlink">
<g id="graph0" class="graph" transform="scale(1 1) rotate(0) translate(4 102)">
<title>MemoryBlock&lt; P_type &gt;</title>
<polygon fill="#ffffff" stroke="transparent" points="-4,4 -4,-102 102,-102 102,4 -4,4"/>
<!-- Node1 -->
<g id="node1" class="node">
<title>Node1</title>
<polygon fill="#bfbfbf" stroke="#000000" points="0,-.5 0,-19.5 98,-19.5 98,-.5 0,-.5"/>
<text text-anchor="middle" x="49" y="-7.5" font-family="Helvetica,sans-Serif" font-size="10.00" fill="#000000">MemoryBlock&lt; P_type &gt;</text>
</g>
<!-- Node2 -->
<g id="node2" class="node">
<title>Node2</title>
<g id="a_node2"><a xlink:href="classsimdTypes.html" target="_top" xlink:title="simdTypes\&lt; T_type \&gt;">
<polygon fill="#ffffff" stroke="#000000" points="4.5,-78.5 4.5,-97.5 93.5,-97.5 93.5,-78.5 4.5,-78.5"/>
<text text-anchor="middle" x="49" y="-85.5" font-family="Helvetica,sans-Serif" font-size="10.00" fill="#000000">simdTypes&lt; T_type &gt;</text>
</a>
</g>
</g>
<!-- Node2&#45;&gt;Node1 -->
<g id="edge1" class="edge">
<title>Node2&#45;&gt;Node1</title>
<path fill="none" stroke="#9a32cd" stroke-dasharray="5,2" d="M49,-68.2866C49,-52.7395 49,-31.7276 49,-19.6426"/>
<polygon fill="#9a32cd" stroke="#9a32cd" points="45.5001,-68.4356 49,-78.4357 52.5001,-68.4357 45.5001,-68.4356"/>
<text text-anchor="middle" x="64.5" y="-52" font-family="Helvetica,sans-Serif" font-size="10.00" fill="#000000"> data_tv_</text>
<text text-anchor="middle" x="64.5" y="-41" font-family="Helvetica,sans-Serif" font-size="10.00" fill="#000000">dBA_tv_</text>
</g>
</g>
</svg>
