<?xml version="1.0" encoding="UTF-8" standalone="no"?>
<!DOCTYPE svg PUBLIC "-//W3C//DTD SVG 1.1//EN"
 "http://www.w3.org/Graphics/SVG/1.1/DTD/svg11.dtd">
<!-- Generated by graphviz version 2.40.1 (20161225.0304)
 -->
<!-- Title: ArrayIterator&lt; T, N &gt; Pages: 1 -->
<svg width="93pt" height="231pt"
 viewBox="0.00 0.00 93.00 231.00" xmlns="http://www.w3.org/2000/svg" xmlns:xlink="http://www.w3.org/1999/xlink">
<g id="graph0" class="graph" transform="scale(1 1) rotate(0) translate(4 227)">
<title>ArrayIterator&lt; T, N &gt;</title>
<polygon fill="#ffffff" stroke="transparent" points="-4,4 -4,-227 89,-227 89,4 -4,4"/>
<!-- Node2 -->
<g id="node1" class="node">
<title>Node2</title>
<polygon fill="#bfbfbf" stroke="#000000" points="0,-.5 0,-19.5 85,-19.5 85,-.5 0,-.5"/>
<text text-anchor="middle" x="42.5" y="-7.5" font-family="Helvetica,sans-Serif" font-size="10.00" fill="#000000">ArrayIterator&lt; T, N &gt;</text>
</g>
<!-- Node3 -->
<g id="node2" class="node">
<title>Node3</title>
<g id="a_node2"><a xlink:href="$classConstArrayIterator.html" xlink:title="ConstArrayIterator\l\&lt; T, N \&gt;">
<polygon fill="#ffffff" stroke="#000000" points="3.5,-57.5 3.5,-87.5 81.5,-87.5 81.5,-57.5 3.5,-57.5"/>
<text text-anchor="start" x="11.5" y="-75.5" font-family="Helvetica,sans-Serif" font-size="10.00" fill="#000000">ConstArrayIterator</text>
<text text-anchor="middle" x="42.5" y="-64.5" font-family="Helvetica,sans-Serif" font-size="10.00" fill="#000000">&lt; T, N &gt;</text>
</a>
</g>
</g>
<!-- Node3&#45;&gt;Node2 -->
<g id="edge1" class="edge">
<title>Node3&#45;&gt;Node2</title>
<path fill="none" stroke="#191970" d="M42.5,-47.3498C42.5,-37.6481 42.5,-27.1303 42.5,-19.7356"/>
<polygon fill="#191970" stroke="#191970" points="39.0001,-47.3705 42.5,-57.3705 46.0001,-47.3705 39.0001,-47.3705"/>
</g>
<!-- Node4 -->
<g id="node3" class="node">
<title>Node4</title>
<g id="a_node3"><a xlink:href="$classTinyVector.html" xlink:title="TinyVector\&lt; int, N \&gt;">
<polygon fill="#ffffff" stroke="#000000" points="1,-135.5 1,-154.5 84,-154.5 84,-135.5 1,-135.5"/>
<text text-anchor="middle" x="42.5" y="-142.5" font-family="Helvetica,sans-Serif" font-size="10.00" fill="#000000">TinyVector&lt; int, N &gt;</text>
</a>
</g>
</g>
<!-- Node4&#45;&gt;Node3 -->
<g id="edge2" class="edge">
<title>Node4&#45;&gt;Node3</title>
<path fill="none" stroke="#9a32cd" stroke-dasharray="5,2" d="M42.5,-125.0177C42.5,-113.2164 42.5,-98.513 42.5,-87.668"/>
<polygon fill="#9a32cd" stroke="#9a32cd" points="39.0001,-125.2223 42.5,-135.2223 46.0001,-125.2224 39.0001,-125.2223"/>
<text text-anchor="middle" x="52" y="-109" font-family="Helvetica,sans-Serif" font-size="10.00" fill="#000000"> pos_</text>
</g>
<!-- Node5 -->
<g id="node4" class="node">
<title>Node5</title>
<g id="a_node4"><a xlink:href="$classETBase.html" xlink:title="ETBase\&lt; TinyVector\l\&lt; int, N_length \&gt; \&gt;">
<polygon fill="#ffffff" stroke="#000000" points="0,-192.5 0,-222.5 85,-222.5 85,-192.5 0,-192.5"/>
<text text-anchor="start" x="8" y="-210.5" font-family="Helvetica,sans-Serif" font-size="10.00" fill="#000000">ETBase&lt; TinyVector</text>
<text text-anchor="middle" x="42.5" y="-199.5" font-family="Helvetica,sans-Serif" font-size="10.00" fill="#000000">&lt; int, N_length &gt; &gt;</text>
</a>
</g>
</g>
<!-- Node5&#45;&gt;Node4 -->
<g id="edge3" class="edge">
<title>Node5&#45;&gt;Node4</title>
<path fill="none" stroke="#191970" d="M42.5,-182.3498C42.5,-172.6481 42.5,-162.1303 42.5,-154.7356"/>
<polygon fill="#191970" stroke="#191970" points="39.0001,-182.3705 42.5,-192.3705 46.0001,-182.3705 39.0001,-182.3705"/>
</g>
</g>
</svg>
