<?xml version="1.0" encoding="UTF-8" standalone="no"?>
<!DOCTYPE svg PUBLIC "-//W3C//DTD SVG 1.1//EN"
 "http://www.w3.org/Graphics/SVG/1.1/DTD/svg11.dtd">
<!-- Generated by graphviz version 2.40.1 (20161225.0304)
 -->
<!-- Title: numeric_limits&lt; float &gt; Pages: 1 -->
<svg width="410pt" height="83pt"
 viewBox="0.00 0.00 410.00 83.00" xmlns="http://www.w3.org/2000/svg" xmlns:xlink="http://www.w3.org/1999/xlink">
<g id="graph0" class="graph" transform="scale(1 1) rotate(0) translate(4 79)">
<title>numeric_limits&lt; float &gt;</title>
<polygon fill="#ffffff" stroke="transparent" points="-4,4 -4,-79 406,-79 406,4 -4,4"/>
<!-- Node3 -->
<g id="node1" class="node">
<title>Node3</title>
<polygon fill="#bfbfbf" stroke="#000000" points="310,-28 310,-47 402,-47 402,-28 310,-28"/>
<text text-anchor="middle" x="356" y="-35" font-family="Helvetica,sans-Serif" font-size="10.00" fill="#000000">numeric_limits&lt; float &gt;</text>
</g>
<!-- Node4 -->
<g id="node2" class="node">
<title>Node4</title>
<g id="a_node2"><a xlink:href="class__Floating__limits.html" target="_top" xlink:title="_Floating_limits\&lt; float,\l FLT_MANT_DIG, FLT_DIG,\l FLT_MIN_EXP, FLT_MAX_EXP,\l FLT_MIN_10_EXP, FLT_MAX\l_10_EXP, 0x7f800000u, 0x7f810000u,\l 0x7fc10000u, true, round_to_nearest \&gt;">
<polygon fill="#ffffff" stroke="#000000" points="126,-.5 126,-74.5 274,-74.5 274,-.5 126,-.5"/>
<text text-anchor="start" x="134" y="-62.5" font-family="Helvetica,sans-Serif" font-size="10.00" fill="#000000">_Floating_limits&lt; float,</text>
<text text-anchor="start" x="134" y="-51.5" font-family="Helvetica,sans-Serif" font-size="10.00" fill="#000000"> FLT_MANT_DIG, FLT_DIG,</text>
<text text-anchor="start" x="134" y="-40.5" font-family="Helvetica,sans-Serif" font-size="10.00" fill="#000000"> FLT_MIN_EXP, FLT_MAX_EXP,</text>
<text text-anchor="start" x="134" y="-29.5" font-family="Helvetica,sans-Serif" font-size="10.00" fill="#000000"> FLT_MIN_10_EXP, FLT_MAX</text>
<text text-anchor="start" x="134" y="-18.5" font-family="Helvetica,sans-Serif" font-size="10.00" fill="#000000">_10_EXP, 0x7f800000u, 0x7f810000u,</text>
<text text-anchor="middle" x="200" y="-7.5" font-family="Helvetica,sans-Serif" font-size="10.00" fill="#000000"> 0x7fc10000u, true, round_to_nearest &gt;</text>
</a>
</g>
</g>
<!-- Node4&#45;&gt;Node3 -->
<g id="edge1" class="edge">
<title>Node4&#45;&gt;Node3</title>
<path fill="none" stroke="#191970" d="M284.5438,-37.5C293.2113,-37.5 301.7703,-37.5 309.7885,-37.5"/>
<polygon fill="#191970" stroke="#191970" points="284.345,-34.0001 274.3449,-37.5 284.3449,-41.0001 284.345,-34.0001"/>
</g>
<!-- Node5 -->
<g id="node3" class="node">
<title>Node5</title>
<g id="a_node3"><a xlink:href="class__Numeric__limits__base.html" target="_top" xlink:title="_Numeric_limits_base\l\&lt; float \&gt;">
<polygon fill="#ffffff" stroke="#000000" points="0,-22.5 0,-52.5 90,-52.5 90,-22.5 0,-22.5"/>
<text text-anchor="start" x="8" y="-40.5" font-family="Helvetica,sans-Serif" font-size="10.00" fill="#000000">_Numeric_limits_base</text>
<text text-anchor="middle" x="45" y="-29.5" font-family="Helvetica,sans-Serif" font-size="10.00" fill="#000000">&lt; float &gt;</text>
</a>
</g>
</g>
<!-- Node5&#45;&gt;Node4 -->
<g id="edge2" class="edge">
<title>Node5&#45;&gt;Node4</title>
<path fill="none" stroke="#191970" d="M100.4533,-37.5C108.6868,-37.5 117.2824,-37.5 125.8241,-37.5"/>
<polygon fill="#191970" stroke="#191970" points="100.2491,-34.0001 90.2491,-37.5 100.2491,-41.0001 100.2491,-34.0001"/>
</g>
</g>
</svg>
