<?xml version="1.0" encoding="UTF-8" standalone="no"?>
<!DOCTYPE svg PUBLIC "-//W3C//DTD SVG 1.1//EN"
 "http://www.w3.org/Graphics/SVG/1.1/DTD/svg11.dtd">
<!-- Generated by graphviz version 2.40.1 (20161225.0304)
 -->
<!-- Title: FastTV2Iterator&lt; P_numtype, N_length &gt; Pages: 1 -->
<svg width="401pt" height="61pt"
 viewBox="0.00 0.00 401.00 61.00" xmlns="http://www.w3.org/2000/svg" xmlns:xlink="http://www.w3.org/1999/xlink">
<g id="graph0" class="graph" transform="scale(1 1) rotate(0) translate(4 57)">
<title>FastTV2Iterator&lt; P_numtype, N_length &gt;</title>
<polygon fill="#ffffff" stroke="transparent" points="-4,4 -4,-57 397,-57 397,4 -4,4"/>
<!-- Node2 -->
<g id="node1" class="node">
<title>Node2</title>
<polygon fill="#bfbfbf" stroke="#000000" points="303,-11.5 303,-41.5 393,-41.5 393,-11.5 303,-11.5"/>
<text text-anchor="start" x="311" y="-29.5" font-family="Helvetica,sans-Serif" font-size="10.00" fill="#000000">FastTV2Iterator&lt; P</text>
<text text-anchor="middle" x="348" y="-18.5" font-family="Helvetica,sans-Serif" font-size="10.00" fill="#000000">_numtype, N_length &gt;</text>
</g>
<!-- Node3 -->
<g id="node2" class="node">
<title>Node3</title>
<g id="a_node2"><a xlink:href="classFastTV2IteratorBase.html" target="_top" xlink:title="FastTV2IteratorBase\l\&lt; P_numtype, N_length,\l const TinyVector\&lt; P_numtype,\l N_length \&gt; &amp;\&gt;">
<polygon fill="#ffffff" stroke="#000000" points="145,-.5 145,-52.5 266,-52.5 266,-.5 145,-.5"/>
<text text-anchor="start" x="153" y="-40.5" font-family="Helvetica,sans-Serif" font-size="10.00" fill="#000000">FastTV2IteratorBase</text>
<text text-anchor="start" x="153" y="-29.5" font-family="Helvetica,sans-Serif" font-size="10.00" fill="#000000">&lt; P_numtype, N_length,</text>
<text text-anchor="start" x="153" y="-18.5" font-family="Helvetica,sans-Serif" font-size="10.00" fill="#000000"> const TinyVector&lt; P_numtype,</text>
<text text-anchor="middle" x="205.5" y="-7.5" font-family="Helvetica,sans-Serif" font-size="10.00" fill="#000000"> N_length &gt; &amp;&gt;</text>
</a>
</g>
</g>
<!-- Node3&#45;&gt;Node2 -->
<g id="edge1" class="edge">
<title>Node3&#45;&gt;Node2</title>
<path fill="none" stroke="#191970" d="M276.4625,-26.5C285.452,-26.5 294.4476,-26.5 302.8769,-26.5"/>
<polygon fill="#191970" stroke="#191970" points="276.3462,-23.0001 266.3462,-26.5 276.3461,-30.0001 276.3462,-23.0001"/>
</g>
<!-- Node4 -->
<g id="node3" class="node">
<title>Node4</title>
<g id="a_node3"><a xlink:href="classConstPointerStack.html" target="_top" xlink:title="ConstPointerStack\&lt;\l T_numtype, rank_ \&gt;">
<polygon fill="#ffffff" stroke="#000000" points="0,-11.5 0,-41.5 85,-41.5 85,-11.5 0,-11.5"/>
<text text-anchor="start" x="8" y="-29.5" font-family="Helvetica,sans-Serif" font-size="10.00" fill="#000000">ConstPointerStack&lt;</text>
<text text-anchor="middle" x="42.5" y="-18.5" font-family="Helvetica,sans-Serif" font-size="10.00" fill="#000000"> T_numtype, rank_ &gt;</text>
</a>
</g>
</g>
<!-- Node4&#45;&gt;Node3 -->
<g id="edge2" class="edge">
<title>Node4&#45;&gt;Node3</title>
<path fill="none" stroke="#9a32cd" stroke-dasharray="5,2" d="M95.4347,-26.5C111.2207,-26.5 128.6436,-26.5 144.8808,-26.5"/>
<polygon fill="#9a32cd" stroke="#9a32cd" points="95.3264,-23.0001 85.3263,-26.5 95.3263,-30.0001 95.3264,-23.0001"/>
<text text-anchor="middle" x="115" y="-29.5" font-family="Helvetica,sans-Serif" font-size="10.00" fill="#000000"> stack_</text>
</g>
</g>
</svg>
