<?xml version="1.0" encoding="UTF-8" standalone="no"?>
<!DOCTYPE svg PUBLIC "-//W3C//DTD SVG 1.1//EN"
 "http://www.w3.org/Graphics/SVG/1.1/DTD/svg11.dtd">
<!-- Generated by graphviz version 2.40.1 (20161225.0304)
 -->
<!-- Title: Array&lt; P_numtype, N_rank &gt; Pages: 1 -->
<svg width="390pt" height="137pt"
 viewBox="0.00 0.00 390.00 137.00" xmlns="http://www.w3.org/2000/svg" xmlns:xlink="http://www.w3.org/1999/xlink">
<g id="graph0" class="graph" transform="scale(1 1) rotate(0) translate(4 133)">
<title>Array&lt; P_numtype, N_rank &gt;</title>
<polygon fill="#ffffff" stroke="transparent" points="-4,4 -4,-133 386,-133 386,4 -4,4"/>
<!-- Node2 -->
<g id="node1" class="node">
<title>Node2</title>
<polygon fill="#bfbfbf" stroke="#000000" points="294,-49.5 294,-79.5 382,-79.5 382,-49.5 294,-49.5"/>
<text text-anchor="start" x="302" y="-67.5" font-family="Helvetica,sans-Serif" font-size="10.00" fill="#000000">Array&lt; P_numtype, N</text>
<text text-anchor="middle" x="338" y="-56.5" font-family="Helvetica,sans-Serif" font-size="10.00" fill="#000000">_rank &gt;</text>
</g>
<!-- Node3 -->
<g id="node2" class="node">
<title>Node3</title>
<g id="a_node2"><a xlink:href="$classMemoryBlockReference.html" xlink:title="MemoryBlockReference\l\&lt; P_numtype \&gt;">
<polygon fill="#ffffff" stroke="#000000" points="134,-98.5 134,-128.5 231,-128.5 231,-98.5 134,-98.5"/>
<text text-anchor="start" x="142" y="-116.5" font-family="Helvetica,sans-Serif" font-size="10.00" fill="#000000">MemoryBlockReference</text>
<text text-anchor="middle" x="182.5" y="-105.5" font-family="Helvetica,sans-Serif" font-size="10.00" fill="#000000">&lt; P_numtype &gt;</text>
</a>
</g>
</g>
<!-- Node3&#45;&gt;Node2 -->
<g id="edge1" class="edge">
<title>Node3&#45;&gt;Node2</title>
<path fill="none" stroke="#191970" d="M240.1266,-95.3411C257.9177,-89.7349 277.2184,-83.6531 293.9411,-78.3835"/>
<polygon fill="#191970" stroke="#191970" points="238.9097,-92.0549 230.424,-98.3986 241.0136,-98.7312 238.9097,-92.0549"/>
</g>
<!-- Node4 -->
<g id="node3" class="node">
<title>Node4</title>
<g id="a_node3"><a xlink:href="$classTinyVector.html" xlink:title="TinyVector\&lt; diffType,\l N_rank \&gt;">
<polygon fill="#ffffff" stroke="#000000" points="138.5,-49.5 138.5,-79.5 226.5,-79.5 226.5,-49.5 138.5,-49.5"/>
<text text-anchor="start" x="146.5" y="-67.5" font-family="Helvetica,sans-Serif" font-size="10.00" fill="#000000">TinyVector&lt; diffType,</text>
<text text-anchor="middle" x="182.5" y="-56.5" font-family="Helvetica,sans-Serif" font-size="10.00" fill="#000000"> N_rank &gt;</text>
</a>
</g>
</g>
<!-- Node4&#45;&gt;Node2 -->
<g id="edge2" class="edge">
<title>Node4&#45;&gt;Node2</title>
<path fill="none" stroke="#9a32cd" stroke-dasharray="5,2" d="M236.7591,-64.5C255.3893,-64.5 276.0056,-64.5 293.7455,-64.5"/>
<polygon fill="#9a32cd" stroke="#9a32cd" points="236.6442,-61.0001 226.6441,-64.5 236.6441,-68.0001 236.6442,-61.0001"/>
<text text-anchor="middle" x="262.5" y="-67.5" font-family="Helvetica,sans-Serif" font-size="10.00" fill="#000000"> stride_</text>
</g>
<!-- Node5 -->
<g id="node4" class="node">
<title>Node5</title>
<g id="a_node4"><a xlink:href="$classETBase.html" xlink:title="ETBase\&lt; TinyVector\l\&lt; diffType, N_length \&gt; \&gt;">
<polygon fill="#ffffff" stroke="#000000" points="0,-49.5 0,-79.5 97,-79.5 97,-49.5 0,-49.5"/>
<text text-anchor="start" x="8" y="-67.5" font-family="Helvetica,sans-Serif" font-size="10.00" fill="#000000">ETBase&lt; TinyVector</text>
<text text-anchor="middle" x="48.5" y="-56.5" font-family="Helvetica,sans-Serif" font-size="10.00" fill="#000000">&lt; diffType, N_length &gt; &gt;</text>
</a>
</g>
</g>
<!-- Node5&#45;&gt;Node4 -->
<g id="edge3" class="edge">
<title>Node5&#45;&gt;Node4</title>
<path fill="none" stroke="#191970" d="M107.5204,-64.5C117.9089,-64.5 128.557,-64.5 138.4465,-64.5"/>
<polygon fill="#191970" stroke="#191970" points="107.2562,-61.0001 97.2561,-64.5 107.2561,-68.0001 107.2562,-61.0001"/>
</g>
<!-- Node6 -->
<g id="node5" class="node">
<title>Node6</title>
<g id="a_node5"><a xlink:href="$classTinyVector.html" xlink:title="TinyVector\&lt; int, N\l_rank \&gt;">
<polygon fill="#ffffff" stroke="#000000" points="144.5,-.5 144.5,-30.5 220.5,-30.5 220.5,-.5 144.5,-.5"/>
<text text-anchor="start" x="152.5" y="-18.5" font-family="Helvetica,sans-Serif" font-size="10.00" fill="#000000">TinyVector&lt; int, N</text>
<text text-anchor="middle" x="182.5" y="-7.5" font-family="Helvetica,sans-Serif" font-size="10.00" fill="#000000">_rank &gt;</text>
</a>
</g>
</g>
<!-- Node6&#45;&gt;Node2 -->
<g id="edge4" class="edge">
<title>Node6&#45;&gt;Node2</title>
<path fill="none" stroke="#9a32cd" stroke-dasharray="5,2" d="M230.1887,-30.5273C250.4311,-36.9059 273.8868,-44.2971 293.7406,-50.5533"/>
<polygon fill="#9a32cd" stroke="#9a32cd" points="231.1292,-27.1541 220.5396,-27.4867 229.0253,-33.8304 231.1292,-27.1541"/>
<text text-anchor="middle" x="262.5" y="-46.5" font-family="Helvetica,sans-Serif" font-size="10.00" fill="#000000"> length_</text>
</g>
<!-- Node7 -->
<g id="node6" class="node">
<title>Node7</title>
<g id="a_node6"><a xlink:href="$classETBase.html" xlink:title="ETBase\&lt; TinyVector\l\&lt; int, N_length \&gt; \&gt;">
<polygon fill="#ffffff" stroke="#000000" points="6,-.5 6,-30.5 91,-30.5 91,-.5 6,-.5"/>
<text text-anchor="start" x="14" y="-18.5" font-family="Helvetica,sans-Serif" font-size="10.00" fill="#000000">ETBase&lt; TinyVector</text>
<text text-anchor="middle" x="48.5" y="-7.5" font-family="Helvetica,sans-Serif" font-size="10.00" fill="#000000">&lt; int, N_length &gt; &gt;</text>
</a>
</g>
</g>
<!-- Node7&#45;&gt;Node6 -->
<g id="edge5" class="edge">
<title>Node7&#45;&gt;Node6</title>
<path fill="none" stroke="#191970" d="M101.4661,-15.5C115.7431,-15.5 130.9103,-15.5 144.2145,-15.5"/>
<polygon fill="#191970" stroke="#191970" points="101.2669,-12.0001 91.2669,-15.5 101.2668,-19.0001 101.2669,-12.0001"/>
</g>
</g>
</svg>
