<?xml version="1.0" encoding="UTF-8" standalone="no"?>
<!DOCTYPE svg PUBLIC "-//W3C//DTD SVG 1.1//EN"
 "http://www.w3.org/Graphics/SVG/1.1/DTD/svg11.dtd">
<!-- Generated by graphviz version 2.38.0 (20140413.2041)
 -->
<!-- Title: igloo::ContextRunner&lt; ContextRegistryType, ContextType &gt; Pages: 1 -->
<svg width="139pt" height="106pt"
 viewBox="0.00 0.00 139.00 106.00" xmlns="http://www.w3.org/2000/svg" xmlns:xlink="http://www.w3.org/1999/xlink">
<g id="graph0" class="graph" transform="scale(1 1) rotate(0) translate(4 102)">
<title>igloo::ContextRunner&lt; ContextRegistryType, ContextType &gt;</title>
<polygon fill="white" stroke="none" points="-4,4 -4,-102 135,-102 135,4 -4,4"/>
<!-- Node1 -->
<g id="node1" class="node"><title>Node1</title>
<polygon fill="#bfbfbf" stroke="black" points="4.5,-0.5 4.5,-41.5 126.5,-41.5 126.5,-0.5 4.5,-0.5"/>
<text text-anchor="start" x="12.5" y="-29.5" font-family="Helvetica,sans-Serif" font-size="10.00">igloo::ContextRunner</text>
<text text-anchor="start" x="12.5" y="-18.5" font-family="Helvetica,sans-Serif" font-size="10.00">&lt; ContextRegistryType,</text>
<text text-anchor="middle" x="65.5" y="-7.5" font-family="Helvetica,sans-Serif" font-size="10.00"> ContextType &gt;</text>
</g>
<!-- Node2 -->
<g id="node2" class="node"><title>Node2</title>
<g id="a_node2"><a xlink:href="structigloo_1_1BaseContextRunner.html" target="_top" xlink:title="igloo::BaseContextRunner">
<polygon fill="white" stroke="black" points="0,-78.5 0,-97.5 131,-97.5 131,-78.5 0,-78.5"/>
<text text-anchor="middle" x="65.5" y="-85.5" font-family="Helvetica,sans-Serif" font-size="10.00">igloo::BaseContextRunner</text>
</a>
</g>
</g>
<!-- Node2&#45;&gt;Node1 -->
<g id="edge1" class="edge"><title>Node2&#45;&gt;Node1</title>
<path fill="none" stroke="midnightblue" d="M65.5,-68.037C65.5,-59.7084 65.5,-49.9358 65.5,-41.5421"/>
<polygon fill="midnightblue" stroke="midnightblue" points="62.0001,-68.2338 65.5,-78.2338 69.0001,-68.2338 62.0001,-68.2338"/>
</g>
</g>
</svg>
