<?xml version="1.0" encoding="UTF-8" standalone="no"?>
<!DOCTYPE svg PUBLIC "-//W3C//DTD SVG 1.1//EN"
 "http://www.w3.org/Graphics/SVG/1.1/DTD/svg11.dtd">
<!-- Generated by graphviz version 2.40.1 (20161225.0304)
 -->
<!-- Title: FastArrayIterator&lt; P_numtype, N_rank &gt; Pages: 1 -->
<svg width="111pt" height="196pt"
 viewBox="0.00 0.00 111.00 196.00" xmlns="http://www.w3.org/2000/svg" xmlns:xlink="http://www.w3.org/1999/xlink">
<g id="graph0" class="graph" transform="scale(1 1) rotate(0) translate(4 192)">
<title>FastArrayIterator&lt; P_numtype, N_rank &gt;</title>
<polygon fill="#ffffff" stroke="transparent" points="-4,4 -4,-192 107,-192 107,4 -4,4"/>
<!-- Node2 -->
<g id="node1" class="node">
<title>Node2</title>
<polygon fill="#bfbfbf" stroke="#000000" points="6,-.5 6,-30.5 97,-30.5 97,-.5 6,-.5"/>
<text text-anchor="start" x="14" y="-18.5" font-family="Helvetica,sans-Serif" font-size="10.00" fill="#000000">FastArrayIterator&lt;</text>
<text text-anchor="middle" x="51.5" y="-7.5" font-family="Helvetica,sans-Serif" font-size="10.00" fill="#000000"> P_numtype, N_rank &gt;</text>
</g>
<!-- Node3 -->
<g id="node2" class="node">
<title>Node3</title>
<g id="a_node2"><a xlink:href="classFastArrayIteratorBase.html" target="_top" xlink:title="FastArrayIteratorBase\l\&lt; P_numtype, N_rank,\l const Array\&lt; P_numtype,\l N_rank \&gt; &amp;\&gt;">
<polygon fill="#ffffff" stroke="#000000" points="0,-68.5 0,-120.5 103,-120.5 103,-68.5 0,-68.5"/>
<text text-anchor="start" x="8" y="-108.5" font-family="Helvetica,sans-Serif" font-size="10.00" fill="#000000">FastArrayIteratorBase</text>
<text text-anchor="start" x="8" y="-97.5" font-family="Helvetica,sans-Serif" font-size="10.00" fill="#000000">&lt; P_numtype, N_rank,</text>
<text text-anchor="start" x="8" y="-86.5" font-family="Helvetica,sans-Serif" font-size="10.00" fill="#000000"> const Array&lt; P_numtype,</text>
<text text-anchor="middle" x="51.5" y="-75.5" font-family="Helvetica,sans-Serif" font-size="10.00" fill="#000000"> N_rank &gt; &amp;&gt;</text>
</a>
</g>
</g>
<!-- Node3&#45;&gt;Node2 -->
<g id="edge1" class="edge">
<title>Node3&#45;&gt;Node2</title>
<path fill="none" stroke="#191970" d="M51.5,-58.0152C51.5,-48.4501 51.5,-38.648 51.5,-30.8696"/>
<polygon fill="#191970" stroke="#191970" points="48.0001,-58.1941 51.5,-68.1941 55.0001,-58.1942 48.0001,-58.1941"/>
</g>
<!-- Node4 -->
<g id="node3" class="node">
<title>Node4</title>
<polygon fill="#ffffff" stroke="#bfbfbf" points="24.5,-168.5 24.5,-187.5 78.5,-187.5 78.5,-168.5 24.5,-168.5"/>
<text text-anchor="middle" x="51.5" y="-175.5" font-family="Helvetica,sans-Serif" font-size="10.00" fill="#000000">P_numtype</text>
</g>
<!-- Node4&#45;&gt;Node3 -->
<g id="edge2" class="edge">
<title>Node4&#45;&gt;Node3</title>
<path fill="none" stroke="#9a32cd" stroke-dasharray="5,2" d="M51.5,-158.3677C51.5,-147.1228 51.5,-132.8683 51.5,-120.6801"/>
<polygon fill="#9a32cd" stroke="#9a32cd" points="48.0001,-158.4215 51.5,-168.4215 55.0001,-158.4215 48.0001,-158.4215"/>
<text text-anchor="middle" x="62" y="-142" font-family="Helvetica,sans-Serif" font-size="10.00" fill="#000000"> data_</text>
</g>
</g>
</svg>
