<?xml version="1.0" encoding="UTF-8" standalone="no"?>
<!DOCTYPE svg PUBLIC "-//W3C//DTD SVG 1.1//EN"
 "http://www.w3.org/Graphics/SVG/1.1/DTD/svg11.dtd">
<!-- Generated by graphviz version 2.40.1 (20161225.0304)
 -->
<!-- Title: Vector&lt; P_numtype &gt; Pages: 1 -->
<svg width="105pt" height="151pt"
 viewBox="0.00 0.00 105.00 151.00" xmlns="http://www.w3.org/2000/svg" xmlns:xlink="http://www.w3.org/1999/xlink">
<g id="graph0" class="graph" transform="scale(1 1) rotate(0) translate(4 147)">
<title>Vector&lt; P_numtype &gt;</title>
<polygon fill="#ffffff" stroke="transparent" points="-4,4 -4,-147 101,-147 101,4 -4,4"/>
<!-- Node0 -->
<g id="node1" class="node">
<title>Node0</title>
<polygon fill="#bfbfbf" stroke="#000000" points="4,-.5 4,-19.5 93,-19.5 93,-.5 4,-.5"/>
<text text-anchor="middle" x="48.5" y="-7.5" font-family="Helvetica,sans-Serif" font-size="10.00" fill="#000000">Vector&lt; P_numtype &gt;</text>
</g>
<!-- Node1 -->
<g id="node2" class="node">
<title>Node1</title>
<g id="a_node2"><a xlink:href="classArray.html" target="_top" xlink:title="Array\&lt; P_numtype, 1 \&gt;">
<polygon fill="#ffffff" stroke="#000000" points="1.5,-56.5 1.5,-75.5 95.5,-75.5 95.5,-56.5 1.5,-56.5"/>
<text text-anchor="middle" x="48.5" y="-63.5" font-family="Helvetica,sans-Serif" font-size="10.00" fill="#000000">Array&lt; P_numtype, 1 &gt;</text>
</a>
</g>
</g>
<!-- Node1&#45;&gt;Node0 -->
<g id="edge1" class="edge">
<title>Node1&#45;&gt;Node0</title>
<path fill="none" stroke="#191970" d="M48.5,-46.1575C48.5,-37.155 48.5,-26.9199 48.5,-19.6427"/>
<polygon fill="#191970" stroke="#191970" points="45.0001,-46.2455 48.5,-56.2455 52.0001,-46.2456 45.0001,-46.2455"/>
</g>
<!-- Node2 -->
<g id="node3" class="node">
<title>Node2</title>
<g id="a_node3"><a xlink:href="classMemoryBlockReference.html" target="_top" xlink:title="MemoryBlockReference\l\&lt; P_numtype \&gt;">
<polygon fill="#ffffff" stroke="#000000" points="0,-112.5 0,-142.5 97,-142.5 97,-112.5 0,-112.5"/>
<text text-anchor="start" x="8" y="-130.5" font-family="Helvetica,sans-Serif" font-size="10.00" fill="#000000">MemoryBlockReference</text>
<text text-anchor="middle" x="48.5" y="-119.5" font-family="Helvetica,sans-Serif" font-size="10.00" fill="#000000">&lt; P_numtype &gt;</text>
</a>
</g>
</g>
<!-- Node2&#45;&gt;Node1 -->
<g id="edge2" class="edge">
<title>Node2&#45;&gt;Node1</title>
<path fill="none" stroke="#191970" d="M48.5,-102.2849C48.5,-92.9858 48.5,-82.9883 48.5,-75.8469"/>
<polygon fill="#191970" stroke="#191970" points="45.0001,-102.2977 48.5,-112.2977 52.0001,-102.2978 45.0001,-102.2977"/>
</g>
</g>
</svg>
