<?xml version="1.0" encoding="UTF-8" standalone="no"?>
<!DOCTYPE svg PUBLIC "-//W3C//DTD SVG 1.1//EN"
 "http://www.w3.org/Graphics/SVG/1.1/DTD/svg11.dtd">
<!-- Generated by graphviz version 2.40.1 (20161225.0304)
 -->
<!-- Title: operand2 Pages: 1 -->
<svg width="345pt" height="84pt"
 viewBox="0.00 0.00 345.00 84.00" xmlns="http://www.w3.org/2000/svg" xmlns:xlink="http://www.w3.org/1999/xlink">
<g id="graph0" class="graph" transform="scale(1 1) rotate(0) translate(4 80)">
<title>operand2</title>
<polygon fill="#ffffff" stroke="transparent" points="-4,4 -4,-80 341,-80 341,4 -4,4"/>
<!-- Node0 -->
<g id="node1" class="node">
<title>Node0</title>
<polygon fill="#bfbfbf" stroke="#000000" points="152.5,-56.5 152.5,-75.5 200.5,-75.5 200.5,-56.5 152.5,-56.5"/>
<text text-anchor="middle" x="176.5" y="-63.5" font-family="Helvetica,sans-Serif" font-size="10.00" fill="#000000">operand2</text>
</g>
<!-- Node1 -->
<g id="node2" class="node">
<title>Node1</title>
<g id="a_node2"><a xlink:href="classComplexOperand2.html" target="_top" xlink:title="ComplexOperand2">
<polygon fill="#ffffff" stroke="#000000" points="0,-.5 0,-19.5 79,-19.5 79,-.5 0,-.5"/>
<text text-anchor="middle" x="39.5" y="-7.5" font-family="Helvetica,sans-Serif" font-size="10.00" fill="#000000">ComplexOperand2</text>
</a>
</g>
</g>
<!-- Node0&#45;&gt;Node1 -->
<g id="edge1" class="edge">
<title>Node0&#45;&gt;Node1</title>
<path fill="none" stroke="#191970" d="M143.5194,-52.5189C118.5689,-42.3201 84.9266,-28.5685 62.7438,-19.5011"/>
<polygon fill="#191970" stroke="#191970" points="142.368,-55.8293 152.9489,-56.3733 145.0166,-49.3497 142.368,-55.8293"/>
</g>
<!-- Node2 -->
<g id="node3" class="node">
<title>Node2</title>
<g id="a_node3"><a xlink:href="classMatExprOperand.html" target="_top" xlink:title="MatExprOperand">
<polygon fill="#ffffff" stroke="#000000" points="97.5,-.5 97.5,-19.5 171.5,-19.5 171.5,-.5 97.5,-.5"/>
<text text-anchor="middle" x="134.5" y="-7.5" font-family="Helvetica,sans-Serif" font-size="10.00" fill="#000000">MatExprOperand</text>
</a>
</g>
</g>
<!-- Node0&#45;&gt;Node2 -->
<g id="edge2" class="edge">
<title>Node0&#45;&gt;Node2</title>
<path fill="none" stroke="#191970" d="M163.1584,-48.2112C156.0604,-38.7472 147.6097,-27.4797 141.732,-19.6427"/>
<polygon fill="#191970" stroke="#191970" points="160.3841,-50.3455 169.1842,-56.2455 165.9841,-46.1455 160.3841,-50.3455"/>
</g>
<!-- Node3 -->
<g id="node4" class="node">
<title>Node3</title>
<g id="a_node4"><a xlink:href="classMatOperand.html" target="_top" xlink:title="MatOperand">
<polygon fill="#ffffff" stroke="#000000" points="189.5,-.5 189.5,-19.5 247.5,-19.5 247.5,-.5 189.5,-.5"/>
<text text-anchor="middle" x="218.5" y="-7.5" font-family="Helvetica,sans-Serif" font-size="10.00" fill="#000000">MatOperand</text>
</a>
</g>
</g>
<!-- Node0&#45;&gt;Node3 -->
<g id="edge3" class="edge">
<title>Node0&#45;&gt;Node3</title>
<path fill="none" stroke="#191970" d="M189.8416,-48.2112C196.9396,-38.7472 205.3903,-27.4797 211.268,-19.6427"/>
<polygon fill="#191970" stroke="#191970" points="187.0159,-46.1455 183.8158,-56.2455 192.6159,-50.3455 187.0159,-46.1455"/>
</g>
<!-- Node4 -->
<g id="node5" class="node">
<title>Node4</title>
<g id="a_node5"><a xlink:href="classScalarOperand2.html" target="_top" xlink:title="ScalarOperand2">
<polygon fill="#ffffff" stroke="#000000" points="266,-.5 266,-19.5 337,-19.5 337,-.5 266,-.5"/>
<text text-anchor="middle" x="301.5" y="-7.5" font-family="Helvetica,sans-Serif" font-size="10.00" fill="#000000">ScalarOperand2</text>
</a>
</g>
</g>
<!-- Node0&#45;&gt;Node4 -->
<g id="edge4" class="edge">
<title>Node0&#45;&gt;Node4</title>
<path fill="none" stroke="#191970" d="M207.198,-52.2473C229.8993,-42.0771 260.2315,-28.4883 280.2921,-19.5011"/>
<polygon fill="#191970" stroke="#191970" points="205.6833,-49.0906 197.9883,-56.3733 208.5453,-55.4789 205.6833,-49.0906"/>
</g>
</g>
</svg>
