<?xml version="1.0" encoding="UTF-8" standalone="no"?>
<!DOCTYPE svg PUBLIC "-//W3C//DTD SVG 1.1//EN"
 "http://www.w3.org/Graphics/SVG/1.1/DTD/svg11.dtd">
<!-- Generated by graphviz version 2.40.1 (20161225.0304)
 -->
<!-- Title: FastArrayIteratorBase&lt; P_numtype, N_rank, P_arraytype &gt; Pages: 1 -->
<svg width="138pt" height="117pt"
 viewBox="0.00 0.00 137.50 117.00" xmlns="http://www.w3.org/2000/svg" xmlns:xlink="http://www.w3.org/1999/xlink">
<g id="graph0" class="graph" transform="scale(1 1) rotate(0) translate(4 113)">
<title>FastArrayIteratorBase&lt; P_numtype, N_rank, P_arraytype &gt;</title>
<polygon fill="#ffffff" stroke="transparent" points="-4,4 -4,-113 133.5,-113 133.5,4 -4,4"/>
<!-- Node1 -->
<g id="node1" class="node">
<title>Node1</title>
<polygon fill="#bfbfbf" stroke="#000000" points="20,-.5 20,-41.5 111,-41.5 111,-.5 20,-.5"/>
<text text-anchor="start" x="28" y="-29.5" font-family="Helvetica,sans-Serif" font-size="10.00" fill="#000000">FastArrayIteratorBase</text>
<text text-anchor="start" x="28" y="-18.5" font-family="Helvetica,sans-Serif" font-size="10.00" fill="#000000">&lt; P_numtype, N_rank,</text>
<text text-anchor="middle" x="65.5" y="-7.5" font-family="Helvetica,sans-Serif" font-size="10.00" fill="#000000"> P_arraytype &gt;</text>
</g>
<!-- Node2 -->
<g id="node2" class="node">
<title>Node2</title>
<polygon fill="#ffffff" stroke="#bfbfbf" points="0,-89.5 0,-108.5 57,-108.5 57,-89.5 0,-89.5"/>
<text text-anchor="middle" x="28.5" y="-96.5" font-family="Helvetica,sans-Serif" font-size="10.00" fill="#000000">P_arraytype</text>
</g>
<!-- Node2&#45;&gt;Node1 -->
<g id="edge1" class="edge">
<title>Node2&#45;&gt;Node1</title>
<path fill="none" stroke="#9a32cd" stroke-dasharray="5,2" d="M37.3935,-80.2515C42.8955,-68.6528 49.9663,-53.7467 55.6394,-41.7873"/>
<polygon fill="#9a32cd" stroke="#9a32cd" points="34.1606,-78.9006 33.0369,-89.4357 40.4851,-81.9007 34.1606,-78.9006"/>
<text text-anchor="middle" x="59.5" y="-63" font-family="Helvetica,sans-Serif" font-size="10.00" fill="#000000"> array_</text>
</g>
<!-- Node3 -->
<g id="node3" class="node">
<title>Node3</title>
<polygon fill="#ffffff" stroke="#bfbfbf" points="75.5,-89.5 75.5,-108.5 129.5,-108.5 129.5,-89.5 75.5,-89.5"/>
<text text-anchor="middle" x="102.5" y="-96.5" font-family="Helvetica,sans-Serif" font-size="10.00" fill="#000000">P_numtype</text>
</g>
<!-- Node3&#45;&gt;Node1 -->
<g id="edge2" class="edge">
<title>Node3&#45;&gt;Node1</title>
<path fill="none" stroke="#9a32cd" stroke-dasharray="5,2" d="M93.6065,-80.2515C88.1045,-68.6528 81.0337,-53.7467 75.3606,-41.7873"/>
<polygon fill="#9a32cd" stroke="#9a32cd" points="90.5149,-81.9007 97.9631,-89.4357 96.8394,-78.9006 90.5149,-81.9007"/>
<text text-anchor="middle" x="98" y="-63" font-family="Helvetica,sans-Serif" font-size="10.00" fill="#000000"> data_</text>
</g>
</g>
</svg>
