<?xml version="1.0" encoding="UTF-8" standalone="no"?>
<!DOCTYPE svg PUBLIC "-//W3C//DTD SVG 1.1//EN"
 "http://www.w3.org/Graphics/SVG/1.1/DTD/svg11.dtd">
<!-- Generated by graphviz version 2.40.1 (20161225.0304)
 -->
<!-- Title: GeneralArrayStorage&lt; N_rank &gt; Pages: 1 -->
<svg width="196pt" height="196pt"
 viewBox="0.00 0.00 196.00 196.00" xmlns="http://www.w3.org/2000/svg" xmlns:xlink="http://www.w3.org/1999/xlink">
<g id="graph0" class="graph" transform="scale(1 1) rotate(0) translate(4 192)">
<title>GeneralArrayStorage&lt; N_rank &gt;</title>
<polygon fill="#ffffff" stroke="transparent" points="-4,4 -4,-192 192,-192 192,4 -4,4"/>
<!-- Node3 -->
<g id="node1" class="node">
<title>Node3</title>
<polygon fill="#bfbfbf" stroke="#000000" points="49,-.5 49,-30.5 136,-30.5 136,-.5 49,-.5"/>
<text text-anchor="start" x="57" y="-18.5" font-family="Helvetica,sans-Serif" font-size="10.00" fill="#000000">GeneralArrayStorage</text>
<text text-anchor="middle" x="92.5" y="-7.5" font-family="Helvetica,sans-Serif" font-size="10.00" fill="#000000">&lt; N_rank &gt;</text>
</g>
<!-- Node4 -->
<g id="node2" class="node">
<title>Node4</title>
<g id="a_node2"><a xlink:href="classTinyVector.html" target="_top" xlink:title="TinyVector\&lt; bool, N\l_rank \&gt;">
<polygon fill="#ffffff" stroke="#000000" points="3,-89.5 3,-119.5 86,-119.5 86,-89.5 3,-89.5"/>
<text text-anchor="start" x="11" y="-107.5" font-family="Helvetica,sans-Serif" font-size="10.00" fill="#000000">TinyVector&lt; bool, N</text>
<text text-anchor="middle" x="44.5" y="-96.5" font-family="Helvetica,sans-Serif" font-size="10.00" fill="#000000">_rank &gt;</text>
</a>
</g>
</g>
<!-- Node4&#45;&gt;Node3 -->
<g id="edge1" class="edge">
<title>Node4&#45;&gt;Node3</title>
<path fill="none" stroke="#9a32cd" stroke-dasharray="5,2" d="M49.1047,-79.0887C51.5675,-69.2631 55.2162,-58.1943 60.5,-49 64.3472,-42.3054 69.809,-35.9209 75.1334,-30.5552"/>
<polygon fill="#9a32cd" stroke="#9a32cd" points="45.6293,-78.594 46.8764,-89.1152 52.4626,-80.1127 45.6293,-78.594"/>
<text text-anchor="middle" x="88.5" y="-57.5" font-family="Helvetica,sans-Serif" font-size="10.00" fill="#000000"> ascendingFlag_</text>
</g>
<!-- Node5 -->
<g id="node3" class="node">
<title>Node5</title>
<g id="a_node3"><a xlink:href="classETBase.html" target="_top" xlink:title="ETBase\&lt; TinyVector\l\&lt; bool, N_length \&gt; \&gt;">
<polygon fill="#ffffff" stroke="#000000" points="0,-157.5 0,-187.5 85,-187.5 85,-157.5 0,-157.5"/>
<text text-anchor="start" x="8" y="-175.5" font-family="Helvetica,sans-Serif" font-size="10.00" fill="#000000">ETBase&lt; TinyVector</text>
<text text-anchor="middle" x="42.5" y="-164.5" font-family="Helvetica,sans-Serif" font-size="10.00" fill="#000000">&lt; bool, N_length &gt; &gt;</text>
</a>
</g>
</g>
<!-- Node5&#45;&gt;Node4 -->
<g id="edge2" class="edge">
<title>Node5&#45;&gt;Node4</title>
<path fill="none" stroke="#191970" d="M43.2465,-147.1174C43.5195,-137.8378 43.8194,-127.6413 44.0574,-119.5492"/>
<polygon fill="#191970" stroke="#191970" points="39.7395,-147.31 42.9439,-157.4086 46.7364,-147.5158 39.7395,-147.31"/>
</g>
<!-- Node6 -->
<g id="node4" class="node">
<title>Node6</title>
<g id="a_node4"><a xlink:href="classTinyVector.html" target="_top" xlink:title="TinyVector\&lt; int, N\l_rank \&gt;">
<polygon fill="#ffffff" stroke="#000000" points="106.5,-89.5 106.5,-119.5 182.5,-119.5 182.5,-89.5 106.5,-89.5"/>
<text text-anchor="start" x="114.5" y="-107.5" font-family="Helvetica,sans-Serif" font-size="10.00" fill="#000000">TinyVector&lt; int, N</text>
<text text-anchor="middle" x="144.5" y="-96.5" font-family="Helvetica,sans-Serif" font-size="10.00" fill="#000000">_rank &gt;</text>
</a>
</g>
</g>
<!-- Node6&#45;&gt;Node3 -->
<g id="edge3" class="edge">
<title>Node6&#45;&gt;Node3</title>
<path fill="none" stroke="#9a32cd" stroke-dasharray="5,2" d="M133.0966,-79.8831C128.299,-70.0886 122.4532,-58.8318 116.5,-49 112.7202,-42.7576 108.1424,-36.1714 104.0025,-30.5063"/>
<polygon fill="#9a32cd" stroke="#9a32cd" points="130.029,-81.5808 137.5098,-89.0833 136.3404,-78.5532 130.029,-81.5808"/>
<text text-anchor="middle" x="144.5" y="-63" font-family="Helvetica,sans-Serif" font-size="10.00" fill="#000000"> base_</text>
<text text-anchor="middle" x="144.5" y="-52" font-family="Helvetica,sans-Serif" font-size="10.00" fill="#000000">ordering_</text>
</g>
<!-- Node7 -->
<g id="node5" class="node">
<title>Node7</title>
<g id="a_node5"><a xlink:href="classETBase.html" target="_top" xlink:title="ETBase\&lt; TinyVector\l\&lt; int, N_length \&gt; \&gt;">
<polygon fill="#ffffff" stroke="#000000" points="103,-157.5 103,-187.5 188,-187.5 188,-157.5 103,-157.5"/>
<text text-anchor="start" x="111" y="-175.5" font-family="Helvetica,sans-Serif" font-size="10.00" fill="#000000">ETBase&lt; TinyVector</text>
<text text-anchor="middle" x="145.5" y="-164.5" font-family="Helvetica,sans-Serif" font-size="10.00" fill="#000000">&lt; int, N_length &gt; &gt;</text>
</a>
</g>
</g>
<!-- Node7&#45;&gt;Node6 -->
<g id="edge4" class="edge">
<title>Node7&#45;&gt;Node6</title>
<path fill="none" stroke="#191970" d="M145.1267,-147.1174C144.9903,-137.8378 144.8403,-127.6413 144.7213,-119.5492"/>
<polygon fill="#191970" stroke="#191970" points="141.6313,-147.4612 145.2781,-157.4086 148.6306,-147.3582 141.6313,-147.4612"/>
</g>
</g>
</svg>
