<?xml version="1.0" encoding="UTF-8" standalone="no"?>
<!DOCTYPE svg PUBLIC "-//W3C//DTD SVG 1.1//EN"
 "http://www.w3.org/Graphics/SVG/1.1/DTD/svg11.dtd">
<!-- Generated by graphviz version 2.40.1 (20161225.0304)
 -->
<!-- Title: central44_et&lt; P_expr &gt; Pages: 1 -->
<svg width="102pt" height="174pt"
 viewBox="0.00 0.00 102.00 174.00" xmlns="http://www.w3.org/2000/svg" xmlns:xlink="http://www.w3.org/1999/xlink">
<g id="graph0" class="graph" transform="scale(1 1) rotate(0) translate(4 170)">
<title>central44_et&lt; P_expr &gt;</title>
<polygon fill="#ffffff" stroke="transparent" points="-4,4 -4,-170 98,-170 98,4 -4,4"/>
<!-- Node2 -->
<g id="node1" class="node">
<title>Node2</title>
<polygon fill="#bfbfbf" stroke="#000000" points="0,-.5 0,-19.5 94,-19.5 94,-.5 0,-.5"/>
<text text-anchor="middle" x="47" y="-7.5" font-family="Helvetica,sans-Serif" font-size="10.00" fill="#000000">central44_et&lt; P_expr &gt;</text>
</g>
<!-- Node3 -->
<g id="node2" class="node">
<title>Node3</title>
<g id="a_node2"><a xlink:href="class__bz__StencilExpr.html" target="_top" xlink:title="_bz_StencilExpr\&lt; P\l_expr, _bz_P_expr::T\l_numtype \&gt;">
<polygon fill="#ffffff" stroke="#000000" points="3,-57.5 3,-98.5 91,-98.5 91,-57.5 3,-57.5"/>
<text text-anchor="start" x="11" y="-86.5" font-family="Helvetica,sans-Serif" font-size="10.00" fill="#000000">_bz_StencilExpr&lt; P</text>
<text text-anchor="start" x="11" y="-75.5" font-family="Helvetica,sans-Serif" font-size="10.00" fill="#000000">_expr, _bz_P_expr::T</text>
<text text-anchor="middle" x="47" y="-64.5" font-family="Helvetica,sans-Serif" font-size="10.00" fill="#000000">_numtype &gt;</text>
</a>
</g>
</g>
<!-- Node3&#45;&gt;Node2 -->
<g id="edge1" class="edge">
<title>Node3&#45;&gt;Node2</title>
<path fill="none" stroke="#191970" d="M47,-47.1423C47,-37.1999 47,-26.896 47,-19.6705"/>
<polygon fill="#191970" stroke="#191970" points="43.5001,-47.2282 47,-57.2283 50.5001,-47.2283 43.5001,-47.2282"/>
</g>
<!-- Node4 -->
<g id="node3" class="node">
<title>Node4</title>
<polygon fill="#ffffff" stroke="#bfbfbf" points="27,-146.5 27,-165.5 67,-165.5 67,-146.5 27,-146.5"/>
<text text-anchor="middle" x="47" y="-153.5" font-family="Helvetica,sans-Serif" font-size="10.00" fill="#000000">P_expr</text>
</g>
<!-- Node4&#45;&gt;Node3 -->
<g id="edge2" class="edge">
<title>Node4&#45;&gt;Node3</title>
<path fill="none" stroke="#9a32cd" stroke-dasharray="5,2" d="M47,-136.1881C47,-124.7521 47,-110.3843 47,-98.7873"/>
<polygon fill="#9a32cd" stroke="#9a32cd" points="43.5001,-136.4356 47,-146.4357 50.5001,-136.4357 43.5001,-136.4356"/>
<text text-anchor="middle" x="55.5" y="-120" font-family="Helvetica,sans-Serif" font-size="10.00" fill="#000000"> iter_</text>
</g>
</g>
</svg>
