<?xml version="1.0" encoding="UTF-8" standalone="no"?>
<!DOCTYPE svg PUBLIC "-//W3C//DTD SVG 1.1//EN"
 "http://www.w3.org/Graphics/SVG/1.1/DTD/svg11.dtd">
<!-- Generated by graphviz version 2.40.1 (20161225.0304)
 -->
<!-- Title: Laplacian3D_et&lt; P_expr, P_numtype &gt; Pages: 1 -->
<svg width="109pt" height="174pt"
 viewBox="0.00 0.00 109.00 174.00" xmlns="http://www.w3.org/2000/svg" xmlns:xlink="http://www.w3.org/1999/xlink">
<g id="graph0" class="graph" transform="scale(1 1) rotate(0) translate(4 170)">
<title>Laplacian3D_et&lt; P_expr, P_numtype &gt;</title>
<polygon fill="#ffffff" stroke="transparent" points="-4,4 -4,-170 105,-170 105,4 -4,4"/>
<!-- Node2 -->
<g id="node1" class="node">
<title>Node2</title>
<polygon fill="#bfbfbf" stroke="#000000" points="0,-.5 0,-30.5 101,-30.5 101,-.5 0,-.5"/>
<text text-anchor="start" x="8" y="-18.5" font-family="Helvetica,sans-Serif" font-size="10.00" fill="#000000">Laplacian3D_et&lt; P_expr,</text>
<text text-anchor="middle" x="50.5" y="-7.5" font-family="Helvetica,sans-Serif" font-size="10.00" fill="#000000"> P_numtype &gt;</text>
</g>
<!-- Node3 -->
<g id="node2" class="node">
<title>Node3</title>
<g id="a_node2"><a xlink:href="class__bz__StencilExpr.html" target="_top" xlink:title="_bz_StencilExpr\&lt; P\l_expr, P_numtype \&gt;">
<polygon fill="#ffffff" stroke="#000000" points="8.5,-68.5 8.5,-98.5 92.5,-98.5 92.5,-68.5 8.5,-68.5"/>
<text text-anchor="start" x="16.5" y="-86.5" font-family="Helvetica,sans-Serif" font-size="10.00" fill="#000000">_bz_StencilExpr&lt; P</text>
<text text-anchor="middle" x="50.5" y="-75.5" font-family="Helvetica,sans-Serif" font-size="10.00" fill="#000000">_expr, P_numtype &gt;</text>
</a>
</g>
</g>
<!-- Node3&#45;&gt;Node2 -->
<g id="edge1" class="edge">
<title>Node3&#45;&gt;Node2</title>
<path fill="none" stroke="#191970" d="M50.5,-58.1174C50.5,-48.8378 50.5,-38.6413 50.5,-30.5492"/>
<polygon fill="#191970" stroke="#191970" points="47.0001,-58.4086 50.5,-68.4086 54.0001,-58.4086 47.0001,-58.4086"/>
</g>
<!-- Node4 -->
<g id="node3" class="node">
<title>Node4</title>
<polygon fill="#ffffff" stroke="#bfbfbf" points="30.5,-146.5 30.5,-165.5 70.5,-165.5 70.5,-146.5 30.5,-146.5"/>
<text text-anchor="middle" x="50.5" y="-153.5" font-family="Helvetica,sans-Serif" font-size="10.00" fill="#000000">P_expr</text>
</g>
<!-- Node4&#45;&gt;Node3 -->
<g id="edge2" class="edge">
<title>Node4&#45;&gt;Node3</title>
<path fill="none" stroke="#9a32cd" stroke-dasharray="5,2" d="M50.5,-136.0177C50.5,-124.2164 50.5,-109.513 50.5,-98.668"/>
<polygon fill="#9a32cd" stroke="#9a32cd" points="47.0001,-136.2223 50.5,-146.2223 54.0001,-136.2224 47.0001,-136.2223"/>
<text text-anchor="middle" x="59" y="-120" font-family="Helvetica,sans-Serif" font-size="10.00" fill="#000000"> iter_</text>
</g>
</g>
</svg>
