<?xml version="1.0" encoding="UTF-8" standalone="no"?>
<!DOCTYPE svg PUBLIC "-//W3C//DTD SVG 1.1//EN"
 "http://www.w3.org/Graphics/SVG/1.1/DTD/svg11.dtd">
<!-- Generated by graphviz version 2.40.1 (20161225.0304)
 -->
<!-- Title: grad3D_et&lt; P_expr &gt; Pages: 1 -->
<svg width="106pt" height="106pt"
 viewBox="0.00 0.00 106.00 106.00" xmlns="http://www.w3.org/2000/svg" xmlns:xlink="http://www.w3.org/1999/xlink">
<g id="graph0" class="graph" transform="scale(1 1) rotate(0) translate(4 102)">
<title>grad3D_et&lt; P_expr &gt;</title>
<polygon fill="#ffffff" stroke="transparent" points="-4,4 -4,-102 102,-102 102,4 -4,4"/>
<!-- Node0 -->
<g id="node1" class="node">
<title>Node0</title>
<polygon fill="#bfbfbf" stroke="#000000" points="5,-.5 5,-19.5 93,-19.5 93,-.5 5,-.5"/>
<text text-anchor="middle" x="49" y="-7.5" font-family="Helvetica,sans-Serif" font-size="10.00" fill="#000000">grad3D_et&lt; P_expr &gt;</text>
</g>
<!-- Node1 -->
<g id="node2" class="node">
<title>Node1</title>
<g id="a_node2"><a xlink:href="class__bz__StencilExpr.html" target="_top" xlink:title="_bz_StencilExpr\&lt; P\l_expr, TinyVector\&lt; P\l_expr::T_numtype, 3 \&gt; \&gt;">
<polygon fill="#ffffff" stroke="#000000" points="0,-56.5 0,-97.5 98,-97.5 98,-56.5 0,-56.5"/>
<text text-anchor="start" x="8" y="-85.5" font-family="Helvetica,sans-Serif" font-size="10.00" fill="#000000">_bz_StencilExpr&lt; P</text>
<text text-anchor="start" x="8" y="-74.5" font-family="Helvetica,sans-Serif" font-size="10.00" fill="#000000">_expr, TinyVector&lt; P</text>
<text text-anchor="middle" x="49" y="-63.5" font-family="Helvetica,sans-Serif" font-size="10.00" fill="#000000">_expr::T_numtype, 3 &gt; &gt;</text>
</a>
</g>
</g>
<!-- Node1&#45;&gt;Node0 -->
<g id="edge1" class="edge">
<title>Node1&#45;&gt;Node0</title>
<path fill="none" stroke="#191970" d="M49,-46.0909C49,-36.5672 49,-26.7625 49,-19.7805"/>
<polygon fill="#191970" stroke="#191970" points="45.5001,-46.168 49,-56.168 52.5001,-46.1681 45.5001,-46.168"/>
</g>
</g>
</svg>
