<?xml version="1.0" encoding="UTF-8" standalone="no"?>
<!DOCTYPE svg PUBLIC "-//W3C//DTD SVG 1.1//EN"
 "http://www.w3.org/Graphics/SVG/1.1/DTD/svg11.dtd">
<!-- Generated by graphviz version 2.40.1 (20161225.0304)
 -->
<!-- Title: FastTM2CopyIterator&lt; P_numtype, N_rows, N_columns &gt; Pages: 1 -->
<svg width="428pt" height="61pt"
 viewBox="0.00 0.00 428.00 61.00" xmlns="http://www.w3.org/2000/svg" xmlns:xlink="http://www.w3.org/1999/xlink">
<g id="graph0" class="graph" transform="scale(1 1) rotate(0) translate(4 57)">
<title>FastTM2CopyIterator&lt; P_numtype, N_rows, N_columns &gt;</title>
<polygon fill="#ffffff" stroke="transparent" points="-4,4 -4,-57 424,-57 424,4 -4,4"/>
<!-- Node2 -->
<g id="node1" class="node">
<title>Node2</title>
<polygon fill="#bfbfbf" stroke="#000000" points="327,-6 327,-47 420,-47 420,-6 327,-6"/>
<text text-anchor="start" x="335" y="-35" font-family="Helvetica,sans-Serif" font-size="10.00" fill="#000000">FastTM2CopyIterator</text>
<text text-anchor="start" x="335" y="-24" font-family="Helvetica,sans-Serif" font-size="10.00" fill="#000000">&lt; P_numtype, N_rows,</text>
<text text-anchor="middle" x="373.5" y="-13" font-family="Helvetica,sans-Serif" font-size="10.00" fill="#000000"> N_columns &gt;</text>
</g>
<!-- Node3 -->
<g id="node2" class="node">
<title>Node3</title>
<g id="a_node2"><a xlink:href="classFastTM2IteratorBase.html" target="_top" xlink:title="FastTM2IteratorBase\l\&lt; P_numtype, N_rows,\l N_columns, const TinyMatrix\l\&lt; P_numtype, N_rows, N_columns \&gt; \&gt;">
<polygon fill="#ffffff" stroke="#000000" points="145,-.5 145,-52.5 290,-52.5 290,-.5 145,-.5"/>
<text text-anchor="start" x="153" y="-40.5" font-family="Helvetica,sans-Serif" font-size="10.00" fill="#000000">FastTM2IteratorBase</text>
<text text-anchor="start" x="153" y="-29.5" font-family="Helvetica,sans-Serif" font-size="10.00" fill="#000000">&lt; P_numtype, N_rows,</text>
<text text-anchor="start" x="153" y="-18.5" font-family="Helvetica,sans-Serif" font-size="10.00" fill="#000000"> N_columns, const TinyMatrix</text>
<text text-anchor="middle" x="217.5" y="-7.5" font-family="Helvetica,sans-Serif" font-size="10.00" fill="#000000">&lt; P_numtype, N_rows, N_columns &gt; &gt;</text>
</a>
</g>
</g>
<!-- Node3&#45;&gt;Node2 -->
<g id="edge1" class="edge">
<title>Node3&#45;&gt;Node2</title>
<path fill="none" stroke="#191970" d="M300.0534,-26.5C309.292,-26.5 318.4451,-26.5 326.9919,-26.5"/>
<polygon fill="#191970" stroke="#191970" points="300.0197,-23.0001 290.0196,-26.5 300.0196,-30.0001 300.0197,-23.0001"/>
</g>
<!-- Node4 -->
<g id="node3" class="node">
<title>Node4</title>
<g id="a_node3"><a xlink:href="classConstPointerStack.html" target="_top" xlink:title="ConstPointerStack\&lt;\l T_numtype, rank_ \&gt;">
<polygon fill="#ffffff" stroke="#000000" points="0,-11.5 0,-41.5 85,-41.5 85,-11.5 0,-11.5"/>
<text text-anchor="start" x="8" y="-29.5" font-family="Helvetica,sans-Serif" font-size="10.00" fill="#000000">ConstPointerStack&lt;</text>
<text text-anchor="middle" x="42.5" y="-18.5" font-family="Helvetica,sans-Serif" font-size="10.00" fill="#000000"> T_numtype, rank_ &gt;</text>
</a>
</g>
</g>
<!-- Node4&#45;&gt;Node3 -->
<g id="edge2" class="edge">
<title>Node4&#45;&gt;Node3</title>
<path fill="none" stroke="#9a32cd" stroke-dasharray="5,2" d="M95.7149,-26.5C111.1789,-26.5 128.3401,-26.5 144.7838,-26.5"/>
<polygon fill="#9a32cd" stroke="#9a32cd" points="95.3098,-23.0001 85.3098,-26.5 95.3098,-30.0001 95.3098,-23.0001"/>
<text text-anchor="middle" x="115" y="-29.5" font-family="Helvetica,sans-Serif" font-size="10.00" fill="#000000"> stack_</text>
</g>
</g>
</svg>
