<?xml version="1.0" encoding="UTF-8" standalone="no"?>
<!DOCTYPE svg PUBLIC "-//W3C//DTD SVG 1.1//EN"
 "http://www.w3.org/Graphics/SVG/1.1/DTD/svg11.dtd">
<!-- Generated by graphviz version 2.40.1 (20161225.0304)
 -->
<!-- Title: _Numeric_limits_base&lt; __number &gt; Pages: 1 -->
<svg width="98pt" height="106pt"
 viewBox="0.00 0.00 98.00 106.00" xmlns="http://www.w3.org/2000/svg" xmlns:xlink="http://www.w3.org/1999/xlink">
<g id="graph0" class="graph" transform="scale(1 1) rotate(0) translate(4 102)">
<title>_Numeric_limits_base&lt; __number &gt;</title>
<polygon fill="#ffffff" stroke="transparent" points="-4,4 -4,-102 94,-102 94,4 -4,4"/>
<!-- Node0 -->
<g id="node1" class="node">
<title>Node0</title>
<polygon fill="#bfbfbf" stroke="#000000" points="0,-67.5 0,-97.5 90,-97.5 90,-67.5 0,-67.5"/>
<text text-anchor="start" x="8" y="-85.5" font-family="Helvetica,sans-Serif" font-size="10.00" fill="#000000">_Numeric_limits_base</text>
<text text-anchor="middle" x="45" y="-74.5" font-family="Helvetica,sans-Serif" font-size="10.00" fill="#000000">&lt; __number &gt;</text>
</g>
<!-- Node1 -->
<g id="node2" class="node">
<title>Node1</title>
<g id="a_node2"><a xlink:href="$class__Floating__limits.html" xlink:title="_Floating_limits\&lt; \l__number \&gt;">
<polygon fill="#ffffff" stroke="#000000" points="7.5,-.5 7.5,-30.5 82.5,-30.5 82.5,-.5 7.5,-.5"/>
<text text-anchor="start" x="15.5" y="-18.5" font-family="Helvetica,sans-Serif" font-size="10.00" fill="#000000">_Floating_limits&lt; </text>
<text text-anchor="middle" x="45" y="-7.5" font-family="Helvetica,sans-Serif" font-size="10.00" fill="#000000">__number &gt;</text>
</a>
</g>
</g>
<!-- Node0&#45;&gt;Node1 -->
<g id="edge1" class="edge">
<title>Node0&#45;&gt;Node1</title>
<path fill="none" stroke="#191970" d="M45,-57.0249C45,-48.128 45,-38.4287 45,-30.6432"/>
<polygon fill="#191970" stroke="#191970" points="41.5001,-57.2966 45,-67.2967 48.5001,-57.2967 41.5001,-57.2966"/>
</g>
</g>
</svg>
