<?xml version="1.0" encoding="UTF-8" standalone="no"?>
<!DOCTYPE svg PUBLIC "-//W3C//DTD SVG 1.1//EN"
 "http://www.w3.org/Graphics/SVG/1.1/DTD/svg11.dtd">
<!-- Generated by graphviz version 2.40.1 (20161225.0304)
 -->
<!-- Title: grad2Dn_et&lt; P_expr &gt; Pages: 1 -->
<svg width="106pt" height="174pt"
 viewBox="0.00 0.00 106.00 174.00" xmlns="http://www.w3.org/2000/svg" xmlns:xlink="http://www.w3.org/1999/xlink">
<g id="graph0" class="graph" transform="scale(1 1) rotate(0) translate(4 170)">
<title>grad2Dn_et&lt; P_expr &gt;</title>
<polygon fill="#ffffff" stroke="transparent" points="-4,4 -4,-170 102,-170 102,4 -4,4"/>
<!-- Node2 -->
<g id="node1" class="node">
<title>Node2</title>
<polygon fill="#bfbfbf" stroke="#000000" points="3,-.5 3,-19.5 95,-19.5 95,-.5 3,-.5"/>
<text text-anchor="middle" x="49" y="-7.5" font-family="Helvetica,sans-Serif" font-size="10.00" fill="#000000">grad2Dn_et&lt; P_expr &gt;</text>
</g>
<!-- Node3 -->
<g id="node2" class="node">
<title>Node3</title>
<g id="a_node2"><a xlink:href="class__bz__StencilExpr.html" target="_top" xlink:title="_bz_StencilExpr\&lt; P\l_expr, TinyVector\&lt; P\l_expr::T_numtype, 2 \&gt; \&gt;">
<polygon fill="#ffffff" stroke="#000000" points="0,-57.5 0,-98.5 98,-98.5 98,-57.5 0,-57.5"/>
<text text-anchor="start" x="8" y="-86.5" font-family="Helvetica,sans-Serif" font-size="10.00" fill="#000000">_bz_StencilExpr&lt; P</text>
<text text-anchor="start" x="8" y="-75.5" font-family="Helvetica,sans-Serif" font-size="10.00" fill="#000000">_expr, TinyVector&lt; P</text>
<text text-anchor="middle" x="49" y="-64.5" font-family="Helvetica,sans-Serif" font-size="10.00" fill="#000000">_expr::T_numtype, 2 &gt; &gt;</text>
</a>
</g>
</g>
<!-- Node3&#45;&gt;Node2 -->
<g id="edge1" class="edge">
<title>Node3&#45;&gt;Node2</title>
<path fill="none" stroke="#191970" d="M49,-47.1423C49,-37.1999 49,-26.896 49,-19.6705"/>
<polygon fill="#191970" stroke="#191970" points="45.5001,-47.2282 49,-57.2283 52.5001,-47.2283 45.5001,-47.2282"/>
</g>
<!-- Node4 -->
<g id="node3" class="node">
<title>Node4</title>
<polygon fill="#ffffff" stroke="#bfbfbf" points="29,-146.5 29,-165.5 69,-165.5 69,-146.5 29,-146.5"/>
<text text-anchor="middle" x="49" y="-153.5" font-family="Helvetica,sans-Serif" font-size="10.00" fill="#000000">P_expr</text>
</g>
<!-- Node4&#45;&gt;Node3 -->
<g id="edge2" class="edge">
<title>Node4&#45;&gt;Node3</title>
<path fill="none" stroke="#9a32cd" stroke-dasharray="5,2" d="M49,-136.1881C49,-124.7521 49,-110.3843 49,-98.7873"/>
<polygon fill="#9a32cd" stroke="#9a32cd" points="45.5001,-136.4356 49,-146.4357 52.5001,-136.4357 45.5001,-136.4356"/>
<text text-anchor="middle" x="57.5" y="-120" font-family="Helvetica,sans-Serif" font-size="10.00" fill="#000000"> iter_</text>
</g>
</g>
</svg>
