<?xml version="1.0" encoding="UTF-8" standalone="no"?>
<!DOCTYPE svg PUBLIC "-//W3C//DTD SVG 1.1//EN"
 "http://www.w3.org/Graphics/SVG/1.1/DTD/svg11.dtd">
<!-- Generated by graphviz version 2.40.1 (20161225.0304)
 -->
<!-- Title: backward22n_et_multi&lt; P_expr &gt; Pages: 1 -->
<svg width="339pt" height="61pt"
 viewBox="0.00 0.00 339.00 61.00" xmlns="http://www.w3.org/2000/svg" xmlns:xlink="http://www.w3.org/1999/xlink">
<g id="graph0" class="graph" transform="scale(1 1) rotate(0) translate(4 57)">
<title>backward22n_et_multi&lt; P_expr &gt;</title>
<polygon fill="#ffffff" stroke="transparent" points="-4,4 -4,-57 335,-57 335,4 -4,4"/>
<!-- Node2 -->
<g id="node1" class="node">
<title>Node2</title>
<polygon fill="#bfbfbf" stroke="#000000" points="239,-11.5 239,-41.5 331,-41.5 331,-11.5 239,-11.5"/>
<text text-anchor="start" x="247" y="-29.5" font-family="Helvetica,sans-Serif" font-size="10.00" fill="#000000">backward22n_et_multi</text>
<text text-anchor="middle" x="285" y="-18.5" font-family="Helvetica,sans-Serif" font-size="10.00" fill="#000000">&lt; P_expr &gt;</text>
</g>
<!-- Node3 -->
<g id="node2" class="node">
<title>Node3</title>
<g id="a_node2"><a xlink:href="class__bz__StencilExpr.html" target="_top" xlink:title="_bz_StencilExpr\&lt; P\l_expr, _bz_multicomponent\l_traits\&lt; P_expr::T_numtype\l \&gt;::T_element \&gt;">
<polygon fill="#ffffff" stroke="#000000" points="93,-.5 93,-52.5 202,-52.5 202,-.5 93,-.5"/>
<text text-anchor="start" x="101" y="-40.5" font-family="Helvetica,sans-Serif" font-size="10.00" fill="#000000">_bz_StencilExpr&lt; P</text>
<text text-anchor="start" x="101" y="-29.5" font-family="Helvetica,sans-Serif" font-size="10.00" fill="#000000">_expr, _bz_multicomponent</text>
<text text-anchor="start" x="101" y="-18.5" font-family="Helvetica,sans-Serif" font-size="10.00" fill="#000000">_traits&lt; P_expr::T_numtype</text>
<text text-anchor="middle" x="147.5" y="-7.5" font-family="Helvetica,sans-Serif" font-size="10.00" fill="#000000"> &gt;::T_element &gt;</text>
</a>
</g>
</g>
<!-- Node3&#45;&gt;Node2 -->
<g id="edge1" class="edge">
<title>Node3&#45;&gt;Node2</title>
<path fill="none" stroke="#191970" d="M212.2947,-26.5C221.2644,-26.5 230.324,-26.5 238.8604,-26.5"/>
<polygon fill="#191970" stroke="#191970" points="212.2388,-23.0001 202.2387,-26.5 212.2387,-30.0001 212.2388,-23.0001"/>
</g>
<!-- Node4 -->
<g id="node3" class="node">
<title>Node4</title>
<polygon fill="#ffffff" stroke="#bfbfbf" points="0,-17 0,-36 40,-36 40,-17 0,-17"/>
<text text-anchor="middle" x="20" y="-24" font-family="Helvetica,sans-Serif" font-size="10.00" fill="#000000">P_expr</text>
</g>
<!-- Node4&#45;&gt;Node3 -->
<g id="edge2" class="edge">
<title>Node4&#45;&gt;Node3</title>
<path fill="none" stroke="#9a32cd" stroke-dasharray="5,2" d="M50.2333,-26.5C62.9525,-26.5 78.1592,-26.5 92.7276,-26.5"/>
<polygon fill="#9a32cd" stroke="#9a32cd" points="50.2028,-23.0001 40.2028,-26.5 50.2027,-30.0001 50.2028,-23.0001"/>
<text text-anchor="middle" x="66.5" y="-29.5" font-family="Helvetica,sans-Serif" font-size="10.00" fill="#000000"> iter_</text>
</g>
</g>
</svg>
