<?xml version="1.0" encoding="UTF-8" standalone="no"?>
<!DOCTYPE svg PUBLIC "-//W3C//DTD SVG 1.1//EN"
 "http://www.w3.org/Graphics/SVG/1.1/DTD/svg11.dtd">
<!-- Generated by graphviz version 2.40.1 (20161225.0304)
 -->
<!-- Title: Laplacian3D4_et&lt; P_expr, P_numtype &gt; Pages: 1 -->
<svg width="92pt" height="106pt"
 viewBox="0.00 0.00 92.00 106.00" xmlns="http://www.w3.org/2000/svg" xmlns:xlink="http://www.w3.org/1999/xlink">
<g id="graph0" class="graph" transform="scale(1 1) rotate(0) translate(4 102)">
<title>Laplacian3D4_et&lt; P_expr, P_numtype &gt;</title>
<polygon fill="#ffffff" stroke="transparent" points="-4,4 -4,-102 88,-102 88,4 -4,4"/>
<!-- Node0 -->
<g id="node1" class="node">
<title>Node0</title>
<polygon fill="#bfbfbf" stroke="#000000" points="0,-.5 0,-30.5 84,-30.5 84,-.5 0,-.5"/>
<text text-anchor="start" x="8" y="-18.5" font-family="Helvetica,sans-Serif" font-size="10.00" fill="#000000">Laplacian3D4_et&lt; P</text>
<text text-anchor="middle" x="42" y="-7.5" font-family="Helvetica,sans-Serif" font-size="10.00" fill="#000000">_expr, P_numtype &gt;</text>
</g>
<!-- Node1 -->
<g id="node2" class="node">
<title>Node1</title>
<g id="a_node2"><a xlink:href="class__bz__StencilExpr.html" target="_top" xlink:title="_bz_StencilExpr\&lt; P\l_expr, P_numtype \&gt;">
<polygon fill="#ffffff" stroke="#000000" points="0,-67.5 0,-97.5 84,-97.5 84,-67.5 0,-67.5"/>
<text text-anchor="start" x="8" y="-85.5" font-family="Helvetica,sans-Serif" font-size="10.00" fill="#000000">_bz_StencilExpr&lt; P</text>
<text text-anchor="middle" x="42" y="-74.5" font-family="Helvetica,sans-Serif" font-size="10.00" fill="#000000">_expr, P_numtype &gt;</text>
</a>
</g>
</g>
<!-- Node1&#45;&gt;Node0 -->
<g id="edge1" class="edge">
<title>Node1&#45;&gt;Node0</title>
<path fill="none" stroke="#191970" d="M42,-57.0249C42,-48.128 42,-38.4287 42,-30.6432"/>
<polygon fill="#191970" stroke="#191970" points="38.5001,-57.2966 42,-67.2967 45.5001,-57.2967 38.5001,-57.2966"/>
</g>
</g>
</svg>
