<?xml version="1.0" encoding="UTF-8" standalone="no"?>
<!DOCTYPE svg PUBLIC "-//W3C//DTD SVG 1.1//EN"
 "http://www.w3.org/Graphics/SVG/1.1/DTD/svg11.dtd">
<!-- Generated by graphviz version 2.40.1 (20161225.0304)
 -->
<!-- Title: _bz_ArrayExprQuaternaryOp&lt; P_expr1, P_expr2, P_expr3, P_expr4, P_op &gt; Pages: 1 -->
<svg width="125pt" height="117pt"
 viewBox="0.00 0.00 125.00 117.00" xmlns="http://www.w3.org/2000/svg" xmlns:xlink="http://www.w3.org/1999/xlink">
<g id="graph0" class="graph" transform="scale(1 1) rotate(0) translate(4 113)">
<title>_bz_ArrayExprQuaternaryOp&lt; P_expr1, P_expr2, P_expr3, P_expr4, P_op &gt;</title>
<polygon fill="#ffffff" stroke="transparent" points="-4,4 -4,-113 121,-113 121,4 -4,4"/>
<!-- Node1 -->
<g id="node1" class="node">
<title>Node1</title>
<polygon fill="#bfbfbf" stroke="#000000" points="0,-.5 0,-41.5 117,-41.5 117,-.5 0,-.5"/>
<text text-anchor="start" x="8" y="-29.5" font-family="Helvetica,sans-Serif" font-size="10.00" fill="#000000">_bz_ArrayExprQuaternaryOp</text>
<text text-anchor="start" x="8" y="-18.5" font-family="Helvetica,sans-Serif" font-size="10.00" fill="#000000">&lt; P_expr1, P_expr2, P_expr3,</text>
<text text-anchor="middle" x="58.5" y="-7.5" font-family="Helvetica,sans-Serif" font-size="10.00" fill="#000000"> P_expr4, P_op &gt;</text>
</g>
<!-- Node2 -->
<g id="node2" class="node">
<title>Node2</title>
<polygon fill="#ffffff" stroke="#bfbfbf" points="5.5,-89.5 5.5,-108.5 49.5,-108.5 49.5,-89.5 5.5,-89.5"/>
<text text-anchor="middle" x="27.5" y="-96.5" font-family="Helvetica,sans-Serif" font-size="10.00" fill="#000000">P_expr1</text>
</g>
<!-- Node2&#45;&gt;Node1 -->
<g id="edge1" class="edge">
<title>Node2&#45;&gt;Node1</title>
<path fill="none" stroke="#9a32cd" stroke-dasharray="5,2" d="M35.0914,-79.899C39.6806,-68.3519 45.5333,-53.6259 50.2384,-41.7873"/>
<polygon fill="#9a32cd" stroke="#9a32cd" points="31.7421,-78.85 31.3012,-89.4357 38.2472,-81.4354 31.7421,-78.85"/>
<text text-anchor="middle" x="54" y="-63" font-family="Helvetica,sans-Serif" font-size="10.00" fill="#000000"> iter1_</text>
</g>
<!-- Node3 -->
<g id="node3" class="node">
<title>Node3</title>
<polygon fill="#ffffff" stroke="#bfbfbf" points="67.5,-89.5 67.5,-108.5 111.5,-108.5 111.5,-89.5 67.5,-89.5"/>
<text text-anchor="middle" x="89.5" y="-96.5" font-family="Helvetica,sans-Serif" font-size="10.00" fill="#000000">P_expr2</text>
</g>
<!-- Node3&#45;&gt;Node1 -->
<g id="edge2" class="edge">
<title>Node3&#45;&gt;Node1</title>
<path fill="none" stroke="#9a32cd" stroke-dasharray="5,2" d="M81.9086,-79.899C77.3194,-68.3519 71.4667,-53.6259 66.7616,-41.7873"/>
<polygon fill="#9a32cd" stroke="#9a32cd" points="78.7528,-81.4354 85.6988,-89.4357 85.2579,-78.85 78.7528,-81.4354"/>
<text text-anchor="middle" x="88" y="-63" font-family="Helvetica,sans-Serif" font-size="10.00" fill="#000000"> iter2_</text>
</g>
</g>
</svg>
