<?xml version="1.0" encoding="UTF-8" standalone="no"?>
<!DOCTYPE svg PUBLIC "-//W3C//DTD SVG 1.1//EN"
 "http://www.w3.org/Graphics/SVG/1.1/DTD/svg11.dtd">
<!-- Generated by graphviz version 2.40.1 (20161225.0304)
 -->
<!-- Title: _Integer_limits&lt; _Int, __imin, __imax, __idigits &gt; Pages: 1 -->
<svg width="115pt" height="106pt"
 viewBox="0.00 0.00 115.00 106.00" xmlns="http://www.w3.org/2000/svg" xmlns:xlink="http://www.w3.org/1999/xlink">
<g id="graph0" class="graph" transform="scale(1 1) rotate(0) translate(4 102)">
<title>_Integer_limits&lt; _Int, __imin, __imax, __idigits &gt;</title>
<polygon fill="#ffffff" stroke="transparent" points="-4,4 -4,-102 111,-102 111,4 -4,4"/>
<!-- Node2 -->
<g id="node1" class="node">
<title>Node2</title>
<polygon fill="#bfbfbf" stroke="#000000" points="0,-.5 0,-30.5 107,-30.5 107,-.5 0,-.5"/>
<text text-anchor="start" x="8" y="-18.5" font-family="Helvetica,sans-Serif" font-size="10.00" fill="#000000">_Integer_limits&lt; _Int,</text>
<text text-anchor="middle" x="53.5" y="-7.5" font-family="Helvetica,sans-Serif" font-size="10.00" fill="#000000"> __imin, __imax, __idigits &gt;</text>
</g>
<!-- Node3 -->
<g id="node2" class="node">
<title>Node3</title>
<g id="a_node2"><a xlink:href="$class__Numeric__limits__base.html" xlink:title="_Numeric_limits_base\l\&lt; _Int \&gt;">
<polygon fill="#ffffff" stroke="#000000" points="8.5,-67.5 8.5,-97.5 98.5,-97.5 98.5,-67.5 8.5,-67.5"/>
<text text-anchor="start" x="16.5" y="-85.5" font-family="Helvetica,sans-Serif" font-size="10.00" fill="#000000">_Numeric_limits_base</text>
<text text-anchor="middle" x="53.5" y="-74.5" font-family="Helvetica,sans-Serif" font-size="10.00" fill="#000000">&lt; _Int &gt;</text>
</a>
</g>
</g>
<!-- Node3&#45;&gt;Node2 -->
<g id="edge1" class="edge">
<title>Node3&#45;&gt;Node2</title>
<path fill="none" stroke="#191970" d="M53.5,-57.0249C53.5,-48.128 53.5,-38.4287 53.5,-30.6432"/>
<polygon fill="#191970" stroke="#191970" points="50.0001,-57.2966 53.5,-67.2967 57.0001,-57.2967 50.0001,-57.2966"/>
</g>
</g>
</svg>
