<?xml version="1.0" encoding="UTF-8" standalone="no"?>
<!DOCTYPE svg PUBLIC "-//W3C//DTD SVG 1.1//EN"
 "http://www.w3.org/Graphics/SVG/1.1/DTD/svg11.dtd">
<!-- Generated by graphviz version 2.40.1 (20161225.0304)
 -->
<!-- Title: numeric_limits&lt; long double &gt; Pages: 1 -->
<svg width="380pt" height="105pt"
 viewBox="0.00 0.00 380.00 105.00" xmlns="http://www.w3.org/2000/svg" xmlns:xlink="http://www.w3.org/1999/xlink">
<g id="graph0" class="graph" transform="scale(1 1) rotate(0) translate(4 101)">
<title>numeric_limits&lt; long double &gt;</title>
<polygon fill="#ffffff" stroke="transparent" points="-4,4 -4,-101 376,-101 376,4 -4,4"/>
<!-- Node0 -->
<g id="node1" class="node">
<title>Node0</title>
<polygon fill="#bfbfbf" stroke="#000000" points="287,-33.5 287,-63.5 372,-63.5 372,-33.5 287,-33.5"/>
<text text-anchor="start" x="295" y="-51.5" font-family="Helvetica,sans-Serif" font-size="10.00" fill="#000000">numeric_limits&lt; long</text>
<text text-anchor="middle" x="329.5" y="-40.5" font-family="Helvetica,sans-Serif" font-size="10.00" fill="#000000"> double &gt;</text>
</g>
<!-- Node1 -->
<g id="node2" class="node">
<title>Node1</title>
<g id="a_node2"><a xlink:href="class__Floating__limits.html" target="_top" xlink:title="_Floating_limits\&lt; long\l double, LDBL_MANT_DIG,\l LDBL_DIG, LDBL_MIN_EXP,\l LDBL_MAX_EXP, LDBL_MIN\l_10_EXP, LDBL_MAX_10_EXP,\l 0x7ff00000u, 0x7ff10000u,\l 0x7ff90000u, false, round\l_to_nearest \&gt;">
<polygon fill="#ffffff" stroke="#000000" points="126,-.5 126,-96.5 251,-96.5 251,-.5 126,-.5"/>
<text text-anchor="start" x="134" y="-84.5" font-family="Helvetica,sans-Serif" font-size="10.00" fill="#000000">_Floating_limits&lt; long</text>
<text text-anchor="start" x="134" y="-73.5" font-family="Helvetica,sans-Serif" font-size="10.00" fill="#000000"> double, LDBL_MANT_DIG,</text>
<text text-anchor="start" x="134" y="-62.5" font-family="Helvetica,sans-Serif" font-size="10.00" fill="#000000"> LDBL_DIG, LDBL_MIN_EXP,</text>
<text text-anchor="start" x="134" y="-51.5" font-family="Helvetica,sans-Serif" font-size="10.00" fill="#000000"> LDBL_MAX_EXP, LDBL_MIN</text>
<text text-anchor="start" x="134" y="-40.5" font-family="Helvetica,sans-Serif" font-size="10.00" fill="#000000">_10_EXP, LDBL_MAX_10_EXP,</text>
<text text-anchor="start" x="134" y="-29.5" font-family="Helvetica,sans-Serif" font-size="10.00" fill="#000000"> 0x7ff00000u, 0x7ff10000u,</text>
<text text-anchor="start" x="134" y="-18.5" font-family="Helvetica,sans-Serif" font-size="10.00" fill="#000000"> 0x7ff90000u, false, round</text>
<text text-anchor="middle" x="188.5" y="-7.5" font-family="Helvetica,sans-Serif" font-size="10.00" fill="#000000">_to_nearest &gt;</text>
</a>
</g>
</g>
<!-- Node1&#45;&gt;Node0 -->
<g id="edge1" class="edge">
<title>Node1&#45;&gt;Node0</title>
<path fill="none" stroke="#191970" d="M261.3848,-48.5C270.0981,-48.5 278.7628,-48.5 286.8456,-48.5"/>
<polygon fill="#191970" stroke="#191970" points="261.1658,-45.0001 251.1658,-48.5 261.1657,-52.0001 261.1658,-45.0001"/>
</g>
<!-- Node2 -->
<g id="node3" class="node">
<title>Node2</title>
<g id="a_node3"><a xlink:href="class__Numeric__limits__base.html" target="_top" xlink:title="_Numeric_limits_base\l\&lt; long double \&gt;">
<polygon fill="#ffffff" stroke="#000000" points="0,-33.5 0,-63.5 90,-63.5 90,-33.5 0,-33.5"/>
<text text-anchor="start" x="8" y="-51.5" font-family="Helvetica,sans-Serif" font-size="10.00" fill="#000000">_Numeric_limits_base</text>
<text text-anchor="middle" x="45" y="-40.5" font-family="Helvetica,sans-Serif" font-size="10.00" fill="#000000">&lt; long double &gt;</text>
</a>
</g>
</g>
<!-- Node2&#45;&gt;Node1 -->
<g id="edge2" class="edge">
<title>Node2&#45;&gt;Node1</title>
<path fill="none" stroke="#191970" d="M100.0744,-48.5C108.4838,-48.5 117.2168,-48.5 125.7757,-48.5"/>
<polygon fill="#191970" stroke="#191970" points="100.0106,-45.0001 90.0106,-48.5 100.0105,-52.0001 100.0106,-45.0001"/>
</g>
</g>
</svg>
