<?xml version="1.0" encoding="UTF-8" standalone="no"?>
<!DOCTYPE svg PUBLIC "-//W3C//DTD SVG 1.1//EN"
 "http://www.w3.org/Graphics/SVG/1.1/DTD/svg11.dtd">
<!-- Generated by graphviz version 2.40.1 (20161225.0304)
 -->
<!-- Title: numeric_limits&lt; unsigned short &gt; Pages: 1 -->
<svg width="110pt" height="173pt"
 viewBox="0.00 0.00 110.00 173.00" xmlns="http://www.w3.org/2000/svg" xmlns:xlink="http://www.w3.org/1999/xlink">
<g id="graph0" class="graph" transform="scale(1 1) rotate(0) translate(4 169)">
<title>numeric_limits&lt; unsigned short &gt;</title>
<polygon fill="#ffffff" stroke="transparent" points="-4,4 -4,-169 106,-169 106,4 -4,4"/>
<!-- Node3 -->
<g id="node1" class="node">
<title>Node3</title>
<polygon fill="#bfbfbf" stroke="#000000" points=".5,-.5 .5,-30.5 101.5,-30.5 101.5,-.5 .5,-.5"/>
<text text-anchor="start" x="8.5" y="-18.5" font-family="Helvetica,sans-Serif" font-size="10.00" fill="#000000">numeric_limits&lt; unsigned</text>
<text text-anchor="middle" x="51" y="-7.5" font-family="Helvetica,sans-Serif" font-size="10.00" fill="#000000"> short &gt;</text>
</g>
<!-- Node4 -->
<g id="node2" class="node">
<title>Node4</title>
<g id="a_node2"><a xlink:href="class__Integer__limits.html" target="_top" xlink:title="_Integer_limits\&lt; unsigned\l short, 0, USHRT_MAX \&gt;">
<polygon fill="#ffffff" stroke="#000000" points="0,-67.5 0,-97.5 102,-97.5 102,-67.5 0,-67.5"/>
<text text-anchor="start" x="8" y="-85.5" font-family="Helvetica,sans-Serif" font-size="10.00" fill="#000000">_Integer_limits&lt; unsigned</text>
<text text-anchor="middle" x="51" y="-74.5" font-family="Helvetica,sans-Serif" font-size="10.00" fill="#000000"> short, 0, USHRT_MAX &gt;</text>
</a>
</g>
</g>
<!-- Node4&#45;&gt;Node3 -->
<g id="edge1" class="edge">
<title>Node4&#45;&gt;Node3</title>
<path fill="none" stroke="#191970" d="M51,-57.0249C51,-48.128 51,-38.4287 51,-30.6432"/>
<polygon fill="#191970" stroke="#191970" points="47.5001,-57.2966 51,-67.2967 54.5001,-57.2967 47.5001,-57.2966"/>
</g>
<!-- Node5 -->
<g id="node3" class="node">
<title>Node5</title>
<g id="a_node3"><a xlink:href="class__Numeric__limits__base.html" target="_top" xlink:title="_Numeric_limits_base\l\&lt; unsigned short \&gt;">
<polygon fill="#ffffff" stroke="#000000" points="6,-134.5 6,-164.5 96,-164.5 96,-134.5 6,-134.5"/>
<text text-anchor="start" x="14" y="-152.5" font-family="Helvetica,sans-Serif" font-size="10.00" fill="#000000">_Numeric_limits_base</text>
<text text-anchor="middle" x="51" y="-141.5" font-family="Helvetica,sans-Serif" font-size="10.00" fill="#000000">&lt; unsigned short &gt;</text>
</a>
</g>
</g>
<!-- Node5&#45;&gt;Node4 -->
<g id="edge2" class="edge">
<title>Node5&#45;&gt;Node4</title>
<path fill="none" stroke="#191970" d="M51,-124.0249C51,-115.128 51,-105.4287 51,-97.6432"/>
<polygon fill="#191970" stroke="#191970" points="47.5001,-124.2966 51,-134.2967 54.5001,-124.2967 47.5001,-124.2966"/>
</g>
</g>
</svg>
