<?xml version="1.0" encoding="UTF-8" standalone="no"?>
<!DOCTYPE svg PUBLIC "-//W3C//DTD SVG 1.1//EN"
 "http://www.w3.org/Graphics/SVG/1.1/DTD/svg11.dtd">
<!-- Generated by graphviz version 2.40.1 (20161225.0304)
 -->
<!-- Title: _bz_FunctorExpr3&lt; P_functor, P_expr1, P_expr2, P_expr3, P_result &gt; Pages: 1 -->
<svg width="118pt" height="117pt"
 viewBox="0.00 0.00 118.00 117.00" xmlns="http://www.w3.org/2000/svg" xmlns:xlink="http://www.w3.org/1999/xlink">
<g id="graph0" class="graph" transform="scale(1 1) rotate(0) translate(4 113)">
<title>_bz_FunctorExpr3&lt; P_functor, P_expr1, P_expr2, P_expr3, P_result &gt;</title>
<polygon fill="#ffffff" stroke="transparent" points="-4,4 -4,-113 114,-113 114,4 -4,4"/>
<!-- Node1 -->
<g id="node1" class="node">
<title>Node1</title>
<polygon fill="#bfbfbf" stroke="#000000" points="0,-.5 0,-41.5 110,-41.5 110,-.5 0,-.5"/>
<text text-anchor="start" x="8" y="-29.5" font-family="Helvetica,sans-Serif" font-size="10.00" fill="#000000">_bz_FunctorExpr3&lt; P</text>
<text text-anchor="start" x="8" y="-18.5" font-family="Helvetica,sans-Serif" font-size="10.00" fill="#000000">_functor, P_expr1, P</text>
<text text-anchor="middle" x="55" y="-7.5" font-family="Helvetica,sans-Serif" font-size="10.00" fill="#000000">_expr2, P_expr3, P_result &gt;</text>
</g>
<!-- Node2 -->
<g id="node2" class="node">
<title>Node2</title>
<polygon fill="#ffffff" stroke="#bfbfbf" points="2,-89.5 2,-108.5 46,-108.5 46,-89.5 2,-89.5"/>
<text text-anchor="middle" x="24" y="-96.5" font-family="Helvetica,sans-Serif" font-size="10.00" fill="#000000">P_expr1</text>
</g>
<!-- Node2&#45;&gt;Node1 -->
<g id="edge1" class="edge">
<title>Node2&#45;&gt;Node1</title>
<path fill="none" stroke="#9a32cd" stroke-dasharray="5,2" d="M31.5914,-79.899C36.1806,-68.3519 42.0333,-53.6259 46.7384,-41.7873"/>
<polygon fill="#9a32cd" stroke="#9a32cd" points="28.2421,-78.85 27.8012,-89.4357 34.7472,-81.4354 28.2421,-78.85"/>
<text text-anchor="middle" x="50.5" y="-63" font-family="Helvetica,sans-Serif" font-size="10.00" fill="#000000"> iter1_</text>
</g>
<!-- Node3 -->
<g id="node3" class="node">
<title>Node3</title>
<polygon fill="#ffffff" stroke="#bfbfbf" points="64,-89.5 64,-108.5 108,-108.5 108,-89.5 64,-89.5"/>
<text text-anchor="middle" x="86" y="-96.5" font-family="Helvetica,sans-Serif" font-size="10.00" fill="#000000">P_expr2</text>
</g>
<!-- Node3&#45;&gt;Node1 -->
<g id="edge2" class="edge">
<title>Node3&#45;&gt;Node1</title>
<path fill="none" stroke="#9a32cd" stroke-dasharray="5,2" d="M78.4086,-79.899C73.8194,-68.3519 67.9667,-53.6259 63.2616,-41.7873"/>
<polygon fill="#9a32cd" stroke="#9a32cd" points="75.2528,-81.4354 82.1988,-89.4357 81.7579,-78.85 75.2528,-81.4354"/>
<text text-anchor="middle" x="84.5" y="-63" font-family="Helvetica,sans-Serif" font-size="10.00" fill="#000000"> iter2_</text>
</g>
</g>
</svg>
