<?xml version="1.0" encoding="UTF-8" standalone="no"?>
<!DOCTYPE svg PUBLIC "-//W3C//DTD SVG 1.1//EN"
 "http://www.w3.org/Graphics/SVG/1.1/DTD/svg11.dtd">
<!-- Generated by graphviz version 2.40.1 (20161225.0304)
 -->
<!-- Title: TinyMatrix&lt; P_numtype, N_rows, N_columns &gt; Pages: 1 -->
<svg width="106pt" height="117pt"
 viewBox="0.00 0.00 106.00 117.00" xmlns="http://www.w3.org/2000/svg" xmlns:xlink="http://www.w3.org/1999/xlink">
<g id="graph0" class="graph" transform="scale(1 1) rotate(0) translate(4 113)">
<title>TinyMatrix&lt; P_numtype, N_rows, N_columns &gt;</title>
<polygon fill="#ffffff" stroke="transparent" points="-4,4 -4,-113 102,-113 102,4 -4,4"/>
<!-- Node2 -->
<g id="node1" class="node">
<title>Node2</title>
<polygon fill="#bfbfbf" stroke="#000000" points="0,-.5 0,-30.5 98,-30.5 98,-.5 0,-.5"/>
<text text-anchor="start" x="8" y="-18.5" font-family="Helvetica,sans-Serif" font-size="10.00" fill="#000000">TinyMatrix&lt; P_numtype,</text>
<text text-anchor="middle" x="49" y="-7.5" font-family="Helvetica,sans-Serif" font-size="10.00" fill="#000000"> N_rows, N_columns &gt;</text>
</g>
<!-- Node3 -->
<g id="node2" class="node">
<title>Node3</title>
<g id="a_node2"><a xlink:href="classETBase.html" target="_top" xlink:title="ETBase\&lt; TinyMatrix\l\&lt; P_numtype, N_rows,\l N_columns \&gt; \&gt;">
<polygon fill="#ffffff" stroke="#000000" points="2.5,-67.5 2.5,-108.5 95.5,-108.5 95.5,-67.5 2.5,-67.5"/>
<text text-anchor="start" x="10.5" y="-96.5" font-family="Helvetica,sans-Serif" font-size="10.00" fill="#000000">ETBase&lt; TinyMatrix</text>
<text text-anchor="start" x="10.5" y="-85.5" font-family="Helvetica,sans-Serif" font-size="10.00" fill="#000000">&lt; P_numtype, N_rows,</text>
<text text-anchor="middle" x="49" y="-74.5" font-family="Helvetica,sans-Serif" font-size="10.00" fill="#000000"> N_columns &gt; &gt;</text>
</a>
</g>
</g>
<!-- Node3&#45;&gt;Node2 -->
<g id="edge1" class="edge">
<title>Node3&#45;&gt;Node2</title>
<path fill="none" stroke="#191970" d="M49,-57.3279C49,-48.0871 49,-38.3508 49,-30.5991"/>
<polygon fill="#191970" stroke="#191970" points="45.5001,-57.4183 49,-67.4183 52.5001,-57.4184 45.5001,-57.4183"/>
</g>
</g>
</svg>
