<?xml version="1.0" encoding="UTF-8" standalone="no"?>
<!DOCTYPE svg PUBLIC "-//W3C//DTD SVG 1.1//EN"
 "http://www.w3.org/Graphics/SVG/1.1/DTD/svg11.dtd">
<!-- Generated by graphviz version 2.40.1 (20161225.0304)
 -->
<!-- Title: FastTM2Iterator&lt; P_numtype, N_rows, N_columns &gt; Pages: 1 -->
<svg width="283pt" height="61pt"
 viewBox="0.00 0.00 283.00 61.00" xmlns="http://www.w3.org/2000/svg" xmlns:xlink="http://www.w3.org/1999/xlink">
<g id="graph0" class="graph" transform="scale(1 1) rotate(0) translate(4 57)">
<title>FastTM2Iterator&lt; P_numtype, N_rows, N_columns &gt;</title>
<polygon fill="#ffffff" stroke="transparent" points="-4,4 -4,-57 279,-57 279,4 -4,4"/>
<!-- Node0 -->
<g id="node1" class="node">
<title>Node0</title>
<polygon fill="#bfbfbf" stroke="#000000" points="186,-6 186,-47 275,-47 275,-6 186,-6"/>
<text text-anchor="start" x="194" y="-35" font-family="Helvetica,sans-Serif" font-size="10.00" fill="#000000">FastTM2Iterator&lt; P</text>
<text text-anchor="start" x="194" y="-24" font-family="Helvetica,sans-Serif" font-size="10.00" fill="#000000">_numtype, N_rows, N</text>
<text text-anchor="middle" x="230.5" y="-13" font-family="Helvetica,sans-Serif" font-size="10.00" fill="#000000">_columns &gt;</text>
</g>
<!-- Node1 -->
<g id="node2" class="node">
<title>Node1</title>
<g id="a_node2"><a xlink:href="classFastTM2IteratorBase.html" target="_top" xlink:title="FastTM2IteratorBase\l\&lt; P_numtype, N_rows,\l N_columns, const TinyMatrix\l\&lt; P_numtype, N_rows, N_columns \&gt; &amp;\&gt;">
<polygon fill="#ffffff" stroke="#000000" points="0,-.5 0,-52.5 150,-52.5 150,-.5 0,-.5"/>
<text text-anchor="start" x="8" y="-40.5" font-family="Helvetica,sans-Serif" font-size="10.00" fill="#000000">FastTM2IteratorBase</text>
<text text-anchor="start" x="8" y="-29.5" font-family="Helvetica,sans-Serif" font-size="10.00" fill="#000000">&lt; P_numtype, N_rows,</text>
<text text-anchor="start" x="8" y="-18.5" font-family="Helvetica,sans-Serif" font-size="10.00" fill="#000000"> N_columns, const TinyMatrix</text>
<text text-anchor="middle" x="75" y="-7.5" font-family="Helvetica,sans-Serif" font-size="10.00" fill="#000000">&lt; P_numtype, N_rows, N_columns &gt; &amp;&gt;</text>
</a>
</g>
</g>
<!-- Node1&#45;&gt;Node0 -->
<g id="edge1" class="edge">
<title>Node1&#45;&gt;Node0</title>
<path fill="none" stroke="#191970" d="M160.0785,-26.5C168.9637,-26.5 177.7202,-26.5 185.8781,-26.5"/>
<polygon fill="#191970" stroke="#191970" points="160.0171,-23.0001 150.0171,-26.5 160.0171,-30.0001 160.0171,-23.0001"/>
</g>
</g>
</svg>
