<?xml version="1.0" encoding="UTF-8" standalone="no"?>
<!DOCTYPE svg PUBLIC "-//W3C//DTD SVG 1.1//EN"
 "http://www.w3.org/Graphics/SVG/1.1/DTD/svg11.dtd">
<!-- Generated by graphviz version 2.40.1 (20161225.0304)
 -->
<!-- Title: _bz_FunctorExpr&lt; P_functor, P_expr, P_result &gt; Pages: 1 -->
<svg width="93pt" height="117pt"
 viewBox="0.00 0.00 93.00 117.00" xmlns="http://www.w3.org/2000/svg" xmlns:xlink="http://www.w3.org/1999/xlink">
<g id="graph0" class="graph" transform="scale(1 1) rotate(0) translate(4 113)">
<title>_bz_FunctorExpr&lt; P_functor, P_expr, P_result &gt;</title>
<polygon fill="#ffffff" stroke="transparent" points="-4,4 -4,-113 89,-113 89,4 -4,4"/>
<!-- Node1 -->
<g id="node1" class="node">
<title>Node1</title>
<polygon fill="#bfbfbf" stroke="#000000" points="0,-.5 0,-41.5 85,-41.5 85,-.5 0,-.5"/>
<text text-anchor="start" x="8" y="-29.5" font-family="Helvetica,sans-Serif" font-size="10.00" fill="#000000">_bz_FunctorExpr&lt; P</text>
<text text-anchor="start" x="8" y="-18.5" font-family="Helvetica,sans-Serif" font-size="10.00" fill="#000000">_functor, P_expr, P</text>
<text text-anchor="middle" x="42.5" y="-7.5" font-family="Helvetica,sans-Serif" font-size="10.00" fill="#000000">_result &gt;</text>
</g>
<!-- Node2 -->
<g id="node2" class="node">
<title>Node2</title>
<polygon fill="#ffffff" stroke="#bfbfbf" points="22.5,-89.5 22.5,-108.5 62.5,-108.5 62.5,-89.5 22.5,-89.5"/>
<text text-anchor="middle" x="42.5" y="-96.5" font-family="Helvetica,sans-Serif" font-size="10.00" fill="#000000">P_expr</text>
</g>
<!-- Node2&#45;&gt;Node1 -->
<g id="edge1" class="edge">
<title>Node2&#45;&gt;Node1</title>
<path fill="none" stroke="#9a32cd" stroke-dasharray="5,2" d="M42.5,-79.1881C42.5,-67.7521 42.5,-53.3843 42.5,-41.7873"/>
<polygon fill="#9a32cd" stroke="#9a32cd" points="39.0001,-79.4356 42.5,-89.4357 46.0001,-79.4357 39.0001,-79.4356"/>
<text text-anchor="middle" x="51" y="-63" font-family="Helvetica,sans-Serif" font-size="10.00" fill="#000000"> iter_</text>
</g>
</g>
</svg>
