<?xml version="1.0" encoding="UTF-8" standalone="no"?>
<!DOCTYPE svg PUBLIC "-//W3C//DTD SVG 1.1//EN"
 "http://www.w3.org/Graphics/SVG/1.1/DTD/svg11.dtd">
<!-- Generated by graphviz version 2.40.1 (20161225.0304)
 -->
<!-- Title: _bz_FunctorExpr2&lt; P_functor, P_expr1, P_expr2, P_result &gt; Pages: 1 -->
<svg width="114pt" height="117pt"
 viewBox="0.00 0.00 114.00 117.00" xmlns="http://www.w3.org/2000/svg" xmlns:xlink="http://www.w3.org/1999/xlink">
<g id="graph0" class="graph" transform="scale(1 1) rotate(0) translate(4 113)">
<title>_bz_FunctorExpr2&lt; P_functor, P_expr1, P_expr2, P_result &gt;</title>
<polygon fill="#ffffff" stroke="transparent" points="-4,4 -4,-113 110,-113 110,4 -4,4"/>
<!-- Node1 -->
<g id="node1" class="node">
<title>Node1</title>
<polygon fill="#bfbfbf" stroke="#000000" points="8.5,-.5 8.5,-41.5 97.5,-41.5 97.5,-.5 8.5,-.5"/>
<text text-anchor="start" x="16.5" y="-29.5" font-family="Helvetica,sans-Serif" font-size="10.00" fill="#000000">_bz_FunctorExpr2&lt; P</text>
<text text-anchor="start" x="16.5" y="-18.5" font-family="Helvetica,sans-Serif" font-size="10.00" fill="#000000">_functor, P_expr1, P</text>
<text text-anchor="middle" x="53" y="-7.5" font-family="Helvetica,sans-Serif" font-size="10.00" fill="#000000">_expr2, P_result &gt;</text>
</g>
<!-- Node2 -->
<g id="node2" class="node">
<title>Node2</title>
<polygon fill="#ffffff" stroke="#bfbfbf" points="0,-89.5 0,-108.5 44,-108.5 44,-89.5 0,-89.5"/>
<text text-anchor="middle" x="22" y="-96.5" font-family="Helvetica,sans-Serif" font-size="10.00" fill="#000000">P_expr1</text>
</g>
<!-- Node2&#45;&gt;Node1 -->
<g id="edge1" class="edge">
<title>Node2&#45;&gt;Node1</title>
<path fill="none" stroke="#9a32cd" stroke-dasharray="5,2" d="M29.5914,-79.899C34.1806,-68.3519 40.0333,-53.6259 44.7384,-41.7873"/>
<polygon fill="#9a32cd" stroke="#9a32cd" points="26.2421,-78.85 25.8012,-89.4357 32.7472,-81.4354 26.2421,-78.85"/>
<text text-anchor="middle" x="48.5" y="-63" font-family="Helvetica,sans-Serif" font-size="10.00" fill="#000000"> iter1_</text>
</g>
<!-- Node3 -->
<g id="node3" class="node">
<title>Node3</title>
<polygon fill="#ffffff" stroke="#bfbfbf" points="62,-89.5 62,-108.5 106,-108.5 106,-89.5 62,-89.5"/>
<text text-anchor="middle" x="84" y="-96.5" font-family="Helvetica,sans-Serif" font-size="10.00" fill="#000000">P_expr2</text>
</g>
<!-- Node3&#45;&gt;Node1 -->
<g id="edge2" class="edge">
<title>Node3&#45;&gt;Node1</title>
<path fill="none" stroke="#9a32cd" stroke-dasharray="5,2" d="M76.4086,-79.899C71.8194,-68.3519 65.9667,-53.6259 61.2616,-41.7873"/>
<polygon fill="#9a32cd" stroke="#9a32cd" points="73.2528,-81.4354 80.1988,-89.4357 79.7579,-78.85 73.2528,-81.4354"/>
<text text-anchor="middle" x="82.5" y="-63" font-family="Helvetica,sans-Serif" font-size="10.00" fill="#000000"> iter2_</text>
</g>
</g>
</svg>
