<?xml version="1.0" encoding="UTF-8" standalone="no"?>
<!DOCTYPE svg PUBLIC "-//W3C//DTD SVG 1.1//EN"
 "http://www.w3.org/Graphics/SVG/1.1/DTD/svg11.dtd">
<!-- Generated by graphviz version 2.40.1 (20161225.0304)
 -->
<!-- Title: FastTV2Iterator&lt; P_numtype, N_length &gt; Pages: 1 -->
<svg width="255pt" height="61pt"
 viewBox="0.00 0.00 255.00 61.00" xmlns="http://www.w3.org/2000/svg" xmlns:xlink="http://www.w3.org/1999/xlink">
<g id="graph0" class="graph" transform="scale(1 1) rotate(0) translate(4 57)">
<title>FastTV2Iterator&lt; P_numtype, N_length &gt;</title>
<polygon fill="#ffffff" stroke="transparent" points="-4,4 -4,-57 251,-57 251,4 -4,4"/>
<!-- Node0 -->
<g id="node1" class="node">
<title>Node0</title>
<polygon fill="#bfbfbf" stroke="#000000" points="157,-11.5 157,-41.5 247,-41.5 247,-11.5 157,-11.5"/>
<text text-anchor="start" x="165" y="-29.5" font-family="Helvetica,sans-Serif" font-size="10.00" fill="#000000">FastTV2Iterator&lt; P</text>
<text text-anchor="middle" x="202" y="-18.5" font-family="Helvetica,sans-Serif" font-size="10.00" fill="#000000">_numtype, N_length &gt;</text>
</g>
<!-- Node1 -->
<g id="node2" class="node">
<title>Node1</title>
<g id="a_node2"><a xlink:href="classFastTV2IteratorBase.html" target="_top" xlink:title="FastTV2IteratorBase\l\&lt; P_numtype, N_length,\l const TinyVector\&lt; P_numtype,\l N_length \&gt; &amp;\&gt;">
<polygon fill="#ffffff" stroke="#000000" points="0,-.5 0,-52.5 121,-52.5 121,-.5 0,-.5"/>
<text text-anchor="start" x="8" y="-40.5" font-family="Helvetica,sans-Serif" font-size="10.00" fill="#000000">FastTV2IteratorBase</text>
<text text-anchor="start" x="8" y="-29.5" font-family="Helvetica,sans-Serif" font-size="10.00" fill="#000000">&lt; P_numtype, N_length,</text>
<text text-anchor="start" x="8" y="-18.5" font-family="Helvetica,sans-Serif" font-size="10.00" fill="#000000"> const TinyVector&lt; P_numtype,</text>
<text text-anchor="middle" x="60.5" y="-7.5" font-family="Helvetica,sans-Serif" font-size="10.00" fill="#000000"> N_length &gt; &amp;&gt;</text>
</a>
</g>
</g>
<!-- Node1&#45;&gt;Node0 -->
<g id="edge1" class="edge">
<title>Node1&#45;&gt;Node0</title>
<path fill="none" stroke="#191970" d="M131.3751,-26.5C139.9569,-26.5 148.5363,-26.5 156.6081,-26.5"/>
<polygon fill="#191970" stroke="#191970" points="131.33,-23.0001 121.3299,-26.5 131.3299,-30.0001 131.33,-23.0001"/>
</g>
</g>
</svg>
