<?xml version="1.0" encoding="UTF-8" standalone="no"?>
<!DOCTYPE svg PUBLIC "-//W3C//DTD SVG 1.1//EN"
 "http://www.w3.org/Graphics/SVG/1.1/DTD/svg11.dtd">
<!-- Generated by graphviz version 2.40.1 (20161225.0304)
 -->
<!-- Title: FortranArray&lt; N_rank &gt; Pages: 1 -->
<svg width="196pt" height="253pt"
 viewBox="0.00 0.00 196.00 253.00" xmlns="http://www.w3.org/2000/svg" xmlns:xlink="http://www.w3.org/1999/xlink">
<g id="graph0" class="graph" transform="scale(1 1) rotate(0) translate(4 249)">
<title>FortranArray&lt; N_rank &gt;</title>
<polygon fill="#ffffff" stroke="transparent" points="-4,4 -4,-249 192,-249 192,4 -4,4"/>
<!-- Node2 -->
<g id="node1" class="node">
<title>Node2</title>
<polygon fill="#bfbfbf" stroke="#000000" points="44.5,-.5 44.5,-19.5 140.5,-19.5 140.5,-.5 44.5,-.5"/>
<text text-anchor="middle" x="92.5" y="-7.5" font-family="Helvetica,sans-Serif" font-size="10.00" fill="#000000">FortranArray&lt; N_rank &gt;</text>
</g>
<!-- Node3 -->
<g id="node2" class="node">
<title>Node3</title>
<g id="a_node2"><a xlink:href="classGeneralArrayStorage.html" target="_top" xlink:title="Declaration of class GeneralArrayStorage&lt;N_rank&gt; ">
<polygon fill="#ffffff" stroke="#000000" points="49,-57.5 49,-87.5 136,-87.5 136,-57.5 49,-57.5"/>
<text text-anchor="start" x="57" y="-75.5" font-family="Helvetica,sans-Serif" font-size="10.00" fill="#000000">GeneralArrayStorage</text>
<text text-anchor="middle" x="92.5" y="-64.5" font-family="Helvetica,sans-Serif" font-size="10.00" fill="#000000">&lt; N_rank &gt;</text>
</a>
</g>
</g>
<!-- Node3&#45;&gt;Node2 -->
<g id="edge1" class="edge">
<title>Node3&#45;&gt;Node2</title>
<path fill="none" stroke="#191970" d="M92.5,-47.3498C92.5,-37.6481 92.5,-27.1303 92.5,-19.7356"/>
<polygon fill="#191970" stroke="#191970" points="89.0001,-47.3705 92.5,-57.3705 96.0001,-47.3705 89.0001,-47.3705"/>
</g>
<!-- Node4 -->
<g id="node3" class="node">
<title>Node4</title>
<g id="a_node3"><a xlink:href="classTinyVector.html" target="_top" xlink:title="TinyVector\&lt; bool, N\l_rank \&gt;">
<polygon fill="#ffffff" stroke="#000000" points="3,-146.5 3,-176.5 86,-176.5 86,-146.5 3,-146.5"/>
<text text-anchor="start" x="11" y="-164.5" font-family="Helvetica,sans-Serif" font-size="10.00" fill="#000000">TinyVector&lt; bool, N</text>
<text text-anchor="middle" x="44.5" y="-153.5" font-family="Helvetica,sans-Serif" font-size="10.00" fill="#000000">_rank &gt;</text>
</a>
</g>
</g>
<!-- Node4&#45;&gt;Node3 -->
<g id="edge2" class="edge">
<title>Node4&#45;&gt;Node3</title>
<path fill="none" stroke="#9a32cd" stroke-dasharray="5,2" d="M49.1047,-136.0887C51.5675,-126.2631 55.2162,-115.1943 60.5,-106 64.3472,-99.3054 69.809,-92.9209 75.1334,-87.5552"/>
<polygon fill="#9a32cd" stroke="#9a32cd" points="45.6293,-135.594 46.8764,-146.1152 52.4626,-137.1127 45.6293,-135.594"/>
<text text-anchor="middle" x="88.5" y="-114.5" font-family="Helvetica,sans-Serif" font-size="10.00" fill="#000000"> ascendingFlag_</text>
</g>
<!-- Node5 -->
<g id="node4" class="node">
<title>Node5</title>
<g id="a_node4"><a xlink:href="classETBase.html" target="_top" xlink:title="ETBase\&lt; TinyVector\l\&lt; bool, N_length \&gt; \&gt;">
<polygon fill="#ffffff" stroke="#000000" points="0,-214.5 0,-244.5 85,-244.5 85,-214.5 0,-214.5"/>
<text text-anchor="start" x="8" y="-232.5" font-family="Helvetica,sans-Serif" font-size="10.00" fill="#000000">ETBase&lt; TinyVector</text>
<text text-anchor="middle" x="42.5" y="-221.5" font-family="Helvetica,sans-Serif" font-size="10.00" fill="#000000">&lt; bool, N_length &gt; &gt;</text>
</a>
</g>
</g>
<!-- Node5&#45;&gt;Node4 -->
<g id="edge3" class="edge">
<title>Node5&#45;&gt;Node4</title>
<path fill="none" stroke="#191970" d="M43.2465,-204.1174C43.5195,-194.8378 43.8194,-184.6413 44.0574,-176.5492"/>
<polygon fill="#191970" stroke="#191970" points="39.7395,-204.31 42.9439,-214.4086 46.7364,-204.5158 39.7395,-204.31"/>
</g>
<!-- Node6 -->
<g id="node5" class="node">
<title>Node6</title>
<g id="a_node5"><a xlink:href="classTinyVector.html" target="_top" xlink:title="TinyVector\&lt; int, N\l_rank \&gt;">
<polygon fill="#ffffff" stroke="#000000" points="106.5,-146.5 106.5,-176.5 182.5,-176.5 182.5,-146.5 106.5,-146.5"/>
<text text-anchor="start" x="114.5" y="-164.5" font-family="Helvetica,sans-Serif" font-size="10.00" fill="#000000">TinyVector&lt; int, N</text>
<text text-anchor="middle" x="144.5" y="-153.5" font-family="Helvetica,sans-Serif" font-size="10.00" fill="#000000">_rank &gt;</text>
</a>
</g>
</g>
<!-- Node6&#45;&gt;Node3 -->
<g id="edge4" class="edge">
<title>Node6&#45;&gt;Node3</title>
<path fill="none" stroke="#9a32cd" stroke-dasharray="5,2" d="M133.0966,-136.8831C128.299,-127.0886 122.4532,-115.8318 116.5,-106 112.7202,-99.7576 108.1424,-93.1714 104.0025,-87.5063"/>
<polygon fill="#9a32cd" stroke="#9a32cd" points="130.029,-138.5808 137.5098,-146.0833 136.3404,-135.5532 130.029,-138.5808"/>
<text text-anchor="middle" x="144.5" y="-120" font-family="Helvetica,sans-Serif" font-size="10.00" fill="#000000"> base_</text>
<text text-anchor="middle" x="144.5" y="-109" font-family="Helvetica,sans-Serif" font-size="10.00" fill="#000000">ordering_</text>
</g>
<!-- Node7 -->
<g id="node6" class="node">
<title>Node7</title>
<g id="a_node6"><a xlink:href="classETBase.html" target="_top" xlink:title="ETBase\&lt; TinyVector\l\&lt; int, N_length \&gt; \&gt;">
<polygon fill="#ffffff" stroke="#000000" points="103,-214.5 103,-244.5 188,-244.5 188,-214.5 103,-214.5"/>
<text text-anchor="start" x="111" y="-232.5" font-family="Helvetica,sans-Serif" font-size="10.00" fill="#000000">ETBase&lt; TinyVector</text>
<text text-anchor="middle" x="145.5" y="-221.5" font-family="Helvetica,sans-Serif" font-size="10.00" fill="#000000">&lt; int, N_length &gt; &gt;</text>
</a>
</g>
</g>
<!-- Node7&#45;&gt;Node6 -->
<g id="edge5" class="edge">
<title>Node7&#45;&gt;Node6</title>
<path fill="none" stroke="#191970" d="M145.1267,-204.1174C144.9903,-194.8378 144.8403,-184.6413 144.7213,-176.5492"/>
<polygon fill="#191970" stroke="#191970" points="141.6313,-204.4612 145.2781,-214.4086 148.6306,-204.3582 141.6313,-204.4612"/>
</g>
</g>
</svg>
