<?xml version="1.0" encoding="UTF-8" standalone="no"?>
<!DOCTYPE svg PUBLIC "-//W3C//DTD SVG 1.1//EN"
 "http://www.w3.org/Graphics/SVG/1.1/DTD/svg11.dtd">
<!-- Generated by graphviz version 2.38.0 (20140413.2041)
 -->
<!-- Title: blitzdg::GMRESSolver::solve Pages: 1 -->
<svg width="265pt" height="158pt"
 viewBox="0.00 0.00 265.00 158.00" xmlns="http://www.w3.org/2000/svg" xmlns:xlink="http://www.w3.org/1999/xlink">
<g id="graph0" class="graph" transform="scale(1 1) rotate(0) translate(4 154)">
<title>blitzdg::GMRESSolver::solve</title>
<polygon fill="white" stroke="none" points="-4,4 -4,-154 261,-154 261,4 -4,4"/>
<!-- Node1 -->
<g id="node1" class="node"><title>Node1</title>
<polygon fill="#bfbfbf" stroke="black" points="0,-51 0,-81 116,-81 116,-51 0,-51"/>
<text text-anchor="start" x="8" y="-69" font-family="Helvetica,sans-Serif" font-size="10.00">blitzdg::GMRESSolver</text>
<text text-anchor="middle" x="58" y="-58" font-family="Helvetica,sans-Serif" font-size="10.00">::solve</text>
</g>
<!-- Node2 -->
<g id="node2" class="node"><title>Node2</title>
<g id="a_node2"><a xlink:href="LinAlgHelpers_8hpp.html#a1d922d2af405d2fcefc6199deacc3309" target="_top" xlink:title="Returns the two&#45;norm of the input vector x. ">
<polygon fill="white" stroke="black" points="165.5,-112.5 165.5,-131.5 243.5,-131.5 243.5,-112.5 165.5,-112.5"/>
<text text-anchor="middle" x="204.5" y="-119.5" font-family="Helvetica,sans-Serif" font-size="10.00">blitzdg::norm2</text>
</a>
</g>
</g>
<!-- Node1&#45;&gt;Node2 -->
<g id="edge1" class="edge"><title>Node1&#45;&gt;Node2</title>
<path fill="none" stroke="midnightblue" d="M96.4735,-81.1582C113.396,-87.9392 133.665,-95.9719 152,-103 157.117,-104.961 162.533,-107 167.856,-108.983"/>
<polygon fill="midnightblue" stroke="midnightblue" points="166.66,-112.272 177.253,-112.462 169.09,-105.707 166.66,-112.272"/>
</g>
<!-- Node3 -->
<g id="node3" class="node"><title>Node3</title>
<g id="a_node3"><a xlink:href="LinAlgHelpers_8hpp.html#a49c827120dc5b64ae8cfd96d95ca1128" target="_top" xlink:title="Applies a Givens rotation &#160;to the tuple . ">
<polygon fill="white" stroke="black" points="152,-56.5 152,-75.5 257,-75.5 257,-56.5 152,-56.5"/>
<text text-anchor="middle" x="204.5" y="-63.5" font-family="Helvetica,sans-Serif" font-size="10.00">blitzdg::applyGivens</text>
</a>
</g>
</g>
<!-- Node1&#45;&gt;Node3 -->
<g id="edge3" class="edge"><title>Node1&#45;&gt;Node3</title>
<path fill="none" stroke="midnightblue" d="M116.11,-66C124.523,-66 133.222,-66 141.724,-66"/>
<polygon fill="midnightblue" stroke="midnightblue" points="141.963,-69.5001 151.963,-66 141.963,-62.5001 141.963,-69.5001"/>
</g>
<!-- Node4 -->
<g id="node4" class="node"><title>Node4</title>
<g id="a_node4"><a xlink:href="LinAlgHelpers_8hpp.html#a97694164030daa4ffedf310888bf0021" target="_top" xlink:title="Given Cartesian coordinates , computes the parameters &#160;of the associated Givens rotation. ">
<polygon fill="white" stroke="black" points="161,-0.5 161,-19.5 248,-19.5 248,-0.5 161,-0.5"/>
<text text-anchor="middle" x="204.5" y="-7.5" font-family="Helvetica,sans-Serif" font-size="10.00">blitzdg::DROTG</text>
</a>
</g>
</g>
<!-- Node1&#45;&gt;Node4 -->
<g id="edge5" class="edge"><title>Node1&#45;&gt;Node4</title>
<path fill="none" stroke="midnightblue" d="M97.7233,-50.993C120.052,-42.3397 147.87,-31.5589 169.374,-23.2253"/>
<polygon fill="midnightblue" stroke="midnightblue" points="170.708,-26.4621 178.767,-19.585 168.178,-19.9351 170.708,-26.4621"/>
</g>
<!-- Node2&#45;&gt;Node2 -->
<g id="edge2" class="edge"><title>Node2&#45;&gt;Node2</title>
<path fill="none" stroke="midnightblue" d="M181.997,-131.757C171.05,-140.565 178.551,-150 204.5,-150 221.529,-150 230.613,-145.937 231.753,-140.654"/>
<polygon fill="midnightblue" stroke="midnightblue" points="234.8,-138.93 227.003,-131.757 228.625,-142.227 234.8,-138.93"/>
</g>
<!-- Node3&#45;&gt;Node3 -->
<g id="edge4" class="edge"><title>Node3&#45;&gt;Node3</title>
<path fill="none" stroke="midnightblue" d="M181.997,-75.7571C171.05,-84.5653 178.551,-94 204.5,-94 221.529,-94 230.613,-89.9368 231.753,-84.6539"/>
<polygon fill="midnightblue" stroke="midnightblue" points="234.8,-82.9303 227.003,-75.7571 228.625,-86.227 234.8,-82.9303"/>
</g>
<!-- Node4&#45;&gt;Node4 -->
<g id="edge6" class="edge"><title>Node4&#45;&gt;Node4</title>
<path fill="none" stroke="midnightblue" d="M181.997,-19.7571C171.05,-28.5653 178.551,-38 204.5,-38 221.529,-38 230.613,-33.9368 231.753,-28.6539"/>
<polygon fill="midnightblue" stroke="midnightblue" points="234.8,-26.9303 227.003,-19.7571 228.625,-30.227 234.8,-26.9303"/>
</g>
</g>
</svg>
