<?xml version="1.0" encoding="UTF-8" standalone="no"?>
<!DOCTYPE svg PUBLIC "-//W3C//DTD SVG 1.1//EN"
 "http://www.w3.org/Graphics/SVG/1.1/DTD/svg11.dtd">
<!-- Generated by graphviz version 2.40.1 (20161225.0304)
 -->
<!-- Title: TinyMatrix::_tm_evaluate Pages: 1 -->
<svg width="365pt" height="39pt"
 viewBox="0.00 0.00 365.00 39.00" xmlns="http://www.w3.org/2000/svg" xmlns:xlink="http://www.w3.org/1999/xlink">
<g id="graph0" class="graph" transform="scale(1 1) rotate(0) translate(4 35)">
<title>TinyMatrix::_tm_evaluate</title>
<polygon fill="#ffffff" stroke="transparent" points="-4,4 -4,-35 361,-35 361,4 -4,4"/>
<!-- Node0 -->
<g id="node1" class="node">
<title>Node0</title>
<polygon fill="#bfbfbf" stroke="#000000" points="0,-6 0,-25 100,-25 100,-6 0,-6"/>
<text text-anchor="middle" x="50" y="-13" font-family="Helvetica,sans-Serif" font-size="10.00" fill="#000000">TinyMatrix::_tm_evaluate</text>
</g>
<!-- Node1 -->
<g id="node2" class="node">
<title>Node1</title>
<g id="a_node2"><a xlink:href="struct__tm__evaluator.html#a7d693e7c5d175e980e39b9b7f14b8913" target="_top" xlink:title="The select_evaluation function redirects expressions that do not contains solely TinyMatrix operands ...">
<polygon fill="#ffffff" stroke="#000000" points="136,-.5 136,-30.5 224,-30.5 224,-.5 136,-.5"/>
<text text-anchor="start" x="144" y="-18.5" font-family="Helvetica,sans-Serif" font-size="10.00" fill="#000000">_tm_evaluator::select</text>
<text text-anchor="middle" x="180" y="-7.5" font-family="Helvetica,sans-Serif" font-size="10.00" fill="#000000">_evaluation</text>
</a>
</g>
</g>
<!-- Node0&#45;&gt;Node1 -->
<g id="edge1" class="edge">
<title>Node0&#45;&gt;Node1</title>
<path fill="none" stroke="#191970" d="M100.2614,-15.5C108.5919,-15.5 117.2634,-15.5 125.6885,-15.5"/>
<polygon fill="#191970" stroke="#191970" points="125.8037,-19.0001 135.8037,-15.5 125.8037,-12.0001 125.8037,-19.0001"/>
</g>
<!-- Node2 -->
<g id="node3" class="node">
<title>Node2</title>
<g id="a_node3"><a xlink:href="struct__tm__evaluator.html#a416ea85773d61ddac30f6e4eced6d2f5" target="_top" xlink:title="This version of the evaluation function assumes that the TinyMatrixs have appropriate alignment (as w...">
<polygon fill="#ffffff" stroke="#000000" points="260,-.5 260,-30.5 357,-30.5 357,-.5 260,-.5"/>
<text text-anchor="start" x="268" y="-18.5" font-family="Helvetica,sans-Serif" font-size="10.00" fill="#000000">_tm_evaluator::evaluate</text>
<text text-anchor="middle" x="308.5" y="-7.5" font-family="Helvetica,sans-Serif" font-size="10.00" fill="#000000">_aligned</text>
</a>
</g>
</g>
<!-- Node1&#45;&gt;Node2 -->
<g id="edge2" class="edge">
<title>Node1&#45;&gt;Node2</title>
<path fill="none" stroke="#191970" d="M224.2224,-15.5C232.3773,-15.5 241.0104,-15.5 249.5194,-15.5"/>
<polygon fill="#191970" stroke="#191970" points="249.7966,-19.0001 259.7966,-15.5 249.7965,-12.0001 249.7966,-19.0001"/>
</g>
</g>
</svg>
