<?xml version="1.0" encoding="UTF-8" standalone="no"?>
<!DOCTYPE svg PUBLIC "-//W3C//DTD SVG 1.1//EN"
 "http://www.w3.org/Graphics/SVG/1.1/DTD/svg11.dtd">
<!-- Generated by graphviz version 2.40.1 (20161225.0304)
 -->
<!-- Title: div4n_et2&lt; P_expr1, P_expr2, P_numtype &gt; Pages: 1 -->
<svg width="128pt" height="106pt"
 viewBox="0.00 0.00 128.00 106.00" xmlns="http://www.w3.org/2000/svg" xmlns:xlink="http://www.w3.org/1999/xlink">
<g id="graph0" class="graph" transform="scale(1 1) rotate(0) translate(4 102)">
<title>div4n_et2&lt; P_expr1, P_expr2, P_numtype &gt;</title>
<polygon fill="#ffffff" stroke="transparent" points="-4,4 -4,-102 124,-102 124,4 -4,4"/>
<!-- Node0 -->
<g id="node1" class="node">
<title>Node0</title>
<polygon fill="#bfbfbf" stroke="#000000" points="12.5,-.5 12.5,-30.5 107.5,-30.5 107.5,-.5 12.5,-.5"/>
<text text-anchor="start" x="20.5" y="-18.5" font-family="Helvetica,sans-Serif" font-size="10.00" fill="#000000">div4n_et2&lt; P_expr1,</text>
<text text-anchor="middle" x="60" y="-7.5" font-family="Helvetica,sans-Serif" font-size="10.00" fill="#000000"> P_expr2, P_numtype &gt;</text>
</g>
<!-- Node1 -->
<g id="node2" class="node">
<title>Node1</title>
<g id="a_node2"><a xlink:href="class__bz__StencilExpr2.html" target="_top" xlink:title="_bz_StencilExpr2\&lt; P\l_expr1, P_expr2, P_numtype \&gt;">
<polygon fill="#ffffff" stroke="#000000" points="0,-67.5 0,-97.5 120,-97.5 120,-67.5 0,-67.5"/>
<text text-anchor="start" x="8" y="-85.5" font-family="Helvetica,sans-Serif" font-size="10.00" fill="#000000">_bz_StencilExpr2&lt; P</text>
<text text-anchor="middle" x="60" y="-74.5" font-family="Helvetica,sans-Serif" font-size="10.00" fill="#000000">_expr1, P_expr2, P_numtype &gt;</text>
</a>
</g>
</g>
<!-- Node1&#45;&gt;Node0 -->
<g id="edge1" class="edge">
<title>Node1&#45;&gt;Node0</title>
<path fill="none" stroke="#191970" d="M60,-57.0249C60,-48.128 60,-38.4287 60,-30.6432"/>
<polygon fill="#191970" stroke="#191970" points="56.5001,-57.2966 60,-67.2967 63.5001,-57.2967 56.5001,-57.2966"/>
</g>
</g>
</svg>
