<?xml version="1.0" encoding="UTF-8" standalone="no"?>
<!DOCTYPE svg PUBLIC "-//W3C//DTD SVG 1.1//EN"
 "http://www.w3.org/Graphics/SVG/1.1/DTD/svg11.dtd">
<!-- Generated by graphviz version 2.40.1 (20161225.0304)
 -->
<!-- Title: GeneralArrayStorage&lt; N_rank &gt; Pages: 1 -->
<svg width="214pt" height="106pt"
 viewBox="0.00 0.00 213.50 106.00" xmlns="http://www.w3.org/2000/svg" xmlns:xlink="http://www.w3.org/1999/xlink">
<g id="graph0" class="graph" transform="scale(1 1) rotate(0) translate(4 102)">
<title>GeneralArrayStorage&lt; N_rank &gt;</title>
<polygon fill="#ffffff" stroke="transparent" points="-4,4 -4,-102 209.5,-102 209.5,4 -4,4"/>
<!-- Node0 -->
<g id="node1" class="node">
<title>Node0</title>
<polygon fill="#bfbfbf" stroke="#000000" points="58,-67.5 58,-97.5 145,-97.5 145,-67.5 58,-67.5"/>
<text text-anchor="start" x="66" y="-85.5" font-family="Helvetica,sans-Serif" font-size="10.00" fill="#000000">GeneralArrayStorage</text>
<text text-anchor="middle" x="101.5" y="-74.5" font-family="Helvetica,sans-Serif" font-size="10.00" fill="#000000">&lt; N_rank &gt;</text>
</g>
<!-- Node1 -->
<g id="node2" class="node">
<title>Node1</title>
<g id="a_node2"><a xlink:href="classColumnMajorArray.html" target="_top" xlink:title="Class ColumnMajorArray specializes GeneralArrayStorage to provide column major arrays (column major o...">
<polygon fill="#ffffff" stroke="#000000" points="0,-.5 0,-30.5 91,-30.5 91,-.5 0,-.5"/>
<text text-anchor="start" x="8" y="-18.5" font-family="Helvetica,sans-Serif" font-size="10.00" fill="#000000">ColumnMajorArray&lt; N</text>
<text text-anchor="middle" x="45.5" y="-7.5" font-family="Helvetica,sans-Serif" font-size="10.00" fill="#000000">_rank &gt;</text>
</a>
</g>
</g>
<!-- Node0&#45;&gt;Node1 -->
<g id="edge1" class="edge">
<title>Node0&#45;&gt;Node1</title>
<path fill="none" stroke="#191970" d="M82.1515,-59.3509C74.2089,-49.8482 65.2364,-39.1132 58.157,-30.6432"/>
<polygon fill="#191970" stroke="#191970" points="79.6941,-61.8684 88.7927,-67.2967 85.0651,-57.3792 79.6941,-61.8684"/>
</g>
<!-- Node2 -->
<g id="node3" class="node">
<title>Node2</title>
<g id="a_node3"><a xlink:href="classFortranArray.html" target="_top" xlink:title="Class FortranArray specializes GeneralArrayStorage to provide Fortran style arrays (column major orde...">
<polygon fill="#ffffff" stroke="#000000" points="109.5,-6 109.5,-25 205.5,-25 205.5,-6 109.5,-6"/>
<text text-anchor="middle" x="157.5" y="-13" font-family="Helvetica,sans-Serif" font-size="10.00" fill="#000000">FortranArray&lt; N_rank &gt;</text>
</a>
</g>
</g>
<!-- Node0&#45;&gt;Node2 -->
<g id="edge2" class="edge">
<title>Node0&#45;&gt;Node2</title>
<path fill="none" stroke="#191970" d="M120.7029,-59.5252C130.5585,-47.7336 142.0327,-34.0055 149.5138,-25.055"/>
<polygon fill="#191970" stroke="#191970" points="117.9349,-57.3792 114.2073,-67.2967 123.3059,-61.8684 117.9349,-57.3792"/>
</g>
</g>
</svg>
