<?xml version="1.0" encoding="UTF-8" standalone="no"?>
<!DOCTYPE svg PUBLIC "-//W3C//DTD SVG 1.1//EN"
 "http://www.w3.org/Graphics/SVG/1.1/DTD/svg11.dtd">
<!-- Generated by graphviz version 2.40.1 (20161225.0304)
 -->
<!-- Title: mixed24_et&lt; P_expr &gt; Pages: 1 -->
<svg width="100pt" height="174pt"
 viewBox="0.00 0.00 100.00 174.00" xmlns="http://www.w3.org/2000/svg" xmlns:xlink="http://www.w3.org/1999/xlink">
<g id="graph0" class="graph" transform="scale(1 1) rotate(0) translate(4 170)">
<title>mixed24_et&lt; P_expr &gt;</title>
<polygon fill="#ffffff" stroke="transparent" points="-4,4 -4,-170 96,-170 96,4 -4,4"/>
<!-- Node2 -->
<g id="node1" class="node">
<title>Node2</title>
<polygon fill="#bfbfbf" stroke="#000000" points="0,-.5 0,-19.5 92,-19.5 92,-.5 0,-.5"/>
<text text-anchor="middle" x="46" y="-7.5" font-family="Helvetica,sans-Serif" font-size="10.00" fill="#000000">mixed24_et&lt; P_expr &gt;</text>
</g>
<!-- Node3 -->
<g id="node2" class="node">
<title>Node3</title>
<g id="a_node2"><a xlink:href="class__bz__StencilExpr.html" target="_top" xlink:title="_bz_StencilExpr\&lt; P\l_expr, _bz_P_expr::T\l_numtype \&gt;">
<polygon fill="#ffffff" stroke="#000000" points="2,-57.5 2,-98.5 90,-98.5 90,-57.5 2,-57.5"/>
<text text-anchor="start" x="10" y="-86.5" font-family="Helvetica,sans-Serif" font-size="10.00" fill="#000000">_bz_StencilExpr&lt; P</text>
<text text-anchor="start" x="10" y="-75.5" font-family="Helvetica,sans-Serif" font-size="10.00" fill="#000000">_expr, _bz_P_expr::T</text>
<text text-anchor="middle" x="46" y="-64.5" font-family="Helvetica,sans-Serif" font-size="10.00" fill="#000000">_numtype &gt;</text>
</a>
</g>
</g>
<!-- Node3&#45;&gt;Node2 -->
<g id="edge1" class="edge">
<title>Node3&#45;&gt;Node2</title>
<path fill="none" stroke="#191970" d="M46,-47.1423C46,-37.1999 46,-26.896 46,-19.6705"/>
<polygon fill="#191970" stroke="#191970" points="42.5001,-47.2282 46,-57.2283 49.5001,-47.2283 42.5001,-47.2282"/>
</g>
<!-- Node4 -->
<g id="node3" class="node">
<title>Node4</title>
<polygon fill="#ffffff" stroke="#bfbfbf" points="26,-146.5 26,-165.5 66,-165.5 66,-146.5 26,-146.5"/>
<text text-anchor="middle" x="46" y="-153.5" font-family="Helvetica,sans-Serif" font-size="10.00" fill="#000000">P_expr</text>
</g>
<!-- Node4&#45;&gt;Node3 -->
<g id="edge2" class="edge">
<title>Node4&#45;&gt;Node3</title>
<path fill="none" stroke="#9a32cd" stroke-dasharray="5,2" d="M46,-136.1881C46,-124.7521 46,-110.3843 46,-98.7873"/>
<polygon fill="#9a32cd" stroke="#9a32cd" points="42.5001,-136.4356 46,-146.4357 49.5001,-136.4357 42.5001,-136.4356"/>
<text text-anchor="middle" x="54.5" y="-120" font-family="Helvetica,sans-Serif" font-size="10.00" fill="#000000"> iter_</text>
</g>
</g>
</svg>
