<?xml version="1.0" encoding="UTF-8" standalone="no"?>
<!DOCTYPE svg PUBLIC "-//W3C//DTD SVG 1.1//EN"
 "http://www.w3.org/Graphics/SVG/1.1/DTD/svg11.dtd">
<!-- Generated by graphviz version 2.40.1 (20161225.0304)
 -->
<!-- Title: FastTM2CopyIterator&lt; P_numtype, N_rows, N_columns &gt; Pages: 1 -->
<svg width="282pt" height="61pt"
 viewBox="0.00 0.00 282.00 61.00" xmlns="http://www.w3.org/2000/svg" xmlns:xlink="http://www.w3.org/1999/xlink">
<g id="graph0" class="graph" transform="scale(1 1) rotate(0) translate(4 57)">
<title>FastTM2CopyIterator&lt; P_numtype, N_rows, N_columns &gt;</title>
<polygon fill="#ffffff" stroke="transparent" points="-4,4 -4,-57 278,-57 278,4 -4,4"/>
<!-- Node0 -->
<g id="node1" class="node">
<title>Node0</title>
<polygon fill="#bfbfbf" stroke="#000000" points="181,-6 181,-47 274,-47 274,-6 181,-6"/>
<text text-anchor="start" x="189" y="-35" font-family="Helvetica,sans-Serif" font-size="10.00" fill="#000000">FastTM2CopyIterator</text>
<text text-anchor="start" x="189" y="-24" font-family="Helvetica,sans-Serif" font-size="10.00" fill="#000000">&lt; P_numtype, N_rows,</text>
<text text-anchor="middle" x="227.5" y="-13" font-family="Helvetica,sans-Serif" font-size="10.00" fill="#000000"> N_columns &gt;</text>
</g>
<!-- Node1 -->
<g id="node2" class="node">
<title>Node1</title>
<g id="a_node2"><a xlink:href="classFastTM2IteratorBase.html" target="_top" xlink:title="FastTM2IteratorBase\l\&lt; P_numtype, N_rows,\l N_columns, const TinyMatrix\l\&lt; P_numtype, N_rows, N_columns \&gt; \&gt;">
<polygon fill="#ffffff" stroke="#000000" points="0,-.5 0,-52.5 145,-52.5 145,-.5 0,-.5"/>
<text text-anchor="start" x="8" y="-40.5" font-family="Helvetica,sans-Serif" font-size="10.00" fill="#000000">FastTM2IteratorBase</text>
<text text-anchor="start" x="8" y="-29.5" font-family="Helvetica,sans-Serif" font-size="10.00" fill="#000000">&lt; P_numtype, N_rows,</text>
<text text-anchor="start" x="8" y="-18.5" font-family="Helvetica,sans-Serif" font-size="10.00" fill="#000000"> N_columns, const TinyMatrix</text>
<text text-anchor="middle" x="72.5" y="-7.5" font-family="Helvetica,sans-Serif" font-size="10.00" fill="#000000">&lt; P_numtype, N_rows, N_columns &gt; &gt;</text>
</a>
</g>
</g>
<!-- Node1&#45;&gt;Node0 -->
<g id="edge1" class="edge">
<title>Node1&#45;&gt;Node0</title>
<path fill="none" stroke="#191970" d="M155.258,-26.5C163.9773,-26.5 172.6074,-26.5 180.7042,-26.5"/>
<polygon fill="#191970" stroke="#191970" points="155.008,-23.0001 145.008,-26.5 155.0079,-30.0001 155.008,-23.0001"/>
</g>
</g>
</svg>
