<?xml version="1.0" encoding="UTF-8" standalone="no"?>
<!DOCTYPE svg PUBLIC "-//W3C//DTD SVG 1.1//EN"
 "http://www.w3.org/Graphics/SVG/1.1/DTD/svg11.dtd">
<!-- Generated by graphviz version 2.40.1 (20161225.0304)
 -->
<!-- Title: Vector&lt; P_numtype &gt; Pages: 1 -->
<svg width="522pt" height="137pt"
 viewBox="0.00 0.00 522.00 137.00" xmlns="http://www.w3.org/2000/svg" xmlns:xlink="http://www.w3.org/1999/xlink">
<g id="graph0" class="graph" transform="scale(1 1) rotate(0) translate(4 133)">
<title>Vector&lt; P_numtype &gt;</title>
<polygon fill="#ffffff" stroke="transparent" points="-4,4 -4,-133 518,-133 518,4 -4,4"/>
<!-- Node3 -->
<g id="node1" class="node">
<title>Node3</title>
<polygon fill="#bfbfbf" stroke="#000000" points="425,-55 425,-74 514,-74 514,-55 425,-55"/>
<text text-anchor="middle" x="469.5" y="-62" font-family="Helvetica,sans-Serif" font-size="10.00" fill="#000000">Vector&lt; P_numtype &gt;</text>
</g>
<!-- Node4 -->
<g id="node2" class="node">
<title>Node4</title>
<g id="a_node2"><a xlink:href="classArray.html" target="_top" xlink:title="Array\&lt; P_numtype, 1 \&gt;">
<polygon fill="#ffffff" stroke="#000000" points="294,-55 294,-74 388,-74 388,-55 294,-55"/>
<text text-anchor="middle" x="341" y="-62" font-family="Helvetica,sans-Serif" font-size="10.00" fill="#000000">Array&lt; P_numtype, 1 &gt;</text>
</a>
</g>
</g>
<!-- Node4&#45;&gt;Node3 -->
<g id="edge1" class="edge">
<title>Node4&#45;&gt;Node3</title>
<path fill="none" stroke="#191970" d="M398.1462,-64.5C407.1318,-64.5 416.3051,-64.5 424.9513,-64.5"/>
<polygon fill="#191970" stroke="#191970" points="398.119,-61.0001 388.119,-64.5 398.119,-68.0001 398.119,-61.0001"/>
</g>
<!-- Node5 -->
<g id="node3" class="node">
<title>Node5</title>
<g id="a_node3"><a xlink:href="classMemoryBlockReference.html" target="_top" xlink:title="MemoryBlockReference\l\&lt; P_numtype \&gt;">
<polygon fill="#ffffff" stroke="#000000" points="134,-98.5 134,-128.5 231,-128.5 231,-98.5 134,-98.5"/>
<text text-anchor="start" x="142" y="-116.5" font-family="Helvetica,sans-Serif" font-size="10.00" fill="#000000">MemoryBlockReference</text>
<text text-anchor="middle" x="182.5" y="-105.5" font-family="Helvetica,sans-Serif" font-size="10.00" fill="#000000">&lt; P_numtype &gt;</text>
</a>
</g>
</g>
<!-- Node5&#45;&gt;Node4 -->
<g id="edge2" class="edge">
<title>Node5&#45;&gt;Node4</title>
<path fill="none" stroke="#191970" d="M241.1763,-95.3603C264.5342,-88.1393 290.4538,-80.1263 310.0265,-74.0754"/>
<polygon fill="#191970" stroke="#191970" points="239.8686,-92.1011 231.3485,-98.3986 241.9362,-98.7888 239.8686,-92.1011"/>
</g>
<!-- Node6 -->
<g id="node4" class="node">
<title>Node6</title>
<g id="a_node4"><a xlink:href="classTinyVector.html" target="_top" xlink:title="TinyVector\&lt; diffType,\l N_rank \&gt;">
<polygon fill="#ffffff" stroke="#000000" points="138.5,-49.5 138.5,-79.5 226.5,-79.5 226.5,-49.5 138.5,-49.5"/>
<text text-anchor="start" x="146.5" y="-67.5" font-family="Helvetica,sans-Serif" font-size="10.00" fill="#000000">TinyVector&lt; diffType,</text>
<text text-anchor="middle" x="182.5" y="-56.5" font-family="Helvetica,sans-Serif" font-size="10.00" fill="#000000"> N_rank &gt;</text>
</a>
</g>
</g>
<!-- Node6&#45;&gt;Node4 -->
<g id="edge3" class="edge">
<title>Node6&#45;&gt;Node4</title>
<path fill="none" stroke="#9a32cd" stroke-dasharray="5,2" d="M236.7096,-64.5C255.2455,-64.5 275.8183,-64.5 293.76,-64.5"/>
<polygon fill="#9a32cd" stroke="#9a32cd" points="236.6511,-61.0001 226.6511,-64.5 236.6511,-68.0001 236.6511,-61.0001"/>
<text text-anchor="middle" x="262.5" y="-67.5" font-family="Helvetica,sans-Serif" font-size="10.00" fill="#000000"> stride_</text>
</g>
<!-- Node7 -->
<g id="node5" class="node">
<title>Node7</title>
<g id="a_node5"><a xlink:href="classETBase.html" target="_top" xlink:title="ETBase\&lt; TinyVector\l\&lt; diffType, N_length \&gt; \&gt;">
<polygon fill="#ffffff" stroke="#000000" points="0,-49.5 0,-79.5 97,-79.5 97,-49.5 0,-49.5"/>
<text text-anchor="start" x="8" y="-67.5" font-family="Helvetica,sans-Serif" font-size="10.00" fill="#000000">ETBase&lt; TinyVector</text>
<text text-anchor="middle" x="48.5" y="-56.5" font-family="Helvetica,sans-Serif" font-size="10.00" fill="#000000">&lt; diffType, N_length &gt; &gt;</text>
</a>
</g>
</g>
<!-- Node7&#45;&gt;Node6 -->
<g id="edge4" class="edge">
<title>Node7&#45;&gt;Node6</title>
<path fill="none" stroke="#191970" d="M107.5204,-64.5C117.9089,-64.5 128.557,-64.5 138.4465,-64.5"/>
<polygon fill="#191970" stroke="#191970" points="107.2562,-61.0001 97.2561,-64.5 107.2561,-68.0001 107.2562,-61.0001"/>
</g>
<!-- Node8 -->
<g id="node6" class="node">
<title>Node8</title>
<g id="a_node6"><a xlink:href="classTinyVector.html" target="_top" xlink:title="TinyVector\&lt; int, N\l_rank \&gt;">
<polygon fill="#ffffff" stroke="#000000" points="144.5,-.5 144.5,-30.5 220.5,-30.5 220.5,-.5 144.5,-.5"/>
<text text-anchor="start" x="152.5" y="-18.5" font-family="Helvetica,sans-Serif" font-size="10.00" fill="#000000">TinyVector&lt; int, N</text>
<text text-anchor="middle" x="182.5" y="-7.5" font-family="Helvetica,sans-Serif" font-size="10.00" fill="#000000">_rank &gt;</text>
</a>
</g>
</g>
<!-- Node8&#45;&gt;Node4 -->
<g id="edge5" class="edge">
<title>Node8&#45;&gt;Node4</title>
<path fill="none" stroke="#9a32cd" stroke-dasharray="5,2" d="M230.4947,-30.3375C256.3627,-38.3345 287.5211,-47.9671 310.1487,-54.9624"/>
<polygon fill="#9a32cd" stroke="#9a32cd" points="231.4561,-26.9713 220.8684,-27.3615 229.3885,-33.659 231.4561,-26.9713"/>
<text text-anchor="middle" x="262.5" y="-46.5" font-family="Helvetica,sans-Serif" font-size="10.00" fill="#000000"> length_</text>
</g>
<!-- Node9 -->
<g id="node7" class="node">
<title>Node9</title>
<g id="a_node7"><a xlink:href="classETBase.html" target="_top" xlink:title="ETBase\&lt; TinyVector\l\&lt; int, N_length \&gt; \&gt;">
<polygon fill="#ffffff" stroke="#000000" points="6,-.5 6,-30.5 91,-30.5 91,-.5 6,-.5"/>
<text text-anchor="start" x="14" y="-18.5" font-family="Helvetica,sans-Serif" font-size="10.00" fill="#000000">ETBase&lt; TinyVector</text>
<text text-anchor="middle" x="48.5" y="-7.5" font-family="Helvetica,sans-Serif" font-size="10.00" fill="#000000">&lt; int, N_length &gt; &gt;</text>
</a>
</g>
</g>
<!-- Node9&#45;&gt;Node8 -->
<g id="edge6" class="edge">
<title>Node9&#45;&gt;Node8</title>
<path fill="none" stroke="#191970" d="M101.4661,-15.5C115.7431,-15.5 130.9103,-15.5 144.2145,-15.5"/>
<polygon fill="#191970" stroke="#191970" points="101.2669,-12.0001 91.2669,-15.5 101.2668,-19.0001 101.2669,-12.0001"/>
</g>
</g>
</svg>
