<?xml version="1.0" encoding="UTF-8" standalone="no"?>
<!DOCTYPE svg PUBLIC "-//W3C//DTD SVG 1.1//EN"
 "http://www.w3.org/Graphics/SVG/1.1/DTD/svg11.dtd">
<!-- Generated by graphviz version 2.40.1 (20161225.0304)
 -->
<!-- Title: BenchmarkExt&lt; P_parameter &gt; Pages: 1 -->
<svg width="633pt" height="466pt"
 viewBox="0.00 0.00 633.00 466.00" xmlns="http://www.w3.org/2000/svg" xmlns:xlink="http://www.w3.org/1999/xlink">
<g id="graph0" class="graph" transform="scale(1 1) rotate(0) translate(4 462)">
<title>BenchmarkExt&lt; P_parameter &gt;</title>
<polygon fill="#ffffff" stroke="transparent" points="-4,4 -4,-462 629,-462 629,4 -4,4"/>
<!-- Node1 -->
<g id="node1" class="node">
<title>Node1</title>
<polygon fill="#bfbfbf" stroke="#000000" points="503,-195 503,-214 625,-214 625,-195 503,-195"/>
<text text-anchor="middle" x="564" y="-202" font-family="Helvetica,sans-Serif" font-size="10.00" fill="#000000">BenchmarkExt&lt; P_parameter &gt;</text>
</g>
<!-- Node2 -->
<g id="node2" class="node">
<title>Node2</title>
<g id="a_node2"><a xlink:href="classArray.html" target="_top" xlink:title="Array\&lt; long long, 2 \&gt;">
<polygon fill="#ffffff" stroke="#000000" points="300.5,-232 300.5,-251 386.5,-251 386.5,-232 300.5,-232"/>
<text text-anchor="middle" x="343.5" y="-239" font-family="Helvetica,sans-Serif" font-size="10.00" fill="#000000">Array&lt; long long, 2 &gt;</text>
</a>
</g>
</g>
<!-- Node2&#45;&gt;Node1 -->
<g id="edge1" class="edge">
<title>Node2&#45;&gt;Node1</title>
<path fill="none" stroke="#9a32cd" stroke-dasharray="5,2" d="M396.5846,-232.5924C430.027,-226.9807 473.1705,-219.7412 507.284,-214.017"/>
<polygon fill="#9a32cd" stroke="#9a32cd" points="395.821,-229.1715 386.5381,-234.2782 396.9794,-236.075 395.821,-229.1715"/>
<text text-anchor="middle" x="448" y="-243.5" font-family="Helvetica,sans-Serif" font-size="10.00" fill="#000000"> flops_</text>
<text text-anchor="middle" x="448" y="-232.5" font-family="Helvetica,sans-Serif" font-size="10.00" fill="#000000">instr_</text>
</g>
<!-- Node3 -->
<g id="node3" class="node">
<title>Node3</title>
<g id="a_node3"><a xlink:href="classMemoryBlockReference.html" target="_top" xlink:title="MemoryBlockReference\l\&lt; long long \&gt;">
<polygon fill="#ffffff" stroke="#000000" points="134,-322.5 134,-352.5 231,-352.5 231,-322.5 134,-322.5"/>
<text text-anchor="start" x="142" y="-340.5" font-family="Helvetica,sans-Serif" font-size="10.00" fill="#000000">MemoryBlockReference</text>
<text text-anchor="middle" x="182.5" y="-329.5" font-family="Helvetica,sans-Serif" font-size="10.00" fill="#000000">&lt; long long &gt;</text>
</a>
</g>
</g>
<!-- Node3&#45;&gt;Node2 -->
<g id="edge2" class="edge">
<title>Node3&#45;&gt;Node2</title>
<path fill="none" stroke="#191970" d="M240.9773,-328.1332C253.4279,-324.1693 265.8618,-318.5282 276,-310.5 288.7927,-300.3699 283.2323,-290.7608 294,-278.5 303.6287,-267.5362 316.9971,-257.779 327.4143,-251.0407"/>
<polygon fill="#191970" stroke="#191970" points="239.6908,-324.8604 231.0322,-330.9661 241.6085,-331.5926 239.6908,-324.8604"/>
</g>
<!-- Node4 -->
<g id="node4" class="node">
<title>Node4</title>
<g id="a_node4"><a xlink:href="classTinyVector.html" target="_top" xlink:title="TinyVector\&lt; diffType,\l N_rank \&gt;">
<polygon fill="#ffffff" stroke="#000000" points="138.5,-160.5 138.5,-190.5 226.5,-190.5 226.5,-160.5 138.5,-160.5"/>
<text text-anchor="start" x="146.5" y="-178.5" font-family="Helvetica,sans-Serif" font-size="10.00" fill="#000000">TinyVector&lt; diffType,</text>
<text text-anchor="middle" x="182.5" y="-167.5" font-family="Helvetica,sans-Serif" font-size="10.00" fill="#000000"> N_rank &gt;</text>
</a>
</g>
</g>
<!-- Node4&#45;&gt;Node2 -->
<g id="edge3" class="edge">
<title>Node4&#45;&gt;Node2</title>
<path fill="none" stroke="#9a32cd" stroke-dasharray="5,2" d="M236.7087,-186.7837C249.8612,-190.3891 263.6774,-194.9284 276,-200.5 284.7609,-204.4612 285.8486,-207.4011 294,-212.5 304.6395,-219.1553 316.797,-226.2845 326.4009,-231.8089"/>
<polygon fill="#9a32cd" stroke="#9a32cd" points="237.3753,-183.3406 226.816,-184.207 235.6109,-190.1146 237.3753,-183.3406"/>
<text text-anchor="middle" x="262.5" y="-203.5" font-family="Helvetica,sans-Serif" font-size="10.00" fill="#000000"> stride_</text>
</g>
<!-- Node8 -->
<g id="node8" class="node">
<title>Node8</title>
<g id="a_node8"><a xlink:href="classArray.html" target="_top" xlink:title="Array\&lt; double, 1 \&gt;">
<polygon fill="#ffffff" stroke="#000000" points="304.5,-378 304.5,-397 382.5,-397 382.5,-378 304.5,-378"/>
<text text-anchor="middle" x="343.5" y="-385" font-family="Helvetica,sans-Serif" font-size="10.00" fill="#000000">Array&lt; double, 1 &gt;</text>
</a>
</g>
</g>
<!-- Node4&#45;&gt;Node8 -->
<g id="edge9" class="edge">
<title>Node4&#45;&gt;Node8</title>
<path fill="none" stroke="#9a32cd" stroke-dasharray="5,2" d="M212.4665,-197.2042C219.5074,-203.6432 226.3151,-211.215 231,-219.5 251.2935,-255.3877 227.7613,-275.1635 249,-310.5 267.6426,-341.5172 303.5441,-365.4534 325.3297,-377.9291"/>
<polygon fill="#9a32cd" stroke="#9a32cd" points="214.7026,-194.5112 204.8241,-190.6816 210.1583,-199.8357 214.7026,-194.5112"/>
<text text-anchor="middle" x="262.5" y="-343.5" font-family="Helvetica,sans-Serif" font-size="10.00" fill="#000000"> stride_</text>
</g>
<!-- Node11 -->
<g id="node11" class="node">
<title>Node11</title>
<g id="a_node11"><a xlink:href="classArray.html" target="_top" xlink:title="Array\&lt; double, 2 \&gt;">
<polygon fill="#ffffff" stroke="#000000" points="304.5,-288 304.5,-307 382.5,-307 382.5,-288 304.5,-288"/>
<text text-anchor="middle" x="343.5" y="-295" font-family="Helvetica,sans-Serif" font-size="10.00" fill="#000000">Array&lt; double, 2 &gt;</text>
</a>
</g>
</g>
<!-- Node4&#45;&gt;Node11 -->
<g id="edge14" class="edge">
<title>Node4&#45;&gt;Node11</title>
<path fill="none" stroke="#9a32cd" stroke-dasharray="5,2" d="M210.2757,-197.4834C217.5669,-204.073 225.047,-211.6501 231,-219.5 241.8092,-233.7535 236.0669,-243.1414 249,-255.5 265.2252,-271.0045 288.1361,-281.3814 307.3352,-287.9417"/>
<polygon fill="#9a32cd" stroke="#9a32cd" points="212.3665,-194.6637 202.5193,-190.7544 207.7794,-199.9513 212.3665,-194.6637"/>
<text text-anchor="middle" x="262.5" y="-275.5" font-family="Helvetica,sans-Serif" font-size="10.00" fill="#000000"> stride_</text>
</g>
<!-- Node12 -->
<g id="node12" class="node">
<title>Node12</title>
<g id="a_node12"><a xlink:href="classArray.html" target="_top" xlink:title="Array\&lt; T_parameter, 1 \&gt;">
<polygon fill="#ffffff" stroke="#000000" points="294,-184 294,-203 393,-203 393,-184 294,-184"/>
<text text-anchor="middle" x="343.5" y="-191" font-family="Helvetica,sans-Serif" font-size="10.00" fill="#000000">Array&lt; T_parameter, 1 &gt;</text>
</a>
</g>
</g>
<!-- Node4&#45;&gt;Node12 -->
<g id="edge18" class="edge">
<title>Node4&#45;&gt;Node12</title>
<path fill="none" stroke="#9a32cd" stroke-dasharray="5,2" d="M197.1845,-151.9736C215.5818,-125.4986 248.085,-88.6228 276,-108.5 295.922,-122.6857 279.0436,-141.1498 294,-160.5 301.5796,-170.3063 312.9298,-178.1701 322.8502,-183.7579"/>
<polygon fill="#9a32cd" stroke="#9a32cd" points="194.1616,-150.1978 191.5132,-160.4564 199.9808,-154.0884 194.1616,-150.1978"/>
<text text-anchor="middle" x="262.5" y="-111.5" font-family="Helvetica,sans-Serif" font-size="10.00" fill="#000000"> stride_</text>
</g>
<!-- Node14 -->
<g id="node14" class="node">
<title>Node14</title>
<g id="a_node14"><a xlink:href="classArray.html" target="_top" xlink:title="Array\&lt; long, 1 \&gt;">
<polygon fill="#ffffff" stroke="#000000" points="308.5,-132 308.5,-151 378.5,-151 378.5,-132 308.5,-132"/>
<text text-anchor="middle" x="343.5" y="-139" font-family="Helvetica,sans-Serif" font-size="10.00" fill="#000000">Array&lt; long, 1 &gt;</text>
</a>
</g>
</g>
<!-- Node4&#45;&gt;Node14 -->
<g id="edge22" class="edge">
<title>Node4&#45;&gt;Node14</title>
<path fill="none" stroke="#9a32cd" stroke-dasharray="5,2" d="M193.3292,-151.1133C204.1022,-130.1958 222.8114,-101.4452 249,-88.5 259.7575,-83.1825 265.7195,-82.3103 276,-88.5 290.648,-97.3193 281.2043,-111.1591 294,-122.5 298.3399,-126.3465 303.5416,-129.4505 308.9181,-131.9445"/>
<polygon fill="#9a32cd" stroke="#9a32cd" points="190.0528,-149.8465 188.8098,-160.3681 196.3429,-152.9181 190.0528,-149.8465"/>
<text text-anchor="middle" x="262.5" y="-91.5" font-family="Helvetica,sans-Serif" font-size="10.00" fill="#000000"> stride_</text>
</g>
<!-- Node5 -->
<g id="node5" class="node">
<title>Node5</title>
<g id="a_node5"><a xlink:href="classETBase.html" target="_top" xlink:title="ETBase\&lt; TinyVector\l\&lt; diffType, N_length \&gt; \&gt;">
<polygon fill="#ffffff" stroke="#000000" points="0,-160.5 0,-190.5 97,-190.5 97,-160.5 0,-160.5"/>
<text text-anchor="start" x="8" y="-178.5" font-family="Helvetica,sans-Serif" font-size="10.00" fill="#000000">ETBase&lt; TinyVector</text>
<text text-anchor="middle" x="48.5" y="-167.5" font-family="Helvetica,sans-Serif" font-size="10.00" fill="#000000">&lt; diffType, N_length &gt; &gt;</text>
</a>
</g>
</g>
<!-- Node5&#45;&gt;Node4 -->
<g id="edge4" class="edge">
<title>Node5&#45;&gt;Node4</title>
<path fill="none" stroke="#191970" d="M107.5204,-175.5C117.9089,-175.5 128.557,-175.5 138.4465,-175.5"/>
<polygon fill="#191970" stroke="#191970" points="107.2562,-172.0001 97.2561,-175.5 107.2561,-179.0001 107.2562,-172.0001"/>
</g>
<!-- Node6 -->
<g id="node6" class="node">
<title>Node6</title>
<g id="a_node6"><a xlink:href="classTinyVector.html" target="_top" xlink:title="TinyVector\&lt; int, N\l_rank \&gt;">
<polygon fill="#ffffff" stroke="#000000" points="144.5,-228.5 144.5,-258.5 220.5,-258.5 220.5,-228.5 144.5,-228.5"/>
<text text-anchor="start" x="152.5" y="-246.5" font-family="Helvetica,sans-Serif" font-size="10.00" fill="#000000">TinyVector&lt; int, N</text>
<text text-anchor="middle" x="182.5" y="-235.5" font-family="Helvetica,sans-Serif" font-size="10.00" fill="#000000">_rank &gt;</text>
</a>
</g>
</g>
<!-- Node6&#45;&gt;Node2 -->
<g id="edge5" class="edge">
<title>Node6&#45;&gt;Node2</title>
<path fill="none" stroke="#9a32cd" stroke-dasharray="5,2" d="M230.8137,-242.8998C252.8775,-242.6257 278.803,-242.3037 300.221,-242.0376"/>
<polygon fill="#9a32cd" stroke="#9a32cd" points="230.6105,-239.402 220.6548,-243.026 230.6975,-246.4014 230.6105,-239.402"/>
<text text-anchor="middle" x="262.5" y="-245.5" font-family="Helvetica,sans-Serif" font-size="10.00" fill="#000000"> length_</text>
</g>
<!-- Node6&#45;&gt;Node8 -->
<g id="edge10" class="edge">
<title>Node6&#45;&gt;Node8</title>
<path fill="none" stroke="#9a32cd" stroke-dasharray="5,2" d="M201.618,-266.6354C211.6012,-279.7082 223.3059,-296.7477 231,-313.5 244.2277,-342.3006 224.4411,-362.4674 249,-382.5 264.1499,-394.8577 285.6347,-396.807 304.2913,-395.3542"/>
<polygon fill="#9a32cd" stroke="#9a32cd" points="204.29,-264.3707 195.3657,-258.6604 198.7811,-268.6896 204.29,-264.3707"/>
<text text-anchor="middle" x="262.5" y="-396.5" font-family="Helvetica,sans-Serif" font-size="10.00" fill="#000000"> length_</text>
</g>
<!-- Node6&#45;&gt;Node11 -->
<g id="edge15" class="edge">
<title>Node6&#45;&gt;Node11</title>
<path fill="none" stroke="#9a32cd" stroke-dasharray="5,2" d="M206.9488,-265.0089C218.8255,-274.1943 233.7971,-284.0399 249,-289.5 266.5103,-295.7888 286.9746,-298.0845 304.3734,-298.687"/>
<polygon fill="#9a32cd" stroke="#9a32cd" points="208.8702,-262.0621 198.8888,-258.5093 204.4761,-267.5111 208.8702,-262.0621"/>
<text text-anchor="middle" x="262.5" y="-298.5" font-family="Helvetica,sans-Serif" font-size="10.00" fill="#000000"> length_</text>
</g>
<!-- Node6&#45;&gt;Node12 -->
<g id="edge19" class="edge">
<title>Node6&#45;&gt;Node12</title>
<path fill="none" stroke="#9a32cd" stroke-dasharray="5,2" d="M230.2191,-228.6804C256.9706,-220.3725 289.5469,-210.2556 312.8871,-203.0071"/>
<polygon fill="#9a32cd" stroke="#9a32cd" points="229.1667,-225.3422 220.6548,-231.6507 231.2429,-232.0273 229.1667,-225.3422"/>
<text text-anchor="middle" x="262.5" y="-223.5" font-family="Helvetica,sans-Serif" font-size="10.00" fill="#000000"> length_</text>
</g>
<!-- Node6&#45;&gt;Node14 -->
<g id="edge23" class="edge">
<title>Node6&#45;&gt;Node14</title>
<path fill="none" stroke="#9a32cd" stroke-dasharray="5,2" d="M209.1387,-221.7711C216.5337,-215.2461 224.352,-207.8583 231,-200.5 240.1786,-190.3407 238.068,-183.743 249,-175.5 266.4022,-162.3784 289.3406,-153.9646 308.2598,-148.7896"/>
<polygon fill="#9a32cd" stroke="#9a32cd" points="206.6514,-219.2941 201.3558,-228.4706 211.2181,-224.5993 206.6514,-219.2941"/>
<text text-anchor="middle" x="262.5" y="-178.5" font-family="Helvetica,sans-Serif" font-size="10.00" fill="#000000"> length_</text>
</g>
<!-- Node7 -->
<g id="node7" class="node">
<title>Node7</title>
<g id="a_node7"><a xlink:href="classETBase.html" target="_top" xlink:title="ETBase\&lt; TinyVector\l\&lt; int, N_length \&gt; \&gt;">
<polygon fill="#ffffff" stroke="#000000" points="6,-228.5 6,-258.5 91,-258.5 91,-228.5 6,-228.5"/>
<text text-anchor="start" x="14" y="-246.5" font-family="Helvetica,sans-Serif" font-size="10.00" fill="#000000">ETBase&lt; TinyVector</text>
<text text-anchor="middle" x="48.5" y="-235.5" font-family="Helvetica,sans-Serif" font-size="10.00" fill="#000000">&lt; int, N_length &gt; &gt;</text>
</a>
</g>
</g>
<!-- Node7&#45;&gt;Node6 -->
<g id="edge6" class="edge">
<title>Node7&#45;&gt;Node6</title>
<path fill="none" stroke="#191970" d="M101.4661,-243.5C115.7431,-243.5 130.9103,-243.5 144.2145,-243.5"/>
<polygon fill="#191970" stroke="#191970" points="101.2669,-240.0001 91.2669,-243.5 101.2668,-247.0001 101.2669,-240.0001"/>
</g>
<!-- Node8&#45;&gt;Node1 -->
<g id="edge7" class="edge">
<title>Node8&#45;&gt;Node1</title>
<path fill="none" stroke="#9a32cd" stroke-dasharray="5,2" d="M370.5334,-372.961C400.2149,-356.33 448.5018,-327.2659 485,-295.5 515.1424,-269.2659 544.2825,-231.5223 557.137,-214.0469"/>
<polygon fill="#9a32cd" stroke="#9a32cd" points="368.6433,-370.0067 361.5888,-377.9114 372.033,-376.1312 368.6433,-370.0067"/>
<text text-anchor="middle" x="448" y="-349.5" font-family="Helvetica,sans-Serif" font-size="10.00" fill="#000000"> flopsPerIteration_</text>
</g>
<!-- Node9 -->
<g id="node9" class="node">
<title>Node9</title>
<g id="a_node9"><a xlink:href="classMemoryBlockReference.html" target="_top" xlink:title="MemoryBlockReference\l\&lt; double \&gt;">
<polygon fill="#ffffff" stroke="#000000" points="134,-427.5 134,-457.5 231,-457.5 231,-427.5 134,-427.5"/>
<text text-anchor="start" x="142" y="-445.5" font-family="Helvetica,sans-Serif" font-size="10.00" fill="#000000">MemoryBlockReference</text>
<text text-anchor="middle" x="182.5" y="-434.5" font-family="Helvetica,sans-Serif" font-size="10.00" fill="#000000">&lt; double &gt;</text>
</a>
</g>
</g>
<!-- Node9&#45;&gt;Node8 -->
<g id="edge8" class="edge">
<title>Node9&#45;&gt;Node8</title>
<path fill="none" stroke="#191970" d="M241.3287,-447.7601C253.0654,-447.1829 265.1206,-445.3818 276,-441.5 300.8768,-432.624 323.4523,-410.4291 335.1326,-397.424"/>
<polygon fill="#191970" stroke="#191970" points="241.0585,-444.2649 231.1341,-447.9738 241.2053,-451.2634 241.0585,-444.2649"/>
</g>
<!-- Node9&#45;&gt;Node11 -->
<g id="edge13" class="edge">
<title>Node9&#45;&gt;Node11</title>
<path fill="none" stroke="#191970" d="M240.8843,-429.3595C253.5604,-424.4207 266.1153,-417.6783 276,-408.5 290.286,-395.235 284.3838,-385.4581 294,-368.5 307.0452,-345.4948 325.5497,-320.5632 335.8411,-307.2275"/>
<polygon fill="#191970" stroke="#191970" points="239.4617,-426.1504 231.2094,-432.795 241.8042,-432.7469 239.4617,-426.1504"/>
</g>
<!-- Node10 -->
<g id="node10" class="node">
<title>Node10</title>
<polygon fill="#ffffff" stroke="#bfbfbf" points="326,-94 326,-113 361,-113 361,-94 326,-94"/>
<text text-anchor="middle" x="343.5" y="-101" font-family="Helvetica,sans-Serif" font-size="10.00" fill="#000000">string</text>
</g>
<!-- Node10&#45;&gt;Node1 -->
<g id="edge11" class="edge">
<title>Node10&#45;&gt;Node1</title>
<path fill="none" stroke="#9a32cd" stroke-dasharray="5,2" d="M371.2587,-99.1666C401.0328,-95.8606 448.8973,-94.5051 485,-112.5 521.9302,-130.9074 548.6194,-175.0572 559.1013,-194.7412"/>
<polygon fill="#9a32cd" stroke="#9a32cd" points="370.6462,-95.716 361.1632,-100.4406 371.5227,-102.6609 370.6462,-95.716"/>
<text text-anchor="start" x="411" y="-148.5" font-family="Helvetica,sans-Serif" font-size="10.00" fill="#000000"> parameterDescription</text>
<text text-anchor="middle" x="448" y="-137.5" font-family="Helvetica,sans-Serif" font-size="10.00" fill="#000000">_</text>
<text text-anchor="middle" x="448" y="-126.5" font-family="Helvetica,sans-Serif" font-size="10.00" fill="#000000">description_</text>
<text text-anchor="middle" x="448" y="-115.5" font-family="Helvetica,sans-Serif" font-size="10.00" fill="#000000">depvar_</text>
</g>
<!-- Node11&#45;&gt;Node1 -->
<g id="edge12" class="edge">
<title>Node11&#45;&gt;Node1</title>
<path fill="none" stroke="#9a32cd" stroke-dasharray="5,2" d="M392.6107,-286.5943C420.4227,-279.5218 455.4507,-269.084 485,-255.5 510.0673,-243.9764 536.4667,-225.4414 551.5148,-214.1744"/>
<polygon fill="#9a32cd" stroke="#9a32cd" points="391.5784,-283.2442 382.7142,-289.0473 393.2625,-290.0386 391.5784,-283.2442"/>
<text text-anchor="middle" x="448" y="-283.5" font-family="Helvetica,sans-Serif" font-size="10.00" fill="#000000"> times_</text>
</g>
<!-- Node12&#45;&gt;Node1 -->
<g id="edge16" class="edge">
<title>Node12&#45;&gt;Node1</title>
<path fill="none" stroke="#9a32cd" stroke-dasharray="5,2" d="M403.4215,-196.4893C434.1956,-198.0245 471.6306,-199.892 502.6122,-201.4376"/>
<polygon fill="#9a32cd" stroke="#9a32cd" points="403.4214,-192.985 393.2594,-195.9823 403.0726,-199.9763 403.4214,-192.985"/>
<text text-anchor="middle" x="448" y="-202.5" font-family="Helvetica,sans-Serif" font-size="10.00" fill="#000000"> parameters_</text>
</g>
<!-- Node13 -->
<g id="node13" class="node">
<title>Node13</title>
<g id="a_node13"><a xlink:href="classMemoryBlockReference.html" target="_top" xlink:title="MemoryBlockReference\l\&lt; T_parameter \&gt;">
<polygon fill="#ffffff" stroke="#000000" points="134,-59.5 134,-89.5 231,-89.5 231,-59.5 134,-59.5"/>
<text text-anchor="start" x="142" y="-77.5" font-family="Helvetica,sans-Serif" font-size="10.00" fill="#000000">MemoryBlockReference</text>
<text text-anchor="middle" x="182.5" y="-66.5" font-family="Helvetica,sans-Serif" font-size="10.00" fill="#000000">&lt; T_parameter &gt;</text>
</a>
</g>
</g>
<!-- Node13&#45;&gt;Node12 -->
<g id="edge17" class="edge">
<title>Node13&#45;&gt;Node12</title>
<path fill="none" stroke="#191970" d="M241.2037,-80.5555C253.9857,-84.3238 266.5071,-90.2477 276,-99.5 296.2425,-119.2295 277.2358,-137.741 294,-160.5 301.3506,-170.4791 312.6864,-178.3538 322.6563,-183.9042"/>
<polygon fill="#191970" stroke="#191970" points="241.978,-77.1411 231.4244,-78.0746 240.2566,-83.9262 241.978,-77.1411"/>
</g>
<!-- Node14&#45;&gt;Node1 -->
<g id="edge20" class="edge">
<title>Node14&#45;&gt;Node1</title>
<path fill="none" stroke="#9a32cd" stroke-dasharray="5,2" d="M387.4107,-153.8176C415.3634,-161.6823 452.3272,-172.1259 485,-181.5 500.2412,-185.8728 517.1176,-190.7776 531.3459,-194.9311"/>
<polygon fill="#9a32cd" stroke="#9a32cd" points="388.1188,-150.3811 377.5447,-151.0435 386.224,-157.1197 388.1188,-150.3811"/>
<text text-anchor="middle" x="448" y="-184.5" font-family="Helvetica,sans-Serif" font-size="10.00" fill="#000000"> iterations_</text>
</g>
<!-- Node15 -->
<g id="node15" class="node">
<title>Node15</title>
<g id="a_node15"><a xlink:href="classMemoryBlockReference.html" target="_top" xlink:title="MemoryBlockReference\l\&lt; long \&gt;">
<polygon fill="#ffffff" stroke="#000000" points="134,-.5 134,-30.5 231,-30.5 231,-.5 134,-.5"/>
<text text-anchor="start" x="142" y="-18.5" font-family="Helvetica,sans-Serif" font-size="10.00" fill="#000000">MemoryBlockReference</text>
<text text-anchor="middle" x="182.5" y="-7.5" font-family="Helvetica,sans-Serif" font-size="10.00" fill="#000000">&lt; long &gt;</text>
</a>
</g>
</g>
<!-- Node15&#45;&gt;Node14 -->
<g id="edge21" class="edge">
<title>Node15&#45;&gt;Node14</title>
<path fill="none" stroke="#191970" d="M221.5878,-35.8719C240.0283,-47.0451 261.1829,-62.3299 276,-80.5 288.8346,-96.239 279.3665,-108.4179 294,-122.5 298.1123,-126.4573 303.1361,-129.6123 308.3887,-132.1214"/>
<polygon fill="#191970" stroke="#191970" points="223.191,-32.7548 212.7929,-30.7225 219.6541,-38.7956 223.191,-32.7548"/>
</g>
<!-- Node16 -->
<g id="node16" class="node">
<title>Node16</title>
<g id="a_node16"><a xlink:href="classTimer.html" target="_top" xlink:title="Timer">
<polygon fill="#ffffff" stroke="#000000" points="325.5,-56 325.5,-75 361.5,-75 361.5,-56 325.5,-56"/>
<text text-anchor="middle" x="343.5" y="-63" font-family="Helvetica,sans-Serif" font-size="10.00" fill="#000000">Timer</text>
</a>
</g>
</g>
<!-- Node16&#45;&gt;Node1 -->
<g id="edge24" class="edge">
<title>Node16&#45;&gt;Node1</title>
<path fill="none" stroke="#9a32cd" stroke-dasharray="5,2" d="M371.9204,-62.181C402.2585,-60.0853 450.6003,-61.0356 485,-82.5 528.6718,-109.75 552.9075,-171.0415 560.9513,-194.8169"/>
<polygon fill="#9a32cd" stroke="#9a32cd" points="371.2838,-58.7225 361.6169,-63.0586 371.8779,-65.6973 371.2838,-58.7225"/>
<text text-anchor="middle" x="448" y="-85.5" font-family="Helvetica,sans-Serif" font-size="10.00" fill="#000000"> timer_</text>
</g>
</g>
</svg>
