<?xml version="1.0" encoding="UTF-8" standalone="no"?>
<!DOCTYPE svg PUBLIC "-//W3C//DTD SVG 1.1//EN"
 "http://www.w3.org/Graphics/SVG/1.1/DTD/svg11.dtd">
<!-- Generated by graphviz version 2.40.1 (20161225.0304)
 -->
<!-- Title: ScalarOperand Pages: 1 -->
<svg width="75pt" height="84pt"
 viewBox="0.00 0.00 75.00 84.00" xmlns="http://www.w3.org/2000/svg" xmlns:xlink="http://www.w3.org/1999/xlink">
<g id="graph0" class="graph" transform="scale(1 1) rotate(0) translate(4 80)">
<title>ScalarOperand</title>
<polygon fill="#ffffff" stroke="transparent" points="-4,4 -4,-80 71,-80 71,4 -4,4"/>
<!-- Node0 -->
<g id="node1" class="node">
<title>Node0</title>
<polygon fill="#bfbfbf" stroke="#000000" points="0,-.5 0,-19.5 67,-19.5 67,-.5 0,-.5"/>
<text text-anchor="middle" x="33.5" y="-7.5" font-family="Helvetica,sans-Serif" font-size="10.00" fill="#000000">ScalarOperand</text>
</g>
<!-- Node1 -->
<g id="node2" class="node">
<title>Node1</title>
<g id="a_node2"><a xlink:href="classoperand.html" target="_top" xlink:title="operand">
<polygon fill="#ffffff" stroke="#000000" points="11.5,-56.5 11.5,-75.5 55.5,-75.5 55.5,-56.5 11.5,-56.5"/>
<text text-anchor="middle" x="33.5" y="-63.5" font-family="Helvetica,sans-Serif" font-size="10.00" fill="#000000">operand</text>
</a>
</g>
</g>
<!-- Node1&#45;&gt;Node0 -->
<g id="edge1" class="edge">
<title>Node1&#45;&gt;Node0</title>
<path fill="none" stroke="#191970" d="M27.0113,-46.1575C26.419,-37.155 26.8335,-26.9199 28.2549,-19.6427"/>
<polygon fill="#191970" stroke="#191970" points="23.5561,-46.739 28.2332,-56.2455 30.5053,-45.8972 23.5561,-46.739"/>
</g>
<!-- Node1&#45;&gt;Node0 -->
<g id="edge2" class="edge">
<title>Node1&#45;&gt;Node0</title>
<path fill="none" stroke="#191970" d="M39.9887,-46.1575C40.581,-37.155 40.1665,-26.9199 38.7451,-19.6427"/>
<polygon fill="#191970" stroke="#191970" points="36.4947,-45.8972 38.7668,-56.2455 43.4439,-46.739 36.4947,-45.8972"/>
</g>
</g>
</svg>
