<?xml version="1.0" encoding="UTF-8" standalone="no"?>
<!DOCTYPE svg PUBLIC "-//W3C//DTD SVG 1.1//EN"
 "http://www.w3.org/Graphics/SVG/1.1/DTD/svg11.dtd">
<!-- Generated by graphviz version 2.40.1 (20161225.0304)
 -->
<!-- Title: blitzdg::GMRESSolver::solve Pages: 1 -->
<svg width="250pt" height="102pt"
 viewBox="0.00 0.00 250.00 102.00" xmlns="http://www.w3.org/2000/svg" xmlns:xlink="http://www.w3.org/1999/xlink">
<g id="graph0" class="graph" transform="scale(1 1) rotate(0) translate(4 98)">
<title>blitzdg::GMRESSolver::solve</title>
<polygon fill="#ffffff" stroke="transparent" points="-4,4 -4,-98 246,-98 246,4 -4,4"/>
<!-- Node0 -->
<g id="node1" class="node">
<title>Node0</title>
<polygon fill="#bfbfbf" stroke="#000000" points="0,-23 0,-53 91,-53 91,-23 0,-23"/>
<text text-anchor="start" x="8" y="-41" font-family="Helvetica,sans-Serif" font-size="10.00" fill="#000000">blitzdg::GMRESSolver</text>
<text text-anchor="middle" x="45.5" y="-30" font-family="Helvetica,sans-Serif" font-size="10.00" fill="#000000">::solve</text>
</g>
<!-- Node1 -->
<g id="node2" class="node">
<title>Node1</title>
<g id="a_node2"><a xlink:href="GMRESSolver_8hpp.html#ab70e5e5b582121c2bf78c1583d175773" target="_top" xlink:title="Checks the input parameters in GMRESParams and throws an std::invalid_argument exception if any are o...">
<polygon fill="#ffffff" stroke="#000000" points="127,-56.5 127,-75.5 242,-75.5 242,-56.5 127,-56.5"/>
<text text-anchor="middle" x="184.5" y="-63.5" font-family="Helvetica,sans-Serif" font-size="10.00" fill="#000000">blitzdg::checkGMRESParams</text>
</a>
</g>
</g>
<!-- Node0&#45;&gt;Node1 -->
<g id="edge1" class="edge">
<title>Node0&#45;&gt;Node1</title>
<path fill="none" stroke="#191970" d="M91.0138,-47.1682C102.5191,-49.4859 115.024,-52.0048 127.0344,-54.4242"/>
<polygon fill="#191970" stroke="#191970" points="126.4797,-57.8827 136.9739,-56.4264 127.862,-51.0205 126.4797,-57.8827"/>
</g>
<!-- Node2 -->
<g id="node3" class="node">
<title>Node2</title>
<g id="a_node3"><a xlink:href="LinAlgHelpers_8hpp.html#a1d922d2af405d2fcefc6199deacc3309" target="_top" xlink:title="Returns the two&#45;norm of the input vector x. ">
<polygon fill="#ffffff" stroke="#000000" points="152.5,-.5 152.5,-19.5 216.5,-19.5 216.5,-.5 152.5,-.5"/>
<text text-anchor="middle" x="184.5" y="-7.5" font-family="Helvetica,sans-Serif" font-size="10.00" fill="#000000">blitzdg::norm2</text>
</a>
</g>
</g>
<!-- Node0&#45;&gt;Node2 -->
<g id="edge3" class="edge">
<title>Node0&#45;&gt;Node2</title>
<path fill="none" stroke="#191970" d="M91.0138,-28.8318C107.381,-25.5348 125.7712,-21.8303 141.8827,-18.5848"/>
<polygon fill="#191970" stroke="#191970" points="142.9851,-21.9331 152.0971,-16.5272 141.6028,-15.0709 142.9851,-21.9331"/>
</g>
<!-- Node1&#45;&gt;Node1 -->
<g id="edge2" class="edge">
<title>Node1&#45;&gt;Node1</title>
<path fill="none" stroke="#191970" d="M163.2302,-75.7571C152.8827,-84.5653 159.9727,-94 184.5,-94 200.2128,-94 208.7693,-90.128 210.1695,-85.0292"/>
<polygon fill="#191970" stroke="#191970" points="213.2189,-83.2911 205.7698,-75.7571 206.8948,-86.292 213.2189,-83.2911"/>
</g>
<!-- Node2&#45;&gt;Node2 -->
<g id="edge4" class="edge">
<title>Node2&#45;&gt;Node2</title>
<path fill="none" stroke="#191970" d="M163.2302,-19.7571C152.8827,-28.5653 159.9727,-38 184.5,-38 200.2128,-38 208.7693,-34.128 210.1695,-29.0292"/>
<polygon fill="#191970" stroke="#191970" points="213.2189,-27.2911 205.7698,-19.7571 206.8948,-30.292 213.2189,-27.2911"/>
</g>
</g>
</svg>
