<?xml version="1.0" encoding="UTF-8" standalone="no"?>
<!DOCTYPE svg PUBLIC "-//W3C//DTD SVG 1.1//EN"
 "http://www.w3.org/Graphics/SVG/1.1/DTD/svg11.dtd">
<!-- Generated by graphviz version 2.40.1 (20161225.0304)
 -->
<!-- Title: ReduceMinIndexVector&lt; P_sourcetype, N &gt; Pages: 1 -->
<svg width="102pt" height="174pt"
 viewBox="0.00 0.00 102.00 174.00" xmlns="http://www.w3.org/2000/svg" xmlns:xlink="http://www.w3.org/1999/xlink">
<g id="graph0" class="graph" transform="scale(1 1) rotate(0) translate(4 170)">
<title>ReduceMinIndexVector&lt; P_sourcetype, N &gt;</title>
<polygon fill="#ffffff" stroke="transparent" points="-4,4 -4,-170 98,-170 98,4 -4,4"/>
<!-- Node1 -->
<g id="node1" class="node">
<title>Node1</title>
<polygon fill="#bfbfbf" stroke="#000000" points="0,-.5 0,-30.5 94,-30.5 94,-.5 0,-.5"/>
<text text-anchor="start" x="8" y="-18.5" font-family="Helvetica,sans-Serif" font-size="10.00" fill="#000000">ReduceMinIndexVector</text>
<text text-anchor="middle" x="47" y="-7.5" font-family="Helvetica,sans-Serif" font-size="10.00" fill="#000000">&lt; P_sourcetype, N &gt;</text>
</g>
<!-- Node2 -->
<g id="node2" class="node">
<title>Node2</title>
<g id="a_node2"><a xlink:href="classTinyVector.html" target="_top" xlink:title="TinyVector\&lt; int, N \&gt;">
<polygon fill="#ffffff" stroke="#000000" points="5.5,-78.5 5.5,-97.5 88.5,-97.5 88.5,-78.5 5.5,-78.5"/>
<text text-anchor="middle" x="47" y="-85.5" font-family="Helvetica,sans-Serif" font-size="10.00" fill="#000000">TinyVector&lt; int, N &gt;</text>
</a>
</g>
</g>
<!-- Node2&#45;&gt;Node1 -->
<g id="edge1" class="edge">
<title>Node2&#45;&gt;Node1</title>
<path fill="none" stroke="#9a32cd" stroke-dasharray="5,2" d="M47,-68.0177C47,-56.2164 47,-41.513 47,-30.668"/>
<polygon fill="#9a32cd" stroke="#9a32cd" points="43.5001,-68.2223 47,-78.2223 50.5001,-68.2224 43.5001,-68.2223"/>
<text text-anchor="middle" x="59.5" y="-52" font-family="Helvetica,sans-Serif" font-size="10.00" fill="#000000"> index_</text>
</g>
<!-- Node3 -->
<g id="node3" class="node">
<title>Node3</title>
<g id="a_node3"><a xlink:href="classETBase.html" target="_top" xlink:title="ETBase\&lt; TinyVector\l\&lt; int, N_length \&gt; \&gt;">
<polygon fill="#ffffff" stroke="#000000" points="4.5,-135.5 4.5,-165.5 89.5,-165.5 89.5,-135.5 4.5,-135.5"/>
<text text-anchor="start" x="12.5" y="-153.5" font-family="Helvetica,sans-Serif" font-size="10.00" fill="#000000">ETBase&lt; TinyVector</text>
<text text-anchor="middle" x="47" y="-142.5" font-family="Helvetica,sans-Serif" font-size="10.00" fill="#000000">&lt; int, N_length &gt; &gt;</text>
</a>
</g>
</g>
<!-- Node3&#45;&gt;Node2 -->
<g id="edge2" class="edge">
<title>Node3&#45;&gt;Node2</title>
<path fill="none" stroke="#191970" d="M47,-125.3498C47,-115.6481 47,-105.1303 47,-97.7356"/>
<polygon fill="#191970" stroke="#191970" points="43.5001,-125.3705 47,-135.3705 50.5001,-125.3705 43.5001,-125.3705"/>
</g>
</g>
</svg>
