<?xml version="1.0" encoding="UTF-8" standalone="no"?>
<!DOCTYPE svg PUBLIC "-//W3C//DTD SVG 1.1//EN"
 "http://www.w3.org/Graphics/SVG/1.1/DTD/svg11.dtd">
<!-- Generated by graphviz version 2.40.1 (20161225.0304)
 -->
<!-- Title: Laplacian3D4n_et&lt; P_expr, P_numtype &gt; Pages: 1 -->
<svg width="96pt" height="174pt"
 viewBox="0.00 0.00 96.00 174.00" xmlns="http://www.w3.org/2000/svg" xmlns:xlink="http://www.w3.org/1999/xlink">
<g id="graph0" class="graph" transform="scale(1 1) rotate(0) translate(4 170)">
<title>Laplacian3D4n_et&lt; P_expr, P_numtype &gt;</title>
<polygon fill="#ffffff" stroke="transparent" points="-4,4 -4,-170 92,-170 92,4 -4,4"/>
<!-- Node2 -->
<g id="node1" class="node">
<title>Node2</title>
<polygon fill="#bfbfbf" stroke="#000000" points="0,-.5 0,-30.5 88,-30.5 88,-.5 0,-.5"/>
<text text-anchor="start" x="8" y="-18.5" font-family="Helvetica,sans-Serif" font-size="10.00" fill="#000000">Laplacian3D4n_et&lt; P</text>
<text text-anchor="middle" x="44" y="-7.5" font-family="Helvetica,sans-Serif" font-size="10.00" fill="#000000">_expr, P_numtype &gt;</text>
</g>
<!-- Node3 -->
<g id="node2" class="node">
<title>Node3</title>
<g id="a_node2"><a xlink:href="class__bz__StencilExpr.html" target="_top" xlink:title="_bz_StencilExpr\&lt; P\l_expr, P_numtype \&gt;">
<polygon fill="#ffffff" stroke="#000000" points="2,-68.5 2,-98.5 86,-98.5 86,-68.5 2,-68.5"/>
<text text-anchor="start" x="10" y="-86.5" font-family="Helvetica,sans-Serif" font-size="10.00" fill="#000000">_bz_StencilExpr&lt; P</text>
<text text-anchor="middle" x="44" y="-75.5" font-family="Helvetica,sans-Serif" font-size="10.00" fill="#000000">_expr, P_numtype &gt;</text>
</a>
</g>
</g>
<!-- Node3&#45;&gt;Node2 -->
<g id="edge1" class="edge">
<title>Node3&#45;&gt;Node2</title>
<path fill="none" stroke="#191970" d="M44,-58.1174C44,-48.8378 44,-38.6413 44,-30.5492"/>
<polygon fill="#191970" stroke="#191970" points="40.5001,-58.4086 44,-68.4086 47.5001,-58.4086 40.5001,-58.4086"/>
</g>
<!-- Node4 -->
<g id="node3" class="node">
<title>Node4</title>
<polygon fill="#ffffff" stroke="#bfbfbf" points="24,-146.5 24,-165.5 64,-165.5 64,-146.5 24,-146.5"/>
<text text-anchor="middle" x="44" y="-153.5" font-family="Helvetica,sans-Serif" font-size="10.00" fill="#000000">P_expr</text>
</g>
<!-- Node4&#45;&gt;Node3 -->
<g id="edge2" class="edge">
<title>Node4&#45;&gt;Node3</title>
<path fill="none" stroke="#9a32cd" stroke-dasharray="5,2" d="M44,-136.0177C44,-124.2164 44,-109.513 44,-98.668"/>
<polygon fill="#9a32cd" stroke="#9a32cd" points="40.5001,-136.2223 44,-146.2223 47.5001,-136.2224 40.5001,-136.2223"/>
<text text-anchor="middle" x="52.5" y="-120" font-family="Helvetica,sans-Serif" font-size="10.00" fill="#000000"> iter_</text>
</g>
</g>
</svg>
