<?xml version="1.0" encoding="UTF-8" standalone="no"?>
<!DOCTYPE svg PUBLIC "-//W3C//DTD SVG 1.1//EN"
 "http://www.w3.org/Graphics/SVG/1.1/DTD/svg11.dtd">
<!-- Generated by graphviz version 2.40.1 (20161225.0304)
 -->
<!-- Title: ReduceMaxIndexVector&lt; P_sourcetype, N_rank &gt; Pages: 1 -->
<svg width="112pt" height="185pt"
 viewBox="0.00 0.00 112.00 185.00" xmlns="http://www.w3.org/2000/svg" xmlns:xlink="http://www.w3.org/1999/xlink">
<g id="graph0" class="graph" transform="scale(1 1) rotate(0) translate(4 181)">
<title>ReduceMaxIndexVector&lt; P_sourcetype, N_rank &gt;</title>
<polygon fill="#ffffff" stroke="transparent" points="-4,4 -4,-181 108,-181 108,4 -4,4"/>
<!-- Node1 -->
<g id="node1" class="node">
<title>Node1</title>
<polygon fill="#bfbfbf" stroke="#000000" points="0,-.5 0,-30.5 104,-30.5 104,-.5 0,-.5"/>
<text text-anchor="start" x="8" y="-18.5" font-family="Helvetica,sans-Serif" font-size="10.00" fill="#000000">ReduceMaxIndexVector</text>
<text text-anchor="middle" x="52" y="-7.5" font-family="Helvetica,sans-Serif" font-size="10.00" fill="#000000">&lt; P_sourcetype, N_rank &gt;</text>
</g>
<!-- Node2 -->
<g id="node2" class="node">
<title>Node2</title>
<g id="a_node2"><a xlink:href="classTinyVector.html" target="_top" xlink:title="TinyVector\&lt; int, N\l_rank \&gt;">
<polygon fill="#ffffff" stroke="#000000" points="14,-78.5 14,-108.5 90,-108.5 90,-78.5 14,-78.5"/>
<text text-anchor="start" x="22" y="-96.5" font-family="Helvetica,sans-Serif" font-size="10.00" fill="#000000">TinyVector&lt; int, N</text>
<text text-anchor="middle" x="52" y="-85.5" font-family="Helvetica,sans-Serif" font-size="10.00" fill="#000000">_rank &gt;</text>
</a>
</g>
</g>
<!-- Node2&#45;&gt;Node1 -->
<g id="edge1" class="edge">
<title>Node2&#45;&gt;Node1</title>
<path fill="none" stroke="#9a32cd" stroke-dasharray="5,2" d="M52,-68.2875C52,-55.9187 52,-41.4264 52,-30.7592"/>
<polygon fill="#9a32cd" stroke="#9a32cd" points="48.5001,-68.4608 52,-78.4608 55.5001,-68.4608 48.5001,-68.4608"/>
<text text-anchor="middle" x="64.5" y="-52" font-family="Helvetica,sans-Serif" font-size="10.00" fill="#000000"> index_</text>
</g>
<!-- Node3 -->
<g id="node3" class="node">
<title>Node3</title>
<g id="a_node3"><a xlink:href="classETBase.html" target="_top" xlink:title="ETBase\&lt; TinyVector\l\&lt; int, N_length \&gt; \&gt;">
<polygon fill="#ffffff" stroke="#000000" points="9.5,-146.5 9.5,-176.5 94.5,-176.5 94.5,-146.5 9.5,-146.5"/>
<text text-anchor="start" x="17.5" y="-164.5" font-family="Helvetica,sans-Serif" font-size="10.00" fill="#000000">ETBase&lt; TinyVector</text>
<text text-anchor="middle" x="52" y="-153.5" font-family="Helvetica,sans-Serif" font-size="10.00" fill="#000000">&lt; int, N_length &gt; &gt;</text>
</a>
</g>
</g>
<!-- Node3&#45;&gt;Node2 -->
<g id="edge2" class="edge">
<title>Node3&#45;&gt;Node2</title>
<path fill="none" stroke="#191970" d="M52,-136.1174C52,-126.8378 52,-116.6413 52,-108.5492"/>
<polygon fill="#191970" stroke="#191970" points="48.5001,-136.4086 52,-146.4086 55.5001,-136.4086 48.5001,-136.4086"/>
</g>
</g>
</svg>
