<?xml version="1.0" encoding="UTF-8" standalone="no"?>
<!DOCTYPE svg PUBLIC "-//W3C//DTD SVG 1.1//EN"
 "http://www.w3.org/Graphics/SVG/1.1/DTD/svg11.dtd">
<!-- Generated by graphviz version 2.40.1 (20161225.0304)
 -->
<!-- Title: FastTM2IteratorBase&lt; P_numtype, N_rows, N_columns, P_arraytype &gt; Pages: 1 -->
<svg width="168pt" height="128pt"
 viewBox="0.00 0.00 168.00 128.00" xmlns="http://www.w3.org/2000/svg" xmlns:xlink="http://www.w3.org/1999/xlink">
<g id="graph0" class="graph" transform="scale(1 1) rotate(0) translate(4 124)">
<title>FastTM2IteratorBase&lt; P_numtype, N_rows, N_columns, P_arraytype &gt;</title>
<polygon fill="#ffffff" stroke="transparent" points="-4,4 -4,-124 164,-124 164,4 -4,4"/>
<!-- Node1 -->
<g id="node1" class="node">
<title>Node1</title>
<polygon fill="#bfbfbf" stroke="#000000" points="19,-.5 19,-41.5 126,-41.5 126,-.5 19,-.5"/>
<text text-anchor="start" x="27" y="-29.5" font-family="Helvetica,sans-Serif" font-size="10.00" fill="#000000">FastTM2IteratorBase</text>
<text text-anchor="start" x="27" y="-18.5" font-family="Helvetica,sans-Serif" font-size="10.00" fill="#000000">&lt; P_numtype, N_rows,</text>
<text text-anchor="middle" x="72.5" y="-7.5" font-family="Helvetica,sans-Serif" font-size="10.00" fill="#000000"> N_columns, P_arraytype &gt;</text>
</g>
<!-- Node2 -->
<g id="node2" class="node">
<title>Node2</title>
<polygon fill="#ffffff" stroke="#bfbfbf" points="0,-95 0,-114 57,-114 57,-95 0,-95"/>
<text text-anchor="middle" x="28.5" y="-102" font-family="Helvetica,sans-Serif" font-size="10.00" fill="#000000">P_arraytype</text>
</g>
<!-- Node2&#45;&gt;Node1 -->
<g id="edge1" class="edge">
<title>Node2&#45;&gt;Node1</title>
<path fill="none" stroke="#9a32cd" stroke-dasharray="5,2" d="M38.3092,-85.8848C45.2337,-72.7441 54.5128,-55.1348 61.6571,-41.5768"/>
<polygon fill="#9a32cd" stroke="#9a32cd" points="35.1128,-84.4429 33.5474,-94.9215 41.3057,-87.7063 35.1128,-84.4429"/>
<text text-anchor="middle" x="64.5" y="-63" font-family="Helvetica,sans-Serif" font-size="10.00" fill="#000000"> array_</text>
</g>
<!-- Node3 -->
<g id="node3" class="node">
<title>Node3</title>
<g id="a_node3"><a xlink:href="classConstPointerStack.html" target="_top" xlink:title="ConstPointerStack\&lt;\l T_numtype, rank_ \&gt;">
<polygon fill="#ffffff" stroke="#000000" points="75,-89.5 75,-119.5 160,-119.5 160,-89.5 75,-89.5"/>
<text text-anchor="start" x="83" y="-107.5" font-family="Helvetica,sans-Serif" font-size="10.00" fill="#000000">ConstPointerStack&lt;</text>
<text text-anchor="middle" x="117.5" y="-96.5" font-family="Helvetica,sans-Serif" font-size="10.00" fill="#000000"> T_numtype, rank_ &gt;</text>
</a>
</g>
</g>
<!-- Node3&#45;&gt;Node1 -->
<g id="edge2" class="edge">
<title>Node3&#45;&gt;Node1</title>
<path fill="none" stroke="#9a32cd" stroke-dasharray="5,2" d="M104.4946,-80.3677C97.8738,-68.0826 89.9099,-53.305 83.5839,-41.5668"/>
<polygon fill="#9a32cd" stroke="#9a32cd" points="101.4211,-82.0423 109.2463,-89.1848 107.5832,-78.7213 101.4211,-82.0423"/>
<text text-anchor="middle" x="110.5" y="-63" font-family="Helvetica,sans-Serif" font-size="10.00" fill="#000000"> stack_</text>
</g>
</g>
</svg>
