<?xml version="1.0" encoding="UTF-8" standalone="no"?>
<!DOCTYPE svg PUBLIC "-//W3C//DTD SVG 1.1//EN"
 "http://www.w3.org/Graphics/SVG/1.1/DTD/svg11.dtd">
<!-- Generated by graphviz version 2.40.1 (20161225.0304)
 -->
<!-- Title: numeric_limits&lt; bool &gt; Pages: 1 -->
<svg width="100pt" height="162pt"
 viewBox="0.00 0.00 100.00 162.00" xmlns="http://www.w3.org/2000/svg" xmlns:xlink="http://www.w3.org/1999/xlink">
<g id="graph0" class="graph" transform="scale(1 1) rotate(0) translate(4 158)">
<title>numeric_limits&lt; bool &gt;</title>
<polygon fill="#ffffff" stroke="transparent" points="-4,4 -4,-158 96,-158 96,4 -4,4"/>
<!-- Node0 -->
<g id="node1" class="node">
<title>Node0</title>
<polygon fill="#bfbfbf" stroke="#000000" points="0,-.5 0,-19.5 92,-19.5 92,-.5 0,-.5"/>
<text text-anchor="middle" x="46" y="-7.5" font-family="Helvetica,sans-Serif" font-size="10.00" fill="#000000">numeric_limits&lt; bool &gt;</text>
</g>
<!-- Node1 -->
<g id="node2" class="node">
<title>Node1</title>
<g id="a_node2"><a xlink:href="class__Integer__limits.html" target="_top" xlink:title="_Integer_limits\&lt; bool,\l false, true, 0 \&gt;">
<polygon fill="#ffffff" stroke="#000000" points="2,-56.5 2,-86.5 90,-86.5 90,-56.5 2,-56.5"/>
<text text-anchor="start" x="10" y="-74.5" font-family="Helvetica,sans-Serif" font-size="10.00" fill="#000000">_Integer_limits&lt; bool,</text>
<text text-anchor="middle" x="46" y="-63.5" font-family="Helvetica,sans-Serif" font-size="10.00" fill="#000000"> false, true, 0 &gt;</text>
</a>
</g>
</g>
<!-- Node1&#45;&gt;Node0 -->
<g id="edge1" class="edge">
<title>Node1&#45;&gt;Node0</title>
<path fill="none" stroke="#191970" d="M46,-46.2849C46,-36.9858 46,-26.9883 46,-19.8469"/>
<polygon fill="#191970" stroke="#191970" points="42.5001,-46.2977 46,-56.2977 49.5001,-46.2978 42.5001,-46.2977"/>
</g>
<!-- Node2 -->
<g id="node3" class="node">
<title>Node2</title>
<g id="a_node3"><a xlink:href="class__Numeric__limits__base.html" target="_top" xlink:title="_Numeric_limits_base\l\&lt; bool \&gt;">
<polygon fill="#ffffff" stroke="#000000" points="1,-123.5 1,-153.5 91,-153.5 91,-123.5 1,-123.5"/>
<text text-anchor="start" x="9" y="-141.5" font-family="Helvetica,sans-Serif" font-size="10.00" fill="#000000">_Numeric_limits_base</text>
<text text-anchor="middle" x="46" y="-130.5" font-family="Helvetica,sans-Serif" font-size="10.00" fill="#000000">&lt; bool &gt;</text>
</a>
</g>
</g>
<!-- Node2&#45;&gt;Node1 -->
<g id="edge2" class="edge">
<title>Node2&#45;&gt;Node1</title>
<path fill="none" stroke="#191970" d="M46,-113.0249C46,-104.128 46,-94.4287 46,-86.6432"/>
<polygon fill="#191970" stroke="#191970" points="42.5001,-113.2966 46,-123.2967 49.5001,-113.2967 42.5001,-113.2966"/>
</g>
</g>
</svg>
