<?xml version="1.0" encoding="UTF-8" standalone="no"?>
<!DOCTYPE svg PUBLIC "-//W3C//DTD SVG 1.1//EN"
 "http://www.w3.org/Graphics/SVG/1.1/DTD/svg11.dtd">
<!-- Generated by graphviz version 2.40.1 (20161225.0304)
 -->
<!-- Title: ColumnMajorArray&lt; N_rank &gt; Pages: 1 -->
<svg width="99pt" height="106pt"
 viewBox="0.00 0.00 99.00 106.00" xmlns="http://www.w3.org/2000/svg" xmlns:xlink="http://www.w3.org/1999/xlink">
<g id="graph0" class="graph" transform="scale(1 1) rotate(0) translate(4 102)">
<title>ColumnMajorArray&lt; N_rank &gt;</title>
<polygon fill="#ffffff" stroke="transparent" points="-4,4 -4,-102 95,-102 95,4 -4,4"/>
<!-- Node0 -->
<g id="node1" class="node">
<title>Node0</title>
<polygon fill="#bfbfbf" stroke="#000000" points="0,-.5 0,-30.5 91,-30.5 91,-.5 0,-.5"/>
<text text-anchor="start" x="8" y="-18.5" font-family="Helvetica,sans-Serif" font-size="10.00" fill="#000000">ColumnMajorArray&lt; N</text>
<text text-anchor="middle" x="45.5" y="-7.5" font-family="Helvetica,sans-Serif" font-size="10.00" fill="#000000">_rank &gt;</text>
</g>
<!-- Node1 -->
<g id="node2" class="node">
<title>Node1</title>
<g id="a_node2"><a xlink:href="classGeneralArrayStorage.html" target="_top" xlink:title="Declaration of class GeneralArrayStorage&lt;N_rank&gt; ">
<polygon fill="#ffffff" stroke="#000000" points="2,-67.5 2,-97.5 89,-97.5 89,-67.5 2,-67.5"/>
<text text-anchor="start" x="10" y="-85.5" font-family="Helvetica,sans-Serif" font-size="10.00" fill="#000000">GeneralArrayStorage</text>
<text text-anchor="middle" x="45.5" y="-74.5" font-family="Helvetica,sans-Serif" font-size="10.00" fill="#000000">&lt; N_rank &gt;</text>
</a>
</g>
</g>
<!-- Node1&#45;&gt;Node0 -->
<g id="edge1" class="edge">
<title>Node1&#45;&gt;Node0</title>
<path fill="none" stroke="#191970" d="M45.5,-57.0249C45.5,-48.128 45.5,-38.4287 45.5,-30.6432"/>
<polygon fill="#191970" stroke="#191970" points="42.0001,-57.2966 45.5,-67.2967 49.0001,-57.2967 42.0001,-57.2966"/>
</g>
</g>
</svg>
