<?xml version="1.0" encoding="UTF-8" standalone="no"?>
<!DOCTYPE svg PUBLIC "-//W3C//DTD SVG 1.1//EN"
 "http://www.w3.org/Graphics/SVG/1.1/DTD/svg11.dtd">
<!-- Generated by graphviz version 2.40.1 (20161225.0304)
 -->
<!-- Title: Jacobian3D_et&lt; P_expr &gt; Pages: 1 -->
<svg width="347pt" height="72pt"
 viewBox="0.00 0.00 347.00 72.00" xmlns="http://www.w3.org/2000/svg" xmlns:xlink="http://www.w3.org/1999/xlink">
<g id="graph0" class="graph" transform="scale(1 1) rotate(0) translate(4 68)">
<title>Jacobian3D_et&lt; P_expr &gt;</title>
<polygon fill="#ffffff" stroke="transparent" points="-4,4 -4,-68 343,-68 343,4 -4,4"/>
<!-- Node2 -->
<g id="node1" class="node">
<title>Node2</title>
<polygon fill="#bfbfbf" stroke="#000000" points="236,-22.5 236,-41.5 339,-41.5 339,-22.5 236,-22.5"/>
<text text-anchor="middle" x="287.5" y="-29.5" font-family="Helvetica,sans-Serif" font-size="10.00" fill="#000000">Jacobian3D_et&lt; P_expr &gt;</text>
</g>
<!-- Node3 -->
<g id="node2" class="node">
<title>Node3</title>
<g id="a_node2"><a xlink:href="class__bz__StencilExpr.html" target="_top" xlink:title="_bz_StencilExpr\&lt; P\l_expr, TinyMatrix\&lt; \l_bz_multicomponent_traits\l\&lt; P_expr::T_numtype \&gt;::T\l_element, 3, 3 \&gt; \&gt;">
<polygon fill="#ffffff" stroke="#000000" points="93,-.5 93,-63.5 199,-63.5 199,-.5 93,-.5"/>
<text text-anchor="start" x="101" y="-51.5" font-family="Helvetica,sans-Serif" font-size="10.00" fill="#000000">_bz_StencilExpr&lt; P</text>
<text text-anchor="start" x="101" y="-40.5" font-family="Helvetica,sans-Serif" font-size="10.00" fill="#000000">_expr, TinyMatrix&lt; </text>
<text text-anchor="start" x="101" y="-29.5" font-family="Helvetica,sans-Serif" font-size="10.00" fill="#000000">_bz_multicomponent_traits</text>
<text text-anchor="start" x="101" y="-18.5" font-family="Helvetica,sans-Serif" font-size="10.00" fill="#000000">&lt; P_expr::T_numtype &gt;::T</text>
<text text-anchor="middle" x="146" y="-7.5" font-family="Helvetica,sans-Serif" font-size="10.00" fill="#000000">_element, 3, 3 &gt; &gt;</text>
</a>
</g>
</g>
<!-- Node3&#45;&gt;Node2 -->
<g id="edge1" class="edge">
<title>Node3&#45;&gt;Node2</title>
<path fill="none" stroke="#191970" d="M209.1318,-32C218.1143,-32 227.2626,-32 235.9884,-32"/>
<polygon fill="#191970" stroke="#191970" points="209.092,-28.5001 199.092,-32 209.0919,-35.5001 209.092,-28.5001"/>
</g>
<!-- Node4 -->
<g id="node3" class="node">
<title>Node4</title>
<polygon fill="#ffffff" stroke="#bfbfbf" points="0,-22.5 0,-41.5 40,-41.5 40,-22.5 0,-22.5"/>
<text text-anchor="middle" x="20" y="-29.5" font-family="Helvetica,sans-Serif" font-size="10.00" fill="#000000">P_expr</text>
</g>
<!-- Node4&#45;&gt;Node3 -->
<g id="edge2" class="edge">
<title>Node4&#45;&gt;Node3</title>
<path fill="none" stroke="#9a32cd" stroke-dasharray="5,2" d="M50.3269,-32C63.1086,-32 78.3712,-32 92.9113,-32"/>
<polygon fill="#9a32cd" stroke="#9a32cd" points="50.2441,-28.5001 40.2441,-32 50.244,-35.5001 50.2441,-28.5001"/>
<text text-anchor="middle" x="66.5" y="-35" font-family="Helvetica,sans-Serif" font-size="10.00" fill="#000000"> iter_</text>
</g>
</g>
</svg>
