<?xml version="1.0" encoding="UTF-8" standalone="no"?>
<!DOCTYPE svg PUBLIC "-//W3C//DTD SVG 1.1//EN"
 "http://www.w3.org/Graphics/SVG/1.1/DTD/svg11.dtd">
<!-- Generated by graphviz version 2.40.1 (20161225.0304)
 -->
<!-- Title: FastArrayIterator&lt; P_numtype, N_rank &gt; Pages: 1 -->
<svg width="111pt" height="128pt"
 viewBox="0.00 0.00 111.00 128.00" xmlns="http://www.w3.org/2000/svg" xmlns:xlink="http://www.w3.org/1999/xlink">
<g id="graph0" class="graph" transform="scale(1 1) rotate(0) translate(4 124)">
<title>FastArrayIterator&lt; P_numtype, N_rank &gt;</title>
<polygon fill="#ffffff" stroke="transparent" points="-4,4 -4,-124 107,-124 107,4 -4,4"/>
<!-- Node0 -->
<g id="node1" class="node">
<title>Node0</title>
<polygon fill="#bfbfbf" stroke="#000000" points="6,-.5 6,-30.5 97,-30.5 97,-.5 6,-.5"/>
<text text-anchor="start" x="14" y="-18.5" font-family="Helvetica,sans-Serif" font-size="10.00" fill="#000000">FastArrayIterator&lt;</text>
<text text-anchor="middle" x="51.5" y="-7.5" font-family="Helvetica,sans-Serif" font-size="10.00" fill="#000000"> P_numtype, N_rank &gt;</text>
</g>
<!-- Node1 -->
<g id="node2" class="node">
<title>Node1</title>
<g id="a_node2"><a xlink:href="classFastArrayIteratorBase.html" target="_top" xlink:title="FastArrayIteratorBase\l\&lt; P_numtype, N_rank,\l const Array\&lt; P_numtype,\l N_rank \&gt; &amp;\&gt;">
<polygon fill="#ffffff" stroke="#000000" points="0,-67.5 0,-119.5 103,-119.5 103,-67.5 0,-67.5"/>
<text text-anchor="start" x="8" y="-107.5" font-family="Helvetica,sans-Serif" font-size="10.00" fill="#000000">FastArrayIteratorBase</text>
<text text-anchor="start" x="8" y="-96.5" font-family="Helvetica,sans-Serif" font-size="10.00" fill="#000000">&lt; P_numtype, N_rank,</text>
<text text-anchor="start" x="8" y="-85.5" font-family="Helvetica,sans-Serif" font-size="10.00" fill="#000000"> const Array&lt; P_numtype,</text>
<text text-anchor="middle" x="51.5" y="-74.5" font-family="Helvetica,sans-Serif" font-size="10.00" fill="#000000"> N_rank &gt; &amp;&gt;</text>
</a>
</g>
</g>
<!-- Node1&#45;&gt;Node0 -->
<g id="edge1" class="edge">
<title>Node1&#45;&gt;Node0</title>
<path fill="none" stroke="#191970" d="M51.5,-57.0863C51.5,-47.6965 51.5,-38.1059 51.5,-30.5046"/>
<polygon fill="#191970" stroke="#191970" points="48.0001,-57.0927 51.5,-67.0928 55.0001,-57.0928 48.0001,-57.0927"/>
</g>
</g>
</svg>
