<?xml version="1.0" encoding="UTF-8" standalone="no"?>
<!DOCTYPE svg PUBLIC "-//W3C//DTD SVG 1.1//EN"
 "http://www.w3.org/Graphics/SVG/1.1/DTD/svg11.dtd">
<!-- Generated by graphviz version 2.40.1 (20161225.0304)
 -->
<!-- Title: simdTypes::isVectorAligned Pages: 1 -->
<svg width="277pt" height="159pt"
 viewBox="0.00 0.00 277.00 159.00" xmlns="http://www.w3.org/2000/svg" xmlns:xlink="http://www.w3.org/1999/xlink">
<g id="graph0" class="graph" transform="scale(1 1) rotate(0) translate(4 155)">
<title>simdTypes::isVectorAligned</title>
<polygon fill="#ffffff" stroke="transparent" points="-4,4 -4,-155 273,-155 273,4 -4,4"/>
<!-- Node1 -->
<g id="node1" class="node">
<title>Node1</title>
<polygon fill="#bfbfbf" stroke="#000000" points="0,-66 0,-85 109,-85 109,-66 0,-66"/>
<text text-anchor="middle" x="54.5" y="-73" font-family="Helvetica,sans-Serif" font-size="10.00" fill="#000000">simdTypes::isVectorAligned</text>
</g>
<!-- Node2 -->
<g id="node2" class="node">
<title>Node2</title>
<g id="a_node2"><a xlink:href="classArray.html#a2b75ad927b8e5a5fae961d98ecff2e6e" target="_top" xlink:title="Returns true if the array is aligned on a simd vector width. ">
<polygon fill="#ffffff" stroke="#000000" points="164,-120.5 164,-150.5 250,-150.5 250,-120.5 164,-120.5"/>
<text text-anchor="start" x="172" y="-138.5" font-family="Helvetica,sans-Serif" font-size="10.00" fill="#000000">Array&lt; T_parameter,</text>
<text text-anchor="middle" x="207" y="-127.5" font-family="Helvetica,sans-Serif" font-size="10.00" fill="#000000"> 1 &gt;::isVectorAligned</text>
</a>
</g>
</g>
<!-- Node1&#45;&gt;Node2 -->
<g id="edge1" class="edge">
<title>Node1&#45;&gt;Node2</title>
<path fill="none" stroke="#191970" d="M87.8342,-88.8455C104.9138,-95.6616 126.0523,-104.0643 145,-111.5 152.4137,-114.4094 160.335,-117.494 167.9518,-120.4479"/>
<polygon fill="#191970" stroke="#191970" points="88.8792,-85.494 78.2943,-85.0349 86.2826,-91.9946 88.8792,-85.494"/>
</g>
<!-- Node3 -->
<g id="node3" class="node">
<title>Node3</title>
<g id="a_node3"><a xlink:href="classFastArrayIteratorBase.html#a0cca04cb1f037296baedb6c4dc244717" target="_top" xlink:title="Returns true if the iterator data is aligned on a simd vector. ">
<polygon fill="#ffffff" stroke="#000000" points="148.5,-49.5 148.5,-101.5 265.5,-101.5 265.5,-49.5 148.5,-49.5"/>
<text text-anchor="start" x="156.5" y="-89.5" font-family="Helvetica,sans-Serif" font-size="10.00" fill="#000000">FastArrayIteratorBase</text>
<text text-anchor="start" x="156.5" y="-78.5" font-family="Helvetica,sans-Serif" font-size="10.00" fill="#000000">&lt; P_numtype, N_rank,</text>
<text text-anchor="start" x="156.5" y="-67.5" font-family="Helvetica,sans-Serif" font-size="10.00" fill="#000000"> const Array&lt; P_numtype,</text>
<text text-anchor="middle" x="207" y="-56.5" font-family="Helvetica,sans-Serif" font-size="10.00" fill="#000000"> N_rank &gt; &amp;&gt;::isVectorAligned</text>
</a>
</g>
</g>
<!-- Node1&#45;&gt;Node3 -->
<g id="edge2" class="edge">
<title>Node1&#45;&gt;Node3</title>
<path fill="none" stroke="#191970" d="M119.4288,-75.5C129.0405,-75.5 138.8977,-75.5 148.3709,-75.5"/>
<polygon fill="#191970" stroke="#191970" points="119.1253,-72.0001 109.1253,-75.5 119.1252,-79.0001 119.1253,-72.0001"/>
</g>
<!-- Node4 -->
<g id="node4" class="node">
<title>Node4</title>
<g id="a_node4"><a xlink:href="classMemoryBlockReference.html#a59d1018fa6ef1925efcccfbf5a698c08" target="_top" xlink:title="Returns true if the offset from data_ is vector aligned. ">
<polygon fill="#ffffff" stroke="#000000" points="145,-.5 145,-30.5 269,-30.5 269,-.5 145,-.5"/>
<text text-anchor="start" x="153" y="-18.5" font-family="Helvetica,sans-Serif" font-size="10.00" fill="#000000">MemoryBlockReference</text>
<text text-anchor="middle" x="207" y="-7.5" font-family="Helvetica,sans-Serif" font-size="10.00" fill="#000000">&lt; P_numtype &gt;::isVectorAligned</text>
</a>
</g>
</g>
<!-- Node1&#45;&gt;Node4 -->
<g id="edge3" class="edge">
<title>Node1&#45;&gt;Node4</title>
<path fill="none" stroke="#191970" d="M88,-62.3197C111.8174,-52.9489 143.8564,-40.3434 168.6901,-30.5728"/>
<polygon fill="#191970" stroke="#191970" points="86.6883,-59.0745 78.6641,-65.9928 89.2512,-65.5885 86.6883,-59.0745"/>
</g>
</g>
</svg>
