<?xml version="1.0" encoding="UTF-8" standalone="no"?>
<!DOCTYPE svg PUBLIC "-//W3C//DTD SVG 1.1//EN"
 "http://www.w3.org/Graphics/SVG/1.1/DTD/svg11.dtd">
<!-- Generated by graphviz version 2.40.1 (20161225.0304)
 -->
<!-- Title: simdTypes::paddedLength Pages: 1 -->
<svg width="235pt" height="88pt"
 viewBox="0.00 0.00 235.00 88.00" xmlns="http://www.w3.org/2000/svg" xmlns:xlink="http://www.w3.org/1999/xlink">
<g id="graph0" class="graph" transform="scale(1 1) rotate(0) translate(4 84)">
<title>simdTypes::paddedLength</title>
<polygon fill="#ffffff" stroke="transparent" points="-4,4 -4,-84 231,-84 231,4 -4,4"/>
<!-- Node8 -->
<g id="node1" class="node">
<title>Node8</title>
<polygon fill="#bfbfbf" stroke="#000000" points="0,-30 0,-49 105,-49 105,-30 0,-30"/>
<text text-anchor="middle" x="52.5" y="-37" font-family="Helvetica,sans-Serif" font-size="10.00" fill="#000000">simdTypes::paddedLength</text>
</g>
<!-- Node9 -->
<g id="node2" class="node">
<title>Node9</title>
<g id="a_node2"><a xlink:href="classArray.html#abc8b772aea64da89e92f029d64403ac5" target="_top" xlink:title="This routine takes the storage information for the array (ascendingFlag_[], base_[], and ordering_[]) and the size of the array (length_[]) and computes the stride vector (stride_[]) and the zero offset (see explanation in array.h). ">
<polygon fill="#ffffff" stroke="#000000" points="141,-49.5 141,-79.5 227,-79.5 227,-49.5 141,-49.5"/>
<text text-anchor="start" x="149" y="-67.5" font-family="Helvetica,sans-Serif" font-size="10.00" fill="#000000">Array&lt; T_parameter,</text>
<text text-anchor="middle" x="184" y="-56.5" font-family="Helvetica,sans-Serif" font-size="10.00" fill="#000000"> 1 &gt;::computeStrides</text>
</a>
</g>
</g>
<!-- Node8&#45;&gt;Node9 -->
<g id="edge1" class="edge">
<title>Node8&#45;&gt;Node9</title>
<path fill="none" stroke="#191970" d="M112.4862,-50.9042C122.0733,-52.7269 131.8251,-54.5808 140.9178,-56.3095"/>
<polygon fill="#191970" stroke="#191970" points="113.0674,-47.4521 102.5896,-49.0227 111.76,-54.3289 113.0674,-47.4521"/>
</g>
<!-- Node10 -->
<g id="node3" class="node">
<title>Node10</title>
<g id="a_node3"><a xlink:href="classArray.html#a22b37cc98defdc9d72f390931512697c" target="_top" xlink:title="This method is called to allocate memory for a new array. ">
<polygon fill="#ffffff" stroke="#000000" points="141,-.5 141,-30.5 227,-30.5 227,-.5 141,-.5"/>
<text text-anchor="start" x="149" y="-18.5" font-family="Helvetica,sans-Serif" font-size="10.00" fill="#000000">Array&lt; T_parameter,</text>
<text text-anchor="middle" x="184" y="-7.5" font-family="Helvetica,sans-Serif" font-size="10.00" fill="#000000"> 1 &gt;::setupStorage</text>
</a>
</g>
</g>
<!-- Node8&#45;&gt;Node10 -->
<g id="edge2" class="edge">
<title>Node8&#45;&gt;Node10</title>
<path fill="none" stroke="#191970" d="M114.7065,-28.1467C123.4981,-26.5422 132.3744,-24.9222 140.7043,-23.4019"/>
<polygon fill="#191970" stroke="#191970" points="114.0592,-24.707 104.8501,-29.9456 115.3161,-31.5932 114.0592,-24.707"/>
</g>
</g>
</svg>
