<?xml version="1.0" encoding="UTF-8" standalone="no"?>
<!DOCTYPE svg PUBLIC "-//W3C//DTD SVG 1.1//EN"
 "http://www.w3.org/Graphics/SVG/1.1/DTD/svg11.dtd">
<!-- Generated by graphviz version 2.40.1 (20161225.0304)
 -->
<!-- Title: FastTM2Iterator&lt; P_numtype, N_rows, N_columns &gt; Pages: 1 -->
<svg width="429pt" height="61pt"
 viewBox="0.00 0.00 429.00 61.00" xmlns="http://www.w3.org/2000/svg" xmlns:xlink="http://www.w3.org/1999/xlink">
<g id="graph0" class="graph" transform="scale(1 1) rotate(0) translate(4 57)">
<title>FastTM2Iterator&lt; P_numtype, N_rows, N_columns &gt;</title>
<polygon fill="#ffffff" stroke="transparent" points="-4,4 -4,-57 425,-57 425,4 -4,4"/>
<!-- Node2 -->
<g id="node1" class="node">
<title>Node2</title>
<polygon fill="#bfbfbf" stroke="#000000" points="332,-6 332,-47 421,-47 421,-6 332,-6"/>
<text text-anchor="start" x="340" y="-35" font-family="Helvetica,sans-Serif" font-size="10.00" fill="#000000">FastTM2Iterator&lt; P</text>
<text text-anchor="start" x="340" y="-24" font-family="Helvetica,sans-Serif" font-size="10.00" fill="#000000">_numtype, N_rows, N</text>
<text text-anchor="middle" x="376.5" y="-13" font-family="Helvetica,sans-Serif" font-size="10.00" fill="#000000">_columns &gt;</text>
</g>
<!-- Node3 -->
<g id="node2" class="node">
<title>Node3</title>
<g id="a_node2"><a xlink:href="classFastTM2IteratorBase.html" target="_top" xlink:title="FastTM2IteratorBase\l\&lt; P_numtype, N_rows,\l N_columns, const TinyMatrix\l\&lt; P_numtype, N_rows, N_columns \&gt; &amp;\&gt;">
<polygon fill="#ffffff" stroke="#000000" points="145,-.5 145,-52.5 295,-52.5 295,-.5 145,-.5"/>
<text text-anchor="start" x="153" y="-40.5" font-family="Helvetica,sans-Serif" font-size="10.00" fill="#000000">FastTM2IteratorBase</text>
<text text-anchor="start" x="153" y="-29.5" font-family="Helvetica,sans-Serif" font-size="10.00" fill="#000000">&lt; P_numtype, N_rows,</text>
<text text-anchor="start" x="153" y="-18.5" font-family="Helvetica,sans-Serif" font-size="10.00" fill="#000000"> N_columns, const TinyMatrix</text>
<text text-anchor="middle" x="220" y="-7.5" font-family="Helvetica,sans-Serif" font-size="10.00" fill="#000000">&lt; P_numtype, N_rows, N_columns &gt; &amp;&gt;</text>
</a>
</g>
</g>
<!-- Node3&#45;&gt;Node2 -->
<g id="edge1" class="edge">
<title>Node3&#45;&gt;Node2</title>
<path fill="none" stroke="#191970" d="M305.0424,-26.5C314.2358,-26.5 323.3033,-26.5 331.732,-26.5"/>
<polygon fill="#191970" stroke="#191970" points="305.0414,-23.0001 295.0413,-26.5 305.0413,-30.0001 305.0414,-23.0001"/>
</g>
<!-- Node4 -->
<g id="node3" class="node">
<title>Node4</title>
<g id="a_node3"><a xlink:href="classConstPointerStack.html" target="_top" xlink:title="ConstPointerStack\&lt;\l T_numtype, rank_ \&gt;">
<polygon fill="#ffffff" stroke="#000000" points="0,-11.5 0,-41.5 85,-41.5 85,-11.5 0,-11.5"/>
<text text-anchor="start" x="8" y="-29.5" font-family="Helvetica,sans-Serif" font-size="10.00" fill="#000000">ConstPointerStack&lt;</text>
<text text-anchor="middle" x="42.5" y="-18.5" font-family="Helvetica,sans-Serif" font-size="10.00" fill="#000000"> T_numtype, rank_ &gt;</text>
</a>
</g>
</g>
<!-- Node4&#45;&gt;Node3 -->
<g id="edge2" class="edge">
<title>Node4&#45;&gt;Node3</title>
<path fill="none" stroke="#9a32cd" stroke-dasharray="5,2" d="M95.4512,-26.5C110.9725,-26.5 128.2487,-26.5 144.8718,-26.5"/>
<polygon fill="#9a32cd" stroke="#9a32cd" points="95.0157,-23.0001 85.0157,-26.5 95.0156,-30.0001 95.0157,-23.0001"/>
<text text-anchor="middle" x="115" y="-29.5" font-family="Helvetica,sans-Serif" font-size="10.00" fill="#000000"> stack_</text>
</g>
</g>
</svg>
