<?xml version="1.0" encoding="UTF-8" standalone="no"?>
<!DOCTYPE svg PUBLIC "-//W3C//DTD SVG 1.1//EN"
 "http://www.w3.org/Graphics/SVG/1.1/DTD/svg11.dtd">
<!-- Generated by graphviz version 2.40.1 (20161225.0304)
 -->
<!-- Title: _bz_StencilExpr2&lt; P_expr1, P_expr2, P_result &gt; Pages: 1 -->
<svg width="118pt" height="106pt"
 viewBox="0.00 0.00 118.00 106.00" xmlns="http://www.w3.org/2000/svg" xmlns:xlink="http://www.w3.org/1999/xlink">
<g id="graph0" class="graph" transform="scale(1 1) rotate(0) translate(4 102)">
<title>_bz_StencilExpr2&lt; P_expr1, P_expr2, P_result &gt;</title>
<polygon fill="#ffffff" stroke="transparent" points="-4,4 -4,-102 114,-102 114,4 -4,4"/>
<!-- Node1 -->
<g id="node1" class="node">
<title>Node1</title>
<polygon fill="#bfbfbf" stroke="#000000" points="0,-.5 0,-30.5 110,-30.5 110,-.5 0,-.5"/>
<text text-anchor="start" x="8" y="-18.5" font-family="Helvetica,sans-Serif" font-size="10.00" fill="#000000">_bz_StencilExpr2&lt; P</text>
<text text-anchor="middle" x="55" y="-7.5" font-family="Helvetica,sans-Serif" font-size="10.00" fill="#000000">_expr1, P_expr2, P_result &gt;</text>
</g>
<!-- Node2 -->
<g id="node2" class="node">
<title>Node2</title>
<polygon fill="#ffffff" stroke="#bfbfbf" points="2,-78.5 2,-97.5 46,-97.5 46,-78.5 2,-78.5"/>
<text text-anchor="middle" x="24" y="-85.5" font-family="Helvetica,sans-Serif" font-size="10.00" fill="#000000">P_expr1</text>
</g>
<!-- Node2&#45;&gt;Node1 -->
<g id="edge1" class="edge">
<title>Node2&#45;&gt;Node1</title>
<path fill="none" stroke="#9a32cd" stroke-dasharray="5,2" d="M32.2337,-68.7439C37.3303,-56.8244 43.7816,-41.7366 48.5144,-30.668"/>
<polygon fill="#9a32cd" stroke="#9a32cd" points="28.8942,-67.6515 28.1808,-78.2223 35.3306,-70.4037 28.8942,-67.6515"/>
<text text-anchor="middle" x="51.5" y="-52" font-family="Helvetica,sans-Serif" font-size="10.00" fill="#000000"> iter1_</text>
</g>
<!-- Node3 -->
<g id="node3" class="node">
<title>Node3</title>
<polygon fill="#ffffff" stroke="#bfbfbf" points="64,-78.5 64,-97.5 108,-97.5 108,-78.5 64,-78.5"/>
<text text-anchor="middle" x="86" y="-85.5" font-family="Helvetica,sans-Serif" font-size="10.00" fill="#000000">P_expr2</text>
</g>
<!-- Node3&#45;&gt;Node1 -->
<g id="edge2" class="edge">
<title>Node3&#45;&gt;Node1</title>
<path fill="none" stroke="#9a32cd" stroke-dasharray="5,2" d="M77.7663,-68.7439C72.6697,-56.8244 66.2184,-41.7366 61.4856,-30.668"/>
<polygon fill="#9a32cd" stroke="#9a32cd" points="74.6694,-70.4037 81.8192,-78.2223 81.1058,-67.6515 74.6694,-70.4037"/>
<text text-anchor="middle" x="83.5" y="-52" font-family="Helvetica,sans-Serif" font-size="10.00" fill="#000000"> iter2_</text>
</g>
</g>
</svg>
