<?xml version="1.0" encoding="UTF-8" standalone="no"?>
<!DOCTYPE svg PUBLIC "-//W3C//DTD SVG 1.1//EN"
 "http://www.w3.org/Graphics/SVG/1.1/DTD/svg11.dtd">
<!-- Generated by graphviz version 2.38.0 (20140413.2041)
 -->
<!-- Title: include/DirectSolver.hpp Pages: 1 -->
<svg width="321pt" height="140pt"
 viewBox="0.00 0.00 321.00 140.00" xmlns="http://www.w3.org/2000/svg" xmlns:xlink="http://www.w3.org/1999/xlink">
<g id="graph0" class="graph" transform="scale(1 1) rotate(0) translate(4 136)">
<title>include/DirectSolver.hpp</title>
<polygon fill="white" stroke="none" points="-4,4 -4,-136 317,-136 317,4 -4,4"/>
<!-- Node1 -->
<g id="node1" class="node"><title>Node1</title>
<polygon fill="#bfbfbf" stroke="black" points="21.5,-112.5 21.5,-131.5 144.5,-131.5 144.5,-112.5 21.5,-112.5"/>
<text text-anchor="middle" x="83" y="-119.5" font-family="Helvetica,sans-Serif" font-size="10.00">include/DirectSolver.hpp</text>
</g>
<!-- Node2 -->
<g id="node2" class="node"><title>Node2</title>
<polygon fill="white" stroke="#bfbfbf" points="0,-0.5 0,-19.5 68,-19.5 68,-0.5 0,-0.5"/>
<text text-anchor="middle" x="34" y="-7.5" font-family="Helvetica,sans-Serif" font-size="10.00">blitz/array.h</text>
</g>
<!-- Node1&#45;&gt;Node2 -->
<g id="edge1" class="edge"><title>Node1&#45;&gt;Node2</title>
<path fill="none" stroke="midnightblue" d="M76.7554,-112.395C70.586,-103.594 61.198,-89.354 55,-76 47.9791,-60.8731 42.3349,-42.7515 38.6734,-29.4897"/>
<polygon fill="midnightblue" stroke="midnightblue" points="42.0161,-28.4393 36.0774,-19.6653 35.2483,-30.2277 42.0161,-28.4393"/>
</g>
<!-- Node3 -->
<g id="node3" class="node"><title>Node3</title>
<g id="a_node3"><a xlink:href="SparseMatrixConverter_8hpp.html" target="_top" xlink:title="Defines the SparseMatrixConverter class converts between blitz++ 2D arrays, sparse triplets...">
<polygon fill="white" stroke="black" points="64,-56.5 64,-75.5 200,-75.5 200,-56.5 64,-56.5"/>
<text text-anchor="middle" x="132" y="-63.5" font-family="Helvetica,sans-Serif" font-size="10.00">SparseMatrixConverter.hpp</text>
</a>
</g>
</g>
<!-- Node1&#45;&gt;Node3 -->
<g id="edge2" class="edge"><title>Node1&#45;&gt;Node3</title>
<path fill="none" stroke="midnightblue" d="M91.0914,-112.083C98.1554,-104.298 108.588,-92.8015 117.149,-83.3665"/>
<polygon fill="midnightblue" stroke="midnightblue" points="119.931,-85.5087 124.059,-75.7511 114.747,-80.8047 119.931,-85.5087"/>
</g>
<!-- Node3&#45;&gt;Node2 -->
<g id="edge3" class="edge"><title>Node3&#45;&gt;Node2</title>
<path fill="none" stroke="midnightblue" d="M116.255,-56.324C100.681,-47.7428 76.6227,-34.486 58.5407,-24.5224"/>
<polygon fill="midnightblue" stroke="midnightblue" points="60.1539,-21.4152 49.7063,-19.6545 56.7756,-27.546 60.1539,-21.4152"/>
</g>
<!-- Node4 -->
<g id="node4" class="node"><title>Node4</title>
<g id="a_node4"><a xlink:href="SparseTriplet_8hpp.html" target="_top" xlink:title="Defines the SparseTriplet struct for storing sparse matrices in a conceptually simple way...">
<polygon fill="white" stroke="black" points="86.5,-0.5 86.5,-19.5 179.5,-19.5 179.5,-0.5 86.5,-0.5"/>
<text text-anchor="middle" x="133" y="-7.5" font-family="Helvetica,sans-Serif" font-size="10.00">SparseTriplet.hpp</text>
</a>
</g>
</g>
<!-- Node3&#45;&gt;Node4 -->
<g id="edge4" class="edge"><title>Node3&#45;&gt;Node4</title>
<path fill="none" stroke="midnightblue" d="M132.165,-56.083C132.296,-49.0059 132.484,-38.8611 132.648,-29.9865"/>
<polygon fill="midnightblue" stroke="midnightblue" points="136.152,-29.8142 132.838,-19.7511 129.153,-29.6845 136.152,-29.8142"/>
</g>
<!-- Node5 -->
<g id="node5" class="node"><title>Node5</title>
<polygon fill="white" stroke="#bfbfbf" points="197,-0.5 197,-19.5 313,-19.5 313,-0.5 197,-0.5"/>
<text text-anchor="middle" x="255" y="-7.5" font-family="Helvetica,sans-Serif" font-size="10.00">suitesparse/umfpack.h</text>
</g>
<!-- Node3&#45;&gt;Node5 -->
<g id="edge5" class="edge"><title>Node3&#45;&gt;Node5</title>
<path fill="none" stroke="midnightblue" d="M151.49,-56.4435C171.642,-47.5961 203.323,-33.6875 226.331,-23.5865"/>
<polygon fill="midnightblue" stroke="midnightblue" points="227.852,-26.7411 235.601,-19.5164 225.038,-20.3316 227.852,-26.7411"/>
</g>
</g>
</svg>
