<?xml version="1.0" encoding="UTF-8" standalone="no"?>
<!DOCTYPE svg PUBLIC "-//W3C//DTD SVG 1.1//EN"
 "http://www.w3.org/Graphics/SVG/1.1/DTD/svg11.dtd">
<!-- Generated by graphviz version 2.38.0 (20140413.2041)
 -->
<!-- Title: include/GMRESSolver.hpp Pages: 1 -->
<svg width="736pt" height="196pt"
 viewBox="0.00 0.00 736.00 196.00" xmlns="http://www.w3.org/2000/svg" xmlns:xlink="http://www.w3.org/1999/xlink">
<g id="graph0" class="graph" transform="scale(1 1) rotate(0) translate(4 192)">
<title>include/GMRESSolver.hpp</title>
<polygon fill="white" stroke="none" points="-4,4 -4,-192 732,-192 732,4 -4,4"/>
<!-- Node1 -->
<g id="node1" class="node"><title>Node1</title>
<polygon fill="#bfbfbf" stroke="black" points="314,-168.5 314,-187.5 448,-187.5 448,-168.5 314,-168.5"/>
<text text-anchor="middle" x="381" y="-175.5" font-family="Helvetica,sans-Serif" font-size="10.00">include/GMRESSolver.hpp</text>
</g>
<!-- Node2 -->
<g id="node2" class="node"><title>Node2</title>
<g id="a_node2"><a xlink:href="LinAlgHelpers_8hpp.html" target="_top" xlink:title="Implements a set functions for basic linear algebra operations. ">
<polygon fill="white" stroke="black" points="60,-112.5 60,-131.5 156,-131.5 156,-112.5 60,-112.5"/>
<text text-anchor="middle" x="108" y="-119.5" font-family="Helvetica,sans-Serif" font-size="10.00">LinAlgHelpers.hpp</text>
</a>
</g>
</g>
<!-- Node1&#45;&gt;Node2 -->
<g id="edge1" class="edge"><title>Node1&#45;&gt;Node2</title>
<path fill="none" stroke="midnightblue" d="M337.742,-168.444C289.819,-158.964 212.522,-143.675 161,-133.483"/>
<polygon fill="midnightblue" stroke="midnightblue" points="161.544,-130.023 151.055,-131.516 160.186,-136.89 161.544,-130.023"/>
</g>
<!-- Node3 -->
<g id="node3" class="node"><title>Node3</title>
<g id="a_node3"><a xlink:href="Types_8hpp.html" target="_top" xlink:title="Defines the basic types used throughout this project. ">
<polygon fill="white" stroke="black" points="3,-56.5 3,-75.5 65,-75.5 65,-56.5 3,-56.5"/>
<text text-anchor="middle" x="34" y="-63.5" font-family="Helvetica,sans-Serif" font-size="10.00">Types.hpp</text>
</a>
</g>
</g>
<!-- Node1&#45;&gt;Node3 -->
<g id="edge5" class="edge"><title>Node1&#45;&gt;Node3</title>
<path fill="none" stroke="midnightblue" d="M313.801,-176.406C228.767,-174.241 88.807,-165.513 51,-132 38.0624,-120.532 34.4073,-100.554 33.6229,-85.7651"/>
<polygon fill="midnightblue" stroke="midnightblue" points="37.1216,-85.642 33.4764,-75.694 30.1223,-85.7439 37.1216,-85.642"/>
</g>
<!-- Node5 -->
<g id="node5" class="node"><title>Node5</title>
<polygon fill="white" stroke="#bfbfbf" points="124,-56.5 124,-75.5 168,-75.5 168,-56.5 124,-56.5"/>
<text text-anchor="middle" x="146" y="-63.5" font-family="Helvetica,sans-Serif" font-size="10.00">cmath</text>
</g>
<!-- Node1&#45;&gt;Node5 -->
<g id="edge7" class="edge"><title>Node1&#45;&gt;Node5</title>
<path fill="none" stroke="midnightblue" d="M313.865,-169.756C278.837,-163.655 236.44,-152.468 203,-132 183.468,-120.045 166.97,-99.2507 156.829,-84.4006"/>
<polygon fill="midnightblue" stroke="midnightblue" points="159.513,-82.1106 151.114,-75.653 153.653,-85.9391 159.513,-82.1106"/>
</g>
<!-- Node6 -->
<g id="node6" class="node"><title>Node6</title>
<polygon fill="white" stroke="#bfbfbf" points="212,-112.5 212,-131.5 268,-131.5 268,-112.5 212,-112.5"/>
<text text-anchor="middle" x="240" y="-119.5" font-family="Helvetica,sans-Serif" font-size="10.00">algorithm</text>
</g>
<!-- Node1&#45;&gt;Node6 -->
<g id="edge6" class="edge"><title>Node1&#45;&gt;Node6</title>
<path fill="none" stroke="midnightblue" d="M358.658,-168.444C335.247,-159.478 298.264,-145.314 271.81,-135.183"/>
<polygon fill="midnightblue" stroke="midnightblue" points="272.828,-131.824 262.237,-131.516 270.324,-138.361 272.828,-131.824"/>
</g>
<!-- Node7 -->
<g id="node7" class="node"><title>Node7</title>
<polygon fill="white" stroke="#bfbfbf" points="286,-112.5 286,-131.5 336,-131.5 336,-112.5 286,-112.5"/>
<text text-anchor="middle" x="311" y="-119.5" font-family="Helvetica,sans-Serif" font-size="10.00">iomanip</text>
</g>
<!-- Node1&#45;&gt;Node7 -->
<g id="edge8" class="edge"><title>Node1&#45;&gt;Node7</title>
<path fill="none" stroke="midnightblue" d="M369.753,-168.324C359.203,-160.185 343.199,-147.839 330.558,-138.087"/>
<polygon fill="midnightblue" stroke="midnightblue" points="332.507,-135.171 322.451,-131.834 328.231,-140.713 332.507,-135.171"/>
</g>
<!-- Node8 -->
<g id="node8" class="node"><title>Node8</title>
<polygon fill="white" stroke="#bfbfbf" points="354,-112.5 354,-131.5 408,-131.5 408,-112.5 354,-112.5"/>
<text text-anchor="middle" x="381" y="-119.5" font-family="Helvetica,sans-Serif" font-size="10.00">iostream</text>
</g>
<!-- Node1&#45;&gt;Node8 -->
<g id="edge9" class="edge"><title>Node1&#45;&gt;Node8</title>
<path fill="none" stroke="midnightblue" d="M381,-168.083C381,-161.006 381,-150.861 381,-141.986"/>
<polygon fill="midnightblue" stroke="midnightblue" points="384.5,-141.751 381,-131.751 377.5,-141.751 384.5,-141.751"/>
</g>
<!-- Node9 -->
<g id="node9" class="node"><title>Node9</title>
<polygon fill="white" stroke="#bfbfbf" points="426,-112.5 426,-131.5 478,-131.5 478,-112.5 426,-112.5"/>
<text text-anchor="middle" x="452" y="-119.5" font-family="Helvetica,sans-Serif" font-size="10.00">ostream</text>
</g>
<!-- Node1&#45;&gt;Node9 -->
<g id="edge10" class="edge"><title>Node1&#45;&gt;Node9</title>
<path fill="none" stroke="midnightblue" d="M392.407,-168.324C403.109,-160.185 419.341,-147.839 432.163,-138.087"/>
<polygon fill="midnightblue" stroke="midnightblue" points="434.544,-140.673 440.385,-131.834 430.307,-135.102 434.544,-140.673"/>
</g>
<!-- Node10 -->
<g id="node10" class="node"><title>Node10</title>
<polygon fill="white" stroke="#bfbfbf" points="496,-112.5 496,-131.5 548,-131.5 548,-112.5 496,-112.5"/>
<text text-anchor="middle" x="522" y="-119.5" font-family="Helvetica,sans-Serif" font-size="10.00">sstream</text>
</g>
<!-- Node1&#45;&gt;Node10 -->
<g id="edge11" class="edge"><title>Node1&#45;&gt;Node10</title>
<path fill="none" stroke="midnightblue" d="M403.342,-168.444C426.753,-159.478 463.736,-145.314 490.19,-135.183"/>
<polygon fill="midnightblue" stroke="midnightblue" points="491.676,-138.361 499.763,-131.516 489.172,-131.824 491.676,-138.361"/>
</g>
<!-- Node11 -->
<g id="node11" class="node"><title>Node11</title>
<polygon fill="white" stroke="#bfbfbf" points="566.5,-112.5 566.5,-131.5 607.5,-131.5 607.5,-112.5 566.5,-112.5"/>
<text text-anchor="middle" x="587" y="-119.5" font-family="Helvetica,sans-Serif" font-size="10.00">string</text>
</g>
<!-- Node1&#45;&gt;Node11 -->
<g id="edge12" class="edge"><title>Node1&#45;&gt;Node11</title>
<path fill="none" stroke="midnightblue" d="M416.175,-168.458C449.767,-160.201 502.035,-147.094 556.538,-132.041"/>
<polygon fill="midnightblue" stroke="midnightblue" points="557.677,-135.357 566.376,-129.309 555.804,-128.612 557.677,-135.357"/>
</g>
<!-- Node12 -->
<g id="node12" class="node"><title>Node12</title>
<polygon fill="white" stroke="#bfbfbf" points="626,-112.5 626,-131.5 666,-131.5 666,-112.5 626,-112.5"/>
<text text-anchor="middle" x="646" y="-119.5" font-family="Helvetica,sans-Serif" font-size="10.00">utility</text>
</g>
<!-- Node1&#45;&gt;Node12 -->
<g id="edge13" class="edge"><title>Node1&#45;&gt;Node12</title>
<path fill="none" stroke="midnightblue" d="M435.272,-168.437C481.097,-160.803 548.595,-148.618 615.878,-132.061"/>
<polygon fill="midnightblue" stroke="midnightblue" points="616.944,-135.403 625.8,-129.587 615.251,-128.611 616.944,-135.403"/>
</g>
<!-- Node13 -->
<g id="node13" class="node"><title>Node13</title>
<polygon fill="white" stroke="#bfbfbf" points="684,-112.5 684,-131.5 728,-131.5 728,-112.5 684,-112.5"/>
<text text-anchor="middle" x="706" y="-119.5" font-family="Helvetica,sans-Serif" font-size="10.00">vector</text>
</g>
<!-- Node1&#45;&gt;Node13 -->
<g id="edge14" class="edge"><title>Node1&#45;&gt;Node13</title>
<path fill="none" stroke="midnightblue" d="M448.016,-169.277C505.625,-162.06 591.045,-149.99 673.91,-132.005"/>
<polygon fill="midnightblue" stroke="midnightblue" points="674.725,-135.409 683.739,-129.84 673.22,-128.573 674.725,-135.409"/>
</g>
<!-- Node2&#45;&gt;Node3 -->
<g id="edge2" class="edge"><title>Node2&#45;&gt;Node3</title>
<path fill="none" stroke="midnightblue" d="M96.1106,-112.324C84.8498,-104.107 67.7134,-91.6017 54.2909,-81.8069"/>
<polygon fill="midnightblue" stroke="midnightblue" points="56.2468,-78.9014 46.1057,-75.8339 52.1205,-84.5559 56.2468,-78.9014"/>
</g>
<!-- Node2&#45;&gt;Node5 -->
<g id="edge4" class="edge"><title>Node2&#45;&gt;Node5</title>
<path fill="none" stroke="midnightblue" d="M114.275,-112.083C119.642,-104.455 127.518,-93.2645 134.079,-83.9408"/>
<polygon fill="midnightblue" stroke="midnightblue" points="136.949,-85.9434 139.842,-75.7511 131.225,-81.9149 136.949,-85.9434"/>
</g>
<!-- Node4 -->
<g id="node4" class="node"><title>Node4</title>
<polygon fill="white" stroke="#bfbfbf" points="0,-0.5 0,-19.5 68,-19.5 68,-0.5 0,-0.5"/>
<text text-anchor="middle" x="34" y="-7.5" font-family="Helvetica,sans-Serif" font-size="10.00">blitz/array.h</text>
</g>
<!-- Node3&#45;&gt;Node4 -->
<g id="edge3" class="edge"><title>Node3&#45;&gt;Node4</title>
<path fill="none" stroke="midnightblue" d="M34,-56.083C34,-49.0059 34,-38.8611 34,-29.9865"/>
<polygon fill="midnightblue" stroke="midnightblue" points="37.5001,-29.751 34,-19.7511 30.5001,-29.7511 37.5001,-29.751"/>
</g>
</g>
</svg>
