<?xml version="1.0" encoding="UTF-8" standalone="no"?>
<!DOCTYPE svg PUBLIC "-//W3C//DTD SVG 1.1//EN"
 "http://www.w3.org/Graphics/SVG/1.1/DTD/svg11.dtd">
<!-- Generated by graphviz version 2.38.0 (20140413.2041)
 -->
<!-- Title: blitzdg::operator&lt;&lt; Pages: 1 -->
<svg width="290pt" height="46pt"
 viewBox="0.00 0.00 290.00 46.00" xmlns="http://www.w3.org/2000/svg" xmlns:xlink="http://www.w3.org/1999/xlink">
<g id="graph0" class="graph" transform="scale(1 1) rotate(0) translate(4 42)">
<title>blitzdg::operator&lt;&lt;</title>
<polygon fill="white" stroke="none" points="-4,4 -4,-42 286,-42 286,4 -4,4"/>
<!-- Node1 -->
<g id="node1" class="node"><title>Node1</title>
<polygon fill="#bfbfbf" stroke="black" points="0,-0.5 0,-19.5 98,-19.5 98,-0.5 0,-0.5"/>
<text text-anchor="middle" x="49" y="-7.5" font-family="Helvetica,sans-Serif" font-size="10.00">blitzdg::operator&lt;&lt;</text>
</g>
<!-- Node1&#45;&gt;Node1 -->
<g id="edge1" class="edge"><title>Node1&#45;&gt;Node1</title>
<path fill="none" stroke="midnightblue" d="M19.5076,-28.6539C20.7404,-33.9368 30.5712,-38 49,-38 77.082,-38 85.1995,-28.5653 73.3524,-19.7571"/>
<polygon fill="midnightblue" stroke="midnightblue" points="22.6757,-30.1668 24.6476,-19.7571 16.6145,-26.665 22.6757,-30.1668"/>
</g>
<!-- Node2 -->
<g id="node2" class="node"><title>Node2</title>
<g id="a_node2"><a xlink:href="GMRESSolver_8hpp.html#ab70e5e5b582121c2bf78c1583d175773" target="_top" xlink:title="Checks the parameters in GMRESParams and throws an std::invalid_argument exception if any are out of ...">
<polygon fill="white" stroke="black" points="134,-0.5 134,-19.5 282,-19.5 282,-0.5 134,-0.5"/>
<text text-anchor="middle" x="208" y="-7.5" font-family="Helvetica,sans-Serif" font-size="10.00">blitzdg::checkGMRESParams</text>
</a>
</g>
</g>
<!-- Node1&#45;&gt;Node2 -->
<g id="edge2" class="edge"><title>Node1&#45;&gt;Node2</title>
<path fill="none" stroke="midnightblue" d="M108.644,-10C116.899,-10 125.467,-10 133.95,-10"/>
<polygon fill="midnightblue" stroke="midnightblue" points="108.386,-6.5001 98.3862,-10 108.386,-13.5001 108.386,-6.5001"/>
</g>
<!-- Node2&#45;&gt;Node2 -->
<g id="edge3" class="edge"><title>Node2&#45;&gt;Node2</title>
<path fill="none" stroke="midnightblue" d="M178.508,-28.6539C179.74,-33.9368 189.571,-38 208,-38 236.082,-38 244.199,-28.5653 232.352,-19.7571"/>
<polygon fill="midnightblue" stroke="midnightblue" points="181.676,-30.1668 183.648,-19.7571 175.614,-26.665 181.676,-30.1668"/>
</g>
</g>
</svg>
