<?xml version="1.0" encoding="UTF-8" standalone="no"?>
<!DOCTYPE svg PUBLIC "-//W3C//DTD SVG 1.1//EN"
 "http://www.w3.org/Graphics/SVG/1.1/DTD/svg11.dtd">
<!-- Generated by graphviz version 2.38.0 (20140413.2041)
 -->
<!-- Title: blitzdg::checkGMRESParams Pages: 1 -->
<svg width="290pt" height="46pt"
 viewBox="0.00 0.00 290.00 46.00" xmlns="http://www.w3.org/2000/svg" xmlns:xlink="http://www.w3.org/1999/xlink">
<g id="graph0" class="graph" transform="scale(1 1) rotate(0) translate(4 42)">
<title>blitzdg::checkGMRESParams</title>
<polygon fill="white" stroke="none" points="-4,4 -4,-42 286,-42 286,4 -4,4"/>
<!-- Node1 -->
<g id="node1" class="node"><title>Node1</title>
<polygon fill="#bfbfbf" stroke="black" points="0,-0.5 0,-19.5 148,-19.5 148,-0.5 0,-0.5"/>
<text text-anchor="middle" x="74" y="-7.5" font-family="Helvetica,sans-Serif" font-size="10.00">blitzdg::checkGMRESParams</text>
</g>
<!-- Node1&#45;&gt;Node1 -->
<g id="edge1" class="edge"><title>Node1&#45;&gt;Node1</title>
<path fill="none" stroke="midnightblue" d="M49.6476,-19.7571C37.8005,-28.5653 45.918,-38 74,-38 92.4288,-38 102.26,-33.9368 103.492,-28.6539"/>
<polygon fill="midnightblue" stroke="midnightblue" points="106.386,-26.665 98.3524,-19.7571 100.324,-30.1668 106.386,-26.665"/>
</g>
<!-- Node2 -->
<g id="node2" class="node"><title>Node2</title>
<g id="a_node2"><a xlink:href="GMRESSolver_8hpp.html#afcef465b1811e1a58461f319ff1c353c" target="_top" xlink:title="Write a ConvFlag to an output stream. ">
<polygon fill="white" stroke="black" points="184,-0.5 184,-19.5 282,-19.5 282,-0.5 184,-0.5"/>
<text text-anchor="middle" x="233" y="-7.5" font-family="Helvetica,sans-Serif" font-size="10.00">blitzdg::operator&lt;&lt;</text>
</a>
</g>
</g>
<!-- Node1&#45;&gt;Node2 -->
<g id="edge2" class="edge"><title>Node1&#45;&gt;Node2</title>
<path fill="none" stroke="midnightblue" d="M148.444,-10C156.861,-10 165.356,-10 173.539,-10"/>
<polygon fill="midnightblue" stroke="midnightblue" points="173.709,-13.5001 183.709,-10 173.709,-6.5001 173.709,-13.5001"/>
</g>
<!-- Node2&#45;&gt;Node2 -->
<g id="edge3" class="edge"><title>Node2&#45;&gt;Node2</title>
<path fill="none" stroke="midnightblue" d="M208.648,-19.7571C196.801,-28.5653 204.918,-38 233,-38 251.429,-38 261.26,-33.9368 262.492,-28.6539"/>
<polygon fill="midnightblue" stroke="midnightblue" points="265.386,-26.665 257.352,-19.7571 259.324,-30.1668 265.386,-26.665"/>
</g>
</g>
</svg>
