<?xml version="1.0" encoding="UTF-8" standalone="no"?>
<!DOCTYPE svg PUBLIC "-//W3C//DTD SVG 1.1//EN"
 "http://www.w3.org/Graphics/SVG/1.1/DTD/svg11.dtd">
<!-- Generated by graphviz version 2.38.0 (20140413.2041)
 -->
<!-- Title: Graphical Class Hierarchy Pages: 1 -->
<svg width="301pt" height="176pt"
 viewBox="0.00 0.00 301.00 175.50" xmlns="http://www.w3.org/2000/svg" xmlns:xlink="http://www.w3.org/1999/xlink">
<g id="graph0" class="graph" transform="scale(1 1) rotate(0) translate(4 171.5)">
<title>Graphical Class Hierarchy</title>
<polygon fill="white" stroke="none" points="-4,4 -4,-171.5 297,-171.5 297,4 -4,4"/>
<!-- Node1 -->
<g id="node1" class="node"><title>Node1</title>
<g id="a_node1"><a xlink:href="classigloo_1_1TestResultsOutput.html" target="_top" xlink:title="igloo::TestResultsOutput">
<polygon fill="white" stroke="black" points="0,-68.5 0,-87.5 125,-87.5 125,-68.5 0,-68.5"/>
<text text-anchor="middle" x="62.5" y="-75.5" font-family="Helvetica,sans-Serif" font-size="10.00">igloo::TestResultsOutput</text>
</a>
</g>
</g>
<!-- Node2 -->
<g id="node2" class="node"><title>Node2</title>
<g id="a_node2"><a xlink:href="classigloo_1_1ColoredConsoleTestResultsOutput.html" target="_top" xlink:title="igloo::ColoredConsoleTest\lResultsOutput">
<polygon fill="white" stroke="black" points="161,-137 161,-167 293,-167 293,-137 161,-137"/>
<text text-anchor="start" x="169" y="-155" font-family="Helvetica,sans-Serif" font-size="10.00">igloo::ColoredConsoleTest</text>
<text text-anchor="middle" x="227" y="-144" font-family="Helvetica,sans-Serif" font-size="10.00">ResultsOutput</text>
</a>
</g>
</g>
<!-- Node1&#45;&gt;Node2 -->
<g id="edge1" class="edge"><title>Node1&#45;&gt;Node2</title>
<path fill="none" stroke="midnightblue" d="M89.6532,-92.4985C109.051,-102.984 136.302,-117.154 161,-128 168.049,-131.095 175.636,-134.143 183.052,-136.974"/>
<polygon fill="midnightblue" stroke="midnightblue" points="91.2624,-89.3895 80.8067,-87.6781 87.9131,-95.5362 91.2624,-89.3895"/>
</g>
<!-- Node3 -->
<g id="node3" class="node"><title>Node3</title>
<g id="a_node3"><a xlink:href="classigloo_1_1DefaultTestResultsOutput.html" target="_top" xlink:title="igloo::DefaultTestResults\lOutput">
<polygon fill="white" stroke="black" points="163,-88 163,-118 291,-118 291,-88 163,-88"/>
<text text-anchor="start" x="171" y="-106" font-family="Helvetica,sans-Serif" font-size="10.00">igloo::DefaultTestResults</text>
<text text-anchor="middle" x="227" y="-95" font-family="Helvetica,sans-Serif" font-size="10.00">Output</text>
</a>
</g>
</g>
<!-- Node1&#45;&gt;Node3 -->
<g id="edge2" class="edge"><title>Node1&#45;&gt;Node3</title>
<path fill="none" stroke="midnightblue" d="M135.3,-89.0461C144.505,-90.4623 153.875,-91.9038 162.927,-93.2965"/>
<polygon fill="midnightblue" stroke="midnightblue" points="135.814,-85.5841 125.398,-87.5227 134.749,-92.5027 135.814,-85.5841"/>
</g>
<!-- Node4 -->
<g id="node4" class="node"><title>Node4</title>
<g id="a_node4"><a xlink:href="classigloo_1_1VisualStudioResultsOutput.html" target="_top" xlink:title="igloo::VisualStudioResults\lOutput">
<polygon fill="white" stroke="black" points="161.5,-39 161.5,-69 292.5,-69 292.5,-39 161.5,-39"/>
<text text-anchor="start" x="169.5" y="-57" font-family="Helvetica,sans-Serif" font-size="10.00">igloo::VisualStudioResults</text>
<text text-anchor="middle" x="227" y="-46" font-family="Helvetica,sans-Serif" font-size="10.00">Output</text>
</a>
</g>
</g>
<!-- Node1&#45;&gt;Node4 -->
<g id="edge3" class="edge"><title>Node1&#45;&gt;Node4</title>
<path fill="none" stroke="midnightblue" d="M135.424,-67.3774C144.04,-66.1048 152.799,-64.8113 161.304,-63.5551"/>
<polygon fill="midnightblue" stroke="midnightblue" points="134.779,-63.9346 125.398,-68.8582 135.802,-70.8594 134.779,-63.9346"/>
</g>
<!-- Node5 -->
<g id="node5" class="node"><title>Node5</title>
<g id="a_node5"><a xlink:href="classigloo_1_1XUnitResultsOutput.html" target="_top" xlink:title="igloo::XUnitResultsOutput">
<polygon fill="white" stroke="black" points="161.5,-0.5 161.5,-19.5 292.5,-19.5 292.5,-0.5 161.5,-0.5"/>
<text text-anchor="middle" x="227" y="-7.5" font-family="Helvetica,sans-Serif" font-size="10.00">igloo::XUnitResultsOutput</text>
</a>
</g>
</g>
<!-- Node1&#45;&gt;Node5 -->
<g id="edge4" class="edge"><title>Node1&#45;&gt;Node5</title>
<path fill="none" stroke="midnightblue" d="M89.8179,-63.6203C109.15,-53.4112 136.248,-39.8284 161,-30 170.657,-26.1656 181.355,-22.604 191.238,-19.5809"/>
<polygon fill="midnightblue" stroke="midnightblue" points="87.9056,-60.6737 80.7332,-68.4715 91.203,-66.8485 87.9056,-60.6737"/>
</g>
</g>
</svg>
