<?xml version="1.0" encoding="UTF-8" standalone="no"?>
<!DOCTYPE svg PUBLIC "-//W3C//DTD SVG 1.1//EN"
 "http://www.w3.org/Graphics/SVG/1.1/DTD/svg11.dtd">
<!-- Generated by graphviz version 2.40.1 (20161225.0304)
 -->
<!-- Title: Graphical Class Hierarchy Pages: 1 -->
<svg width="238pt" height="61pt"
 viewBox="0.00 0.00 238.00 61.00" xmlns="http://www.w3.org/2000/svg" xmlns:xlink="http://www.w3.org/1999/xlink">
<g id="graph0" class="graph" transform="scale(1 1) rotate(0) translate(4 57)">
<title>Graphical Class Hierarchy</title>
<polygon fill="#ffffff" stroke="transparent" points="-4,4 -4,-57 234,-57 234,4 -4,4"/>
<!-- Node0 -->
<g id="node1" class="node">
<title>Node0</title>
<g id="a_node1"><a xlink:href="classFastArrayIteratorBase.html" target="_top" xlink:title="FastArrayIteratorBase\l\&lt; P_numtype, N_rank,\l const Array\&lt; P_numtype,\l N_rank \&gt; &amp;\&gt;">
<polygon fill="#ffffff" stroke="#000000" points="0,-.5 0,-52.5 103,-52.5 103,-.5 0,-.5"/>
<text text-anchor="start" x="8" y="-40.5" font-family="Helvetica,sans-Serif" font-size="10.00" fill="#000000">FastArrayIteratorBase</text>
<text text-anchor="start" x="8" y="-29.5" font-family="Helvetica,sans-Serif" font-size="10.00" fill="#000000">&lt; P_numtype, N_rank,</text>
<text text-anchor="start" x="8" y="-18.5" font-family="Helvetica,sans-Serif" font-size="10.00" fill="#000000"> const Array&lt; P_numtype,</text>
<text text-anchor="middle" x="51.5" y="-7.5" font-family="Helvetica,sans-Serif" font-size="10.00" fill="#000000"> N_rank &gt; &amp;&gt;</text>
</a>
</g>
</g>
<!-- Node1 -->
<g id="node2" class="node">
<title>Node1</title>
<g id="a_node2"><a xlink:href="classFastArrayIterator.html" target="_top" xlink:title="FastArrayIterator\&lt;\l P_numtype, N_rank \&gt;">
<polygon fill="#ffffff" stroke="#000000" points="139,-11.5 139,-41.5 230,-41.5 230,-11.5 139,-11.5"/>
<text text-anchor="start" x="147" y="-29.5" font-family="Helvetica,sans-Serif" font-size="10.00" fill="#000000">FastArrayIterator&lt;</text>
<text text-anchor="middle" x="184.5" y="-18.5" font-family="Helvetica,sans-Serif" font-size="10.00" fill="#000000"> P_numtype, N_rank &gt;</text>
</a>
</g>
</g>
<!-- Node0&#45;&gt;Node1 -->
<g id="edge1" class="edge">
<title>Node0&#45;&gt;Node1</title>
<path fill="none" stroke="#191970" d="M113.5445,-26.5C122.0111,-26.5 130.5745,-26.5 138.6824,-26.5"/>
<polygon fill="#191970" stroke="#191970" points="113.3021,-23.0001 103.3021,-26.5 113.3021,-30.0001 113.3021,-23.0001"/>
</g>
</g>
</svg>
