<?xml version="1.0" encoding="UTF-8" standalone="no"?>
<!DOCTYPE svg PUBLIC "-//W3C//DTD SVG 1.1//EN"
 "http://www.w3.org/Graphics/SVG/1.1/DTD/svg11.dtd">
<!-- Generated by graphviz version 2.40.1 (20161225.0304)
 -->
<!-- Title: Graphical Class Hierarchy Pages: 1 -->
<svg width="229pt" height="676pt"
 viewBox="0.00 0.00 229.00 676.00" xmlns="http://www.w3.org/2000/svg" xmlns:xlink="http://www.w3.org/1999/xlink">
<g id="graph0" class="graph" transform="scale(1 1) rotate(0) translate(4 672)">
<title>Graphical Class Hierarchy</title>
<polygon fill="#ffffff" stroke="transparent" points="-4,4 -4,-672 225,-672 225,4 -4,4"/>
<!-- Node0 -->
<g id="node1" class="node">
<title>Node0</title>
<g id="a_node1"><a xlink:href="class__bz__StencilExpr.html" target="_top" xlink:title="_bz_StencilExpr\&lt; P\l_expr, P_numtype \&gt;">
<polygon fill="#ffffff" stroke="#000000" points="0,-318.5 0,-348.5 84,-348.5 84,-318.5 0,-318.5"/>
<text text-anchor="start" x="8" y="-336.5" font-family="Helvetica,sans-Serif" font-size="10.00" fill="#000000">_bz_StencilExpr&lt; P</text>
<text text-anchor="middle" x="42" y="-325.5" font-family="Helvetica,sans-Serif" font-size="10.00" fill="#000000">_expr, P_numtype &gt;</text>
</a>
</g>
</g>
<!-- Node1 -->
<g id="node2" class="node">
<title>Node1</title>
<g id="a_node2"><a xlink:href="classcurl2D4__et.html" target="_top" xlink:title="Defines a stencil ET &quot;curl2D4&quot; that operates on an Array&lt;P_numtype, N_rank&gt; and specifies the return ...">
<polygon fill="#ffffff" stroke="#000000" points="128,-637.5 128,-667.5 213,-667.5 213,-637.5 128,-637.5"/>
<text text-anchor="start" x="136" y="-655.5" font-family="Helvetica,sans-Serif" font-size="10.00" fill="#000000">curl2D4_et&lt; P_expr,</text>
<text text-anchor="middle" x="170.5" y="-644.5" font-family="Helvetica,sans-Serif" font-size="10.00" fill="#000000"> P_numtype &gt;</text>
</a>
</g>
</g>
<!-- Node0&#45;&gt;Node1 -->
<g id="edge1" class="edge">
<title>Node0&#45;&gt;Node1</title>
<path fill="none" stroke="#191970" d="M45.834,-358.4227C55.9918,-421.714 85.2159,-586.5958 120,-628.5 122.852,-631.9358 126.3096,-634.9117 130.063,-637.4822"/>
<polygon fill="#191970" stroke="#191970" points="49.2842,-357.8323 44.2651,-348.5017 42.3701,-358.9257 49.2842,-357.8323"/>
</g>
<!-- Node2 -->
<g id="node3" class="node">
<title>Node2</title>
<g id="a_node3"><a xlink:href="classcurl2D4n__et.html" target="_top" xlink:title="Defines a stencil ET &quot;curl2D4n&quot; that operates on an Array&lt;P_numtype, N_rank&gt; and specifies the return...">
<polygon fill="#ffffff" stroke="#000000" points="126,-588.5 126,-618.5 215,-618.5 215,-588.5 126,-588.5"/>
<text text-anchor="start" x="134" y="-606.5" font-family="Helvetica,sans-Serif" font-size="10.00" fill="#000000">curl2D4n_et&lt; P_expr,</text>
<text text-anchor="middle" x="170.5" y="-595.5" font-family="Helvetica,sans-Serif" font-size="10.00" fill="#000000"> P_numtype &gt;</text>
</a>
</g>
</g>
<!-- Node0&#45;&gt;Node2 -->
<g id="edge2" class="edge">
<title>Node0&#45;&gt;Node2</title>
<path fill="none" stroke="#191970" d="M43.5235,-359.0443C47.7014,-407.6361 63.1804,-514.3356 120,-579.5 122.9346,-582.8655 126.445,-585.7965 130.2297,-588.3404"/>
<polygon fill="#191970" stroke="#191970" points="46.992,-358.4976 42.7388,-348.794 40.0124,-359.032 46.992,-358.4976"/>
</g>
<!-- Node3 -->
<g id="node4" class="node">
<title>Node3</title>
<g id="a_node4"><a xlink:href="classcurl2D__et.html" target="_top" xlink:title="Defines a stencil ET &quot;curl2D&quot; that operates on an Array&lt;P_numtype, N_rank&gt; and specifies the return t...">
<polygon fill="#ffffff" stroke="#000000" points="130,-539.5 130,-569.5 211,-569.5 211,-539.5 130,-539.5"/>
<text text-anchor="start" x="138" y="-557.5" font-family="Helvetica,sans-Serif" font-size="10.00" fill="#000000">curl2D_et&lt; P_expr,</text>
<text text-anchor="middle" x="170.5" y="-546.5" font-family="Helvetica,sans-Serif" font-size="10.00" fill="#000000"> P_numtype &gt;</text>
</a>
</g>
</g>
<!-- Node0&#45;&gt;Node3 -->
<g id="edge3" class="edge">
<title>Node0&#45;&gt;Node3</title>
<path fill="none" stroke="#191970" d="M45.8356,-358.4987C53.2868,-399.2779 73.2869,-480.5649 120,-530.5 123.1831,-533.9026 126.9479,-536.873 130.9644,-539.4537"/>
<polygon fill="#191970" stroke="#191970" points="49.2753,-357.8489 44.1285,-348.5881 42.3768,-359.0372 49.2753,-357.8489"/>
</g>
<!-- Node4 -->
<g id="node5" class="node">
<title>Node4</title>
<g id="a_node5"><a xlink:href="classcurl2Dn__et.html" target="_top" xlink:title="Defines a stencil ET &quot;curl2Dn&quot; that operates on an Array&lt;P_numtype, N_rank&gt; and specifies the return ...">
<polygon fill="#ffffff" stroke="#000000" points="128,-490.5 128,-520.5 213,-520.5 213,-490.5 128,-490.5"/>
<text text-anchor="start" x="136" y="-508.5" font-family="Helvetica,sans-Serif" font-size="10.00" fill="#000000">curl2Dn_et&lt; P_expr,</text>
<text text-anchor="middle" x="170.5" y="-497.5" font-family="Helvetica,sans-Serif" font-size="10.00" fill="#000000"> P_numtype &gt;</text>
</a>
</g>
</g>
<!-- Node0&#45;&gt;Node4 -->
<g id="edge4" class="edge">
<title>Node0&#45;&gt;Node4</title>
<path fill="none" stroke="#191970" d="M49.6283,-358.4729C60.5641,-390.6156 83.501,-446.4811 120,-481.5 123.5023,-484.8602 127.5629,-487.8234 131.8301,-490.4164"/>
<polygon fill="#191970" stroke="#191970" points="52.9397,-357.3382 46.4975,-348.927 46.2883,-359.5197 52.9397,-357.3382"/>
</g>
<!-- Node5 -->
<g id="node6" class="node">
<title>Node5</title>
<g id="a_node6"><a xlink:href="classcurl3D4__et.html" target="_top" xlink:title="Defines a stencil ET &quot;curl3D4&quot; that operates on an Array&lt;P_numtype, N_rank&gt; and specifies the return ...">
<polygon fill="#ffffff" stroke="#000000" points="128,-441.5 128,-471.5 213,-471.5 213,-441.5 128,-441.5"/>
<text text-anchor="start" x="136" y="-459.5" font-family="Helvetica,sans-Serif" font-size="10.00" fill="#000000">curl3D4_et&lt; P_expr,</text>
<text text-anchor="middle" x="170.5" y="-448.5" font-family="Helvetica,sans-Serif" font-size="10.00" fill="#000000"> P_numtype &gt;</text>
</a>
</g>
</g>
<!-- Node0&#45;&gt;Node5 -->
<g id="edge5" class="edge">
<title>Node0&#45;&gt;Node5</title>
<path fill="none" stroke="#191970" d="M56.2616,-357.375C70.2663,-379.2056 93.3631,-411.2416 120,-432.5 124.097,-435.7698 128.7126,-438.7279 133.4456,-441.3605"/>
<polygon fill="#191970" stroke="#191970" points="59.1062,-355.3228 50.8325,-348.705 53.1734,-359.038 59.1062,-355.3228"/>
</g>
<!-- Node6 -->
<g id="node7" class="node">
<title>Node6</title>
<g id="a_node7"><a xlink:href="classcurl3D4n__et.html" target="_top" xlink:title="Defines a stencil ET &quot;curl3D4n&quot; that operates on an Array&lt;P_numtype, N_rank&gt; and specifies the return...">
<polygon fill="#ffffff" stroke="#000000" points="126,-392.5 126,-422.5 215,-422.5 215,-392.5 126,-392.5"/>
<text text-anchor="start" x="134" y="-410.5" font-family="Helvetica,sans-Serif" font-size="10.00" fill="#000000">curl3D4n_et&lt; P_expr,</text>
<text text-anchor="middle" x="170.5" y="-399.5" font-family="Helvetica,sans-Serif" font-size="10.00" fill="#000000"> P_numtype &gt;</text>
</a>
</g>
</g>
<!-- Node0&#45;&gt;Node6 -->
<g id="edge6" class="edge">
<title>Node0&#45;&gt;Node6</title>
<path fill="none" stroke="#191970" d="M72.4703,-354.3C86.6623,-363.6564 103.9288,-374.5769 120,-383.5 125.5164,-386.5628 131.4871,-389.6175 137.3259,-392.4708"/>
<polygon fill="#191970" stroke="#191970" points="74.3333,-351.3356 64.0693,-348.7083 70.4547,-357.1628 74.3333,-351.3356"/>
</g>
<!-- Node7 -->
<g id="node8" class="node">
<title>Node7</title>
<g id="a_node8"><a xlink:href="classcurl3D__et.html" target="_top" xlink:title="Defines a stencil ET &quot;curl3D&quot; that operates on an Array&lt;P_numtype, N_rank&gt; and specifies the return t...">
<polygon fill="#ffffff" stroke="#000000" points="130,-343.5 130,-373.5 211,-373.5 211,-343.5 130,-343.5"/>
<text text-anchor="start" x="138" y="-361.5" font-family="Helvetica,sans-Serif" font-size="10.00" fill="#000000">curl3D_et&lt; P_expr,</text>
<text text-anchor="middle" x="170.5" y="-350.5" font-family="Helvetica,sans-Serif" font-size="10.00" fill="#000000"> P_numtype &gt;</text>
</a>
</g>
</g>
<!-- Node0&#45;&gt;Node7 -->
<g id="edge7" class="edge">
<title>Node0&#45;&gt;Node7</title>
<path fill="none" stroke="#191970" d="M93.8962,-343.5965C105.7967,-345.9118 118.2847,-348.3414 129.6432,-350.5512"/>
<polygon fill="#191970" stroke="#191970" points="94.5601,-340.1601 84.0757,-341.6859 93.2232,-347.0313 94.5601,-340.1601"/>
</g>
<!-- Node8 -->
<g id="node9" class="node">
<title>Node8</title>
<g id="a_node9"><a xlink:href="classcurl3Dn__et.html" target="_top" xlink:title="Defines a stencil ET &quot;curl3Dn&quot; that operates on an Array&lt;P_numtype, N_rank&gt; and specifies the return ...">
<polygon fill="#ffffff" stroke="#000000" points="128,-294.5 128,-324.5 213,-324.5 213,-294.5 128,-294.5"/>
<text text-anchor="start" x="136" y="-312.5" font-family="Helvetica,sans-Serif" font-size="10.00" fill="#000000">curl3Dn_et&lt; P_expr,</text>
<text text-anchor="middle" x="170.5" y="-301.5" font-family="Helvetica,sans-Serif" font-size="10.00" fill="#000000"> P_numtype &gt;</text>
</a>
</g>
</g>
<!-- Node0&#45;&gt;Node8 -->
<g id="edge8" class="edge">
<title>Node0&#45;&gt;Node8</title>
<path fill="none" stroke="#191970" d="M94.1819,-323.754C105.3866,-321.6613 117.0993,-319.4737 127.8898,-317.4583"/>
<polygon fill="#191970" stroke="#191970" points="93.2631,-320.365 84.0757,-325.6415 94.5483,-327.246 93.2631,-320.365"/>
</g>
<!-- Node9 -->
<g id="node10" class="node">
<title>Node9</title>
<g id="a_node10"><a xlink:href="classLaplacian2D4__et.html" target="_top" xlink:title="Defines a stencil ET &quot;Laplacian2D4&quot; that operates on an Array&lt;P_numtype, N_rank&gt; and specifies the re...">
<polygon fill="#ffffff" stroke="#000000" points="128.5,-245.5 128.5,-275.5 212.5,-275.5 212.5,-245.5 128.5,-245.5"/>
<text text-anchor="start" x="136.5" y="-263.5" font-family="Helvetica,sans-Serif" font-size="10.00" fill="#000000">Laplacian2D4_et&lt; P</text>
<text text-anchor="middle" x="170.5" y="-252.5" font-family="Helvetica,sans-Serif" font-size="10.00" fill="#000000">_expr, P_numtype &gt;</text>
</a>
</g>
</g>
<!-- Node0&#45;&gt;Node9 -->
<g id="edge9" class="edge">
<title>Node0&#45;&gt;Node9</title>
<path fill="none" stroke="#191970" d="M73.9605,-312.9139C87.9221,-304.1616 104.5953,-294.0294 120,-285.5 126.0766,-282.1355 132.667,-278.7143 139.0188,-275.5265"/>
<polygon fill="#191970" stroke="#191970" points="71.804,-310.1363 65.218,-318.4354 75.5419,-316.0548 71.804,-310.1363"/>
</g>
<!-- Node10 -->
<g id="node11" class="node">
<title>Node10</title>
<g id="a_node11"><a xlink:href="classLaplacian2D4n__et.html" target="_top" xlink:title="Defines a stencil ET &quot;Laplacian2D4n&quot; that operates on an Array&lt;P_numtype, N_rank&gt; and specifies the r...">
<polygon fill="#ffffff" stroke="#000000" points="126.5,-196.5 126.5,-226.5 214.5,-226.5 214.5,-196.5 126.5,-196.5"/>
<text text-anchor="start" x="134.5" y="-214.5" font-family="Helvetica,sans-Serif" font-size="10.00" fill="#000000">Laplacian2D4n_et&lt; P</text>
<text text-anchor="middle" x="170.5" y="-203.5" font-family="Helvetica,sans-Serif" font-size="10.00" fill="#000000">_expr, P_numtype &gt;</text>
</a>
</g>
</g>
<!-- Node0&#45;&gt;Node10 -->
<g id="edge10" class="edge">
<title>Node0&#45;&gt;Node10</title>
<path fill="none" stroke="#191970" d="M56.6823,-309.8602C70.836,-288.5582 93.9053,-257.456 120,-236.5 124.5766,-232.8246 129.782,-229.4988 135.07,-226.5606"/>
<polygon fill="#191970" stroke="#191970" points="53.6918,-308.0388 51.1794,-318.3314 59.562,-311.852 53.6918,-308.0388"/>
</g>
<!-- Node11 -->
<g id="node12" class="node">
<title>Node11</title>
<g id="a_node12"><a xlink:href="classLaplacian2D__et.html" target="_top" xlink:title="Defines a stencil ET &quot;Laplacian2D&quot; that operates on an Array&lt;P_numtype, N_rank&gt; and specifies the ret...">
<polygon fill="#ffffff" stroke="#000000" points="120,-147.5 120,-177.5 221,-177.5 221,-147.5 120,-147.5"/>
<text text-anchor="start" x="128" y="-165.5" font-family="Helvetica,sans-Serif" font-size="10.00" fill="#000000">Laplacian2D_et&lt; P_expr,</text>
<text text-anchor="middle" x="170.5" y="-154.5" font-family="Helvetica,sans-Serif" font-size="10.00" fill="#000000"> P_numtype &gt;</text>
</a>
</g>
</g>
<!-- Node0&#45;&gt;Node11 -->
<g id="edge11" class="edge">
<title>Node0&#45;&gt;Node11</title>
<path fill="none" stroke="#191970" d="M49.947,-308.5419C61.1266,-276.8662 84.2226,-222.1855 120,-187.5 123.8631,-183.7548 128.3973,-180.4649 133.1359,-177.6075"/>
<polygon fill="#191970" stroke="#191970" points="46.5209,-307.7456 46.6114,-318.34 53.1475,-310.0015 46.5209,-307.7456"/>
</g>
<!-- Node12 -->
<g id="node13" class="node">
<title>Node12</title>
<g id="a_node13"><a xlink:href="classLaplacian3D4__et.html" target="_top" xlink:title="Defines a stencil ET &quot;Laplacian3D4&quot; that operates on an Array&lt;P_numtype, N_rank&gt; and specifies the re...">
<polygon fill="#ffffff" stroke="#000000" points="128.5,-98.5 128.5,-128.5 212.5,-128.5 212.5,-98.5 128.5,-98.5"/>
<text text-anchor="start" x="136.5" y="-116.5" font-family="Helvetica,sans-Serif" font-size="10.00" fill="#000000">Laplacian3D4_et&lt; P</text>
<text text-anchor="middle" x="170.5" y="-105.5" font-family="Helvetica,sans-Serif" font-size="10.00" fill="#000000">_expr, P_numtype &gt;</text>
</a>
</g>
</g>
<!-- Node0&#45;&gt;Node12 -->
<g id="edge12" class="edge">
<title>Node0&#45;&gt;Node12</title>
<path fill="none" stroke="#191970" d="M46.1043,-308.2787C53.8686,-267.8493 74.2186,-188.0575 120,-138.5 123.5183,-134.6915 127.7444,-131.3884 132.2343,-128.5447"/>
<polygon fill="#191970" stroke="#191970" points="42.6181,-307.8884 44.2762,-318.3527 49.5056,-309.1383 42.6181,-307.8884"/>
</g>
<!-- Node13 -->
<g id="node14" class="node">
<title>Node13</title>
<g id="a_node14"><a xlink:href="classLaplacian3D4n__et.html" target="_top" xlink:title="Defines a stencil ET &quot;Laplacian3D4n&quot; that operates on an Array&lt;P_numtype, N_rank&gt; and specifies the r...">
<polygon fill="#ffffff" stroke="#000000" points="126.5,-49.5 126.5,-79.5 214.5,-79.5 214.5,-49.5 126.5,-49.5"/>
<text text-anchor="start" x="134.5" y="-67.5" font-family="Helvetica,sans-Serif" font-size="10.00" fill="#000000">Laplacian3D4n_et&lt; P</text>
<text text-anchor="middle" x="170.5" y="-56.5" font-family="Helvetica,sans-Serif" font-size="10.00" fill="#000000">_expr, P_numtype &gt;</text>
</a>
</g>
</g>
<!-- Node0&#45;&gt;Node13 -->
<g id="edge13" class="edge">
<title>Node0&#45;&gt;Node13</title>
<path fill="none" stroke="#191970" d="M43.6805,-308.242C48.1263,-260.1796 64.0434,-154.5671 120,-89.5 123.2532,-85.7172 127.2144,-82.4494 131.4725,-79.6415"/>
<polygon fill="#191970" stroke="#191970" points="40.1783,-308.1237 42.8369,-318.3795 47.1542,-308.7043 40.1783,-308.1237"/>
</g>
<!-- Node14 -->
<g id="node15" class="node">
<title>Node14</title>
<g id="a_node15"><a xlink:href="classLaplacian3D__et.html" target="_top" xlink:title="Defines a stencil ET &quot;Laplacian3D&quot; that operates on an Array&lt;P_numtype, N_rank&gt; and specifies the ret...">
<polygon fill="#ffffff" stroke="#000000" points="120,-.5 120,-30.5 221,-30.5 221,-.5 120,-.5"/>
<text text-anchor="start" x="128" y="-18.5" font-family="Helvetica,sans-Serif" font-size="10.00" fill="#000000">Laplacian3D_et&lt; P_expr,</text>
<text text-anchor="middle" x="170.5" y="-7.5" font-family="Helvetica,sans-Serif" font-size="10.00" fill="#000000"> P_numtype &gt;</text>
</a>
</g>
</g>
<!-- Node0&#45;&gt;Node14 -->
<g id="edge14" class="edge">
<title>Node0&#45;&gt;Node14</title>
<path fill="none" stroke="#191970" d="M45.9658,-308.3425C56.3323,-245.237 85.8145,-82.2893 120,-40.5 123.0971,-36.714 126.9109,-33.4532 131.0431,-30.6569"/>
<polygon fill="#191970" stroke="#191970" points="42.5051,-307.8185 44.3614,-318.2495 49.4151,-308.9377 42.5051,-307.8185"/>
</g>
</g>
</svg>
