<?xml version="1.0" encoding="UTF-8" standalone="no"?>
<!DOCTYPE svg PUBLIC "-//W3C//DTD SVG 1.1//EN"
 "http://www.w3.org/Graphics/SVG/1.1/DTD/svg11.dtd">
<!-- Generated by graphviz version 2.40.1 (20161225.0304)
 -->
<!-- Title: Graphical Class Hierarchy Pages: 1 -->
<svg width="171pt" height="142pt"
 viewBox="0.00 0.00 171.00 142.00" xmlns="http://www.w3.org/2000/svg" xmlns:xlink="http://www.w3.org/1999/xlink">
<g id="graph0" class="graph" transform="scale(1 1) rotate(0) translate(4 138)">
<title>Graphical Class Hierarchy</title>
<polygon fill="#ffffff" stroke="transparent" points="-4,4 -4,-138 167,-138 167,4 -4,4"/>
<!-- Node0 -->
<g id="node1" class="node">
<title>Node0</title>
<g id="a_node1"><a xlink:href="classoperand2.html" target="_top" xlink:title="operand2">
<polygon fill="#ffffff" stroke="#000000" points="0,-57.5 0,-76.5 48,-76.5 48,-57.5 0,-57.5"/>
<text text-anchor="middle" x="24" y="-64.5" font-family="Helvetica,sans-Serif" font-size="10.00" fill="#000000">operand2</text>
</a>
</g>
</g>
<!-- Node1 -->
<g id="node2" class="node">
<title>Node1</title>
<g id="a_node2"><a xlink:href="classComplexOperand2.html" target="_top" xlink:title="ComplexOperand2">
<polygon fill="#ffffff" stroke="#000000" points="84,-114.5 84,-133.5 163,-133.5 163,-114.5 84,-114.5"/>
<text text-anchor="middle" x="123.5" y="-121.5" font-family="Helvetica,sans-Serif" font-size="10.00" fill="#000000">ComplexOperand2</text>
</a>
</g>
</g>
<!-- Node0&#45;&gt;Node1 -->
<g id="edge1" class="edge">
<title>Node0&#45;&gt;Node1</title>
<path fill="none" stroke="#191970" d="M46.647,-82.2193C57.7243,-89.436 71.3645,-97.9909 84,-105 89.8559,-108.2484 96.3534,-111.5086 102.3594,-114.3887"/>
<polygon fill="#191970" stroke="#191970" points="48.2988,-79.1162 38.0231,-76.5353 44.4465,-84.9609 48.2988,-79.1162"/>
</g>
<!-- Node2 -->
<g id="node3" class="node">
<title>Node2</title>
<g id="a_node3"><a xlink:href="classMatExprOperand.html" target="_top" xlink:title="MatExprOperand">
<polygon fill="#ffffff" stroke="#000000" points="86.5,-76.5 86.5,-95.5 160.5,-95.5 160.5,-76.5 86.5,-76.5"/>
<text text-anchor="middle" x="123.5" y="-83.5" font-family="Helvetica,sans-Serif" font-size="10.00" fill="#000000">MatExprOperand</text>
</a>
</g>
</g>
<!-- Node0&#45;&gt;Node2 -->
<g id="edge2" class="edge">
<title>Node0&#45;&gt;Node2</title>
<path fill="none" stroke="#191970" d="M58.0114,-73.4946C67.1681,-75.2432 77.1179,-77.1431 86.4322,-78.9217"/>
<polygon fill="#191970" stroke="#191970" points="58.5652,-70.0372 48.0862,-71.5994 57.2522,-76.913 58.5652,-70.0372"/>
</g>
<!-- Node3 -->
<g id="node4" class="node">
<title>Node3</title>
<g id="a_node4"><a xlink:href="classMatOperand.html" target="_top" xlink:title="MatOperand">
<polygon fill="#ffffff" stroke="#000000" points="94.5,-38.5 94.5,-57.5 152.5,-57.5 152.5,-38.5 94.5,-38.5"/>
<text text-anchor="middle" x="123.5" y="-45.5" font-family="Helvetica,sans-Serif" font-size="10.00" fill="#000000">MatOperand</text>
</a>
</g>
</g>
<!-- Node0&#45;&gt;Node3 -->
<g id="edge3" class="edge">
<title>Node0&#45;&gt;Node3</title>
<path fill="none" stroke="#191970" d="M58.0379,-60.5003C69.8344,-58.2477 82.9443,-55.7443 94.3148,-53.573"/>
<polygon fill="#191970" stroke="#191970" points="57.2522,-57.087 48.0862,-62.4006 58.5652,-63.9628 57.2522,-57.087"/>
</g>
<!-- Node4 -->
<g id="node5" class="node">
<title>Node4</title>
<g id="a_node5"><a xlink:href="classScalarOperand2.html" target="_top" xlink:title="ScalarOperand2">
<polygon fill="#ffffff" stroke="#000000" points="88,-.5 88,-19.5 159,-19.5 159,-.5 88,-.5"/>
<text text-anchor="middle" x="123.5" y="-7.5" font-family="Helvetica,sans-Serif" font-size="10.00" fill="#000000">ScalarOperand2</text>
</a>
</g>
</g>
<!-- Node0&#45;&gt;Node4 -->
<g id="edge4" class="edge">
<title>Node0&#45;&gt;Node4</title>
<path fill="none" stroke="#191970" d="M46.647,-51.7807C57.7243,-44.564 71.3645,-36.0091 84,-29 89.8559,-25.7516 96.3534,-22.4914 102.3594,-19.6113"/>
<polygon fill="#191970" stroke="#191970" points="44.4465,-49.0391 38.0231,-57.4647 48.2988,-54.8838 44.4465,-49.0391"/>
</g>
</g>
</svg>
