<?xml version="1.0" encoding="UTF-8" standalone="no"?>
<!DOCTYPE svg PUBLIC "-//W3C//DTD SVG 1.1//EN"
 "http://www.w3.org/Graphics/SVG/1.1/DTD/svg11.dtd">
<!-- Generated by graphviz version 2.40.1 (20161225.0304)
 -->
<!-- Title: Graphical Class Hierarchy Pages: 1 -->
<svg width="227pt" height="78pt"
 viewBox="0.00 0.00 227.00 77.50" xmlns="http://www.w3.org/2000/svg" xmlns:xlink="http://www.w3.org/1999/xlink">
<g id="graph0" class="graph" transform="scale(1 1) rotate(0) translate(4 73.5)">
<title>Graphical Class Hierarchy</title>
<polygon fill="#ffffff" stroke="transparent" points="-4,4 -4,-73.5 223,-73.5 223,4 -4,4"/>
<!-- Node0 -->
<g id="node1" class="node">
<title>Node0</title>
<g id="a_node1"><a xlink:href="classGeneralArrayStorage.html" target="_top" xlink:title="Declaration of class GeneralArrayStorage&lt;N_rank&gt; ">
<polygon fill="#ffffff" stroke="#000000" points="0,-17 0,-47 87,-47 87,-17 0,-17"/>
<text text-anchor="start" x="8" y="-35" font-family="Helvetica,sans-Serif" font-size="10.00" fill="#000000">GeneralArrayStorage</text>
<text text-anchor="middle" x="43.5" y="-24" font-family="Helvetica,sans-Serif" font-size="10.00" fill="#000000">&lt; N_rank &gt;</text>
</a>
</g>
</g>
<!-- Node1 -->
<g id="node2" class="node">
<title>Node1</title>
<g id="a_node2"><a xlink:href="classColumnMajorArray.html" target="_top" xlink:title="Class ColumnMajorArray specializes GeneralArrayStorage to provide column major arrays (column major o...">
<polygon fill="#ffffff" stroke="#000000" points="125.5,-39 125.5,-69 216.5,-69 216.5,-39 125.5,-39"/>
<text text-anchor="start" x="133.5" y="-57" font-family="Helvetica,sans-Serif" font-size="10.00" fill="#000000">ColumnMajorArray&lt; N</text>
<text text-anchor="middle" x="171" y="-46" font-family="Helvetica,sans-Serif" font-size="10.00" fill="#000000">_rank &gt;</text>
</a>
</g>
</g>
<!-- Node0&#45;&gt;Node1 -->
<g id="edge1" class="edge">
<title>Node0&#45;&gt;Node1</title>
<path fill="none" stroke="#191970" d="M96.991,-41.2298C106.3236,-42.8401 115.9574,-44.5025 125.0639,-46.0738"/>
<polygon fill="#191970" stroke="#191970" points="97.4712,-37.761 87.0217,-39.5096 96.2809,-44.6591 97.4712,-37.761"/>
</g>
<!-- Node2 -->
<g id="node3" class="node">
<title>Node2</title>
<g id="a_node3"><a xlink:href="classFortranArray.html" target="_top" xlink:title="Class FortranArray specializes GeneralArrayStorage to provide Fortran style arrays (column major orde...">
<polygon fill="#ffffff" stroke="#000000" points="123,-.5 123,-19.5 219,-19.5 219,-.5 123,-.5"/>
<text text-anchor="middle" x="171" y="-7.5" font-family="Helvetica,sans-Serif" font-size="10.00" fill="#000000">FortranArray&lt; N_rank &gt;</text>
</a>
</g>
</g>
<!-- Node0&#45;&gt;Node2 -->
<g id="edge2" class="edge">
<title>Node0&#45;&gt;Node2</title>
<path fill="none" stroke="#191970" d="M96.956,-22.7762C105.552,-21.293 114.4045,-19.7655 122.8659,-18.3055"/>
<polygon fill="#191970" stroke="#191970" points="96.2809,-19.3409 87.0217,-24.4904 97.4712,-26.239 96.2809,-19.3409"/>
</g>
</g>
</svg>
