<?xml version="1.0" encoding="UTF-8" standalone="no"?>
<!DOCTYPE svg PUBLIC "-//W3C//DTD SVG 1.1//EN"
 "http://www.w3.org/Graphics/SVG/1.1/DTD/svg11.dtd">
<!-- Generated by graphviz version 2.40.1 (20161225.0304)
 -->
<!-- Title: Graphical Class Hierarchy Pages: 1 -->
<svg width="360pt" height="78pt"
 viewBox="0.00 0.00 360.00 77.50" xmlns="http://www.w3.org/2000/svg" xmlns:xlink="http://www.w3.org/1999/xlink">
<g id="graph0" class="graph" transform="scale(1 1) rotate(0) translate(4 73.5)">
<title>Graphical Class Hierarchy</title>
<polygon fill="#ffffff" stroke="transparent" points="-4,4 -4,-73.5 356,-73.5 356,4 -4,4"/>
<!-- Node0 -->
<g id="node1" class="node">
<title>Node0</title>
<g id="a_node1"><a xlink:href="classMemoryBlockReference.html" target="_top" xlink:title="MemoryBlockReference\l\&lt; P_numtype \&gt;">
<polygon fill="#ffffff" stroke="#000000" points="0,-17 0,-47 97,-47 97,-17 0,-17"/>
<text text-anchor="start" x="8" y="-35" font-family="Helvetica,sans-Serif" font-size="10.00" fill="#000000">MemoryBlockReference</text>
<text text-anchor="middle" x="48.5" y="-24" font-family="Helvetica,sans-Serif" font-size="10.00" fill="#000000">&lt; P_numtype &gt;</text>
</a>
</g>
</g>
<!-- Node1 -->
<g id="node2" class="node">
<title>Node1</title>
<g id="a_node2"><a xlink:href="classArray.html" target="_top" xlink:title="Declaration of class Array, the &quot;Swiss army knife&quot; of Blitz expression template classes. ">
<polygon fill="#ffffff" stroke="#000000" points="136,-39 136,-69 224,-69 224,-39 136,-39"/>
<text text-anchor="start" x="144" y="-57" font-family="Helvetica,sans-Serif" font-size="10.00" fill="#000000">Array&lt; P_numtype, N</text>
<text text-anchor="middle" x="180" y="-46" font-family="Helvetica,sans-Serif" font-size="10.00" fill="#000000">_rank &gt;</text>
</a>
</g>
</g>
<!-- Node0&#45;&gt;Node1 -->
<g id="edge1" class="edge">
<title>Node0&#45;&gt;Node1</title>
<path fill="none" stroke="#191970" d="M107.0863,-41.8015C116.7843,-43.424 126.6926,-45.0816 135.9538,-46.6311"/>
<polygon fill="#191970" stroke="#191970" points="107.5326,-38.3276 97.0921,-40.1295 106.3775,-45.2317 107.5326,-38.3276"/>
</g>
<!-- Node2 -->
<g id="node3" class="node">
<title>Node2</title>
<g id="a_node3"><a xlink:href="classArray.html" target="_top" xlink:title="Array\&lt; P_numtype, 1 \&gt;">
<polygon fill="#ffffff" stroke="#000000" points="133,-.5 133,-19.5 227,-19.5 227,-.5 133,-.5"/>
<text text-anchor="middle" x="180" y="-7.5" font-family="Helvetica,sans-Serif" font-size="10.00" fill="#000000">Array&lt; P_numtype, 1 &gt;</text>
</a>
</g>
</g>
<!-- Node0&#45;&gt;Node2 -->
<g id="edge2" class="edge">
<title>Node0&#45;&gt;Node2</title>
<path fill="none" stroke="#191970" d="M107.118,-22.1932C115.7544,-20.7483 124.557,-19.2756 132.9201,-17.8765"/>
<polygon fill="#191970" stroke="#191970" points="106.3775,-18.7683 97.0921,-23.8705 107.5326,-25.6724 106.3775,-18.7683"/>
</g>
<!-- Node3 -->
<g id="node4" class="node">
<title>Node3</title>
<g id="a_node4"><a xlink:href="classVector.html" target="_top" xlink:title="Vector\&lt; P_numtype \&gt;">
<polygon fill="#ffffff" stroke="#000000" points="263,-.5 263,-19.5 352,-19.5 352,-.5 263,-.5"/>
<text text-anchor="middle" x="307.5" y="-7.5" font-family="Helvetica,sans-Serif" font-size="10.00" fill="#000000">Vector&lt; P_numtype &gt;</text>
</a>
</g>
</g>
<!-- Node2&#45;&gt;Node3 -->
<g id="edge3" class="edge">
<title>Node2&#45;&gt;Node3</title>
<path fill="none" stroke="#191970" d="M237.3608,-10C245.8571,-10 254.5064,-10 262.6967,-10"/>
<polygon fill="#191970" stroke="#191970" points="237.1141,-6.5001 227.114,-10 237.114,-13.5001 237.1141,-6.5001"/>
</g>
</g>
</svg>
