<?xml version="1.0" encoding="UTF-8" standalone="no"?>
<!DOCTYPE svg PUBLIC "-//W3C//DTD SVG 1.1//EN"
 "http://www.w3.org/Graphics/SVG/1.1/DTD/svg11.dtd">
<!-- Generated by graphviz version 2.40.1 (20161225.0304)
 -->
<!-- Title: Graphical Class Hierarchy Pages: 1 -->
<svg width="167pt" height="370pt"
 viewBox="0.00 0.00 167.00 370.00" xmlns="http://www.w3.org/2000/svg" xmlns:xlink="http://www.w3.org/1999/xlink">
<g id="graph0" class="graph" transform="scale(1 1) rotate(0) translate(4 366)">
<title>Graphical Class Hierarchy</title>
<polygon fill="#ffffff" stroke="transparent" points="-4,4 -4,-366 163,-366 163,4 -4,4"/>
<!-- Node0 -->
<g id="node1" class="node">
<title>Node0</title>
<g id="a_node1"><a xlink:href="classoperand.html" target="_top" xlink:title="operand">
<polygon fill="#ffffff" stroke="#000000" points="0,-171.5 0,-190.5 44,-190.5 44,-171.5 0,-171.5"/>
<text text-anchor="middle" x="22" y="-178.5" font-family="Helvetica,sans-Serif" font-size="10.00" fill="#000000">operand</text>
</a>
</g>
</g>
<!-- Node1 -->
<g id="node2" class="node">
<title>Node1</title>
<g id="a_node2"><a xlink:href="classArrayExprOperand.html" target="_top" xlink:title="ArrayExprOperand">
<polygon fill="#ffffff" stroke="#000000" points="80,-342.5 80,-361.5 159,-361.5 159,-342.5 80,-342.5"/>
<text text-anchor="middle" x="119.5" y="-349.5" font-family="Helvetica,sans-Serif" font-size="10.00" fill="#000000">ArrayExprOperand</text>
</a>
</g>
</g>
<!-- Node0&#45;&gt;Node1 -->
<g id="edge1" class="edge">
<title>Node0&#45;&gt;Node1</title>
<path fill="none" stroke="#191970" d="M24.8038,-201.0432C30.1934,-232.7161 44.7546,-294.6693 80,-333 83.5025,-336.8091 87.9313,-339.9352 92.5471,-342.4724"/>
<polygon fill="#191970" stroke="#191970" points="28.2122,-200.1847 23.2118,-190.8441 21.296,-201.2643 28.2122,-200.1847"/>
</g>
<!-- Node2 -->
<g id="node3" class="node">
<title>Node2</title>
<g id="a_node3"><a xlink:href="classArrayOperand.html" target="_top" xlink:title="ArrayOperand">
<polygon fill="#ffffff" stroke="#000000" points="87.5,-304.5 87.5,-323.5 151.5,-323.5 151.5,-304.5 87.5,-304.5"/>
<text text-anchor="middle" x="119.5" y="-311.5" font-family="Helvetica,sans-Serif" font-size="10.00" fill="#000000">ArrayOperand</text>
</a>
</g>
</g>
<!-- Node0&#45;&gt;Node2 -->
<g id="edge2" class="edge">
<title>Node0&#45;&gt;Node2</title>
<path fill="none" stroke="#191970" d="M27.5074,-200.1877C35.4662,-224.9202 52.3409,-267.9509 80,-295 83.8084,-298.7244 88.4874,-301.8326 93.2762,-304.3831"/>
<polygon fill="#191970" stroke="#191970" points="30.8232,-199.0618 24.5538,-190.521 24.1287,-201.1073 30.8232,-199.0618"/>
</g>
<!-- Node3 -->
<g id="node4" class="node">
<title>Node3</title>
<g id="a_node4"><a xlink:href="classComplexOperand.html" target="_top" xlink:title="ComplexOperand">
<polygon fill="#ffffff" stroke="#000000" points="82,-266.5 82,-285.5 157,-285.5 157,-266.5 82,-266.5"/>
<text text-anchor="middle" x="119.5" y="-273.5" font-family="Helvetica,sans-Serif" font-size="10.00" fill="#000000">ComplexOperand</text>
</a>
</g>
</g>
<!-- Node0&#45;&gt;Node3 -->
<g id="edge3" class="edge">
<title>Node0&#45;&gt;Node3</title>
<path fill="none" stroke="#191970" d="M32.5497,-199.4102C42.8929,-216.1645 59.9923,-240.6999 80,-257 84.4838,-260.6529 89.7866,-263.8114 95.027,-266.4472"/>
<polygon fill="#191970" stroke="#191970" points="35.4008,-197.358 27.2695,-190.5658 29.3904,-200.9462 35.4008,-197.358"/>
</g>
<!-- Node4 -->
<g id="node5" class="node">
<title>Node4</title>
<g id="a_node5"><a xlink:href="classIndexOperand.html" target="_top" xlink:title="IndexOperand">
<polygon fill="#ffffff" stroke="#000000" points="87.5,-228.5 87.5,-247.5 151.5,-247.5 151.5,-228.5 87.5,-228.5"/>
<text text-anchor="middle" x="119.5" y="-235.5" font-family="Helvetica,sans-Serif" font-size="10.00" fill="#000000">IndexOperand</text>
</a>
</g>
</g>
<!-- Node0&#45;&gt;Node4 -->
<g id="edge4" class="edge">
<title>Node0&#45;&gt;Node4</title>
<path fill="none" stroke="#191970" d="M43.8313,-196.2819C54.5255,-203.513 67.7169,-212.0619 80,-219 85.8307,-222.2935 92.3203,-225.5678 98.3268,-228.447"/>
<polygon fill="#191970" stroke="#191970" points="45.7384,-193.3458 35.5103,-190.582 41.7824,-199.1208 45.7384,-193.3458"/>
</g>
<!-- Node5 -->
<g id="node6" class="node">
<title>Node5</title>
<g id="a_node6"><a xlink:href="classRangeOperand.html" target="_top" xlink:title="RangeOperand">
<polygon fill="#ffffff" stroke="#000000" points="85.5,-190.5 85.5,-209.5 153.5,-209.5 153.5,-190.5 85.5,-190.5"/>
<text text-anchor="middle" x="119.5" y="-197.5" font-family="Helvetica,sans-Serif" font-size="10.00" fill="#000000">RangeOperand</text>
</a>
</g>
</g>
<!-- Node0&#45;&gt;Node5 -->
<g id="edge5" class="edge">
<title>Node0&#45;&gt;Node5</title>
<path fill="none" stroke="#191970" d="M54.0609,-187.2478C64.0446,-189.1933 75.0902,-191.3458 85.2194,-193.3197"/>
<polygon fill="#191970" stroke="#191970" points="54.6091,-183.7888 44.1243,-185.3114 53.2701,-190.6596 54.6091,-183.7888"/>
</g>
<!-- Node6 -->
<g id="node7" class="node">
<title>Node6</title>
<g id="a_node7"><a xlink:href="classScalarOperand.html" target="_top" xlink:title="ScalarOperand">
<polygon fill="#ffffff" stroke="#000000" points="86,-152.5 86,-171.5 153,-171.5 153,-152.5 86,-152.5"/>
<text text-anchor="middle" x="119.5" y="-159.5" font-family="Helvetica,sans-Serif" font-size="10.00" fill="#000000">ScalarOperand</text>
</a>
</g>
</g>
<!-- Node0&#45;&gt;Node6 -->
<g id="edge6" class="edge">
<title>Node0&#45;&gt;Node6</title>
<path fill="none" stroke="#191970" d="M54.2537,-174.7147C64.4361,-172.7304 75.7069,-170.534 85.9759,-168.5329"/>
<polygon fill="#191970" stroke="#191970" points="53.2701,-171.3404 44.1243,-176.6886 54.6091,-178.2112 53.2701,-171.3404"/>
</g>
<!-- Node7 -->
<g id="node8" class="node">
<title>Node7</title>
<g id="a_node8"><a xlink:href="classTinyVecOperand.html" target="_top" xlink:title="TinyVecOperand">
<polygon fill="#ffffff" stroke="#000000" points="83,-114.5 83,-133.5 156,-133.5 156,-114.5 83,-114.5"/>
<text text-anchor="middle" x="119.5" y="-121.5" font-family="Helvetica,sans-Serif" font-size="10.00" fill="#000000">TinyVecOperand</text>
</a>
</g>
</g>
<!-- Node0&#45;&gt;Node7 -->
<g id="edge7" class="edge">
<title>Node0&#45;&gt;Node7</title>
<path fill="none" stroke="#191970" d="M43.8313,-165.7181C54.5255,-158.487 67.7169,-149.9381 80,-143 85.8307,-139.7065 92.3203,-136.4322 98.3268,-133.553"/>
<polygon fill="#191970" stroke="#191970" points="41.7824,-162.8792 35.5103,-171.418 45.7384,-168.6542 41.7824,-162.8792"/>
</g>
<!-- Node8 -->
<g id="node9" class="node">
<title>Node8</title>
<g id="a_node9"><a xlink:href="classVecExprOperand.html" target="_top" xlink:title="VecExprOperand">
<polygon fill="#ffffff" stroke="#000000" points="82.5,-76.5 82.5,-95.5 156.5,-95.5 156.5,-76.5 82.5,-76.5"/>
<text text-anchor="middle" x="119.5" y="-83.5" font-family="Helvetica,sans-Serif" font-size="10.00" fill="#000000">VecExprOperand</text>
</a>
</g>
</g>
<!-- Node0&#45;&gt;Node8 -->
<g id="edge8" class="edge">
<title>Node0&#45;&gt;Node8</title>
<path fill="none" stroke="#191970" d="M32.5497,-162.5898C42.8929,-145.8355 59.9923,-121.3001 80,-105 84.4838,-101.3471 89.7866,-98.1886 95.027,-95.5528"/>
<polygon fill="#191970" stroke="#191970" points="29.3904,-161.0538 27.2695,-171.4342 35.4008,-164.642 29.3904,-161.0538"/>
</g>
<!-- Node9 -->
<g id="node10" class="node">
<title>Node9</title>
<g id="a_node10"><a xlink:href="classVecOperand.html" target="_top" xlink:title="VecOperand">
<polygon fill="#ffffff" stroke="#000000" points="90,-38.5 90,-57.5 149,-57.5 149,-38.5 90,-38.5"/>
<text text-anchor="middle" x="119.5" y="-45.5" font-family="Helvetica,sans-Serif" font-size="10.00" fill="#000000">VecOperand</text>
</a>
</g>
</g>
<!-- Node0&#45;&gt;Node9 -->
<g id="edge9" class="edge">
<title>Node0&#45;&gt;Node9</title>
<path fill="none" stroke="#191970" d="M27.5074,-161.8123C35.4662,-137.0798 52.3409,-94.0491 80,-67 83.8084,-63.2756 88.4874,-60.1674 93.2762,-57.6169"/>
<polygon fill="#191970" stroke="#191970" points="24.1287,-160.8927 24.5538,-171.479 30.8232,-162.9382 24.1287,-160.8927"/>
</g>
<!-- Node10 -->
<g id="node11" class="node">
<title>Node10</title>
<g id="a_node11"><a xlink:href="classVecPickOperand.html" target="_top" xlink:title="VecPickOperand">
<polygon fill="#ffffff" stroke="#000000" points="83,-.5 83,-19.5 156,-19.5 156,-.5 83,-.5"/>
<text text-anchor="middle" x="119.5" y="-7.5" font-family="Helvetica,sans-Serif" font-size="10.00" fill="#000000">VecPickOperand</text>
</a>
</g>
</g>
<!-- Node0&#45;&gt;Node10 -->
<g id="edge10" class="edge">
<title>Node0&#45;&gt;Node10</title>
<path fill="none" stroke="#191970" d="M24.8038,-160.9568C30.1934,-129.2839 44.7546,-67.3307 80,-29 83.5025,-25.1909 87.9313,-22.0648 92.5471,-19.5276"/>
<polygon fill="#191970" stroke="#191970" points="21.296,-160.7357 23.2118,-171.1559 28.2122,-161.8153 21.296,-160.7357"/>
</g>
</g>
</svg>
