<?xml version="1.0" encoding="UTF-8" standalone="no"?>
<!DOCTYPE svg PUBLIC "-//W3C//DTD SVG 1.1//EN"
 "http://www.w3.org/Graphics/SVG/1.1/DTD/svg11.dtd">
<!-- Generated by graphviz version 2.40.1 (20161225.0304)
 -->
<!-- Title: Graphical Class Hierarchy Pages: 1 -->
<svg width="240pt" height="256pt"
 viewBox="0.00 0.00 240.00 256.00" xmlns="http://www.w3.org/2000/svg" xmlns:xlink="http://www.w3.org/1999/xlink">
<g id="graph0" class="graph" transform="scale(1 1) rotate(0) translate(4 252)">
<title>Graphical Class Hierarchy</title>
<polygon fill="#ffffff" stroke="transparent" points="-4,4 -4,-252 236,-252 236,4 -4,4"/>
<!-- Node0 -->
<g id="node1" class="node">
<title>Node0</title>
<g id="a_node1"><a xlink:href="classMemoryBlockReference.html" target="_top" xlink:title="MemoryBlockReference\l\&lt; P_type \&gt;">
<polygon fill="#ffffff" stroke="#000000" points="0,-109 0,-139 97,-139 97,-109 0,-109"/>
<text text-anchor="start" x="8" y="-127" font-family="Helvetica,sans-Serif" font-size="10.00" fill="#000000">MemoryBlockReference</text>
<text text-anchor="middle" x="48.5" y="-116" font-family="Helvetica,sans-Serif" font-size="10.00" fill="#000000">&lt; P_type &gt;</text>
</a>
</g>
</g>
<!-- Node1 -->
<g id="node2" class="node">
<title>Node1</title>
<g id="a_node2"><a xlink:href="classArray.html" target="_top" xlink:title="Array\&lt; double, 1 \&gt;">
<polygon fill="#ffffff" stroke="#000000" points="143.5,-228.5 143.5,-247.5 221.5,-247.5 221.5,-228.5 143.5,-228.5"/>
<text text-anchor="middle" x="182.5" y="-235.5" font-family="Helvetica,sans-Serif" font-size="10.00" fill="#000000">Array&lt; double, 1 &gt;</text>
</a>
</g>
</g>
<!-- Node0&#45;&gt;Node1 -->
<g id="edge1" class="edge">
<title>Node0&#45;&gt;Node1</title>
<path fill="none" stroke="#191970" d="M64.2726,-147.3724C79.6376,-168.5907 104.7595,-199.4648 133,-219 138.3749,-222.7181 144.576,-225.8353 150.7315,-228.3988"/>
<polygon fill="#191970" stroke="#191970" points="67.128,-145.3484 58.4947,-139.207 61.4139,-149.3918 67.128,-145.3484"/>
</g>
<!-- Node2 -->
<g id="node3" class="node">
<title>Node2</title>
<g id="a_node3"><a xlink:href="classArray.html" target="_top" xlink:title="Array\&lt; double, 2 \&gt;">
<polygon fill="#ffffff" stroke="#000000" points="143.5,-190.5 143.5,-209.5 221.5,-209.5 221.5,-190.5 143.5,-190.5"/>
<text text-anchor="middle" x="182.5" y="-197.5" font-family="Helvetica,sans-Serif" font-size="10.00" fill="#000000">Array&lt; double, 2 &gt;</text>
</a>
</g>
</g>
<!-- Node0&#45;&gt;Node2 -->
<g id="edge2" class="edge">
<title>Node0&#45;&gt;Node2</title>
<path fill="none" stroke="#191970" d="M76.5472,-145.2803C92.5364,-156.7977 113.2668,-170.7274 133,-181 139.6953,-184.4854 147.1801,-187.6874 154.2617,-190.4299"/>
<polygon fill="#191970" stroke="#191970" points="78.3267,-142.2457 68.1886,-139.1685 74.195,-147.8962 78.3267,-142.2457"/>
</g>
<!-- Node3 -->
<g id="node4" class="node">
<title>Node3</title>
<g id="a_node4"><a xlink:href="classArray.html" target="_top" xlink:title="Array\&lt; int, 1 \&gt;">
<polygon fill="#ffffff" stroke="#000000" points="150.5,-152.5 150.5,-171.5 214.5,-171.5 214.5,-152.5 150.5,-152.5"/>
<text text-anchor="middle" x="182.5" y="-159.5" font-family="Helvetica,sans-Serif" font-size="10.00" fill="#000000">Array&lt; int, 1 &gt;</text>
</a>
</g>
</g>
<!-- Node0&#45;&gt;Node3 -->
<g id="edge3" class="edge">
<title>Node0&#45;&gt;Node3</title>
<path fill="none" stroke="#191970" d="M106.9219,-140.5674C121.8045,-144.7878 137.2611,-149.1711 150.2891,-152.8656"/>
<polygon fill="#191970" stroke="#191970" points="107.8317,-137.1875 97.2561,-137.8264 105.9219,-143.9219 107.8317,-137.1875"/>
</g>
<!-- Node4 -->
<g id="node5" class="node">
<title>Node4</title>
<g id="a_node5"><a xlink:href="classArray.html" target="_top" xlink:title="Array\&lt; int, 2 \&gt;">
<polygon fill="#ffffff" stroke="#000000" points="150.5,-114.5 150.5,-133.5 214.5,-133.5 214.5,-114.5 150.5,-114.5"/>
<text text-anchor="middle" x="182.5" y="-121.5" font-family="Helvetica,sans-Serif" font-size="10.00" fill="#000000">Array&lt; int, 2 &gt;</text>
</a>
</g>
</g>
<!-- Node0&#45;&gt;Node4 -->
<g id="edge4" class="edge">
<title>Node0&#45;&gt;Node4</title>
<path fill="none" stroke="#191970" d="M107.3473,-124C122.0987,-124 137.3852,-124 150.2891,-124"/>
<polygon fill="#191970" stroke="#191970" points="107.2562,-120.5001 97.2561,-124 107.2561,-127.5001 107.2562,-120.5001"/>
</g>
<!-- Node5 -->
<g id="node6" class="node">
<title>Node5</title>
<g id="a_node6"><a xlink:href="classArray.html" target="_top" xlink:title="Array\&lt; long long, 2 \&gt;">
<polygon fill="#ffffff" stroke="#000000" points="139.5,-76.5 139.5,-95.5 225.5,-95.5 225.5,-76.5 139.5,-76.5"/>
<text text-anchor="middle" x="182.5" y="-83.5" font-family="Helvetica,sans-Serif" font-size="10.00" fill="#000000">Array&lt; long long, 2 &gt;</text>
</a>
</g>
</g>
<!-- Node0&#45;&gt;Node5 -->
<g id="edge5" class="edge">
<title>Node0&#45;&gt;Node5</title>
<path fill="none" stroke="#191970" d="M107.0012,-107.4101C121.2443,-103.371 136.0081,-99.1843 148.6618,-95.5959"/>
<polygon fill="#191970" stroke="#191970" points="105.9219,-104.0781 97.2561,-110.1736 107.8317,-110.8125 105.9219,-104.0781"/>
</g>
<!-- Node6 -->
<g id="node7" class="node">
<title>Node6</title>
<g id="a_node7"><a xlink:href="classArray.html" target="_top" xlink:title="Array\&lt; long, 1 \&gt;">
<polygon fill="#ffffff" stroke="#000000" points="147.5,-38.5 147.5,-57.5 217.5,-57.5 217.5,-38.5 147.5,-38.5"/>
<text text-anchor="middle" x="182.5" y="-45.5" font-family="Helvetica,sans-Serif" font-size="10.00" fill="#000000">Array&lt; long, 1 &gt;</text>
</a>
</g>
</g>
<!-- Node0&#45;&gt;Node6 -->
<g id="edge6" class="edge">
<title>Node0&#45;&gt;Node6</title>
<path fill="none" stroke="#191970" d="M76.5472,-102.7197C92.5364,-91.2023 113.2668,-77.2726 133,-67 139.6953,-63.5146 147.1801,-60.3126 154.2617,-57.5701"/>
<polygon fill="#191970" stroke="#191970" points="74.195,-100.1038 68.1886,-108.8315 78.3267,-105.7543 74.195,-100.1038"/>
</g>
<!-- Node7 -->
<g id="node8" class="node">
<title>Node7</title>
<g id="a_node8"><a xlink:href="classArray.html" target="_top" xlink:title="Array\&lt; T_parameter, 1 \&gt;">
<polygon fill="#ffffff" stroke="#000000" points="133,-.5 133,-19.5 232,-19.5 232,-.5 133,-.5"/>
<text text-anchor="middle" x="182.5" y="-7.5" font-family="Helvetica,sans-Serif" font-size="10.00" fill="#000000">Array&lt; T_parameter, 1 &gt;</text>
</a>
</g>
</g>
<!-- Node0&#45;&gt;Node7 -->
<g id="edge7" class="edge">
<title>Node0&#45;&gt;Node7</title>
<path fill="none" stroke="#191970" d="M64.2726,-100.6276C79.6376,-79.4093 104.7595,-48.5352 133,-29 138.3749,-25.2819 144.576,-22.1647 150.7315,-19.6012"/>
<polygon fill="#191970" stroke="#191970" points="61.4139,-98.6082 58.4947,-108.793 67.128,-102.6516 61.4139,-98.6082"/>
</g>
</g>
</svg>
