<?xml version="1.0" encoding="UTF-8" standalone="no"?>
<!DOCTYPE svg PUBLIC "-//W3C//DTD SVG 1.1//EN"
 "http://www.w3.org/Graphics/SVG/1.1/DTD/svg11.dtd">
<!-- Generated by graphviz version 2.40.1 (20161225.0304)
 -->
<!-- Title: Graphical Class Hierarchy Pages: 1 -->
<svg width="373pt" height="39pt"
 viewBox="0.00 0.00 373.00 39.00" xmlns="http://www.w3.org/2000/svg" xmlns:xlink="http://www.w3.org/1999/xlink">
<g id="graph0" class="graph" transform="scale(1 1) rotate(0) translate(4 35)">
<title>Graphical Class Hierarchy</title>
<polygon fill="#ffffff" stroke="transparent" points="-4,4 -4,-35 369,-35 369,4 -4,4"/>
<!-- Node0 -->
<g id="node1" class="node">
<title>Node0</title>
<g id="a_node1"><a xlink:href="class__Numeric__limits__base.html" target="_top" xlink:title="_Numeric_limits_base\l\&lt; unsigned int \&gt;">
<polygon fill="#ffffff" stroke="#000000" points="0,-.5 0,-30.5 90,-30.5 90,-.5 0,-.5"/>
<text text-anchor="start" x="8" y="-18.5" font-family="Helvetica,sans-Serif" font-size="10.00" fill="#000000">_Numeric_limits_base</text>
<text text-anchor="middle" x="45" y="-7.5" font-family="Helvetica,sans-Serif" font-size="10.00" fill="#000000">&lt; unsigned int &gt;</text>
</a>
</g>
</g>
<!-- Node1 -->
<g id="node2" class="node">
<title>Node1</title>
<g id="a_node2"><a xlink:href="class__Integer__limits.html" target="_top" xlink:title="_Integer_limits\&lt; unsigned\l int, 0, UINT_MAX \&gt;">
<polygon fill="#ffffff" stroke="#000000" points="126,-.5 126,-30.5 228,-30.5 228,-.5 126,-.5"/>
<text text-anchor="start" x="134" y="-18.5" font-family="Helvetica,sans-Serif" font-size="10.00" fill="#000000">_Integer_limits&lt; unsigned</text>
<text text-anchor="middle" x="177" y="-7.5" font-family="Helvetica,sans-Serif" font-size="10.00" fill="#000000"> int, 0, UINT_MAX &gt;</text>
</a>
</g>
</g>
<!-- Node0&#45;&gt;Node1 -->
<g id="edge1" class="edge">
<title>Node0&#45;&gt;Node1</title>
<path fill="none" stroke="#191970" d="M100.2302,-15.5C108.7007,-15.5 117.4143,-15.5 125.7927,-15.5"/>
<polygon fill="#191970" stroke="#191970" points="100.0578,-12.0001 90.0577,-15.5 100.0577,-19.0001 100.0578,-12.0001"/>
</g>
<!-- Node2 -->
<g id="node3" class="node">
<title>Node2</title>
<g id="a_node3"><a xlink:href="classnumeric__limits_3_01unsigned_01int_01_4.html" target="_top" xlink:title="numeric_limits\&lt; unsigned\l int \&gt;">
<polygon fill="#ffffff" stroke="#000000" points="264,-.5 264,-30.5 365,-30.5 365,-.5 264,-.5"/>
<text text-anchor="start" x="272" y="-18.5" font-family="Helvetica,sans-Serif" font-size="10.00" fill="#000000">numeric_limits&lt; unsigned</text>
<text text-anchor="middle" x="314.5" y="-7.5" font-family="Helvetica,sans-Serif" font-size="10.00" fill="#000000"> int &gt;</text>
</a>
</g>
</g>
<!-- Node1&#45;&gt;Node2 -->
<g id="edge2" class="edge">
<title>Node1&#45;&gt;Node2</title>
<path fill="none" stroke="#191970" d="M238.4086,-15.5C246.8675,-15.5 255.4764,-15.5 263.7151,-15.5"/>
<polygon fill="#191970" stroke="#191970" points="238.2,-12.0001 228.1999,-15.5 238.1999,-19.0001 238.2,-12.0001"/>
</g>
</g>
</svg>
