<?xml version="1.0" encoding="UTF-8" standalone="no"?>
<!DOCTYPE svg PUBLIC "-//W3C//DTD SVG 1.1//EN"
 "http://www.w3.org/Graphics/SVG/1.1/DTD/svg11.dtd">
<!-- Generated by graphviz version 2.40.1 (20161225.0304)
 -->
<!-- Title: Graphical Class Hierarchy Pages: 1 -->
<svg width="225pt" height="116pt"
 viewBox="0.00 0.00 225.00 116.00" xmlns="http://www.w3.org/2000/svg" xmlns:xlink="http://www.w3.org/1999/xlink">
<g id="graph0" class="graph" transform="scale(1 1) rotate(0) translate(4 112)">
<title>Graphical Class Hierarchy</title>
<polygon fill="#ffffff" stroke="transparent" points="-4,4 -4,-112 221,-112 221,4 -4,4"/>
<!-- Node0 -->
<g id="node1" class="node">
<title>Node0</title>
<g id="a_node1"><a xlink:href="classETBase.html" target="_top" xlink:title="ETBase\&lt; TinyVector\l\&lt; int, N_length \&gt; \&gt;">
<polygon fill="#ffffff" stroke="#000000" points="0,-39 0,-69 85,-69 85,-39 0,-39"/>
<text text-anchor="start" x="8" y="-57" font-family="Helvetica,sans-Serif" font-size="10.00" fill="#000000">ETBase&lt; TinyVector</text>
<text text-anchor="middle" x="42.5" y="-46" font-family="Helvetica,sans-Serif" font-size="10.00" fill="#000000">&lt; int, N_length &gt; &gt;</text>
</a>
</g>
</g>
<!-- Node1 -->
<g id="node2" class="node">
<title>Node1</title>
<g id="a_node2"><a xlink:href="classTinyVector.html" target="_top" xlink:title="TinyVector\&lt; int, N \&gt;">
<polygon fill="#ffffff" stroke="#000000" points="127.5,-88.5 127.5,-107.5 210.5,-107.5 210.5,-88.5 127.5,-88.5"/>
<text text-anchor="middle" x="169" y="-95.5" font-family="Helvetica,sans-Serif" font-size="10.00" fill="#000000">TinyVector&lt; int, N &gt;</text>
</a>
</g>
</g>
<!-- Node0&#45;&gt;Node1 -->
<g id="edge1" class="edge">
<title>Node0&#45;&gt;Node1</title>
<path fill="none" stroke="#191970" d="M95.0565,-72.2805C110.9342,-77.8032 127.738,-83.648 141.3075,-88.3678"/>
<polygon fill="#191970" stroke="#191970" points="95.9219,-68.8759 85.3271,-68.8964 93.6223,-75.4874 95.9219,-68.8759"/>
</g>
<!-- Node2 -->
<g id="node3" class="node">
<title>Node2</title>
<g id="a_node3"><a xlink:href="classTinyVector.html" target="_top" xlink:title="TinyVector\&lt; int, N\l_rank \&gt;">
<polygon fill="#ffffff" stroke="#000000" points="131,-39 131,-69 207,-69 207,-39 131,-39"/>
<text text-anchor="start" x="139" y="-57" font-family="Helvetica,sans-Serif" font-size="10.00" fill="#000000">TinyVector&lt; int, N</text>
<text text-anchor="middle" x="169" y="-46" font-family="Helvetica,sans-Serif" font-size="10.00" fill="#000000">_rank &gt;</text>
</a>
</g>
</g>
<!-- Node0&#45;&gt;Node2 -->
<g id="edge2" class="edge">
<title>Node0&#45;&gt;Node2</title>
<path fill="none" stroke="#191970" d="M95.5758,-54C107.4309,-54 119.7757,-54 130.885,-54"/>
<polygon fill="#191970" stroke="#191970" points="95.3272,-50.5001 85.3271,-54 95.3271,-57.5001 95.3272,-50.5001"/>
</g>
<!-- Node3 -->
<g id="node4" class="node">
<title>Node3</title>
<g id="a_node4"><a xlink:href="classTinyVector.html" target="_top" xlink:title="TinyVector\&lt; int, rank_ \&gt;">
<polygon fill="#ffffff" stroke="#000000" points="121,-.5 121,-19.5 217,-19.5 217,-.5 121,-.5"/>
<text text-anchor="middle" x="169" y="-7.5" font-family="Helvetica,sans-Serif" font-size="10.00" fill="#000000">TinyVector&lt; int, rank_ &gt;</text>
</a>
</g>
</g>
<!-- Node0&#45;&gt;Node3 -->
<g id="edge3" class="edge">
<title>Node0&#45;&gt;Node3</title>
<path fill="none" stroke="#191970" d="M95.0565,-35.7195C110.9342,-30.1968 127.738,-24.352 141.3075,-19.6322"/>
<polygon fill="#191970" stroke="#191970" points="93.6223,-32.5126 85.3271,-39.1036 95.9219,-39.1241 93.6223,-32.5126"/>
</g>
</g>
</svg>
