<?xml version="1.0" encoding="UTF-8" standalone="no"?>
<!DOCTYPE svg PUBLIC "-//W3C//DTD SVG 1.1//EN"
 "http://www.w3.org/Graphics/SVG/1.1/DTD/svg11.dtd">
<!-- Generated by graphviz version 2.40.1 (20161225.0304)
 -->
<!-- Title: Graphical Class Hierarchy Pages: 1 -->
<svg width="238pt" height="39pt"
 viewBox="0.00 0.00 238.00 39.00" xmlns="http://www.w3.org/2000/svg" xmlns:xlink="http://www.w3.org/1999/xlink">
<g id="graph0" class="graph" transform="scale(1 1) rotate(0) translate(4 35)">
<title>Graphical Class Hierarchy</title>
<polygon fill="#ffffff" stroke="transparent" points="-4,4 -4,-35 234,-35 234,4 -4,4"/>
<!-- Node0 -->
<g id="node1" class="node">
<title>Node0</title>
<g id="a_node1"><a xlink:href="classETBase.html" target="_top" xlink:title="ETBase\&lt; stencilExtent\l\&lt; N_rank, P_numtype \&gt; \&gt;">
<polygon fill="#ffffff" stroke="#000000" points="0,-.5 0,-30.5 102,-30.5 102,-.5 0,-.5"/>
<text text-anchor="start" x="8" y="-18.5" font-family="Helvetica,sans-Serif" font-size="10.00" fill="#000000">ETBase&lt; stencilExtent</text>
<text text-anchor="middle" x="51" y="-7.5" font-family="Helvetica,sans-Serif" font-size="10.00" fill="#000000">&lt; N_rank, P_numtype &gt; &gt;</text>
</a>
</g>
</g>
<!-- Node1 -->
<g id="node2" class="node">
<title>Node1</title>
<g id="a_node2"><a xlink:href="classstencilExtent.html" target="_top" xlink:title="stencilExtent\&lt; N_rank,\l P_numtype \&gt;">
<polygon fill="#ffffff" stroke="#000000" points="138,-.5 138,-30.5 230,-30.5 230,-.5 138,-.5"/>
<text text-anchor="start" x="146" y="-18.5" font-family="Helvetica,sans-Serif" font-size="10.00" fill="#000000">stencilExtent&lt; N_rank,</text>
<text text-anchor="middle" x="184" y="-7.5" font-family="Helvetica,sans-Serif" font-size="10.00" fill="#000000"> P_numtype &gt;</text>
</a>
</g>
</g>
<!-- Node0&#45;&gt;Node1 -->
<g id="edge1" class="edge">
<title>Node0&#45;&gt;Node1</title>
<path fill="none" stroke="#191970" d="M112.0564,-15.5C120.6658,-15.5 129.3978,-15.5 137.6698,-15.5"/>
<polygon fill="#191970" stroke="#191970" points="112.0409,-12.0001 102.0409,-15.5 112.0409,-19.0001 112.0409,-12.0001"/>
</g>
</g>
</svg>
