<?xml version="1.0" encoding="UTF-8" standalone="no"?>
<!DOCTYPE svg PUBLIC "-//W3C//DTD SVG 1.1//EN"
 "http://www.w3.org/Graphics/SVG/1.1/DTD/svg11.dtd">
<!-- Generated by graphviz version 2.40.1 (20161225.0304)
 -->
<!-- Title: Graphical Class Hierarchy Pages: 1 -->
<svg width="235pt" height="50pt"
 viewBox="0.00 0.00 235.00 50.00" xmlns="http://www.w3.org/2000/svg" xmlns:xlink="http://www.w3.org/1999/xlink">
<g id="graph0" class="graph" transform="scale(1 1) rotate(0) translate(4 46)">
<title>Graphical Class Hierarchy</title>
<polygon fill="#ffffff" stroke="transparent" points="-4,4 -4,-46 231,-46 231,4 -4,4"/>
<!-- Node0 -->
<g id="node1" class="node">
<title>Node0</title>
<g id="a_node1"><a xlink:href="classETBase.html" target="_top" xlink:title="ETBase\&lt; TinyMatrix\l\&lt; P_numtype, N_rows,\l N_columns \&gt; \&gt;">
<polygon fill="#ffffff" stroke="#000000" points="0,-.5 0,-41.5 93,-41.5 93,-.5 0,-.5"/>
<text text-anchor="start" x="8" y="-29.5" font-family="Helvetica,sans-Serif" font-size="10.00" fill="#000000">ETBase&lt; TinyMatrix</text>
<text text-anchor="start" x="8" y="-18.5" font-family="Helvetica,sans-Serif" font-size="10.00" fill="#000000">&lt; P_numtype, N_rows,</text>
<text text-anchor="middle" x="46.5" y="-7.5" font-family="Helvetica,sans-Serif" font-size="10.00" fill="#000000"> N_columns &gt; &gt;</text>
</a>
</g>
</g>
<!-- Node1 -->
<g id="node2" class="node">
<title>Node1</title>
<g id="a_node2"><a xlink:href="classTinyMatrix.html" target="_top" xlink:title="TinyMatrix\&lt; P_numtype,\l N_rows, N_columns \&gt;">
<polygon fill="#ffffff" stroke="#000000" points="129,-6 129,-36 227,-36 227,-6 129,-6"/>
<text text-anchor="start" x="137" y="-24" font-family="Helvetica,sans-Serif" font-size="10.00" fill="#000000">TinyMatrix&lt; P_numtype,</text>
<text text-anchor="middle" x="178" y="-13" font-family="Helvetica,sans-Serif" font-size="10.00" fill="#000000"> N_rows, N_columns &gt;</text>
</a>
</g>
</g>
<!-- Node0&#45;&gt;Node1 -->
<g id="edge1" class="edge">
<title>Node0&#45;&gt;Node1</title>
<path fill="none" stroke="#191970" d="M103.3941,-21C111.8371,-21 120.4786,-21 128.7479,-21"/>
<polygon fill="#191970" stroke="#191970" points="103.2323,-17.5001 93.2322,-21 103.2322,-24.5001 103.2323,-17.5001"/>
</g>
</g>
</svg>
