<?xml version="1.0" encoding="UTF-8" standalone="no"?>
<!DOCTYPE svg PUBLIC "-//W3C//DTD SVG 1.1//EN"
 "http://www.w3.org/Graphics/SVG/1.1/DTD/svg11.dtd">
<!-- Generated by graphviz version 2.40.1 (20161225.0304)
 -->
<!-- Title: Graphical Class Hierarchy Pages: 1 -->
<svg width="267pt" height="61pt"
 viewBox="0.00 0.00 267.00 61.00" xmlns="http://www.w3.org/2000/svg" xmlns:xlink="http://www.w3.org/1999/xlink">
<g id="graph0" class="graph" transform="scale(1 1) rotate(0) translate(4 57)">
<title>Graphical Class Hierarchy</title>
<polygon fill="#ffffff" stroke="transparent" points="-4,4 -4,-57 263,-57 263,4 -4,4"/>
<!-- Node0 -->
<g id="node1" class="node">
<title>Node0</title>
<g id="a_node1"><a xlink:href="classFastTV2IteratorBase.html" target="_top" xlink:title="FastTV2IteratorBase\l\&lt; P_numtype, N_length,\l const TinyVector\&lt; P_numtype,\l N_length \&gt; \&gt;">
<polygon fill="#ffffff" stroke="#000000" points="0,-.5 0,-52.5 121,-52.5 121,-.5 0,-.5"/>
<text text-anchor="start" x="8" y="-40.5" font-family="Helvetica,sans-Serif" font-size="10.00" fill="#000000">FastTV2IteratorBase</text>
<text text-anchor="start" x="8" y="-29.5" font-family="Helvetica,sans-Serif" font-size="10.00" fill="#000000">&lt; P_numtype, N_length,</text>
<text text-anchor="start" x="8" y="-18.5" font-family="Helvetica,sans-Serif" font-size="10.00" fill="#000000"> const TinyVector&lt; P_numtype,</text>
<text text-anchor="middle" x="60.5" y="-7.5" font-family="Helvetica,sans-Serif" font-size="10.00" fill="#000000"> N_length &gt; &gt;</text>
</a>
</g>
</g>
<!-- Node1 -->
<g id="node2" class="node">
<title>Node1</title>
<g id="a_node2"><a xlink:href="classFastTV2CopyIterator.html" target="_top" xlink:title="FastTV2CopyIterator\l\&lt; P_numtype, N_length \&gt;">
<polygon fill="#ffffff" stroke="#000000" points="157,-11.5 157,-41.5 259,-41.5 259,-11.5 157,-11.5"/>
<text text-anchor="start" x="165" y="-29.5" font-family="Helvetica,sans-Serif" font-size="10.00" fill="#000000">FastTV2CopyIterator</text>
<text text-anchor="middle" x="208" y="-18.5" font-family="Helvetica,sans-Serif" font-size="10.00" fill="#000000">&lt; P_numtype, N_length &gt;</text>
</a>
</g>
</g>
<!-- Node0&#45;&gt;Node1 -->
<g id="edge1" class="edge">
<title>Node0&#45;&gt;Node1</title>
<path fill="none" stroke="#191970" d="M131.6134,-26.5C140.0746,-26.5 148.5822,-26.5 156.6899,-26.5"/>
<polygon fill="#191970" stroke="#191970" points="131.3455,-23.0001 121.3455,-26.5 131.3454,-30.0001 131.3455,-23.0001"/>
</g>
</g>
</svg>
