<?xml version="1.0" encoding="UTF-8" standalone="no"?>
<!DOCTYPE svg PUBLIC "-//W3C//DTD SVG 1.1//EN"
 "http://www.w3.org/Graphics/SVG/1.1/DTD/svg11.dtd">
<!-- Generated by graphviz version 2.40.1 (20161225.0304)
 -->
<!-- Title: Graphical Class Hierarchy Pages: 1 -->
<svg width="416pt" height="83pt"
 viewBox="0.00 0.00 416.00 83.00" xmlns="http://www.w3.org/2000/svg" xmlns:xlink="http://www.w3.org/1999/xlink">
<g id="graph0" class="graph" transform="scale(1 1) rotate(0) translate(4 79)">
<title>Graphical Class Hierarchy</title>
<polygon fill="#ffffff" stroke="transparent" points="-4,4 -4,-79 412,-79 412,4 -4,4"/>
<!-- Node0 -->
<g id="node1" class="node">
<title>Node0</title>
<g id="a_node1"><a xlink:href="class__Numeric__limits__base.html" target="_top" xlink:title="_Numeric_limits_base\l\&lt; double \&gt;">
<polygon fill="#ffffff" stroke="#000000" points="0,-22.5 0,-52.5 90,-52.5 90,-22.5 0,-22.5"/>
<text text-anchor="start" x="8" y="-40.5" font-family="Helvetica,sans-Serif" font-size="10.00" fill="#000000">_Numeric_limits_base</text>
<text text-anchor="middle" x="45" y="-29.5" font-family="Helvetica,sans-Serif" font-size="10.00" fill="#000000">&lt; double &gt;</text>
</a>
</g>
</g>
<!-- Node1 -->
<g id="node2" class="node">
<title>Node1</title>
<g id="a_node2"><a xlink:href="class__Floating__limits.html" target="_top" xlink:title="_Floating_limits\&lt; double,\l DBL_MANT_DIG, DBL_DIG,\l DBL_MIN_EXP, DBL_MAX_EXP,\l DBL_MIN_10_EXP, DBL_MAX_10\l_EXP, 0x7ff00000u, 0x7ff10000u,\l 0x7ff90000u, true, round_to_nearest \&gt;">
<polygon fill="#ffffff" stroke="#000000" points="126,-.5 126,-74.5 272,-74.5 272,-.5 126,-.5"/>
<text text-anchor="start" x="134" y="-62.5" font-family="Helvetica,sans-Serif" font-size="10.00" fill="#000000">_Floating_limits&lt; double,</text>
<text text-anchor="start" x="134" y="-51.5" font-family="Helvetica,sans-Serif" font-size="10.00" fill="#000000"> DBL_MANT_DIG, DBL_DIG,</text>
<text text-anchor="start" x="134" y="-40.5" font-family="Helvetica,sans-Serif" font-size="10.00" fill="#000000"> DBL_MIN_EXP, DBL_MAX_EXP,</text>
<text text-anchor="start" x="134" y="-29.5" font-family="Helvetica,sans-Serif" font-size="10.00" fill="#000000"> DBL_MIN_10_EXP, DBL_MAX_10</text>
<text text-anchor="start" x="134" y="-18.5" font-family="Helvetica,sans-Serif" font-size="10.00" fill="#000000">_EXP, 0x7ff00000u, 0x7ff10000u,</text>
<text text-anchor="middle" x="199" y="-7.5" font-family="Helvetica,sans-Serif" font-size="10.00" fill="#000000"> 0x7ff90000u, true, round_to_nearest &gt;</text>
</a>
</g>
</g>
<!-- Node0&#45;&gt;Node1 -->
<g id="edge1" class="edge">
<title>Node0&#45;&gt;Node1</title>
<path fill="none" stroke="#191970" d="M100.5816,-37.5C108.8165,-37.5 117.4066,-37.5 125.9321,-37.5"/>
<polygon fill="#191970" stroke="#191970" points="100.3722,-34.0001 90.3721,-37.5 100.3721,-41.0001 100.3722,-34.0001"/>
</g>
<!-- Node2 -->
<g id="node3" class="node">
<title>Node2</title>
<g id="a_node3"><a xlink:href="classnumeric__limits_3_01double_01_4.html" target="_top" xlink:title="numeric_limits\&lt; double \&gt;">
<polygon fill="#ffffff" stroke="#000000" points="308,-28 308,-47 408,-47 408,-28 308,-28"/>
<text text-anchor="middle" x="358" y="-35" font-family="Helvetica,sans-Serif" font-size="10.00" fill="#000000">numeric_limits&lt; double &gt;</text>
</a>
</g>
</g>
<!-- Node1&#45;&gt;Node2 -->
<g id="edge2" class="edge">
<title>Node1&#45;&gt;Node2</title>
<path fill="none" stroke="#191970" d="M282.4924,-37.5C291.0435,-37.5 299.5329,-37.5 307.5634,-37.5"/>
<polygon fill="#191970" stroke="#191970" points="282.4496,-34.0001 272.4495,-37.5 282.4495,-41.0001 282.4496,-34.0001"/>
</g>
</g>
</svg>
