<?xml version="1.0" encoding="UTF-8" standalone="no"?>
<!DOCTYPE svg PUBLIC "-//W3C//DTD SVG 1.1//EN"
 "http://www.w3.org/Graphics/SVG/1.1/DTD/svg11.dtd">
<!-- Generated by graphviz version 2.40.1 (20161225.0304)
 -->
<!-- Title: Graphical Class Hierarchy Pages: 1 -->
<svg width="250pt" height="294pt"
 viewBox="0.00 0.00 250.00 294.00" xmlns="http://www.w3.org/2000/svg" xmlns:xlink="http://www.w3.org/1999/xlink">
<g id="graph0" class="graph" transform="scale(1 1) rotate(0) translate(4 290)">
<title>Graphical Class Hierarchy</title>
<polygon fill="#ffffff" stroke="transparent" points="-4,4 -4,-290 246,-290 246,4 -4,4"/>
<!-- Node0 -->
<g id="node1" class="node">
<title>Node0</title>
<g id="a_node1"><a xlink:href="class__bz__StencilExpr.html" target="_top" xlink:title="_bz_StencilExpr\&lt; P\l_expr, TinyVector\&lt; P\l_expr::T_numtype, 3 \&gt; \&gt;">
<polygon fill="#ffffff" stroke="#000000" points="0,-122.5 0,-163.5 98,-163.5 98,-122.5 0,-122.5"/>
<text text-anchor="start" x="8" y="-151.5" font-family="Helvetica,sans-Serif" font-size="10.00" fill="#000000">_bz_StencilExpr&lt; P</text>
<text text-anchor="start" x="8" y="-140.5" font-family="Helvetica,sans-Serif" font-size="10.00" fill="#000000">_expr, TinyVector&lt; P</text>
<text text-anchor="middle" x="49" y="-129.5" font-family="Helvetica,sans-Serif" font-size="10.00" fill="#000000">_expr::T_numtype, 3 &gt; &gt;</text>
</a>
</g>
</g>
<!-- Node1 -->
<g id="node2" class="node">
<title>Node1</title>
<g id="a_node2"><a xlink:href="classgrad3D4__et.html" target="_top" xlink:title="grad3D4_et\&lt; P_expr \&gt;">
<polygon fill="#ffffff" stroke="#000000" points="142,-266.5 142,-285.5 234,-285.5 234,-266.5 142,-266.5"/>
<text text-anchor="middle" x="188" y="-273.5" font-family="Helvetica,sans-Serif" font-size="10.00" fill="#000000">grad3D4_et&lt; P_expr &gt;</text>
</a>
</g>
</g>
<!-- Node0&#45;&gt;Node1 -->
<g id="edge1" class="edge">
<title>Node0&#45;&gt;Node1</title>
<path fill="none" stroke="#191970" d="M64.3766,-172.5495C79.0947,-198.1806 103.536,-234.5909 134,-257 139.2037,-260.8278 145.2462,-263.9367 151.3661,-266.445"/>
<polygon fill="#191970" stroke="#191970" points="67.3326,-170.6642 59.4009,-163.64 61.221,-174.0774 67.3326,-170.6642"/>
</g>
<!-- Node2 -->
<g id="node3" class="node">
<title>Node2</title>
<g id="a_node3"><a xlink:href="classgrad3D4n__et.html" target="_top" xlink:title="grad3D4n_et\&lt; P_expr \&gt;">
<polygon fill="#ffffff" stroke="#000000" points="139.5,-228.5 139.5,-247.5 236.5,-247.5 236.5,-228.5 139.5,-228.5"/>
<text text-anchor="middle" x="188" y="-235.5" font-family="Helvetica,sans-Serif" font-size="10.00" fill="#000000">grad3D4n_et&lt; P_expr &gt;</text>
</a>
</g>
</g>
<!-- Node0&#45;&gt;Node2 -->
<g id="edge2" class="edge">
<title>Node0&#45;&gt;Node2</title>
<path fill="none" stroke="#191970" d="M74.8068,-170.9939C90.6378,-186.8353 112.0342,-206.0134 134,-219 140.2452,-222.6923 147.3196,-225.8238 154.2426,-228.4141"/>
<polygon fill="#191970" stroke="#191970" points="76.9984,-168.2291 67.5042,-163.527 71.9939,-173.1235 76.9984,-168.2291"/>
</g>
<!-- Node3 -->
<g id="node4" class="node">
<title>Node3</title>
<g id="a_node4"><a xlink:href="classgrad3D__et.html" target="_top" xlink:title="grad3D_et\&lt; P_expr \&gt;">
<polygon fill="#ffffff" stroke="#000000" points="144,-190.5 144,-209.5 232,-209.5 232,-190.5 144,-190.5"/>
<text text-anchor="middle" x="188" y="-197.5" font-family="Helvetica,sans-Serif" font-size="10.00" fill="#000000">grad3D_et&lt; P_expr &gt;</text>
</a>
</g>
</g>
<!-- Node0&#45;&gt;Node3 -->
<g id="edge3" class="edge">
<title>Node0&#45;&gt;Node3</title>
<path fill="none" stroke="#191970" d="M102.6105,-167.7668C112.9617,-172.3211 123.7686,-176.921 134,-181 142.2163,-184.2756 151.2464,-187.5701 159.5314,-190.4744"/>
<polygon fill="#191970" stroke="#191970" points="103.8218,-164.4751 93.2621,-163.6132 100.9796,-170.8721 103.8218,-164.4751"/>
</g>
<!-- Node4 -->
<g id="node5" class="node">
<title>Node4</title>
<g id="a_node5"><a xlink:href="classgrad3Dn__et.html" target="_top" xlink:title="grad3Dn_et\&lt; P_expr \&gt;">
<polygon fill="#ffffff" stroke="#000000" points="142,-152.5 142,-171.5 234,-171.5 234,-152.5 142,-152.5"/>
<text text-anchor="middle" x="188" y="-159.5" font-family="Helvetica,sans-Serif" font-size="10.00" fill="#000000">grad3Dn_et&lt; P_expr &gt;</text>
</a>
</g>
</g>
<!-- Node0&#45;&gt;Node4 -->
<g id="edge4" class="edge">
<title>Node0&#45;&gt;Node4</title>
<path fill="none" stroke="#191970" d="M108.1811,-151.0895C119.4108,-152.6245 131.0081,-154.2097 141.7648,-155.6801"/>
<polygon fill="#191970" stroke="#191970" points="108.3881,-147.5853 98.0062,-149.6987 107.44,-154.5208 108.3881,-147.5853"/>
</g>
<!-- Node5 -->
<g id="node6" class="node">
<title>Node5</title>
<g id="a_node6"><a xlink:href="classgradSqr3D4__et.html" target="_top" xlink:title="gradSqr3D4_et\&lt; P_expr \&gt;">
<polygon fill="#ffffff" stroke="#000000" points="136,-114.5 136,-133.5 240,-133.5 240,-114.5 136,-114.5"/>
<text text-anchor="middle" x="188" y="-121.5" font-family="Helvetica,sans-Serif" font-size="10.00" fill="#000000">gradSqr3D4_et&lt; P_expr &gt;</text>
</a>
</g>
</g>
<!-- Node0&#45;&gt;Node5 -->
<g id="edge5" class="edge">
<title>Node0&#45;&gt;Node5</title>
<path fill="none" stroke="#191970" d="M108.1811,-134.9105C117.3155,-133.6619 126.693,-132.3801 135.6636,-131.1539"/>
<polygon fill="#191970" stroke="#191970" points="107.44,-131.4792 98.0062,-136.3013 108.3881,-138.4147 107.44,-131.4792"/>
</g>
<!-- Node6 -->
<g id="node7" class="node">
<title>Node6</title>
<g id="a_node7"><a xlink:href="classgradSqr3D4n__et.html" target="_top" xlink:title="gradSqr3D4n_et\&lt; P_expr \&gt;">
<polygon fill="#ffffff" stroke="#000000" points="134,-76.5 134,-95.5 242,-95.5 242,-76.5 134,-76.5"/>
<text text-anchor="middle" x="188" y="-83.5" font-family="Helvetica,sans-Serif" font-size="10.00" fill="#000000">gradSqr3D4n_et&lt; P_expr &gt;</text>
</a>
</g>
</g>
<!-- Node0&#45;&gt;Node6 -->
<g id="edge6" class="edge">
<title>Node0&#45;&gt;Node6</title>
<path fill="none" stroke="#191970" d="M102.6105,-118.2332C112.9617,-113.6789 123.7686,-109.079 134,-105 142.2163,-101.7244 151.2464,-98.4299 159.5314,-95.5256"/>
<polygon fill="#191970" stroke="#191970" points="100.9796,-115.1279 93.2621,-122.3868 103.8218,-121.5249 100.9796,-115.1279"/>
</g>
<!-- Node7 -->
<g id="node8" class="node">
<title>Node7</title>
<g id="a_node8"><a xlink:href="classgradSqr3D__et.html" target="_top" xlink:title="gradSqr3D_et\&lt; P_expr \&gt;">
<polygon fill="#ffffff" stroke="#000000" points="138,-38.5 138,-57.5 238,-57.5 238,-38.5 138,-38.5"/>
<text text-anchor="middle" x="188" y="-45.5" font-family="Helvetica,sans-Serif" font-size="10.00" fill="#000000">gradSqr3D_et&lt; P_expr &gt;</text>
</a>
</g>
</g>
<!-- Node0&#45;&gt;Node7 -->
<g id="edge7" class="edge">
<title>Node0&#45;&gt;Node7</title>
<path fill="none" stroke="#191970" d="M74.8068,-115.0061C90.6378,-99.1647 112.0342,-79.9866 134,-67 140.2452,-63.3077 147.3196,-60.1762 154.2426,-57.5859"/>
<polygon fill="#191970" stroke="#191970" points="71.9939,-112.8765 67.5042,-122.473 76.9984,-117.7709 71.9939,-112.8765"/>
</g>
<!-- Node8 -->
<g id="node9" class="node">
<title>Node8</title>
<g id="a_node9"><a xlink:href="classgradSqr3Dn__et.html" target="_top" xlink:title="gradSqr3Dn_et\&lt; P_expr \&gt;">
<polygon fill="#ffffff" stroke="#000000" points="136,-.5 136,-19.5 240,-19.5 240,-.5 136,-.5"/>
<text text-anchor="middle" x="188" y="-7.5" font-family="Helvetica,sans-Serif" font-size="10.00" fill="#000000">gradSqr3Dn_et&lt; P_expr &gt;</text>
</a>
</g>
</g>
<!-- Node0&#45;&gt;Node8 -->
<g id="edge8" class="edge">
<title>Node0&#45;&gt;Node8</title>
<path fill="none" stroke="#191970" d="M64.3766,-113.4505C79.0947,-87.8194 103.536,-51.4091 134,-29 139.2037,-25.1722 145.2462,-22.0633 151.3661,-19.555"/>
<polygon fill="#191970" stroke="#191970" points="61.221,-111.9226 59.4009,-122.36 67.3326,-115.3358 61.221,-111.9226"/>
</g>
</g>
</svg>
