<?xml version="1.0" encoding="UTF-8" standalone="no"?>
<!DOCTYPE svg PUBLIC "-//W3C//DTD SVG 1.1//EN"
 "http://www.w3.org/Graphics/SVG/1.1/DTD/svg11.dtd">
<!-- Generated by graphviz version 2.40.1 (20161225.0304)
 -->
<!-- Title: Graphical Class Hierarchy Pages: 1 -->
<svg width="240pt" height="1966pt"
 viewBox="0.00 0.00 240.00 1966.00" xmlns="http://www.w3.org/2000/svg" xmlns:xlink="http://www.w3.org/1999/xlink">
<g id="graph0" class="graph" transform="scale(1 1) rotate(0) translate(4 1962)">
<title>Graphical Class Hierarchy</title>
<polygon fill="#ffffff" stroke="transparent" points="-4,4 -4,-1962 236,-1962 236,4 -4,4"/>
<!-- Node0 -->
<g id="node1" class="node">
<title>Node0</title>
<g id="a_node1"><a xlink:href="class__bz__StencilExpr.html" target="_top" xlink:title="_bz_StencilExpr\&lt; P\l_expr, _bz_P_expr::T\l_numtype \&gt;">
<polygon fill="#ffffff" stroke="#000000" points="0,-958.5 0,-999.5 88,-999.5 88,-958.5 0,-958.5"/>
<text text-anchor="start" x="8" y="-987.5" font-family="Helvetica,sans-Serif" font-size="10.00" fill="#000000">_bz_StencilExpr&lt; P</text>
<text text-anchor="start" x="8" y="-976.5" font-family="Helvetica,sans-Serif" font-size="10.00" fill="#000000">_expr, _bz_P_expr::T</text>
<text text-anchor="middle" x="44" y="-965.5" font-family="Helvetica,sans-Serif" font-size="10.00" fill="#000000">_numtype &gt;</text>
</a>
</g>
</g>
<!-- Node1 -->
<g id="node2" class="node">
<title>Node1</title>
<g id="a_node2"><a xlink:href="classbackward11__et.html" target="_top" xlink:title="backward11_et\&lt; P_expr \&gt;">
<polygon fill="#ffffff" stroke="#000000" points="126,-1938.5 126,-1957.5 230,-1957.5 230,-1938.5 126,-1938.5"/>
<text text-anchor="middle" x="178" y="-1945.5" font-family="Helvetica,sans-Serif" font-size="10.00" fill="#000000">backward11_et&lt; P_expr &gt;</text>
</a>
</g>
</g>
<!-- Node0&#45;&gt;Node1 -->
<g id="edge1" class="edge">
<title>Node0&#45;&gt;Node1</title>
<path fill="none" stroke="#191970" d="M44.6329,-1009.8463C48.072,-1164.9002 66.528,-1854.6788 124,-1929 126.979,-1932.8524 130.796,-1935.9261 135.021,-1938.3781"/>
<polygon fill="#191970" stroke="#191970" points="48.1272,-1009.544 44.4109,-999.6223 41.1289,-1009.696 48.1272,-1009.544"/>
</g>
<!-- Node2 -->
<g id="node3" class="node">
<title>Node2</title>
<g id="a_node3"><a xlink:href="classbackward11n__et.html" target="_top" xlink:title="backward11n_et\&lt; P_expr \&gt;">
<polygon fill="#ffffff" stroke="#000000" points="124,-1900.5 124,-1919.5 232,-1919.5 232,-1900.5 124,-1900.5"/>
<text text-anchor="middle" x="178" y="-1907.5" font-family="Helvetica,sans-Serif" font-size="10.00" fill="#000000">backward11n_et&lt; P_expr &gt;</text>
</a>
</g>
</g>
<!-- Node0&#45;&gt;Node2 -->
<g id="edge2" class="edge">
<title>Node0&#45;&gt;Node2</title>
<path fill="none" stroke="#191970" d="M44.7525,-1010.0366C48.6872,-1161.6453 68.8603,-1819.9509 124,-1891 126.9857,-1894.8472 130.8068,-1897.9177 135.0341,-1900.3679"/>
<polygon fill="#191970" stroke="#191970" points="48.2408,-1009.5313 44.4873,-999.6237 41.2431,-1009.7096 48.2408,-1009.5313"/>
</g>
<!-- Node3 -->
<g id="node4" class="node">
<title>Node3</title>
<g id="a_node4"><a xlink:href="classbackward12__et.html" target="_top" xlink:title="backward12_et\&lt; P_expr \&gt;">
<polygon fill="#ffffff" stroke="#000000" points="126,-1862.5 126,-1881.5 230,-1881.5 230,-1862.5 126,-1862.5"/>
<text text-anchor="middle" x="178" y="-1869.5" font-family="Helvetica,sans-Serif" font-size="10.00" fill="#000000">backward12_et&lt; P_expr &gt;</text>
</a>
</g>
</g>
<!-- Node0&#45;&gt;Node3 -->
<g id="edge3" class="edge">
<title>Node0&#45;&gt;Node3</title>
<path fill="none" stroke="#191970" d="M44.8674,-1009.6928C49.2799,-1156.7699 71.1253,-1785.1349 124,-1853 126.993,-1856.8415 130.8186,-1859.9085 135.0484,-1862.3568"/>
<polygon fill="#191970" stroke="#191970" points="48.3623,-1009.4639 44.5687,-999.5715 41.3654,-1009.6704 48.3623,-1009.4639"/>
</g>
<!-- Node4 -->
<g id="node5" class="node">
<title>Node4</title>
<g id="a_node5"><a xlink:href="classbackward12n__et.html" target="_top" xlink:title="backward12n_et\&lt; P_expr \&gt;">
<polygon fill="#ffffff" stroke="#000000" points="124,-1824.5 124,-1843.5 232,-1843.5 232,-1824.5 124,-1824.5"/>
<text text-anchor="middle" x="178" y="-1831.5" font-family="Helvetica,sans-Serif" font-size="10.00" fill="#000000">backward12n_et&lt; P_expr &gt;</text>
</a>
</g>
</g>
<!-- Node0&#45;&gt;Node4 -->
<g id="edge4" class="edge">
<title>Node0&#45;&gt;Node4</title>
<path fill="none" stroke="#191970" d="M45.0191,-1010.175C49.9848,-1154.1442 73.4858,-1750.4397 124,-1815 127.0621,-1818.9136 130.9881,-1822.0232 135.3235,-1824.4937"/>
<polygon fill="#191970" stroke="#191970" points="48.5063,-1009.7366 44.6686,-999.8613 41.5104,-1009.9744 48.5063,-1009.7366"/>
</g>
<!-- Node5 -->
<g id="node6" class="node">
<title>Node5</title>
<g id="a_node6"><a xlink:href="classbackward21__et.html" target="_top" xlink:title="backward21_et\&lt; P_expr \&gt;">
<polygon fill="#ffffff" stroke="#000000" points="126,-1786.5 126,-1805.5 230,-1805.5 230,-1786.5 126,-1786.5"/>
<text text-anchor="middle" x="178" y="-1793.5" font-family="Helvetica,sans-Serif" font-size="10.00" fill="#000000">backward21_et&lt; P_expr &gt;</text>
</a>
</g>
</g>
<!-- Node0&#45;&gt;Node5 -->
<g id="edge5" class="edge">
<title>Node0&#45;&gt;Node5</title>
<path fill="none" stroke="#191970" d="M45.1655,-1010.0802C50.6632,-1149.8031 75.7748,-1715.6509 124,-1777 127.071,-1780.9067 131.0023,-1784.0121 135.3407,-1786.4802"/>
<polygon fill="#191970" stroke="#191970" points="48.6474,-1009.5413 44.762,-999.6846 41.6526,-1009.8129 48.6474,-1009.5413"/>
</g>
<!-- Node6 -->
<g id="node7" class="node">
<title>Node6</title>
<g id="a_node7"><a xlink:href="classbackward21n__et.html" target="_top" xlink:title="backward21n_et\&lt; P_expr \&gt;">
<polygon fill="#ffffff" stroke="#000000" points="124,-1748.5 124,-1767.5 232,-1767.5 232,-1748.5 124,-1748.5"/>
<text text-anchor="middle" x="178" y="-1755.5" font-family="Helvetica,sans-Serif" font-size="10.00" fill="#000000">backward21n_et&lt; P_expr &gt;</text>
</a>
</g>
</g>
<!-- Node0&#45;&gt;Node6 -->
<g id="edge6" class="edge">
<title>Node0&#45;&gt;Node6</title>
<path fill="none" stroke="#191970" d="M45.3228,-1009.9175C51.3665,-1145.1967 78.0531,-1680.8467 124,-1739 127.0806,-1742.899 131.0178,-1745.9998 135.3595,-1748.4654"/>
<polygon fill="#191970" stroke="#191970" points="48.815,-1009.6611 44.8772,-999.8252 41.8218,-1009.9699 48.815,-1009.6611"/>
</g>
<!-- Node7 -->
<g id="node8" class="node">
<title>Node7</title>
<g id="a_node8"><a xlink:href="classbackward22__et.html" target="_top" xlink:title="backward22_et\&lt; P_expr \&gt;">
<polygon fill="#ffffff" stroke="#000000" points="126,-1710.5 126,-1729.5 230,-1729.5 230,-1710.5 126,-1710.5"/>
<text text-anchor="middle" x="178" y="-1717.5" font-family="Helvetica,sans-Serif" font-size="10.00" fill="#000000">backward22_et&lt; P_expr &gt;</text>
</a>
</g>
</g>
<!-- Node0&#45;&gt;Node7 -->
<g id="edge7" class="edge">
<title>Node0&#45;&gt;Node7</title>
<path fill="none" stroke="#191970" d="M45.4881,-1009.6134C52.0856,-1140.1407 80.3128,-1646.0168 124,-1701 127.0913,-1704.8906 131.035,-1707.9862 135.3802,-1710.449"/>
<polygon fill="#191970" stroke="#191970" points="48.9782,-1009.326 44.9831,-999.5133 41.9869,-1009.6757 48.9782,-1009.326"/>
</g>
<!-- Node8 -->
<g id="node9" class="node">
<title>Node8</title>
<g id="a_node9"><a xlink:href="classbackward22n__et.html" target="_top" xlink:title="backward22n_et\&lt; P_expr \&gt;">
<polygon fill="#ffffff" stroke="#000000" points="124,-1672.5 124,-1691.5 232,-1691.5 232,-1672.5 124,-1672.5"/>
<text text-anchor="middle" x="178" y="-1679.5" font-family="Helvetica,sans-Serif" font-size="10.00" fill="#000000">backward22n_et&lt; P_expr &gt;</text>
</a>
</g>
</g>
<!-- Node0&#45;&gt;Node8 -->
<g id="edge8" class="edge">
<title>Node0&#45;&gt;Node8</title>
<path fill="none" stroke="#191970" d="M45.7104,-1010.0284C52.9546,-1136.8152 82.6484,-1611.2798 124,-1663 127.1031,-1666.8812 131.054,-1669.9711 135.4031,-1672.4307"/>
<polygon fill="#191970" stroke="#191970" points="49.1938,-1009.634 45.1344,-999.8476 42.2049,-1010.0294 49.1938,-1009.634"/>
</g>
<!-- Node9 -->
<g id="node10" class="node">
<title>Node9</title>
<g id="a_node10"><a xlink:href="classbackward31__et.html" target="_top" xlink:title="backward31_et\&lt; P_expr \&gt;">
<polygon fill="#ffffff" stroke="#000000" points="126,-1634.5 126,-1653.5 230,-1653.5 230,-1634.5 126,-1634.5"/>
<text text-anchor="middle" x="178" y="-1641.5" font-family="Helvetica,sans-Serif" font-size="10.00" fill="#000000">backward31_et&lt; P_expr &gt;</text>
</a>
</g>
</g>
<!-- Node0&#45;&gt;Node9 -->
<g id="edge9" class="edge">
<title>Node0&#45;&gt;Node9</title>
<path fill="none" stroke="#191970" d="M45.9249,-1009.8695C53.7881,-1131.9117 84.9167,-1576.4552 124,-1625 127.1162,-1628.8706 131.0751,-1631.9541 135.4287,-1634.4102"/>
<polygon fill="#191970" stroke="#191970" points="49.407,-1009.4771 45.2769,-999.7205 42.4213,-1009.9232 49.407,-1009.4771"/>
</g>
<!-- Node10 -->
<g id="node11" class="node">
<title>Node10</title>
<g id="a_node11"><a xlink:href="classbackward31n__et.html" target="_top" xlink:title="backward31n_et\&lt; P_expr \&gt;">
<polygon fill="#ffffff" stroke="#000000" points="124,-1596.5 124,-1615.5 232,-1615.5 232,-1596.5 124,-1596.5"/>
<text text-anchor="middle" x="178" y="-1603.5" font-family="Helvetica,sans-Serif" font-size="10.00" fill="#000000">backward31n_et&lt; P_expr &gt;</text>
</a>
</g>
</g>
<!-- Node0&#45;&gt;Node10 -->
<g id="edge10" class="edge">
<title>Node0&#45;&gt;Node10</title>
<path fill="none" stroke="#191970" d="M46.1818,-1009.9475C54.7188,-1127.4537 87.2059,-1541.6532 124,-1587 127.131,-1590.8587 131.0988,-1593.935 135.4573,-1596.3871"/>
<polygon fill="#191970" stroke="#191970" points="49.6625,-1009.5527 45.4528,-999.8301 42.6806,-1010.0558 49.6625,-1009.5527"/>
</g>
<!-- Node11 -->
<g id="node12" class="node">
<title>Node11</title>
<g id="a_node12"><a xlink:href="classbackward32__et.html" target="_top" xlink:title="backward32_et\&lt; P_expr \&gt;">
<polygon fill="#ffffff" stroke="#000000" points="126,-1558.5 126,-1577.5 230,-1577.5 230,-1558.5 126,-1558.5"/>
<text text-anchor="middle" x="178" y="-1565.5" font-family="Helvetica,sans-Serif" font-size="10.00" fill="#000000">backward32_et&lt; P_expr &gt;</text>
</a>
</g>
</g>
<!-- Node0&#45;&gt;Node11 -->
<g id="edge11" class="edge">
<title>Node0&#45;&gt;Node11</title>
<path fill="none" stroke="#191970" d="M46.4577,-1009.8362C55.6809,-1122.4056 89.4704,-1506.8166 124,-1549 127.1476,-1552.8452 131.1255,-1555.9132 135.4895,-1558.3609"/>
<polygon fill="#191970" stroke="#191970" points="49.9416,-1009.4951 45.6427,-999.8116 42.9647,-1010.0624 49.9416,-1009.4951"/>
</g>
<!-- Node12 -->
<g id="node13" class="node">
<title>Node12</title>
<g id="a_node13"><a xlink:href="classbackward32n__et.html" target="_top" xlink:title="backward32n_et\&lt; P_expr \&gt;">
<polygon fill="#ffffff" stroke="#000000" points="124,-1520.5 124,-1539.5 232,-1539.5 232,-1520.5 124,-1520.5"/>
<text text-anchor="middle" x="178" y="-1527.5" font-family="Helvetica,sans-Serif" font-size="10.00" fill="#000000">backward32n_et&lt; P_expr &gt;</text>
</a>
</g>
</g>
<!-- Node0&#45;&gt;Node12 -->
<g id="edge12" class="edge">
<title>Node0&#45;&gt;Node12</title>
<path fill="none" stroke="#191970" d="M44.5784,-1009.7268C47.0898,-1111.2175 60.0459,-1433.6479 124,-1511 127.2297,-1514.9063 131.3158,-1518.0103 135.7887,-1520.4766"/>
<polygon fill="#191970" stroke="#191970" points="48.0731,-1009.4518 44.3436,-999.5352 41.075,-1009.6132 48.0731,-1009.4518"/>
</g>
<!-- Node13 -->
<g id="node14" class="node">
<title>Node13</title>
<g id="a_node14"><a xlink:href="classbackward41__et.html" target="_top" xlink:title="backward41_et\&lt; P_expr \&gt;">
<polygon fill="#ffffff" stroke="#000000" points="126,-1482.5 126,-1501.5 230,-1501.5 230,-1482.5 126,-1482.5"/>
<text text-anchor="middle" x="178" y="-1489.5" font-family="Helvetica,sans-Serif" font-size="10.00" fill="#000000">backward41_et&lt; P_expr &gt;</text>
</a>
</g>
</g>
<!-- Node0&#45;&gt;Node13 -->
<g id="edge13" class="edge">
<title>Node0&#45;&gt;Node13</title>
<path fill="none" stroke="#191970" d="M44.9754,-1009.7742C48.638,-1106.4637 64.5675,-1401.9376 124,-1473 127.2517,-1476.888 131.351,-1479.981 135.8311,-1482.4414"/>
<polygon fill="#191970" stroke="#191970" points="48.4725,-1009.6277 44.6136,-999.7606 41.4771,-1009.8805 48.4725,-1009.6277"/>
</g>
<!-- Node14 -->
<g id="node15" class="node">
<title>Node14</title>
<g id="a_node15"><a xlink:href="classbackward41n__et.html" target="_top" xlink:title="backward41n_et\&lt; P_expr \&gt;">
<polygon fill="#ffffff" stroke="#000000" points="124,-1444.5 124,-1463.5 232,-1463.5 232,-1444.5 124,-1444.5"/>
<text text-anchor="middle" x="178" y="-1451.5" font-family="Helvetica,sans-Serif" font-size="10.00" fill="#000000">backward41n_et&lt; P_expr &gt;</text>
</a>
</g>
</g>
<!-- Node0&#45;&gt;Node14 -->
<g id="edge14" class="edge">
<title>Node0&#45;&gt;Node14</title>
<path fill="none" stroke="#191970" d="M45.4215,-1009.5108C50.2679,-1100.9022 69.0123,-1370.1218 124,-1435 127.2772,-1438.8666 131.3917,-1441.9467 135.88,-1444.4002"/>
<polygon fill="#191970" stroke="#191970" points="48.9165,-1009.3231 44.9098,-999.5152 41.9257,-1009.6811 48.9165,-1009.3231"/>
</g>
<!-- Node15 -->
<g id="node16" class="node">
<title>Node15</title>
<g id="a_node16"><a xlink:href="classbackward42__et.html" target="_top" xlink:title="backward42_et\&lt; P_expr \&gt;">
<polygon fill="#ffffff" stroke="#000000" points="126,-1406.5 126,-1425.5 230,-1425.5 230,-1406.5 126,-1406.5"/>
<text text-anchor="middle" x="178" y="-1413.5" font-family="Helvetica,sans-Serif" font-size="10.00" fill="#000000">backward42_et&lt; P_expr &gt;</text>
</a>
</g>
</g>
<!-- Node0&#45;&gt;Node15 -->
<g id="edge15" class="edge">
<title>Node0&#45;&gt;Node15</title>
<path fill="none" stroke="#191970" d="M45.9792,-1009.8072C52.1202,-1096.2191 73.553,-1338.4019 124,-1397 127.3717,-1400.9165 131.6017,-1404.0259 136.2022,-1406.4944"/>
<polygon fill="#191970" stroke="#191970" points="49.4551,-1009.3361 45.2741,-999.6012 42.4717,-1009.8186 49.4551,-1009.3361"/>
</g>
<!-- Node16 -->
<g id="node17" class="node">
<title>Node16</title>
<g id="a_node17"><a xlink:href="classbackward42n__et.html" target="_top" xlink:title="backward42n_et\&lt; P_expr \&gt;">
<polygon fill="#ffffff" stroke="#000000" points="124,-1368.5 124,-1387.5 232,-1387.5 232,-1368.5 124,-1368.5"/>
<text text-anchor="middle" x="178" y="-1375.5" font-family="Helvetica,sans-Serif" font-size="10.00" fill="#000000">backward42n_et&lt; P_expr &gt;</text>
</a>
</g>
</g>
<!-- Node0&#45;&gt;Node16 -->
<g id="edge16" class="edge">
<title>Node0&#45;&gt;Node16</title>
<path fill="none" stroke="#191970" d="M46.6444,-1010.0002C54.146,-1091.0514 78.0528,-1306.6111 124,-1359 127.4076,-1362.8854 131.6589,-1365.9762 136.2705,-1368.435"/>
<polygon fill="#191970" stroke="#191970" points="50.1196,-1009.5674 45.7327,-999.9235 43.1481,-1010.1982 50.1196,-1009.5674"/>
</g>
<!-- Node17 -->
<g id="node18" class="node">
<title>Node17</title>
<g id="a_node18"><a xlink:href="classcentral12__et.html" target="_top" xlink:title="central12_et\&lt; P_expr \&gt;">
<polygon fill="#ffffff" stroke="#000000" points="131,-1330.5 131,-1349.5 225,-1349.5 225,-1330.5 131,-1330.5"/>
<text text-anchor="middle" x="178" y="-1337.5" font-family="Helvetica,sans-Serif" font-size="10.00" fill="#000000">central12_et&lt; P_expr &gt;</text>
</a>
</g>
</g>
<!-- Node0&#45;&gt;Node17 -->
<g id="edge17" class="edge">
<title>Node0&#45;&gt;Node17</title>
<path fill="none" stroke="#191970" d="M47.425,-1009.9034C56.3357,-1085.075 82.4765,-1274.7061 124,-1321 127.4507,-1324.8471 131.7276,-1327.9153 136.3526,-1330.3622"/>
<polygon fill="#191970" stroke="#191970" points="50.8671,-1009.2025 46.2355,-999.6737 43.914,-1010.0111 50.8671,-1009.2025"/>
</g>
<!-- Node18 -->
<g id="node19" class="node">
<title>Node18</title>
<g id="a_node19"><a xlink:href="classcentral12n__et.html" target="_top" xlink:title="central12n_et\&lt; P_expr \&gt;">
<polygon fill="#ffffff" stroke="#000000" points="128.5,-1292.5 128.5,-1311.5 227.5,-1311.5 227.5,-1292.5 128.5,-1292.5"/>
<text text-anchor="middle" x="178" y="-1299.5" font-family="Helvetica,sans-Serif" font-size="10.00" fill="#000000">central12n_et&lt; P_expr &gt;</text>
</a>
</g>
</g>
<!-- Node0&#45;&gt;Node18 -->
<g id="edge18" class="edge">
<title>Node0&#45;&gt;Node18</title>
<path fill="none" stroke="#191970" d="M48.3799,-1009.7302C58.7734,-1078.6602 86.8635,-1242.7266 124,-1283 127.5707,-1286.8723 131.9775,-1289.9556 136.7211,-1292.4107"/>
<polygon fill="#191970" stroke="#191970" points="51.7945,-1008.8959 46.865,-999.5177 44.8703,-1009.923 51.7945,-1008.8959"/>
</g>
<!-- Node19 -->
<g id="node20" class="node">
<title>Node19</title>
<g id="a_node20"><a xlink:href="classcentral14__et.html" target="_top" xlink:title="central14_et\&lt; P_expr \&gt;">
<polygon fill="#ffffff" stroke="#000000" points="131,-1254.5 131,-1273.5 225,-1273.5 225,-1254.5 131,-1254.5"/>
<text text-anchor="middle" x="178" y="-1261.5" font-family="Helvetica,sans-Serif" font-size="10.00" fill="#000000">central14_et&lt; P_expr &gt;</text>
</a>
</g>
</g>
<!-- Node0&#45;&gt;Node19 -->
<g id="edge19" class="edge">
<title>Node0&#45;&gt;Node19</title>
<path fill="none" stroke="#191970" d="M49.6304,-1009.7559C61.6184,-1072.1741 91.2589,-1210.711 124,-1245 127.7062,-1248.8814 132.2516,-1251.9708 137.1172,-1254.4295"/>
<polygon fill="#191970" stroke="#191970" points="53.0298,-1008.8961 47.7299,-999.7222 46.1521,-1010.1989 53.0298,-1008.8961"/>
</g>
<!-- Node20 -->
<g id="node21" class="node">
<title>Node20</title>
<g id="a_node21"><a xlink:href="classcentral14n__et.html" target="_top" xlink:title="central14n_et\&lt; P_expr \&gt;">
<polygon fill="#ffffff" stroke="#000000" points="128.5,-1216.5 128.5,-1235.5 227.5,-1235.5 227.5,-1216.5 128.5,-1216.5"/>
<text text-anchor="middle" x="178" y="-1223.5" font-family="Helvetica,sans-Serif" font-size="10.00" fill="#000000">central14n_et&lt; P_expr &gt;</text>
</a>
</g>
</g>
<!-- Node0&#45;&gt;Node20 -->
<g id="edge20" class="edge">
<title>Node0&#45;&gt;Node20</title>
<path fill="none" stroke="#191970" d="M46.4715,-1009.9414C51.9696,-1058.421 69.4213,-1152.3739 124,-1207 127.8634,-1210.8668 132.5593,-1213.9491 137.5517,-1216.4055"/>
<polygon fill="#191970" stroke="#191970" points="49.9287,-1009.3457 45.4183,-999.7589 42.9658,-1010.0659 49.9287,-1009.3457"/>
</g>
<!-- Node21 -->
<g id="node22" class="node">
<title>Node21</title>
<g id="a_node22"><a xlink:href="classcentral22__et.html" target="_top" xlink:title="central22_et\&lt; P_expr \&gt;">
<polygon fill="#ffffff" stroke="#000000" points="131,-1178.5 131,-1197.5 225,-1197.5 225,-1178.5 131,-1178.5"/>
<text text-anchor="middle" x="178" y="-1185.5" font-family="Helvetica,sans-Serif" font-size="10.00" fill="#000000">central22_et&lt; P_expr &gt;</text>
</a>
</g>
</g>
<!-- Node0&#45;&gt;Node21 -->
<g id="edge21" class="edge">
<title>Node0&#45;&gt;Node21</title>
<path fill="none" stroke="#191970" d="M48.9117,-1009.3825C57.1831,-1050.9828 77.757,-1125.4602 124,-1169 128.1244,-1172.8833 133.0893,-1175.9793 138.3158,-1178.446"/>
<polygon fill="#191970" stroke="#191970" points="52.3514,-1008.7355 47.0657,-999.5534 45.4717,-1010.0276 52.3514,-1008.7355"/>
</g>
<!-- Node22 -->
<g id="node23" class="node">
<title>Node22</title>
<g id="a_node23"><a xlink:href="classcentral22n__et.html" target="_top" xlink:title="central22n_et\&lt; P_expr \&gt;">
<polygon fill="#ffffff" stroke="#000000" points="128.5,-1140.5 128.5,-1159.5 227.5,-1159.5 227.5,-1140.5 128.5,-1140.5"/>
<text text-anchor="middle" x="178" y="-1147.5" font-family="Helvetica,sans-Serif" font-size="10.00" fill="#000000">central22n_et&lt; P_expr &gt;</text>
</a>
</g>
</g>
<!-- Node0&#45;&gt;Node22 -->
<g id="edge22" class="edge">
<title>Node0&#45;&gt;Node22</title>
<path fill="none" stroke="#191970" d="M52.5772,-1009.4138C63.6936,-1043.5509 86.2627,-1098.4111 124,-1131 128.5131,-1134.8974 133.877,-1138.0116 139.445,-1140.4956"/>
<polygon fill="#191970" stroke="#191970" points="55.8131,-1008.0341 49.4908,-999.5324 49.1314,-1010.1212 55.8131,-1008.0341"/>
</g>
<!-- Node23 -->
<g id="node24" class="node">
<title>Node23</title>
<g id="a_node24"><a xlink:href="classcentral24__et.html" target="_top" xlink:title="central24_et\&lt; P_expr \&gt;">
<polygon fill="#ffffff" stroke="#000000" points="131,-1102.5 131,-1121.5 225,-1121.5 225,-1102.5 131,-1102.5"/>
<text text-anchor="middle" x="178" y="-1109.5" font-family="Helvetica,sans-Serif" font-size="10.00" fill="#000000">central24_et&lt; P_expr &gt;</text>
</a>
</g>
</g>
<!-- Node0&#45;&gt;Node23 -->
<g id="edge23" class="edge">
<title>Node0&#45;&gt;Node23</title>
<path fill="none" stroke="#191970" d="M58.0631,-1008.5663C71.6456,-1034.2086 94.4829,-1070.6257 124,-1093 129.0689,-1096.8423 134.9783,-1099.9509 140.9913,-1102.4526"/>
<polygon fill="#191970" stroke="#191970" points="61.1663,-1006.9472 53.4826,-999.6526 54.9402,-1010.1467 61.1663,-1006.9472"/>
</g>
<!-- Node24 -->
<g id="node25" class="node">
<title>Node24</title>
<g id="a_node25"><a xlink:href="classcentral24n__et.html" target="_top" xlink:title="central24n_et\&lt; P_expr \&gt;">
<polygon fill="#ffffff" stroke="#000000" points="128.5,-1064.5 128.5,-1083.5 227.5,-1083.5 227.5,-1064.5 128.5,-1064.5"/>
<text text-anchor="middle" x="178" y="-1071.5" font-family="Helvetica,sans-Serif" font-size="10.00" fill="#000000">central24n_et&lt; P_expr &gt;</text>
</a>
</g>
</g>
<!-- Node0&#45;&gt;Node24 -->
<g id="edge24" class="edge">
<title>Node0&#45;&gt;Node24</title>
<path fill="none" stroke="#191970" d="M67.9992,-1007.0672C82.7998,-1022.9338 102.9348,-1042.1125 124,-1055 130.1039,-1058.7343 137.0459,-1061.871 143.8716,-1064.4509"/>
<polygon fill="#191970" stroke="#191970" points="70.5042,-1004.6198 61.1814,-999.5863 65.3305,-1009.335 70.5042,-1004.6198"/>
</g>
<!-- Node25 -->
<g id="node26" class="node">
<title>Node25</title>
<g id="a_node26"><a xlink:href="classcentral32__et.html" target="_top" xlink:title="central32_et\&lt; P_expr \&gt;">
<polygon fill="#ffffff" stroke="#000000" points="131,-1026.5 131,-1045.5 225,-1045.5 225,-1026.5 131,-1026.5"/>
<text text-anchor="middle" x="178" y="-1033.5" font-family="Helvetica,sans-Serif" font-size="10.00" fill="#000000">central32_et&lt; P_expr &gt;</text>
</a>
</g>
</g>
<!-- Node0&#45;&gt;Node25 -->
<g id="edge25" class="edge">
<title>Node0&#45;&gt;Node25</title>
<path fill="none" stroke="#191970" d="M94.3373,-1003.8949C104.0961,-1008.4406 114.304,-1013.0044 124,-1017 132.0861,-1020.3322 140.9939,-1023.6186 149.2029,-1026.497"/>
<polygon fill="#191970" stroke="#191970" points="95.6873,-1000.662 85.1498,-999.5615 92.7011,-1006.9931 95.6873,-1000.662"/>
</g>
<!-- Node26 -->
<g id="node27" class="node">
<title>Node26</title>
<g id="a_node27"><a xlink:href="classcentral32n__et.html" target="_top" xlink:title="central32n_et\&lt; P_expr \&gt;">
<polygon fill="#ffffff" stroke="#000000" points="128.5,-988.5 128.5,-1007.5 227.5,-1007.5 227.5,-988.5 128.5,-988.5"/>
<text text-anchor="middle" x="178" y="-995.5" font-family="Helvetica,sans-Serif" font-size="10.00" fill="#000000">central32n_et&lt; P_expr &gt;</text>
</a>
</g>
</g>
<!-- Node0&#45;&gt;Node26 -->
<g id="edge26" class="edge">
<title>Node0&#45;&gt;Node26</title>
<path fill="none" stroke="#191970" d="M98.3667,-986.7087C108.2448,-988.1093 118.5031,-989.5639 128.2402,-990.9445"/>
<polygon fill="#191970" stroke="#191970" points="98.6403,-983.2126 88.248,-985.274 97.6576,-990.1433 98.6403,-983.2126"/>
</g>
<!-- Node27 -->
<g id="node28" class="node">
<title>Node27</title>
<g id="a_node28"><a xlink:href="classcentral34__et.html" target="_top" xlink:title="central34_et\&lt; P_expr \&gt;">
<polygon fill="#ffffff" stroke="#000000" points="131,-950.5 131,-969.5 225,-969.5 225,-950.5 131,-950.5"/>
<text text-anchor="middle" x="178" y="-957.5" font-family="Helvetica,sans-Serif" font-size="10.00" fill="#000000">central34_et&lt; P_expr &gt;</text>
</a>
</g>
</g>
<!-- Node0&#45;&gt;Node27 -->
<g id="edge27" class="edge">
<title>Node0&#45;&gt;Node27</title>
<path fill="none" stroke="#191970" d="M98.3184,-971.2981C109.0035,-969.7831 120.1353,-968.2047 130.5725,-966.7248"/>
<polygon fill="#191970" stroke="#191970" points="97.6576,-967.8567 88.248,-972.726 98.6403,-974.7874 97.6576,-967.8567"/>
</g>
<!-- Node28 -->
<g id="node29" class="node">
<title>Node28</title>
<g id="a_node29"><a xlink:href="classcentral34n__et.html" target="_top" xlink:title="central34n_et\&lt; P_expr \&gt;">
<polygon fill="#ffffff" stroke="#000000" points="128.5,-912.5 128.5,-931.5 227.5,-931.5 227.5,-912.5 128.5,-912.5"/>
<text text-anchor="middle" x="178" y="-919.5" font-family="Helvetica,sans-Serif" font-size="10.00" fill="#000000">central34n_et&lt; P_expr &gt;</text>
</a>
</g>
</g>
<!-- Node0&#45;&gt;Node28 -->
<g id="edge28" class="edge">
<title>Node0&#45;&gt;Node28</title>
<path fill="none" stroke="#191970" d="M94.3373,-954.1051C104.0961,-949.5594 114.304,-944.9956 124,-941 132.0861,-937.6678 140.9939,-934.3814 149.2029,-931.503"/>
<polygon fill="#191970" stroke="#191970" points="92.7011,-951.0069 85.1498,-958.4385 95.6873,-957.338 92.7011,-951.0069"/>
</g>
<!-- Node29 -->
<g id="node30" class="node">
<title>Node29</title>
<g id="a_node30"><a xlink:href="classcentral42__et.html" target="_top" xlink:title="central42_et\&lt; P_expr \&gt;">
<polygon fill="#ffffff" stroke="#000000" points="131,-874.5 131,-893.5 225,-893.5 225,-874.5 131,-874.5"/>
<text text-anchor="middle" x="178" y="-881.5" font-family="Helvetica,sans-Serif" font-size="10.00" fill="#000000">central42_et&lt; P_expr &gt;</text>
</a>
</g>
</g>
<!-- Node0&#45;&gt;Node29 -->
<g id="edge29" class="edge">
<title>Node0&#45;&gt;Node29</title>
<path fill="none" stroke="#191970" d="M67.9992,-950.9328C82.7998,-935.0662 102.9348,-915.8875 124,-903 130.1039,-899.2657 137.0459,-896.129 143.8716,-893.5491"/>
<polygon fill="#191970" stroke="#191970" points="65.3305,-948.665 61.1814,-958.4137 70.5042,-953.3802 65.3305,-948.665"/>
</g>
<!-- Node30 -->
<g id="node31" class="node">
<title>Node30</title>
<g id="a_node31"><a xlink:href="classcentral42n__et.html" target="_top" xlink:title="central42n_et\&lt; P_expr \&gt;">
<polygon fill="#ffffff" stroke="#000000" points="128.5,-836.5 128.5,-855.5 227.5,-855.5 227.5,-836.5 128.5,-836.5"/>
<text text-anchor="middle" x="178" y="-843.5" font-family="Helvetica,sans-Serif" font-size="10.00" fill="#000000">central42n_et&lt; P_expr &gt;</text>
</a>
</g>
</g>
<!-- Node0&#45;&gt;Node30 -->
<g id="edge30" class="edge">
<title>Node0&#45;&gt;Node30</title>
<path fill="none" stroke="#191970" d="M58.0631,-949.4337C71.6456,-923.7914 94.4829,-887.3743 124,-865 129.0689,-861.1577 134.9783,-858.0491 140.9913,-855.5474"/>
<polygon fill="#191970" stroke="#191970" points="54.9402,-947.8533 53.4826,-958.3474 61.1663,-951.0528 54.9402,-947.8533"/>
</g>
<!-- Node31 -->
<g id="node32" class="node">
<title>Node31</title>
<g id="a_node32"><a xlink:href="classcentral44__et.html" target="_top" xlink:title="central44_et\&lt; P_expr \&gt;">
<polygon fill="#ffffff" stroke="#000000" points="131,-798.5 131,-817.5 225,-817.5 225,-798.5 131,-798.5"/>
<text text-anchor="middle" x="178" y="-805.5" font-family="Helvetica,sans-Serif" font-size="10.00" fill="#000000">central44_et&lt; P_expr &gt;</text>
</a>
</g>
</g>
<!-- Node0&#45;&gt;Node31 -->
<g id="edge31" class="edge">
<title>Node0&#45;&gt;Node31</title>
<path fill="none" stroke="#191970" d="M52.5772,-948.5862C63.6936,-914.4491 86.2627,-859.5889 124,-827 128.5131,-823.1026 133.877,-819.9884 139.445,-817.5044"/>
<polygon fill="#191970" stroke="#191970" points="49.1314,-947.8788 49.4908,-958.4676 55.8131,-949.9659 49.1314,-947.8788"/>
</g>
<!-- Node32 -->
<g id="node33" class="node">
<title>Node32</title>
<g id="a_node33"><a xlink:href="classcentral44n__et.html" target="_top" xlink:title="central44n_et\&lt; P_expr \&gt;">
<polygon fill="#ffffff" stroke="#000000" points="128.5,-760.5 128.5,-779.5 227.5,-779.5 227.5,-760.5 128.5,-760.5"/>
<text text-anchor="middle" x="178" y="-767.5" font-family="Helvetica,sans-Serif" font-size="10.00" fill="#000000">central44n_et&lt; P_expr &gt;</text>
</a>
</g>
</g>
<!-- Node0&#45;&gt;Node32 -->
<g id="edge32" class="edge">
<title>Node0&#45;&gt;Node32</title>
<path fill="none" stroke="#191970" d="M48.9117,-948.6175C57.1831,-907.0172 77.757,-832.5398 124,-789 128.1244,-785.1167 133.0893,-782.0207 138.3158,-779.554"/>
<polygon fill="#191970" stroke="#191970" points="45.4717,-947.9724 47.0657,-958.4466 52.3514,-949.2645 45.4717,-947.9724"/>
</g>
<!-- Node33 -->
<g id="node34" class="node">
<title>Node33</title>
<g id="a_node34"><a xlink:href="classforward11__et.html" target="_top" xlink:title="forward11_et\&lt; P_expr \&gt;">
<polygon fill="#ffffff" stroke="#000000" points="129.5,-722.5 129.5,-741.5 226.5,-741.5 226.5,-722.5 129.5,-722.5"/>
<text text-anchor="middle" x="178" y="-729.5" font-family="Helvetica,sans-Serif" font-size="10.00" fill="#000000">forward11_et&lt; P_expr &gt;</text>
</a>
</g>
</g>
<!-- Node0&#45;&gt;Node33 -->
<g id="edge33" class="edge">
<title>Node0&#45;&gt;Node33</title>
<path fill="none" stroke="#191970" d="M46.4715,-948.0586C51.9696,-899.579 69.4213,-805.6261 124,-751 127.8634,-747.1332 132.5593,-744.0509 137.5517,-741.5945"/>
<polygon fill="#191970" stroke="#191970" points="42.9658,-947.9341 45.4183,-958.2411 49.9287,-948.6543 42.9658,-947.9341"/>
</g>
<!-- Node34 -->
<g id="node35" class="node">
<title>Node34</title>
<g id="a_node35"><a xlink:href="classforward11n__et.html" target="_top" xlink:title="forward11n_et\&lt; P_expr \&gt;">
<polygon fill="#ffffff" stroke="#000000" points="127.5,-684.5 127.5,-703.5 228.5,-703.5 228.5,-684.5 127.5,-684.5"/>
<text text-anchor="middle" x="178" y="-691.5" font-family="Helvetica,sans-Serif" font-size="10.00" fill="#000000">forward11n_et&lt; P_expr &gt;</text>
</a>
</g>
</g>
<!-- Node0&#45;&gt;Node34 -->
<g id="edge34" class="edge">
<title>Node0&#45;&gt;Node34</title>
<path fill="none" stroke="#191970" d="M49.6304,-948.2441C61.6184,-885.8259 91.2589,-747.289 124,-713 127.7062,-709.1186 132.2516,-706.0292 137.1172,-703.5705"/>
<polygon fill="#191970" stroke="#191970" points="46.1521,-947.8011 47.7299,-958.2778 53.0298,-949.1039 46.1521,-947.8011"/>
</g>
<!-- Node35 -->
<g id="node36" class="node">
<title>Node35</title>
<g id="a_node36"><a xlink:href="classforward12__et.html" target="_top" xlink:title="forward12_et\&lt; P_expr \&gt;">
<polygon fill="#ffffff" stroke="#000000" points="129.5,-646.5 129.5,-665.5 226.5,-665.5 226.5,-646.5 129.5,-646.5"/>
<text text-anchor="middle" x="178" y="-653.5" font-family="Helvetica,sans-Serif" font-size="10.00" fill="#000000">forward12_et&lt; P_expr &gt;</text>
</a>
</g>
</g>
<!-- Node0&#45;&gt;Node35 -->
<g id="edge35" class="edge">
<title>Node0&#45;&gt;Node35</title>
<path fill="none" stroke="#191970" d="M48.3799,-948.2698C58.7734,-879.3398 86.8635,-715.2734 124,-675 127.5707,-671.1277 131.9775,-668.0444 136.7211,-665.5893"/>
<polygon fill="#191970" stroke="#191970" points="44.8703,-948.077 46.865,-958.4823 51.7945,-949.1041 44.8703,-948.077"/>
</g>
<!-- Node36 -->
<g id="node37" class="node">
<title>Node36</title>
<g id="a_node37"><a xlink:href="classforward12n__et.html" target="_top" xlink:title="forward12n_et\&lt; P_expr \&gt;">
<polygon fill="#ffffff" stroke="#000000" points="127.5,-608.5 127.5,-627.5 228.5,-627.5 228.5,-608.5 127.5,-608.5"/>
<text text-anchor="middle" x="178" y="-615.5" font-family="Helvetica,sans-Serif" font-size="10.00" fill="#000000">forward12n_et&lt; P_expr &gt;</text>
</a>
</g>
</g>
<!-- Node0&#45;&gt;Node36 -->
<g id="edge36" class="edge">
<title>Node0&#45;&gt;Node36</title>
<path fill="none" stroke="#191970" d="M47.425,-948.0966C56.3357,-872.925 82.4765,-683.2939 124,-637 127.4507,-633.1529 131.7276,-630.0847 136.3526,-627.6378"/>
<polygon fill="#191970" stroke="#191970" points="43.914,-947.9889 46.2355,-958.3263 50.8671,-948.7975 43.914,-947.9889"/>
</g>
<!-- Node37 -->
<g id="node38" class="node">
<title>Node37</title>
<g id="a_node38"><a xlink:href="classforward21__et.html" target="_top" xlink:title="forward21_et\&lt; P_expr \&gt;">
<polygon fill="#ffffff" stroke="#000000" points="129.5,-570.5 129.5,-589.5 226.5,-589.5 226.5,-570.5 129.5,-570.5"/>
<text text-anchor="middle" x="178" y="-577.5" font-family="Helvetica,sans-Serif" font-size="10.00" fill="#000000">forward21_et&lt; P_expr &gt;</text>
</a>
</g>
</g>
<!-- Node0&#45;&gt;Node37 -->
<g id="edge37" class="edge">
<title>Node0&#45;&gt;Node37</title>
<path fill="none" stroke="#191970" d="M46.6444,-947.9998C54.146,-866.9486 78.0528,-651.3889 124,-599 127.4076,-595.1146 131.6589,-592.0238 136.2705,-589.565"/>
<polygon fill="#191970" stroke="#191970" points="43.1481,-947.8018 45.7327,-958.0765 50.1196,-948.4326 43.1481,-947.8018"/>
</g>
<!-- Node38 -->
<g id="node39" class="node">
<title>Node38</title>
<g id="a_node39"><a xlink:href="classforward21n__et.html" target="_top" xlink:title="forward21n_et\&lt; P_expr \&gt;">
<polygon fill="#ffffff" stroke="#000000" points="127.5,-532.5 127.5,-551.5 228.5,-551.5 228.5,-532.5 127.5,-532.5"/>
<text text-anchor="middle" x="178" y="-539.5" font-family="Helvetica,sans-Serif" font-size="10.00" fill="#000000">forward21n_et&lt; P_expr &gt;</text>
</a>
</g>
</g>
<!-- Node0&#45;&gt;Node38 -->
<g id="edge38" class="edge">
<title>Node0&#45;&gt;Node38</title>
<path fill="none" stroke="#191970" d="M45.9792,-948.1928C52.1202,-861.7809 73.553,-619.5981 124,-561 127.3717,-557.0835 131.6017,-553.9741 136.2022,-551.5056"/>
<polygon fill="#191970" stroke="#191970" points="42.4717,-948.1814 45.2741,-958.3988 49.4551,-948.6639 42.4717,-948.1814"/>
</g>
<!-- Node39 -->
<g id="node40" class="node">
<title>Node39</title>
<g id="a_node40"><a xlink:href="classforward22__et.html" target="_top" xlink:title="forward22_et\&lt; P_expr \&gt;">
<polygon fill="#ffffff" stroke="#000000" points="129.5,-494.5 129.5,-513.5 226.5,-513.5 226.5,-494.5 129.5,-494.5"/>
<text text-anchor="middle" x="178" y="-501.5" font-family="Helvetica,sans-Serif" font-size="10.00" fill="#000000">forward22_et&lt; P_expr &gt;</text>
</a>
</g>
</g>
<!-- Node0&#45;&gt;Node39 -->
<g id="edge39" class="edge">
<title>Node0&#45;&gt;Node39</title>
<path fill="none" stroke="#191970" d="M45.4215,-948.4892C50.2679,-857.0978 69.0123,-587.8782 124,-523 127.2772,-519.1334 131.3917,-516.0533 135.88,-513.5998"/>
<polygon fill="#191970" stroke="#191970" points="41.9257,-948.3189 44.9098,-958.4848 48.9165,-948.6769 41.9257,-948.3189"/>
</g>
<!-- Node40 -->
<g id="node41" class="node">
<title>Node40</title>
<g id="a_node41"><a xlink:href="classforward22n__et.html" target="_top" xlink:title="forward22n_et\&lt; P_expr \&gt;">
<polygon fill="#ffffff" stroke="#000000" points="127.5,-456.5 127.5,-475.5 228.5,-475.5 228.5,-456.5 127.5,-456.5"/>
<text text-anchor="middle" x="178" y="-463.5" font-family="Helvetica,sans-Serif" font-size="10.00" fill="#000000">forward22n_et&lt; P_expr &gt;</text>
</a>
</g>
</g>
<!-- Node0&#45;&gt;Node40 -->
<g id="edge40" class="edge">
<title>Node0&#45;&gt;Node40</title>
<path fill="none" stroke="#191970" d="M44.9754,-948.2258C48.638,-851.5363 64.5675,-556.0624 124,-485 127.2517,-481.112 131.351,-478.019 135.8311,-475.5586"/>
<polygon fill="#191970" stroke="#191970" points="41.4771,-948.1195 44.6136,-958.2394 48.4725,-948.3723 41.4771,-948.1195"/>
</g>
<!-- Node41 -->
<g id="node42" class="node">
<title>Node41</title>
<g id="a_node42"><a xlink:href="classforward31__et.html" target="_top" xlink:title="forward31_et\&lt; P_expr \&gt;">
<polygon fill="#ffffff" stroke="#000000" points="129.5,-418.5 129.5,-437.5 226.5,-437.5 226.5,-418.5 129.5,-418.5"/>
<text text-anchor="middle" x="178" y="-425.5" font-family="Helvetica,sans-Serif" font-size="10.00" fill="#000000">forward31_et&lt; P_expr &gt;</text>
</a>
</g>
</g>
<!-- Node0&#45;&gt;Node41 -->
<g id="edge41" class="edge">
<title>Node0&#45;&gt;Node41</title>
<path fill="none" stroke="#191970" d="M44.5784,-948.2732C47.0898,-846.7825 60.0459,-524.3521 124,-447 127.2297,-443.0937 131.3158,-439.9897 135.7887,-437.5234"/>
<polygon fill="#191970" stroke="#191970" points="41.075,-948.3868 44.3436,-958.4648 48.0731,-948.5482 41.075,-948.3868"/>
</g>
<!-- Node42 -->
<g id="node43" class="node">
<title>Node42</title>
<g id="a_node43"><a xlink:href="classforward31n__et.html" target="_top" xlink:title="forward31n_et\&lt; P_expr \&gt;">
<polygon fill="#ffffff" stroke="#000000" points="127.5,-380.5 127.5,-399.5 228.5,-399.5 228.5,-380.5 127.5,-380.5"/>
<text text-anchor="middle" x="178" y="-387.5" font-family="Helvetica,sans-Serif" font-size="10.00" fill="#000000">forward31n_et&lt; P_expr &gt;</text>
</a>
</g>
</g>
<!-- Node0&#45;&gt;Node42 -->
<g id="edge42" class="edge">
<title>Node0&#45;&gt;Node42</title>
<path fill="none" stroke="#191970" d="M46.4577,-948.1638C55.6809,-835.5944 89.4704,-451.1834 124,-409 127.1476,-405.1548 131.1255,-402.0868 135.4895,-399.6391"/>
<polygon fill="#191970" stroke="#191970" points="42.9647,-947.9376 45.6427,-958.1884 49.9416,-948.5049 42.9647,-947.9376"/>
</g>
<!-- Node43 -->
<g id="node44" class="node">
<title>Node43</title>
<g id="a_node44"><a xlink:href="classforward32__et.html" target="_top" xlink:title="forward32_et\&lt; P_expr \&gt;">
<polygon fill="#ffffff" stroke="#000000" points="129.5,-342.5 129.5,-361.5 226.5,-361.5 226.5,-342.5 129.5,-342.5"/>
<text text-anchor="middle" x="178" y="-349.5" font-family="Helvetica,sans-Serif" font-size="10.00" fill="#000000">forward32_et&lt; P_expr &gt;</text>
</a>
</g>
</g>
<!-- Node0&#45;&gt;Node43 -->
<g id="edge43" class="edge">
<title>Node0&#45;&gt;Node43</title>
<path fill="none" stroke="#191970" d="M46.1818,-948.0525C54.7188,-830.5463 87.2059,-416.3468 124,-371 127.131,-367.1413 131.0988,-364.065 135.4573,-361.6129"/>
<polygon fill="#191970" stroke="#191970" points="42.6806,-947.9442 45.4528,-958.1699 49.6625,-948.4473 42.6806,-947.9442"/>
</g>
<!-- Node44 -->
<g id="node45" class="node">
<title>Node44</title>
<g id="a_node45"><a xlink:href="classforward32n__et.html" target="_top" xlink:title="forward32n_et\&lt; P_expr \&gt;">
<polygon fill="#ffffff" stroke="#000000" points="127.5,-304.5 127.5,-323.5 228.5,-323.5 228.5,-304.5 127.5,-304.5"/>
<text text-anchor="middle" x="178" y="-311.5" font-family="Helvetica,sans-Serif" font-size="10.00" fill="#000000">forward32n_et&lt; P_expr &gt;</text>
</a>
</g>
</g>
<!-- Node0&#45;&gt;Node44 -->
<g id="edge44" class="edge">
<title>Node0&#45;&gt;Node44</title>
<path fill="none" stroke="#191970" d="M45.9249,-948.1305C53.7881,-826.0883 84.9167,-381.5448 124,-333 127.1162,-329.1294 131.0751,-326.0459 135.4287,-323.5898"/>
<polygon fill="#191970" stroke="#191970" points="42.4213,-948.0768 45.2769,-958.2795 49.407,-948.5229 42.4213,-948.0768"/>
</g>
<!-- Node45 -->
<g id="node46" class="node">
<title>Node45</title>
<g id="a_node46"><a xlink:href="classforward41__et.html" target="_top" xlink:title="forward41_et\&lt; P_expr \&gt;">
<polygon fill="#ffffff" stroke="#000000" points="129.5,-266.5 129.5,-285.5 226.5,-285.5 226.5,-266.5 129.5,-266.5"/>
<text text-anchor="middle" x="178" y="-273.5" font-family="Helvetica,sans-Serif" font-size="10.00" fill="#000000">forward41_et&lt; P_expr &gt;</text>
</a>
</g>
</g>
<!-- Node0&#45;&gt;Node45 -->
<g id="edge45" class="edge">
<title>Node0&#45;&gt;Node45</title>
<path fill="none" stroke="#191970" d="M45.7104,-947.9716C52.9546,-821.1848 82.6484,-346.7202 124,-295 127.1031,-291.1188 131.054,-288.0289 135.4031,-285.5693"/>
<polygon fill="#191970" stroke="#191970" points="42.2049,-947.9706 45.1344,-958.1524 49.1938,-948.366 42.2049,-947.9706"/>
</g>
<!-- Node46 -->
<g id="node47" class="node">
<title>Node46</title>
<g id="a_node47"><a xlink:href="classforward41n__et.html" target="_top" xlink:title="forward41n_et\&lt; P_expr \&gt;">
<polygon fill="#ffffff" stroke="#000000" points="127.5,-228.5 127.5,-247.5 228.5,-247.5 228.5,-228.5 127.5,-228.5"/>
<text text-anchor="middle" x="178" y="-235.5" font-family="Helvetica,sans-Serif" font-size="10.00" fill="#000000">forward41n_et&lt; P_expr &gt;</text>
</a>
</g>
</g>
<!-- Node0&#45;&gt;Node46 -->
<g id="edge46" class="edge">
<title>Node0&#45;&gt;Node46</title>
<path fill="none" stroke="#191970" d="M45.4881,-948.3866C52.0856,-817.8593 80.3128,-311.9832 124,-257 127.0913,-253.1094 131.035,-250.0138 135.3802,-247.551"/>
<polygon fill="#191970" stroke="#191970" points="41.9869,-948.3243 44.9831,-958.4867 48.9782,-948.674 41.9869,-948.3243"/>
</g>
<!-- Node47 -->
<g id="node48" class="node">
<title>Node47</title>
<g id="a_node48"><a xlink:href="classforward42__et.html" target="_top" xlink:title="forward42_et\&lt; P_expr \&gt;">
<polygon fill="#ffffff" stroke="#000000" points="129.5,-190.5 129.5,-209.5 226.5,-209.5 226.5,-190.5 129.5,-190.5"/>
<text text-anchor="middle" x="178" y="-197.5" font-family="Helvetica,sans-Serif" font-size="10.00" fill="#000000">forward42_et&lt; P_expr &gt;</text>
</a>
</g>
</g>
<!-- Node0&#45;&gt;Node47 -->
<g id="edge47" class="edge">
<title>Node0&#45;&gt;Node47</title>
<path fill="none" stroke="#191970" d="M45.3228,-948.0825C51.3665,-812.8033 78.0531,-277.1533 124,-219 127.0806,-215.101 131.0178,-212.0002 135.3595,-209.5346"/>
<polygon fill="#191970" stroke="#191970" points="41.8218,-948.0301 44.8772,-958.1748 48.815,-948.3389 41.8218,-948.0301"/>
</g>
<!-- Node48 -->
<g id="node49" class="node">
<title>Node48</title>
<g id="a_node49"><a xlink:href="classforward42n__et.html" target="_top" xlink:title="forward42n_et\&lt; P_expr \&gt;">
<polygon fill="#ffffff" stroke="#000000" points="127.5,-152.5 127.5,-171.5 228.5,-171.5 228.5,-152.5 127.5,-152.5"/>
<text text-anchor="middle" x="178" y="-159.5" font-family="Helvetica,sans-Serif" font-size="10.00" fill="#000000">forward42n_et&lt; P_expr &gt;</text>
</a>
</g>
</g>
<!-- Node0&#45;&gt;Node48 -->
<g id="edge48" class="edge">
<title>Node0&#45;&gt;Node48</title>
<path fill="none" stroke="#191970" d="M45.1655,-947.9198C50.6632,-808.1969 75.7748,-242.3491 124,-181 127.071,-177.0933 131.0023,-173.9879 135.3407,-171.5198"/>
<polygon fill="#191970" stroke="#191970" points="41.6526,-948.1871 44.762,-958.3154 48.6474,-948.4587 41.6526,-948.1871"/>
</g>
<!-- Node49 -->
<g id="node50" class="node">
<title>Node49</title>
<g id="a_node50"><a xlink:href="classmixed22__et.html" target="_top" xlink:title="Defines a stencil ET double&#45;difference operator &quot;mixed22&quot; that operates on an array&lt;P_numtype, N_rank&gt; and returns an array of identical type. ">
<polygon fill="#ffffff" stroke="#000000" points="132,-114.5 132,-133.5 224,-133.5 224,-114.5 132,-114.5"/>
<text text-anchor="middle" x="178" y="-121.5" font-family="Helvetica,sans-Serif" font-size="10.00" fill="#000000">mixed22_et&lt; P_expr &gt;</text>
</a>
</g>
</g>
<!-- Node0&#45;&gt;Node49 -->
<g id="edge49" class="edge">
<title>Node0&#45;&gt;Node49</title>
<path fill="none" stroke="#191970" d="M45.0191,-947.825C49.9848,-803.8558 73.4858,-207.5603 124,-143 127.0621,-139.0864 130.9881,-135.9768 135.3235,-133.5063"/>
<polygon fill="#191970" stroke="#191970" points="41.5104,-948.0256 44.6686,-958.1387 48.5063,-948.2634 41.5104,-948.0256"/>
</g>
<!-- Node50 -->
<g id="node51" class="node">
<title>Node50</title>
<g id="a_node51"><a xlink:href="classmixed22n__et.html" target="_top" xlink:title="Defines a stencil ET double&#45;difference operator &quot;mixed22n&quot; that operates on an array&lt;P_numtype, N_rank&gt; and returns an array of identical type. ">
<polygon fill="#ffffff" stroke="#000000" points="130,-76.5 130,-95.5 226,-95.5 226,-76.5 130,-76.5"/>
<text text-anchor="middle" x="178" y="-83.5" font-family="Helvetica,sans-Serif" font-size="10.00" fill="#000000">mixed22n_et&lt; P_expr &gt;</text>
</a>
</g>
</g>
<!-- Node0&#45;&gt;Node50 -->
<g id="edge50" class="edge">
<title>Node0&#45;&gt;Node50</title>
<path fill="none" stroke="#191970" d="M44.8674,-948.3072C49.2799,-801.2301 71.1253,-172.8651 124,-105 126.993,-101.1585 130.8186,-98.0915 135.0484,-95.6432"/>
<polygon fill="#191970" stroke="#191970" points="41.3654,-948.3296 44.5687,-958.4285 48.3623,-948.5361 41.3654,-948.3296"/>
</g>
<!-- Node51 -->
<g id="node52" class="node">
<title>Node51</title>
<g id="a_node52"><a xlink:href="classmixed24__et.html" target="_top" xlink:title="Defines a stencil ET double&#45;difference operator &quot;mixed24&quot; that operates on an array&lt;P_numtype, N_rank&gt; and returns an array of identical type. ">
<polygon fill="#ffffff" stroke="#000000" points="132,-38.5 132,-57.5 224,-57.5 224,-38.5 132,-38.5"/>
<text text-anchor="middle" x="178" y="-45.5" font-family="Helvetica,sans-Serif" font-size="10.00" fill="#000000">mixed24_et&lt; P_expr &gt;</text>
</a>
</g>
</g>
<!-- Node0&#45;&gt;Node51 -->
<g id="edge51" class="edge">
<title>Node0&#45;&gt;Node51</title>
<path fill="none" stroke="#191970" d="M44.7525,-947.9634C48.6872,-796.3547 68.8603,-138.0491 124,-67 126.9857,-63.1528 130.8068,-60.0823 135.0341,-57.6321"/>
<polygon fill="#191970" stroke="#191970" points="41.2431,-948.2904 44.4873,-958.3763 48.2408,-948.4687 41.2431,-948.2904"/>
</g>
<!-- Node52 -->
<g id="node53" class="node">
<title>Node52</title>
<g id="a_node53"><a xlink:href="classmixed24n__et.html" target="_top" xlink:title="Defines a stencil ET double&#45;difference operator &quot;mixed24n&quot; that operates on an array&lt;P_numtype, N_rank&gt; and returns an array of identical type. ">
<polygon fill="#ffffff" stroke="#000000" points="130,-.5 130,-19.5 226,-19.5 226,-.5 130,-.5"/>
<text text-anchor="middle" x="178" y="-7.5" font-family="Helvetica,sans-Serif" font-size="10.00" fill="#000000">mixed24n_et&lt; P_expr &gt;</text>
</a>
</g>
</g>
<!-- Node0&#45;&gt;Node52 -->
<g id="edge52" class="edge">
<title>Node0&#45;&gt;Node52</title>
<path fill="none" stroke="#191970" d="M44.6329,-948.1537C48.072,-793.0998 66.528,-103.3212 124,-29 126.979,-25.1476 130.796,-22.0739 135.021,-19.6219"/>
<polygon fill="#191970" stroke="#191970" points="41.1289,-948.304 44.4109,-958.3777 48.1272,-948.456 41.1289,-948.304"/>
</g>
</g>
</svg>
