<?xml version="1.0" encoding="UTF-8" standalone="no"?>
<!DOCTYPE svg PUBLIC "-//W3C//DTD SVG 1.1//EN"
 "http://www.w3.org/Graphics/SVG/1.1/DTD/svg11.dtd">
<!-- Generated by graphviz version 2.40.1 (20161225.0304)
 -->
<!-- Title: Graphical Class Hierarchy Pages: 1 -->
<svg width="257pt" height="154pt"
 viewBox="0.00 0.00 257.00 154.00" xmlns="http://www.w3.org/2000/svg" xmlns:xlink="http://www.w3.org/1999/xlink">
<g id="graph0" class="graph" transform="scale(1 1) rotate(0) translate(4 150)">
<title>Graphical Class Hierarchy</title>
<polygon fill="#ffffff" stroke="transparent" points="-4,4 -4,-150 253,-150 253,4 -4,4"/>
<!-- Node0 -->
<g id="node1" class="node">
<title>Node0</title>
<g id="a_node1"><a xlink:href="class__bz__StencilExpr.html" target="_top" xlink:title="_bz_StencilExpr\&lt; P\l_expr, TinyMatrix\&lt; \l_bz_multicomponent_traits\l\&lt; P_expr::T_numtype \&gt;::T\l_element, 3, 3 \&gt; \&gt;">
<polygon fill="#ffffff" stroke="#000000" points="0,-38.5 0,-101.5 106,-101.5 106,-38.5 0,-38.5"/>
<text text-anchor="start" x="8" y="-89.5" font-family="Helvetica,sans-Serif" font-size="10.00" fill="#000000">_bz_StencilExpr&lt; P</text>
<text text-anchor="start" x="8" y="-78.5" font-family="Helvetica,sans-Serif" font-size="10.00" fill="#000000">_expr, TinyMatrix&lt; </text>
<text text-anchor="start" x="8" y="-67.5" font-family="Helvetica,sans-Serif" font-size="10.00" fill="#000000">_bz_multicomponent_traits</text>
<text text-anchor="start" x="8" y="-56.5" font-family="Helvetica,sans-Serif" font-size="10.00" fill="#000000">&lt; P_expr::T_numtype &gt;::T</text>
<text text-anchor="middle" x="53" y="-45.5" font-family="Helvetica,sans-Serif" font-size="10.00" fill="#000000">_element, 3, 3 &gt; &gt;</text>
</a>
</g>
</g>
<!-- Node1 -->
<g id="node2" class="node">
<title>Node1</title>
<g id="a_node2"><a xlink:href="classJacobian3D4__et.html" target="_top" xlink:title="Jacobian3D4_et\&lt; P_expr \&gt;">
<polygon fill="#ffffff" stroke="#000000" points="142,-126.5 142,-145.5 249,-145.5 249,-126.5 142,-126.5"/>
<text text-anchor="middle" x="195.5" y="-133.5" font-family="Helvetica,sans-Serif" font-size="10.00" fill="#000000">Jacobian3D4_et&lt; P_expr &gt;</text>
</a>
</g>
</g>
<!-- Node0&#45;&gt;Node1 -->
<g id="edge1" class="edge">
<title>Node0&#45;&gt;Node1</title>
<path fill="none" stroke="#191970" d="M115.2036,-104.3003C124.0987,-108.7782 133.2122,-113.1433 142,-117 149.762,-120.4065 158.3466,-123.6685 166.3252,-126.4986"/>
<polygon fill="#191970" stroke="#191970" points="116.5326,-101.0488 106.036,-99.6097 113.3441,-107.2805 116.5326,-101.0488"/>
</g>
<!-- Node2 -->
<g id="node3" class="node">
<title>Node2</title>
<g id="a_node3"><a xlink:href="classJacobian3D4n__et.html" target="_top" xlink:title="Jacobian3D4n_et\&lt; P\l_expr \&gt;">
<polygon fill="#ffffff" stroke="#000000" points="152.5,-77 152.5,-107 238.5,-107 238.5,-77 152.5,-77"/>
<text text-anchor="start" x="160.5" y="-95" font-family="Helvetica,sans-Serif" font-size="10.00" fill="#000000">Jacobian3D4n_et&lt; P</text>
<text text-anchor="middle" x="195.5" y="-84" font-family="Helvetica,sans-Serif" font-size="10.00" fill="#000000">_expr &gt;</text>
</a>
</g>
</g>
<!-- Node0&#45;&gt;Node2 -->
<g id="edge2" class="edge">
<title>Node0&#45;&gt;Node2</title>
<path fill="none" stroke="#191970" d="M116.1703,-79.7526C128.331,-81.63 140.8097,-83.5566 152.1649,-85.3097"/>
<polygon fill="#191970" stroke="#191970" points="116.4787,-76.2588 106.0617,-78.192 115.4106,-83.1769 116.4787,-76.2588"/>
</g>
<!-- Node3 -->
<g id="node4" class="node">
<title>Node3</title>
<g id="a_node4"><a xlink:href="classJacobian3D__et.html" target="_top" xlink:title="Jacobian3D_et\&lt; P_expr \&gt;">
<polygon fill="#ffffff" stroke="#000000" points="144,-38.5 144,-57.5 247,-57.5 247,-38.5 144,-38.5"/>
<text text-anchor="middle" x="195.5" y="-45.5" font-family="Helvetica,sans-Serif" font-size="10.00" fill="#000000">Jacobian3D_et&lt; P_expr &gt;</text>
</a>
</g>
</g>
<!-- Node0&#45;&gt;Node3 -->
<g id="edge3" class="edge">
<title>Node0&#45;&gt;Node3</title>
<path fill="none" stroke="#191970" d="M116.0335,-60.2685C125.3194,-58.8349 134.794,-57.3722 143.815,-55.9794"/>
<polygon fill="#191970" stroke="#191970" points="115.4106,-56.8231 106.0617,-61.808 116.4787,-63.7412 115.4106,-56.8231"/>
</g>
<!-- Node4 -->
<g id="node5" class="node">
<title>Node4</title>
<g id="a_node5"><a xlink:href="classJacobian3Dn__et.html" target="_top" xlink:title="Jacobian3Dn_et\&lt; P_expr \&gt;">
<polygon fill="#ffffff" stroke="#000000" points="142,-.5 142,-19.5 249,-19.5 249,-.5 142,-.5"/>
<text text-anchor="middle" x="195.5" y="-7.5" font-family="Helvetica,sans-Serif" font-size="10.00" fill="#000000">Jacobian3Dn_et&lt; P_expr &gt;</text>
</a>
</g>
</g>
<!-- Node0&#45;&gt;Node4 -->
<g id="edge4" class="edge">
<title>Node0&#45;&gt;Node4</title>
<path fill="none" stroke="#191970" d="M115.4508,-40.3698C124.3085,-36.4195 133.3457,-32.5217 142,-29 150.034,-25.7307 158.8664,-22.4639 166.999,-19.5842"/>
<polygon fill="#191970" stroke="#191970" points="113.9863,-37.1907 106.3088,-44.4919 116.8636,-43.572 113.9863,-37.1907"/>
</g>
</g>
</svg>
