<?xml version="1.0" encoding="UTF-8" standalone="no"?>
<!DOCTYPE svg PUBLIC "-//W3C//DTD SVG 1.1//EN"
 "http://www.w3.org/Graphics/SVG/1.1/DTD/svg11.dtd">
<!-- Generated by graphviz version 2.38.0 (20140413.2041)
 -->
<!-- Title: Graphical Class Hierarchy Pages: 1 -->
<svg width="285pt" height="116pt"
 viewBox="0.00 0.00 285.00 115.50" xmlns="http://www.w3.org/2000/svg" xmlns:xlink="http://www.w3.org/1999/xlink">
<g id="graph0" class="graph" transform="scale(1 1) rotate(0) translate(4 111.5)">
<title>Graphical Class Hierarchy</title>
<polygon fill="white" stroke="none" points="-4,4 -4,-111.5 281,-111.5 281,4 -4,4"/>
<!-- Node1 -->
<g id="node1" class="node"><title>Node1</title>
<g id="a_node1"><a xlink:href="classigloo_1_1TestListener.html" target="_top" xlink:title="igloo::TestListener">
<polygon fill="white" stroke="black" points="0,-38.5 0,-57.5 97,-57.5 97,-38.5 0,-38.5"/>
<text text-anchor="middle" x="48.5" y="-45.5" font-family="Helvetica,sans-Serif" font-size="10.00">igloo::TestListener</text>
</a>
</g>
</g>
<!-- Node2 -->
<g id="node2" class="node"><title>Node2</title>
<g id="a_node2"><a xlink:href="classigloo_1_1MinimalProgressTestListener.html" target="_top" xlink:title="igloo::MinimalProgressTest\lListener">
<polygon fill="white" stroke="black" points="137.5,-77 137.5,-107 272.5,-107 272.5,-77 137.5,-77"/>
<text text-anchor="start" x="145.5" y="-95" font-family="Helvetica,sans-Serif" font-size="10.00">igloo::MinimalProgressTest</text>
<text text-anchor="middle" x="205" y="-84" font-family="Helvetica,sans-Serif" font-size="10.00">Listener</text>
</a>
</g>
</g>
<!-- Node1&#45;&gt;Node2 -->
<g id="edge1" class="edge"><title>Node1&#45;&gt;Node2</title>
<path fill="none" stroke="midnightblue" d="M92.7311,-60.3118C110.841,-65.4694 132.069,-71.5148 151.1,-76.9346"/>
<polygon fill="midnightblue" stroke="midnightblue" points="93.6005,-56.9202 83.0242,-57.5473 91.6831,-63.6526 93.6005,-56.9202"/>
</g>
<!-- Node3 -->
<g id="node3" class="node"><title>Node3</title>
<g id="a_node3"><a xlink:href="classigloo_1_1NullTestListener.html" target="_top" xlink:title="igloo::NullTestListener">
<polygon fill="white" stroke="black" points="148,-38.5 148,-57.5 262,-57.5 262,-38.5 148,-38.5"/>
<text text-anchor="middle" x="205" y="-45.5" font-family="Helvetica,sans-Serif" font-size="10.00">igloo::NullTestListener</text>
</a>
</g>
</g>
<!-- Node1&#45;&gt;Node3 -->
<g id="edge2" class="edge"><title>Node1&#45;&gt;Node3</title>
<path fill="none" stroke="midnightblue" d="M107.508,-48C120.72,-48 134.734,-48 147.866,-48"/>
<polygon fill="midnightblue" stroke="midnightblue" points="107.116,-44.5001 97.1158,-48 107.116,-51.5001 107.116,-44.5001"/>
</g>
<!-- Node4 -->
<g id="node4" class="node"><title>Node4</title>
<g id="a_node4"><a xlink:href="classigloo_1_1TestListenerAggregator.html" target="_top" xlink:title="igloo::TestListenerAggregator">
<polygon fill="white" stroke="black" points="133,-0.5 133,-19.5 277,-19.5 277,-0.5 133,-0.5"/>
<text text-anchor="middle" x="205" y="-7.5" font-family="Helvetica,sans-Serif" font-size="10.00">igloo::TestListenerAggregator</text>
</a>
</g>
</g>
<!-- Node1&#45;&gt;Node4 -->
<g id="edge3" class="edge"><title>Node1&#45;&gt;Node4</title>
<path fill="none" stroke="midnightblue" d="M98.4521,-35.96C120.036,-30.6512 145.041,-24.5012 165.293,-19.5201"/>
<polygon fill="midnightblue" stroke="midnightblue" points="97.3615,-32.6238 88.4869,-38.411 99.0334,-39.4213 97.3615,-32.6238"/>
</g>
</g>
</svg>
