<?xml version="1.0" encoding="UTF-8" standalone="no"?>
<!DOCTYPE svg PUBLIC "-//W3C//DTD SVG 1.1//EN"
 "http://www.w3.org/Graphics/SVG/1.1/DTD/svg11.dtd">
<!-- Generated by graphviz version 2.40.1 (20161225.0304)
 -->
<!-- Title: Graphical Class Hierarchy Pages: 1 -->
<svg width="259pt" height="186pt"
 viewBox="0.00 0.00 259.00 186.00" xmlns="http://www.w3.org/2000/svg" xmlns:xlink="http://www.w3.org/1999/xlink">
<g id="graph0" class="graph" transform="scale(1 1) rotate(0) translate(4 182)">
<title>Graphical Class Hierarchy</title>
<polygon fill="#ffffff" stroke="transparent" points="-4,4 -4,-182 255,-182 255,4 -4,4"/>
<!-- Node0 -->
<g id="node1" class="node">
<title>Node0</title>
<g id="a_node1"><a xlink:href="class__bz__StencilExpr2.html" target="_top" xlink:title="_bz_StencilExpr2\&lt; P\l_expr1, P_expr2, P_numtype \&gt;">
<polygon fill="#ffffff" stroke="#000000" points="0,-73.5 0,-103.5 120,-103.5 120,-73.5 0,-73.5"/>
<text text-anchor="start" x="8" y="-91.5" font-family="Helvetica,sans-Serif" font-size="10.00" fill="#000000">_bz_StencilExpr2&lt; P</text>
<text text-anchor="middle" x="60" y="-80.5" font-family="Helvetica,sans-Serif" font-size="10.00" fill="#000000">_expr1, P_expr2, P_numtype &gt;</text>
</a>
</g>
</g>
<!-- Node1 -->
<g id="node2" class="node">
<title>Node1</title>
<g id="a_node2"><a xlink:href="classdiv4__et2.html" target="_top" xlink:title="Defines a stencil &quot;div4&quot; ET that operates on two arrays of arbitrary type and specifies the return ty...">
<polygon fill="#ffffff" stroke="#000000" points="156,-147.5 156,-177.5 251,-177.5 251,-147.5 156,-147.5"/>
<text text-anchor="start" x="164" y="-165.5" font-family="Helvetica,sans-Serif" font-size="10.00" fill="#000000">div4_et2&lt; P_expr1,</text>
<text text-anchor="middle" x="203.5" y="-154.5" font-family="Helvetica,sans-Serif" font-size="10.00" fill="#000000"> P_expr2, P_numtype &gt;</text>
</a>
</g>
</g>
<!-- Node0&#45;&gt;Node1 -->
<g id="edge1" class="edge">
<title>Node0&#45;&gt;Node1</title>
<path fill="none" stroke="#191970" d="M97.8065,-108.3276C115.4613,-117.5515 136.7787,-128.639 156,-138.5 161.6723,-141.41 167.7376,-144.4949 173.572,-147.4489"/>
<polygon fill="#191970" stroke="#191970" points="99.422,-105.2227 88.9385,-103.6903 96.1782,-111.4258 99.422,-105.2227"/>
</g>
<!-- Node2 -->
<g id="node3" class="node">
<title>Node2</title>
<g id="a_node3"><a xlink:href="classdiv4n__et2.html" target="_top" xlink:title="Defines a stencil &quot;div4n&quot; ET that operates on two arrays of arbitrary type and specifies the return t...">
<polygon fill="#ffffff" stroke="#000000" points="156,-98.5 156,-128.5 251,-128.5 251,-98.5 156,-98.5"/>
<text text-anchor="start" x="164" y="-116.5" font-family="Helvetica,sans-Serif" font-size="10.00" fill="#000000">div4n_et2&lt; P_expr1,</text>
<text text-anchor="middle" x="203.5" y="-105.5" font-family="Helvetica,sans-Serif" font-size="10.00" fill="#000000"> P_expr2, P_numtype &gt;</text>
</a>
</g>
</g>
<!-- Node0&#45;&gt;Node2 -->
<g id="edge2" class="edge">
<title>Node0&#45;&gt;Node2</title>
<path fill="none" stroke="#191970" d="M129.926,-100.6822C138.7339,-102.2167 147.5785,-103.7576 155.9284,-105.2123"/>
<polygon fill="#191970" stroke="#191970" points="130.4778,-97.2257 120.0255,-98.9574 129.2763,-104.1219 130.4778,-97.2257"/>
</g>
<!-- Node3 -->
<g id="node4" class="node">
<title>Node3</title>
<g id="a_node4"><a xlink:href="classdiv__et2.html" target="_top" xlink:title="Defines a stencil &quot;div&quot; ET that operates on two arrays of arbitrary type and specifies the return typ...">
<polygon fill="#ffffff" stroke="#000000" points="159.5,-49.5 159.5,-79.5 247.5,-79.5 247.5,-49.5 159.5,-49.5"/>
<text text-anchor="start" x="167.5" y="-67.5" font-family="Helvetica,sans-Serif" font-size="10.00" fill="#000000">div_et2&lt; P_expr1, P</text>
<text text-anchor="middle" x="203.5" y="-56.5" font-family="Helvetica,sans-Serif" font-size="10.00" fill="#000000">_expr2, P_numtype &gt;</text>
</a>
</g>
</g>
<!-- Node0&#45;&gt;Node3 -->
<g id="edge3" class="edge">
<title>Node0&#45;&gt;Node3</title>
<path fill="none" stroke="#191970" d="M130.0061,-76.7917C140.0309,-75.115 150.1011,-73.4308 159.4334,-71.87"/>
<polygon fill="#191970" stroke="#191970" points="129.3111,-73.3592 120.0255,-78.4609 130.4658,-80.2633 129.3111,-73.3592"/>
</g>
<!-- Node4 -->
<g id="node5" class="node">
<title>Node4</title>
<g id="a_node5"><a xlink:href="classdivn__et2.html" target="_top" xlink:title="Defines a stencil &quot;divn&quot; ET that operates on two arrays of arbitrary type and specifies the return ty...">
<polygon fill="#ffffff" stroke="#000000" points="156,-.5 156,-30.5 251,-30.5 251,-.5 156,-.5"/>
<text text-anchor="start" x="164" y="-18.5" font-family="Helvetica,sans-Serif" font-size="10.00" fill="#000000">divn_et2&lt; P_expr1,</text>
<text text-anchor="middle" x="203.5" y="-7.5" font-family="Helvetica,sans-Serif" font-size="10.00" fill="#000000"> P_expr2, P_numtype &gt;</text>
</a>
</g>
</g>
<!-- Node0&#45;&gt;Node4 -->
<g id="edge4" class="edge">
<title>Node0&#45;&gt;Node4</title>
<path fill="none" stroke="#191970" d="M98.7789,-68.7727C122.3835,-56.7648 152.0721,-41.662 173.8048,-30.6063"/>
<polygon fill="#191970" stroke="#191970" points="97.0593,-65.7206 89.7333,-73.3744 100.2333,-71.9597 97.0593,-65.7206"/>
</g>
</g>
</svg>
