<?xml version="1.0" encoding="UTF-8" standalone="no"?>
<!DOCTYPE svg PUBLIC "-//W3C//DTD SVG 1.1//EN"
 "http://www.w3.org/Graphics/SVG/1.1/DTD/svg11.dtd">
<!-- Generated by graphviz version 2.40.1 (20161225.0304)
 -->
<!-- Title: Graphical Class Hierarchy Pages: 1 -->
<svg width="372pt" height="39pt"
 viewBox="0.00 0.00 372.00 39.00" xmlns="http://www.w3.org/2000/svg" xmlns:xlink="http://www.w3.org/1999/xlink">
<g id="graph0" class="graph" transform="scale(1 1) rotate(0) translate(4 35)">
<title>Graphical Class Hierarchy</title>
<polygon fill="#ffffff" stroke="transparent" points="-4,4 -4,-35 368,-35 368,4 -4,4"/>
<!-- Node0 -->
<g id="node1" class="node">
<title>Node0</title>
<g id="a_node1"><a xlink:href="class__Numeric__limits__base.html" target="_top" xlink:title="_Numeric_limits_base\l\&lt; long \&gt;">
<polygon fill="#ffffff" stroke="#000000" points="0,-.5 0,-30.5 90,-30.5 90,-.5 0,-.5"/>
<text text-anchor="start" x="8" y="-18.5" font-family="Helvetica,sans-Serif" font-size="10.00" fill="#000000">_Numeric_limits_base</text>
<text text-anchor="middle" x="45" y="-7.5" font-family="Helvetica,sans-Serif" font-size="10.00" fill="#000000">&lt; long &gt;</text>
</a>
</g>
</g>
<!-- Node1 -->
<g id="node2" class="node">
<title>Node1</title>
<g id="a_node2"><a xlink:href="class__Integer__limits.html" target="_top" xlink:title="_Integer_limits\&lt; long,\l LONG_MIN, LONG_MAX \&gt;">
<polygon fill="#ffffff" stroke="#000000" points="126,-.5 126,-30.5 236,-30.5 236,-.5 126,-.5"/>
<text text-anchor="start" x="134" y="-18.5" font-family="Helvetica,sans-Serif" font-size="10.00" fill="#000000">_Integer_limits&lt; long,</text>
<text text-anchor="middle" x="181" y="-7.5" font-family="Helvetica,sans-Serif" font-size="10.00" fill="#000000"> LONG_MIN, LONG_MAX &gt;</text>
</a>
</g>
</g>
<!-- Node0&#45;&gt;Node1 -->
<g id="edge1" class="edge">
<title>Node0&#45;&gt;Node1</title>
<path fill="none" stroke="#191970" d="M100.4093,-15.5C108.8476,-15.5 117.5539,-15.5 125.9838,-15.5"/>
<polygon fill="#191970" stroke="#191970" points="100.2861,-12.0001 90.286,-15.5 100.286,-19.0001 100.2861,-12.0001"/>
</g>
<!-- Node2 -->
<g id="node3" class="node">
<title>Node2</title>
<g id="a_node3"><a xlink:href="classnumeric__limits_3_01long_01_4.html" target="_top" xlink:title="numeric_limits\&lt; long \&gt;">
<polygon fill="#ffffff" stroke="#000000" points="272,-6 272,-25 364,-25 364,-6 272,-6"/>
<text text-anchor="middle" x="318" y="-13" font-family="Helvetica,sans-Serif" font-size="10.00" fill="#000000">numeric_limits&lt; long &gt;</text>
</a>
</g>
</g>
<!-- Node1&#45;&gt;Node2 -->
<g id="edge2" class="edge">
<title>Node1&#45;&gt;Node2</title>
<path fill="none" stroke="#191970" d="M246.6027,-15.5C255.0788,-15.5 263.614,-15.5 271.6882,-15.5"/>
<polygon fill="#191970" stroke="#191970" points="246.3283,-12.0001 236.3282,-15.5 246.3282,-19.0001 246.3283,-12.0001"/>
</g>
</g>
</svg>
