<?xml version="1.0" encoding="UTF-8" standalone="no"?>
<!DOCTYPE svg PUBLIC "-//W3C//DTD SVG 1.1//EN"
 "http://www.w3.org/Graphics/SVG/1.1/DTD/svg11.dtd">
<!-- Generated by graphviz version 2.40.1 (20161225.0304)
 -->
<!-- Title: include/LinAlgHelpers.hpp Pages: 1 -->
<svg width="119pt" height="140pt"
 viewBox="0.00 0.00 118.50 140.00" xmlns="http://www.w3.org/2000/svg" xmlns:xlink="http://www.w3.org/1999/xlink">
<g id="graph0" class="graph" transform="scale(1 1) rotate(0) translate(4 136)">
<title>include/LinAlgHelpers.hpp</title>
<polygon fill="#ffffff" stroke="transparent" points="-4,4 -4,-136 114.5,-136 114.5,4 -4,4"/>
<!-- Node0 -->
<g id="node1" class="node">
<title>Node0</title>
<polygon fill="#bfbfbf" stroke="#000000" points="6.5,-112.5 6.5,-131.5 110.5,-131.5 110.5,-112.5 6.5,-112.5"/>
<text text-anchor="middle" x="58.5" y="-119.5" font-family="Helvetica,sans-Serif" font-size="10.00" fill="#000000">include/LinAlgHelpers.hpp</text>
</g>
<!-- Node1 -->
<g id="node2" class="node">
<title>Node1</title>
<g id="a_node2"><a xlink:href="Types_8hpp.html" target="_top" xlink:title="Defines the basic types used throughout this project. ">
<polygon fill="#ffffff" stroke="#000000" points="1.5,-56.5 1.5,-75.5 53.5,-75.5 53.5,-56.5 1.5,-56.5"/>
<text text-anchor="middle" x="27.5" y="-63.5" font-family="Helvetica,sans-Serif" font-size="10.00" fill="#000000">Types.hpp</text>
</a>
</g>
</g>
<!-- Node0&#45;&gt;Node1 -->
<g id="edge1" class="edge">
<title>Node0&#45;&gt;Node1</title>
<path fill="none" stroke="#191970" d="M53.1002,-112.2455C48.8773,-104.617 42.8827,-93.7881 37.7559,-84.5267"/>
<polygon fill="#191970" stroke="#191970" points="40.7432,-82.6965 32.8379,-75.6427 34.619,-86.0867 40.7432,-82.6965"/>
</g>
<!-- Node3 -->
<g id="node4" class="node">
<title>Node3</title>
<polygon fill="#ffffff" stroke="#bfbfbf" points="72,-56.5 72,-75.5 109,-75.5 109,-56.5 72,-56.5"/>
<text text-anchor="middle" x="90.5" y="-63.5" font-family="Helvetica,sans-Serif" font-size="10.00" fill="#000000">cmath</text>
</g>
<!-- Node0&#45;&gt;Node3 -->
<g id="edge3" class="edge">
<title>Node0&#45;&gt;Node3</title>
<path fill="none" stroke="#191970" d="M64.074,-112.2455C68.4331,-104.617 74.6211,-93.7881 79.9133,-84.5267"/>
<polygon fill="#191970" stroke="#191970" points="83.0673,-86.0616 84.9899,-75.6427 76.9896,-82.5886 83.0673,-86.0616"/>
</g>
<!-- Node2 -->
<g id="node3" class="node">
<title>Node2</title>
<polygon fill="#ffffff" stroke="#bfbfbf" points="0,-.5 0,-19.5 55,-19.5 55,-.5 0,-.5"/>
<text text-anchor="middle" x="27.5" y="-7.5" font-family="Helvetica,sans-Serif" font-size="10.00" fill="#000000">blitz/array.h</text>
</g>
<!-- Node1&#45;&gt;Node2 -->
<g id="edge2" class="edge">
<title>Node1&#45;&gt;Node2</title>
<path fill="none" stroke="#191970" d="M27.5,-56.2455C27.5,-48.9382 27.5,-38.6944 27.5,-29.7046"/>
<polygon fill="#191970" stroke="#191970" points="31.0001,-29.6426 27.5,-19.6427 24.0001,-29.6427 31.0001,-29.6426"/>
</g>
</g>
</svg>
