<?xml version="1.0" encoding="UTF-8" standalone="no"?>
<!DOCTYPE svg PUBLIC "-//W3C//DTD SVG 1.1//EN"
 "http://www.w3.org/Graphics/SVG/1.1/DTD/svg11.dtd">
<!-- Generated by graphviz version 2.40.1 (20161225.0304)
 -->
<!-- Title: include/LinAlgHelpers.hpp Pages: 1 -->
<svg width="1358pt" height="644pt"
 viewBox="0.00 0.00 1357.50 644.00" xmlns="http://www.w3.org/2000/svg" xmlns:xlink="http://www.w3.org/1999/xlink">
<g id="graph0" class="graph" transform="scale(1 1) rotate(0) translate(4 640)">
<title>include/LinAlgHelpers.hpp</title>
<polygon fill="#ffffff" stroke="transparent" points="-4,4 -4,-640 1353.5,-640 1353.5,4 -4,4"/>
<!-- Node0 -->
<g id="node1" class="node">
<title>Node0</title>
<polygon fill="#bfbfbf" stroke="#000000" points="688.5,-616.5 688.5,-635.5 792.5,-635.5 792.5,-616.5 688.5,-616.5"/>
<text text-anchor="middle" x="740.5" y="-623.5" font-family="Helvetica,sans-Serif" font-size="10.00" fill="#000000">include/LinAlgHelpers.hpp</text>
</g>
<!-- Node1 -->
<g id="node2" class="node">
<title>Node1</title>
<g id="a_node2"><a xlink:href="Types_8hpp.html" target="_top" xlink:title="Defines the basic types used throughout this project. ">
<polygon fill="#ffffff" stroke="#000000" points="683.5,-560.5 683.5,-579.5 735.5,-579.5 735.5,-560.5 683.5,-560.5"/>
<text text-anchor="middle" x="709.5" y="-567.5" font-family="Helvetica,sans-Serif" font-size="10.00" fill="#000000">Types.hpp</text>
</a>
</g>
</g>
<!-- Node0&#45;&gt;Node1 -->
<g id="edge1" class="edge">
<title>Node0&#45;&gt;Node1</title>
<path fill="none" stroke="#191970" d="M735.1002,-616.2455C730.8773,-608.617 724.8827,-597.7881 719.7559,-588.5267"/>
<polygon fill="#191970" stroke="#191970" points="722.7432,-586.6965 714.8379,-579.6427 716.619,-590.0867 722.7432,-586.6965"/>
</g>
<!-- Node43 -->
<g id="node44" class="node">
<title>Node43</title>
<polygon fill="#ffffff" stroke="#bfbfbf" points="754,-560.5 754,-579.5 791,-579.5 791,-560.5 754,-560.5"/>
<text text-anchor="middle" x="772.5" y="-567.5" font-family="Helvetica,sans-Serif" font-size="10.00" fill="#000000">cmath</text>
</g>
<!-- Node0&#45;&gt;Node43 -->
<g id="edge77" class="edge">
<title>Node0&#45;&gt;Node43</title>
<path fill="none" stroke="#191970" d="M746.074,-616.2455C750.4331,-608.617 756.6211,-597.7881 761.9133,-588.5267"/>
<polygon fill="#191970" stroke="#191970" points="765.0673,-590.0616 766.9899,-579.6427 758.9896,-586.5886 765.0673,-590.0616"/>
</g>
<!-- Node2 -->
<g id="node3" class="node">
<title>Node2</title>
<g id="a_node3"><a xlink:href="array_8h_source.html" target="_top" xlink:title="blitz/array.h">
<polygon fill="#ffffff" stroke="#000000" points="682,-504.5 682,-523.5 737,-523.5 737,-504.5 682,-504.5"/>
<text text-anchor="middle" x="709.5" y="-511.5" font-family="Helvetica,sans-Serif" font-size="10.00" fill="#000000">blitz/array.h</text>
</a>
</g>
</g>
<!-- Node1&#45;&gt;Node2 -->
<g id="edge2" class="edge">
<title>Node1&#45;&gt;Node2</title>
<path fill="none" stroke="#191970" d="M709.5,-560.2455C709.5,-552.9382 709.5,-542.6944 709.5,-533.7046"/>
<polygon fill="#191970" stroke="#191970" points="713.0001,-533.6426 709.5,-523.6427 706.0001,-533.6427 713.0001,-533.6426"/>
</g>
<!-- Node3 -->
<g id="node4" class="node">
<title>Node3</title>
<g id="a_node4"><a xlink:href="array-impl_8h_source.html" target="_top" xlink:title="blitz/array&#45;impl.h">
<polygon fill="#ffffff" stroke="#000000" points="673.5,-448.5 673.5,-467.5 745.5,-467.5 745.5,-448.5 673.5,-448.5"/>
<text text-anchor="middle" x="709.5" y="-455.5" font-family="Helvetica,sans-Serif" font-size="10.00" fill="#000000">blitz/array&#45;impl.h</text>
</a>
</g>
</g>
<!-- Node2&#45;&gt;Node3 -->
<g id="edge3" class="edge">
<title>Node2&#45;&gt;Node3</title>
<path fill="none" stroke="#191970" d="M709.5,-504.2455C709.5,-496.9382 709.5,-486.6944 709.5,-477.7046"/>
<polygon fill="#191970" stroke="#191970" points="713.0001,-477.6426 709.5,-467.6427 706.0001,-477.6427 713.0001,-477.6426"/>
</g>
<!-- Node4 -->
<g id="node5" class="node">
<title>Node4</title>
<g id="a_node5"><a xlink:href="blitz_8h_source.html" target="_top" xlink:title="blitz/blitz.h">
<polygon fill="#ffffff" stroke="#000000" points="389.5,-112.5 389.5,-131.5 441.5,-131.5 441.5,-112.5 389.5,-112.5"/>
<text text-anchor="middle" x="415.5" y="-119.5" font-family="Helvetica,sans-Serif" font-size="10.00" fill="#000000">blitz/blitz.h</text>
</a>
</g>
</g>
<!-- Node3&#45;&gt;Node4 -->
<g id="edge4" class="edge">
<title>Node3&#45;&gt;Node4</title>
<path fill="none" stroke="#191970" d="M673.3588,-455.132C592.0224,-448.4265 396.7604,-430.8569 333.5,-412 269.8788,-393.0356 199.5,-412.3876 199.5,-346 199.5,-346 199.5,-346 199.5,-234 199.5,-153.9377 317.9005,-131.0343 379.3807,-124.5383"/>
<polygon fill="#191970" stroke="#191970" points="379.8275,-128.0115 389.4454,-123.5677 379.1555,-121.0439 379.8275,-128.0115"/>
</g>
<!-- Node16 -->
<g id="node17" class="node">
<title>Node16</title>
<g id="a_node17"><a xlink:href="memblock_8h_source.html" target="_top" xlink:title="blitz/memblock.h">
<polygon fill="#ffffff" stroke="#000000" points="80.5,-224.5 80.5,-243.5 152.5,-243.5 152.5,-224.5 80.5,-224.5"/>
<text text-anchor="middle" x="116.5" y="-231.5" font-family="Helvetica,sans-Serif" font-size="10.00" fill="#000000">blitz/memblock.h</text>
</a>
</g>
</g>
<!-- Node3&#45;&gt;Node16 -->
<g id="edge18" class="edge">
<title>Node3&#45;&gt;Node16</title>
<path fill="none" stroke="#191970" d="M673.4057,-457.0147C561.3141,-453.6566 224.3806,-441.2075 185.5,-412 134.3481,-373.5741 121.1056,-291.8932 117.6859,-254.0357"/>
<polygon fill="#191970" stroke="#191970" points="121.1551,-253.4967 116.9088,-243.7901 114.1752,-254.0262 121.1551,-253.4967"/>
</g>
<!-- Node20 -->
<g id="node21" class="node">
<title>Node20</title>
<g id="a_node21"><a xlink:href="range_8h_source.html" target="_top" xlink:title="blitz/range.h">
<polygon fill="#ffffff" stroke="#000000" points="575,-280.5 575,-299.5 632,-299.5 632,-280.5 575,-280.5"/>
<text text-anchor="middle" x="603.5" y="-287.5" font-family="Helvetica,sans-Serif" font-size="10.00" fill="#000000">blitz/range.h</text>
</a>
</g>
</g>
<!-- Node3&#45;&gt;Node20 -->
<g id="edge24" class="edge">
<title>Node3&#45;&gt;Node20</title>
<path fill="none" stroke="#191970" d="M698.4249,-448.1779C688.905,-439.3511 675.2148,-425.7038 665.5,-412 641.5745,-378.2504 621.5125,-333.9701 611.1271,-309.0985"/>
<polygon fill="#191970" stroke="#191970" points="614.3134,-307.6433 607.2856,-299.7148 607.8352,-310.2954 614.3134,-307.6433"/>
</g>
<!-- Node26 -->
<g id="node27" class="node">
<title>Node26</title>
<g id="a_node27"><a xlink:href="tinyvec2_8h_source.html" target="_top" xlink:title="blitz/tinyvec2.h">
<polygon fill="#ffffff" stroke="#000000" points="737.5,-224.5 737.5,-243.5 803.5,-243.5 803.5,-224.5 737.5,-224.5"/>
<text text-anchor="middle" x="770.5" y="-231.5" font-family="Helvetica,sans-Serif" font-size="10.00" fill="#000000">blitz/tinyvec2.h</text>
</a>
</g>
</g>
<!-- Node3&#45;&gt;Node26 -->
<g id="edge43" class="edge">
<title>Node3&#45;&gt;Node26</title>
<path fill="none" stroke="#191970" d="M722.2114,-448.4826C732.5379,-440.0475 746.6358,-426.7981 754.5,-412 782.4459,-359.4139 781.9923,-339.3809 777.5,-280 776.8464,-271.361 775.5119,-261.8868 774.1817,-253.7935"/>
<polygon fill="#191970" stroke="#191970" points="777.6078,-253.0674 772.4347,-243.8213 770.7128,-254.2753 777.6078,-253.0674"/>
</g>
<!-- Node28 -->
<g id="node29" class="node">
<title>Node28</title>
<g id="a_node29"><a xlink:href="slice_8h_source.html" target="_top" xlink:title="blitz/array/slice.h">
<polygon fill="#ffffff" stroke="#000000" points="873.5,-168.5 873.5,-187.5 945.5,-187.5 945.5,-168.5 873.5,-168.5"/>
<text text-anchor="middle" x="909.5" y="-175.5" font-family="Helvetica,sans-Serif" font-size="10.00" fill="#000000">blitz/array/slice.h</text>
</a>
</g>
</g>
<!-- Node3&#45;&gt;Node28 -->
<g id="edge67" class="edge">
<title>Node3&#45;&gt;Node28</title>
<path fill="none" stroke="#191970" d="M745.6002,-448.872C811.7109,-431.0911 945.5,-389.708 945.5,-346 945.5,-346 945.5,-346 945.5,-290 945.5,-255.7942 930.0926,-218.4094 919.4369,-196.6445"/>
<polygon fill="#191970" stroke="#191970" points="922.4659,-194.8795 914.8119,-187.5538 916.227,-198.0537 922.4659,-194.8795"/>
</g>
<!-- Node30 -->
<g id="node31" class="node">
<title>Node30</title>
<g id="a_node31"><a xlink:href="tvecglobs_8h_source.html" target="_top" xlink:title="blitz/tvecglobs.h">
<polygon fill="#ffffff" stroke="#000000" points="1038.5,-280.5 1038.5,-299.5 1108.5,-299.5 1108.5,-280.5 1038.5,-280.5"/>
<text text-anchor="middle" x="1073.5" y="-287.5" font-family="Helvetica,sans-Serif" font-size="10.00" fill="#000000">blitz/tvecglobs.h</text>
</a>
</g>
</g>
<!-- Node3&#45;&gt;Node30 -->
<g id="edge44" class="edge">
<title>Node3&#45;&gt;Node30</title>
<path fill="none" stroke="#191970" d="M745.8233,-454.1474C805.9655,-447.3035 923.204,-431.858 959.5,-412 1005.9076,-386.6098 1044.0802,-335.426 1062.1771,-308.1229"/>
<polygon fill="#191970" stroke="#191970" points="1065.2338,-309.8414 1067.7216,-299.5428 1059.3545,-306.0422 1065.2338,-309.8414"/>
</g>
<!-- Node38 -->
<g id="node39" class="node">
<title>Node38</title>
<g id="a_node39"><a xlink:href="indexexpr_8h_source.html" target="_top" xlink:title="blitz/indexexpr.h">
<polygon fill="#ffffff" stroke="#000000" points="674,-392.5 674,-411.5 745,-411.5 745,-392.5 674,-392.5"/>
<text text-anchor="middle" x="709.5" y="-399.5" font-family="Helvetica,sans-Serif" font-size="10.00" fill="#000000">blitz/indexexpr.h</text>
</a>
</g>
</g>
<!-- Node3&#45;&gt;Node38 -->
<g id="edge58" class="edge">
<title>Node3&#45;&gt;Node38</title>
<path fill="none" stroke="#191970" d="M709.5,-448.2455C709.5,-440.9382 709.5,-430.6944 709.5,-421.7046"/>
<polygon fill="#191970" stroke="#191970" points="713.0001,-421.6426 709.5,-411.6427 706.0001,-421.6427 713.0001,-421.6426"/>
</g>
<!-- Node39 -->
<g id="node40" class="node">
<title>Node39</title>
<g id="a_node40"><a xlink:href="domain_8h_source.html" target="_top" xlink:title="blitz/array/domain.h">
<polygon fill="#ffffff" stroke="#000000" points="267.5,-336.5 267.5,-355.5 349.5,-355.5 349.5,-336.5 267.5,-336.5"/>
<text text-anchor="middle" x="308.5" y="-343.5" font-family="Helvetica,sans-Serif" font-size="10.00" fill="#000000">blitz/array/domain.h</text>
</a>
</g>
</g>
<!-- Node3&#45;&gt;Node39 -->
<g id="edge75" class="edge">
<title>Node3&#45;&gt;Node39</title>
<path fill="none" stroke="#191970" d="M673.3301,-456.7072C594.9916,-453.3587 412.4316,-442.4328 359.5,-412 340.5518,-401.1058 326.2183,-380.1146 317.6447,-364.7199"/>
<polygon fill="#191970" stroke="#191970" points="320.5937,-362.8068 312.8519,-355.5739 314.3935,-366.056 320.5937,-362.8068"/>
</g>
<!-- Node40 -->
<g id="node41" class="node">
<title>Node40</title>
<g id="a_node41"><a xlink:href="map_8h_source.html" target="_top" xlink:title="blitz/array/map.h">
<polygon fill="#ffffff" stroke="#000000" points="368.5,-392.5 368.5,-411.5 440.5,-411.5 440.5,-392.5 368.5,-392.5"/>
<text text-anchor="middle" x="404.5" y="-399.5" font-family="Helvetica,sans-Serif" font-size="10.00" fill="#000000">blitz/array/map.h</text>
</a>
</g>
</g>
<!-- Node3&#45;&gt;Node40 -->
<g id="edge68" class="edge">
<title>Node3&#45;&gt;Node40</title>
<path fill="none" stroke="#191970" d="M673.3148,-451.3562C617.825,-441.1679 511.7502,-421.6918 450.7533,-410.4924"/>
<polygon fill="#191970" stroke="#191970" points="451.1058,-406.9987 440.6381,-408.6352 449.8416,-413.8836 451.1058,-406.9987"/>
</g>
<!-- Node41 -->
<g id="node42" class="node">
<title>Node41</title>
<g id="a_node42"><a xlink:href="multi_8h_source.html" target="_top" xlink:title="blitz/array/multi.h">
<polygon fill="#ffffff" stroke="#000000" points="1012,-392.5 1012,-411.5 1085,-411.5 1085,-392.5 1012,-392.5"/>
<text text-anchor="middle" x="1048.5" y="-399.5" font-family="Helvetica,sans-Serif" font-size="10.00" fill="#000000">blitz/array/multi.h</text>
</a>
</g>
</g>
<!-- Node3&#45;&gt;Node41 -->
<g id="edge74" class="edge">
<title>Node3&#45;&gt;Node41</title>
<path fill="none" stroke="#191970" d="M745.9399,-452.6008C800.6609,-444.3976 907.2687,-428.047 997.5,-412 998.9435,-411.7433 1000.4093,-411.4788 1001.8887,-411.2087"/>
<polygon fill="#191970" stroke="#191970" points="1002.5708,-414.6419 1011.7579,-409.3648 1001.2852,-407.761 1002.5708,-414.6419"/>
</g>
<!-- Node42 -->
<g id="node43" class="node">
<title>Node42</title>
<g id="a_node43"><a xlink:href="storage_8h_source.html" target="_top" xlink:title="blitz/array/storage.h">
<polygon fill="#ffffff" stroke="#000000" points="1103.5,-392.5 1103.5,-411.5 1185.5,-411.5 1185.5,-392.5 1103.5,-392.5"/>
<text text-anchor="middle" x="1144.5" y="-399.5" font-family="Helvetica,sans-Serif" font-size="10.00" fill="#000000">blitz/array/storage.h</text>
</a>
</g>
</g>
<!-- Node3&#45;&gt;Node42 -->
<g id="edge76" class="edge">
<title>Node3&#45;&gt;Node42</title>
<path fill="none" stroke="#191970" d="M745.7251,-454.6292C812.4512,-448.2135 959.4589,-433.117 1093.3218,-412.0869"/>
<polygon fill="#191970" stroke="#191970" points="1094.0173,-415.5204 1103.3454,-410.497 1092.9206,-408.6069 1094.0173,-415.5204"/>
</g>
<!-- Node5 -->
<g id="node6" class="node">
<title>Node5</title>
<g id="a_node6"><a xlink:href="bzconfig_8h_source.html" target="_top" xlink:title="blitz/bzconfig.h">
<polygon fill="#ffffff" stroke="#000000" points="86.5,-.5 86.5,-19.5 152.5,-19.5 152.5,-.5 86.5,-.5"/>
<text text-anchor="middle" x="119.5" y="-7.5" font-family="Helvetica,sans-Serif" font-size="10.00" fill="#000000">blitz/bzconfig.h</text>
</a>
</g>
</g>
<!-- Node4&#45;&gt;Node5 -->
<g id="edge5" class="edge">
<title>Node4&#45;&gt;Node5</title>
<path fill="none" stroke="#191970" d="M389.0541,-121.3218C326.3261,-119.159 171.0486,-110.3771 134.5,-76 122.0864,-64.3239 118.9238,-44.6945 118.5145,-29.8709"/>
<polygon fill="#191970" stroke="#191970" points="122.0163,-29.7224 118.6305,-19.6832 115.0168,-29.6426 122.0163,-29.7224"/>
</g>
<!-- Node6 -->
<g id="node7" class="node">
<title>Node6</title>
<g id="a_node7"><a xlink:href="compiler_8h_source.html" target="_top" xlink:title="blitz/compiler.h">
<polygon fill="#ffffff" stroke="#000000" points="144,-56.5 144,-75.5 211,-75.5 211,-56.5 144,-56.5"/>
<text text-anchor="middle" x="177.5" y="-63.5" font-family="Helvetica,sans-Serif" font-size="10.00" fill="#000000">blitz/compiler.h</text>
</a>
</g>
</g>
<!-- Node4&#45;&gt;Node6 -->
<g id="edge6" class="edge">
<title>Node4&#45;&gt;Node6</title>
<path fill="none" stroke="#191970" d="M389.496,-115.9251C353.786,-107.5767 287.2944,-92.0104 221.5401,-76.4778"/>
<polygon fill="#191970" stroke="#191970" points="221.9607,-72.9809 211.4238,-74.087 220.3507,-79.7932 221.9607,-72.9809"/>
</g>
<!-- Node8 -->
<g id="node9" class="node">
<title>Node8</title>
<g id="a_node9"><a xlink:href="tuning_8h_source.html" target="_top" xlink:title="blitz/tuning.h">
<polygon fill="#ffffff" stroke="#000000" points="314,-56.5 314,-75.5 373,-75.5 373,-56.5 314,-56.5"/>
<text text-anchor="middle" x="343.5" y="-63.5" font-family="Helvetica,sans-Serif" font-size="10.00" fill="#000000">blitz/tuning.h</text>
</a>
</g>
</g>
<!-- Node4&#45;&gt;Node8 -->
<g id="edge9" class="edge">
<title>Node4&#45;&gt;Node8</title>
<path fill="none" stroke="#191970" d="M402.9586,-112.2455C392.2213,-103.8943 376.5527,-91.7076 363.9953,-81.9408"/>
<polygon fill="#191970" stroke="#191970" points="365.9401,-79.0194 355.8977,-75.6427 361.6425,-84.5449 365.9401,-79.0194"/>
</g>
<!-- Node9 -->
<g id="node10" class="node">
<title>Node9</title>
<g id="a_node10"><a xlink:href="tau_8h_source.html" target="_top" xlink:title="blitz/tau.h">
<polygon fill="#ffffff" stroke="#000000" points="391,-56.5 391,-75.5 440,-75.5 440,-56.5 391,-56.5"/>
<text text-anchor="middle" x="415.5" y="-63.5" font-family="Helvetica,sans-Serif" font-size="10.00" fill="#000000">blitz/tau.h</text>
</a>
</g>
</g>
<!-- Node4&#45;&gt;Node9 -->
<g id="edge10" class="edge">
<title>Node4&#45;&gt;Node9</title>
<path fill="none" stroke="#191970" d="M415.5,-112.2455C415.5,-104.9382 415.5,-94.6944 415.5,-85.7046"/>
<polygon fill="#191970" stroke="#191970" points="419.0001,-85.6426 415.5,-75.6427 412.0001,-85.6427 419.0001,-85.6426"/>
</g>
<!-- Node10 -->
<g id="node11" class="node">
<title>Node10</title>
<polygon fill="#ffffff" stroke="#bfbfbf" points="458.5,-56.5 458.5,-75.5 510.5,-75.5 510.5,-56.5 458.5,-56.5"/>
<text text-anchor="middle" x="484.5" y="-63.5" font-family="Helvetica,sans-Serif" font-size="10.00" fill="#000000">iostream.h</text>
</g>
<!-- Node4&#45;&gt;Node10 -->
<g id="edge11" class="edge">
<title>Node4&#45;&gt;Node10</title>
<path fill="none" stroke="#191970" d="M427.5189,-112.2455C437.7098,-103.9746 452.5362,-91.9416 464.5107,-82.2232"/>
<polygon fill="#191970" stroke="#191970" points="467.0598,-84.662 472.6188,-75.6427 462.6486,-79.2268 467.0598,-84.662"/>
</g>
<!-- Node11 -->
<g id="node12" class="node">
<title>Node11</title>
<polygon fill="#ffffff" stroke="#bfbfbf" points="529,-56.5 529,-75.5 578,-75.5 578,-56.5 529,-56.5"/>
<text text-anchor="middle" x="553.5" y="-63.5" font-family="Helvetica,sans-Serif" font-size="10.00" fill="#000000">iomanip.h</text>
</g>
<!-- Node4&#45;&gt;Node11 -->
<g id="edge12" class="edge">
<title>Node4&#45;&gt;Node11</title>
<path fill="none" stroke="#191970" d="M439.223,-112.3733C461.6737,-103.2629 495.5739,-89.5062 520.6255,-79.3404"/>
<polygon fill="#191970" stroke="#191970" points="522.1365,-82.5045 530.0865,-75.5011 519.5043,-76.0182 522.1365,-82.5045"/>
</g>
<!-- Node12 -->
<g id="node13" class="node">
<title>Node12</title>
<polygon fill="#ffffff" stroke="#bfbfbf" points="596,-56.5 596,-75.5 635,-75.5 635,-56.5 596,-56.5"/>
<text text-anchor="middle" x="615.5" y="-63.5" font-family="Helvetica,sans-Serif" font-size="10.00" fill="#000000">stdio.h</text>
</g>
<!-- Node4&#45;&gt;Node12 -->
<g id="edge13" class="edge">
<title>Node4&#45;&gt;Node12</title>
<path fill="none" stroke="#191970" d="M441.6238,-115.7197C473.6439,-107.8698 529.7302,-93.6292 586.1887,-76.2464"/>
<polygon fill="#191970" stroke="#191970" points="587.4774,-79.5111 595.9864,-73.1987 585.3981,-72.827 587.4774,-79.5111"/>
</g>
<!-- Node13 -->
<g id="node14" class="node">
<title>Node13</title>
<polygon fill="#ffffff" stroke="#bfbfbf" points="653,-56.5 653,-75.5 692,-75.5 692,-56.5 653,-56.5"/>
<text text-anchor="middle" x="672.5" y="-63.5" font-family="Helvetica,sans-Serif" font-size="10.00" fill="#000000">math.h</text>
</g>
<!-- Node4&#45;&gt;Node13 -->
<g id="edge14" class="edge">
<title>Node4&#45;&gt;Node13</title>
<path fill="none" stroke="#191970" d="M441.5448,-118.0309C482.5833,-111.5078 564.8988,-97.336 642.7658,-76.2098"/>
<polygon fill="#191970" stroke="#191970" points="644.02,-79.4946 652.7289,-73.461 642.1582,-72.7467 644.02,-79.4946"/>
</g>
<!-- Node14 -->
<g id="node15" class="node">
<title>Node14</title>
<g id="a_node15"><a xlink:href="bzdebug_8h_source.html" target="_top" xlink:title="blitz/bzdebug.h">
<polygon fill="#ffffff" stroke="#000000" points="229,-56.5 229,-75.5 296,-75.5 296,-56.5 229,-56.5"/>
<text text-anchor="middle" x="262.5" y="-63.5" font-family="Helvetica,sans-Serif" font-size="10.00" fill="#000000">blitz/bzdebug.h</text>
</a>
</g>
</g>
<!-- Node4&#45;&gt;Node14 -->
<g id="edge15" class="edge">
<title>Node4&#45;&gt;Node14</title>
<path fill="none" stroke="#191970" d="M389.1984,-112.3733C364.0872,-103.1822 326.0562,-89.2624 298.2128,-79.0713"/>
<polygon fill="#191970" stroke="#191970" points="299.0522,-75.6516 288.4584,-75.5011 296.6462,-82.2251 299.0522,-75.6516"/>
</g>
<!-- Node6&#45;&gt;Node5 -->
<g id="edge7" class="edge">
<title>Node6&#45;&gt;Node5</title>
<path fill="none" stroke="#191970" d="M167.3972,-56.2455C158.9972,-48.1352 146.8506,-36.4075 136.8916,-26.7919"/>
<polygon fill="#191970" stroke="#191970" points="139.1122,-24.0707 129.4871,-19.6427 134.25,-29.1066 139.1122,-24.0707"/>
</g>
<!-- Node7 -->
<g id="node8" class="node">
<title>Node7</title>
<polygon fill="#ffffff" stroke="#bfbfbf" points="178.5,-.5 178.5,-19.5 218.5,-19.5 218.5,-.5 178.5,-.5"/>
<text text-anchor="middle" x="198.5" y="-7.5" font-family="Helvetica,sans-Serif" font-size="10.00" fill="#000000">stdlib.h</text>
</g>
<!-- Node6&#45;&gt;Node7 -->
<g id="edge8" class="edge">
<title>Node6&#45;&gt;Node7</title>
<path fill="none" stroke="#191970" d="M181.1579,-56.2455C183.9584,-48.7776 187.909,-38.2427 191.3324,-29.1137"/>
<polygon fill="#191970" stroke="#191970" points="194.6499,-30.2349 194.884,-19.6427 188.0955,-27.777 194.6499,-30.2349"/>
</g>
<!-- Node14&#45;&gt;Node7 -->
<g id="edge16" class="edge">
<title>Node14&#45;&gt;Node7</title>
<path fill="none" stroke="#191970" d="M251.3521,-56.2455C241.9913,-48.0549 228.4142,-36.1749 217.3651,-26.5069"/>
<polygon fill="#191970" stroke="#191970" points="219.3508,-23.5937 209.5202,-19.6427 214.7412,-28.8618 219.3508,-23.5937"/>
</g>
<!-- Node15 -->
<g id="node16" class="node">
<title>Node15</title>
<polygon fill="#ffffff" stroke="#bfbfbf" points="241,-.5 241,-19.5 284,-19.5 284,-.5 241,-.5"/>
<text text-anchor="middle" x="262.5" y="-7.5" font-family="Helvetica,sans-Serif" font-size="10.00" fill="#000000">assert.h</text>
</g>
<!-- Node14&#45;&gt;Node15 -->
<g id="edge17" class="edge">
<title>Node14&#45;&gt;Node15</title>
<path fill="none" stroke="#191970" d="M262.5,-56.2455C262.5,-48.9382 262.5,-38.6944 262.5,-29.7046"/>
<polygon fill="#191970" stroke="#191970" points="266.0001,-29.6426 262.5,-19.6427 259.0001,-29.6427 266.0001,-29.6426"/>
</g>
<!-- Node16&#45;&gt;Node4 -->
<g id="edge19" class="edge">
<title>Node16&#45;&gt;Node4</title>
<path fill="none" stroke="#191970" d="M123.7561,-224.1382C135.1565,-209.4173 158.7434,-181.9396 185.5,-168 218.7491,-150.678 323.158,-134.4764 379.1594,-126.7449"/>
<polygon fill="#191970" stroke="#191970" points="379.9153,-130.1744 389.3519,-125.3576 378.9712,-123.2383 379.9153,-130.1744"/>
</g>
<!-- Node17 -->
<g id="node18" class="node">
<title>Node17</title>
<g id="a_node18"><a xlink:href="simdtypes_8h_source.html" target="_top" xlink:title="blitz/simdtypes.h">
<polygon fill="#ffffff" stroke="#000000" points="61.5,-168.5 61.5,-187.5 133.5,-187.5 133.5,-168.5 61.5,-168.5"/>
<text text-anchor="middle" x="97.5" y="-175.5" font-family="Helvetica,sans-Serif" font-size="10.00" fill="#000000">blitz/simdtypes.h</text>
</a>
</g>
</g>
<!-- Node16&#45;&gt;Node17 -->
<g id="edge20" class="edge">
<title>Node16&#45;&gt;Node17</title>
<path fill="none" stroke="#191970" d="M113.1905,-224.2455C110.6567,-216.7776 107.0823,-206.2427 103.985,-197.1137"/>
<polygon fill="#191970" stroke="#191970" points="107.2991,-195.9879 100.7716,-187.6427 100.6702,-198.237 107.2991,-195.9879"/>
</g>
<!-- Node19 -->
<g id="node20" class="node">
<title>Node19</title>
<polygon fill="#ffffff" stroke="#bfbfbf" points="0,-168.5 0,-187.5 43,-187.5 43,-168.5 0,-168.5"/>
<text text-anchor="middle" x="21.5" y="-175.5" font-family="Helvetica,sans-Serif" font-size="10.00" fill="#000000">stddef.h</text>
</g>
<!-- Node16&#45;&gt;Node19 -->
<g id="edge23" class="edge">
<title>Node16&#45;&gt;Node19</title>
<path fill="none" stroke="#191970" d="M99.9523,-224.2455C85.2401,-215.5731 63.5112,-202.7645 46.6495,-192.825"/>
<polygon fill="#191970" stroke="#191970" points="48.2502,-189.7057 37.8581,-187.6427 44.6954,-195.736 48.2502,-189.7057"/>
</g>
<!-- Node17&#45;&gt;Node4 -->
<g id="edge21" class="edge">
<title>Node17&#45;&gt;Node4</title>
<path fill="none" stroke="#191970" d="M133.5273,-170.672C138.224,-169.7527 142.9742,-168.8408 147.5,-168 230.2197,-152.6319 327.6541,-136.3671 379.2238,-127.9025"/>
<polygon fill="#191970" stroke="#191970" points="379.9067,-131.3374 389.2094,-126.267 378.7752,-124.4295 379.9067,-131.3374"/>
</g>
<!-- Node18 -->
<g id="node19" class="node">
<title>Node18</title>
<polygon fill="#ffffff" stroke="#bfbfbf" points="77,-112.5 77,-131.5 118,-131.5 118,-112.5 77,-112.5"/>
<text text-anchor="middle" x="97.5" y="-119.5" font-family="Helvetica,sans-Serif" font-size="10.00" fill="#000000">stdint.h</text>
</g>
<!-- Node17&#45;&gt;Node18 -->
<g id="edge22" class="edge">
<title>Node17&#45;&gt;Node18</title>
<path fill="none" stroke="#191970" d="M97.5,-168.2455C97.5,-160.9382 97.5,-150.6944 97.5,-141.7046"/>
<polygon fill="#191970" stroke="#191970" points="101.0001,-141.6426 97.5,-131.6427 94.0001,-141.6427 101.0001,-141.6426"/>
</g>
<!-- Node20&#45;&gt;Node4 -->
<g id="edge25" class="edge">
<title>Node20&#45;&gt;Node4</title>
<path fill="none" stroke="#191970" d="M574.6883,-282.0085C552.3977,-274.7701 521.6918,-262.3952 499.5,-244 464.1943,-214.7345 437.3156,-167.0417 424.2554,-140.7951"/>
<polygon fill="#191970" stroke="#191970" points="427.2999,-139.0509 419.7975,-131.5699 420.9972,-142.0966 427.2999,-139.0509"/>
</g>
<!-- Node21 -->
<g id="node22" class="node">
<title>Node21</title>
<g id="a_node22"><a xlink:href="etbase_8h_source.html" target="_top" xlink:title="blitz/etbase.h">
<polygon fill="#ffffff" stroke="#000000" points="598,-168.5 598,-187.5 659,-187.5 659,-168.5 598,-168.5"/>
<text text-anchor="middle" x="628.5" y="-175.5" font-family="Helvetica,sans-Serif" font-size="10.00" fill="#000000">blitz/etbase.h</text>
</a>
</g>
</g>
<!-- Node20&#45;&gt;Node21 -->
<g id="edge26" class="edge">
<title>Node20&#45;&gt;Node21</title>
<path fill="none" stroke="#191970" d="M619.118,-280.4791C630.7472,-272.3972 645.7332,-259.6339 652.5,-244 659.4255,-227.9994 651.1253,-209.2807 642.4484,-195.8731"/>
<polygon fill="#191970" stroke="#191970" points="645.1905,-193.6885 636.5636,-187.5382 639.4721,-197.726 645.1905,-193.6885"/>
</g>
<!-- Node22 -->
<g id="node23" class="node">
<title>Node22</title>
<g id="a_node23"><a xlink:href="asexpr_8h_source.html" target="_top" xlink:title="blitz/array/asexpr.h">
<polygon fill="#ffffff" stroke="#000000" points="563.5,-224.5 563.5,-243.5 643.5,-243.5 643.5,-224.5 563.5,-224.5"/>
<text text-anchor="middle" x="603.5" y="-231.5" font-family="Helvetica,sans-Serif" font-size="10.00" fill="#000000">blitz/array/asexpr.h</text>
</a>
</g>
</g>
<!-- Node20&#45;&gt;Node22 -->
<g id="edge27" class="edge">
<title>Node20&#45;&gt;Node22</title>
<path fill="none" stroke="#191970" d="M603.5,-280.2455C603.5,-272.9382 603.5,-262.6944 603.5,-253.7046"/>
<polygon fill="#191970" stroke="#191970" points="607.0001,-253.6426 603.5,-243.6427 600.0001,-253.6427 607.0001,-253.6426"/>
</g>
<!-- Node25 -->
<g id="node26" class="node">
<title>Node25</title>
<g id="a_node26"><a xlink:href="prettyprint_8h_source.html" target="_top" xlink:title="blitz/prettyprint.h">
<polygon fill="#ffffff" stroke="#000000" points="379.5,-224.5 379.5,-243.5 451.5,-243.5 451.5,-224.5 379.5,-224.5"/>
<text text-anchor="middle" x="415.5" y="-231.5" font-family="Helvetica,sans-Serif" font-size="10.00" fill="#000000">blitz/prettyprint.h</text>
</a>
</g>
</g>
<!-- Node20&#45;&gt;Node25 -->
<g id="edge32" class="edge">
<title>Node20&#45;&gt;Node25</title>
<path fill="none" stroke="#191970" d="M574.9468,-281.4948C543.5869,-272.1535 492.9339,-257.0654 457.1462,-246.4053"/>
<polygon fill="#191970" stroke="#191970" points="458.0579,-243.0249 447.4748,-243.5244 456.0595,-249.7336 458.0579,-243.0249"/>
</g>
<!-- Node20&#45;&gt;Node26 -->
<g id="edge34" class="edge">
<title>Node20&#45;&gt;Node26</title>
<path fill="none" stroke="#191970" d="M632.2083,-280.3733C659.8577,-271.1016 701.8576,-257.0178 732.3166,-246.804"/>
<polygon fill="#191970" stroke="#191970" points="733.7979,-249.9989 742.1663,-243.5011 731.5724,-243.3621 733.7979,-249.9989"/>
</g>
<!-- Node29 -->
<g id="node30" class="node">
<title>Node29</title>
<polygon fill="#ffffff" stroke="#bfbfbf" points="508,-224.5 508,-243.5 545,-243.5 545,-224.5 508,-224.5"/>
<text text-anchor="middle" x="526.5" y="-231.5" font-family="Helvetica,sans-Serif" font-size="10.00" fill="#000000">climits</text>
</g>
<!-- Node20&#45;&gt;Node29 -->
<g id="edge42" class="edge">
<title>Node20&#45;&gt;Node29</title>
<path fill="none" stroke="#191970" d="M590.0876,-280.2455C578.4943,-271.814 561.5252,-259.4729 548.0322,-249.6598"/>
<polygon fill="#191970" stroke="#191970" points="549.9047,-246.6938 539.7587,-243.6427 545.7874,-252.355 549.9047,-246.6938"/>
</g>
<!-- Node23 -->
<g id="node24" class="node">
<title>Node23</title>
<g id="a_node24"><a xlink:href="et-forward_8h_source.html" target="_top" xlink:title="blitz/et&#45;forward.h">
<polygon fill="#ffffff" stroke="#000000" points="507.5,-168.5 507.5,-187.5 579.5,-187.5 579.5,-168.5 507.5,-168.5"/>
<text text-anchor="middle" x="543.5" y="-175.5" font-family="Helvetica,sans-Serif" font-size="10.00" fill="#000000">blitz/et&#45;forward.h</text>
</a>
</g>
</g>
<!-- Node22&#45;&gt;Node23 -->
<g id="edge28" class="edge">
<title>Node22&#45;&gt;Node23</title>
<path fill="none" stroke="#191970" d="M593.0488,-224.2455C584.2731,-216.0549 571.5446,-204.1749 561.186,-194.5069"/>
<polygon fill="#191970" stroke="#191970" points="563.5301,-191.9072 553.8314,-187.6427 558.7539,-197.0246 563.5301,-191.9072"/>
</g>
<!-- Node24 -->
<g id="node25" class="node">
<title>Node24</title>
<g id="a_node25"><a xlink:href="numtrait_8h_source.html" target="_top" xlink:title="blitz/numtrait.h">
<polygon fill="#ffffff" stroke="#000000" points="752,-168.5 752,-187.5 817,-187.5 817,-168.5 752,-168.5"/>
<text text-anchor="middle" x="784.5" y="-175.5" font-family="Helvetica,sans-Serif" font-size="10.00" fill="#000000">blitz/numtrait.h</text>
</a>
</g>
</g>
<!-- Node22&#45;&gt;Node24 -->
<g id="edge30" class="edge">
<title>Node22&#45;&gt;Node24</title>
<path fill="none" stroke="#191970" d="M634.615,-224.3733C664.8429,-215.021 710.896,-200.7725 743.9739,-190.5385"/>
<polygon fill="#191970" stroke="#191970" points="745.2723,-193.8005 753.791,-187.5011 743.2033,-187.1133 745.2723,-193.8005"/>
</g>
<!-- Node23&#45;&gt;Node4 -->
<g id="edge29" class="edge">
<title>Node23&#45;&gt;Node4</title>
<path fill="none" stroke="#191970" d="M521.496,-168.3733C500.8565,-159.3435 469.7842,-145.7494 446.6111,-135.6111"/>
<polygon fill="#191970" stroke="#191970" points="447.7813,-132.3028 437.2169,-131.5011 444.9755,-138.7159 447.7813,-132.3028"/>
</g>
<!-- Node24&#45;&gt;Node4 -->
<g id="edge31" class="edge">
<title>Node24&#45;&gt;Node4</title>
<path fill="none" stroke="#191970" d="M751.8906,-169.7352C749.0605,-169.1125 746.2344,-168.5239 743.5,-168 638.28,-147.8423 512.4825,-132.6606 451.7918,-125.889"/>
<polygon fill="#191970" stroke="#191970" points="451.9065,-122.3805 441.5826,-124.761 451.1377,-129.3381 451.9065,-122.3805"/>
</g>
<!-- Node25&#45;&gt;Node4 -->
<g id="edge33" class="edge">
<title>Node25&#45;&gt;Node4</title>
<path fill="none" stroke="#191970" d="M415.5,-224.4509C415.5,-206.184 415.5,-165.9553 415.5,-141.6976"/>
<polygon fill="#191970" stroke="#191970" points="419.0001,-141.5249 415.5,-131.5249 412.0001,-141.5249 419.0001,-141.5249"/>
</g>
<!-- Node26&#45;&gt;Node4 -->
<g id="edge35" class="edge">
<title>Node26&#45;&gt;Node4</title>
<path fill="none" stroke="#191970" d="M788.6535,-224.468C811.0504,-211.5166 844.1307,-187.714 826.5,-168 801.703,-140.2729 547.7294,-127.2927 451.8643,-123.3534"/>
<polygon fill="#191970" stroke="#191970" points="451.9024,-119.8522 441.77,-122.9482 451.6216,-126.8466 451.9024,-119.8522"/>
</g>
<!-- Node26&#45;&gt;Node17 -->
<g id="edge39" class="edge">
<title>Node26&#45;&gt;Node17</title>
<path fill="none" stroke="#191970" d="M737.4402,-231.1819C713.7843,-229.1694 681.1828,-226.404 652.5,-224 463.751,-208.1801 238.8664,-189.6343 143.6875,-181.7991"/>
<polygon fill="#191970" stroke="#191970" points="143.7925,-178.296 133.539,-180.9638 143.2182,-185.2724 143.7925,-178.296"/>
</g>
<!-- Node26&#45;&gt;Node21 -->
<g id="edge38" class="edge">
<title>Node26&#45;&gt;Node21</title>
<path fill="none" stroke="#191970" d="M746.0893,-224.3733C722.8858,-215.2226 687.7962,-201.3844 661.9858,-191.2057"/>
<polygon fill="#191970" stroke="#191970" points="663.1789,-187.9139 652.5921,-187.5011 660.6108,-194.4258 663.1789,-187.9139"/>
</g>
<!-- Node26&#45;&gt;Node23 -->
<g id="edge37" class="edge">
<title>Node26&#45;&gt;Node23</title>
<path fill="none" stroke="#191970" d="M737.4923,-225.8571C698.4774,-216.2323 633.3195,-200.1581 589.4028,-189.324"/>
<polygon fill="#191970" stroke="#191970" points="590.0964,-185.8903 579.5492,-186.8932 588.4198,-192.6865 590.0964,-185.8903"/>
</g>
<!-- Node27 -->
<g id="node28" class="node">
<title>Node27</title>
<g id="a_node28"><a xlink:href="listinit_8h_source.html" target="_top" xlink:title="blitz/listinit.h">
<polygon fill="#ffffff" stroke="#000000" points="677,-168.5 677,-187.5 734,-187.5 734,-168.5 677,-168.5"/>
<text text-anchor="middle" x="705.5" y="-175.5" font-family="Helvetica,sans-Serif" font-size="10.00" fill="#000000">blitz/listinit.h</text>
</a>
</g>
</g>
<!-- Node26&#45;&gt;Node27 -->
<g id="edge36" class="edge">
<title>Node26&#45;&gt;Node27</title>
<path fill="none" stroke="#191970" d="M759.1779,-224.2455C749.5777,-215.9746 735.6108,-203.9416 724.3305,-194.2232"/>
<polygon fill="#191970" stroke="#191970" points="726.553,-191.5182 716.6924,-187.6427 721.984,-196.8214 726.553,-191.5182"/>
</g>
<!-- Node26&#45;&gt;Node28 -->
<g id="edge40" class="edge">
<title>Node26&#45;&gt;Node28</title>
<path fill="none" stroke="#191970" d="M794.395,-224.3733C817.0082,-215.2629 851.1542,-201.5062 876.3873,-191.3404"/>
<polygon fill="#191970" stroke="#191970" points="877.9493,-194.4845 885.9169,-187.5011 875.3334,-187.9917 877.9493,-194.4845"/>
</g>
<!-- Node28&#45;&gt;Node20 -->
<g id="edge41" class="edge">
<title>Node28&#45;&gt;Node20</title>
<path fill="none" stroke="#191970" d="M898.404,-187.6771C881.2076,-202.1566 846.5422,-229.3234 812.5,-244 756.0815,-268.3236 685.3433,-280.4172 642.3265,-285.9316"/>
<polygon fill="#191970" stroke="#191970" points="641.7743,-282.473 632.2749,-287.1646 642.6267,-289.4209 641.7743,-282.473"/>
</g>
<!-- Node30&#45;&gt;Node24 -->
<g id="edge46" class="edge">
<title>Node30&#45;&gt;Node24</title>
<path fill="none" stroke="#191970" d="M1048.86,-280.4509C997.2458,-260.4482 877.6812,-214.1117 818.6838,-191.2477"/>
<polygon fill="#191970" stroke="#191970" points="819.6667,-187.875 809.0776,-187.5249 817.1371,-194.402 819.6667,-187.875"/>
</g>
<!-- Node31 -->
<g id="node32" class="node">
<title>Node31</title>
<g id="a_node32"><a xlink:href="metaprog_8h_source.html" target="_top" xlink:title="blitz/meta/metaprog.h">
<polygon fill="#ffffff" stroke="#000000" points="1029,-168.5 1029,-187.5 1118,-187.5 1118,-168.5 1029,-168.5"/>
<text text-anchor="middle" x="1073.5" y="-175.5" font-family="Helvetica,sans-Serif" font-size="10.00" fill="#000000">blitz/meta/metaprog.h</text>
</a>
</g>
</g>
<!-- Node30&#45;&gt;Node31 -->
<g id="edge45" class="edge">
<title>Node30&#45;&gt;Node31</title>
<path fill="none" stroke="#191970" d="M1073.5,-280.4509C1073.5,-262.184 1073.5,-221.9553 1073.5,-197.6976"/>
<polygon fill="#191970" stroke="#191970" points="1077.0001,-197.5249 1073.5,-187.5249 1070.0001,-197.5249 1077.0001,-197.5249"/>
</g>
<!-- Node32 -->
<g id="node33" class="node">
<title>Node32</title>
<g id="a_node33"><a xlink:href="tvcross_8h_source.html" target="_top" xlink:title="blitz/tvcross.h">
<polygon fill="#ffffff" stroke="#000000" points="1287.5,-224.5 1287.5,-243.5 1349.5,-243.5 1349.5,-224.5 1287.5,-224.5"/>
<text text-anchor="middle" x="1318.5" y="-231.5" font-family="Helvetica,sans-Serif" font-size="10.00" fill="#000000">blitz/tvcross.h</text>
</a>
</g>
</g>
<!-- Node30&#45;&gt;Node32 -->
<g id="edge47" class="edge">
<title>Node30&#45;&gt;Node32</title>
<path fill="none" stroke="#191970" d="M1108.7461,-282.3633C1147.6398,-273.8762 1212.3419,-259.5813 1277.104,-244.2942"/>
<polygon fill="#191970" stroke="#191970" points="1278.1505,-247.6433 1287.0747,-241.9327 1276.5372,-240.8317 1278.1505,-247.6433"/>
</g>
<!-- Node33 -->
<g id="node34" class="node">
<title>Node33</title>
<g id="a_node34"><a xlink:href="dot_8h_source.html" target="_top" xlink:title="blitz/meta/dot.h">
<polygon fill="#ffffff" stroke="#000000" points="1102,-224.5 1102,-243.5 1169,-243.5 1169,-224.5 1102,-224.5"/>
<text text-anchor="middle" x="1135.5" y="-231.5" font-family="Helvetica,sans-Serif" font-size="10.00" fill="#000000">blitz/meta/dot.h</text>
</a>
</g>
</g>
<!-- Node30&#45;&gt;Node33 -->
<g id="edge48" class="edge">
<title>Node30&#45;&gt;Node33</title>
<path fill="none" stroke="#191970" d="M1084.2996,-280.2455C1093.3678,-272.0549 1106.5206,-260.1749 1117.2245,-250.5069"/>
<polygon fill="#191970" stroke="#191970" points="1119.7491,-252.9429 1124.8242,-243.6427 1115.0571,-247.7482 1119.7491,-252.9429"/>
</g>
<!-- Node36 -->
<g id="node37" class="node">
<title>Node36</title>
<g id="a_node37"><a xlink:href="product_8h_source.html" target="_top" xlink:title="blitz/meta/product.h">
<polygon fill="#ffffff" stroke="#000000" points="1187.5,-224.5 1187.5,-243.5 1269.5,-243.5 1269.5,-224.5 1187.5,-224.5"/>
<text text-anchor="middle" x="1228.5" y="-231.5" font-family="Helvetica,sans-Serif" font-size="10.00" fill="#000000">blitz/meta/product.h</text>
</a>
</g>
</g>
<!-- Node30&#45;&gt;Node36 -->
<g id="edge53" class="edge">
<title>Node30&#45;&gt;Node36</title>
<path fill="none" stroke="#191970" d="M1100.1454,-280.3733C1125.6964,-271.1419 1164.4512,-257.1402 1192.6909,-246.9375"/>
<polygon fill="#191970" stroke="#191970" points="1193.9865,-250.1909 1202.2022,-243.5011 1191.6079,-243.6074 1193.9865,-250.1909"/>
</g>
<!-- Node37 -->
<g id="node38" class="node">
<title>Node37</title>
<g id="a_node38"><a xlink:href="sum_8h_source.html" target="_top" xlink:title="blitz/meta/sum.h">
<polygon fill="#ffffff" stroke="#000000" points="974,-224.5 974,-243.5 1045,-243.5 1045,-224.5 974,-224.5"/>
<text text-anchor="middle" x="1009.5" y="-231.5" font-family="Helvetica,sans-Serif" font-size="10.00" fill="#000000">blitz/meta/sum.h</text>
</a>
</g>
</g>
<!-- Node30&#45;&gt;Node37 -->
<g id="edge56" class="edge">
<title>Node30&#45;&gt;Node37</title>
<path fill="none" stroke="#191970" d="M1062.3521,-280.2455C1052.9913,-272.0549 1039.4142,-260.1749 1028.3651,-250.5069"/>
<polygon fill="#191970" stroke="#191970" points="1030.3508,-247.5937 1020.5202,-243.6427 1025.7412,-252.8618 1030.3508,-247.5937"/>
</g>
<!-- Node33&#45;&gt;Node31 -->
<g id="edge52" class="edge">
<title>Node33&#45;&gt;Node31</title>
<path fill="none" stroke="#191970" d="M1124.7004,-224.2455C1115.6322,-216.0549 1102.4794,-204.1749 1091.7755,-194.5069"/>
<polygon fill="#191970" stroke="#191970" points="1093.9429,-191.7482 1084.1758,-187.6427 1089.2509,-196.9429 1093.9429,-191.7482"/>
</g>
<!-- Node34 -->
<g id="node35" class="node">
<title>Node34</title>
<g id="a_node35"><a xlink:href="promote_8h_source.html" target="_top" xlink:title="blitz/promote.h">
<polygon fill="#ffffff" stroke="#000000" points="1136.5,-168.5 1136.5,-187.5 1202.5,-187.5 1202.5,-168.5 1136.5,-168.5"/>
<text text-anchor="middle" x="1169.5" y="-175.5" font-family="Helvetica,sans-Serif" font-size="10.00" fill="#000000">blitz/promote.h</text>
</a>
</g>
</g>
<!-- Node33&#45;&gt;Node34 -->
<g id="edge49" class="edge">
<title>Node33&#45;&gt;Node34</title>
<path fill="none" stroke="#191970" d="M1141.4223,-224.2455C1146.1027,-216.5367 1152.7673,-205.5598 1158.4289,-196.2348"/>
<polygon fill="#191970" stroke="#191970" points="1161.4475,-198.007 1163.6455,-187.6427 1155.4639,-194.3741 1161.4475,-198.007"/>
</g>
<!-- Node34&#45;&gt;Node4 -->
<g id="edge50" class="edge">
<title>Node34&#45;&gt;Node4</title>
<path fill="none" stroke="#191970" d="M1136.1291,-169.5162C1133.2226,-168.9411 1130.3167,-168.4232 1127.5,-168 994.936,-148.0828 577.5734,-128.9625 451.753,-123.529"/>
<polygon fill="#191970" stroke="#191970" points="451.6498,-120.0214 441.5089,-123.0891 451.3495,-127.0149 451.6498,-120.0214"/>
</g>
<!-- Node35 -->
<g id="node36" class="node">
<title>Node35</title>
<polygon fill="#ffffff" stroke="#bfbfbf" points="1130.5,-112.5 1130.5,-131.5 1208.5,-131.5 1208.5,-112.5 1130.5,-112.5"/>
<text text-anchor="middle" x="1169.5" y="-119.5" font-family="Helvetica,sans-Serif" font-size="10.00" fill="#000000">blitz/promote&#45;old.h</text>
</g>
<!-- Node34&#45;&gt;Node35 -->
<g id="edge51" class="edge">
<title>Node34&#45;&gt;Node35</title>
<path fill="none" stroke="#191970" d="M1169.5,-168.2455C1169.5,-160.9382 1169.5,-150.6944 1169.5,-141.7046"/>
<polygon fill="#191970" stroke="#191970" points="1173.0001,-141.6426 1169.5,-131.6427 1166.0001,-141.6427 1173.0001,-141.6426"/>
</g>
<!-- Node36&#45;&gt;Node31 -->
<g id="edge55" class="edge">
<title>Node36&#45;&gt;Node31</title>
<path fill="none" stroke="#191970" d="M1201.8546,-224.3733C1176.3036,-215.1419 1137.5488,-201.1402 1109.3091,-190.9375"/>
<polygon fill="#191970" stroke="#191970" points="1110.3921,-187.6074 1099.7978,-187.5011 1108.0135,-194.1909 1110.3921,-187.6074"/>
</g>
<!-- Node36&#45;&gt;Node34 -->
<g id="edge54" class="edge">
<title>Node36&#45;&gt;Node34</title>
<path fill="none" stroke="#191970" d="M1218.223,-224.2455C1209.6782,-216.1352 1197.3222,-204.4075 1187.1915,-194.7919"/>
<polygon fill="#191970" stroke="#191970" points="1189.3218,-191.9884 1179.6592,-187.6427 1184.5028,-197.0655 1189.3218,-191.9884"/>
</g>
<!-- Node37&#45;&gt;Node31 -->
<g id="edge57" class="edge">
<title>Node37&#45;&gt;Node31</title>
<path fill="none" stroke="#191970" d="M1020.6479,-224.2455C1030.0087,-216.0549 1043.5858,-204.1749 1054.6349,-194.5069"/>
<polygon fill="#191970" stroke="#191970" points="1057.2588,-196.8618 1062.4798,-187.6427 1052.6492,-191.5937 1057.2588,-196.8618"/>
</g>
<!-- Node38&#45;&gt;Node21 -->
<g id="edge61" class="edge">
<title>Node38&#45;&gt;Node21</title>
<path fill="none" stroke="#191970" d="M708.7967,-392.1941C706.4742,-364.3928 697.4041,-283.2405 667.5,-224 662.1213,-213.3447 653.7992,-203.0574 646.2217,-194.9232"/>
<polygon fill="#191970" stroke="#191970" points="648.5247,-192.2723 639.0291,-187.5729 643.5216,-197.1682 648.5247,-192.2723"/>
</g>
<!-- Node38&#45;&gt;Node25 -->
<g id="edge60" class="edge">
<title>Node38&#45;&gt;Node25</title>
<path fill="none" stroke="#191970" d="M692.8509,-392.4862C643.8468,-364.4839 499.879,-282.2166 441.0192,-248.5824"/>
<polygon fill="#191970" stroke="#191970" points="442.7498,-245.5402 432.3309,-243.6177 439.2768,-251.6179 442.7498,-245.5402"/>
</g>
<!-- Node38&#45;&gt;Node26 -->
<g id="edge59" class="edge">
<title>Node38&#45;&gt;Node26</title>
<path fill="none" stroke="#191970" d="M715.8362,-392.3432C727.0366,-374.769 750.2134,-336.0399 761.5,-300 766.2046,-284.9774 768.4507,-267.2698 769.5226,-253.9802"/>
<polygon fill="#191970" stroke="#191970" points="773.0401,-253.8228 770.1946,-243.6173 766.0547,-253.3698 773.0401,-253.8228"/>
</g>
<!-- Node38&#45;&gt;Node28 -->
<g id="edge66" class="edge">
<title>Node38&#45;&gt;Node28</title>
<path fill="none" stroke="#191970" d="M719.58,-392.3315C729.0428,-383.1594 743.4992,-368.8996 755.5,-356 808.6446,-298.875 868.1823,-227.9434 895.0127,-195.5787"/>
<polygon fill="#191970" stroke="#191970" points="897.7175,-197.7999 901.3941,-187.8635 892.3235,-193.3385 897.7175,-197.7999"/>
</g>
<!-- Node38&#45;&gt;Node39 -->
<g id="edge62" class="edge">
<title>Node38&#45;&gt;Node39</title>
<path fill="none" stroke="#191970" d="M673.9139,-397.0304C602.6847,-387.0832 442.3594,-364.6936 359.7907,-353.1628"/>
<polygon fill="#191970" stroke="#191970" points="360.0241,-349.6615 349.6361,-351.7447 359.0559,-356.5942 360.0241,-349.6615"/>
</g>
<!-- Node39&#45;&gt;Node4 -->
<g id="edge63" class="edge">
<title>Node39&#45;&gt;Node4</title>
<path fill="none" stroke="#191970" d="M307.394,-336.1456C306.4089,-326.8422 305.0422,-312.4936 304.5,-300 303.0073,-265.603 302.7402,-254.0748 319.5,-224 339.0424,-188.9321 373.3022,-156.6754 395.1711,-138.1873"/>
<polygon fill="#191970" stroke="#191970" points="397.6866,-140.6489 403.1616,-131.5783 393.2251,-135.2548 397.6866,-140.6489"/>
</g>
<!-- Node39&#45;&gt;Node20 -->
<g id="edge65" class="edge">
<title>Node39&#45;&gt;Node20</title>
<path fill="none" stroke="#191970" d="M349.5185,-338.2134C406.6008,-327.3775 509.2411,-307.8932 564.9658,-297.315"/>
<polygon fill="#191970" stroke="#191970" points="565.6315,-300.7512 574.8033,-295.4475 564.326,-293.874 565.6315,-300.7512"/>
</g>
<!-- Node39&#45;&gt;Node23 -->
<g id="edge64" class="edge">
<title>Node39&#45;&gt;Node23</title>
<path fill="none" stroke="#191970" d="M307.6686,-336.4685C306.2371,-313.5643 306.0367,-255.0358 337.5,-224 359.7417,-202.0605 443.7432,-188.9398 497.3662,-182.6234"/>
<polygon fill="#191970" stroke="#191970" points="497.7922,-186.0976 507.3309,-181.4864 496.9985,-179.1427 497.7922,-186.0976"/>
</g>
<!-- Node40&#45;&gt;Node4 -->
<g id="edge69" class="edge">
<title>Node40&#45;&gt;Node4</title>
<path fill="none" stroke="#191970" d="M368.1559,-394.5634C330.1888,-386.1155 274.0251,-371.4812 258.5,-356 236.7028,-334.2644 237.5,-320.7824 237.5,-290 237.5,-290 237.5,-290 237.5,-234 237.5,-167.5952 327.3434,-139.0142 379.3718,-128.0303"/>
<polygon fill="#191970" stroke="#191970" points="380.1137,-131.4513 389.2355,-126.0621 378.7439,-124.5867 380.1137,-131.4513"/>
</g>
<!-- Node40&#45;&gt;Node23 -->
<g id="edge71" class="edge">
<title>Node40&#45;&gt;Node23</title>
<path fill="none" stroke="#191970" d="M397.9669,-392.3119C379.3724,-363.4236 330.0377,-276.627 370.5,-224 385.9096,-203.9576 451.6068,-190.811 497.4493,-183.8903"/>
<polygon fill="#191970" stroke="#191970" points="498.0898,-187.334 507.4795,-182.4266 497.0789,-180.4074 498.0898,-187.334"/>
</g>
<!-- Node40&#45;&gt;Node25 -->
<g id="edge70" class="edge">
<title>Node40&#45;&gt;Node25</title>
<path fill="none" stroke="#191970" d="M405.1229,-392.4862C406.8618,-365.9293 411.7963,-290.5651 414.1796,-254.1655"/>
<polygon fill="#191970" stroke="#191970" points="417.6956,-254.0352 414.8565,-243.8279 410.7105,-253.5778 417.6956,-254.0352"/>
</g>
<!-- Node40&#45;&gt;Node26 -->
<g id="edge72" class="edge">
<title>Node40&#45;&gt;Node26</title>
<path fill="none" stroke="#191970" d="M428.2787,-392.3802C471.2392,-374.8648 564.4844,-336.2257 641.5,-300 677.3858,-283.1205 717.9913,-262.0027 743.8963,-248.2669"/>
<polygon fill="#191970" stroke="#191970" points="745.555,-251.349 752.7392,-243.5619 742.267,-245.1693 745.555,-251.349"/>
</g>
<!-- Node40&#45;&gt;Node39 -->
<g id="edge73" class="edge">
<title>Node40&#45;&gt;Node39</title>
<path fill="none" stroke="#191970" d="M387.7781,-392.2455C372.9111,-383.5731 350.9534,-370.7645 333.9142,-360.825"/>
<polygon fill="#191970" stroke="#191970" points="335.4317,-357.6582 325.0303,-355.6427 331.9045,-363.7047 335.4317,-357.6582"/>
</g>
</g>
</svg>
