<?xml version="1.0" encoding="UTF-8" standalone="no"?>
<!DOCTYPE svg PUBLIC "-//W3C//DTD SVG 1.1//EN"
 "http://www.w3.org/Graphics/SVG/1.1/DTD/svg11.dtd">
<!-- Generated by graphviz version 2.38.0 (20140413.2041)
 -->
<!-- Title: blitzdg::applyGivens Pages: 1 -->
<svg width="265pt" height="52pt"
 viewBox="0.00 0.00 265.00 51.50" xmlns="http://www.w3.org/2000/svg" xmlns:xlink="http://www.w3.org/1999/xlink">
<g id="graph0" class="graph" transform="scale(1 1) rotate(0) translate(4 47.5)">
<title>blitzdg::applyGivens</title>
<polygon fill="white" stroke="none" points="-4,4 -4,-47.5 261,-47.5 261,4 -4,4"/>
<!-- Node1 -->
<g id="node1" class="node"><title>Node1</title>
<polygon fill="#bfbfbf" stroke="black" points="0,-6 0,-25 105,-25 105,-6 0,-6"/>
<text text-anchor="middle" x="52.5" y="-13" font-family="Helvetica,sans-Serif" font-size="10.00">blitzdg::applyGivens</text>
</g>
<!-- Node1&#45;&gt;Node1 -->
<g id="edge2" class="edge"><title>Node1&#45;&gt;Node1</title>
<path fill="none" stroke="midnightblue" d="M25.2475,-34.1539C26.3867,-39.4368 35.4708,-43.5 52.5,-43.5 78.4492,-43.5 85.9502,-34.0653 75.0028,-25.2571"/>
<polygon fill="midnightblue" stroke="midnightblue" points="28.3752,-35.727 29.9972,-25.2571 22.2001,-32.4303 28.3752,-35.727"/>
</g>
<!-- Node2 -->
<g id="node2" class="node"><title>Node2</title>
<g id="a_node2"><a xlink:href="classblitzdg_1_1GMRESSolver.html#aabd205e2cc0fb1c969f1d5c7dbf272d4" target="_top" xlink:title="Calls GMRES to solves the linear system . ">
<polygon fill="white" stroke="black" points="141,-0.5 141,-30.5 257,-30.5 257,-0.5 141,-0.5"/>
<text text-anchor="start" x="149" y="-18.5" font-family="Helvetica,sans-Serif" font-size="10.00">blitzdg::GMRESSolver</text>
<text text-anchor="middle" x="199" y="-7.5" font-family="Helvetica,sans-Serif" font-size="10.00">::solve</text>
</a>
</g>
</g>
<!-- Node1&#45;&gt;Node2 -->
<g id="edge1" class="edge"><title>Node1&#45;&gt;Node2</title>
<path fill="none" stroke="midnightblue" d="M115.39,-15.5C123.798,-15.5 132.397,-15.5 140.72,-15.5"/>
<polygon fill="midnightblue" stroke="midnightblue" points="115.26,-12.0001 105.26,-15.5 115.26,-19.0001 115.26,-12.0001"/>
</g>
</g>
</svg>
