<?xml version="1.0" encoding="UTF-8" standalone="no"?>
<!DOCTYPE svg PUBLIC "-//W3C//DTD SVG 1.1//EN"
 "http://www.w3.org/Graphics/SVG/1.1/DTD/svg11.dtd">
<!-- Generated by graphviz version 2.38.0 (20140413.2041)
 -->
<!-- Title: blitzdg::DROTG Pages: 1 -->
<svg width="247pt" height="52pt"
 viewBox="0.00 0.00 247.00 51.50" xmlns="http://www.w3.org/2000/svg" xmlns:xlink="http://www.w3.org/1999/xlink">
<g id="graph0" class="graph" transform="scale(1 1) rotate(0) translate(4 47.5)">
<title>blitzdg::DROTG</title>
<polygon fill="white" stroke="none" points="-4,4 -4,-47.5 243,-47.5 243,4 -4,4"/>
<!-- Node1 -->
<g id="node1" class="node"><title>Node1</title>
<polygon fill="#bfbfbf" stroke="black" points="0,-6 0,-25 87,-25 87,-6 0,-6"/>
<text text-anchor="middle" x="43.5" y="-13" font-family="Helvetica,sans-Serif" font-size="10.00">blitzdg::DROTG</text>
</g>
<!-- Node1&#45;&gt;Node1 -->
<g id="edge2" class="edge"><title>Node1&#45;&gt;Node1</title>
<path fill="none" stroke="midnightblue" d="M18.2025,-34.5292C19.5824,-39.628 28.0149,-43.5 43.5,-43.5 67.6719,-43.5 74.6591,-34.0653 64.4615,-25.2571"/>
<polygon fill="midnightblue" stroke="midnightblue" points="21.4728,-35.7982 22.5385,-25.2571 15.1319,-32.8329 21.4728,-35.7982"/>
</g>
<!-- Node2 -->
<g id="node2" class="node"><title>Node2</title>
<g id="a_node2"><a xlink:href="classblitzdg_1_1GMRESSolver.html#aabd205e2cc0fb1c969f1d5c7dbf272d4" target="_top" xlink:title="Calls GMRES to solves the linear system . ">
<polygon fill="white" stroke="black" points="123,-0.5 123,-30.5 239,-30.5 239,-0.5 123,-0.5"/>
<text text-anchor="start" x="131" y="-18.5" font-family="Helvetica,sans-Serif" font-size="10.00">blitzdg::GMRESSolver</text>
<text text-anchor="middle" x="181" y="-7.5" font-family="Helvetica,sans-Serif" font-size="10.00">::solve</text>
</a>
</g>
</g>
<!-- Node1&#45;&gt;Node2 -->
<g id="edge1" class="edge"><title>Node1&#45;&gt;Node2</title>
<path fill="none" stroke="midnightblue" d="M97.066,-15.5C105.482,-15.5 114.227,-15.5 122.746,-15.5"/>
<polygon fill="midnightblue" stroke="midnightblue" points="97.0013,-12.0001 87.0013,-15.5 97.0012,-19.0001 97.0013,-12.0001"/>
</g>
</g>
</svg>
