<?xml version="1.0" encoding="UTF-8" standalone="no"?>
<!DOCTYPE svg PUBLIC "-//W3C//DTD SVG 1.1//EN"
 "http://www.w3.org/Graphics/SVG/1.1/DTD/svg11.dtd">
<!-- Generated by graphviz version 2.38.0 (20140413.2041)
 -->
<!-- Title: blitzdg::norm2 Pages: 1 -->
<svg width="238pt" height="52pt"
 viewBox="0.00 0.00 238.00 51.50" xmlns="http://www.w3.org/2000/svg" xmlns:xlink="http://www.w3.org/1999/xlink">
<g id="graph0" class="graph" transform="scale(1 1) rotate(0) translate(4 47.5)">
<title>blitzdg::norm2</title>
<polygon fill="white" stroke="none" points="-4,4 -4,-47.5 234,-47.5 234,4 -4,4"/>
<!-- Node1 -->
<g id="node1" class="node"><title>Node1</title>
<polygon fill="#bfbfbf" stroke="black" points="0,-6 0,-25 78,-25 78,-6 0,-6"/>
<text text-anchor="middle" x="39" y="-13" font-family="Helvetica,sans-Serif" font-size="10.00">blitzdg::norm2</text>
</g>
<!-- Node1&#45;&gt;Node1 -->
<g id="edge2" class="edge"><title>Node1&#45;&gt;Node1</title>
<path fill="none" stroke="midnightblue" d="M14.4465,-34.5292C15.7858,-39.628 23.9703,-43.5 39,-43.5 62.4609,-43.5 69.2426,-34.0653 59.345,-25.2571"/>
<polygon fill="midnightblue" stroke="midnightblue" points="17.709,-35.8096 18.655,-25.2571 11.3348,-32.9164 17.709,-35.8096"/>
</g>
<!-- Node2 -->
<g id="node2" class="node"><title>Node2</title>
<g id="a_node2"><a xlink:href="classblitzdg_1_1GMRESSolver.html#aabd205e2cc0fb1c969f1d5c7dbf272d4" target="_top" xlink:title="Calls GMRES to solves the linear system . ">
<polygon fill="white" stroke="black" points="114,-0.5 114,-30.5 230,-30.5 230,-0.5 114,-0.5"/>
<text text-anchor="start" x="122" y="-18.5" font-family="Helvetica,sans-Serif" font-size="10.00">blitzdg::GMRESSolver</text>
<text text-anchor="middle" x="172" y="-7.5" font-family="Helvetica,sans-Serif" font-size="10.00">::solve</text>
</a>
</g>
</g>
<!-- Node1&#45;&gt;Node2 -->
<g id="edge1" class="edge"><title>Node1&#45;&gt;Node2</title>
<path fill="none" stroke="midnightblue" d="M88.4941,-15.5C96.787,-15.5 105.471,-15.5 113.961,-15.5"/>
<polygon fill="midnightblue" stroke="midnightblue" points="88.2428,-12.0001 78.2428,-15.5 88.2427,-19.0001 88.2428,-12.0001"/>
</g>
</g>
</svg>
