<?xml version="1.0" encoding="UTF-8" standalone="no"?>
<!DOCTYPE svg PUBLIC "-//W3C//DTD SVG 1.1//EN"
 "http://www.w3.org/Graphics/SVG/1.1/DTD/svg11.dtd">
<!-- Generated by graphviz version 2.40.1 (20161225.0304)
 -->
<!-- Title: include/LUSolver.hpp Pages: 1 -->
<svg width="268pt" height="140pt"
 viewBox="0.00 0.00 267.50 140.00" xmlns="http://www.w3.org/2000/svg" xmlns:xlink="http://www.w3.org/1999/xlink">
<g id="graph0" class="graph" transform="scale(1 1) rotate(0) translate(4 136)">
<title>include/LUSolver.hpp</title>
<polygon fill="#ffffff" stroke="transparent" points="-4,4 -4,-136 263.5,-136 263.5,4 -4,4"/>
<!-- Node0 -->
<g id="node1" class="node">
<title>Node0</title>
<polygon fill="#bfbfbf" stroke="#000000" points="25.5,-112.5 25.5,-131.5 113.5,-131.5 113.5,-112.5 25.5,-112.5"/>
<text text-anchor="middle" x="69.5" y="-119.5" font-family="Helvetica,sans-Serif" font-size="10.00" fill="#000000">include/LUSolver.hpp</text>
</g>
<!-- Node1 -->
<g id="node2" class="node">
<title>Node1</title>
<polygon fill="#ffffff" stroke="#bfbfbf" points="0,-.5 0,-19.5 55,-19.5 55,-.5 0,-.5"/>
<text text-anchor="middle" x="27.5" y="-7.5" font-family="Helvetica,sans-Serif" font-size="10.00" fill="#000000">blitz/array.h</text>
</g>
<!-- Node0&#45;&gt;Node1 -->
<g id="edge1" class="edge">
<title>Node0&#45;&gt;Node1</title>
<path fill="none" stroke="#191970" d="M64.3388,-112.32C59.5726,-103.1397 52.496,-88.8744 47.5,-76 41.5442,-60.6524 36.2165,-42.7514 32.5604,-29.4674"/>
<polygon fill="#191970" stroke="#191970" points="35.8729,-28.3066 29.9053,-19.5523 29.1111,-30.1173 35.8729,-28.3066"/>
</g>
<!-- Node2 -->
<g id="node3" class="node">
<title>Node2</title>
<g id="a_node3"><a xlink:href="SparseMatrixConverter_8hpp_source.html" target="_top" xlink:title="SparseMatrixConverter.hpp">
<polygon fill="#ffffff" stroke="#000000" points="56.5,-56.5 56.5,-75.5 164.5,-75.5 164.5,-56.5 56.5,-56.5"/>
<text text-anchor="middle" x="110.5" y="-63.5" font-family="Helvetica,sans-Serif" font-size="10.00" fill="#000000">SparseMatrixConverter.hpp</text>
</a>
</g>
</g>
<!-- Node0&#45;&gt;Node2 -->
<g id="edge2" class="edge">
<title>Node0&#45;&gt;Node2</title>
<path fill="none" stroke="#191970" d="M76.6417,-112.2455C82.3444,-104.4564 90.49,-93.3308 97.3625,-83.9439"/>
<polygon fill="#191970" stroke="#191970" points="100.3568,-85.7789 103.4402,-75.6427 94.7087,-81.6437 100.3568,-85.7789"/>
</g>
<!-- Node2&#45;&gt;Node1 -->
<g id="edge3" class="edge">
<title>Node2&#45;&gt;Node1</title>
<path fill="none" stroke="#191970" d="M96.0425,-56.2455C83.4268,-47.7337 64.9056,-35.2375 50.2955,-25.3801"/>
<polygon fill="#191970" stroke="#191970" points="52.0391,-22.3343 41.7918,-19.6427 48.1239,-28.1371 52.0391,-22.3343"/>
</g>
<!-- Node3 -->
<g id="node4" class="node">
<title>Node3</title>
<g id="a_node4"><a xlink:href="SparseTriplet_8hpp_source.html" target="_top" xlink:title="SparseTriplet.hpp">
<polygon fill="#ffffff" stroke="#000000" points="73.5,-.5 73.5,-19.5 149.5,-19.5 149.5,-.5 73.5,-.5"/>
<text text-anchor="middle" x="111.5" y="-7.5" font-family="Helvetica,sans-Serif" font-size="10.00" fill="#000000">SparseTriplet.hpp</text>
</a>
</g>
</g>
<!-- Node2&#45;&gt;Node3 -->
<g id="edge4" class="edge">
<title>Node2&#45;&gt;Node3</title>
<path fill="none" stroke="#191970" d="M110.6742,-56.2455C110.8047,-48.9382 110.9876,-38.6944 111.1481,-29.7046"/>
<polygon fill="#191970" stroke="#191970" points="114.6486,-29.7036 111.3278,-19.6427 107.6497,-29.5786 114.6486,-29.7036"/>
</g>
<!-- Node4 -->
<g id="node5" class="node">
<title>Node4</title>
<polygon fill="#ffffff" stroke="#bfbfbf" points="167.5,-.5 167.5,-19.5 259.5,-19.5 259.5,-.5 167.5,-.5"/>
<text text-anchor="middle" x="213.5" y="-7.5" font-family="Helvetica,sans-Serif" font-size="10.00" fill="#000000">suitesparse/umfpack.h</text>
</g>
<!-- Node2&#45;&gt;Node4 -->
<g id="edge5" class="edge">
<title>Node2&#45;&gt;Node4</title>
<path fill="none" stroke="#191970" d="M128.4412,-56.2455C144.54,-47.4928 168.3879,-34.527 186.7391,-24.5496"/>
<polygon fill="#191970" stroke="#191970" points="188.6507,-27.4942 195.7644,-19.6427 185.3071,-21.3444 188.6507,-27.4942"/>
</g>
</g>
</svg>
