<?xml version="1.0" encoding="UTF-8" standalone="no"?>
<!DOCTYPE svg PUBLIC "-//W3C//DTD SVG 1.1//EN"
 "http://www.w3.org/Graphics/SVG/1.1/DTD/svg11.dtd">
<!-- Generated by graphviz version 2.38.0 (20140413.2041)
 -->
<!-- Title: include/Nodes1DProvisioner.hpp Pages: 1 -->
<svg width="410pt" height="196pt"
 viewBox="0.00 0.00 409.97 196.00" xmlns="http://www.w3.org/2000/svg" xmlns:xlink="http://www.w3.org/1999/xlink">
<g id="graph0" class="graph" transform="scale(1 1) rotate(0) translate(4 192)">
<title>include/Nodes1DProvisioner.hpp</title>
<polygon fill="white" stroke="none" points="-4,4 -4,-192 405.966,-192 405.966,4 -4,4"/>
<!-- Node1 -->
<g id="node1" class="node"><title>Node1</title>
<polygon fill="#bfbfbf" stroke="black" points="26.466,-168.5 26.466,-187.5 185.466,-187.5 185.466,-168.5 26.466,-168.5"/>
<text text-anchor="middle" x="105.966" y="-175.5" font-family="Helvetica,sans-Serif" font-size="10.00">include/Nodes1DProvisioner.hpp</text>
</g>
<!-- Node2 -->
<g id="node2" class="node"><title>Node2</title>
<polygon fill="white" stroke="#bfbfbf" points="71.966,-0.5 71.966,-19.5 139.966,-19.5 139.966,-0.5 71.966,-0.5"/>
<text text-anchor="middle" x="105.966" y="-7.5" font-family="Helvetica,sans-Serif" font-size="10.00">blitz/array.h</text>
</g>
<!-- Node1&#45;&gt;Node2 -->
<g id="edge1" class="edge"><title>Node1&#45;&gt;Node2</title>
<path fill="none" stroke="midnightblue" d="M89.0785,-168.429C53.7663,-149.339 -22.2759,-101.413 6.966,-56 19.1756,-37.0385 41.546,-25.9746 61.9364,-19.5665"/>
<polygon fill="midnightblue" stroke="midnightblue" points="63.0727,-22.8822 71.734,-16.7805 61.158,-16.1492 63.0727,-22.8822"/>
</g>
<!-- Node3 -->
<g id="node3" class="node"><title>Node3</title>
<g id="a_node3"><a xlink:href="SparseMatrixConverter_8hpp.html" target="_top" xlink:title="Defines the SparseMatrixConverter class converts between blitz++ 2D arrays, sparse triplets...">
<polygon fill="white" stroke="black" points="171.966,-56.5 171.966,-75.5 307.966,-75.5 307.966,-56.5 171.966,-56.5"/>
<text text-anchor="middle" x="239.966" y="-63.5" font-family="Helvetica,sans-Serif" font-size="10.00">SparseMatrixConverter.hpp</text>
</a>
</g>
</g>
<!-- Node1&#45;&gt;Node3 -->
<g id="edge2" class="edge"><title>Node1&#45;&gt;Node3</title>
<path fill="none" stroke="midnightblue" d="M161.81,-168.467C202.394,-160.991 252.334,-148.704 264.966,-132 275.958,-117.466 265.341,-97.5149 254.75,-83.5635"/>
<polygon fill="midnightblue" stroke="midnightblue" points="257.397,-81.2716 248.352,-75.7542 251.982,-85.7078 257.397,-81.2716"/>
</g>
<!-- Node6 -->
<g id="node6" class="node"><title>Node6</title>
<g id="a_node6"><a xlink:href="EigenSolver_8hpp.html" target="_top" xlink:title="Defines the EigenSolver class that implements LAPACK solution routine DSYEVD. ">
<polygon fill="white" stroke="black" points="61.966,-112.5 61.966,-131.5 149.966,-131.5 149.966,-112.5 61.966,-112.5"/>
<text text-anchor="middle" x="105.966" y="-119.5" font-family="Helvetica,sans-Serif" font-size="10.00">EigenSolver.hpp</text>
</a>
</g>
</g>
<!-- Node1&#45;&gt;Node6 -->
<g id="edge6" class="edge"><title>Node1&#45;&gt;Node6</title>
<path fill="none" stroke="midnightblue" d="M105.966,-168.083C105.966,-161.006 105.966,-150.861 105.966,-141.986"/>
<polygon fill="midnightblue" stroke="midnightblue" points="109.466,-141.751 105.966,-131.751 102.466,-141.751 109.466,-141.751"/>
</g>
<!-- Node7 -->
<g id="node7" class="node"><title>Node7</title>
<g id="a_node7"><a xlink:href="DirectSolver_8hpp.html" target="_top" xlink:title="Defines the DirectSolver class that implements LAPACK direct solution routine DSGESV. ">
<polygon fill="white" stroke="black" points="167.466,-112.5 167.466,-131.5 256.466,-131.5 256.466,-112.5 167.466,-112.5"/>
<text text-anchor="middle" x="211.966" y="-119.5" font-family="Helvetica,sans-Serif" font-size="10.00">DirectSolver.hpp</text>
</a>
</g>
</g>
<!-- Node1&#45;&gt;Node7 -->
<g id="edge9" class="edge"><title>Node1&#45;&gt;Node7</title>
<path fill="none" stroke="midnightblue" d="M122.997,-168.324C139.996,-159.664 166.342,-146.242 185.959,-136.249"/>
<polygon fill="midnightblue" stroke="midnightblue" points="187.656,-139.312 194.978,-131.655 184.478,-133.075 187.656,-139.312"/>
</g>
<!-- Node8 -->
<g id="node8" class="node"><title>Node8</title>
<g id="a_node8"><a xlink:href="Types_8hpp.html" target="_top" xlink:title="Defines the basic types used throughout this project. ">
<polygon fill="white" stroke="black" points="15.966,-56.5 15.966,-75.5 77.966,-75.5 77.966,-56.5 15.966,-56.5"/>
<text text-anchor="middle" x="46.966" y="-63.5" font-family="Helvetica,sans-Serif" font-size="10.00">Types.hpp</text>
</a>
</g>
</g>
<!-- Node1&#45;&gt;Node8 -->
<g id="edge12" class="edge"><title>Node1&#45;&gt;Node8</title>
<path fill="none" stroke="midnightblue" d="M90.2771,-168.351C77.8556,-160.584 61.2624,-147.957 52.966,-132 45.5329,-117.703 44.5059,-99.2359 45.0618,-85.6413"/>
<polygon fill="midnightblue" stroke="midnightblue" points="48.5598,-85.7942 45.7952,-75.5664 41.5783,-85.2859 48.5598,-85.7942"/>
</g>
<!-- Node3&#45;&gt;Node2 -->
<g id="edge3" class="edge"><title>Node3&#45;&gt;Node2</title>
<path fill="none" stroke="midnightblue" d="M218.733,-56.4435C196.582,-47.5171 161.647,-33.4387 136.53,-23.3168"/>
<polygon fill="midnightblue" stroke="midnightblue" points="137.683,-20.0079 127.099,-19.5164 135.066,-26.5006 137.683,-20.0079"/>
</g>
<!-- Node4 -->
<g id="node4" class="node"><title>Node4</title>
<g id="a_node4"><a xlink:href="SparseTriplet_8hpp.html" target="_top" xlink:title="Defines the SparseTriplet struct for storing sparse matrices in a conceptually simple way...">
<polygon fill="white" stroke="black" points="175.466,-0.5 175.466,-19.5 268.466,-19.5 268.466,-0.5 175.466,-0.5"/>
<text text-anchor="middle" x="221.966" y="-7.5" font-family="Helvetica,sans-Serif" font-size="10.00">SparseTriplet.hpp</text>
</a>
</g>
</g>
<!-- Node3&#45;&gt;Node4 -->
<g id="edge4" class="edge"><title>Node3&#45;&gt;Node4</title>
<path fill="none" stroke="midnightblue" d="M236.994,-56.083C234.582,-48.8486 231.102,-38.4087 228.098,-29.3968"/>
<polygon fill="midnightblue" stroke="midnightblue" points="231.366,-28.1311 224.883,-19.7511 224.725,-30.3447 231.366,-28.1311"/>
</g>
<!-- Node5 -->
<g id="node5" class="node"><title>Node5</title>
<polygon fill="white" stroke="#bfbfbf" points="285.966,-0.5 285.966,-19.5 401.966,-19.5 401.966,-0.5 285.966,-0.5"/>
<text text-anchor="middle" x="343.966" y="-7.5" font-family="Helvetica,sans-Serif" font-size="10.00">suitesparse/umfpack.h</text>
</g>
<!-- Node3&#45;&gt;Node5 -->
<g id="edge5" class="edge"><title>Node3&#45;&gt;Node5</title>
<path fill="none" stroke="midnightblue" d="M256.675,-56.324C273.278,-47.7034 298.968,-34.3643 318.186,-24.3855"/>
<polygon fill="midnightblue" stroke="midnightblue" points="320.036,-27.3689 327.298,-19.6545 316.81,-21.1565 320.036,-27.3689"/>
</g>
<!-- Node6&#45;&gt;Node2 -->
<g id="edge7" class="edge"><title>Node6&#45;&gt;Node2</title>
<path fill="none" stroke="midnightblue" d="M105.966,-112.368C105.966,-94.617 105.966,-53.6664 105.966,-29.5974"/>
<polygon fill="midnightblue" stroke="midnightblue" points="109.466,-29.5914 105.966,-19.5914 102.466,-29.5915 109.466,-29.5914"/>
</g>
<!-- Node6&#45;&gt;Node3 -->
<g id="edge8" class="edge"><title>Node6&#45;&gt;Node3</title>
<path fill="none" stroke="midnightblue" d="M127.199,-112.444C149.35,-103.517 184.285,-89.4387 209.402,-79.3168"/>
<polygon fill="midnightblue" stroke="midnightblue" points="210.866,-82.5006 218.833,-75.5164 208.249,-76.0079 210.866,-82.5006"/>
</g>
<!-- Node7&#45;&gt;Node2 -->
<g id="edge10" class="edge"><title>Node7&#45;&gt;Node2</title>
<path fill="none" stroke="midnightblue" d="M201.911,-112.337C191.794,-103.49 175.883,-89.2165 162.966,-76 147.476,-60.1504 130.892,-40.9603 119.629,-27.556"/>
<polygon fill="midnightblue" stroke="midnightblue" points="122.153,-25.1168 113.062,-19.6762 116.776,-29.5987 122.153,-25.1168"/>
</g>
<!-- Node7&#45;&gt;Node3 -->
<g id="edge11" class="edge"><title>Node7&#45;&gt;Node3</title>
<path fill="none" stroke="midnightblue" d="M216.59,-112.083C220.422,-104.691 225.99,-93.9533 230.731,-84.8111"/>
<polygon fill="midnightblue" stroke="midnightblue" points="233.932,-86.2398 235.428,-75.7511 227.718,-83.0175 233.932,-86.2398"/>
</g>
<!-- Node8&#45;&gt;Node2 -->
<g id="edge13" class="edge"><title>Node8&#45;&gt;Node2</title>
<path fill="none" stroke="midnightblue" d="M56.4454,-56.324C65.1671,-48.3414 78.3095,-36.3128 88.8638,-26.6529"/>
<polygon fill="midnightblue" stroke="midnightblue" points="91.3005,-29.1674 96.3142,-19.8339 86.5743,-24.0036 91.3005,-29.1674"/>
</g>
</g>
</svg>
