<?xml version="1.0" encoding="UTF-8" standalone="no"?>
<!DOCTYPE svg PUBLIC "-//W3C//DTD SVG 1.1//EN"
 "http://www.w3.org/Graphics/SVG/1.1/DTD/svg11.dtd">
<!-- Generated by graphviz version 2.38.0 (20140413.2041)
 -->
<!-- Title: include/SparseTriplet.hpp Pages: 1 -->
<svg width="438pt" height="196pt"
 viewBox="0.00 0.00 437.50 196.00" xmlns="http://www.w3.org/2000/svg" xmlns:xlink="http://www.w3.org/1999/xlink">
<g id="graph0" class="graph" transform="scale(1 1) rotate(0) translate(4 192)">
<title>include/SparseTriplet.hpp</title>
<polygon fill="white" stroke="none" points="-4,4 -4,-192 433.5,-192 433.5,4 -4,4"/>
<!-- Node1 -->
<g id="node1" class="node"><title>Node1</title>
<polygon fill="#bfbfbf" stroke="black" points="132,-168.5 132,-187.5 259,-187.5 259,-168.5 132,-168.5"/>
<text text-anchor="middle" x="195.5" y="-175.5" font-family="Helvetica,sans-Serif" font-size="10.00">include/SparseTriplet.hpp</text>
</g>
<!-- Node2 -->
<g id="node2" class="node"><title>Node2</title>
<g id="a_node2"><a xlink:href="SparseMatrixConverter_8hpp.html" target="_top" xlink:title="Defines the SparseMatrixConverter class converts between blitz++ 2D arrays, sparse triplets...">
<polygon fill="white" stroke="black" points="110.5,-112.5 110.5,-131.5 280.5,-131.5 280.5,-112.5 110.5,-112.5"/>
<text text-anchor="middle" x="195.5" y="-119.5" font-family="Helvetica,sans-Serif" font-size="10.00">include/SparseMatrixConverter.hpp</text>
</a>
</g>
</g>
<!-- Node1&#45;&gt;Node2 -->
<g id="edge1" class="edge"><title>Node1&#45;&gt;Node2</title>
<path fill="none" stroke="midnightblue" d="M195.5,-157.805C195.5,-148.91 195.5,-138.78 195.5,-131.751"/>
<polygon fill="midnightblue" stroke="midnightblue" points="192,-158.083 195.5,-168.083 199,-158.083 192,-158.083"/>
</g>
<!-- Node3 -->
<g id="node3" class="node"><title>Node3</title>
<g id="a_node3"><a xlink:href="DirectSolver_8hpp.html" target="_top" xlink:title="Defines the DirectSolver class that implements LAPACK direct solution routine DSGESV. ">
<polygon fill="white" stroke="black" points="0,-56.5 0,-75.5 123,-75.5 123,-56.5 0,-56.5"/>
<text text-anchor="middle" x="61.5" y="-63.5" font-family="Helvetica,sans-Serif" font-size="10.00">include/DirectSolver.hpp</text>
</a>
</g>
</g>
<!-- Node2&#45;&gt;Node3 -->
<g id="edge2" class="edge"><title>Node2&#45;&gt;Node3</title>
<path fill="none" stroke="midnightblue" d="M164.823,-108.638C139.677,-98.504 104.746,-84.4274 82.6334,-75.5164"/>
<polygon fill="midnightblue" stroke="midnightblue" points="163.684,-111.952 174.267,-112.444 166.3,-105.459 163.684,-111.952"/>
</g>
<!-- Node4 -->
<g id="node4" class="node"><title>Node4</title>
<g id="a_node4"><a xlink:href="Nodes1DProvisioner_8hpp.html" target="_top" xlink:title="Class for computations relating to construction of one&#45;dimensional nodes, operators, and geometric factors. ">
<polygon fill="white" stroke="black" points="72,-0.5 72,-19.5 231,-19.5 231,-0.5 72,-0.5"/>
<text text-anchor="middle" x="151.5" y="-7.5" font-family="Helvetica,sans-Serif" font-size="10.00">include/Nodes1DProvisioner.hpp</text>
</a>
</g>
</g>
<!-- Node2&#45;&gt;Node4 -->
<g id="edge7" class="edge"><title>Node2&#45;&gt;Node4</title>
<path fill="none" stroke="midnightblue" d="M184.708,-103.715C179.909,-95.5274 174.462,-85.4834 170.5,-76 162.342,-56.4731 156.263,-32.2709 153.372,-19.6218"/>
<polygon fill="midnightblue" stroke="midnightblue" points="181.746,-105.581 189.915,-112.328 187.737,-101.96 181.746,-105.581"/>
</g>
<!-- Node5 -->
<g id="node5" class="node"><title>Node5</title>
<g id="a_node5"><a xlink:href="EigenSolver_8hpp.html" target="_top" xlink:title="Defines the EigenSolver class that implements LAPACK solution routine DSYEVD. ">
<polygon fill="white" stroke="black" points="179.5,-56.5 179.5,-75.5 301.5,-75.5 301.5,-56.5 179.5,-56.5"/>
<text text-anchor="middle" x="240.5" y="-63.5" font-family="Helvetica,sans-Serif" font-size="10.00">include/EigenSolver.hpp</text>
</a>
</g>
</g>
<!-- Node2&#45;&gt;Node5 -->
<g id="edge4" class="edge"><title>Node2&#45;&gt;Node5</title>
<path fill="none" stroke="midnightblue" d="M209.547,-104.144C217.387,-94.7357 226.829,-83.4046 233.207,-75.7511"/>
<polygon fill="midnightblue" stroke="midnightblue" points="206.644,-102.16 202.931,-112.083 212.021,-106.641 206.644,-102.16"/>
</g>
<!-- Node6 -->
<g id="node6" class="node"><title>Node6</title>
<g id="a_node6"><a xlink:href="LUSolver_8hpp.html" target="_top" xlink:title="Defines the LUSolver class that implements UMFPACK LU factorization. ">
<polygon fill="white" stroke="black" points="319.5,-56.5 319.5,-75.5 429.5,-75.5 429.5,-56.5 319.5,-56.5"/>
<text text-anchor="middle" x="374.5" y="-63.5" font-family="Helvetica,sans-Serif" font-size="10.00">include/LUSolver.hpp</text>
</a>
</g>
</g>
<!-- Node2&#45;&gt;Node6 -->
<g id="edge6" class="edge"><title>Node2&#45;&gt;Node6</title>
<path fill="none" stroke="midnightblue" d="M233.831,-109.436C267.58,-99.2551 315.947,-84.664 346.27,-75.5164"/>
<polygon fill="midnightblue" stroke="midnightblue" points="232.426,-106.204 223.863,-112.444 234.448,-112.906 232.426,-106.204"/>
</g>
<!-- Node3&#45;&gt;Node4 -->
<g id="edge3" class="edge"><title>Node3&#45;&gt;Node4</title>
<path fill="none" stroke="midnightblue" d="M84.5377,-51.1774C101.099,-41.2407 122.918,-28.1492 137.076,-19.6545"/>
<polygon fill="midnightblue" stroke="midnightblue" points="82.7342,-48.1777 75.9601,-56.324 86.3358,-54.1802 82.7342,-48.1777"/>
</g>
<!-- Node5&#45;&gt;Node4 -->
<g id="edge5" class="edge"><title>Node5&#45;&gt;Node4</title>
<path fill="none" stroke="midnightblue" d="M217.262,-50.9005C200.942,-40.9986 179.635,-28.0705 165.764,-19.6545"/>
<polygon fill="midnightblue" stroke="midnightblue" points="215.836,-54.1289 226.201,-56.324 219.467,-48.1444 215.836,-54.1289"/>
</g>
</g>
</svg>
