<?xml version="1.0" encoding="UTF-8" standalone="no"?>
<!DOCTYPE svg PUBLIC "-//W3C//DTD SVG 1.1//EN"
 "http://www.w3.org/Graphics/SVG/1.1/DTD/svg11.dtd">
<!-- Generated by graphviz version 2.38.0 (20140413.2041)
 -->
<!-- Title: include/SparseMatrixConverter.hpp Pages: 1 -->
<svg width="321pt" height="84pt"
 viewBox="0.00 0.00 321.00 84.00" xmlns="http://www.w3.org/2000/svg" xmlns:xlink="http://www.w3.org/1999/xlink">
<g id="graph0" class="graph" transform="scale(1 1) rotate(0) translate(4 80)">
<title>include/SparseMatrixConverter.hpp</title>
<polygon fill="white" stroke="none" points="-4,4 -4,-80 317,-80 317,4 -4,4"/>
<!-- Node1 -->
<g id="node1" class="node"><title>Node1</title>
<polygon fill="#bfbfbf" stroke="black" points="48,-56.5 48,-75.5 218,-75.5 218,-56.5 48,-56.5"/>
<text text-anchor="middle" x="133" y="-63.5" font-family="Helvetica,sans-Serif" font-size="10.00">include/SparseMatrixConverter.hpp</text>
</g>
<!-- Node2 -->
<g id="node2" class="node"><title>Node2</title>
<polygon fill="white" stroke="#bfbfbf" points="0,-0.5 0,-19.5 68,-19.5 68,-0.5 0,-0.5"/>
<text text-anchor="middle" x="34" y="-7.5" font-family="Helvetica,sans-Serif" font-size="10.00">blitz/array.h</text>
</g>
<!-- Node1&#45;&gt;Node2 -->
<g id="edge1" class="edge"><title>Node1&#45;&gt;Node2</title>
<path fill="none" stroke="midnightblue" d="M117.094,-56.324C101.362,-47.7428 77.0577,-34.486 58.7911,-24.5224"/>
<polygon fill="midnightblue" stroke="midnightblue" points="60.3216,-21.3704 49.8666,-19.6545 56.9696,-27.5157 60.3216,-21.3704"/>
</g>
<!-- Node3 -->
<g id="node3" class="node"><title>Node3</title>
<g id="a_node3"><a xlink:href="SparseTriplet_8hpp.html" target="_top" xlink:title="Defines the SparseTriplet struct for storing sparse matrices in a conceptually simple way...">
<polygon fill="white" stroke="black" points="86.5,-0.5 86.5,-19.5 179.5,-19.5 179.5,-0.5 86.5,-0.5"/>
<text text-anchor="middle" x="133" y="-7.5" font-family="Helvetica,sans-Serif" font-size="10.00">SparseTriplet.hpp</text>
</a>
</g>
</g>
<!-- Node1&#45;&gt;Node3 -->
<g id="edge2" class="edge"><title>Node1&#45;&gt;Node3</title>
<path fill="none" stroke="midnightblue" d="M133,-56.083C133,-49.0059 133,-38.8611 133,-29.9865"/>
<polygon fill="midnightblue" stroke="midnightblue" points="136.5,-29.751 133,-19.7511 129.5,-29.7511 136.5,-29.751"/>
</g>
<!-- Node4 -->
<g id="node4" class="node"><title>Node4</title>
<polygon fill="white" stroke="#bfbfbf" points="197,-0.5 197,-19.5 313,-19.5 313,-0.5 197,-0.5"/>
<text text-anchor="middle" x="255" y="-7.5" font-family="Helvetica,sans-Serif" font-size="10.00">suitesparse/umfpack.h</text>
</g>
<!-- Node1&#45;&gt;Node4 -->
<g id="edge3" class="edge"><title>Node1&#45;&gt;Node4</title>
<path fill="none" stroke="midnightblue" d="M152.331,-56.4435C172.32,-47.5961 203.743,-33.6875 226.564,-23.5865"/>
<polygon fill="midnightblue" stroke="midnightblue" points="228.032,-26.7645 235.759,-19.5164 225.198,-20.3635 228.032,-26.7645"/>
</g>
</g>
</svg>
