<?xml version="1.0" encoding="UTF-8" standalone="no"?>
<!DOCTYPE svg PUBLIC "-//W3C//DTD SVG 1.1//EN"
 "http://www.w3.org/Graphics/SVG/1.1/DTD/svg11.dtd">
<!-- Generated by graphviz version 2.40.1 (20161225.0304)
 -->
<!-- Title: GB_Vector_opaque Pages: 1 -->
<svg width="158pt" height="184pt"
 viewBox="0.00 0.00 157.50 184.00" xmlns="http://www.w3.org/2000/svg" xmlns:xlink="http://www.w3.org/1999/xlink">
<g id="graph0" class="graph" transform="scale(1 1) rotate(0) translate(4 180)">
<title>GB_Vector_opaque</title>
<polygon fill="#ffffff" stroke="transparent" points="-4,4 -4,-180 153.5,-180 153.5,4 -4,4"/>
<!-- Node1 -->
<g id="node1" class="node">
<title>Node1</title>
<polygon fill="#bfbfbf" stroke="#000000" points="9.5,-.5 9.5,-19.5 91.5,-19.5 91.5,-.5 9.5,-.5"/>
<text text-anchor="middle" x="50.5" y="-7.5" font-family="Helvetica,sans-Serif" font-size="10.00" fill="#000000">GB_Vector_opaque</text>
</g>
<!-- Node2 -->
<g id="node2" class="node">
<title>Node2</title>
<g id="a_node2"><a xlink:href="structGB__BinaryOp__opaque.html" target="_top" xlink:title="GB_BinaryOp_opaque">
<polygon fill="#ffffff" stroke="#000000" points="57.5,-67.5 57.5,-86.5 149.5,-86.5 149.5,-67.5 57.5,-67.5"/>
<text text-anchor="middle" x="103.5" y="-74.5" font-family="Helvetica,sans-Serif" font-size="10.00" fill="#000000">GB_BinaryOp_opaque</text>
</a>
</g>
</g>
<!-- Node2&#45;&gt;Node1 -->
<g id="edge1" class="edge">
<title>Node2&#45;&gt;Node1</title>
<path fill="none" stroke="#9a32cd" stroke-dasharray="5,2" d="M89.537,-59.3486C79.4676,-46.6194 66.2599,-29.9229 58.0795,-19.5817"/>
<polygon fill="#9a32cd" stroke="#9a32cd" points="86.9573,-61.7291 95.9064,-67.4005 92.4473,-57.3863 86.9573,-61.7291"/>
<text text-anchor="middle" x="110" y="-41" font-family="Helvetica,sans-Serif" font-size="10.00" fill="#000000"> operator_pending</text>
</g>
<!-- Node3 -->
<g id="node3" class="node">
<title>Node3</title>
<g id="a_node3"><a xlink:href="structGB__Type__opaque.html" target="_top" xlink:title="GB_Type_opaque">
<polygon fill="#ffffff" stroke="#000000" points="0,-156.5 0,-175.5 77,-175.5 77,-156.5 0,-156.5"/>
<text text-anchor="middle" x="38.5" y="-163.5" font-family="Helvetica,sans-Serif" font-size="10.00" fill="#000000">GB_Type_opaque</text>
</a>
</g>
</g>
<!-- Node3&#45;&gt;Node1 -->
<g id="edge3" class="edge">
<title>Node3&#45;&gt;Node1</title>
<path fill="none" stroke="#9a32cd" stroke-dasharray="5,2" d="M34.4491,-146.3103C30.9421,-126.2448 27.0727,-94.2824 31.5,-67 34.2737,-49.9079 41.4392,-31.0153 46.1346,-19.8439"/>
<polygon fill="#9a32cd" stroke="#9a32cd" points="31.0558,-147.2028 36.3558,-156.3767 37.9335,-145.9 31.0558,-147.2028"/>
<text text-anchor="middle" x="40" y="-74.5" font-family="Helvetica,sans-Serif" font-size="10.00" fill="#000000"> type</text>
</g>
<!-- Node3&#45;&gt;Node2 -->
<g id="edge2" class="edge">
<title>Node3&#45;&gt;Node2</title>
<path fill="none" stroke="#9a32cd" stroke-dasharray="5,2" d="M51.4325,-148.2924C64.9334,-129.8065 85.6111,-101.494 96.3968,-86.7259"/>
<polygon fill="#9a32cd" stroke="#9a32cd" points="48.5276,-146.3356 45.4561,-156.4754 54.1805,-150.4641 48.5276,-146.3356"/>
<text text-anchor="middle" x="92" y="-130" font-family="Helvetica,sans-Serif" font-size="10.00" fill="#000000"> xtype</text>
<text text-anchor="middle" x="92" y="-119" font-family="Helvetica,sans-Serif" font-size="10.00" fill="#000000">ytype</text>
<text text-anchor="middle" x="92" y="-108" font-family="Helvetica,sans-Serif" font-size="10.00" fill="#000000">ztype</text>
</g>
</g>
</svg>
