<?xml version="1.0" encoding="UTF-8" standalone="no"?>
<!DOCTYPE svg PUBLIC "-//W3C//DTD SVG 1.1//EN"
 "http://www.w3.org/Graphics/SVG/1.1/DTD/svg11.dtd">
<!-- Generated by graphviz version 2.40.1 (20161225.0304)
 -->
<!-- Title: SuiteSparseQR_factorization&lt; Entry &gt; Pages: 1 -->
<svg width="121pt" height="173pt"
 viewBox="0.00 0.00 121.00 173.00" xmlns="http://www.w3.org/2000/svg" xmlns:xlink="http://www.w3.org/1999/xlink">
<g id="graph0" class="graph" transform="scale(1 1) rotate(0) translate(4 169)">
<title>SuiteSparseQR_factorization&lt; Entry &gt;</title>
<polygon fill="#ffffff" stroke="transparent" points="-4,4 -4,-169 117,-169 117,4 -4,4"/>
<!-- Node1 -->
<g id="node1" class="node">
<title>Node1</title>
<polygon fill="#bfbfbf" stroke="#000000" points="0,-.5 0,-30.5 113,-30.5 113,-.5 0,-.5"/>
<text text-anchor="start" x="8" y="-18.5" font-family="Helvetica,sans-Serif" font-size="10.00" fill="#000000">SuiteSparseQR_factorization</text>
<text text-anchor="middle" x="56.5" y="-7.5" font-family="Helvetica,sans-Serif" font-size="10.00" fill="#000000">&lt; Entry &gt;</text>
</g>
<!-- Node2 -->
<g id="node2" class="node">
<title>Node2</title>
<g id="a_node2"><a xlink:href="structspqr__symbolic.html" target="_top" xlink:title="spqr_symbolic">
<polygon fill="#ffffff" stroke="#000000" points="24.5,-78.5 24.5,-97.5 88.5,-97.5 88.5,-78.5 24.5,-78.5"/>
<text text-anchor="middle" x="56.5" y="-85.5" font-family="Helvetica,sans-Serif" font-size="10.00" fill="#000000">spqr_symbolic</text>
</a>
</g>
</g>
<!-- Node2&#45;&gt;Node1 -->
<g id="edge1" class="edge">
<title>Node2&#45;&gt;Node1</title>
<path fill="none" stroke="#9a32cd" stroke-dasharray="5,2" d="M56.5,-68.0177C56.5,-56.2164 56.5,-41.513 56.5,-30.668"/>
<polygon fill="#9a32cd" stroke="#9a32cd" points="53.0001,-68.2223 56.5,-78.2223 60.0001,-68.2224 53.0001,-68.2223"/>
<text text-anchor="middle" x="70.5" y="-52" font-family="Helvetica,sans-Serif" font-size="10.00" fill="#000000"> QRsym</text>
</g>
<!-- Node3 -->
<g id="node3" class="node">
<title>Node3</title>
<g id="a_node3"><a xlink:href="structspqr__gpu.html" target="_top" xlink:title="spqr_gpu">
<polygon fill="#ffffff" stroke="#000000" points="32.5,-145.5 32.5,-164.5 80.5,-164.5 80.5,-145.5 32.5,-145.5"/>
<text text-anchor="middle" x="56.5" y="-152.5" font-family="Helvetica,sans-Serif" font-size="10.00" fill="#000000">spqr_gpu</text>
</a>
</g>
</g>
<!-- Node3&#45;&gt;Node2 -->
<g id="edge2" class="edge">
<title>Node3&#45;&gt;Node2</title>
<path fill="none" stroke="#9a32cd" stroke-dasharray="5,2" d="M56.5,-135.1079C56.5,-122.714 56.5,-107.3263 56.5,-97.5817"/>
<polygon fill="#9a32cd" stroke="#9a32cd" points="53.0001,-135.4005 56.5,-145.4005 60.0001,-135.4006 53.0001,-135.4005"/>
<text text-anchor="middle" x="69.5" y="-119" font-family="Helvetica,sans-Serif" font-size="10.00" fill="#000000"> QRgpu</text>
</g>
</g>
</svg>
