<?xml version="1.0" encoding="UTF-8" standalone="no"?>
<!DOCTYPE svg PUBLIC "-//W3C//DTD SVG 1.1//EN"
 "http://www.w3.org/Graphics/SVG/1.1/DTD/svg11.dtd">
<!-- Generated by graphviz version 2.40.1 (20161225.0304)
 -->
<!-- Title: cs_cl_numeric Pages: 1 -->
<svg width="72pt" height="106pt"
 viewBox="0.00 0.00 72.00 106.00" xmlns="http://www.w3.org/2000/svg" xmlns:xlink="http://www.w3.org/1999/xlink">
<g id="graph0" class="graph" transform="scale(1 1) rotate(0) translate(4 102)">
<title>cs_cl_numeric</title>
<polygon fill="#ffffff" stroke="transparent" points="-4,4 -4,-102 68,-102 68,4 -4,4"/>
<!-- Node1 -->
<g id="node1" class="node">
<title>Node1</title>
<polygon fill="#bfbfbf" stroke="#000000" points="0,-.5 0,-19.5 64,-19.5 64,-.5 0,-.5"/>
<text text-anchor="middle" x="32" y="-7.5" font-family="Helvetica,sans-Serif" font-size="10.00" fill="#000000">cs_cl_numeric</text>
</g>
<!-- Node2 -->
<g id="node2" class="node">
<title>Node2</title>
<g id="a_node2"><a xlink:href="structcs__cl__sparse.html" target="_top" xlink:title="cs_cl_sparse">
<polygon fill="#ffffff" stroke="#000000" points="2,-78.5 2,-97.5 62,-97.5 62,-78.5 2,-78.5"/>
<text text-anchor="middle" x="32" y="-85.5" font-family="Helvetica,sans-Serif" font-size="10.00" fill="#000000">cs_cl_sparse</text>
</a>
</g>
</g>
<!-- Node2&#45;&gt;Node1 -->
<g id="edge1" class="edge">
<title>Node2&#45;&gt;Node1</title>
<path fill="none" stroke="#9a32cd" stroke-dasharray="5,2" d="M32,-68.2866C32,-52.7395 32,-31.7276 32,-19.6426"/>
<polygon fill="#9a32cd" stroke="#9a32cd" points="28.5001,-68.4356 32,-78.4357 35.5001,-68.4357 28.5001,-68.4356"/>
<text text-anchor="middle" x="36" y="-52" font-family="Helvetica,sans-Serif" font-size="10.00" fill="#000000"> U</text>
<text text-anchor="middle" x="36" y="-41" font-family="Helvetica,sans-Serif" font-size="10.00" fill="#000000">L</text>
</g>
</g>
</svg>
