<?xml version="1.0" encoding="UTF-8" standalone="no"?>
<!DOCTYPE svg PUBLIC "-//W3C//DTD SVG 1.1//EN"
 "http://www.w3.org/Graphics/SVG/1.1/DTD/svg11.dtd">
<!-- Generated by graphviz version 2.38.0 (20140413.2041)
 -->
<!-- Title: snowhouse::IsLessThanConstraint&lt; ExpectedType &gt; Pages: 1 -->
<svg width="176pt" height="117pt"
 viewBox="0.00 0.00 176.00 117.00" xmlns="http://www.w3.org/2000/svg" xmlns:xlink="http://www.w3.org/1999/xlink">
<g id="graph0" class="graph" transform="scale(1 1) rotate(0) translate(4 113)">
<title>snowhouse::IsLessThanConstraint&lt; ExpectedType &gt;</title>
<polygon fill="white" stroke="none" points="-4,4 -4,-113 172,-113 172,4 -4,4"/>
<!-- Node1 -->
<g id="node1" class="node"><title>Node1</title>
<polygon fill="#bfbfbf" stroke="black" points="-1.42109e-14,-0.5 -1.42109e-14,-30.5 168,-30.5 168,-0.5 -1.42109e-14,-0.5"/>
<text text-anchor="start" x="8" y="-18.5" font-family="Helvetica,sans-Serif" font-size="10.00">snowhouse::IsLessThanConstraint</text>
<text text-anchor="middle" x="84" y="-7.5" font-family="Helvetica,sans-Serif" font-size="10.00">&lt; ExpectedType &gt;</text>
</g>
<!-- Node2 -->
<g id="node2" class="node"><title>Node2</title>
<g id="a_node2"><a xlink:href="structsnowhouse_1_1Expression.html" target="_top" xlink:title="snowhouse::Expression\l\&lt; IsLessThanConstraint\l\&lt; ExpectedType \&gt; \&gt;">
<polygon fill="white" stroke="black" points="23,-67.5 23,-108.5 145,-108.5 145,-67.5 23,-67.5"/>
<text text-anchor="start" x="31" y="-96.5" font-family="Helvetica,sans-Serif" font-size="10.00">snowhouse::Expression</text>
<text text-anchor="start" x="31" y="-85.5" font-family="Helvetica,sans-Serif" font-size="10.00">&lt; IsLessThanConstraint</text>
<text text-anchor="middle" x="84" y="-74.5" font-family="Helvetica,sans-Serif" font-size="10.00">&lt; ExpectedType &gt; &gt;</text>
</a>
</g>
</g>
<!-- Node2&#45;&gt;Node1 -->
<g id="edge1" class="edge"><title>Node2&#45;&gt;Node1</title>
<path fill="none" stroke="midnightblue" d="M84,-57.08C84,-48.0061 84,-38.4498 84,-30.8916"/>
<polygon fill="midnightblue" stroke="midnightblue" points="80.5001,-57.3618 84,-67.3618 87.5001,-57.3619 80.5001,-57.3618"/>
</g>
</g>
</svg>
