<?xml version="1.0" encoding="UTF-8" standalone="no"?>
<!DOCTYPE svg PUBLIC "-//W3C//DTD SVG 1.1//EN"
 "http://www.w3.org/Graphics/SVG/1.1/DTD/svg11.dtd">
<!-- Generated by graphviz version 2.40.1 (20161225.0304)
 -->
<!-- Title: GB_BinaryOp_opaque Pages: 1 -->
<svg width="100pt" height="117pt"
 viewBox="0.00 0.00 100.00 117.00" xmlns="http://www.w3.org/2000/svg" xmlns:xlink="http://www.w3.org/1999/xlink">
<g id="graph0" class="graph" transform="scale(1 1) rotate(0) translate(4 113)">
<title>GB_BinaryOp_opaque</title>
<polygon fill="#ffffff" stroke="transparent" points="-4,4 -4,-113 96,-113 96,4 -4,4"/>
<!-- Node1 -->
<g id="node1" class="node">
<title>Node1</title>
<polygon fill="#bfbfbf" stroke="#000000" points="0,-.5 0,-19.5 92,-19.5 92,-.5 0,-.5"/>
<text text-anchor="middle" x="46" y="-7.5" font-family="Helvetica,sans-Serif" font-size="10.00" fill="#000000">GB_BinaryOp_opaque</text>
</g>
<!-- Node2 -->
<g id="node2" class="node">
<title>Node2</title>
<g id="a_node2"><a xlink:href="structGB__Type__opaque.html" target="_top" xlink:title="GB_Type_opaque">
<polygon fill="#ffffff" stroke="#000000" points="7.5,-89.5 7.5,-108.5 84.5,-108.5 84.5,-89.5 7.5,-89.5"/>
<text text-anchor="middle" x="46" y="-96.5" font-family="Helvetica,sans-Serif" font-size="10.00" fill="#000000">GB_Type_opaque</text>
</a>
</g>
</g>
<!-- Node2&#45;&gt;Node1 -->
<g id="edge1" class="edge">
<title>Node2&#45;&gt;Node1</title>
<path fill="none" stroke="#9a32cd" stroke-dasharray="5,2" d="M46,-79.2379C46,-60.7654 46,-33.957 46,-19.7259"/>
<polygon fill="#9a32cd" stroke="#9a32cd" points="42.5001,-79.4754 46,-89.4754 49.5001,-79.4755 42.5001,-79.4754"/>
<text text-anchor="middle" x="56.5" y="-63" font-family="Helvetica,sans-Serif" font-size="10.00" fill="#000000"> xtype</text>
<text text-anchor="middle" x="56.5" y="-52" font-family="Helvetica,sans-Serif" font-size="10.00" fill="#000000">ytype</text>
<text text-anchor="middle" x="56.5" y="-41" font-family="Helvetica,sans-Serif" font-size="10.00" fill="#000000">ztype</text>
</g>
</g>
</svg>
