<?xml version="1.0" encoding="UTF-8" standalone="no"?>
<!DOCTYPE svg PUBLIC "-//W3C//DTD SVG 1.1//EN"
 "http://www.w3.org/Graphics/SVG/1.1/DTD/svg11.dtd">
<!-- Generated by graphviz version 2.38.0 (20140413.2041)
 -->
<!-- Title: snowhouse::EqualsWithDeltaConstraint&lt; ExpectedType, DeltaType &gt; Pages: 1 -->
<svg width="166pt" height="128pt"
 viewBox="0.00 0.00 166.00 128.00" xmlns="http://www.w3.org/2000/svg" xmlns:xlink="http://www.w3.org/1999/xlink">
<g id="graph0" class="graph" transform="scale(1 1) rotate(0) translate(4 124)">
<title>snowhouse::EqualsWithDeltaConstraint&lt; ExpectedType, DeltaType &gt;</title>
<polygon fill="white" stroke="none" points="-4,4 -4,-124 162,-124 162,4 -4,4"/>
<!-- Node1 -->
<g id="node1" class="node"><title>Node1</title>
<polygon fill="#bfbfbf" stroke="black" points="6,-0.5 6,-41.5 152,-41.5 152,-0.5 6,-0.5"/>
<text text-anchor="start" x="14" y="-29.5" font-family="Helvetica,sans-Serif" font-size="10.00">snowhouse::EqualsWithDelta</text>
<text text-anchor="start" x="14" y="-18.5" font-family="Helvetica,sans-Serif" font-size="10.00">Constraint&lt; ExpectedType,</text>
<text text-anchor="middle" x="79" y="-7.5" font-family="Helvetica,sans-Serif" font-size="10.00"> DeltaType &gt;</text>
</g>
<!-- Node2 -->
<g id="node2" class="node"><title>Node2</title>
<g id="a_node2"><a xlink:href="structsnowhouse_1_1Expression.html" target="_top" xlink:title="snowhouse::Expression\l\&lt; EqualsWithDeltaConstraint\l\&lt; ExpectedType, DeltaType \&gt; \&gt;">
<polygon fill="white" stroke="black" points="-1.42109e-14,-78.5 -1.42109e-14,-119.5 158,-119.5 158,-78.5 -1.42109e-14,-78.5"/>
<text text-anchor="start" x="8" y="-107.5" font-family="Helvetica,sans-Serif" font-size="10.00">snowhouse::Expression</text>
<text text-anchor="start" x="8" y="-96.5" font-family="Helvetica,sans-Serif" font-size="10.00">&lt; EqualsWithDeltaConstraint</text>
<text text-anchor="middle" x="79" y="-85.5" font-family="Helvetica,sans-Serif" font-size="10.00">&lt; ExpectedType, DeltaType &gt; &gt;</text>
</a>
</g>
</g>
<!-- Node2&#45;&gt;Node1 -->
<g id="edge1" class="edge"><title>Node2&#45;&gt;Node1</title>
<path fill="none" stroke="midnightblue" d="M79,-68.2965C79,-59.3009 79,-49.6532 79,-41.5056"/>
<polygon fill="midnightblue" stroke="midnightblue" points="75.5001,-68.4281 79,-78.4281 82.5001,-68.4281 75.5001,-68.4281"/>
</g>
</g>
</svg>
