<?xml version="1.0" encoding="UTF-8" standalone="no"?>
<!DOCTYPE svg PUBLIC "-//W3C//DTD SVG 1.1//EN"
 "http://www.w3.org/Graphics/SVG/1.1/DTD/svg11.dtd">
<!-- Generated by graphviz version 2.40.1 (20161225.0304)
 -->
<!-- Title: GB_UnaryOp_opaque Pages: 1 -->
<svg width="99pt" height="106pt"
 viewBox="0.00 0.00 99.00 106.00" xmlns="http://www.w3.org/2000/svg" xmlns:xlink="http://www.w3.org/1999/xlink">
<g id="graph0" class="graph" transform="scale(1 1) rotate(0) translate(4 102)">
<title>GB_UnaryOp_opaque</title>
<polygon fill="#ffffff" stroke="transparent" points="-4,4 -4,-102 95,-102 95,4 -4,4"/>
<!-- Node1 -->
<g id="node1" class="node">
<title>Node1</title>
<polygon fill="#bfbfbf" stroke="#000000" points="0,-.5 0,-19.5 91,-19.5 91,-.5 0,-.5"/>
<text text-anchor="middle" x="45.5" y="-7.5" font-family="Helvetica,sans-Serif" font-size="10.00" fill="#000000">GB_UnaryOp_opaque</text>
</g>
<!-- Node2 -->
<g id="node2" class="node">
<title>Node2</title>
<g id="a_node2"><a xlink:href="structGB__Type__opaque.html" target="_top" xlink:title="GB_Type_opaque">
<polygon fill="#ffffff" stroke="#000000" points="7,-78.5 7,-97.5 84,-97.5 84,-78.5 7,-78.5"/>
<text text-anchor="middle" x="45.5" y="-85.5" font-family="Helvetica,sans-Serif" font-size="10.00" fill="#000000">GB_Type_opaque</text>
</a>
</g>
</g>
<!-- Node2&#45;&gt;Node1 -->
<g id="edge1" class="edge">
<title>Node2&#45;&gt;Node1</title>
<path fill="none" stroke="#9a32cd" stroke-dasharray="5,2" d="M45.5,-68.2866C45.5,-52.7395 45.5,-31.7276 45.5,-19.6426"/>
<polygon fill="#9a32cd" stroke="#9a32cd" points="42.0001,-68.4356 45.5,-78.4357 49.0001,-68.4357 42.0001,-68.4356"/>
<text text-anchor="middle" x="56" y="-52" font-family="Helvetica,sans-Serif" font-size="10.00" fill="#000000"> xtype</text>
<text text-anchor="middle" x="56" y="-41" font-family="Helvetica,sans-Serif" font-size="10.00" fill="#000000">ztype</text>
</g>
</g>
</svg>
