<?xml version="1.0" encoding="UTF-8" standalone="no"?>
<!DOCTYPE svg PUBLIC "-//W3C//DTD SVG 1.1//EN"
 "http://www.w3.org/Graphics/SVG/1.1/DTD/svg11.dtd">
<!-- Generated by graphviz version 2.38.0 (20140413.2041)
 -->
<!-- Title: igloo::ContextProvider&lt; InnerContext, OuterContext, RootContext, ISONLY, ISSKIP &gt; Pages: 1 -->
<svg width="174pt" height="251pt"
 viewBox="0.00 0.00 174.00 251.00" xmlns="http://www.w3.org/2000/svg" xmlns:xlink="http://www.w3.org/1999/xlink">
<g id="graph0" class="graph" transform="scale(1 1) rotate(0) translate(4 247)">
<title>igloo::ContextProvider&lt; InnerContext, OuterContext, RootContext, ISONLY, ISSKIP &gt;</title>
<polygon fill="white" stroke="none" points="-4,4 -4,-247 170,-247 170,4 -4,4"/>
<!-- Node1 -->
<g id="node1" class="node"><title>Node1</title>
<polygon fill="#bfbfbf" stroke="black" points="0,-0.5 0,-41.5 166,-41.5 166,-0.5 0,-0.5"/>
<text text-anchor="start" x="8" y="-29.5" font-family="Helvetica,sans-Serif" font-size="10.00">igloo::ContextProvider</text>
<text text-anchor="start" x="8" y="-18.5" font-family="Helvetica,sans-Serif" font-size="10.00">&lt; InnerContext, OuterContext,</text>
<text text-anchor="middle" x="83" y="-7.5" font-family="Helvetica,sans-Serif" font-size="10.00"> RootContext, ISONLY, ISSKIP &gt;</text>
</g>
<!-- Node2 -->
<g id="node2" class="node"><title>Node2</title>
<g id="a_node2"><a xlink:href="structigloo_1_1NestedContextProvider.html" target="_top" xlink:title="igloo::NestedContextProvider\l\&lt; InnerContext, OuterContext,\l ISONLY, ISSKIP \&gt;">
<polygon fill="white" stroke="black" points="8.5,-78.5 8.5,-119.5 157.5,-119.5 157.5,-78.5 8.5,-78.5"/>
<text text-anchor="start" x="16.5" y="-107.5" font-family="Helvetica,sans-Serif" font-size="10.00">igloo::NestedContextProvider</text>
<text text-anchor="start" x="16.5" y="-96.5" font-family="Helvetica,sans-Serif" font-size="10.00">&lt; InnerContext, OuterContext,</text>
<text text-anchor="middle" x="83" y="-85.5" font-family="Helvetica,sans-Serif" font-size="10.00"> ISONLY, ISSKIP &gt;</text>
</a>
</g>
</g>
<!-- Node2&#45;&gt;Node1 -->
<g id="edge1" class="edge"><title>Node2&#45;&gt;Node1</title>
<path fill="none" stroke="midnightblue" d="M83,-68.2965C83,-59.3009 83,-49.6532 83,-41.5056"/>
<polygon fill="midnightblue" stroke="midnightblue" points="79.5001,-68.4281 83,-78.4281 86.5001,-68.4281 79.5001,-68.4281"/>
</g>
<!-- Node3 -->
<g id="node3" class="node"><title>Node3</title>
<g id="a_node3"><a xlink:href="structigloo_1_1ContextWithAttribute.html" target="_top" xlink:title="igloo::ContextWithAttribute\l\&lt; InnerContext \&gt;">
<polygon fill="white" stroke="black" points="16,-156.5 16,-186.5 150,-186.5 150,-156.5 16,-156.5"/>
<text text-anchor="start" x="24" y="-174.5" font-family="Helvetica,sans-Serif" font-size="10.00">igloo::ContextWithAttribute</text>
<text text-anchor="middle" x="83" y="-163.5" font-family="Helvetica,sans-Serif" font-size="10.00">&lt; InnerContext &gt;</text>
</a>
</g>
</g>
<!-- Node3&#45;&gt;Node2 -->
<g id="edge2" class="edge"><title>Node3&#45;&gt;Node2</title>
<path fill="none" stroke="midnightblue" d="M83,-145.982C83,-137.347 83,-127.762 83,-119.588"/>
<polygon fill="midnightblue" stroke="midnightblue" points="79.5001,-146.233 83,-156.233 86.5001,-146.233 79.5001,-146.233"/>
</g>
<!-- Node4 -->
<g id="node4" class="node"><title>Node4</title>
<g id="a_node4"><a xlink:href="structigloo_1_1ContextBase.html" target="_top" xlink:title="igloo::ContextBase">
<polygon fill="white" stroke="black" points="33,-223.5 33,-242.5 133,-242.5 133,-223.5 33,-223.5"/>
<text text-anchor="middle" x="83" y="-230.5" font-family="Helvetica,sans-Serif" font-size="10.00">igloo::ContextBase</text>
</a>
</g>
</g>
<!-- Node4&#45;&gt;Node3 -->
<g id="edge3" class="edge"><title>Node4&#45;&gt;Node3</title>
<path fill="none" stroke="midnightblue" d="M83,-213.235C83,-204.586 83,-194.497 83,-186.523"/>
<polygon fill="midnightblue" stroke="midnightblue" points="79.5001,-213.475 83,-223.475 86.5001,-213.475 79.5001,-213.475"/>
</g>
</g>
</svg>
