<?xml version="1.0" encoding="UTF-8" standalone="no"?>
<!DOCTYPE svg PUBLIC "-//W3C//DTD SVG 1.1//EN"
 "http://www.w3.org/Graphics/SVG/1.1/DTD/svg11.dtd">
<!-- Generated by graphviz version 2.40.1 (20161225.0304)
 -->
<!-- Title: _tm_evaluator::evaluate_aligned Pages: 1 -->
<svg width="365pt" height="39pt"
 viewBox="0.00 0.00 365.00 39.00" xmlns="http://www.w3.org/2000/svg" xmlns:xlink="http://www.w3.org/1999/xlink">
<g id="graph0" class="graph" transform="scale(1 1) rotate(0) translate(4 35)">
<title>_tm_evaluator::evaluate_aligned</title>
<polygon fill="#ffffff" stroke="transparent" points="-4,4 -4,-35 361,-35 361,4 -4,4"/>
<!-- Node1 -->
<g id="node1" class="node">
<title>Node1</title>
<polygon fill="#bfbfbf" stroke="#000000" points="0,-.5 0,-30.5 97,-30.5 97,-.5 0,-.5"/>
<text text-anchor="start" x="8" y="-18.5" font-family="Helvetica,sans-Serif" font-size="10.00" fill="#000000">_tm_evaluator::evaluate</text>
<text text-anchor="middle" x="48.5" y="-7.5" font-family="Helvetica,sans-Serif" font-size="10.00" fill="#000000">_aligned</text>
</g>
<!-- Node2 -->
<g id="node2" class="node">
<title>Node2</title>
<g id="a_node2"><a xlink:href="$struct__tm__evaluator.html#a7d693e7c5d175e980e39b9b7f14b8913" xlink:title="The select_evaluation function redirects expressions that do not contains solely TinyMatrix operands ...">
<polygon fill="#ffffff" stroke="#000000" points="133,-.5 133,-30.5 221,-30.5 221,-.5 133,-.5"/>
<text text-anchor="start" x="141" y="-18.5" font-family="Helvetica,sans-Serif" font-size="10.00" fill="#000000">_tm_evaluator::select</text>
<text text-anchor="middle" x="177" y="-7.5" font-family="Helvetica,sans-Serif" font-size="10.00" fill="#000000">_evaluation</text>
</a>
</g>
</g>
<!-- Node1&#45;&gt;Node2 -->
<g id="edge1" class="edge">
<title>Node1&#45;&gt;Node2</title>
<path fill="none" stroke="#191970" d="M107.1746,-15.5C115.8597,-15.5 124.6818,-15.5 132.9995,-15.5"/>
<polygon fill="#191970" stroke="#191970" points="107.0804,-12.0001 97.0803,-15.5 107.0803,-19.0001 107.0804,-12.0001"/>
</g>
<!-- Node3 -->
<g id="node3" class="node">
<title>Node3</title>
<g id="a_node3"><a xlink:href="$classTinyMatrix.html#ad1884b5277e452e45e136d79176f37b1" xlink:title="This function selects evaluation path by calling select_evaluation with a bool argument which is fals...">
<polygon fill="#ffffff" stroke="#000000" points="257,-6 257,-25 357,-25 357,-6 257,-6"/>
<text text-anchor="middle" x="307" y="-13" font-family="Helvetica,sans-Serif" font-size="10.00" fill="#000000">TinyMatrix::_tm_evaluate</text>
</a>
</g>
</g>
<!-- Node2&#45;&gt;Node3 -->
<g id="edge2" class="edge">
<title>Node2&#45;&gt;Node3</title>
<path fill="none" stroke="#191970" d="M231.1825,-15.5C239.6559,-15.5 248.3817,-15.5 256.7619,-15.5"/>
<polygon fill="#191970" stroke="#191970" points="231.0121,-12.0001 221.0121,-15.5 231.012,-19.0001 231.0121,-12.0001"/>
</g>
</g>
</svg>
