<?xml version="1.0" encoding="UTF-8" standalone="no"?>
<!DOCTYPE svg PUBLIC "-//W3C//DTD SVG 1.1//EN"
 "http://www.w3.org/Graphics/SVG/1.1/DTD/svg11.dtd">
<!-- Generated by graphviz version 2.38.0 (20140413.2041)
 -->
<!-- Title: igloo::ContextBase Pages: 1 -->
<svg width="1005pt" height="211pt"
 viewBox="0.00 0.00 1005.00 210.50" xmlns="http://www.w3.org/2000/svg" xmlns:xlink="http://www.w3.org/1999/xlink">
<g id="graph0" class="graph" transform="scale(1 1) rotate(0) translate(4 206.5)">
<title>igloo::ContextBase</title>
<polygon fill="white" stroke="none" points="-4,4 -4,-206.5 1001,-206.5 1001,4 -4,4"/>
<!-- Node1 -->
<g id="node1" class="node"><title>Node1</title>
<polygon fill="#bfbfbf" stroke="black" points="0,-55 0,-74 100,-74 100,-55 0,-55"/>
<text text-anchor="middle" x="50" y="-62" font-family="Helvetica,sans-Serif" font-size="10.00">igloo::ContextBase</text>
</g>
<!-- Node2 -->
<g id="node2" class="node"><title>Node2</title>
<g id="a_node2"><a xlink:href="structigloo_1_1ContextWithAttribute.html" target="_top" xlink:title="igloo::ContextWithAttribute\l\&lt; InnerContext \&gt;">
<polygon fill="white" stroke="black" points="164.5,-106.5 164.5,-136.5 298.5,-136.5 298.5,-106.5 164.5,-106.5"/>
<text text-anchor="start" x="172.5" y="-124.5" font-family="Helvetica,sans-Serif" font-size="10.00">igloo::ContextWithAttribute</text>
<text text-anchor="middle" x="231.5" y="-113.5" font-family="Helvetica,sans-Serif" font-size="10.00">&lt; InnerContext &gt;</text>
</a>
</g>
</g>
<!-- Node1&#45;&gt;Node2 -->
<g id="edge1" class="edge"><title>Node1&#45;&gt;Node2</title>
<path fill="none" stroke="midnightblue" d="M90.6537,-77.092C117.936,-85.7555 154.305,-97.3044 183.116,-106.453"/>
<polygon fill="midnightblue" stroke="midnightblue" points="91.6346,-73.7313 81.0443,-74.0405 89.5159,-80.403 91.6346,-73.7313"/>
</g>
<!-- Node7 -->
<g id="node7" class="node"><title>Node7</title>
<g id="a_node7"><a xlink:href="structigloo_1_1ContextWithAttribute.html" target="_top" xlink:title="igloo::ContextWithAttribute\l\&lt; SequenceContainerTestsBase\&lt; T \&gt; \&gt;">
<polygon fill="white" stroke="black" points="136,-49.5 136,-79.5 327,-79.5 327,-49.5 136,-49.5"/>
<text text-anchor="start" x="144" y="-67.5" font-family="Helvetica,sans-Serif" font-size="10.00">igloo::ContextWithAttribute</text>
<text text-anchor="middle" x="231.5" y="-56.5" font-family="Helvetica,sans-Serif" font-size="10.00">&lt; SequenceContainerTestsBase&lt; T &gt; &gt;</text>
</a>
</g>
</g>
<!-- Node1&#45;&gt;Node7 -->
<g id="edge6" class="edge"><title>Node1&#45;&gt;Node7</title>
<path fill="none" stroke="midnightblue" d="M110.293,-64.5C118.565,-64.5 127.229,-64.5 135.953,-64.5"/>
<polygon fill="midnightblue" stroke="midnightblue" points="110.049,-61.0001 100.049,-64.5 110.049,-68.0001 110.049,-61.0001"/>
</g>
<!-- Node11 -->
<g id="node11" class="node"><title>Node11</title>
<g id="a_node11"><a xlink:href="structigloo_1_1ContextWithAttribute.html" target="_top" xlink:title="igloo::ContextWithAttribute\l\&lt; ContextType \&gt;">
<polygon fill="white" stroke="black" points="164.5,-0.5 164.5,-30.5 298.5,-30.5 298.5,-0.5 164.5,-0.5"/>
<text text-anchor="start" x="172.5" y="-18.5" font-family="Helvetica,sans-Serif" font-size="10.00">igloo::ContextWithAttribute</text>
<text text-anchor="middle" x="231.5" y="-7.5" font-family="Helvetica,sans-Serif" font-size="10.00">&lt; ContextType &gt;</text>
</a>
</g>
</g>
<!-- Node1&#45;&gt;Node11 -->
<g id="edge10" class="edge"><title>Node1&#45;&gt;Node11</title>
<path fill="none" stroke="midnightblue" d="M92.1727,-52.054C106.063,-47.9451 121.675,-43.4243 136,-39.5 146.938,-36.5036 158.624,-33.4317 169.916,-30.5291"/>
<polygon fill="midnightblue" stroke="midnightblue" points="90.9935,-48.7532 82.4062,-54.9588 92.989,-55.4627 90.9935,-48.7532"/>
</g>
<!-- Node3 -->
<g id="node3" class="node"><title>Node3</title>
<g id="a_node3"><a xlink:href="structigloo_1_1NestedContextProvider.html" target="_top" xlink:title="igloo::NestedContextProvider\l\&lt; InnerContext, OuterContext,\l ISONLY, ISSKIP \&gt;">
<polygon fill="white" stroke="black" points="383,-161 383,-202 532,-202 532,-161 383,-161"/>
<text text-anchor="start" x="391" y="-190" font-family="Helvetica,sans-Serif" font-size="10.00">igloo::NestedContextProvider</text>
<text text-anchor="start" x="391" y="-179" font-family="Helvetica,sans-Serif" font-size="10.00">&lt; InnerContext, OuterContext,</text>
<text text-anchor="middle" x="457.5" y="-168" font-family="Helvetica,sans-Serif" font-size="10.00"> ISONLY, ISSKIP &gt;</text>
</a>
</g>
</g>
<!-- Node2&#45;&gt;Node3 -->
<g id="edge2" class="edge"><title>Node2&#45;&gt;Node3</title>
<path fill="none" stroke="midnightblue" d="M298.658,-139.221C325.117,-146.308 355.7,-154.5 382.861,-161.775"/>
<polygon fill="midnightblue" stroke="midnightblue" points="299.301,-135.77 288.736,-136.563 297.489,-142.531 299.301,-135.77"/>
</g>
<!-- Node5 -->
<g id="node5" class="node"><title>Node5</title>
<g id="a_node5"><a xlink:href="structigloo_1_1NestedContextProvider.html" target="_top" xlink:title="igloo::NestedContextProvider\l\&lt; InnerContext, ContextWithAttribute\l\&lt; void \&gt;, ISONLY, ISSKIP \&gt;">
<polygon fill="white" stroke="black" points="368,-101 368,-142 547,-142 547,-101 368,-101"/>
<text text-anchor="start" x="376" y="-130" font-family="Helvetica,sans-Serif" font-size="10.00">igloo::NestedContextProvider</text>
<text text-anchor="start" x="376" y="-119" font-family="Helvetica,sans-Serif" font-size="10.00">&lt; InnerContext, ContextWithAttribute</text>
<text text-anchor="middle" x="457.5" y="-108" font-family="Helvetica,sans-Serif" font-size="10.00">&lt; void &gt;, ISONLY, ISSKIP &gt;</text>
</a>
</g>
</g>
<!-- Node2&#45;&gt;Node5 -->
<g id="edge4" class="edge"><title>Node2&#45;&gt;Node5</title>
<path fill="none" stroke="midnightblue" d="M308.881,-121.5C327.883,-121.5 348.411,-121.5 367.944,-121.5"/>
<polygon fill="midnightblue" stroke="midnightblue" points="308.798,-118 298.798,-121.5 308.798,-125 308.798,-118"/>
</g>
<!-- Node4 -->
<g id="node4" class="node"><title>Node4</title>
<g id="a_node4"><a xlink:href="structigloo_1_1ContextProvider.html" target="_top" xlink:title="igloo::ContextProvider\l\&lt; InnerContext, OuterContext,\l ISONLY, ISSKIP \&gt;">
<polygon fill="white" stroke="black" points="613.5,-161 613.5,-202 762.5,-202 762.5,-161 613.5,-161"/>
<text text-anchor="start" x="621.5" y="-190" font-family="Helvetica,sans-Serif" font-size="10.00">igloo::ContextProvider</text>
<text text-anchor="start" x="621.5" y="-179" font-family="Helvetica,sans-Serif" font-size="10.00">&lt; InnerContext, OuterContext,</text>
<text text-anchor="middle" x="688" y="-168" font-family="Helvetica,sans-Serif" font-size="10.00"> ISONLY, ISSKIP &gt;</text>
</a>
</g>
</g>
<!-- Node3&#45;&gt;Node4 -->
<g id="edge3" class="edge"><title>Node3&#45;&gt;Node4</title>
<path fill="none" stroke="midnightblue" d="M542.244,-181.5C565.491,-181.5 590.556,-181.5 613.19,-181.5"/>
<polygon fill="midnightblue" stroke="midnightblue" points="542.057,-178 532.057,-181.5 542.057,-185 542.057,-178"/>
</g>
<!-- Node6 -->
<g id="node6" class="node"><title>Node6</title>
<g id="a_node6"><a xlink:href="structigloo_1_1ContextProvider_3_01InnerContext_00_01ContextWithAttribute_3_01void_01_4_00_01void_00_01ISONLY_00_01ISSKIP_01_4.html" target="_top" xlink:title="igloo::ContextProvider\l\&lt; InnerContext, ContextWithAttribute\l\&lt; void \&gt;, void, ISONLY, ISSKIP \&gt;">
<polygon fill="white" stroke="black" points="598.5,-101 598.5,-142 777.5,-142 777.5,-101 598.5,-101"/>
<text text-anchor="start" x="606.5" y="-130" font-family="Helvetica,sans-Serif" font-size="10.00">igloo::ContextProvider</text>
<text text-anchor="start" x="606.5" y="-119" font-family="Helvetica,sans-Serif" font-size="10.00">&lt; InnerContext, ContextWithAttribute</text>
<text text-anchor="middle" x="688" y="-108" font-family="Helvetica,sans-Serif" font-size="10.00">&lt; void &gt;, void, ISONLY, ISSKIP &gt;</text>
</a>
</g>
</g>
<!-- Node5&#45;&gt;Node6 -->
<g id="edge5" class="edge"><title>Node5&#45;&gt;Node6</title>
<path fill="none" stroke="midnightblue" d="M557.498,-121.5C571.095,-121.5 584.984,-121.5 598.379,-121.5"/>
<polygon fill="midnightblue" stroke="midnightblue" points="557.171,-118 547.171,-121.5 557.171,-125 557.171,-118"/>
</g>
<!-- Node8 -->
<g id="node8" class="node"><title>Node8</title>
<g id="a_node8"><a xlink:href="structigloo_1_1NestedContextProvider.html" target="_top" xlink:title="igloo::NestedContextProvider\l\&lt; SequenceContainerTestsBase\l\&lt; T \&gt;, IGLOO_CURRENT_CONTEXT,\l ISONLY, ISSKIP \&gt;">
<polygon fill="white" stroke="black" points="363,-29.5 363,-81.5 552,-81.5 552,-29.5 363,-29.5"/>
<text text-anchor="start" x="371" y="-69.5" font-family="Helvetica,sans-Serif" font-size="10.00">igloo::NestedContextProvider</text>
<text text-anchor="start" x="371" y="-58.5" font-family="Helvetica,sans-Serif" font-size="10.00">&lt; SequenceContainerTestsBase</text>
<text text-anchor="start" x="371" y="-47.5" font-family="Helvetica,sans-Serif" font-size="10.00">&lt; T &gt;, IGLOO_CURRENT_CONTEXT,</text>
<text text-anchor="middle" x="457.5" y="-36.5" font-family="Helvetica,sans-Serif" font-size="10.00"> ISONLY, ISSKIP &gt;</text>
</a>
</g>
</g>
<!-- Node7&#45;&gt;Node8 -->
<g id="edge7" class="edge"><title>Node7&#45;&gt;Node8</title>
<path fill="none" stroke="midnightblue" d="M337.196,-60.2935C345.768,-59.9491 354.397,-59.6023 362.882,-59.2614"/>
<polygon fill="midnightblue" stroke="midnightblue" points="337.023,-56.7975 327.171,-60.6962 337.304,-63.7919 337.023,-56.7975"/>
</g>
<!-- Node9 -->
<g id="node9" class="node"><title>Node9</title>
<g id="a_node9"><a xlink:href="structigloo_1_1ContextProvider.html" target="_top" xlink:title="igloo::ContextProvider\l\&lt; SequenceContainerTestsBase\l\&lt; T \&gt;, IGLOO_CURRENT_CONTEXT,\l IGLOO_ROOT_CONTEXT, false, false \&gt;">
<polygon fill="white" stroke="black" points="588,-29.5 588,-81.5 788,-81.5 788,-29.5 588,-29.5"/>
<text text-anchor="start" x="596" y="-69.5" font-family="Helvetica,sans-Serif" font-size="10.00">igloo::ContextProvider</text>
<text text-anchor="start" x="596" y="-58.5" font-family="Helvetica,sans-Serif" font-size="10.00">&lt; SequenceContainerTestsBase</text>
<text text-anchor="start" x="596" y="-47.5" font-family="Helvetica,sans-Serif" font-size="10.00">&lt; T &gt;, IGLOO_CURRENT_CONTEXT,</text>
<text text-anchor="middle" x="688" y="-36.5" font-family="Helvetica,sans-Serif" font-size="10.00"> IGLOO_ROOT_CONTEXT, false, false &gt;</text>
</a>
</g>
</g>
<!-- Node8&#45;&gt;Node9 -->
<g id="edge8" class="edge"><title>Node8&#45;&gt;Node9</title>
<path fill="none" stroke="midnightblue" d="M562.143,-55.5C570.74,-55.5 579.419,-55.5 587.981,-55.5"/>
<polygon fill="midnightblue" stroke="midnightblue" points="562.099,-52.0001 552.099,-55.5 562.099,-59.0001 562.099,-52.0001"/>
</g>
<!-- Node10 -->
<g id="node10" class="node"><title>Node10</title>
<g id="a_node10"><a xlink:href="structSequenceContainerTestsBase.html" target="_top" xlink:title="SequenceContainerTestsBase\&lt; T \&gt;">
<polygon fill="white" stroke="black" points="824,-46 824,-65 997,-65 997,-46 824,-46"/>
<text text-anchor="middle" x="910.5" y="-53" font-family="Helvetica,sans-Serif" font-size="10.00">SequenceContainerTestsBase&lt; T &gt;</text>
</a>
</g>
</g>
<!-- Node9&#45;&gt;Node10 -->
<g id="edge9" class="edge"><title>Node9&#45;&gt;Node10</title>
<path fill="none" stroke="midnightblue" d="M798.343,-55.5C806.925,-55.5 815.515,-55.5 823.904,-55.5"/>
<polygon fill="midnightblue" stroke="midnightblue" points="798.284,-52.0001 788.284,-55.5 798.284,-59.0001 798.284,-52.0001"/>
</g>
</g>
</svg>
