<?xml version="1.0" encoding="UTF-8" standalone="no"?>
<!DOCTYPE svg PUBLIC "-//W3C//DTD SVG 1.1//EN"
 "http://www.w3.org/Graphics/SVG/1.1/DTD/svg11.dtd">
<!-- Generated by graphviz version 2.40.1 (20161225.0304)
 -->
<!-- Title: GB_Semiring_opaque Pages: 1 -->
<svg width="170pt" height="251pt"
 viewBox="0.00 0.00 169.50 251.00" xmlns="http://www.w3.org/2000/svg" xmlns:xlink="http://www.w3.org/1999/xlink">
<g id="graph0" class="graph" transform="scale(1 1) rotate(0) translate(4 247)">
<title>GB_Semiring_opaque</title>
<polygon fill="#ffffff" stroke="transparent" points="-4,4 -4,-247 165.5,-247 165.5,4 -4,4"/>
<!-- Node1 -->
<g id="node1" class="node">
<title>Node1</title>
<polygon fill="#bfbfbf" stroke="#000000" points="1,-.5 1,-19.5 91,-19.5 91,-.5 1,-.5"/>
<text text-anchor="middle" x="46" y="-7.5" font-family="Helvetica,sans-Serif" font-size="10.00" fill="#000000">GB_Semiring_opaque</text>
</g>
<!-- Node2 -->
<g id="node2" class="node">
<title>Node2</title>
<g id="a_node2"><a xlink:href="structGB__BinaryOp__opaque.html" target="_top" xlink:title="GB_BinaryOp_opaque">
<polygon fill="#ffffff" stroke="#000000" points="0,-134.5 0,-153.5 92,-153.5 92,-134.5 0,-134.5"/>
<text text-anchor="middle" x="46" y="-141.5" font-family="Helvetica,sans-Serif" font-size="10.00" fill="#000000">GB_BinaryOp_opaque</text>
</a>
</g>
</g>
<!-- Node2&#45;&gt;Node1 -->
<g id="edge1" class="edge">
<title>Node2&#45;&gt;Node1</title>
<path fill="none" stroke="#9a32cd" stroke-dasharray="5,2" d="M42.5154,-124.0318C40.2099,-108.5023 37.8128,-86.4064 39,-67 40.0227,-50.2814 42.7178,-30.9581 44.4498,-19.6489"/>
<polygon fill="#9a32cd" stroke="#9a32cd" points="39.0825,-124.7291 44.1254,-134.0468 45.9938,-123.618 39.0825,-124.7291"/>
<text text-anchor="middle" x="53" y="-74.5" font-family="Helvetica,sans-Serif" font-size="10.00" fill="#000000"> multiply</text>
</g>
<!-- Node4 -->
<g id="node4" class="node">
<title>Node4</title>
<g id="a_node4"><a xlink:href="structGB__Monoid__opaque.html" target="_top" xlink:title="GB_Monoid_opaque">
<polygon fill="#ffffff" stroke="#000000" points="76.5,-67.5 76.5,-86.5 161.5,-86.5 161.5,-67.5 76.5,-67.5"/>
<text text-anchor="middle" x="119" y="-74.5" font-family="Helvetica,sans-Serif" font-size="10.00" fill="#000000">GB_Monoid_opaque</text>
</a>
</g>
</g>
<!-- Node2&#45;&gt;Node4 -->
<g id="edge4" class="edge">
<title>Node2&#45;&gt;Node4</title>
<path fill="none" stroke="#9a32cd" stroke-dasharray="5,2" d="M64.0429,-127.44C78.046,-114.5879 96.9679,-97.2212 108.5603,-86.5817"/>
<polygon fill="#9a32cd" stroke="#9a32cd" points="61.4599,-125.0601 56.4591,-134.4005 66.1931,-130.2173 61.4599,-125.0601"/>
<text text-anchor="middle" x="91.5" y="-108" font-family="Helvetica,sans-Serif" font-size="10.00" fill="#000000"> op</text>
</g>
<!-- Node3 -->
<g id="node3" class="node">
<title>Node3</title>
<g id="a_node3"><a xlink:href="structGB__Type__opaque.html" target="_top" xlink:title="GB_Type_opaque">
<polygon fill="#ffffff" stroke="#000000" points="7.5,-223.5 7.5,-242.5 84.5,-242.5 84.5,-223.5 7.5,-223.5"/>
<text text-anchor="middle" x="46" y="-230.5" font-family="Helvetica,sans-Serif" font-size="10.00" fill="#000000">GB_Type_opaque</text>
</a>
</g>
</g>
<!-- Node3&#45;&gt;Node2 -->
<g id="edge2" class="edge">
<title>Node3&#45;&gt;Node2</title>
<path fill="none" stroke="#9a32cd" stroke-dasharray="5,2" d="M46,-213.2379C46,-194.7654 46,-167.957 46,-153.7259"/>
<polygon fill="#9a32cd" stroke="#9a32cd" points="42.5001,-213.4754 46,-223.4754 49.5001,-213.4755 42.5001,-213.4754"/>
<text text-anchor="middle" x="56.5" y="-197" font-family="Helvetica,sans-Serif" font-size="10.00" fill="#000000"> xtype</text>
<text text-anchor="middle" x="56.5" y="-186" font-family="Helvetica,sans-Serif" font-size="10.00" fill="#000000">ytype</text>
<text text-anchor="middle" x="56.5" y="-175" font-family="Helvetica,sans-Serif" font-size="10.00" fill="#000000">ztype</text>
</g>
<!-- Node4&#45;&gt;Node1 -->
<g id="edge3" class="edge">
<title>Node4&#45;&gt;Node1</title>
<path fill="none" stroke="#9a32cd" stroke-dasharray="5,2" d="M100.9571,-60.44C86.954,-47.5879 68.0321,-30.2212 56.4397,-19.5817"/>
<polygon fill="#9a32cd" stroke="#9a32cd" points="98.8069,-63.2173 108.5409,-67.4005 103.5401,-58.0601 98.8069,-63.2173"/>
<text text-anchor="middle" x="93.5" y="-41" font-family="Helvetica,sans-Serif" font-size="10.00" fill="#000000"> add</text>
</g>
</g>
</svg>
