<?xml version="1.0" encoding="UTF-8" standalone="no"?>
<!DOCTYPE svg PUBLIC "-//W3C//DTD SVG 1.1//EN"
 "http://www.w3.org/Graphics/SVG/1.1/DTD/svg11.dtd">
<!-- Generated by graphviz version 2.38.0 (20140413.2041)
 -->
<!-- Title: snowhouse::NotExpression&lt; ExpressionType &gt; Pages: 1 -->
<svg width="156pt" height="117pt"
 viewBox="0.00 0.00 156.00 117.00" xmlns="http://www.w3.org/2000/svg" xmlns:xlink="http://www.w3.org/1999/xlink">
<g id="graph0" class="graph" transform="scale(1 1) rotate(0) translate(4 113)">
<title>snowhouse::NotExpression&lt; ExpressionType &gt;</title>
<polygon fill="white" stroke="none" points="-4,4 -4,-113 152,-113 152,4 -4,4"/>
<!-- Node1 -->
<g id="node1" class="node"><title>Node1</title>
<polygon fill="#bfbfbf" stroke="black" points="5.5,-0.5 5.5,-30.5 142.5,-30.5 142.5,-0.5 5.5,-0.5"/>
<text text-anchor="start" x="13.5" y="-18.5" font-family="Helvetica,sans-Serif" font-size="10.00">snowhouse::NotExpression</text>
<text text-anchor="middle" x="74" y="-7.5" font-family="Helvetica,sans-Serif" font-size="10.00">&lt; ExpressionType &gt;</text>
</g>
<!-- Node2 -->
<g id="node2" class="node"><title>Node2</title>
<g id="a_node2"><a xlink:href="structsnowhouse_1_1Expression.html" target="_top" xlink:title="snowhouse::Expression\l\&lt; NotExpression\&lt; Expression\lType \&gt; \&gt;">
<polygon fill="white" stroke="black" points="0,-67.5 0,-108.5 148,-108.5 148,-67.5 0,-67.5"/>
<text text-anchor="start" x="8" y="-96.5" font-family="Helvetica,sans-Serif" font-size="10.00">snowhouse::Expression</text>
<text text-anchor="start" x="8" y="-85.5" font-family="Helvetica,sans-Serif" font-size="10.00">&lt; NotExpression&lt; Expression</text>
<text text-anchor="middle" x="74" y="-74.5" font-family="Helvetica,sans-Serif" font-size="10.00">Type &gt; &gt;</text>
</a>
</g>
</g>
<!-- Node2&#45;&gt;Node1 -->
<g id="edge1" class="edge"><title>Node2&#45;&gt;Node1</title>
<path fill="none" stroke="midnightblue" d="M74,-57.08C74,-48.0061 74,-38.4498 74,-30.8916"/>
<polygon fill="midnightblue" stroke="midnightblue" points="70.5001,-57.3618 74,-67.3618 77.5001,-57.3619 70.5001,-57.3618"/>
</g>
</g>
</svg>
