<?xml version="1.0" encoding="UTF-8" standalone="no"?>
<!DOCTYPE svg PUBLIC "-//W3C//DTD SVG 1.1//EN"
 "http://www.w3.org/Graphics/SVG/1.1/DTD/svg11.dtd">
<!-- Generated by graphviz version 2.38.0 (20140413.2041)
 -->
<!-- Title: snowhouse::ConstraintOperator Pages: 1 -->
<!--zoomable 180 -->
<svg id="main" version="1.1" xmlns="http://www.w3.org/2000/svg" xmlns:xlink="http://www.w3.org/1999/xlink" xml:space="preserve" onload="init(evt)">
<style type="text/css"><![CDATA[
.edge:hover path { stroke: red; }
.edge:hover polygon { stroke: red; fill: red; }
]]></style>
<script type="text/javascript"><![CDATA[
var edges = document.getElementsByTagName('g');
if (edges && edges.length) {
  for (var i=0;i<edges.length;i++) {
    if (edges[i].id.substr(0,4)=='edge') {
      edges[i].setAttribute('class','edge');
    }
  }
}
]]></script>
        <defs>
                <circle id="rim" cx="0" cy="0" r="7"/>
                <circle id="rim2" cx="0" cy="0" r="3.5"/>
                <g id="zoomPlus">
                        <use xlink:href="#rim" fill="#404040">
                                <set attributeName="fill" to="#808080" begin="zoomplus.mouseover" end="zoomplus.mouseout"/>
                        </use>
                        <path d="M-4,0h8M0,-4v8" fill="none" stroke="white" stroke-width="1.5" pointer-events="none"/>
                </g>
                <g id="zoomMin">
                        <use xlink:href="#rim" fill="#404040">
                                <set attributeName="fill" to="#808080" begin="zoomminus.mouseover" end="zoomminus.mouseout"/>
                        </use>
                        <path d="M-4,0h8" fill="none" stroke="white" stroke-width="1.5" pointer-events="none"/>
                </g>
                <g id="dirArrow">
                        <path fill="none" stroke="white" stroke-width="1.5" d="M0,-3.0v7 M-2.5,-0.5L0,-3.0L2.5,-0.5"/>
                </g>
               <g id="resetDef">
                       <use xlink:href="#rim2" fill="#404040">
                               <set attributeName="fill" to="#808080" begin="reset.mouseover" end="reset.mouseout"/>
                       </use>
               </g>
        </defs>

<script type="text/javascript">
var viewWidth = 531;
var viewHeight = 180;
var sectionId = 'dynsection-0';
</script>
<script xlink:href="svgpan.js"/>
<svg id="graph" class="graph">
<g id="viewport">
<title>snowhouse::ConstraintOperator</title>
<polygon fill="white" stroke="none" points="-4,4 -4,-176 527,-176 527,4 -4,4"/>
<!-- Node1 -->
<g id="node1" class="node"><title>Node1</title>
<polygon fill="#bfbfbf" stroke="black" points="0,-57.5 0,-76.5 155,-76.5 155,-57.5 0,-57.5"/>
<text text-anchor="middle" x="77.5" y="-64.5" font-family="Helvetica,sans-Serif" font-size="10.00">snowhouse::ConstraintOperator</text>
</g>
<!-- Node2 -->
<g id="node2" class="node"><title>Node2</title>
<g id="a_node2"><a xlink:href="structsnowhouse_1_1AndOperator.html" target="_top" xlink:title="snowhouse::AndOperator">
<polygon fill="white" stroke="black" points="204,-114.5 204,-133.5 331,-133.5 331,-114.5 204,-114.5"/>
<text text-anchor="middle" x="267.5" y="-121.5" font-family="Helvetica,sans-Serif" font-size="10.00">snowhouse::AndOperator</text>
</a>
</g>
</g>
<!-- Node1&#45;&gt;Node2 -->
<g id="edge1" class="edge"><title>Node1&#45;&gt;Node2</title>
<path fill="none" stroke="midnightblue" d="M114.707,-80.0435C136.646,-87.743 165.274,-97.4311 191,-105 202.281,-108.319 214.614,-111.577 225.982,-114.431"/>
<polygon fill="midnightblue" stroke="midnightblue" points="115.727,-76.6919 105.132,-76.6606 113.395,-83.292 115.727,-76.6919"/>
</g>
<!-- Node3 -->
<g id="node3" class="node"><title>Node3</title>
<g id="a_node3"><a xlink:href="structsnowhouse_1_1CollectionOperator.html" target="_top" xlink:title="snowhouse::CollectionOperator">
<polygon fill="white" stroke="black" points="191,-76.5 191,-95.5 344,-95.5 344,-76.5 191,-76.5"/>
<text text-anchor="middle" x="267.5" y="-83.5" font-family="Helvetica,sans-Serif" font-size="10.00">snowhouse::CollectionOperator</text>
</a>
</g>
</g>
<!-- Node1&#45;&gt;Node3 -->
<g id="edge2" class="edge"><title>Node1&#45;&gt;Node3</title>
<path fill="none" stroke="midnightblue" d="M165.247,-75.767C173.819,-76.6334 182.473,-77.5079 190.92,-78.3616"/>
<polygon fill="midnightblue" stroke="midnightblue" points="165.539,-72.2788 155.238,-74.7554 164.835,-79.2433 165.539,-72.2788"/>
</g>
<!-- Node9 -->
<g id="node9" class="node"><title>Node9</title>
<g id="a_node9"><a xlink:href="structsnowhouse_1_1NotOperator.html" target="_top" xlink:title="snowhouse::NotOperator">
<polygon fill="white" stroke="black" points="205,-38.5 205,-57.5 330,-57.5 330,-38.5 205,-38.5"/>
<text text-anchor="middle" x="267.5" y="-45.5" font-family="Helvetica,sans-Serif" font-size="10.00">snowhouse::NotOperator</text>
</a>
</g>
</g>
<!-- Node1&#45;&gt;Node9 -->
<g id="edge8" class="edge"><title>Node1&#45;&gt;Node9</title>
<path fill="none" stroke="midnightblue" d="M165.396,-58.2179C178.753,-56.868 192.302,-55.4987 204.957,-54.2198"/>
<polygon fill="midnightblue" stroke="midnightblue" points="164.835,-54.7567 155.238,-59.2446 165.539,-61.7212 164.835,-54.7567"/>
</g>
<!-- Node10 -->
<g id="node10" class="node"><title>Node10</title>
<g id="a_node10"><a xlink:href="structsnowhouse_1_1OrOperator.html" target="_top" xlink:title="snowhouse::OrOperator">
<polygon fill="white" stroke="black" points="207.5,-0.5 207.5,-19.5 327.5,-19.5 327.5,-0.5 207.5,-0.5"/>
<text text-anchor="middle" x="267.5" y="-7.5" font-family="Helvetica,sans-Serif" font-size="10.00">snowhouse::OrOperator</text>
</a>
</g>
</g>
<!-- Node1&#45;&gt;Node10 -->
<g id="edge9" class="edge"><title>Node1&#45;&gt;Node10</title>
<path fill="none" stroke="midnightblue" d="M114.707,-53.9565C136.646,-46.257 165.274,-36.5689 191,-29 202.281,-25.6809 214.614,-22.4234 225.982,-19.5689"/>
<polygon fill="midnightblue" stroke="midnightblue" points="113.395,-50.708 105.132,-57.3394 115.727,-57.3081 113.395,-50.708"/>
</g>
<!-- Node4 -->
<g id="node4" class="node"><title>Node4</title>
<g id="a_node4"><a xlink:href="structsnowhouse_1_1AllOperator.html" target="_top" xlink:title="snowhouse::AllOperator">
<polygon fill="white" stroke="black" points="391,-152.5 391,-171.5 512,-171.5 512,-152.5 391,-152.5"/>
<text text-anchor="middle" x="451.5" y="-159.5" font-family="Helvetica,sans-Serif" font-size="10.00">snowhouse::AllOperator</text>
</a>
</g>
</g>
<!-- Node3&#45;&gt;Node4 -->
<g id="edge3" class="edge"><title>Node3&#45;&gt;Node4</title>
<path fill="none" stroke="midnightblue" d="M331.814,-99.0133C336.05,-100.765 340.156,-102.75 344,-105 364.079,-116.75 360.02,-131.082 380,-143 386.532,-146.896 393.875,-150.01 401.29,-152.494"/>
<polygon fill="midnightblue" stroke="midnightblue" points="332.977,-95.7118 322.384,-95.5395 330.558,-102.28 332.977,-95.7118"/>
</g>
<!-- Node5 -->
<g id="node5" class="node"><title>Node5</title>
<g id="a_node5"><a xlink:href="structsnowhouse_1_1AtLeastOperator.html" target="_top" xlink:title="snowhouse::AtLeastOperator">
<polygon fill="white" stroke="black" points="380,-114.5 380,-133.5 523,-133.5 523,-114.5 380,-114.5"/>
<text text-anchor="middle" x="451.5" y="-121.5" font-family="Helvetica,sans-Serif" font-size="10.00">snowhouse::AtLeastOperator</text>
</a>
</g>
</g>
<!-- Node3&#45;&gt;Node5 -->
<g id="edge4" class="edge"><title>Node3&#45;&gt;Node5</title>
<path fill="none" stroke="midnightblue" d="M324.446,-97.681C350.256,-103.07 380.507,-109.386 404.904,-114.48"/>
<polygon fill="midnightblue" stroke="midnightblue" points="324.931,-94.2068 314.426,-95.589 323.5,-101.059 324.931,-94.2068"/>
</g>
<!-- Node6 -->
<g id="node6" class="node"><title>Node6</title>
<g id="a_node6"><a xlink:href="structsnowhouse_1_1AtMostOperator.html" target="_top" xlink:title="snowhouse::AtMostOperator">
<polygon fill="white" stroke="black" points="381,-76.5 381,-95.5 522,-95.5 522,-76.5 381,-76.5"/>
<text text-anchor="middle" x="451.5" y="-83.5" font-family="Helvetica,sans-Serif" font-size="10.00">snowhouse::AtMostOperator</text>
</a>
</g>
</g>
<!-- Node3&#45;&gt;Node6 -->
<g id="edge5" class="edge"><title>Node3&#45;&gt;Node6</title>
<path fill="none" stroke="midnightblue" d="M354.184,-86C363.156,-86 372.197,-86 380.956,-86"/>
<polygon fill="midnightblue" stroke="midnightblue" points="354.103,-82.5001 344.103,-86 354.103,-89.5001 354.103,-82.5001"/>
</g>
<!-- Node7 -->
<g id="node7" class="node"><title>Node7</title>
<g id="a_node7"><a xlink:href="structsnowhouse_1_1ExactlyOperator.html" target="_top" xlink:title="snowhouse::ExactlyOperator">
<polygon fill="white" stroke="black" points="380,-38.5 380,-57.5 523,-57.5 523,-38.5 380,-38.5"/>
<text text-anchor="middle" x="451.5" y="-45.5" font-family="Helvetica,sans-Serif" font-size="10.00">snowhouse::ExactlyOperator</text>
</a>
</g>
</g>
<!-- Node3&#45;&gt;Node7 -->
<g id="edge6" class="edge"><title>Node3&#45;&gt;Node7</title>
<path fill="none" stroke="midnightblue" d="M324.446,-74.319C350.256,-68.9301 380.507,-62.6139 404.904,-57.5201"/>
<polygon fill="midnightblue" stroke="midnightblue" points="323.5,-70.941 314.426,-76.411 324.931,-77.7932 323.5,-70.941"/>
</g>
<!-- Node8 -->
<g id="node8" class="node"><title>Node8</title>
<g id="a_node8"><a xlink:href="structsnowhouse_1_1NoneOperator.html" target="_top" xlink:title="snowhouse::NoneOperator">
<polygon fill="white" stroke="black" points="385,-0.5 385,-19.5 518,-19.5 518,-0.5 385,-0.5"/>
<text text-anchor="middle" x="451.5" y="-7.5" font-family="Helvetica,sans-Serif" font-size="10.00">snowhouse::NoneOperator</text>
</a>
</g>
</g>
<!-- Node3&#45;&gt;Node8 -->
<g id="edge7" class="edge"><title>Node3&#45;&gt;Node8</title>
<path fill="none" stroke="midnightblue" d="M331.814,-72.9867C336.05,-71.235 340.156,-69.2497 344,-67 364.079,-55.2495 360.02,-40.9178 380,-29 386.532,-25.1037 393.875,-21.9901 401.29,-19.5064"/>
<polygon fill="midnightblue" stroke="midnightblue" points="330.558,-69.7197 322.384,-76.4605 332.977,-76.2882 330.558,-69.7197"/>
</g>
</g>
</svg>
        <g id="navigator" transform="translate(0 0)" fill="#404254">
                <rect fill="#f2f5e9" fill-opacity="0.5" stroke="#606060" stroke-width=".5" x="0" y="0" width="60" height="60"/>
                <use id="zoomplus" xlink:href="#zoomPlus" x="17" y="9" onmousedown="handleZoom(evt,'in')"/>
                <use id="zoomminus" xlink:href="#zoomMin" x="42" y="9" onmousedown="handleZoom(evt,'out')"/>
                <use id="reset" xlink:href="#resetDef" x="30" y="36" onmousedown="handleReset()"/>
                <g id="arrowUp" xlink:href="#dirArrow" transform="translate(30 24)" onmousedown="handlePan(0,-1)">
                  <use xlink:href="#rim" fill="#404040">
                        <set attributeName="fill" to="#808080" begin="arrowUp.mouseover" end="arrowUp.mouseout"/>
                  </use>
                  <path fill="none" stroke="white" stroke-width="1.5" d="M0,-3.0v7 M-2.5,-0.5L0,-3.0L2.5,-0.5"/>
                </g>
                <g id="arrowRight" xlink:href="#dirArrow" transform="rotate(90) translate(36 -43)" onmousedown="handlePan(1,0)">
                  <use xlink:href="#rim" fill="#404040">
                        <set attributeName="fill" to="#808080" begin="arrowRight.mouseover" end="arrowRight.mouseout"/>
                  </use>
                  <path fill="none" stroke="white" stroke-width="1.5" d="M0,-3.0v7 M-2.5,-0.5L0,-3.0L2.5,-0.5"/>
                </g>
                <g id="arrowDown" xlink:href="#dirArrow" transform="rotate(180) translate(-30 -48)" onmousedown="handlePan(0,1)">
                  <use xlink:href="#rim" fill="#404040">
                        <set attributeName="fill" to="#808080" begin="arrowDown.mouseover" end="arrowDown.mouseout"/>
                  </use>
                  <path fill="none" stroke="white" stroke-width="1.5" d="M0,-3.0v7 M-2.5,-0.5L0,-3.0L2.5,-0.5"/>
                </g>
                <g id="arrowLeft" xlink:href="#dirArrow" transform="rotate(270) translate(-36 17)" onmousedown="handlePan(-1,0)">
                  <use xlink:href="#rim" fill="#404040">
                        <set attributeName="fill" to="#808080" begin="arrowLeft.mouseover" end="arrowLeft.mouseout"/>
                  </use>
                  <path fill="none" stroke="white" stroke-width="1.5" d="M0,-3.0v7 M-2.5,-0.5L0,-3.0L2.5,-0.5"/>
                </g>
        </g>
        <svg viewBox="0 0 15 15" width="100%" height="30px" preserveAspectRatio="xMaxYMin meet">
         <g id="arrow_out" transform="scale(0.3 0.3)">
          <a xlink:href="structsnowhouse_1_1ConstraintOperator__inherit__graph_org.svg" target="_base">
           <rect id="button" ry="5" rx="5" y="6" x="6" height="38" width="38"
                fill="#f2f5e9" fill-opacity="0.5" stroke="#606060" stroke-width="1.0"/>
           <path id="arrow"
             d="M 11.500037,31.436501 C 11.940474,20.09759 22.043105,11.32322 32.158766,21.979434 L 37.068811,17.246167 C 37.068811,17.246167 37.088388,32 37.088388,32 L 22.160133,31.978069 C 22.160133,31.978069 26.997745,27.140456 26.997745,27.140456 C 18.528582,18.264221 13.291696,25.230495 11.500037,31.436501 z"
             style="fill:#404040;"/>
          </a>
         </g>
        </svg>
</svg>
