<?xml version="1.0" encoding="UTF-8" standalone="no"?>
<!DOCTYPE svg PUBLIC "-//W3C//DTD SVG 1.1//EN"
 "http://www.w3.org/Graphics/SVG/1.1/DTD/svg11.dtd">
<!-- Generated by graphviz version 2.40.1 (20161225.0304)
 -->
<!-- Title: _tm_evaluator::select_evaluation Pages: 1 -->
<svg width="229pt" height="39pt"
 viewBox="0.00 0.00 229.00 39.00" xmlns="http://www.w3.org/2000/svg" xmlns:xlink="http://www.w3.org/1999/xlink">
<g id="graph0" class="graph" transform="scale(1 1) rotate(0) translate(4 35)">
<title>_tm_evaluator::select_evaluation</title>
<polygon fill="#ffffff" stroke="transparent" points="-4,4 -4,-35 225,-35 225,4 -4,4"/>
<!-- Node6 -->
<g id="node1" class="node">
<title>Node6</title>
<polygon fill="#bfbfbf" stroke="#000000" points="0,-.5 0,-30.5 88,-30.5 88,-.5 0,-.5"/>
<text text-anchor="start" x="8" y="-18.5" font-family="Helvetica,sans-Serif" font-size="10.00" fill="#000000">_tm_evaluator::select</text>
<text text-anchor="middle" x="44" y="-7.5" font-family="Helvetica,sans-Serif" font-size="10.00" fill="#000000">_evaluation</text>
</g>
<!-- Node7 -->
<g id="node2" class="node">
<title>Node7</title>
<g id="a_node2"><a xlink:href="$struct__tm__evaluator.html#a416ea85773d61ddac30f6e4eced6d2f5" xlink:title="This version of the evaluation function assumes that the TinyMatrixs have appropriate alignment (as w...">
<polygon fill="#ffffff" stroke="#000000" points="124,-.5 124,-30.5 221,-30.5 221,-.5 124,-.5"/>
<text text-anchor="start" x="132" y="-18.5" font-family="Helvetica,sans-Serif" font-size="10.00" fill="#000000">_tm_evaluator::evaluate</text>
<text text-anchor="middle" x="172.5" y="-7.5" font-family="Helvetica,sans-Serif" font-size="10.00" fill="#000000">_aligned</text>
</a>
</g>
</g>
<!-- Node6&#45;&gt;Node7 -->
<g id="edge1" class="edge">
<title>Node6&#45;&gt;Node7</title>
<path fill="none" stroke="#191970" d="M88.2224,-15.5C96.3773,-15.5 105.0104,-15.5 113.5194,-15.5"/>
<polygon fill="#191970" stroke="#191970" points="113.7966,-19.0001 123.7966,-15.5 113.7965,-12.0001 113.7966,-19.0001"/>
</g>
</g>
</svg>
