<?xml version="1.0" encoding="UTF-8" standalone="no"?>
<!DOCTYPE svg PUBLIC "-//W3C//DTD SVG 1.1//EN"
 "http://www.w3.org/Graphics/SVG/1.1/DTD/svg11.dtd">
<!-- Generated by graphviz version 2.40.1 (20161225.0304)
 -->
<!-- Title: _tv_evaluator::select_evaluation Pages: 1 -->
<svg width="225pt" height="39pt"
 viewBox="0.00 0.00 225.00 39.00" xmlns="http://www.w3.org/2000/svg" xmlns:xlink="http://www.w3.org/1999/xlink">
<g id="graph0" class="graph" transform="scale(1 1) rotate(0) translate(4 35)">
<title>_tv_evaluator::select_evaluation</title>
<polygon fill="#ffffff" stroke="transparent" points="-4,4 -4,-35 221,-35 221,4 -4,4"/>
<!-- Node8 -->
<g id="node1" class="node">
<title>Node8</title>
<polygon fill="#bfbfbf" stroke="#000000" points="0,-.5 0,-30.5 85,-30.5 85,-.5 0,-.5"/>
<text text-anchor="start" x="8" y="-18.5" font-family="Helvetica,sans-Serif" font-size="10.00" fill="#000000">_tv_evaluator::select</text>
<text text-anchor="middle" x="42.5" y="-7.5" font-family="Helvetica,sans-Serif" font-size="10.00" fill="#000000">_evaluation</text>
</g>
<!-- Node9 -->
<g id="node2" class="node">
<title>Node9</title>
<g id="a_node2"><a xlink:href="$classTinyVector.html#a2271e55815c065598d0eecf899109d76" xlink:title="This function selects evaluation path by calling select_evaluation with a bool argument which is fals...">
<polygon fill="#ffffff" stroke="#000000" points="121,-.5 121,-30.5 217,-30.5 217,-.5 121,-.5"/>
<text text-anchor="start" x="129" y="-18.5" font-family="Helvetica,sans-Serif" font-size="10.00" fill="#000000">TinyVector&lt; diffType,</text>
<text text-anchor="middle" x="169" y="-7.5" font-family="Helvetica,sans-Serif" font-size="10.00" fill="#000000"> N_rank &gt;::_tv_evaluate</text>
</a>
</g>
</g>
<!-- Node8&#45;&gt;Node9 -->
<g id="edge1" class="edge">
<title>Node8&#45;&gt;Node9</title>
<path fill="none" stroke="#191970" d="M95.4817,-15.5C103.9436,-15.5 112.6574,-15.5 120.9954,-15.5"/>
<polygon fill="#191970" stroke="#191970" points="95.3272,-12.0001 85.3271,-15.5 95.3271,-19.0001 95.3272,-12.0001"/>
</g>
</g>
</svg>
