<?xml version="1.0" encoding="UTF-8" standalone="no"?>
<!DOCTYPE svg PUBLIC "-//W3C//DTD SVG 1.1//EN"
 "http://www.w3.org/Graphics/SVG/1.1/DTD/svg11.dtd">
<!-- Generated by graphviz version 2.38.0 (20140413.2041)
 -->
<!-- Title: igloo::NestedContextProvider&lt; InnerContext, OuterContext, ISONLY, ISSKIP &gt; Pages: 1 -->
<svg width="157pt" height="251pt"
 viewBox="0.00 0.00 157.00 251.00" xmlns="http://www.w3.org/2000/svg" xmlns:xlink="http://www.w3.org/1999/xlink">
<g id="graph0" class="graph" transform="scale(1 1) rotate(0) translate(4 247)">
<title>igloo::NestedContextProvider&lt; InnerContext, OuterContext, ISONLY, ISSKIP &gt;</title>
<polygon fill="white" stroke="none" points="-4,4 -4,-247 153,-247 153,4 -4,4"/>
<!-- Node1 -->
<g id="node1" class="node"><title>Node1</title>
<polygon fill="#bfbfbf" stroke="black" points="-1.42109e-14,-78.5 -1.42109e-14,-119.5 149,-119.5 149,-78.5 -1.42109e-14,-78.5"/>
<text text-anchor="start" x="8" y="-107.5" font-family="Helvetica,sans-Serif" font-size="10.00">igloo::NestedContextProvider</text>
<text text-anchor="start" x="8" y="-96.5" font-family="Helvetica,sans-Serif" font-size="10.00">&lt; InnerContext, OuterContext,</text>
<text text-anchor="middle" x="74.5" y="-85.5" font-family="Helvetica,sans-Serif" font-size="10.00"> ISONLY, ISSKIP &gt;</text>
</g>
<!-- Node4 -->
<g id="node4" class="node"><title>Node4</title>
<g id="a_node4"><a xlink:href="structigloo_1_1ContextProvider.html" target="_top" xlink:title="igloo::ContextProvider\l\&lt; InnerContext, OuterContext,\l ISONLY, ISSKIP \&gt;">
<polygon fill="white" stroke="black" points="-1.42109e-14,-0.5 -1.42109e-14,-41.5 149,-41.5 149,-0.5 -1.42109e-14,-0.5"/>
<text text-anchor="start" x="8" y="-29.5" font-family="Helvetica,sans-Serif" font-size="10.00">igloo::ContextProvider</text>
<text text-anchor="start" x="8" y="-18.5" font-family="Helvetica,sans-Serif" font-size="10.00">&lt; InnerContext, OuterContext,</text>
<text text-anchor="middle" x="74.5" y="-7.5" font-family="Helvetica,sans-Serif" font-size="10.00"> ISONLY, ISSKIP &gt;</text>
</a>
</g>
</g>
<!-- Node1&#45;&gt;Node4 -->
<g id="edge3" class="edge"><title>Node1&#45;&gt;Node4</title>
<path fill="none" stroke="midnightblue" d="M74.5,-68.2965C74.5,-59.3009 74.5,-49.6532 74.5,-41.5056"/>
<polygon fill="midnightblue" stroke="midnightblue" points="71.0001,-68.4281 74.5,-78.4281 78.0001,-68.4281 71.0001,-68.4281"/>
</g>
<!-- Node2 -->
<g id="node2" class="node"><title>Node2</title>
<g id="a_node2"><a xlink:href="structigloo_1_1ContextWithAttribute.html" target="_top" xlink:title="igloo::ContextWithAttribute\l\&lt; InnerContext \&gt;">
<polygon fill="white" stroke="black" points="7.5,-156.5 7.5,-186.5 141.5,-186.5 141.5,-156.5 7.5,-156.5"/>
<text text-anchor="start" x="15.5" y="-174.5" font-family="Helvetica,sans-Serif" font-size="10.00">igloo::ContextWithAttribute</text>
<text text-anchor="middle" x="74.5" y="-163.5" font-family="Helvetica,sans-Serif" font-size="10.00">&lt; InnerContext &gt;</text>
</a>
</g>
</g>
<!-- Node2&#45;&gt;Node1 -->
<g id="edge1" class="edge"><title>Node2&#45;&gt;Node1</title>
<path fill="none" stroke="midnightblue" d="M74.5,-145.982C74.5,-137.347 74.5,-127.762 74.5,-119.588"/>
<polygon fill="midnightblue" stroke="midnightblue" points="71.0001,-146.233 74.5,-156.233 78.0001,-146.233 71.0001,-146.233"/>
</g>
<!-- Node3 -->
<g id="node3" class="node"><title>Node3</title>
<g id="a_node3"><a xlink:href="structigloo_1_1ContextBase.html" target="_top" xlink:title="igloo::ContextBase">
<polygon fill="white" stroke="black" points="24.5,-223.5 24.5,-242.5 124.5,-242.5 124.5,-223.5 24.5,-223.5"/>
<text text-anchor="middle" x="74.5" y="-230.5" font-family="Helvetica,sans-Serif" font-size="10.00">igloo::ContextBase</text>
</a>
</g>
</g>
<!-- Node3&#45;&gt;Node2 -->
<g id="edge2" class="edge"><title>Node3&#45;&gt;Node2</title>
<path fill="none" stroke="midnightblue" d="M74.5,-213.235C74.5,-204.586 74.5,-194.497 74.5,-186.523"/>
<polygon fill="midnightblue" stroke="midnightblue" points="71.0001,-213.475 74.5,-223.475 78.0001,-213.475 71.0001,-213.475"/>
</g>
</g>
</svg>
