<?xml version="1.0" encoding="UTF-8" standalone="no"?>
<!DOCTYPE svg PUBLIC "-//W3C//DTD SVG 1.1//EN"
 "http://www.w3.org/Graphics/SVG/1.1/DTD/svg11.dtd">
<!-- Generated by graphviz version 2.40.1 (20161225.0304)
 -->
<!-- Title: _tv_evaluator::evaluate_aligned Pages: 1 -->
<svg width="355pt" height="39pt"
 viewBox="0.00 0.00 355.00 39.00" xmlns="http://www.w3.org/2000/svg" xmlns:xlink="http://www.w3.org/1999/xlink">
<g id="graph0" class="graph" transform="scale(1 1) rotate(0) translate(4 35)">
<title>_tv_evaluator::evaluate_aligned</title>
<polygon fill="#ffffff" stroke="transparent" points="-4,4 -4,-35 351,-35 351,4 -4,4"/>
<!-- Node1 -->
<g id="node1" class="node">
<title>Node1</title>
<polygon fill="#bfbfbf" stroke="#000000" points="0,-.5 0,-30.5 94,-30.5 94,-.5 0,-.5"/>
<text text-anchor="start" x="8" y="-18.5" font-family="Helvetica,sans-Serif" font-size="10.00" fill="#000000">_tv_evaluator::evaluate</text>
<text text-anchor="middle" x="47" y="-7.5" font-family="Helvetica,sans-Serif" font-size="10.00" fill="#000000">_aligned</text>
</g>
<!-- Node2 -->
<g id="node2" class="node">
<title>Node2</title>
<g id="a_node2"><a xlink:href="$struct__tv__evaluator.html#a7778cc12a050297f16ddf7c06cae4e7e" xlink:title="The select_evaluation function redirects expressions that do not contains solely TinyVector operands ...">
<polygon fill="#ffffff" stroke="#000000" points="130,-.5 130,-30.5 215,-30.5 215,-.5 130,-.5"/>
<text text-anchor="start" x="138" y="-18.5" font-family="Helvetica,sans-Serif" font-size="10.00" fill="#000000">_tv_evaluator::select</text>
<text text-anchor="middle" x="172.5" y="-7.5" font-family="Helvetica,sans-Serif" font-size="10.00" fill="#000000">_evaluation</text>
</a>
</g>
</g>
<!-- Node1&#45;&gt;Node2 -->
<g id="edge1" class="edge">
<title>Node1&#45;&gt;Node2</title>
<path fill="none" stroke="#191970" d="M104.0922,-15.5C112.7032,-15.5 121.4575,-15.5 129.6994,-15.5"/>
<polygon fill="#191970" stroke="#191970" points="104.0887,-12.0001 94.0886,-15.5 104.0886,-19.0001 104.0887,-12.0001"/>
</g>
<!-- Node3 -->
<g id="node3" class="node">
<title>Node3</title>
<g id="a_node3"><a xlink:href="$classTinyVector.html#a2271e55815c065598d0eecf899109d76" xlink:title="This function selects evaluation path by calling select_evaluation with a bool argument which is fals...">
<polygon fill="#ffffff" stroke="#000000" points="251,-.5 251,-30.5 347,-30.5 347,-.5 251,-.5"/>
<text text-anchor="start" x="259" y="-18.5" font-family="Helvetica,sans-Serif" font-size="10.00" fill="#000000">TinyVector&lt; diffType,</text>
<text text-anchor="middle" x="299" y="-7.5" font-family="Helvetica,sans-Serif" font-size="10.00" fill="#000000"> N_rank &gt;::_tv_evaluate</text>
</a>
</g>
</g>
<!-- Node2&#45;&gt;Node3 -->
<g id="edge2" class="edge">
<title>Node2&#45;&gt;Node3</title>
<path fill="none" stroke="#191970" d="M225.4817,-15.5C233.9436,-15.5 242.6574,-15.5 250.9954,-15.5"/>
<polygon fill="#191970" stroke="#191970" points="225.3272,-12.0001 215.3271,-15.5 225.3271,-19.0001 225.3272,-12.0001"/>
</g>
</g>
</svg>
