<?xml version="1.0" encoding="UTF-8" standalone="no"?>
<!DOCTYPE svg PUBLIC "-//W3C//DTD SVG 1.1//EN"
 "http://www.w3.org/Graphics/SVG/1.1/DTD/svg11.dtd">
<!-- Generated by graphviz version 2.40.1 (20161225.0304)
 -->
<!-- Title: _tv_evaluator::select_evaluation Pages: 1 -->
<svg width="223pt" height="39pt"
 viewBox="0.00 0.00 223.00 39.00" xmlns="http://www.w3.org/2000/svg" xmlns:xlink="http://www.w3.org/1999/xlink">
<g id="graph0" class="graph" transform="scale(1 1) rotate(0) translate(4 35)">
<title>_tv_evaluator::select_evaluation</title>
<polygon fill="#ffffff" stroke="transparent" points="-4,4 -4,-35 219,-35 219,4 -4,4"/>
<!-- Node6 -->
<g id="node1" class="node">
<title>Node6</title>
<polygon fill="#bfbfbf" stroke="#000000" points="0,-.5 0,-30.5 85,-30.5 85,-.5 0,-.5"/>
<text text-anchor="start" x="8" y="-18.5" font-family="Helvetica,sans-Serif" font-size="10.00" fill="#000000">_tv_evaluator::select</text>
<text text-anchor="middle" x="42.5" y="-7.5" font-family="Helvetica,sans-Serif" font-size="10.00" fill="#000000">_evaluation</text>
</g>
<!-- Node7 -->
<g id="node2" class="node">
<title>Node7</title>
<g id="a_node2"><a xlink:href="$struct__tv__evaluator.html#a6f2469707858d42ae520d74256d1418f" xlink:title="This version of the evaluation function assumes that the TinyVectors have appropriate alignment (as w...">
<polygon fill="#ffffff" stroke="#000000" points="121,-.5 121,-30.5 215,-30.5 215,-.5 121,-.5"/>
<text text-anchor="start" x="129" y="-18.5" font-family="Helvetica,sans-Serif" font-size="10.00" fill="#000000">_tv_evaluator::evaluate</text>
<text text-anchor="middle" x="168" y="-7.5" font-family="Helvetica,sans-Serif" font-size="10.00" fill="#000000">_aligned</text>
</a>
</g>
</g>
<!-- Node6&#45;&gt;Node7 -->
<g id="edge1" class="edge">
<title>Node6&#45;&gt;Node7</title>
<path fill="none" stroke="#191970" d="M85.339,-15.5C93.4162,-15.5 101.9844,-15.5 110.4269,-15.5"/>
<polygon fill="#191970" stroke="#191970" points="110.6209,-19.0001 120.6209,-15.5 110.6209,-12.0001 110.6209,-19.0001"/>
</g>
</g>
</svg>
