<?xml version="1.0" encoding="UTF-8" standalone="no"?>
<!DOCTYPE svg PUBLIC "-//W3C//DTD SVG 1.1//EN"
 "http://www.w3.org/Graphics/SVG/1.1/DTD/svg11.dtd">
<!-- Generated by graphviz version 2.40.1 (20161225.0304)
 -->
<!-- Title: spqr_blob&lt; Entry &gt; Pages: 1 -->
<svg width="191pt" height="173pt"
 viewBox="0.00 0.00 190.50 173.00" xmlns="http://www.w3.org/2000/svg" xmlns:xlink="http://www.w3.org/1999/xlink">
<g id="graph0" class="graph" transform="scale(1 1) rotate(0) translate(4 169)">
<title>spqr_blob&lt; Entry &gt;</title>
<polygon fill="#ffffff" stroke="transparent" points="-4,4 -4,-169 186.5,-169 186.5,4 -4,4"/>
<!-- Node1 -->
<g id="node1" class="node">
<title>Node1</title>
<polygon fill="#bfbfbf" stroke="#000000" points="59.5,-.5 59.5,-19.5 139.5,-19.5 139.5,-.5 59.5,-.5"/>
<text text-anchor="middle" x="99.5" y="-7.5" font-family="Helvetica,sans-Serif" font-size="10.00" fill="#000000">spqr_blob&lt; Entry &gt;</text>
</g>
<!-- Node2 -->
<g id="node2" class="node">
<title>Node2</title>
<g id="a_node2"><a xlink:href="structcholmod__common__struct.html" target="_top" xlink:title="cholmod_common_struct">
<polygon fill="#ffffff" stroke="#000000" points=".5,-67.5 .5,-86.5 100.5,-86.5 100.5,-67.5 .5,-67.5"/>
<text text-anchor="middle" x="50.5" y="-74.5" font-family="Helvetica,sans-Serif" font-size="10.00" fill="#000000">cholmod_common_struct</text>
</a>
</g>
</g>
<!-- Node2&#45;&gt;Node1 -->
<g id="edge1" class="edge">
<title>Node2&#45;&gt;Node1</title>
<path fill="none" stroke="#9a32cd" stroke-dasharray="5,2" d="M63.6786,-58.9803C72.9531,-46.2989 85.0022,-29.8235 92.4925,-19.5817"/>
<polygon fill="#9a32cd" stroke="#9a32cd" points="60.5986,-57.2627 57.5205,-67.4005 66.2488,-61.3949 60.5986,-57.2627"/>
<text text-anchor="middle" x="83.5" y="-41" font-family="Helvetica,sans-Serif" font-size="10.00" fill="#000000"> cc</text>
</g>
<!-- Node3 -->
<g id="node3" class="node">
<title>Node3</title>
<g id="a_node3"><a xlink:href="structcholmod__common__struct_1_1cholmod__method__struct.html" target="_top" xlink:title="cholmod_common_struct\l::cholmod_method_struct">
<polygon fill="#ffffff" stroke="#000000" points="0,-134.5 0,-164.5 101,-164.5 101,-134.5 0,-134.5"/>
<text text-anchor="start" x="8" y="-152.5" font-family="Helvetica,sans-Serif" font-size="10.00" fill="#000000">cholmod_common_struct</text>
<text text-anchor="middle" x="50.5" y="-141.5" font-family="Helvetica,sans-Serif" font-size="10.00" fill="#000000">::cholmod_method_struct</text>
</a>
</g>
</g>
<!-- Node3&#45;&gt;Node2 -->
<g id="edge2" class="edge">
<title>Node3&#45;&gt;Node2</title>
<path fill="none" stroke="#9a32cd" stroke-dasharray="5,2" d="M50.5,-124.305C50.5,-111.424 50.5,-96.4836 50.5,-86.8957"/>
<polygon fill="#9a32cd" stroke="#9a32cd" points="47.0001,-124.4779 50.5,-134.478 54.0001,-124.478 47.0001,-124.4779"/>
<text text-anchor="middle" x="64.5" y="-108" font-family="Helvetica,sans-Serif" font-size="10.00" fill="#000000"> method</text>
</g>
<!-- Node4 -->
<g id="node4" class="node">
<title>Node4</title>
<g id="a_node4"><a xlink:href="structspqr__symbolic.html" target="_top" xlink:title="spqr_symbolic">
<polygon fill="#ffffff" stroke="#000000" points="118.5,-67.5 118.5,-86.5 182.5,-86.5 182.5,-67.5 118.5,-67.5"/>
<text text-anchor="middle" x="150.5" y="-74.5" font-family="Helvetica,sans-Serif" font-size="10.00" fill="#000000">spqr_symbolic</text>
</a>
</g>
</g>
<!-- Node4&#45;&gt;Node1 -->
<g id="edge3" class="edge">
<title>Node4&#45;&gt;Node1</title>
<path fill="none" stroke="#9a32cd" stroke-dasharray="5,2" d="M137.0639,-59.3486C127.3744,-46.6194 114.6652,-29.9229 106.7935,-19.5817"/>
<polygon fill="#9a32cd" stroke="#9a32cd" points="134.3511,-61.5634 143.1929,-67.4005 139.921,-57.3236 134.3511,-61.5634"/>
<text text-anchor="middle" x="142.5" y="-41" font-family="Helvetica,sans-Serif" font-size="10.00" fill="#000000"> QRsym</text>
</g>
<!-- Node5 -->
<g id="node5" class="node">
<title>Node5</title>
<g id="a_node5"><a xlink:href="structspqr__gpu.html" target="_top" xlink:title="spqr_gpu">
<polygon fill="#ffffff" stroke="#000000" points="126.5,-140 126.5,-159 174.5,-159 174.5,-140 126.5,-140"/>
<text text-anchor="middle" x="150.5" y="-147" font-family="Helvetica,sans-Serif" font-size="10.00" fill="#000000">spqr_gpu</text>
</a>
</g>
</g>
<!-- Node5&#45;&gt;Node4 -->
<g id="edge4" class="edge">
<title>Node5&#45;&gt;Node4</title>
<path fill="none" stroke="#9a32cd" stroke-dasharray="5,2" d="M150.5,-129.6054C150.5,-115.6237 150.5,-97.5346 150.5,-86.6228"/>
<polygon fill="#9a32cd" stroke="#9a32cd" points="147.0001,-129.7223 150.5,-139.7223 154.0001,-129.7224 147.0001,-129.7223"/>
<text text-anchor="middle" x="163.5" y="-108" font-family="Helvetica,sans-Serif" font-size="10.00" fill="#000000"> QRgpu</text>
</g>
</g>
</svg>
