<?xml version="1.0" encoding="UTF-8" standalone="no"?>
<!DOCTYPE svg PUBLIC "-//W3C//DTD SVG 1.1//EN"
 "http://www.w3.org/Graphics/SVG/1.1/DTD/svg11.dtd">
<!-- Generated by graphviz version 2.38.0 (20140413.2041)
 -->
<!-- Title: SequenceContainerTestsBase&lt; T &gt; Pages: 1 -->
<svg width="1005pt" height="61pt"
 viewBox="0.00 0.00 1005.00 61.00" xmlns="http://www.w3.org/2000/svg" xmlns:xlink="http://www.w3.org/1999/xlink">
<g id="graph0" class="graph" transform="scale(1 1) rotate(0) translate(4 57)">
<title>SequenceContainerTestsBase&lt; T &gt;</title>
<polygon fill="white" stroke="none" points="-4,4 -4,-57 1001,-57 1001,4 -4,4"/>
<!-- Node1 -->
<g id="node1" class="node"><title>Node1</title>
<polygon fill="#bfbfbf" stroke="black" points="824,-17 824,-36 997,-36 997,-17 824,-17"/>
<text text-anchor="middle" x="910.5" y="-24" font-family="Helvetica,sans-Serif" font-size="10.00">SequenceContainerTestsBase&lt; T &gt;</text>
</g>
<!-- Node2 -->
<g id="node2" class="node"><title>Node2</title>
<g id="a_node2"><a xlink:href="structigloo_1_1ContextProvider.html" target="_top" xlink:title="igloo::ContextProvider\l\&lt; SequenceContainerTestsBase\l\&lt; T \&gt;, IGLOO_CURRENT_CONTEXT,\l IGLOO_ROOT_CONTEXT, false, false \&gt;">
<polygon fill="white" stroke="black" points="588,-0.5 588,-52.5 788,-52.5 788,-0.5 588,-0.5"/>
<text text-anchor="start" x="596" y="-40.5" font-family="Helvetica,sans-Serif" font-size="10.00">igloo::ContextProvider</text>
<text text-anchor="start" x="596" y="-29.5" font-family="Helvetica,sans-Serif" font-size="10.00">&lt; SequenceContainerTestsBase</text>
<text text-anchor="start" x="596" y="-18.5" font-family="Helvetica,sans-Serif" font-size="10.00">&lt; T &gt;, IGLOO_CURRENT_CONTEXT,</text>
<text text-anchor="middle" x="688" y="-7.5" font-family="Helvetica,sans-Serif" font-size="10.00"> IGLOO_ROOT_CONTEXT, false, false &gt;</text>
</a>
</g>
</g>
<!-- Node2&#45;&gt;Node1 -->
<g id="edge1" class="edge"><title>Node2&#45;&gt;Node1</title>
<path fill="none" stroke="midnightblue" d="M798.343,-26.5C806.925,-26.5 815.515,-26.5 823.904,-26.5"/>
<polygon fill="midnightblue" stroke="midnightblue" points="798.284,-23.0001 788.284,-26.5 798.284,-30.0001 798.284,-23.0001"/>
</g>
<!-- Node3 -->
<g id="node3" class="node"><title>Node3</title>
<g id="a_node3"><a xlink:href="structigloo_1_1NestedContextProvider.html" target="_top" xlink:title="igloo::NestedContextProvider\l\&lt; SequenceContainerTestsBase\l\&lt; T \&gt;, IGLOO_CURRENT_CONTEXT,\l ISONLY, ISSKIP \&gt;">
<polygon fill="white" stroke="black" points="363,-0.5 363,-52.5 552,-52.5 552,-0.5 363,-0.5"/>
<text text-anchor="start" x="371" y="-40.5" font-family="Helvetica,sans-Serif" font-size="10.00">igloo::NestedContextProvider</text>
<text text-anchor="start" x="371" y="-29.5" font-family="Helvetica,sans-Serif" font-size="10.00">&lt; SequenceContainerTestsBase</text>
<text text-anchor="start" x="371" y="-18.5" font-family="Helvetica,sans-Serif" font-size="10.00">&lt; T &gt;, IGLOO_CURRENT_CONTEXT,</text>
<text text-anchor="middle" x="457.5" y="-7.5" font-family="Helvetica,sans-Serif" font-size="10.00"> ISONLY, ISSKIP &gt;</text>
</a>
</g>
</g>
<!-- Node3&#45;&gt;Node2 -->
<g id="edge2" class="edge"><title>Node3&#45;&gt;Node2</title>
<path fill="none" stroke="midnightblue" d="M562.143,-26.5C570.74,-26.5 579.419,-26.5 587.981,-26.5"/>
<polygon fill="midnightblue" stroke="midnightblue" points="562.099,-23.0001 552.099,-26.5 562.099,-30.0001 562.099,-23.0001"/>
</g>
<!-- Node4 -->
<g id="node4" class="node"><title>Node4</title>
<g id="a_node4"><a xlink:href="structigloo_1_1ContextWithAttribute.html" target="_top" xlink:title="igloo::ContextWithAttribute\l\&lt; SequenceContainerTestsBase\&lt; T \&gt; \&gt;">
<polygon fill="white" stroke="black" points="136,-11.5 136,-41.5 327,-41.5 327,-11.5 136,-11.5"/>
<text text-anchor="start" x="144" y="-29.5" font-family="Helvetica,sans-Serif" font-size="10.00">igloo::ContextWithAttribute</text>
<text text-anchor="middle" x="231.5" y="-18.5" font-family="Helvetica,sans-Serif" font-size="10.00">&lt; SequenceContainerTestsBase&lt; T &gt; &gt;</text>
</a>
</g>
</g>
<!-- Node4&#45;&gt;Node3 -->
<g id="edge3" class="edge"><title>Node4&#45;&gt;Node3</title>
<path fill="none" stroke="midnightblue" d="M337.196,-26.5C345.768,-26.5 354.397,-26.5 362.882,-26.5"/>
<polygon fill="midnightblue" stroke="midnightblue" points="337.172,-23.0001 327.171,-26.5 337.171,-30.0001 337.172,-23.0001"/>
</g>
<!-- Node5 -->
<g id="node5" class="node"><title>Node5</title>
<g id="a_node5"><a xlink:href="structigloo_1_1ContextBase.html" target="_top" xlink:title="igloo::ContextBase">
<polygon fill="white" stroke="black" points="0,-17 0,-36 100,-36 100,-17 0,-17"/>
<text text-anchor="middle" x="50" y="-24" font-family="Helvetica,sans-Serif" font-size="10.00">igloo::ContextBase</text>
</a>
</g>
</g>
<!-- Node5&#45;&gt;Node4 -->
<g id="edge4" class="edge"><title>Node5&#45;&gt;Node4</title>
<path fill="none" stroke="midnightblue" d="M110.293,-26.5C118.565,-26.5 127.229,-26.5 135.953,-26.5"/>
<polygon fill="midnightblue" stroke="midnightblue" points="110.049,-23.0001 100.049,-26.5 110.049,-30.0001 110.049,-23.0001"/>
</g>
</g>
</svg>
