<?xml version="1.0" encoding="UTF-8" standalone="no"?>
<!DOCTYPE svg PUBLIC "-//W3C//DTD SVG 1.1//EN"
 "http://www.w3.org/Graphics/SVG/1.1/DTD/svg11.dtd">
<!-- Generated by graphviz version 2.40.1 (20161225.0304)
 -->
<!-- Title: GB_Monoid_opaque Pages: 1 -->
<svg width="100pt" height="184pt"
 viewBox="0.00 0.00 100.00 184.00" xmlns="http://www.w3.org/2000/svg" xmlns:xlink="http://www.w3.org/1999/xlink">
<g id="graph0" class="graph" transform="scale(1 1) rotate(0) translate(4 180)">
<title>GB_Monoid_opaque</title>
<polygon fill="#ffffff" stroke="transparent" points="-4,4 -4,-180 96,-180 96,4 -4,4"/>
<!-- Node1 -->
<g id="node1" class="node">
<title>Node1</title>
<polygon fill="#bfbfbf" stroke="#000000" points="3.5,-.5 3.5,-19.5 88.5,-19.5 88.5,-.5 3.5,-.5"/>
<text text-anchor="middle" x="46" y="-7.5" font-family="Helvetica,sans-Serif" font-size="10.00" fill="#000000">GB_Monoid_opaque</text>
</g>
<!-- Node2 -->
<g id="node2" class="node">
<title>Node2</title>
<g id="a_node2"><a xlink:href="structGB__BinaryOp__opaque.html" target="_top" xlink:title="GB_BinaryOp_opaque">
<polygon fill="#ffffff" stroke="#000000" points="0,-67.5 0,-86.5 92,-86.5 92,-67.5 0,-67.5"/>
<text text-anchor="middle" x="46" y="-74.5" font-family="Helvetica,sans-Serif" font-size="10.00" fill="#000000">GB_BinaryOp_opaque</text>
</a>
</g>
</g>
<!-- Node2&#45;&gt;Node1 -->
<g id="edge1" class="edge">
<title>Node2&#45;&gt;Node1</title>
<path fill="none" stroke="#9a32cd" stroke-dasharray="5,2" d="M46,-57.1079C46,-44.714 46,-29.3263 46,-19.5817"/>
<polygon fill="#9a32cd" stroke="#9a32cd" points="42.5001,-57.4005 46,-67.4005 49.5001,-57.4006 42.5001,-57.4005"/>
<text text-anchor="middle" x="51.5" y="-41" font-family="Helvetica,sans-Serif" font-size="10.00" fill="#000000"> op</text>
</g>
<!-- Node3 -->
<g id="node3" class="node">
<title>Node3</title>
<g id="a_node3"><a xlink:href="structGB__Type__opaque.html" target="_top" xlink:title="GB_Type_opaque">
<polygon fill="#ffffff" stroke="#000000" points="7.5,-156.5 7.5,-175.5 84.5,-175.5 84.5,-156.5 7.5,-156.5"/>
<text text-anchor="middle" x="46" y="-163.5" font-family="Helvetica,sans-Serif" font-size="10.00" fill="#000000">GB_Type_opaque</text>
</a>
</g>
</g>
<!-- Node3&#45;&gt;Node2 -->
<g id="edge2" class="edge">
<title>Node3&#45;&gt;Node2</title>
<path fill="none" stroke="#9a32cd" stroke-dasharray="5,2" d="M46,-146.2379C46,-127.7654 46,-100.957 46,-86.7259"/>
<polygon fill="#9a32cd" stroke="#9a32cd" points="42.5001,-146.4754 46,-156.4754 49.5001,-146.4755 42.5001,-146.4754"/>
<text text-anchor="middle" x="56.5" y="-130" font-family="Helvetica,sans-Serif" font-size="10.00" fill="#000000"> xtype</text>
<text text-anchor="middle" x="56.5" y="-119" font-family="Helvetica,sans-Serif" font-size="10.00" fill="#000000">ytype</text>
<text text-anchor="middle" x="56.5" y="-108" font-family="Helvetica,sans-Serif" font-size="10.00" fill="#000000">ztype</text>
</g>
</g>
</svg>
