<?xml version="1.0" encoding="UTF-8" standalone="no"?>
<!DOCTYPE svg PUBLIC "-//W3C//DTD SVG 1.1//EN"
 "http://www.w3.org/Graphics/SVG/1.1/DTD/svg11.dtd">
<!-- Generated by graphviz version 2.38.0 (20140413.2041)
 -->
<!-- Title: snowhouse::CollectionOperator Pages: 1 -->
<svg width="531pt" height="180pt"
 viewBox="0.00 0.00 531.00 180.00" xmlns="http://www.w3.org/2000/svg" xmlns:xlink="http://www.w3.org/1999/xlink">
<g id="graph0" class="graph" transform="scale(1 1) rotate(0) translate(4 176)">
<title>snowhouse::CollectionOperator</title>
<polygon fill="white" stroke="none" points="-4,4 -4,-176 527,-176 527,4 -4,4"/>
<!-- Node1 -->
<g id="node1" class="node"><title>Node1</title>
<polygon fill="#bfbfbf" stroke="black" points="191,-76.5 191,-95.5 344,-95.5 344,-76.5 191,-76.5"/>
<text text-anchor="middle" x="267.5" y="-83.5" font-family="Helvetica,sans-Serif" font-size="10.00">snowhouse::CollectionOperator</text>
</g>
<!-- Node3 -->
<g id="node3" class="node"><title>Node3</title>
<g id="a_node3"><a xlink:href="structsnowhouse_1_1AllOperator.html" target="_top" xlink:title="snowhouse::AllOperator">
<polygon fill="white" stroke="black" points="391,-152.5 391,-171.5 512,-171.5 512,-152.5 391,-152.5"/>
<text text-anchor="middle" x="451.5" y="-159.5" font-family="Helvetica,sans-Serif" font-size="10.00">snowhouse::AllOperator</text>
</a>
</g>
</g>
<!-- Node1&#45;&gt;Node3 -->
<g id="edge2" class="edge"><title>Node1&#45;&gt;Node3</title>
<path fill="none" stroke="midnightblue" d="M293.378,-100.632C315.529,-113.19 349.115,-131.095 380,-143 389.344,-146.602 399.635,-149.79 409.398,-152.477"/>
<polygon fill="midnightblue" stroke="midnightblue" points="295.042,-97.5512 284.627,-95.6103 291.558,-103.623 295.042,-97.5512"/>
</g>
<!-- Node4 -->
<g id="node4" class="node"><title>Node4</title>
<g id="a_node4"><a xlink:href="structsnowhouse_1_1AtLeastOperator.html" target="_top" xlink:title="snowhouse::AtLeastOperator">
<polygon fill="white" stroke="black" points="380,-114.5 380,-133.5 523,-133.5 523,-114.5 380,-114.5"/>
<text text-anchor="middle" x="451.5" y="-121.5" font-family="Helvetica,sans-Serif" font-size="10.00">snowhouse::AtLeastOperator</text>
</a>
</g>
</g>
<!-- Node1&#45;&gt;Node4 -->
<g id="edge3" class="edge"><title>Node1&#45;&gt;Node4</title>
<path fill="none" stroke="midnightblue" d="M324.446,-97.681C350.256,-103.07 380.507,-109.386 404.904,-114.48"/>
<polygon fill="midnightblue" stroke="midnightblue" points="324.931,-94.2068 314.426,-95.589 323.5,-101.059 324.931,-94.2068"/>
</g>
<!-- Node5 -->
<g id="node5" class="node"><title>Node5</title>
<g id="a_node5"><a xlink:href="structsnowhouse_1_1AtMostOperator.html" target="_top" xlink:title="snowhouse::AtMostOperator">
<polygon fill="white" stroke="black" points="381,-76.5 381,-95.5 522,-95.5 522,-76.5 381,-76.5"/>
<text text-anchor="middle" x="451.5" y="-83.5" font-family="Helvetica,sans-Serif" font-size="10.00">snowhouse::AtMostOperator</text>
</a>
</g>
</g>
<!-- Node1&#45;&gt;Node5 -->
<g id="edge4" class="edge"><title>Node1&#45;&gt;Node5</title>
<path fill="none" stroke="midnightblue" d="M354.184,-86C363.156,-86 372.197,-86 380.956,-86"/>
<polygon fill="midnightblue" stroke="midnightblue" points="354.103,-82.5001 344.103,-86 354.103,-89.5001 354.103,-82.5001"/>
</g>
<!-- Node6 -->
<g id="node6" class="node"><title>Node6</title>
<g id="a_node6"><a xlink:href="structsnowhouse_1_1ExactlyOperator.html" target="_top" xlink:title="snowhouse::ExactlyOperator">
<polygon fill="white" stroke="black" points="380,-38.5 380,-57.5 523,-57.5 523,-38.5 380,-38.5"/>
<text text-anchor="middle" x="451.5" y="-45.5" font-family="Helvetica,sans-Serif" font-size="10.00">snowhouse::ExactlyOperator</text>
</a>
</g>
</g>
<!-- Node1&#45;&gt;Node6 -->
<g id="edge5" class="edge"><title>Node1&#45;&gt;Node6</title>
<path fill="none" stroke="midnightblue" d="M324.446,-74.319C350.256,-68.9301 380.507,-62.6139 404.904,-57.5201"/>
<polygon fill="midnightblue" stroke="midnightblue" points="323.5,-70.941 314.426,-76.411 324.931,-77.7932 323.5,-70.941"/>
</g>
<!-- Node7 -->
<g id="node7" class="node"><title>Node7</title>
<g id="a_node7"><a xlink:href="structsnowhouse_1_1NoneOperator.html" target="_top" xlink:title="snowhouse::NoneOperator">
<polygon fill="white" stroke="black" points="385,-0.5 385,-19.5 518,-19.5 518,-0.5 385,-0.5"/>
<text text-anchor="middle" x="451.5" y="-7.5" font-family="Helvetica,sans-Serif" font-size="10.00">snowhouse::NoneOperator</text>
</a>
</g>
</g>
<!-- Node1&#45;&gt;Node7 -->
<g id="edge6" class="edge"><title>Node1&#45;&gt;Node7</title>
<path fill="none" stroke="midnightblue" d="M293.378,-71.3683C315.529,-58.8104 349.115,-40.9049 380,-29 389.344,-25.3982 399.635,-22.21 409.398,-19.5231"/>
<polygon fill="midnightblue" stroke="midnightblue" points="291.558,-68.3772 284.627,-76.3897 295.042,-74.4488 291.558,-68.3772"/>
</g>
<!-- Node2 -->
<g id="node2" class="node"><title>Node2</title>
<g id="a_node2"><a xlink:href="structsnowhouse_1_1ConstraintOperator.html" target="_top" xlink:title="snowhouse::ConstraintOperator">
<polygon fill="white" stroke="black" points="0,-76.5 0,-95.5 155,-95.5 155,-76.5 0,-76.5"/>
<text text-anchor="middle" x="77.5" y="-83.5" font-family="Helvetica,sans-Serif" font-size="10.00">snowhouse::ConstraintOperator</text>
</a>
</g>
</g>
<!-- Node2&#45;&gt;Node1 -->
<g id="edge1" class="edge"><title>Node2&#45;&gt;Node1</title>
<path fill="none" stroke="midnightblue" d="M165.247,-86C173.819,-86 182.473,-86 190.92,-86"/>
<polygon fill="midnightblue" stroke="midnightblue" points="165.238,-82.5001 155.238,-86 165.238,-89.5001 165.238,-82.5001"/>
</g>
</g>
</svg>
