<?xml version="1.0" encoding="UTF-8" standalone="no"?>
<!DOCTYPE svg PUBLIC "-//W3C//DTD SVG 1.1//EN"
 "http://www.w3.org/Graphics/SVG/1.1/DTD/svg11.dtd">
<!-- Generated by graphviz version 2.38.0 (20140413.2041)
 -->
<!-- Title: igloo::ContextProvider&lt; InnerContext, ContextWithAttribute&lt; void &gt;, void, ISONLY, ISSKIP &gt; Pages: 1 -->
<svg width="708pt" height="50pt"
 viewBox="0.00 0.00 708.00 50.00" xmlns="http://www.w3.org/2000/svg" xmlns:xlink="http://www.w3.org/1999/xlink">
<g id="graph0" class="graph" transform="scale(1 1) rotate(0) translate(4 46)">
<title>igloo::ContextProvider&lt; InnerContext, ContextWithAttribute&lt; void &gt;, void, ISONLY, ISSKIP &gt;</title>
<polygon fill="white" stroke="none" points="-4,4 -4,-46 704,-46 704,4 -4,4"/>
<!-- Node1 -->
<g id="node1" class="node"><title>Node1</title>
<polygon fill="#bfbfbf" stroke="black" points="521,-0.5 521,-41.5 700,-41.5 700,-0.5 521,-0.5"/>
<text text-anchor="start" x="529" y="-29.5" font-family="Helvetica,sans-Serif" font-size="10.00">igloo::ContextProvider</text>
<text text-anchor="start" x="529" y="-18.5" font-family="Helvetica,sans-Serif" font-size="10.00">&lt; InnerContext, ContextWithAttribute</text>
<text text-anchor="middle" x="610.5" y="-7.5" font-family="Helvetica,sans-Serif" font-size="10.00">&lt; void &gt;, void, ISONLY, ISSKIP &gt;</text>
</g>
<!-- Node2 -->
<g id="node2" class="node"><title>Node2</title>
<g id="a_node2"><a xlink:href="structigloo_1_1NestedContextProvider.html" target="_top" xlink:title="igloo::NestedContextProvider\l\&lt; InnerContext, ContextWithAttribute\l\&lt; void \&gt;, ISONLY, ISSKIP \&gt;">
<polygon fill="white" stroke="black" points="306,-0.5 306,-41.5 485,-41.5 485,-0.5 306,-0.5"/>
<text text-anchor="start" x="314" y="-29.5" font-family="Helvetica,sans-Serif" font-size="10.00">igloo::NestedContextProvider</text>
<text text-anchor="start" x="314" y="-18.5" font-family="Helvetica,sans-Serif" font-size="10.00">&lt; InnerContext, ContextWithAttribute</text>
<text text-anchor="middle" x="395.5" y="-7.5" font-family="Helvetica,sans-Serif" font-size="10.00">&lt; void &gt;, ISONLY, ISSKIP &gt;</text>
</a>
</g>
</g>
<!-- Node2&#45;&gt;Node1 -->
<g id="edge1" class="edge"><title>Node2&#45;&gt;Node1</title>
<path fill="none" stroke="midnightblue" d="M495.545,-21C503.99,-21 512.498,-21 520.855,-21"/>
<polygon fill="midnightblue" stroke="midnightblue" points="495.289,-17.5001 485.289,-21 495.289,-24.5001 495.289,-17.5001"/>
</g>
<!-- Node3 -->
<g id="node3" class="node"><title>Node3</title>
<g id="a_node3"><a xlink:href="structigloo_1_1ContextWithAttribute.html" target="_top" xlink:title="igloo::ContextWithAttribute\l\&lt; InnerContext \&gt;">
<polygon fill="white" stroke="black" points="136,-6 136,-36 270,-36 270,-6 136,-6"/>
<text text-anchor="start" x="144" y="-24" font-family="Helvetica,sans-Serif" font-size="10.00">igloo::ContextWithAttribute</text>
<text text-anchor="middle" x="203" y="-13" font-family="Helvetica,sans-Serif" font-size="10.00">&lt; InnerContext &gt;</text>
</a>
</g>
</g>
<!-- Node3&#45;&gt;Node2 -->
<g id="edge2" class="edge"><title>Node3&#45;&gt;Node2</title>
<path fill="none" stroke="midnightblue" d="M280.203,-21C288.59,-21 297.183,-21 305.706,-21"/>
<polygon fill="midnightblue" stroke="midnightblue" points="280.093,-17.5001 270.093,-21 280.093,-24.5001 280.093,-17.5001"/>
</g>
<!-- Node4 -->
<g id="node4" class="node"><title>Node4</title>
<g id="a_node4"><a xlink:href="structigloo_1_1ContextBase.html" target="_top" xlink:title="igloo::ContextBase">
<polygon fill="white" stroke="black" points="0,-11.5 0,-30.5 100,-30.5 100,-11.5 0,-11.5"/>
<text text-anchor="middle" x="50" y="-18.5" font-family="Helvetica,sans-Serif" font-size="10.00">igloo::ContextBase</text>
</a>
</g>
</g>
<!-- Node4&#45;&gt;Node3 -->
<g id="edge3" class="edge"><title>Node4&#45;&gt;Node3</title>
<path fill="none" stroke="midnightblue" d="M110.161,-21C118.611,-21 127.348,-21 135.921,-21"/>
<polygon fill="midnightblue" stroke="midnightblue" points="110.025,-17.5001 100.025,-21 110.025,-24.5001 110.025,-17.5001"/>
</g>
</g>
</svg>
