<?xml version="1.0" encoding="UTF-8" standalone="no"?>
<!DOCTYPE svg PUBLIC "-//W3C//DTD SVG 1.1//EN"
 "http://www.w3.org/Graphics/SVG/1.1/DTD/svg11.dtd">
<!-- Generated by graphviz version 2.38.0 (20140413.2041)
 -->
<!-- Title: include/Types.hpp Pages: 1 -->
<svg width="353pt" height="140pt"
 viewBox="0.00 0.00 352.50 140.00" xmlns="http://www.w3.org/2000/svg" xmlns:xlink="http://www.w3.org/1999/xlink">
<g id="graph0" class="graph" transform="scale(1 1) rotate(0) translate(4 136)">
<title>include/Types.hpp</title>
<polygon fill="white" stroke="none" points="-4,4 -4,-136 348.5,-136 348.5,4 -4,4"/>
<!-- Node1 -->
<g id="node1" class="node"><title>Node1</title>
<polygon fill="#bfbfbf" stroke="black" points="110,-112.5 110,-131.5 206,-131.5 206,-112.5 110,-112.5"/>
<text text-anchor="middle" x="158" y="-119.5" font-family="Helvetica,sans-Serif" font-size="10.00">include/Types.hpp</text>
</g>
<!-- Node2 -->
<g id="node2" class="node"><title>Node2</title>
<g id="a_node2"><a xlink:href="LinAlgHelpers_8hpp.html" target="_top" xlink:title="Implements a set functions for basic linear algebra operations. ">
<polygon fill="white" stroke="black" points="0,-56.5 0,-75.5 130,-75.5 130,-56.5 0,-56.5"/>
<text text-anchor="middle" x="65" y="-63.5" font-family="Helvetica,sans-Serif" font-size="10.00">include/LinAlgHelpers.hpp</text>
</a>
</g>
</g>
<!-- Node1&#45;&gt;Node2 -->
<g id="edge1" class="edge"><title>Node1&#45;&gt;Node2</title>
<path fill="none" stroke="midnightblue" d="M134.194,-107.177C117.081,-97.2407 94.5347,-84.1492 79.905,-75.6545"/>
<polygon fill="midnightblue" stroke="midnightblue" points="132.653,-110.329 143.058,-112.324 136.168,-104.276 132.653,-110.329"/>
</g>
<!-- Node3 -->
<g id="node3" class="node"><title>Node3</title>
<g id="a_node3"><a xlink:href="GMRESSolver_8hpp.html" target="_top" xlink:title="Implements a right&#45;preconditioned GMRES iterative method. ">
<polygon fill="white" stroke="black" points="44,-0.5 44,-19.5 178,-19.5 178,-0.5 44,-0.5"/>
<text text-anchor="middle" x="111" y="-7.5" font-family="Helvetica,sans-Serif" font-size="10.00">include/GMRESSolver.hpp</text>
</a>
</g>
</g>
<!-- Node1&#45;&gt;Node3 -->
<g id="edge3" class="edge"><title>Node1&#45;&gt;Node3</title>
<path fill="none" stroke="midnightblue" d="M154.013,-102.49C150.817,-89.218 145.749,-71.093 139,-56 132.99,-42.5603 123.555,-28.3421 117.324,-19.5684"/>
<polygon fill="midnightblue" stroke="midnightblue" points="150.62,-103.351 156.255,-112.323 157.445,-101.795 150.62,-103.351"/>
</g>
<!-- Node4 -->
<g id="node4" class="node"><title>Node4</title>
<g id="a_node4"><a xlink:href="Nodes1DProvisioner_8hpp_source.html" target="_top" xlink:title="include/Nodes1DProvisioner.hpp">
<polygon fill="white" stroke="black" points="185.5,-56.5 185.5,-75.5 344.5,-75.5 344.5,-56.5 185.5,-56.5"/>
<text text-anchor="middle" x="265" y="-63.5" font-family="Helvetica,sans-Serif" font-size="10.00">include/Nodes1DProvisioner.hpp</text>
</a>
</g>
</g>
<!-- Node1&#45;&gt;Node4 -->
<g id="edge4" class="edge"><title>Node1&#45;&gt;Node4</title>
<path fill="none" stroke="midnightblue" d="M184.302,-107.726C204.115,-97.7271 230.707,-84.3065 247.851,-75.6545"/>
<polygon fill="midnightblue" stroke="midnightblue" points="182.542,-104.694 175.191,-112.324 185.696,-110.943 182.542,-104.694"/>
</g>
<!-- Node2&#45;&gt;Node3 -->
<g id="edge2" class="edge"><title>Node2&#45;&gt;Node3</title>
<path fill="none" stroke="midnightblue" d="M79.114,-48.4314C87.176,-38.9673 96.9592,-27.4827 103.545,-19.7511"/>
<polygon fill="midnightblue" stroke="midnightblue" points="76.4163,-46.2009 72.596,-56.083 81.745,-50.7402 76.4163,-46.2009"/>
</g>
</g>
</svg>
