<?xml version="1.0" encoding="UTF-8" standalone="no"?>
<!DOCTYPE svg PUBLIC "-//W3C//DTD SVG 1.1//EN"
 "http://www.w3.org/Graphics/SVG/1.1/DTD/svg11.dtd">
<!-- Generated by graphviz version 2.40.1 (20161225.0304)
 -->
<!-- Title: include/Types.hpp Pages: 1 -->
<svg width="294pt" height="140pt"
 viewBox="0.00 0.00 294.00 140.00" xmlns="http://www.w3.org/2000/svg" xmlns:xlink="http://www.w3.org/1999/xlink">
<g id="graph0" class="graph" transform="scale(1 1) rotate(0) translate(4 136)">
<title>include/Types.hpp</title>
<polygon fill="#ffffff" stroke="transparent" points="-4,4 -4,-136 290,-136 290,4 -4,4"/>
<!-- Node2 -->
<g id="node1" class="node">
<title>Node2</title>
<polygon fill="#bfbfbf" stroke="#000000" points="93.5,-112.5 93.5,-131.5 170.5,-131.5 170.5,-112.5 93.5,-112.5"/>
<text text-anchor="middle" x="132" y="-119.5" font-family="Helvetica,sans-Serif" font-size="10.00" fill="#000000">include/Types.hpp</text>
</g>
<!-- Node3 -->
<g id="node2" class="node">
<title>Node3</title>
<g id="a_node2"><a xlink:href="LinAlgHelpers_8hpp.html" target="_top" xlink:title="Implements a set functions for basic linear algebra operations. ">
<polygon fill="#ffffff" stroke="#000000" points="0,-56.5 0,-75.5 104,-75.5 104,-56.5 0,-56.5"/>
<text text-anchor="middle" x="52" y="-63.5" font-family="Helvetica,sans-Serif" font-size="10.00" fill="#000000">include/LinAlgHelpers.hpp</text>
</a>
</g>
</g>
<!-- Node2&#45;&gt;Node3 -->
<g id="edge1" class="edge">
<title>Node2&#45;&gt;Node3</title>
<path fill="none" stroke="#191970" d="M109.8429,-106.49C95.728,-96.6096 77.8849,-84.1194 65.7752,-75.6427"/>
<polygon fill="#191970" stroke="#191970" points="107.8656,-109.3782 118.0651,-112.2455 111.8799,-103.6436 107.8656,-109.3782"/>
</g>
<!-- Node4 -->
<g id="node3" class="node">
<title>Node4</title>
<g id="a_node3"><a xlink:href="GMRESSolver_8hpp.html" target="_top" xlink:title="Implements a right&#45;preconditioned GMRES iterative method. ">
<polygon fill="#ffffff" stroke="#000000" points="39,-.5 39,-19.5 145,-19.5 145,-.5 39,-.5"/>
<text text-anchor="middle" x="92" y="-7.5" font-family="Helvetica,sans-Serif" font-size="10.00" fill="#000000">include/GMRESSolver.hpp</text>
</a>
</g>
</g>
<!-- Node2&#45;&gt;Node4 -->
<g id="edge3" class="edge">
<title>Node2&#45;&gt;Node4</title>
<path fill="none" stroke="#191970" d="M127.2118,-102.5514C123.7468,-89.2757 118.6877,-71.3769 113,-56 108.2489,-43.1554 101.4901,-28.8836 96.9348,-19.6937"/>
<polygon fill="#191970" stroke="#191970" points="123.8737,-103.627 129.7262,-112.4587 130.6586,-101.905 123.8737,-103.627"/>
</g>
<!-- Node5 -->
<g id="node4" class="node">
<title>Node5</title>
<g id="a_node4"><a xlink:href="Nodes1DProvisioner_8hpp_source.html" target="_top" xlink:title="include/Nodes1DProvisioner.hpp">
<polygon fill="#ffffff" stroke="#000000" points="160,-56.5 160,-75.5 286,-75.5 286,-56.5 160,-56.5"/>
<text text-anchor="middle" x="223" y="-63.5" font-family="Helvetica,sans-Serif" font-size="10.00" fill="#000000">include/Nodes1DProvisioner.hpp</text>
</a>
</g>
</g>
<!-- Node2&#45;&gt;Node5 -->
<g id="edge4" class="edge">
<title>Node2&#45;&gt;Node5</title>
<path fill="none" stroke="#191970" d="M156.7504,-106.769C172.8758,-96.8456 193.426,-84.1994 207.3307,-75.6427"/>
<polygon fill="#191970" stroke="#191970" points="154.5332,-104.0237 147.851,-112.2455 158.2019,-109.9853 154.5332,-104.0237"/>
</g>
<!-- Node3&#45;&gt;Node4 -->
<g id="edge2" class="edge">
<title>Node3&#45;&gt;Node4</title>
<path fill="none" stroke="#191970" d="M64.9136,-47.9209C71.6303,-38.5176 79.5717,-27.3997 85.1124,-19.6427"/>
<polygon fill="#191970" stroke="#191970" points="61.9318,-46.0738 58.9675,-56.2455 67.628,-50.1425 61.9318,-46.0738"/>
</g>
</g>
</svg>
